<?xml version="1.0" encoding="utf-8"?>
<!-- Generator: Adobe Illustrator 25.3.1, SVG Export Plug-In . SVG Version: 6.00 Build 0)  -->
<svg version="1.1" id="Ebene_1" xmlns="http://www.w3.org/2000/svg" xmlns:xlink="http://www.w3.org/1999/xlink" x="0px" y="0px"
	 viewBox="0 0 2177.6 2177.6" style="enable-background:new 0 0 2177.6 2177.6;" xml:space="preserve">
<style type="text/css">
	.st0{fill:#CCCCCC;}
	.st1{opacity:0.5;fill:#87603D;}
	.st2{fill:#A5A5A5;}
	.st3{fill:#F6F6F6;}
	.st4{fill:#68442A;}
	.st5{fill:#202020;}
	.st6{fill:#808080;}
	.st7{fill:#856548;}
	.st8{fill:#A38060;}
	.st9{fill:#595959;}
	.st10{fill:none;stroke:#454545;stroke-width:5;stroke-miterlimit:10;}
	.st11{fill:#454545;}
	.st12{fill:none;stroke:#808080;stroke-width:5;stroke-miterlimit:10;stroke-dasharray:12.4333;}
</style>
<g>
	<path class="st0" d="M1873.3,1684.5H311.8l0-0.2l0-1.2l0.2-8.9l0.2-6.6c0,0,0,0,0,0l2.2-80.8l1.9-70.2l2.8-102.8l0.9-32.5l0.1-4.5
		l1.1-40.4l1.3-49.8l2.1-76.9l0-1.1l0.5-19l2.4-88.9l1.9-69.4v0l0-0.3c0,0,0,0,0,0l0.9-32.4l0.5-19.5l1.5-56.4l3.2-116.3l1.6-57.8
		l1.6-61.2c0-19.5,1-37.8,3.1-55c2.5-20.9,6.4-40.1,11.7-57.8c18.5-61.7,53.8-105,102.6-135.2c70.4-43.7,168.8-60.2,285.2-66.5
		c4.9-0.3,9.9-0.5,14.9-0.7c1.8-0.1,44.7-0.2,107.6-0.2c63-0.1,146-0.1,228.2-0.2h1.1c157,0.1,317.1,0.2,334.4,0.3
		c0.2,0,0.5,0,0.6,0c0.4,0,0.7,0,0.8,0c4.1,0.2,8.2,0.4,12.2,0.6c0.1,0,0.2,0,0.3,0c15,0.8,29.6,1.7,43.9,2.9
		c1.8,0.2,3.6,0.3,5.4,0.5c1.8,0.1,3.6,0.3,5.3,0.5c1.8,0.2,3.5,0.3,5.3,0.5c3.5,0.3,7,0.7,10.5,1c3.3,0.3,6.6,0.7,9.9,1
		c0.5,0,0.9,0.1,1.4,0.2c4.9,0.5,9.7,1.1,14.5,1.7c1.7,0.2,3.4,0.4,5.1,0.7c3.3,0.5,6.7,0.9,10,1.4c1.6,0.2,3.1,0.4,4.7,0.7
		c0.4,0,0.7,0.1,1.1,0.2c1.4,0.2,2.8,0.4,4.2,0.6c3,0.5,5.9,0.9,8.8,1.4c2.1,0.3,4.1,0.7,6.2,1c1.3,0.2,2.6,0.5,3.9,0.7
		c1.2,0.2,2.5,0.5,3.7,0.7c1.7,0.3,3.4,0.7,5.2,1c3.5,0.7,7,1.4,10.4,2.1c0.9,0.2,1.8,0.4,2.6,0.6c1.3,0.3,2.6,0.6,3.9,0.8
		c1.3,0.3,2.7,0.6,4,0.9c0.8,0.2,1.7,0.4,2.5,0.6c1.5,0.3,2.9,0.7,4.4,1c1.8,0.4,3.6,0.9,5.3,1.3c0,0,0,0,0.1,0
		c1.7,0.4,3.4,0.9,5.1,1.3c2,0.5,4,1.1,6,1.7c1.2,0.3,2.5,0.7,3.7,1c2,0.6,4.1,1.2,6.1,1.8c3.4,1,6.7,2.1,10,3.1
		c0.1,0,0.2,0.1,0.3,0.1c1.6,0.5,3.1,1,4.7,1.5c0.1,0,0.2,0.1,0.3,0.1c1.6,0.5,3.2,1.1,4.7,1.6c0,0,0,0,0,0c1.3,0.5,2.6,0.9,3.9,1.4
		c1.9,0.7,3.9,1.4,5.8,2.2c1.6,0.6,3.1,1.2,4.7,1.8c0.1,0,0.2,0.1,0.3,0.1c1.3,0.5,2.6,1,3.9,1.6c0.5,0.2,0.9,0.4,1.4,0.6
		c1,0.4,1.9,0.8,2.8,1.2c0.6,0.2,1.2,0.5,1.7,0.8c1.3,0.6,2.6,1.1,3.9,1.7c1.5,0.7,3,1.4,4.5,2c1.8,0.8,3.6,1.7,5.3,2.5
		c1.2,0.6,2.4,1.2,3.6,1.8c1.2,0.6,2.5,1.2,3.7,1.9c0.5,0.3,1,0.5,1.5,0.8c1.2,0.6,2.4,1.3,3.6,1.9c1.4,0.7,2.7,1.5,4.1,2.2
		c0,0,0,0,0.1,0c1.4,0.8,2.7,1.6,4.1,2.4c0.2,0.1,0.3,0.2,0.5,0.3c1,0.5,1.9,1.1,2.8,1.7c0.7,0.4,1.4,0.9,2.2,1.3
		c1.1,0.6,2.1,1.3,3.2,2c0.9,0.6,1.9,1.2,2.8,1.8c1.8,1.1,3.5,2.3,5.2,3.5c1.2,0.8,2.3,1.6,3.5,2.5c1.1,0.8,2.2,1.6,3.2,2.4
		c0.3,0.2,0.7,0.5,1,0.8c1.1,0.8,2.1,1.6,3.2,2.4c0,0,0.1,0,0.1,0.1c1.1,0.8,2.2,1.7,3.3,2.6c1.3,1.1,2.7,2.2,4,3.3
		c1.2,1,2.3,2,3.5,3c0.1,0.1,0.2,0.2,0.3,0.2c1.1,0.9,2.1,1.9,3.1,2.8c0.1,0.1,0.2,0.1,0.2,0.2c1,0.9,2,1.8,3,2.8
		c0.2,0.2,0.4,0.4,0.6,0.5c1,0.9,1.9,1.8,2.8,2.8c0.1,0.1,0.2,0.2,0.2,0.2c0,0,0.1,0,0.1,0.1l1.3,1.3c0.4,0.4,0.8,0.8,1.2,1.3
		c0.5,0.5,1.1,1.1,1.6,1.6c0.1,0.1,0.2,0.2,0.3,0.3c0.7,0.7,1.3,1.4,2,2.1c0,0,0.1,0.1,0.1,0.2c1.4,1.5,2.7,3,4,4.5
		c0.6,0.7,1.2,1.4,1.9,2.1c0.1,0.1,0.2,0.2,0.2,0.3c0.7,0.8,1.3,1.5,1.9,2.3c0.6,0.7,1.2,1.4,1.8,2.2c0.3,0.3,0.5,0.7,0.8,1
		c1.1,1.4,2.2,2.7,3.3,4.2c0.6,0.8,1.3,1.7,1.9,2.5c0.6,0.8,1.2,1.6,1.7,2.3c0.1,0.2,0.3,0.4,0.5,0.6c0.4,0.6,0.9,1.3,1.4,1.9
		c1.2,1.8,2.5,3.6,3.7,5.4c0.4,0.6,0.8,1.2,1.1,1.8c0.3,0.5,0.6,1,0.9,1.4c0.4,0.7,0.9,1.4,1.3,2.2c0.5,0.9,1.1,1.8,1.6,2.7
		c1.1,1.9,2.2,3.8,3.3,5.7c0.4,0.7,0.8,1.5,1.2,2.2c0.2,0.2,0.3,0.5,0.4,0.8c0.4,0.7,0.7,1.3,1.1,2c0.3,0.6,0.7,1.2,1,1.9
		c0.4,0.8,0.8,1.6,1.3,2.5c0.8,1.6,1.6,3.3,2.4,4.9c0,0.1,0.1,0.1,0.1,0.2c0.2,0.5,0.5,1.1,0.8,1.6c0.4,0.8,0.7,1.5,1,2.3
		c0.7,1.5,1.4,3.1,2.1,4.7c0.3,0.6,0.5,1.2,0.8,1.9c0.7,1.6,1.3,3.3,2,4.9c0.4,0.9,0.7,1.9,1.1,2.8c0.1,0.2,0.2,0.4,0.2,0.6
		c0.3,0.8,0.6,1.6,0.9,2.4c0.4,1,0.8,2.1,1.1,3.1c0.4,1.3,0.9,2.5,1.3,3.8c0.5,1.6,1.1,3.3,1.6,5c0.3,1,0.6,2,0.9,3
		c0.1,0.4,0.3,0.9,0.4,1.3c0.3,1.1,0.7,2.3,1,3.5c0,0.1,0.1,0.2,0.1,0.3c0.3,1,0.6,2.1,0.9,3.1c0.8,3,1.6,6.1,2.4,9.2
		c0.1,0.6,0.3,1.2,0.4,1.7c0.2,1,0.5,2,0.7,3c0.4,1.8,0.8,3.6,1.2,5.4c0.3,1.5,0.6,3,0.9,4.5c0,0.1,0,0.1,0,0.2
		c0.3,1.4,0.5,2.8,0.8,4.1c0.2,1.2,0.4,2.3,0.6,3.5c0.1,0.8,0.3,1.6,0.4,2.4c0.2,1.4,0.5,2.8,0.7,4.2c0.2,1.5,0.5,3.1,0.7,4.7
		c0.1,0.3,0.1,0.6,0.1,0.8c0.2,1.2,0.3,2.4,0.5,3.5c0.1,0.5,0.1,1,0.2,1.5c0.1,1.1,0.3,2.1,0.4,3.2c0.1,0.7,0.2,1.4,0.2,2
		c0,0.1,0,0.1,0,0.2c0.3,2.7,0.6,5.5,0.8,8.2c0.1,0.8,0.1,1.5,0.2,2.3c0.1,1,0.2,1.9,0.2,2.9c0.1,0.8,0.1,1.6,0.2,2.3
		c0.1,1.4,0.2,2.8,0.3,4.2c0.1,1.6,0.2,3.3,0.3,5c0,0.1,0,0.3,0,0.5c0.1,1.7,0.2,3.5,0.2,5.2c0,0.1,0,0.1,0,0.2
		c0,1.4,0.1,2.9,0.1,4.3c0,0.6,0,1.3,0.1,2c0,1.3,0.1,2.6,0.1,3.9c0,0.4,0,0.8,0,1.1c0,1.8,0.1,3.5,0.1,5.3c0,1.4,0,2.7,0,4.1
		l5.7,210.1l0.6,20.2l0.5,17.2l1.1,42.6l0,0.2l0.2,6.8l0.6,23.2l0.6,20.6l0.2,7.3l0.1,5l2.1,76.6l0.3,11.1l0.2,6.3l0.2,5.9l2.5,92.1
		l0.2,6.8l0,1.3l0,0.2l0.9,32.8l0.3,11.6l2.6,94.5l0,1.4l6.1,226.3l1.2,45.5l0.6,21.2l0.2,8l0,2L1873.3,1684.5z"/>
</g>
<polygon class="st1" points="364.8,625.1 757.3,625.1 757.3,645.2 355,645.2 "/>
<path class="st2" d="M1873.3,1682.3h-205.1v-98.6c0-110.3,87.5-200.2,196.9-203.9l0,1.4l6.1,226.3l1.2,45.5l0.6,21.2L1873.3,1682.3z
	"/>
<g>
	<path class="st1" d="M757.3,372.9v1310.6h-20.2V374.9C743.8,374,750.6,373.3,757.3,372.9z"/>
</g>
<g>
	<g>
		<path class="st3" d="M433,1637l-15.9,6.9l-12.8-11.4v4.5l10.5,9.2l3.1,2.8l-13.6-2.4v3.5l28.7,5v-3.5l-9.6-1.7l-3.5-3.5l13.2-5.5
			V1637z"/>
		<path class="st3" d="M433.2,1626.6c-0.1-0.5-0.3-0.9-0.6-1.3c-0.2-0.4-0.5-0.8-0.9-1.1c-0.3-0.4-0.7-0.7-1.1-1
			c0.4,0,0.8,0.1,1.2,0.1c0.4,0,0.8,0,1.2-0.1v-3.4l-0.3,0c-0.8,0-1.5,0.1-2.2,0.1c-0.7,0-1.4,0-2.2-0.1l-10.5-1.7
			c-1-0.1-1.9,0-2.7,0.1c-0.8,0.2-1.5,0.5-2.1,1c-0.6,0.5-1,1.1-1.3,1.9c-0.3,0.8-0.5,1.6-0.5,2.6c0,0.9,0.1,1.8,0.4,2.7
			c0.3,0.9,0.7,1.7,1.3,2.4c0.6,0.7,1.2,1.3,2,1.7c0.8,0.5,1.7,0.7,2.6,0.8l0-3.4c-0.5-0.1-0.9-0.2-1.3-0.5
			c-0.4-0.2-0.8-0.5-1.1-0.8c-0.3-0.3-0.5-0.7-0.7-1.2c-0.2-0.4-0.2-0.9-0.2-1.4c0-0.6,0.1-1,0.3-1.4c0.2-0.4,0.4-0.7,0.7-0.9
			c0.3-0.2,0.7-0.3,1.1-0.4c0.4-0.1,0.9-0.1,1.4,0l2.3,0.3v2.5c0,1.1,0.2,2.2,0.4,3.3c0.3,1.1,0.8,2,1.3,2.8
			c0.6,0.8,1.4,1.5,2.3,2.1c0.9,0.5,2,0.8,3.2,0.9c0.9,0.1,1.7,0,2.4-0.2c0.7-0.2,1.4-0.5,1.9-1c0.5-0.4,1-1,1.3-1.7
			c0.3-0.7,0.5-1.5,0.5-2.4C433.4,1627.6,433.3,1627.1,433.2,1626.6z M430,1628.7c-0.2,0.3-0.4,0.6-0.7,0.8
			c-0.3,0.2-0.7,0.3-1.1,0.4c-0.4,0.1-0.9,0-1.3,0c-0.8-0.1-1.5-0.3-2-0.7c-0.5-0.4-1-0.9-1.3-1.4c-0.3-0.6-0.6-1.2-0.7-1.9
			c-0.2-0.7-0.2-1.4-0.2-2.1l0-1.6l5.1,0.9c0.4,0.3,0.7,0.6,1,0.9c0.3,0.3,0.6,0.7,0.8,1c0.2,0.4,0.4,0.8,0.5,1.2
			c0.1,0.4,0.2,0.9,0.2,1.3C430.2,1627.9,430.1,1628.3,430,1628.7z"/>
		<path class="st3" d="M432.6,1609.3c0.5-0.8,0.8-1.7,0.8-2.8c0-0.9-0.1-1.8-0.4-2.5c-0.3-0.8-0.6-1.4-1.1-2
			c-0.5-0.6-1.1-1.1-1.7-1.5c-0.7-0.4-1.4-0.8-2.1-1.1c-0.8-0.3-1.5-0.5-2.4-0.7c-0.8-0.2-1.6-0.3-2.4-0.4l-2-0.2
			c-0.7-0.1-1.5-0.1-2.2-0.1c-0.8,0-1.5,0-2.3,0.1c-0.8,0.1-1.5,0.2-2.1,0.5c-0.7,0.2-1.3,0.6-1.8,1c-0.5,0.4-0.9,1-1.2,1.6
			s-0.5,1.4-0.5,2.3c0,0.6,0,1.1,0.2,1.5c0.1,0.5,0.3,0.9,0.5,1.3c0.2,0.4,0.5,0.8,0.9,1.2c0.3,0.4,0.7,0.7,1.1,1l-11.3-2.1v3.4
			l30.3,5.3v-3.1l-2.5-0.7C431.4,1610.7,432.1,1610.1,432.6,1609.3z M429.5,1609.4c-0.5,0.5-1.2,1-2,1.2l-10.2-1.7
			c-0.4-0.2-0.8-0.5-1.1-0.8c-0.4-0.3-0.7-0.6-1-1c-0.3-0.4-0.5-0.8-0.6-1.2c-0.2-0.4-0.2-0.9-0.2-1.4c0-0.6,0.1-1.1,0.4-1.6
			c0.2-0.4,0.5-0.7,0.9-1c0.4-0.2,0.8-0.4,1.3-0.5c0.5-0.1,1-0.2,1.5-0.2c0.5,0,1,0,1.6,0c0.5,0,1,0.1,1.5,0.1l2,0.2
			c0.8,0.1,1.6,0.3,2.5,0.5c0.9,0.2,1.6,0.5,2.3,0.9c0.7,0.4,1.2,0.9,1.6,1.6c0.4,0.7,0.6,1.5,0.6,2.5
			C430.3,1608.2,430,1608.9,429.5,1609.4z"/>
		<path class="st3" d="M432.6,1584c-0.5-1.2-1.3-2.3-2.4-3.1l-2.2,1.6c0.3,0.3,0.7,0.7,1,1.1c0.3,0.4,0.6,0.8,0.8,1.2
			c0.2,0.4,0.4,0.9,0.5,1.3c0.1,0.5,0.2,0.9,0.1,1.5c0,0.9-0.2,1.6-0.6,2.2c-0.4,0.5-0.9,0.9-1.5,1.1c-0.6,0.2-1.3,0.4-2.1,0.4
			c-0.8,0-1.5,0-2.2-0.2l-0.5-0.1l0-11.4l-2-0.3c-0.8-0.1-1.6-0.2-2.4-0.2c-0.8,0-1.6,0-2.3,0.2s-1.4,0.3-2.1,0.6s-1.2,0.6-1.7,1.1
			c-0.5,0.5-0.9,1-1.2,1.7c-0.3,0.7-0.4,1.5-0.5,2.4c0,1,0.1,1.9,0.4,2.7c0.2,0.8,0.6,1.5,1.1,2.2c0.5,0.6,1,1.2,1.7,1.7
			c0.7,0.5,1.4,0.9,2.1,1.3c0.8,0.4,1.6,0.7,2.4,0.9c0.8,0.2,1.7,0.4,2.5,0.5l2.4,0.3c1.2,0.1,2.4,0.1,3.5,0c1.1-0.2,2.1-0.5,3-1
			c0.9-0.5,1.6-1.2,2.1-2.2c0.5-0.9,0.8-2.1,0.8-3.4C433.4,1586.5,433.1,1585.2,432.6,1584z M420.4,1590.8c-0.7-0.2-1.5-0.4-2.2-0.6
			c-0.8-0.2-1.4-0.6-2-1c-0.6-0.4-1.1-0.9-1.4-1.5c-0.4-0.6-0.5-1.4-0.5-2.2c0-0.8,0.2-1.3,0.6-1.8c0.4-0.4,0.8-0.7,1.4-0.9
			c0.5-0.2,1.1-0.3,1.8-0.3c0.6,0,1.3,0,1.9,0.1l0.5,0.1L420.4,1590.8z"/>
		<path class="st3" d="M402.7,1568.1v3.4l30.3,5.3v-3.4L402.7,1568.1z"/>
		<path class="st3" d="M433,1560.2l-3-0.3c0,0.2,0.1,0.5,0.1,0.7c0,0.2,0.1,0.5,0,0.7c0,0.3-0.1,0.6-0.2,0.8
			c-0.2,0.2-0.4,0.3-0.6,0.4c-0.2,0.1-0.5,0.1-0.8,0.1c-0.3,0-0.5,0-0.8,0l-13.3-2.2v-3.1l-2.8-0.5v3.1l-5.2-0.9v3.4l5.2,0.9v3.1
			l2.8,0.5v-3.2l13.2,2.2c0.6,0,1.3,0,1.9,0c0.7,0,1.3-0.2,1.8-0.4c0.5-0.2,1-0.6,1.4-1.1c0.4-0.5,0.5-1.1,0.5-1.9
			C433.4,1561.6,433.2,1560.9,433,1560.2z"/>
		<path class="st3" d="M417.7,1550.1c-0.4-0.2-0.8-0.5-1.2-0.8c-0.4-0.3-0.7-0.6-0.9-1c-0.3-0.3-0.5-0.7-0.6-1.1
			c-0.1-0.4-0.2-0.9-0.2-1.4c0-0.3,0-0.5,0-0.8c0-0.2,0.1-0.5,0.1-0.8l-3.4-0.4c-0.1,0.2-0.1,0.5-0.2,0.7s-0.1,0.5-0.1,0.8
			c0,0.5,0,0.9,0.2,1.3c0.1,0.4,0.3,0.8,0.6,1.1c0.2,0.3,0.5,0.7,0.9,1c0.3,0.3,0.7,0.6,1,0.8l-2.2-0.5l0,3.3l21.3,3.7v-3.4
			L417.7,1550.1z"/>
		<path class="st3" d="M433,1534.2c-0.2-0.8-0.6-1.5-1.1-2.2c-0.5-0.7-1-1.2-1.7-1.8c-0.6-0.5-1.3-1-2.1-1.4
			c-0.8-0.4-1.5-0.7-2.4-0.9c-0.8-0.2-1.7-0.4-2.5-0.5l-2-0.2c-1.2-0.1-2.4-0.1-3.5,0c-1.2,0.2-2.2,0.5-3.2,1
			c-1,0.5-1.7,1.2-2.3,2.1c-0.6,0.9-0.9,2-1,3.4c0,1,0.1,1.8,0.3,2.6c0.2,0.8,0.6,1.5,1.1,2.2c0.5,0.7,1,1.2,1.7,1.8
			c0.7,0.5,1.4,1,2.1,1.4s1.6,0.7,2.4,0.9c0.8,0.2,1.7,0.4,2.5,0.5l2,0.2c1.2,0.1,2.3,0.1,3.5,0c1.2-0.1,2.2-0.5,3.2-1
			c1-0.5,1.7-1.2,2.3-2.1c0.6-0.9,0.9-2,1-3.4C433.4,1535.9,433.3,1535,433,1534.2z M430,1538.1c-0.2,0.4-0.5,0.7-0.9,1
			c-0.4,0.3-0.8,0.5-1.3,0.6c-0.5,0.1-1,0.2-1.5,0.3c-0.5,0-1,0.1-1.5,0.1c-0.5,0-1,0-1.4-0.1l-2-0.3c-0.5-0.1-1-0.2-1.6-0.3
			c-0.6-0.2-1.1-0.3-1.6-0.5c-0.5-0.2-1-0.5-1.5-0.8c-0.5-0.3-0.9-0.7-1.2-1.1c-0.4-0.4-0.6-0.9-0.8-1.4c-0.2-0.5-0.3-1.1-0.2-1.7
			c0-0.6,0.1-1.1,0.4-1.5c0.2-0.4,0.5-0.7,0.9-1c0.4-0.3,0.8-0.5,1.3-0.6c0.5-0.2,1-0.2,1.5-0.3c0.5,0,1-0.1,1.5,0s1,0,1.4,0.1
			l2,0.3c0.8,0.1,1.7,0.3,2.5,0.5c0.8,0.2,1.6,0.6,2.3,1.1c0.7,0.5,1.2,1,1.7,1.7c0.4,0.7,0.6,1.5,0.6,2.5
			C430.4,1537.2,430.2,1537.7,430,1538.1z"/>
		<path class="st3" d="M415.8,1501.5c0.4-0.2,0.9-0.3,1.5-0.3s1.1,0,1.7,0.1l14,2.3v-3.4l-14-2.4c-0.9-0.1-1.8-0.1-2.7,0
			c-0.9,0.1-1.7,0.3-2.5,0.6c-0.7,0.3-1.3,0.9-1.8,1.5c-0.5,0.7-0.7,1.6-0.7,2.7c0,1.2,0.3,2.3,0.8,3.3s1.3,1.8,2.2,2.6
			c-1,0.3-1.8,0.9-2.3,1.7c-0.5,0.8-0.8,1.7-0.8,2.7c0,1.1,0.2,2,0.6,2.9s1,1.7,1.8,2.4l-2-0.4l0,3.2l21.3,3.7v-3.4l-16-2.8
			c-0.8-0.5-1.4-1-1.9-1.7c-0.5-0.7-0.8-1.4-0.7-2.4c0-0.6,0.2-1.1,0.5-1.5c0.3-0.4,0.6-0.7,1.1-0.8c0.4-0.2,0.9-0.3,1.5-0.3
			c0.5,0,1.1,0,1.6,0l14,2.3v-3.4l-14.2-2.4h-0.1c-0.5-0.1-1-0.2-1.6-0.5c-0.5-0.2-1-0.5-1.4-0.9c-0.4-0.4-0.7-0.8-1-1.3
			c-0.3-0.5-0.4-1-0.4-1.6c0-0.7,0.1-1.2,0.4-1.6C415,1501.9,415.4,1501.6,415.8,1501.5z"/>
		<path class="st3" d="M415.8,1471.8c0.4-0.2,0.9-0.3,1.5-0.3c0.5,0,1.1,0,1.7,0.1l14,2.3v-3.4l-14-2.3c-0.9-0.1-1.8-0.1-2.7,0
			c-0.9,0.1-1.7,0.3-2.5,0.6c-0.7,0.4-1.3,0.9-1.8,1.5c-0.5,0.7-0.7,1.6-0.7,2.7c0,1.2,0.3,2.3,0.8,3.3c0.6,1,1.3,1.8,2.2,2.5
			c-1,0.3-1.8,0.9-2.3,1.7c-0.5,0.8-0.8,1.7-0.8,2.7c0,1.1,0.2,2,0.6,2.9c0.4,0.9,1,1.6,1.8,2.4l-2-0.4l0,3.2l21.3,3.7v-3.4l-16-2.8
			c-0.8-0.5-1.4-1-1.9-1.7c-0.5-0.6-0.8-1.4-0.7-2.4c0-0.6,0.2-1.2,0.5-1.5c0.3-0.4,0.6-0.7,1.1-0.8c0.4-0.2,0.9-0.3,1.5-0.3
			c0.5,0,1.1,0,1.6,0l14,2.3v-3.4l-14.2-2.4h-0.1c-0.5-0.1-1-0.2-1.6-0.5c-0.5-0.2-1-0.5-1.4-0.9c-0.4-0.4-0.7-0.8-1-1.3
			c-0.3-0.5-0.4-1-0.4-1.6c0-0.7,0.1-1.2,0.4-1.6C415,1472.3,415.4,1472,415.8,1471.8z"/>
		<path class="st3" d="M432.6,1453.7c-0.5-1.2-1.3-2.3-2.4-3.1l-2.2,1.6c0.3,0.3,0.7,0.7,1,1.1c0.3,0.4,0.6,0.8,0.8,1.2
			c0.2,0.4,0.4,0.9,0.5,1.3c0.1,0.5,0.2,1,0.1,1.5c0,0.9-0.2,1.6-0.6,2.2c-0.4,0.5-0.9,0.9-1.5,1.1c-0.6,0.2-1.3,0.4-2.1,0.4
			c-0.8,0-1.5,0-2.2-0.2l-0.5-0.1l0-11.4l-2-0.3c-0.8-0.1-1.6-0.2-2.4-0.2c-0.8,0-1.6,0-2.3,0.2c-0.7,0.1-1.4,0.3-2.1,0.6
			c-0.6,0.3-1.2,0.6-1.7,1.1c-0.5,0.5-0.9,1.1-1.2,1.7c-0.3,0.7-0.4,1.5-0.5,2.4c0,1,0.1,1.9,0.4,2.7c0.2,0.8,0.6,1.5,1.1,2.1
			c0.5,0.6,1,1.2,1.7,1.7c0.7,0.5,1.4,0.9,2.1,1.3c0.8,0.4,1.6,0.6,2.4,0.9c0.8,0.2,1.7,0.4,2.5,0.5l2.4,0.3c1.2,0.1,2.4,0.1,3.5,0
			c1.1-0.2,2.1-0.5,3-1s1.6-1.2,2.1-2.2c0.5-0.9,0.8-2.1,0.8-3.5C433.4,1456.2,433.1,1454.9,432.6,1453.7z M420.4,1460.5
			c-0.7-0.2-1.5-0.4-2.2-0.6s-1.4-0.6-2-1c-0.6-0.4-1.1-0.9-1.4-1.5c-0.4-0.6-0.5-1.4-0.5-2.2c0-0.8,0.2-1.3,0.6-1.8
			c0.4-0.4,0.8-0.7,1.4-0.9c0.5-0.2,1.1-0.3,1.8-0.3c0.6,0,1.3,0,1.9,0.1l0.5,0.1L420.4,1460.5z"/>
		<path class="st3" d="M402.7,1437.8v3.4l30.3,5.3v-3.4L402.7,1437.8z"/>
	</g>
</g>
<path class="st3" d="M770.1,1108.4h1065.6c7.5,0,13.6-6.1,13.6-13.6v-73.7c0-7.5-6.1-13.6-13.6-13.6H770.1
	c-7.5,0-13.6,6.1-13.6,13.6v73.7C756.5,1102.3,762.7,1108.4,770.1,1108.4z"/>
<path class="st3" d="M1840.8,1214H770.1c-7.5,0-13.6-6.1-13.6-13.6v-73.7c0-7.5,6.1-13.6,13.6-13.6h1070.7c7.5,0,13.6,6.1,13.6,13.6
	v73.7C1854.4,1207.9,1848.3,1214,1840.8,1214z"/>
<path class="st4" d="M756,372.4v1311.1l-40.2-0.1v-675.6l-368.4,0.1v200.6h-22.8l0.5-19l2.4-88.9l1.9-69.4v0l0-0.3c0,0,0,0,0,0
	l9.3-343.5c0-245,163.3-301.7,402.5-314.5C747,372.7,751.9,372.5,756,372.4z"/>
<g>
	<polygon class="st5" points="454.7,1336.4 454.7,1376.7 320.1,1376.7 321.2,1336.4 	"/>
	<g>
		<path class="st3" d="M341.8,1348.6l-2,11.4l-0.2,1.9l-0.3-1.7l-2.6-11.6h-1.8l-2.7,11.6l-0.3,1.6l-0.2-1.9l-2.1-11.4h-2.1
			l3.3,16.6h1.9l2.9-12.1l0.2-1l0.2,1l2.8,12.1h1.9l3.3-16.6H341.8z"/>
		<path class="st3" d="M353.9,1364.4c0-0.2-0.1-0.4-0.1-0.6c0-0.2-0.1-0.4-0.1-0.7c0-0.2,0-0.4,0-0.7v-6.1c0-0.7-0.1-1.3-0.3-1.8
			s-0.5-0.9-0.8-1.2c-0.3-0.3-0.8-0.5-1.2-0.7c-0.5-0.1-1-0.2-1.6-0.2c-0.6,0-1.2,0.1-1.7,0.3c-0.5,0.2-1,0.5-1.3,0.8
			c-0.4,0.3-0.6,0.7-0.8,1.2c-0.2,0.4-0.3,0.9-0.3,1.3h2c0-0.3,0-0.5,0.1-0.7c0.1-0.2,0.2-0.4,0.4-0.6c0.2-0.2,0.4-0.3,0.7-0.4
			c0.2-0.1,0.5-0.2,0.9-0.2c0.7,0,1.2,0.2,1.5,0.5c0.3,0.3,0.5,0.8,0.5,1.6v1.3h-1.4c-0.8,0-1.5,0.1-2.1,0.3
			c-0.6,0.2-1.1,0.5-1.5,0.9c-0.4,0.4-0.7,0.8-0.9,1.3c-0.2,0.5-0.3,1.1-0.3,1.6c0,0.6,0.1,1.1,0.2,1.6c0.2,0.4,0.4,0.8,0.7,1.1
			c0.3,0.3,0.7,0.5,1.1,0.7c0.4,0.1,0.9,0.2,1.5,0.2c0.3,0,0.6,0,0.9-0.1c0.3-0.1,0.5-0.2,0.8-0.3c0.2-0.2,0.5-0.3,0.6-0.5
			c0.2-0.2,0.3-0.4,0.5-0.6c0,0.3,0,0.5,0.1,0.8c0,0.2,0.1,0.4,0.2,0.6h2.1v-0.2C354,1364.8,354,1364.6,353.9,1364.4z M351.7,1362.1
			c-0.1,0.2-0.2,0.4-0.4,0.5c-0.1,0.2-0.3,0.3-0.5,0.5c-0.2,0.1-0.4,0.2-0.7,0.3c-0.2,0.1-0.5,0.1-0.8,0.1c-0.3,0-0.6,0-0.8-0.1
			c-0.2-0.1-0.4-0.2-0.6-0.3c-0.2-0.2-0.3-0.4-0.4-0.6c-0.1-0.2-0.1-0.6-0.1-0.9c0-0.4,0.1-0.7,0.2-1c0.1-0.3,0.4-0.5,0.6-0.7
			c0.3-0.2,0.6-0.4,1-0.5c0.4-0.1,0.8-0.2,1.3-0.2h1.1V1362.1z"/>
		<path class="st3" d="M361.9,1352.8c0,0-0.1,0-0.1,0c-0.1,0-0.1,0-0.2-0.1c-0.1,0-0.2,0-0.2,0c-0.1,0-0.2,0-0.2,0
			c-0.5,0-1,0.1-1.3,0.4c-0.4,0.3-0.7,0.6-0.9,1.1l0-1.2h-2v12.4h2v-8.8c0.2-0.5,0.5-0.9,0.8-1.2c0.3-0.3,0.8-0.5,1.3-0.5
			c0.2,0,0.3,0,0.5,0c0.1,0,0.3,0,0.4,0.1L361.9,1352.8z"/>
		<path class="st3" d="M372,1355c-0.2-0.6-0.4-1-0.7-1.4c-0.3-0.4-0.6-0.6-1-0.8c-0.4-0.2-0.9-0.2-1.4-0.2c-0.6,0-1.2,0.1-1.7,0.4
			c-0.5,0.3-0.9,0.7-1.3,1.2l0-1.3h-1.9v12.4h2v-9c0.2-0.5,0.6-1,1-1.3c0.4-0.3,0.8-0.5,1.4-0.5c0.6,0,1.1,0.2,1.5,0.6
			c0.3,0.4,0.5,1.1,0.5,2.1v8.1h2v-8.1C372.2,1356.3,372.2,1355.6,372,1355z"/>
		<path class="st3" d="M381.7,1347.7v6.4c-0.3-0.5-0.7-0.8-1.2-1.1c-0.4-0.2-1-0.4-1.6-0.4s-1.2,0.1-1.7,0.3s-1,0.6-1.3,1.1
			c-0.4,0.5-0.6,1.1-0.8,1.8c-0.2,0.7-0.3,1.6-0.3,2.6v1.2c0,1,0.1,1.8,0.3,2.6c0.2,0.7,0.5,1.3,0.8,1.8c0.4,0.5,0.8,0.8,1.3,1.1
			c0.5,0.2,1.1,0.4,1.7,0.4c0.6,0,1.2-0.1,1.7-0.4c0.5-0.3,0.9-0.7,1.2-1.2l0.1,1.3h1.9v-17.5H381.7z M381.7,1362.1
			c-0.2,0.4-0.5,0.8-0.9,1.1c-0.4,0.3-0.8,0.4-1.4,0.4c-0.9,0-1.6-0.3-2-1c-0.4-0.7-0.6-1.7-0.6-3.1v-1.2c0-1.4,0.2-2.4,0.6-3.1
			c0.4-0.7,1.1-1,2-1c0.5,0,1,0.1,1.4,0.4c0.4,0.3,0.7,0.6,0.9,1.1V1362.1z"/>
		<path class="st3" d="M391.9,1352.8c0,0-0.1,0-0.1,0c-0.1,0-0.1,0-0.2-0.1c-0.1,0-0.2,0-0.2,0c-0.1,0-0.2,0-0.2,0
			c-0.5,0-1,0.1-1.4,0.4c-0.4,0.3-0.7,0.6-0.9,1.1l0-1.2h-2v12.4h2v-8.8c0.2-0.5,0.5-0.9,0.8-1.2c0.4-0.3,0.8-0.5,1.4-0.5
			c0.2,0,0.3,0,0.5,0c0.1,0,0.3,0,0.5,0.1L391.9,1352.8z"/>
		<path class="st3" d="M402.3,1359.6v-1.2c0-0.9-0.1-1.8-0.2-2.5s-0.4-1.3-0.8-1.8c-0.3-0.5-0.8-0.9-1.3-1.1c-0.5-0.2-1.2-0.4-2-0.4
			c-0.6,0-1.2,0.1-1.7,0.3c-0.6,0.2-1,0.5-1.5,1s-0.8,1.1-1,1.8c-0.3,0.8-0.4,1.7-0.4,2.8v1.4c0,0.9,0.1,1.8,0.3,2.5
			c0.2,0.7,0.5,1.3,1,1.7c0.4,0.5,0.9,0.8,1.5,1c0.6,0.2,1.3,0.3,2,0.3c0.5,0,1-0.1,1.4-0.2c0.4-0.1,0.8-0.2,1.1-0.4
			c0.3-0.2,0.6-0.4,0.8-0.6c0.2-0.2,0.4-0.4,0.6-0.7l-1-1.3c-0.2,0.2-0.3,0.4-0.5,0.6c-0.2,0.2-0.4,0.3-0.6,0.5
			c-0.2,0.1-0.5,0.2-0.8,0.3c-0.3,0.1-0.6,0.1-0.9,0.1c-0.9,0-1.7-0.3-2.2-0.9s-0.8-1.6-0.8-2.9v-0.3H402.3z M395.6,1356.2
			c0.1-0.5,0.3-0.8,0.5-1.1c0.2-0.3,0.5-0.5,0.8-0.6c0.3-0.1,0.6-0.2,1-0.2c0.4,0,0.8,0.1,1.1,0.2c0.3,0.2,0.5,0.4,0.7,0.7
			c0.2,0.3,0.3,0.6,0.4,1s0.1,0.8,0.2,1.3v0.3h-4.9C395.4,1357.2,395.5,1356.6,395.6,1356.2z"/>
		<path class="st3" d="M406.7,1348.7c-0.2-0.2-0.5-0.4-0.9-0.4c-0.4,0-0.7,0.1-0.9,0.4c-0.2,0.2-0.3,0.5-0.3,0.9
			c0,0.3,0.1,0.6,0.3,0.9s0.5,0.3,0.9,0.3c0.4,0,0.7-0.1,0.9-0.3c0.2-0.2,0.3-0.5,0.3-0.9C407,1349.2,406.9,1348.9,406.7,1348.7z
			 M404.8,1352.8v12.4h2v-12.4H404.8z"/>
		<path class="st3" d="M418.6,1359.6v-1.2c0-0.9-0.1-1.8-0.2-2.5c-0.2-0.7-0.4-1.3-0.8-1.8c-0.3-0.5-0.8-0.9-1.3-1.1
			c-0.5-0.2-1.2-0.4-2-0.4c-0.6,0-1.2,0.1-1.7,0.3c-0.5,0.2-1,0.5-1.5,1c-0.4,0.5-0.8,1.1-1,1.8c-0.3,0.8-0.4,1.7-0.4,2.8v1.4
			c0,0.9,0.1,1.8,0.3,2.5c0.2,0.7,0.5,1.3,0.9,1.7c0.4,0.5,0.9,0.8,1.5,1c0.6,0.2,1.2,0.3,2,0.3c0.5,0,1-0.1,1.4-0.2
			c0.4-0.1,0.8-0.2,1.1-0.4c0.3-0.2,0.6-0.4,0.8-0.6c0.2-0.2,0.4-0.4,0.6-0.7l-1-1.3c-0.2,0.2-0.4,0.4-0.5,0.6
			c-0.2,0.2-0.4,0.3-0.6,0.5c-0.2,0.1-0.5,0.2-0.8,0.3c-0.3,0.1-0.6,0.1-0.9,0.1c-0.9,0-1.7-0.3-2.1-0.9c-0.5-0.6-0.8-1.6-0.8-2.9
			v-0.3H418.6z M411.9,1356.2c0.1-0.5,0.3-0.8,0.5-1.1c0.2-0.3,0.5-0.5,0.8-0.6c0.3-0.1,0.6-0.2,1-0.2c0.5,0,0.8,0.1,1.1,0.2
			c0.3,0.2,0.5,0.4,0.7,0.7c0.2,0.3,0.3,0.6,0.4,1s0.1,0.8,0.2,1.3v0.3h-4.9C411.7,1357.2,411.8,1356.6,411.9,1356.2z"/>
		<path class="st3" d="M427.3,1362.4c-0.1,0.3-0.3,0.6-0.5,0.8c-0.2,0.2-0.4,0.3-0.7,0.4c-0.3,0.1-0.5,0.1-0.8,0.1
			c-0.5,0-1-0.1-1.3-0.3c-0.3-0.2-0.6-0.4-0.8-0.8c-0.2-0.3-0.3-0.8-0.4-1.2c-0.1-0.5-0.1-1-0.1-1.6v-1.4c0-0.6,0-1.1,0.1-1.6
			c0.1-0.5,0.2-0.9,0.4-1.2c0.2-0.3,0.5-0.6,0.8-0.8c0.3-0.2,0.8-0.3,1.3-0.3c0.7,0,1.2,0.2,1.6,0.7c0.4,0.5,0.6,1.1,0.7,2h1.9
			c0-0.7-0.1-1.3-0.3-1.9c-0.2-0.6-0.5-1-0.9-1.4c-0.4-0.4-0.8-0.7-1.3-0.9c-0.5-0.2-1.1-0.3-1.7-0.3c-0.8,0-1.5,0.1-2.1,0.4
			c-0.6,0.3-1.1,0.6-1.5,1.1s-0.7,1.1-0.9,1.8c-0.2,0.7-0.3,1.5-0.3,2.4v1.4c0,0.9,0.1,1.7,0.3,2.4c0.2,0.7,0.5,1.3,0.9,1.8
			s0.9,0.9,1.5,1.1c0.6,0.2,1.3,0.4,2.1,0.4c0.6,0,1.1-0.1,1.6-0.3c0.5-0.2,0.9-0.5,1.3-0.8c0.4-0.4,0.7-0.8,0.9-1.3
			c0.2-0.5,0.4-1.1,0.4-1.7h-1.9C427.5,1361.7,427.5,1362.1,427.3,1362.4z"/>
		<path class="st3" d="M436.2,1358l3.9-5.2h-2.4l-2.9,4.1l-0.9,1.2v-10.5h-2v17.5h2v-4.4l1.1-1.2l3.4,5.7h2.3L436.2,1358z"/>
	</g>
</g>
<g>
	<path class="st4" d="M710.4,1013.4v165.9h-242c-16.1-72.7-51.1-111.7-73.5-156.4l-4.5-9.5H710.4z"/>
	<rect x="515.4" y="1039.6" class="st0" width="84.2" height="12"/>
</g>
<rect x="807.8" y="1637.2" class="st6" width="14.1" height="38.4"/>
<g>
	<rect x="470.4" y="1252" class="st4" width="240" height="430"/>
	
		<rect x="640.4" y="1308.7" transform="matrix(6.123234e-17 -1 1 6.123234e-17 -644.1007 1986.3113)" class="st0" width="61.3" height="13"/>
</g>
<g>
	<path class="st4" d="M733,1247.7H464.7v435.8H312.1v-18.4c0,0.9,0.1,1.7,0.2,2.5l2.2-80.8l1.9-70.2l2.8-102.8l0.9-32.5l0.1-4.5
		l1.1-40.4l1.3-49.8l2.1-92.4l0.7-9.9h404.9l0.2,25.5L733,1247.7z"/>
</g>
<polygon class="st7" points="721.5,806.3 721.5,922.6 381,922.6 384.2,806.3 "/>
<path class="st7" d="M721.5,632.3v116.3H387.3l1.6-61.2c0-19.5,1-37.8,3.1-55H721.5z"/>
<path class="st7" d="M721.5,439.3v135.2H401.7c0.4-1.3,0.8-2.6,1.2-3.8c24.7-78.5,98.1-131.3,180.3-131.3H721.5z"/>
<g>
	<path class="st7" d="M2065.5,1150.9"/>
	<g>
		<path class="st7" d="M2065.5,1152.4c1.9,0,1.9-3,0-3C2063.6,1149.4,2063.6,1152.4,2065.5,1152.4L2065.5,1152.4z"/>
	</g>
</g>
<g>
	<g>
		<g>
			
				<rect x="1218.7" y="1289.8" transform="matrix(-1 -4.490021e-11 4.490021e-11 -1 2790.886 2929.4673)" class="st6" width="353.5" height="349.9"/>
		</g>
		<g>
			
				<rect x="849.2" y="1289.8" transform="matrix(-1 -4.489488e-11 4.489488e-11 -1 2051.8398 2929.4673)" class="st6" width="353.5" height="349.9"/>
		</g>
	</g>
	<g>
		
			<rect x="802.3" y="1632.3" transform="matrix(-1 -4.525947e-11 4.525947e-11 -1 1624.3231 3315.1606)" class="st6" width="19.7" height="50.5"/>
		
			<rect x="1599.4" y="1632.3" transform="matrix(-1 -4.516710e-11 4.516710e-11 -1 3218.4026 3315.1606)" class="st6" width="19.7" height="50.5"/>
		
			<rect x="821.7" y="1639.9" transform="matrix(-1 -4.539625e-11 4.539625e-11 -1 2422.3274 3315.1606)" class="st4" width="778.9" height="35.3"/>
	</g>
	<g>
		<polygon class="st8" points="1862.5,1285.3 763,1285.3 763,1240.8 1861.4,1240.8 1862.2,1273.7 		"/>
		<g>
			<rect x="1618.9" y="1285.3" class="st8" width="45.1" height="398.7"/>
			<rect x="757" y="1240.3" class="st8" width="45.1" height="443.7"/>
		</g>
	</g>
	<rect x="1732.8" y="1216.7" class="st8" width="60" height="24"/>
	<rect x="1593.5" y="1216.7" class="st8" width="60" height="24"/>
	<rect x="1454.3" y="1216.7" class="st8" width="60" height="24"/>
	<rect x="1315.1" y="1216.7" class="st8" width="60" height="24"/>
	<rect x="1175.8" y="1216.7" class="st8" width="60" height="24"/>
	<rect x="1036.6" y="1216.7" class="st8" width="60" height="24"/>
	<rect x="897.3" y="1216.7" class="st8" width="60" height="24"/>
	<rect x="758.1" y="1216.7" class="st8" width="60" height="24"/>
</g>
<path class="st4" d="M448.3,1253.8l-14.4,430.6h-122l0-0.2l0-1.2l0.2-8.9l0.2-6.6c0,0,0,0,0,0l2.2-80.8l1.9-70.2l2.8-102.8l0.9-32.5
	l0.1-4.5l1.1-40.4l1.3-49.8l2.1-76.9l0-1.1l0.5-19l2.4-88.9l1.9-69.4v0l0-0.3c0,0,0,0,0,0l38-89.6c0,99.4,76,129.9,96.9,255.4
	C467.7,1216.6,448.3,1228.5,448.3,1253.8z"/>
<path class="st9" d="M433.8,1264.3v420.2h-122l0-0.2l0-1.2l0.2-8.9l0.2-6.6c0,0,0,0,0,0l2.2-80.8l1.9-70.2l2.8-102.8l0.9-32.5
	l0.1-4.5l1.1-40.4l1.3-49.8l2.1-76.9l0-1.1l0.5-19l2.4-88.9l1.9-69.4v0l0-0.3c0,0,0,0,0,0l2.2-89.6
	C331.7,1056.4,433.8,1079.2,433.8,1264.3z"/>
<path class="st9" d="M1873.3,1684.5h-151.2v-339.8c0-129.8,107.3-160.9,135.9-227.5l0.3,11.1l0.2,6.3l0.2,5.9l2.5,92.1l0.2,6.8
	l0,1.3l0,0.2l0.9,32.8l0.3,11.6l2.6,94.5l0,1.4l6.1,226.3l1.2,45.5l0.6,21.2l0.2,8l0,2L1873.3,1684.5z"/>
<g>
	<g>
		<g>
			<line class="st10" x1="1847.8" y1="983" x2="762.8" y2="983"/>
			<g>
				<rect x="1845.3" y="966.7" class="st11" width="5" height="32.5"/>
			</g>
			<g>
				<rect x="760.3" y="966.7" class="st11" width="5" height="32.5"/>
			</g>
		</g>
	</g>
	<g>
		<g>
			<path class="st11" d="M1238.3,952L1238.3,952l-7.5,5.1v-4.2l7.4-5.3h4.3v28.2h-4.3V952z"/>
			<path class="st11" d="M1256.6,952L1256.6,952l-7.5,5.1v-4.2l7.4-5.3h4.3v28.2h-4.3V952z"/>
			<path class="st11" d="M1272.3,974.5c-1.6-1.2-2.8-2.9-3.7-5c-0.9-2.2-1.3-4.8-1.3-7.7v0c0-3,0.4-5.6,1.3-7.7
				c0.9-2.2,2.1-3.9,3.7-5c1.6-1.2,3.5-1.8,5.8-1.8c2.2,0,4.2,0.6,5.8,1.8c1.6,1.2,2.8,2.9,3.7,5c0.9,2.2,1.3,4.8,1.3,7.7v0
				c0,3-0.4,5.6-1.3,7.7c-0.9,2.2-2.1,3.9-3.7,5c-1.6,1.2-3.5,1.8-5.8,1.8C1275.8,976.3,1273.9,975.7,1272.3,974.5z M1281.5,971.3
				c0.9-0.9,1.7-2.1,2.2-3.8c0.5-1.6,0.8-3.6,0.8-5.8v0c0-2.3-0.2-4.2-0.8-5.8c-0.5-1.6-1.2-2.9-2.2-3.7c-0.9-0.9-2.1-1.3-3.4-1.3
				c-1.3,0-2.5,0.4-3.4,1.3c-0.9,0.9-1.7,2.1-2.2,3.7c-0.5,1.6-0.7,3.6-0.7,5.8v0c0,2.3,0.2,4.2,0.7,5.8c0.5,1.6,1.2,2.9,2.2,3.8
				c0.9,0.9,2.1,1.3,3.4,1.3C1279.4,972.6,1280.5,972.2,1281.5,971.3z"/>
			<path class="st11" d="M1297.3,974.5c-1.6-1.2-2.8-2.9-3.7-5c-0.9-2.2-1.3-4.8-1.3-7.7v0c0-3,0.4-5.6,1.3-7.7
				c0.9-2.2,2.1-3.9,3.7-5c1.6-1.2,3.5-1.8,5.8-1.8c2.2,0,4.2,0.6,5.8,1.8c1.6,1.2,2.8,2.9,3.7,5c0.9,2.2,1.3,4.8,1.3,7.7v0
				c0,3-0.4,5.6-1.3,7.7c-0.9,2.2-2.1,3.9-3.7,5c-1.6,1.2-3.5,1.8-5.8,1.8C1300.8,976.3,1298.9,975.7,1297.3,974.5z M1306.5,971.3
				c0.9-0.9,1.7-2.1,2.2-3.8c0.5-1.6,0.8-3.6,0.8-5.8v0c0-2.3-0.2-4.2-0.8-5.8c-0.5-1.6-1.2-2.9-2.2-3.7c-0.9-0.9-2.1-1.3-3.4-1.3
				c-1.3,0-2.5,0.4-3.4,1.3c-0.9,0.9-1.7,2.1-2.2,3.7c-0.5,1.6-0.7,3.6-0.7,5.8v0c0,2.3,0.2,4.2,0.7,5.8c0.5,1.6,1.2,2.9,2.2,3.8
				c0.9,0.9,2.1,1.3,3.4,1.3C1304.4,972.6,1305.5,972.2,1306.5,971.3z"/>
			<path class="st11" d="M1317.6,955.3h4.3v3.2h0.1c0.4-1.1,1.2-1.9,2.2-2.6c1-0.7,2.2-1,3.5-1c0.9,0,1.8,0.2,2.5,0.5s1.4,0.8,2,1.4
				s1,1.3,1.2,2.2h0.1c0.4-0.8,0.8-1.6,1.5-2.2c0.6-0.6,1.4-1.1,2.2-1.4c0.8-0.3,1.7-0.5,2.7-0.5c1.4,0,2.5,0.3,3.5,0.8
				c1,0.6,1.8,1.4,2.3,2.4c0.6,1,0.8,2.2,0.8,3.6v14.1h-4.3v-13.1c0-1.3-0.3-2.4-1-3.1c-0.7-0.7-1.6-1.1-2.9-1.1
				c-0.8,0-1.6,0.2-2.2,0.6c-0.6,0.4-1.1,0.9-1.5,1.6c-0.4,0.7-0.5,1.4-0.5,2.3v12.9h-4.2v-13.4c0-1.2-0.3-2.1-1-2.8
				c-0.7-0.7-1.6-1-2.8-1c-0.8,0-1.6,0.2-2.2,0.6c-0.6,0.4-1.1,0.9-1.5,1.6c-0.4,0.7-0.5,1.5-0.5,2.4v12.7h-4.3V955.3z"/>
			<path class="st11" d="M1350.6,955.3h4.3v3.2h0.1c0.4-1.1,1.2-1.9,2.2-2.6c1-0.7,2.2-1,3.5-1c0.9,0,1.8,0.2,2.5,0.5s1.4,0.8,2,1.4
				s1,1.3,1.2,2.2h0.1c0.4-0.8,0.8-1.6,1.5-2.2c0.6-0.6,1.4-1.1,2.2-1.4c0.8-0.3,1.7-0.5,2.7-0.5c1.4,0,2.5,0.3,3.5,0.8
				c1,0.6,1.8,1.4,2.3,2.4c0.6,1,0.8,2.2,0.8,3.6v14.1h-4.3v-13.1c0-1.3-0.3-2.4-1-3.1c-0.7-0.7-1.6-1.1-2.9-1.1
				c-0.8,0-1.6,0.2-2.2,0.6c-0.6,0.4-1.1,0.9-1.5,1.6c-0.4,0.7-0.5,1.4-0.5,2.3v12.9h-4.2v-13.4c0-1.2-0.3-2.1-1-2.8
				c-0.7-0.7-1.6-1-2.8-1c-0.8,0-1.6,0.2-2.2,0.6c-0.6,0.4-1.1,0.9-1.5,1.6c-0.4,0.7-0.5,1.5-0.5,2.4v12.7h-4.3V955.3z"/>
		</g>
	</g>
</g>
<g>
	<g>
		<g>
			<line class="st10" x1="751.2" y1="1712.8" x2="437.8" y2="1712.8"/>
			<g>
				<rect x="748.7" y="1696.5" class="st11" width="5" height="32.5"/>
			</g>
			<g>
				<rect x="435.3" y="1696.5" class="st11" width="5" height="32.5"/>
			</g>
		</g>
	</g>
	<g>
		<g>
			<path class="st11" d="M531.5,1761.3c-1.5-0.7-2.7-1.6-3.6-2.8c-0.9-1.2-1.4-2.6-1.5-4.1l0-0.2h4.2l0,0.2c0.1,1.2,0.7,2.3,1.8,3.1
				c1.1,0.8,2.5,1.2,4.3,1.2c1.1,0,2.2-0.2,3-0.6c0.9-0.4,1.5-0.9,2-1.7c0.5-0.7,0.7-1.5,0.7-2.4v0c0-1.6-0.5-2.8-1.6-3.7
				c-1.1-0.9-2.6-1.3-4.4-1.3h-3.4v-3.4h3.3c1.1,0,2-0.2,2.8-0.6c0.8-0.4,1.4-0.9,1.9-1.6s0.7-1.5,0.7-2.3v0c0-0.9-0.2-1.7-0.6-2.3
				c-0.4-0.6-1-1.1-1.7-1.5c-0.7-0.3-1.7-0.5-2.7-0.5c-1,0-2,0.2-2.8,0.5c-0.8,0.3-1.5,0.8-1.9,1.5c-0.5,0.6-0.8,1.4-0.9,2.3l0,0.2
				H527l0-0.2c0.2-1.6,0.7-2.9,1.5-4.1s2-2.1,3.4-2.7c1.4-0.6,3-1,4.9-1c1.9,0,3.5,0.3,4.9,0.9c1.4,0.6,2.5,1.5,3.2,2.6
				c0.8,1.1,1.2,2.4,1.2,3.8v0c0,1.2-0.3,2.2-0.8,3.1c-0.5,0.9-1.2,1.6-2.1,2.2c-0.9,0.6-1.9,1-3.1,1.2v0.1c2.1,0.2,3.7,0.9,5,2.1
				c1.3,1.2,1.9,2.8,1.9,4.8v0c0,1.6-0.4,3-1.3,4.3c-0.9,1.2-2.1,2.2-3.6,2.9c-1.5,0.7-3.3,1.1-5.3,1.1
				C534.8,1762.3,533,1762,531.5,1761.3z"/>
			<path class="st11" d="M555.7,1761.3c-1.5-0.7-2.7-1.6-3.6-2.8c-0.9-1.2-1.4-2.6-1.5-4.1l0-0.2h4.2l0,0.2c0.1,1.2,0.7,2.3,1.8,3.1
				c1.1,0.8,2.5,1.2,4.3,1.2c1.1,0,2.2-0.2,3-0.6c0.9-0.4,1.5-0.9,2-1.7c0.5-0.7,0.7-1.5,0.7-2.4v0c0-1.6-0.5-2.8-1.6-3.7
				c-1.1-0.9-2.6-1.3-4.4-1.3h-3.4v-3.4h3.3c1.1,0,2-0.2,2.8-0.6c0.8-0.4,1.4-0.9,1.9-1.6s0.7-1.5,0.7-2.3v0c0-0.9-0.2-1.7-0.6-2.3
				c-0.4-0.6-1-1.1-1.7-1.5c-0.7-0.3-1.7-0.5-2.7-0.5c-1,0-2,0.2-2.8,0.5c-0.8,0.3-1.5,0.8-1.9,1.5c-0.5,0.6-0.8,1.4-0.9,2.3l0,0.2
				h-4.1l0-0.2c0.2-1.6,0.7-2.9,1.5-4.1s2-2.1,3.4-2.7c1.4-0.6,3-1,4.9-1c1.9,0,3.5,0.3,4.9,0.9c1.4,0.6,2.5,1.5,3.2,2.6
				c0.8,1.1,1.2,2.4,1.2,3.8v0c0,1.2-0.3,2.2-0.8,3.1c-0.5,0.9-1.2,1.6-2.1,2.2c-0.9,0.6-1.9,1-3.1,1.2v0.1c2.1,0.2,3.7,0.9,5,2.1
				c1.3,1.2,1.9,2.8,1.9,4.8v0c0,1.6-0.4,3-1.3,4.3c-0.9,1.2-2.1,2.2-3.6,2.9c-1.5,0.7-3.3,1.1-5.3,1.1
				C559,1762.3,557.3,1762,555.7,1761.3z"/>
			<path class="st11" d="M579.9,1760.5c-1.6-1.2-2.8-2.9-3.7-5s-1.3-4.8-1.3-7.7v0c0-3,0.4-5.6,1.3-7.7s2.1-3.9,3.7-5
				c1.6-1.2,3.5-1.8,5.8-1.8c2.2,0,4.2,0.6,5.8,1.8c1.6,1.2,2.8,2.9,3.7,5c0.9,2.2,1.3,4.8,1.3,7.7v0c0,3-0.4,5.6-1.3,7.7
				c-0.9,2.2-2.1,3.9-3.7,5c-1.6,1.2-3.5,1.8-5.8,1.8C583.4,1762.3,581.5,1761.7,579.9,1760.5z M589.1,1757.3
				c0.9-0.9,1.7-2.1,2.2-3.8c0.5-1.6,0.8-3.6,0.8-5.8v0c0-2.3-0.3-4.2-0.8-5.8c-0.5-1.6-1.2-2.9-2.2-3.7c-0.9-0.9-2.1-1.3-3.4-1.3
				c-1.3,0-2.5,0.4-3.4,1.3c-0.9,0.9-1.7,2.1-2.2,3.7c-0.5,1.6-0.7,3.6-0.7,5.8v0c0,2.3,0.2,4.2,0.7,5.8c0.5,1.6,1.2,2.9,2.2,3.8
				c0.9,0.9,2.1,1.3,3.4,1.3C587,1758.6,588.2,1758.2,589.1,1757.3z"/>
			<path class="st11" d="M600.2,1741.3h4.3v3.2h0.1c0.4-1.1,1.2-1.9,2.2-2.6c1-0.7,2.2-1,3.5-1c0.9,0,1.8,0.2,2.5,0.5s1.4,0.8,2,1.4
				s1,1.3,1.2,2.2h0.1c0.4-0.8,0.8-1.6,1.5-2.2c0.6-0.6,1.4-1.1,2.2-1.4s1.7-0.5,2.7-0.5c1.4,0,2.5,0.3,3.5,0.8
				c1,0.6,1.8,1.4,2.3,2.4c0.6,1,0.8,2.2,0.8,3.6v14.1H625v-13.1c0-1.3-0.3-2.4-1-3.1c-0.7-0.7-1.6-1.1-2.9-1.1
				c-0.8,0-1.6,0.2-2.2,0.6c-0.6,0.4-1.1,0.9-1.5,1.6c-0.4,0.7-0.5,1.4-0.5,2.3v12.9h-4.2v-13.4c0-1.2-0.3-2.1-1-2.8
				c-0.7-0.7-1.6-1-2.8-1c-0.8,0-1.6,0.2-2.2,0.6s-1.1,0.9-1.5,1.6c-0.4,0.7-0.5,1.5-0.5,2.4v12.7h-4.3V1741.3z"/>
			<path class="st11" d="M633.3,1741.3h4.3v3.2h0.1c0.4-1.1,1.2-1.9,2.2-2.6c1-0.7,2.2-1,3.5-1c0.9,0,1.8,0.2,2.5,0.5s1.4,0.8,2,1.4
				s1,1.3,1.2,2.2h0.1c0.4-0.8,0.8-1.6,1.5-2.2c0.6-0.6,1.4-1.1,2.2-1.4s1.7-0.5,2.7-0.5c1.4,0,2.5,0.3,3.5,0.8
				c1,0.6,1.8,1.4,2.3,2.4c0.6,1,0.8,2.2,0.8,3.6v14.1H658v-13.1c0-1.3-0.3-2.4-1-3.1c-0.7-0.7-1.6-1.1-2.9-1.1
				c-0.8,0-1.6,0.2-2.2,0.6c-0.6,0.4-1.1,0.9-1.5,1.6c-0.4,0.7-0.5,1.4-0.5,2.3v12.9h-4.2v-13.4c0-1.2-0.3-2.1-1-2.8
				c-0.7-0.7-1.6-1-2.8-1c-0.8,0-1.6,0.2-2.2,0.6s-1.1,0.9-1.5,1.6c-0.4,0.7-0.5,1.5-0.5,2.4v12.7h-4.3V1741.3z"/>
		</g>
	</g>
</g>
<g>
	<g>
		<g>
			<line class="st10" x1="800" y1="1712.8" x2="751" y2="1712.8"/>
			<g>
				<rect x="797.5" y="1696.5" class="st11" width="5" height="32.5"/>
			</g>
			<g>
				<rect x="748.5" y="1696.5" class="st11" width="5" height="32.5"/>
			</g>
		</g>
	</g>
	<g>
		<g>
			<path class="st11" d="M733.3,1756.2h-14.1v-3.8c0.8-1.2,1.6-2.5,2.4-3.8s1.6-2.5,2.4-3.8s1.6-2.5,2.4-3.8
				c0.8-1.2,1.6-2.5,2.4-3.8s1.6-2.5,2.4-3.8h6.3v18.9h3.9v3.7h-3.9v5.6h-4.2V1756.2z M733.3,1752.6v-15.5h-0.1
				c-0.7,1-1.3,2.1-2,3.1s-1.3,2-2,3.1c-0.7,1-1.3,2-2,3.1c-0.7,1-1.3,2.1-2,3.1c-0.7,1-1.3,2-2,3.1v0.1H733.3z"/>
			<path class="st11" d="M758.1,1756.2H744v-3.8c0.8-1.2,1.6-2.5,2.4-3.8s1.6-2.5,2.4-3.8s1.6-2.5,2.4-3.8c0.8-1.2,1.6-2.5,2.4-3.8
				s1.6-2.5,2.4-3.8h6.3v18.9h3.9v3.7h-3.9v5.6h-4.2V1756.2z M758.1,1752.6v-15.5H758c-0.7,1-1.3,2.1-2,3.1s-1.3,2-2,3.1
				c-0.7,1-1.3,2-2,3.1c-0.7,1-1.3,2.1-2,3.1c-0.7,1-1.3,2-2,3.1v0.1H758.1z"/>
			<path class="st11" d="M769.3,1741.3h4.3v3.2h0.1c0.4-1.1,1.2-1.9,2.2-2.6c1-0.7,2.2-1,3.5-1c0.9,0,1.8,0.2,2.5,0.5s1.4,0.8,2,1.4
				s1,1.3,1.2,2.2h0.1c0.4-0.8,0.8-1.6,1.5-2.2c0.6-0.6,1.4-1.1,2.2-1.4s1.7-0.5,2.7-0.5c1.4,0,2.5,0.3,3.5,0.8
				c1,0.6,1.8,1.4,2.3,2.4c0.6,1,0.8,2.2,0.8,3.6v14.1h-4.3v-13.1c0-1.3-0.3-2.4-1-3.1c-0.7-0.7-1.6-1.1-2.9-1.1
				c-0.8,0-1.6,0.2-2.2,0.6c-0.6,0.4-1.1,0.9-1.5,1.6c-0.4,0.7-0.5,1.4-0.5,2.3v12.9h-4.2v-13.4c0-1.2-0.3-2.1-1-2.8
				c-0.7-0.7-1.6-1-2.8-1c-0.8,0-1.6,0.2-2.2,0.6s-1.1,0.9-1.5,1.6c-0.4,0.7-0.5,1.5-0.5,2.4v12.7h-4.3V1741.3z"/>
			<path class="st11" d="M802.4,1741.3h4.3v3.2h0.1c0.4-1.1,1.2-1.9,2.2-2.6c1-0.7,2.2-1,3.5-1c0.9,0,1.8,0.2,2.5,0.5s1.4,0.8,2,1.4
				s1,1.3,1.2,2.2h0.1c0.4-0.8,0.8-1.6,1.5-2.2c0.6-0.6,1.4-1.1,2.2-1.4s1.7-0.5,2.7-0.5c1.4,0,2.5,0.3,3.5,0.8
				c1,0.6,1.8,1.4,2.3,2.4c0.6,1,0.8,2.2,0.8,3.6v14.1h-4.3v-13.1c0-1.3-0.3-2.4-1-3.1c-0.7-0.7-1.6-1.1-2.9-1.1
				c-0.8,0-1.6,0.2-2.2,0.6c-0.6,0.4-1.1,0.9-1.5,1.6c-0.4,0.7-0.5,1.4-0.5,2.3v12.9h-4.2v-13.4c0-1.2-0.3-2.1-1-2.8
				c-0.7-0.7-1.6-1-2.8-1c-0.8,0-1.6,0.2-2.2,0.6s-1.1,0.9-1.5,1.6c-0.4,0.7-0.5,1.5-0.5,2.4v12.7h-4.3V1741.3z"/>
		</g>
	</g>
</g>
<g>
	<g>
		<g>
			<line class="st10" x1="1662.1" y1="1712.8" x2="1616.7" y2="1712.8"/>
			<g>
				<rect x="1659.6" y="1696.5" class="st11" width="5" height="32.5"/>
			</g>
			<g>
				<rect x="1614.2" y="1696.5" class="st11" width="5" height="32.5"/>
			</g>
		</g>
	</g>
	<g>
		<g>
			<path class="st11" d="M1597.1,1756.2H1583v-3.8c0.8-1.2,1.6-2.5,2.4-3.8s1.6-2.5,2.4-3.8s1.6-2.5,2.4-3.8
				c0.8-1.2,1.6-2.5,2.4-3.8s1.6-2.5,2.4-3.8h6.3v18.9h3.9v3.7h-3.9v5.6h-4.2V1756.2z M1597.2,1752.6v-15.5h-0.1
				c-0.7,1-1.3,2.1-2,3.1s-1.3,2-2,3.1c-0.7,1-1.3,2-2,3.1c-0.7,1-1.3,2.1-2,3.1c-0.7,1-1.3,2-2,3.1v0.1H1597.2z"/>
			<path class="st11" d="M1621.9,1756.2h-14.1v-3.8c0.8-1.2,1.6-2.5,2.4-3.8s1.6-2.5,2.4-3.8s1.6-2.5,2.4-3.8
				c0.8-1.2,1.6-2.5,2.4-3.8s1.6-2.5,2.4-3.8h6.3v18.9h3.9v3.7h-3.9v5.6h-4.2V1756.2z M1622,1752.6v-15.5h-0.1c-0.7,1-1.3,2.1-2,3.1
				s-1.3,2-2,3.1c-0.7,1-1.3,2-2,3.1c-0.7,1-1.3,2.1-2,3.1c-0.7,1-1.3,2-2,3.1v0.1H1622z"/>
			<path class="st11" d="M1633.2,1741.3h4.3v3.2h0.1c0.4-1.1,1.2-1.9,2.2-2.6c1-0.7,2.2-1,3.5-1c0.9,0,1.8,0.2,2.5,0.5
				s1.4,0.8,2,1.4s0.9,1.3,1.2,2.2h0.1c0.4-0.8,0.8-1.6,1.5-2.2c0.6-0.6,1.4-1.1,2.2-1.4s1.7-0.5,2.7-0.5c1.4,0,2.5,0.3,3.5,0.8
				c1,0.6,1.8,1.4,2.3,2.4c0.6,1,0.8,2.2,0.8,3.6v14.1h-4.3v-13.1c0-1.3-0.3-2.4-1-3.1c-0.7-0.7-1.6-1.1-2.9-1.1
				c-0.8,0-1.6,0.2-2.2,0.6c-0.6,0.4-1.1,0.9-1.5,1.6c-0.4,0.7-0.5,1.4-0.5,2.3v12.9h-4.2v-13.4c0-1.2-0.3-2.1-1-2.8
				c-0.7-0.7-1.6-1-2.8-1c-0.8,0-1.6,0.2-2.2,0.6s-1.2,0.9-1.5,1.6c-0.4,0.7-0.5,1.5-0.5,2.4v12.7h-4.3V1741.3z"/>
			<path class="st11" d="M1666.2,1741.3h4.3v3.2h0.1c0.4-1.1,1.2-1.9,2.2-2.6c1-0.7,2.2-1,3.5-1c0.9,0,1.8,0.2,2.5,0.5
				s1.4,0.8,2,1.4s0.9,1.3,1.2,2.2h0.1c0.4-0.8,0.8-1.6,1.5-2.2c0.6-0.6,1.4-1.1,2.2-1.4s1.7-0.5,2.7-0.5c1.4,0,2.5,0.3,3.5,0.8
				c1,0.6,1.8,1.4,2.3,2.4c0.6,1,0.8,2.2,0.8,3.6v14.1h-4.3v-13.1c0-1.3-0.3-2.4-1-3.1c-0.7-0.7-1.6-1.1-2.9-1.1
				c-0.8,0-1.6,0.2-2.2,0.6c-0.6,0.4-1.1,0.9-1.5,1.6c-0.4,0.7-0.5,1.4-0.5,2.3v12.9h-4.2v-13.4c0-1.2-0.3-2.1-1-2.8
				c-0.7-0.7-1.6-1-2.8-1c-0.8,0-1.6,0.2-2.2,0.6s-1.2,0.9-1.5,1.6c-0.4,0.7-0.5,1.5-0.5,2.4v12.7h-4.3V1741.3z"/>
		</g>
	</g>
</g>
<g>
	<g>
		<g>
			<line class="st10" x1="1616.8" y1="1712.8" x2="800" y2="1712.8"/>
			<g>
				<rect x="1614.3" y="1696.5" class="st11" width="5" height="32.5"/>
			</g>
			<g>
				<rect x="797.5" y="1696.5" class="st11" width="5" height="32.5"/>
			</g>
		</g>
	</g>
	<g>
		<g>
			<path class="st11" d="M1138.5,1738L1138.5,1738l-7.5,5.1v-4.2l7.4-5.3h4.3v28.2h-4.3V1738z"/>
			<path class="st11" d="M1154.1,1760.5c-1.6-1.2-2.8-2.9-3.7-5s-1.3-4.8-1.3-7.7v0c0-3,0.4-5.6,1.3-7.7s2.1-3.9,3.7-5
				c1.6-1.2,3.5-1.8,5.8-1.8c2.2,0,4.2,0.6,5.8,1.8c1.6,1.2,2.8,2.9,3.7,5c0.9,2.2,1.3,4.8,1.3,7.7v0c0,3-0.4,5.6-1.3,7.7
				c-0.9,2.2-2.1,3.9-3.7,5c-1.6,1.2-3.5,1.8-5.8,1.8C1157.7,1762.3,1155.7,1761.7,1154.1,1760.5z M1163.3,1757.3
				c0.9-0.9,1.7-2.1,2.2-3.8c0.5-1.6,0.8-3.6,0.8-5.8v0c0-2.3-0.3-4.2-0.8-5.8c-0.5-1.6-1.2-2.9-2.2-3.7c-0.9-0.9-2.1-1.3-3.4-1.3
				c-1.3,0-2.5,0.4-3.4,1.3c-0.9,0.9-1.7,2.1-2.2,3.7c-0.5,1.6-0.7,3.6-0.7,5.8v0c0,2.3,0.2,4.2,0.7,5.8c0.5,1.6,1.2,2.9,2.2,3.8
				c0.9,0.9,2.1,1.3,3.4,1.3C1161.2,1758.6,1162.4,1758.2,1163.3,1757.3z"/>
			<path class="st11" d="M1179.2,1761.3c-1.5-0.7-2.7-1.6-3.6-2.8c-0.9-1.2-1.4-2.6-1.5-4.1l0-0.2h4.2l0,0.2
				c0.1,1.2,0.7,2.3,1.8,3.1c1.1,0.8,2.5,1.2,4.3,1.2c1.1,0,2.2-0.2,3-0.6c0.9-0.4,1.5-0.9,2-1.7c0.5-0.7,0.7-1.5,0.7-2.4v0
				c0-1.6-0.5-2.8-1.6-3.7c-1.1-0.9-2.6-1.3-4.4-1.3h-3.4v-3.4h3.3c1.1,0,2-0.2,2.8-0.6c0.8-0.4,1.4-0.9,1.9-1.6s0.7-1.5,0.7-2.3v0
				c0-0.9-0.2-1.7-0.6-2.3c-0.4-0.6-1-1.1-1.7-1.5c-0.7-0.3-1.7-0.5-2.7-0.5c-1,0-2,0.2-2.8,0.5c-0.8,0.3-1.5,0.8-1.9,1.5
				c-0.5,0.6-0.8,1.4-0.9,2.3l0,0.2h-4.1l0-0.2c0.2-1.6,0.7-2.9,1.5-4.1s2-2.1,3.4-2.7c1.4-0.6,3-1,4.9-1c1.9,0,3.5,0.3,4.9,0.9
				c1.4,0.6,2.5,1.5,3.2,2.6c0.8,1.1,1.2,2.4,1.2,3.8v0c0,1.2-0.3,2.2-0.8,3.1c-0.5,0.9-1.2,1.6-2.1,2.2c-0.9,0.6-1.9,1-3.1,1.2v0.1
				c2.1,0.2,3.7,0.9,5,2.1c1.3,1.2,1.9,2.8,1.9,4.8v0c0,1.6-0.4,3-1.3,4.3c-0.9,1.2-2.1,2.2-3.6,2.9c-1.5,0.7-3.3,1.1-5.3,1.1
				C1182.4,1762.3,1180.7,1762,1179.2,1761.3z"/>
			<path class="st11" d="M1203.3,1760.5c-1.6-1.2-2.8-2.9-3.7-5s-1.3-4.8-1.3-7.7v0c0-3,0.4-5.6,1.3-7.7s2.1-3.9,3.7-5
				c1.6-1.2,3.5-1.8,5.8-1.8c2.2,0,4.2,0.6,5.8,1.8c1.6,1.2,2.8,2.9,3.7,5c0.9,2.2,1.3,4.8,1.3,7.7v0c0,3-0.4,5.6-1.3,7.7
				c-0.9,2.2-2.1,3.9-3.7,5c-1.6,1.2-3.5,1.8-5.8,1.8C1206.9,1762.3,1204.9,1761.7,1203.3,1760.5z M1212.5,1757.3
				c0.9-0.9,1.7-2.1,2.2-3.8c0.5-1.6,0.8-3.6,0.8-5.8v0c0-2.3-0.3-4.2-0.8-5.8c-0.5-1.6-1.2-2.9-2.2-3.7c-0.9-0.9-2.1-1.3-3.4-1.3
				c-1.3,0-2.5,0.4-3.4,1.3c-0.9,0.9-1.7,2.1-2.2,3.7c-0.5,1.6-0.7,3.6-0.7,5.8v0c0,2.3,0.2,4.2,0.7,5.8c0.5,1.6,1.2,2.9,2.2,3.8
				c0.9,0.9,2.1,1.3,3.4,1.3C1210.4,1758.6,1211.6,1758.2,1212.5,1757.3z"/>
			<path class="st11" d="M1223.7,1741.3h4.3v3.2h0.1c0.4-1.1,1.2-1.9,2.2-2.6c1-0.7,2.2-1,3.5-1c0.9,0,1.8,0.2,2.5,0.5
				s1.4,0.8,2,1.4s1,1.3,1.2,2.2h0.1c0.4-0.8,0.8-1.6,1.5-2.2c0.6-0.6,1.4-1.1,2.2-1.4s1.7-0.5,2.7-0.5c1.4,0,2.5,0.3,3.5,0.8
				c1,0.6,1.8,1.4,2.3,2.4c0.6,1,0.8,2.2,0.8,3.6v14.1h-4.3v-13.1c0-1.3-0.3-2.4-1-3.1c-0.7-0.7-1.6-1.1-2.9-1.1
				c-0.8,0-1.6,0.2-2.2,0.6c-0.6,0.4-1.1,0.9-1.5,1.6c-0.4,0.7-0.5,1.4-0.5,2.3v12.9h-4.2v-13.4c0-1.2-0.3-2.1-1-2.8
				c-0.7-0.7-1.6-1-2.8-1c-0.8,0-1.6,0.2-2.2,0.6s-1.1,0.9-1.5,1.6c-0.4,0.7-0.5,1.5-0.5,2.4v12.7h-4.3V1741.3z"/>
			<path class="st11" d="M1256.7,1741.3h4.3v3.2h0.1c0.4-1.1,1.2-1.9,2.2-2.6c1-0.7,2.2-1,3.5-1c0.9,0,1.8,0.2,2.5,0.5
				s1.4,0.8,2,1.4s1,1.3,1.2,2.2h0.1c0.4-0.8,0.8-1.6,1.5-2.2c0.6-0.6,1.4-1.1,2.2-1.4s1.7-0.5,2.7-0.5c1.4,0,2.5,0.3,3.5,0.8
				c1,0.6,1.8,1.4,2.3,2.4c0.6,1,0.8,2.2,0.8,3.6v14.1h-4.3v-13.1c0-1.3-0.3-2.4-1-3.1c-0.7-0.7-1.6-1.1-2.9-1.1
				c-0.8,0-1.6,0.2-2.2,0.6c-0.6,0.4-1.1,0.9-1.5,1.6c-0.4,0.7-0.5,1.4-0.5,2.3v12.9h-4.2v-13.4c0-1.2-0.3-2.1-1-2.8
				c-0.7-0.7-1.6-1-2.8-1c-0.8,0-1.6,0.2-2.2,0.6s-1.1,0.9-1.5,1.6c-0.4,0.7-0.5,1.5-0.5,2.4v12.7h-4.3V1741.3z"/>
		</g>
	</g>
</g>
<g>
	<g>
		<g>
			<line class="st10" x1="1200.5" y1="1795.1" x2="852.8" y2="1795.1"/>
			<g>
				<rect x="1198" y="1778.8" class="st11" width="5" height="32.5"/>
			</g>
			<g>
				<rect x="850.3" y="1778.8" class="st11" width="5" height="32.5"/>
			</g>
		</g>
	</g>
	<g>
		<g>
			<path class="st11" d="M964.3,1843.6c-1.5-0.7-2.7-1.6-3.6-2.8c-0.9-1.2-1.4-2.6-1.5-4.1l0-0.2h4.2l0,0.2c0.1,1.2,0.7,2.3,1.8,3.1
				c1.1,0.8,2.5,1.2,4.3,1.2c1.1,0,2.2-0.2,3-0.6c0.9-0.4,1.5-0.9,2-1.7c0.5-0.7,0.7-1.5,0.7-2.4v0c0-1.6-0.5-2.8-1.6-3.7
				c-1.1-0.9-2.6-1.3-4.4-1.3h-3.4v-3.4h3.3c1.1,0,2-0.2,2.8-0.6c0.8-0.4,1.4-0.9,1.9-1.6c0.4-0.7,0.7-1.5,0.7-2.3v0
				c0-0.9-0.2-1.7-0.6-2.3c-0.4-0.6-1-1.1-1.7-1.5c-0.7-0.3-1.7-0.5-2.7-0.5c-1,0-2,0.2-2.8,0.5c-0.8,0.3-1.5,0.8-1.9,1.5
				c-0.5,0.6-0.8,1.4-0.9,2.3l0,0.2h-4.1l0-0.2c0.2-1.6,0.7-2.9,1.5-4.1s2-2.1,3.4-2.7c1.4-0.6,3-1,4.9-1c1.9,0,3.5,0.3,4.9,0.9
				c1.4,0.6,2.5,1.5,3.2,2.6c0.8,1.1,1.2,2.4,1.2,3.8v0c0,1.2-0.3,2.2-0.8,3.1c-0.5,0.9-1.2,1.6-2.1,2.2c-0.9,0.6-1.9,1-3.1,1.2v0.1
				c2.1,0.2,3.7,0.9,5,2.1c1.3,1.2,1.9,2.8,1.9,4.8v0c0,1.6-0.4,3-1.3,4.3c-0.9,1.2-2.1,2.2-3.6,2.9c-1.5,0.7-3.3,1.1-5.3,1.1
				C967.5,1844.6,965.8,1844.3,964.3,1843.6z"/>
			<path class="st11" d="M989,1843.6c-1.5-0.7-2.6-1.7-3.5-2.9c-0.9-1.2-1.4-2.6-1.5-4.1l0-0.2h4.2l0,0.1c0.1,0.8,0.5,1.6,1,2.3
				s1.2,1.2,2,1.6c0.8,0.4,1.8,0.6,2.8,0.6c1.2,0,2.2-0.3,3.1-0.8c0.9-0.5,1.6-1.2,2.1-2.1s0.8-1.9,0.8-3.1v0c0-1.1-0.3-2.2-0.8-3
				c-0.5-0.9-1.2-1.6-2.1-2.1s-1.9-0.8-3.1-0.8c-0.9,0-1.7,0.1-2.4,0.4s-1.4,0.6-2,1.1c-0.2,0.2-0.5,0.5-0.7,0.7
				c-0.2,0.3-0.4,0.6-0.6,0.9h-3.8l1.4-16.2h16.8v3.7h-13.3l-0.9,8.9h0.1c0.6-1,1.5-1.7,2.6-2.2c1.1-0.5,2.4-0.8,3.8-0.8
				c1.8,0,3.4,0.4,4.8,1.2c1.4,0.8,2.5,1.9,3.3,3.3c0.8,1.4,1.2,3,1.2,4.8v0c0,1.9-0.4,3.6-1.3,5c-0.9,1.5-2.1,2.6-3.7,3.4
				c-1.6,0.8-3.3,1.2-5.4,1.2C992.1,1844.6,990.5,1844.3,989,1843.6z"/>
			<path class="st11" d="M1013,1843.6c-1.5-0.7-2.6-1.7-3.5-2.9c-0.9-1.2-1.4-2.6-1.5-4.1l0-0.2h4.2l0,0.1c0.1,0.8,0.5,1.6,1,2.3
				s1.2,1.2,2,1.6c0.8,0.4,1.8,0.6,2.8,0.6c1.2,0,2.2-0.3,3.1-0.8c0.9-0.5,1.6-1.2,2.1-2.1s0.8-1.9,0.8-3.1v0c0-1.1-0.3-2.2-0.8-3
				c-0.5-0.9-1.2-1.6-2.1-2.1s-1.9-0.8-3.1-0.8c-0.9,0-1.7,0.1-2.4,0.4s-1.4,0.6-2,1.1c-0.2,0.2-0.5,0.5-0.7,0.7
				c-0.2,0.3-0.4,0.6-0.6,0.9h-3.8l1.4-16.2h16.8v3.7h-13.3l-0.9,8.9h0.1c0.6-1,1.5-1.7,2.6-2.2c1.1-0.5,2.4-0.8,3.8-0.8
				c1.8,0,3.4,0.4,4.8,1.2c1.4,0.8,2.5,1.9,3.3,3.3c0.8,1.4,1.2,3,1.2,4.8v0c0,1.9-0.4,3.6-1.3,5c-0.9,1.5-2.1,2.6-3.7,3.4
				c-1.6,0.8-3.3,1.2-5.4,1.2C1016.1,1844.6,1014.4,1844.3,1013,1843.6z"/>
			<path class="st11" d="M1031.8,1823.6h4.3v3.2h0.1c0.4-1.1,1.2-1.9,2.2-2.6c1-0.7,2.2-1,3.5-1c0.9,0,1.8,0.2,2.5,0.5
				s1.4,0.8,2,1.4s1,1.3,1.2,2.2h0.1c0.4-0.8,0.8-1.6,1.5-2.2c0.6-0.6,1.4-1.1,2.2-1.4c0.8-0.3,1.7-0.5,2.7-0.5
				c1.4,0,2.5,0.3,3.5,0.8c1,0.6,1.8,1.4,2.3,2.4c0.6,1,0.8,2.2,0.8,3.6v14.1h-4.3V1831c0-1.3-0.3-2.4-1-3.1
				c-0.7-0.7-1.6-1.1-2.9-1.1c-0.8,0-1.6,0.2-2.2,0.6c-0.6,0.4-1.1,0.9-1.5,1.6c-0.4,0.7-0.5,1.4-0.5,2.3v12.9h-4.2v-13.4
				c0-1.2-0.3-2.1-1-2.8c-0.7-0.7-1.6-1-2.8-1c-0.8,0-1.6,0.2-2.2,0.6c-0.6,0.4-1.1,0.9-1.5,1.6c-0.4,0.7-0.5,1.5-0.5,2.4v12.7h-4.3
				V1823.6z"/>
			<path class="st11" d="M1064.8,1823.6h4.3v3.2h0.1c0.4-1.1,1.2-1.9,2.2-2.6c1-0.7,2.2-1,3.5-1c0.9,0,1.8,0.2,2.5,0.5
				s1.4,0.8,2,1.4s1,1.3,1.2,2.2h0.1c0.4-0.8,0.8-1.6,1.5-2.2c0.6-0.6,1.4-1.1,2.2-1.4c0.8-0.3,1.7-0.5,2.7-0.5
				c1.4,0,2.5,0.3,3.5,0.8c1,0.6,1.8,1.4,2.3,2.4c0.6,1,0.8,2.2,0.8,3.6v14.1h-4.3V1831c0-1.3-0.3-2.4-1-3.1
				c-0.7-0.7-1.6-1.1-2.9-1.1c-0.8,0-1.6,0.2-2.2,0.6c-0.6,0.4-1.1,0.9-1.5,1.6c-0.4,0.7-0.5,1.4-0.5,2.3v12.9h-4.2v-13.4
				c0-1.2-0.3-2.1-1-2.8c-0.7-0.7-1.6-1-2.8-1c-0.8,0-1.6,0.2-2.2,0.6c-0.6,0.4-1.1,0.9-1.5,1.6c-0.4,0.7-0.5,1.5-0.5,2.4v12.7h-4.3
				V1823.6z"/>
		</g>
	</g>
</g>
<g>
	<g>
		<g>
			<line class="st10" x1="712.7" y1="1795.1" x2="466.9" y2="1795.1"/>
			<g>
				<rect x="710.2" y="1778.8" class="st11" width="5" height="32.5"/>
			</g>
			<g>
				<rect x="464.4" y="1778.8" class="st11" width="5" height="32.5"/>
			</g>
		</g>
	</g>
	<g>
		<g>
			<path class="st11" d="M522.5,1841.1l9.9-10c1.3-1.3,2.2-2.3,2.9-3.1c0.7-0.8,1.1-1.6,1.3-2.2c0.2-0.7,0.4-1.4,0.4-2.1v0
				c0-0.9-0.2-1.7-0.6-2.4c-0.4-0.7-1-1.2-1.7-1.6c-0.7-0.4-1.6-0.6-2.5-0.6c-1.1,0-2.1,0.2-2.9,0.7c-0.9,0.5-1.5,1.1-2,1.8
				c-0.5,0.8-0.7,1.6-0.7,2.6l0,0.1h-4.1v-0.1c0-1.7,0.4-3.2,1.3-4.5s2-2.3,3.5-3.1c1.5-0.7,3.1-1.1,5-1.1c1.8,0,3.4,0.3,4.8,1
				c1.4,0.7,2.5,1.6,3.3,2.8c0.8,1.2,1.2,2.6,1.2,4.1v0c0,1.1-0.2,2.1-0.6,3s-1.1,2-2,3.2c-0.9,1.2-2.3,2.6-4,4.3l-7.9,7.7l1.5-2.8
				v2.8l-1.5-1.3h14.9v3.7h-19.3V1841.1z"/>
			<path class="st11" d="M559.1,1838.5H545v-3.8c0.8-1.2,1.6-2.5,2.4-3.8s1.6-2.5,2.4-3.8s1.6-2.5,2.4-3.8c0.8-1.2,1.6-2.5,2.4-3.8
				s1.6-2.5,2.4-3.8h6.3v18.9h3.9v3.7h-3.9v5.6h-4.2V1838.5z M559.1,1834.9v-15.5H559c-0.7,1-1.3,2.1-2,3.1s-1.3,2-2,3.1
				c-0.7,1-1.3,2-2,3.1c-0.7,1-1.3,2.1-2,3.1c-0.7,1-1.3,2-2,3.1v0.1H559.1z"/>
			<path class="st11" d="M575,1842.8c-1.6-1.2-2.8-2.9-3.7-5s-1.3-4.8-1.3-7.7v0c0-3,0.4-5.6,1.3-7.7s2.1-3.9,3.7-5
				c1.6-1.2,3.5-1.8,5.8-1.8c2.2,0,4.2,0.6,5.8,1.8c1.6,1.2,2.8,2.9,3.7,5c0.9,2.2,1.3,4.8,1.3,7.7v0c0,3-0.4,5.6-1.3,7.7
				c-0.9,2.2-2.1,3.9-3.7,5c-1.6,1.2-3.5,1.8-5.8,1.8C578.5,1844.6,576.6,1844,575,1842.8z M584.2,1839.6c0.9-0.9,1.7-2.1,2.2-3.8
				c0.5-1.6,0.8-3.6,0.8-5.8v0c0-2.3-0.3-4.2-0.8-5.8c-0.5-1.6-1.2-2.9-2.2-3.7c-0.9-0.9-2.1-1.3-3.4-1.3c-1.3,0-2.5,0.4-3.4,1.3
				c-0.9,0.9-1.7,2.1-2.2,3.7c-0.5,1.6-0.7,3.6-0.7,5.8v0c0,2.3,0.2,4.2,0.7,5.8c0.5,1.6,1.2,2.9,2.2,3.8c0.9,0.9,2.1,1.3,3.4,1.3
				C582.1,1840.9,583.2,1840.5,584.2,1839.6z"/>
			<path class="st11" d="M595.3,1823.6h4.3v3.2h0.1c0.4-1.1,1.2-1.9,2.2-2.6c1-0.7,2.2-1,3.5-1c0.9,0,1.8,0.2,2.5,0.5s1.4,0.8,2,1.4
				s1,1.3,1.2,2.2h0.1c0.4-0.8,0.8-1.6,1.5-2.2c0.6-0.6,1.4-1.1,2.2-1.4s1.7-0.5,2.7-0.5c1.4,0,2.5,0.3,3.5,0.8
				c1,0.6,1.8,1.4,2.3,2.4c0.6,1,0.8,2.2,0.8,3.6v14.1H620V1831c0-1.3-0.3-2.4-1-3.1c-0.7-0.7-1.6-1.1-2.9-1.1
				c-0.8,0-1.6,0.2-2.2,0.6c-0.6,0.4-1.1,0.9-1.5,1.6c-0.4,0.7-0.5,1.4-0.5,2.3v12.9h-4.2v-13.4c0-1.2-0.3-2.1-1-2.8
				c-0.7-0.7-1.6-1-2.8-1c-0.8,0-1.6,0.2-2.2,0.6s-1.1,0.9-1.5,1.6c-0.4,0.7-0.5,1.5-0.5,2.4v12.7h-4.3V1823.6z"/>
			<path class="st11" d="M628.3,1823.6h4.3v3.2h0.1c0.4-1.1,1.2-1.9,2.2-2.6c1-0.7,2.2-1,3.5-1c0.9,0,1.8,0.2,2.5,0.5s1.4,0.8,2,1.4
				s1,1.3,1.2,2.2h0.1c0.4-0.8,0.8-1.6,1.5-2.2c0.6-0.6,1.4-1.1,2.2-1.4s1.7-0.5,2.7-0.5c1.4,0,2.5,0.3,3.5,0.8
				c1,0.6,1.8,1.4,2.3,2.4c0.6,1,0.8,2.2,0.8,3.6v14.1H653V1831c0-1.3-0.3-2.4-1-3.1c-0.7-0.7-1.6-1.1-2.9-1.1
				c-0.8,0-1.6,0.2-2.2,0.6c-0.6,0.4-1.1,0.9-1.5,1.6c-0.4,0.7-0.5,1.4-0.5,2.3v12.9h-4.2v-13.4c0-1.2-0.3-2.1-1-2.8
				c-0.7-0.7-1.6-1-2.8-1c-0.8,0-1.6,0.2-2.2,0.6s-1.1,0.9-1.5,1.6c-0.4,0.7-0.5,1.5-0.5,2.4v12.7h-4.3V1823.6z"/>
		</g>
	</g>
</g>
<g>
	<g>
		<g>
			<line class="st10" x1="1569.6" y1="1795.1" x2="1221.9" y2="1795.1"/>
			<g>
				<rect x="1567.1" y="1778.8" class="st11" width="5" height="32.5"/>
			</g>
			<g>
				<rect x="1219.4" y="1778.8" class="st11" width="5" height="32.5"/>
			</g>
		</g>
	</g>
	<g>
		<g>
			<path class="st11" d="M1333.4,1843.6c-1.5-0.7-2.7-1.6-3.6-2.8s-1.4-2.6-1.5-4.1l0-0.2h4.2l0,0.2c0.1,1.2,0.7,2.3,1.8,3.1
				s2.5,1.2,4.3,1.2c1.1,0,2.2-0.2,3-0.6c0.9-0.4,1.5-0.9,2-1.7s0.7-1.5,0.7-2.4v0c0-1.6-0.5-2.8-1.6-3.7c-1.1-0.9-2.6-1.3-4.4-1.3
				h-3.4v-3.4h3.3c1.1,0,2-0.2,2.8-0.6c0.8-0.4,1.4-0.9,1.9-1.6c0.4-0.7,0.7-1.5,0.7-2.3v0c0-0.9-0.2-1.7-0.6-2.3
				c-0.4-0.6-1-1.1-1.7-1.5s-1.7-0.5-2.7-0.5c-1,0-2,0.2-2.8,0.5c-0.8,0.3-1.5,0.8-1.9,1.5c-0.5,0.6-0.8,1.4-0.9,2.3l0,0.2h-4.1
				l0-0.2c0.2-1.6,0.7-2.9,1.5-4.1s2-2.1,3.4-2.7s3-1,4.9-1c1.9,0,3.5,0.3,4.9,0.9c1.4,0.6,2.5,1.5,3.2,2.6s1.2,2.4,1.2,3.8v0
				c0,1.2-0.3,2.2-0.8,3.1c-0.5,0.9-1.2,1.6-2.1,2.2c-0.9,0.6-1.9,1-3.1,1.2v0.1c2.1,0.2,3.7,0.9,5,2.1c1.3,1.2,1.9,2.8,1.9,4.8v0
				c0,1.6-0.4,3-1.3,4.3s-2.1,2.2-3.6,2.9s-3.3,1.1-5.3,1.1S1334.9,1844.3,1333.4,1843.6z"/>
			<path class="st11" d="M1358.1,1843.6c-1.5-0.7-2.6-1.7-3.5-2.9c-0.9-1.2-1.4-2.6-1.5-4.1l0-0.2h4.2l0,0.1c0.1,0.8,0.5,1.6,1,2.3
				s1.2,1.2,2,1.6c0.8,0.4,1.8,0.6,2.8,0.6c1.2,0,2.2-0.3,3.1-0.8s1.6-1.2,2.1-2.1s0.8-1.9,0.8-3.1v0c0-1.1-0.3-2.2-0.8-3
				c-0.5-0.9-1.2-1.6-2.1-2.1s-1.9-0.8-3.1-0.8c-0.9,0-1.7,0.1-2.4,0.4s-1.4,0.6-2,1.1c-0.2,0.2-0.5,0.5-0.7,0.7s-0.4,0.6-0.6,0.9
				h-3.8l1.4-16.2h16.8v3.7h-13.3l-0.9,8.9h0.1c0.6-1,1.5-1.7,2.6-2.2c1.1-0.5,2.4-0.8,3.8-0.8c1.8,0,3.4,0.4,4.8,1.2
				s2.5,1.9,3.3,3.3c0.8,1.4,1.2,3,1.2,4.8v0c0,1.9-0.4,3.6-1.3,5c-0.9,1.5-2.1,2.6-3.7,3.4s-3.3,1.2-5.4,1.2
				C1361.2,1844.6,1359.6,1844.3,1358.1,1843.6z"/>
			<path class="st11" d="M1382.1,1843.6c-1.5-0.7-2.6-1.7-3.5-2.9c-0.9-1.2-1.4-2.6-1.5-4.1l0-0.2h4.2l0,0.1c0.1,0.8,0.5,1.6,1,2.3
				s1.2,1.2,2,1.6c0.8,0.4,1.8,0.6,2.8,0.6c1.2,0,2.2-0.3,3.1-0.8s1.6-1.2,2.1-2.1s0.8-1.9,0.8-3.1v0c0-1.1-0.3-2.2-0.8-3
				c-0.5-0.9-1.2-1.6-2.1-2.1s-1.9-0.8-3.1-0.8c-0.9,0-1.7,0.1-2.4,0.4s-1.4,0.6-2,1.1c-0.2,0.2-0.5,0.5-0.7,0.7s-0.4,0.6-0.6,0.9
				h-3.8l1.4-16.2h16.8v3.7h-13.3l-0.9,8.9h0.1c0.6-1,1.5-1.7,2.6-2.2c1.1-0.5,2.4-0.8,3.8-0.8c1.8,0,3.4,0.4,4.8,1.2
				s2.5,1.9,3.3,3.3c0.8,1.4,1.2,3,1.2,4.8v0c0,1.9-0.4,3.6-1.3,5c-0.9,1.5-2.1,2.6-3.7,3.4s-3.3,1.2-5.4,1.2
				C1385.2,1844.6,1383.5,1844.3,1382.1,1843.6z"/>
			<path class="st11" d="M1400.9,1823.6h4.3v3.2h0.1c0.4-1.1,1.2-1.9,2.2-2.6c1-0.7,2.2-1,3.5-1c0.9,0,1.8,0.2,2.5,0.5
				s1.4,0.8,2,1.4s1,1.3,1.2,2.2h0.1c0.4-0.8,0.8-1.6,1.5-2.2s1.4-1.1,2.2-1.4c0.8-0.3,1.7-0.5,2.7-0.5c1.4,0,2.5,0.3,3.5,0.8
				s1.8,1.4,2.3,2.4s0.8,2.2,0.8,3.6v14.1h-4.3V1831c0-1.3-0.3-2.4-1-3.1c-0.7-0.7-1.6-1.1-2.9-1.1c-0.8,0-1.6,0.2-2.2,0.6
				c-0.6,0.4-1.1,0.9-1.5,1.6c-0.4,0.7-0.5,1.4-0.5,2.3v12.9h-4.2v-13.4c0-1.2-0.3-2.1-1-2.8c-0.7-0.7-1.6-1-2.8-1
				c-0.8,0-1.6,0.2-2.2,0.6c-0.6,0.4-1.1,0.9-1.5,1.6c-0.4,0.7-0.5,1.5-0.5,2.4v12.7h-4.3V1823.6z"/>
			<path class="st11" d="M1433.9,1823.6h4.3v3.2h0.1c0.4-1.1,1.2-1.9,2.2-2.6c1-0.7,2.2-1,3.5-1c0.9,0,1.8,0.2,2.5,0.5
				s1.4,0.8,2,1.4s1,1.3,1.2,2.2h0.1c0.4-0.8,0.8-1.6,1.5-2.2s1.4-1.1,2.2-1.4c0.8-0.3,1.7-0.5,2.7-0.5c1.4,0,2.5,0.3,3.5,0.8
				s1.8,1.4,2.3,2.4s0.8,2.2,0.8,3.6v14.1h-4.3V1831c0-1.3-0.3-2.4-1-3.1c-0.7-0.7-1.6-1.1-2.9-1.1c-0.8,0-1.6,0.2-2.2,0.6
				c-0.6,0.4-1.1,0.9-1.5,1.6c-0.4,0.7-0.5,1.4-0.5,2.3v12.9h-4.2v-13.4c0-1.2-0.3-2.1-1-2.8c-0.7-0.7-1.6-1-2.8-1
				c-0.8,0-1.6,0.2-2.2,0.6c-0.6,0.4-1.1,0.9-1.5,1.6c-0.4,0.7-0.5,1.5-0.5,2.4v12.7h-4.3V1823.6z"/>
		</g>
	</g>
</g>
<g>
	<g>
		<g>
			<line class="st10" x1="1892.9" y1="1642.3" x2="1892.9" y2="1683.9"/>
			<g>
				<rect x="1876.7" y="1639.8" class="st11" width="32.5" height="5"/>
			</g>
			<g>
				<rect x="1876.7" y="1681.4" class="st11" width="32.5" height="5"/>
			</g>
		</g>
	</g>
	<g>
		<g>
			<path class="st11" d="M1946.4,1712.6c-0.7,1.5-1.6,2.7-2.8,3.6c-1.2,0.9-2.6,1.4-4.1,1.5l-0.2,0v-4.2l0.2,0
				c1.2-0.1,2.3-0.7,3.1-1.8c0.8-1.1,1.2-2.5,1.2-4.3c0-1.1-0.2-2.2-0.6-3c-0.4-0.9-0.9-1.5-1.7-2c-0.7-0.5-1.5-0.7-2.4-0.7h0
				c-1.6,0-2.8,0.5-3.7,1.6c-0.9,1.1-1.3,2.6-1.3,4.4v3.4h-3.4v-3.3c0-1.1-0.2-2-0.6-2.8c-0.4-0.8-0.9-1.4-1.6-1.9s-1.5-0.7-2.3-0.7
				h0c-0.9,0-1.7,0.2-2.3,0.6c-0.6,0.4-1.1,1-1.5,1.7c-0.3,0.8-0.5,1.7-0.5,2.7c0,1,0.2,2,0.5,2.8c0.3,0.8,0.8,1.5,1.5,1.9
				c0.6,0.5,1.4,0.8,2.3,0.9l0.2,0v4.1l-0.2,0c-1.6-0.2-2.9-0.7-4.1-1.5s-2.1-2-2.7-3.4c-0.6-1.4-1-3-1-4.9c0-1.9,0.3-3.5,0.9-4.9
				c0.6-1.4,1.5-2.5,2.6-3.2c1.1-0.8,2.4-1.2,3.8-1.2h0c1.2,0,2.2,0.3,3.1,0.8c0.9,0.5,1.6,1.2,2.2,2.1c0.6,0.9,1,1.9,1.2,3.1h0.1
				c0.2-2.1,0.9-3.7,2.1-5c1.2-1.3,2.8-1.9,4.8-1.9h0c1.6,0,3,0.4,4.3,1.3c1.2,0.9,2.2,2.1,2.9,3.6c0.7,1.5,1.1,3.3,1.1,5.3
				C1947.4,1709.3,1947,1711.1,1946.4,1712.6z"/>
			<path class="st11" d="M1922.5,1678.9L1922.5,1678.9l-0.1,14.9h-3.7v-19.2h3.8l24.4,12.3v4.6L1922.5,1678.9z"/>
			<path class="st11" d="M1926.3,1670.8v-4.3h3.2v-0.1c-1.1-0.4-1.9-1.2-2.6-2.2c-0.7-1-1-2.2-1-3.5c0-0.9,0.2-1.8,0.5-2.5
				s0.8-1.4,1.4-2s1.3-0.9,2.2-1.2v-0.1c-0.8-0.4-1.6-0.8-2.2-1.5c-0.6-0.6-1.1-1.4-1.4-2.2s-0.5-1.7-0.5-2.7c0-1.4,0.3-2.5,0.8-3.5
				c0.6-1,1.4-1.8,2.4-2.3c1-0.6,2.2-0.8,3.6-0.8h14.1v4.3h-13.1c-1.3,0-2.4,0.3-3.1,1c-0.7,0.7-1.1,1.6-1.1,2.9
				c0,0.8,0.2,1.6,0.6,2.2c0.4,0.6,0.9,1.1,1.6,1.5c0.7,0.4,1.4,0.5,2.3,0.5h12.9v4.2h-13.4c-1.2,0-2.1,0.3-2.8,1
				c-0.7,0.7-1,1.6-1,2.8c0,0.8,0.2,1.6,0.6,2.2s0.9,1.2,1.6,1.5c0.7,0.4,1.5,0.5,2.4,0.5h12.7v4.3H1926.3z"/>
			<path class="st11" d="M1926.3,1637.8v-4.3h3.2v-0.1c-1.1-0.4-1.9-1.2-2.6-2.2c-0.7-1-1-2.2-1-3.5c0-0.9,0.2-1.8,0.5-2.5
				s0.8-1.4,1.4-2s1.3-0.9,2.2-1.2v-0.1c-0.8-0.4-1.6-0.8-2.2-1.5c-0.6-0.6-1.1-1.4-1.4-2.2s-0.5-1.7-0.5-2.7c0-1.4,0.3-2.5,0.8-3.5
				c0.6-1,1.4-1.8,2.4-2.3c1-0.6,2.2-0.8,3.6-0.8h14.1v4.3h-13.1c-1.3,0-2.4,0.3-3.1,1c-0.7,0.7-1.1,1.6-1.1,2.9
				c0,0.8,0.2,1.6,0.6,2.2c0.4,0.6,0.9,1.1,1.6,1.5c0.7,0.4,1.4,0.5,2.3,0.5h12.9v4.2h-13.4c-1.2,0-2.1,0.3-2.8,1
				c-0.7,0.7-1,1.6-1,2.8c0,0.8,0.2,1.6,0.6,2.2s0.9,1.2,1.6,1.5c0.7,0.4,1.5,0.5,2.4,0.5h12.7v4.3H1926.3z"/>
		</g>
	</g>
</g>
<g>
	<g>
		<g>
			<line class="st10" x1="1892.9" y1="1219" x2="1892.9" y2="1286.7"/>
			<g>
				<rect x="1876.7" y="1216.5" class="st11" width="32.5" height="5"/>
			</g>
			<g>
				<rect x="1876.7" y="1284.2" class="st11" width="32.5" height="5"/>
			</g>
		</g>
	</g>
	<g>
		<g>
			<path class="st11" d="M1946.6,1302.2c-0.5,1.3-1.4,2.5-2.5,3.6c-1.1,1-2.6,1.9-4.4,2.5c-1.8,0.6-4,0.9-6.5,0.9h0
				c-3.1,0-5.8-0.4-8.1-1.3c-2.2-0.9-3.9-2.2-5.1-3.9c-1.2-1.7-1.8-3.7-1.8-6c0-1.7,0.3-3.2,0.9-4.5s1.4-2.5,2.5-3.4
				s2.3-1.5,3.7-1.8l0.2,0v4.4l-0.2,0.1c-0.7,0.2-1.3,0.6-1.8,1.1c-0.5,0.5-0.9,1.1-1.2,1.8s-0.4,1.5-0.4,2.4c0,1.6,0.5,2.9,1.4,3.9
				c0.9,1,2.2,1.8,3.7,2.2s3.3,0.8,5.1,0.8c0.1,0,0.3,0,0.4,0s0.3,0,0.5,0l4.6-0.8c1.1,0,2.1-0.3,3-0.8s1.6-1.2,2.1-2.1
				c0.5-0.9,0.8-1.9,0.8-3c0-1.1-0.3-2.1-0.8-3c-0.5-0.9-1.2-1.6-2.1-2.2c-0.9-0.5-1.9-0.8-3-0.8h0c-1.1,0-2.1,0.3-3,0.8
				s-1.6,1.2-2.1,2.1s-0.8,1.9-0.8,3s0.2,2.2,0.7,3.1s1.2,1.6,2,2.2s1.9,0.8,3,0.8h0v1.2h-4.8v-0.4c-0.8-0.4-1.6-0.9-2.3-1.7
				s-1.2-1.6-1.6-2.7c-0.4-1-0.6-2.2-0.6-3.5c0-1.8,0.4-3.4,1.2-4.8c0.8-1.4,1.9-2.5,3.3-3.3s3-1.2,4.8-1.2h0c1.9,0,3.5,0.4,5,1.3
				c1.5,0.9,2.6,2.1,3.4,3.7c0.8,1.6,1.2,3.3,1.2,5.3C1947.4,1299.4,1947.1,1300.8,1946.6,1302.2z"/>
			<path class="st11" d="M1946.3,1278.8c-0.7,1.6-1.6,2.9-2.9,3.8c-1.2,0.9-2.6,1.4-4.2,1.4h0c-1.2,0-2.3-0.3-3.3-0.8
				s-1.8-1.3-2.5-2.2s-1.2-2-1.4-3.2h-0.1c-0.5,1.6-1.2,2.8-2.3,3.8c-1.1,0.9-2.4,1.4-3.9,1.4h0c-1.4,0-2.7-0.4-3.8-1.2
				s-2-2-2.6-3.4c-0.6-1.5-1-3.1-1-5c0-1.9,0.3-3.5,1-5c0.6-1.5,1.5-2.6,2.6-3.4s2.4-1.2,3.8-1.2h0c1.5,0,2.8,0.5,3.9,1.4
				s1.9,2.2,2.3,3.8h0.1c0.3-1.2,0.7-2.3,1.4-3.3c0.7-0.9,1.5-1.7,2.5-2.2s2.1-0.8,3.3-0.8h0c1.6,0,3,0.5,4.2,1.4
				c1.2,0.9,2.2,2.2,2.9,3.8c0.7,1.6,1,3.4,1,5.5C1947.4,1275.3,1947,1277.2,1946.3,1278.8z M1929.9,1270.5
				c-0.4-0.8-0.9-1.4-1.5-1.9s-1.4-0.7-2.3-0.7h0c-0.9,0-1.6,0.2-2.3,0.7s-1.2,1.1-1.5,1.9c-0.4,0.8-0.6,1.7-0.6,2.7
				c0,1,0.2,2,0.6,2.8c0.4,0.8,0.9,1.4,1.5,1.9s1.4,0.7,2.3,0.7h0c0.8,0,1.6-0.2,2.3-0.7s1.2-1.1,1.5-1.9c0.4-0.8,0.6-1.7,0.6-2.8
				C1930.5,1272.2,1930.3,1271.3,1929.9,1270.5z M1943.2,1270.1c-0.4-0.9-1-1.6-1.7-2.2s-1.6-0.8-2.5-0.8h0c-1,0-1.8,0.3-2.5,0.8
				c-0.7,0.5-1.3,1.2-1.7,2.2c-0.4,0.9-0.6,2-0.6,3.2c0,1.2,0.2,2.3,0.6,3.2c0.4,0.9,1,1.6,1.7,2.2c0.7,0.5,1.6,0.8,2.5,0.8h0
				c1,0,1.8-0.3,2.5-0.8s1.3-1.3,1.7-2.2c0.4-0.9,0.6-2,0.6-3.2C1943.8,1272,1943.6,1271,1943.2,1270.1z"/>
			<path class="st11" d="M1926.3,1258.8v-4.3h3.2v-0.1c-1.1-0.4-1.9-1.2-2.6-2.2c-0.7-1-1-2.2-1-3.5c0-0.9,0.2-1.8,0.5-2.5
				s0.8-1.4,1.4-2s1.3-0.9,2.2-1.2v-0.1c-0.8-0.4-1.6-0.8-2.2-1.5c-0.6-0.6-1.1-1.4-1.4-2.2s-0.5-1.7-0.5-2.7c0-1.4,0.3-2.5,0.8-3.5
				c0.6-1,1.4-1.8,2.4-2.3c1-0.6,2.2-0.8,3.6-0.8h14.1v4.3h-13.1c-1.3,0-2.4,0.3-3.1,1c-0.7,0.7-1.1,1.6-1.1,2.9
				c0,0.8,0.2,1.6,0.6,2.2c0.4,0.6,0.9,1.1,1.6,1.5c0.7,0.4,1.4,0.5,2.3,0.5h12.9v4.2h-13.4c-1.2,0-2.1,0.3-2.8,1
				c-0.7,0.7-1,1.6-1,2.8c0,0.8,0.2,1.6,0.6,2.2s0.9,1.2,1.6,1.5c0.7,0.4,1.5,0.5,2.4,0.5h12.7v4.3H1926.3z"/>
			<path class="st11" d="M1926.3,1225.8v-4.3h3.2v-0.1c-1.1-0.4-1.9-1.2-2.6-2.2c-0.7-1-1-2.2-1-3.5c0-0.9,0.2-1.8,0.5-2.5
				s0.8-1.4,1.4-2s1.3-0.9,2.2-1.2v-0.1c-0.8-0.4-1.6-0.8-2.2-1.5c-0.6-0.6-1.1-1.4-1.4-2.2s-0.5-1.7-0.5-2.7c0-1.4,0.3-2.5,0.8-3.5
				c0.6-1,1.4-1.8,2.4-2.3c1-0.6,2.2-0.8,3.6-0.8h14.1v4.3h-13.1c-1.3,0-2.4,0.3-3.1,1c-0.7,0.7-1.1,1.6-1.1,2.9
				c0,0.8,0.2,1.6,0.6,2.2c0.4,0.6,0.9,1.1,1.6,1.5c0.7,0.4,1.4,0.5,2.3,0.5h12.9v4.2h-13.4c-1.2,0-2.1,0.3-2.8,1
				c-0.7,0.7-1,1.6-1,2.8c0,0.8,0.2,1.6,0.6,2.2s0.9,1.2,1.6,1.5c0.7,0.4,1.5,0.5,2.4,0.5h12.7v4.3H1926.3z"/>
		</g>
	</g>
</g>
<g>
	<g>
		<g>
			<line class="st10" x1="1892.9" y1="1287.2" x2="1892.9" y2="1642"/>
			<g>
				<rect x="1876.7" y="1284.7" class="st11" width="32.5" height="5"/>
			</g>
			<g>
				<rect x="1876.7" y="1639.5" class="st11" width="32.5" height="5"/>
			</g>
		</g>
	</g>
	<g>
		<g>
			<path class="st11" d="M1946.4,1527.6c-0.7,1.5-1.6,2.7-2.8,3.6c-1.2,0.9-2.6,1.4-4.1,1.5l-0.2,0v-4.2l0.2,0
				c1.2-0.1,2.3-0.7,3.1-1.8c0.8-1.1,1.2-2.5,1.2-4.3c0-1.1-0.2-2.2-0.6-3c-0.4-0.9-0.9-1.5-1.7-2c-0.7-0.5-1.5-0.7-2.4-0.7h0
				c-1.6,0-2.8,0.5-3.7,1.6c-0.9,1.1-1.3,2.6-1.3,4.4v3.4h-3.4v-3.3c0-1.1-0.2-2-0.6-2.8c-0.4-0.8-0.9-1.4-1.6-1.9s-1.5-0.7-2.3-0.7
				h0c-0.9,0-1.7,0.2-2.3,0.6c-0.6,0.4-1.1,1-1.5,1.7c-0.3,0.8-0.5,1.7-0.5,2.7c0,1,0.2,2,0.5,2.8c0.3,0.8,0.8,1.5,1.5,1.9
				c0.6,0.5,1.4,0.8,2.3,0.9l0.2,0v4.1l-0.2,0c-1.6-0.2-2.9-0.7-4.1-1.5s-2.1-2-2.7-3.4c-0.6-1.4-1-3-1-4.9c0-1.9,0.3-3.5,0.9-4.9
				c0.6-1.4,1.5-2.5,2.6-3.2c1.1-0.8,2.4-1.2,3.8-1.2h0c1.2,0,2.2,0.3,3.1,0.8c0.9,0.5,1.6,1.2,2.2,2.1c0.6,0.9,1,1.9,1.2,3.1h0.1
				c0.2-2.1,0.9-3.7,2.1-5c1.2-1.3,2.8-1.9,4.8-1.9h0c1.6,0,3,0.4,4.3,1.3c1.2,0.9,2.2,2.1,2.9,3.6c0.7,1.5,1.1,3.3,1.1,5.3
				C1947.4,1524.4,1947,1526.1,1946.4,1527.6z"/>
			<path class="st11" d="M1946.6,1501.6c-0.5,1.3-1.4,2.5-2.5,3.6c-1.1,1-2.6,1.9-4.4,2.5c-1.8,0.6-4,0.9-6.5,0.9h0
				c-3.1,0-5.8-0.4-8.1-1.3c-2.2-0.9-3.9-2.2-5.1-3.9c-1.2-1.7-1.8-3.7-1.8-6c0-1.7,0.3-3.2,0.9-4.5s1.4-2.5,2.5-3.4
				s2.3-1.5,3.7-1.8l0.2,0v4.4l-0.2,0.1c-0.7,0.2-1.3,0.6-1.8,1.1c-0.5,0.5-0.9,1.1-1.2,1.8s-0.4,1.5-0.4,2.4c0,1.6,0.5,2.9,1.4,3.9
				c0.9,1,2.2,1.8,3.7,2.2s3.3,0.8,5.1,0.8c0.1,0,0.3,0,0.4,0s0.3,0,0.5,0l4.6-0.8c1.1,0,2.1-0.3,3-0.8s1.6-1.2,2.1-2.1
				c0.5-0.9,0.8-1.9,0.8-3c0-1.1-0.3-2.1-0.8-3c-0.5-0.9-1.2-1.6-2.1-2.2c-0.9-0.5-1.9-0.8-3-0.8h0c-1.1,0-2.1,0.3-3,0.8
				s-1.6,1.2-2.1,2.1s-0.8,1.9-0.8,3s0.2,2.2,0.7,3.1s1.2,1.6,2,2.2s1.9,0.8,3,0.8h0v1.2h-4.8v-0.4c-0.8-0.4-1.6-0.9-2.3-1.7
				s-1.2-1.6-1.6-2.7c-0.4-1-0.6-2.2-0.6-3.5c0-1.8,0.4-3.4,1.2-4.8c0.8-1.4,1.9-2.5,3.3-3.3s3-1.2,4.8-1.2h0c1.9,0,3.5,0.4,5,1.3
				c1.5,0.9,2.6,2.1,3.4,3.7c0.8,1.6,1.2,3.3,1.2,5.3C1947.4,1498.8,1947.1,1500.2,1946.6,1501.6z"/>
			<path class="st11" d="M1946.4,1478.2c-0.7,1.5-1.6,2.7-2.8,3.6c-1.2,0.9-2.6,1.4-4.1,1.5l-0.2,0v-4.2l0.2,0
				c1.2-0.1,2.3-0.7,3.1-1.8c0.8-1.1,1.2-2.5,1.2-4.3c0-1.1-0.2-2.2-0.6-3c-0.4-0.9-0.9-1.5-1.7-2c-0.7-0.5-1.5-0.7-2.4-0.7h0
				c-1.6,0-2.8,0.5-3.7,1.6c-0.9,1.1-1.3,2.6-1.3,4.4v3.4h-3.4v-3.3c0-1.1-0.2-2-0.6-2.8c-0.4-0.8-0.9-1.4-1.6-1.9s-1.5-0.7-2.3-0.7
				h0c-0.9,0-1.7,0.2-2.3,0.6c-0.6,0.4-1.1,1-1.5,1.7c-0.3,0.8-0.5,1.7-0.5,2.7c0,1,0.2,2,0.5,2.8c0.3,0.8,0.8,1.5,1.5,1.9
				c0.6,0.5,1.4,0.8,2.3,0.9l0.2,0v4.1l-0.2,0c-1.6-0.2-2.9-0.7-4.1-1.5s-2.1-2-2.7-3.4c-0.6-1.4-1-3-1-4.9c0-1.9,0.3-3.5,0.9-4.9
				c0.6-1.4,1.5-2.5,2.6-3.2c1.1-0.8,2.4-1.2,3.8-1.2h0c1.2,0,2.2,0.3,3.1,0.8c0.9,0.5,1.6,1.2,2.2,2.1c0.6,0.9,1,1.9,1.2,3.1h0.1
				c0.2-2.1,0.9-3.7,2.1-5c1.2-1.3,2.8-1.9,4.8-1.9h0c1.6,0,3,0.4,4.3,1.3c1.2,0.9,2.2,2.1,2.9,3.6c0.7,1.5,1.1,3.3,1.1,5.3
				C1947.4,1475,1947,1476.7,1946.4,1478.2z"/>
			<path class="st11" d="M1926.3,1458.7v-4.3h3.2v-0.1c-1.1-0.4-1.9-1.2-2.6-2.2c-0.7-1-1-2.2-1-3.5c0-0.9,0.2-1.8,0.5-2.5
				s0.8-1.4,1.4-2s1.3-0.9,2.2-1.2v-0.1c-0.8-0.4-1.6-0.8-2.2-1.5c-0.6-0.6-1.1-1.4-1.4-2.2s-0.5-1.7-0.5-2.7c0-1.4,0.3-2.5,0.8-3.5
				c0.6-1,1.4-1.8,2.4-2.3c1-0.6,2.2-0.8,3.6-0.8h14.1v4.3h-13.1c-1.3,0-2.4,0.3-3.1,1c-0.7,0.7-1.1,1.6-1.1,2.9
				c0,0.8,0.2,1.6,0.6,2.2c0.4,0.6,0.9,1.1,1.6,1.5c0.7,0.4,1.4,0.5,2.3,0.5h12.9v4.2h-13.4c-1.2,0-2.1,0.3-2.8,1
				c-0.7,0.7-1,1.6-1,2.8c0,0.8,0.2,1.6,0.6,2.2s0.9,1.2,1.6,1.5c0.7,0.4,1.5,0.5,2.4,0.5h12.7v4.3H1926.3z"/>
			<path class="st11" d="M1926.3,1425.7v-4.3h3.2v-0.1c-1.1-0.4-1.9-1.2-2.6-2.2c-0.7-1-1-2.2-1-3.5c0-0.9,0.2-1.8,0.5-2.5
				s0.8-1.4,1.4-2s1.3-0.9,2.2-1.2v-0.1c-0.8-0.4-1.6-0.8-2.2-1.5c-0.6-0.6-1.1-1.4-1.4-2.2s-0.5-1.7-0.5-2.7c0-1.4,0.3-2.5,0.8-3.5
				c0.6-1,1.4-1.8,2.4-2.3c1-0.6,2.2-0.8,3.6-0.8h14.1v4.3h-13.1c-1.3,0-2.4,0.3-3.1,1c-0.7,0.7-1.1,1.6-1.1,2.9
				c0,0.8,0.2,1.6,0.6,2.2c0.4,0.6,0.9,1.1,1.6,1.5c0.7,0.4,1.4,0.5,2.3,0.5h12.9v4.2h-13.4c-1.2,0-2.1,0.3-2.8,1
				c-0.7,0.7-1,1.6-1,2.8c0,0.8,0.2,1.6,0.6,2.2s0.9,1.2,1.6,1.5c0.7,0.4,1.5,0.5,2.4,0.5h12.7v4.3H1926.3z"/>
		</g>
	</g>
</g>
<g>
	<line class="st12" x1="320.5" y1="1181.7" x2="151.1" y2="1181.7"/>
	<line class="st12" x1="320.5" y1="1250.2" x2="149.7" y2="1250.2"/>
</g>
<g>
	<line class="st12" x1="320.7" y1="925.3" x2="151.3" y2="925.5"/>
	<line class="st12" x1="320.8" y1="1010.3" x2="150" y2="1010.5"/>
</g>
<g>
	<line class="st12" x1="321" y1="751.6" x2="151.7" y2="751.8"/>
	<line class="st12" x1="321.1" y1="803.6" x2="150.3" y2="803.8"/>
</g>
<g>
	<line class="st12" x1="346" y1="577.1" x2="157.8" y2="577.1"/>
	<line class="st12" x1="333.1" y1="628.9" x2="155.9" y2="628.9"/>
</g>
<g>
	<line class="st12" x1="755" y1="369.1" x2="158.7" y2="369.1"/>
	<line class="st12" x1="448.7" y1="436.7" x2="157.8" y2="436.7"/>
</g>
<g>
	<g>
		<g>
			<line class="st10" x1="289.6" y1="1250.2" x2="289.6" y2="1681.9"/>
			<g>
				<rect x="273.3" y="1247.7" class="st11" width="32.5" height="5"/>
			</g>
			<g>
				<rect x="273.3" y="1679.4" class="st11" width="32.5" height="5"/>
			</g>
		</g>
	</g>
	<g>
		<g>
			<path class="st11" d="M262.9,1521.7v14.1H259c-1.2-0.8-2.5-1.6-3.7-2.4c-1.2-0.8-2.5-1.6-3.8-2.4s-2.5-1.6-3.8-2.4
				c-1.2-0.8-2.5-1.6-3.8-2.4s-2.5-1.6-3.8-2.4v-6.3h18.9v-3.9h3.7v3.9h5.6v4.2H262.9z M259.2,1521.7h-15.5v0.1c1,0.7,2.1,1.3,3.1,2
				c1,0.7,2,1.3,3.1,2c1,0.7,2,1.3,3.1,2c1,0.7,2.1,1.3,3.1,2c1,0.7,2,1.3,3.1,2h0.1V1521.7z"/>
			<path class="st11" d="M267.9,1505.7c-0.7,1.5-1.6,2.7-2.8,3.6c-1.2,0.9-2.6,1.4-4.1,1.5l-0.2,0v-4.2l0.2,0
				c1.2-0.1,2.3-0.7,3.1-1.8c0.8-1.1,1.2-2.5,1.2-4.3c0-1.1-0.2-2.2-0.6-3c-0.4-0.9-0.9-1.5-1.7-2c-0.7-0.5-1.5-0.7-2.4-0.7h0
				c-1.6,0-2.8,0.5-3.7,1.6c-0.9,1.1-1.3,2.6-1.3,4.4v3.4h-3.4v-3.3c0-1.1-0.2-2-0.6-2.8c-0.4-0.8-0.9-1.4-1.6-1.9
				c-0.7-0.4-1.5-0.7-2.3-0.7h0c-0.9,0-1.7,0.2-2.3,0.6c-0.6,0.4-1.1,1-1.5,1.7c-0.3,0.8-0.5,1.7-0.5,2.7c0,1,0.2,2,0.5,2.8
				c0.3,0.8,0.8,1.5,1.5,1.9c0.6,0.5,1.4,0.8,2.3,0.9l0.2,0v4.1l-0.2,0c-1.6-0.2-2.9-0.7-4.1-1.5s-2.1-2-2.7-3.4c-0.6-1.4-1-3-1-4.9
				c0-1.9,0.3-3.5,0.9-4.9c0.6-1.4,1.5-2.5,2.6-3.2c1.1-0.8,2.4-1.2,3.8-1.2h0c1.2,0,2.2,0.3,3.1,0.8c0.9,0.5,1.6,1.2,2.2,2.1
				c0.6,0.9,1,1.9,1.2,3.1h0.1c0.2-2.1,0.9-3.7,2.1-5c1.2-1.3,2.8-1.9,4.8-1.9h0c1.6,0,3,0.4,4.3,1.3c1.2,0.9,2.2,2.1,2.9,3.6
				c0.7,1.5,1.1,3.3,1.1,5.3C268.9,1502.5,268.6,1504.2,267.9,1505.7z"/>
			<path class="st11" d="M267.1,1481.6c-1.2,1.6-2.9,2.8-5,3.7c-2.2,0.9-4.8,1.3-7.7,1.3h0c-3,0-5.6-0.4-7.7-1.3
				c-2.2-0.9-3.9-2.1-5-3.7c-1.2-1.6-1.8-3.5-1.8-5.8c0-2.2,0.6-4.2,1.8-5.8c1.2-1.6,2.9-2.8,5-3.7c2.2-0.9,4.8-1.3,7.7-1.3h0
				c3,0,5.6,0.4,7.7,1.3c2.2,0.9,3.9,2.1,5,3.7c1.2,1.6,1.8,3.5,1.8,5.8C268.9,1478,268.3,1480,267.1,1481.6z M263.9,1472.4
				c-0.9-0.9-2.1-1.7-3.8-2.2c-1.6-0.5-3.6-0.8-5.8-0.8h0c-2.3,0-4.2,0.3-5.8,0.8c-1.6,0.5-2.9,1.2-3.7,2.2
				c-0.9,0.9-1.3,2.1-1.3,3.4c0,1.3,0.4,2.5,1.3,3.4c0.9,0.9,2.1,1.7,3.7,2.2c1.6,0.5,3.6,0.7,5.8,0.7h0c2.3,0,4.2-0.2,5.8-0.7
				c1.6-0.5,2.9-1.2,3.8-2.2c0.9-0.9,1.3-2.1,1.3-3.4C265.3,1474.5,264.8,1473.3,263.9,1472.4z"/>
			<path class="st11" d="M247.9,1461.2v-4.3h3.2v-0.1c-1.1-0.4-1.9-1.2-2.6-2.2c-0.7-1-1-2.2-1-3.5c0-0.9,0.2-1.8,0.5-2.5
				s0.8-1.4,1.4-2s1.3-0.9,2.2-1.2v-0.1c-0.8-0.4-1.6-0.8-2.2-1.5c-0.6-0.6-1.1-1.4-1.4-2.2c-0.3-0.8-0.5-1.7-0.5-2.7
				c0-1.4,0.3-2.5,0.8-3.5c0.6-1,1.4-1.8,2.4-2.3c1-0.6,2.2-0.8,3.6-0.8h14.1v4.3h-13.1c-1.3,0-2.4,0.3-3.1,1
				c-0.7,0.7-1.1,1.6-1.1,2.9c0,0.8,0.2,1.6,0.6,2.2c0.4,0.6,0.9,1.1,1.6,1.5c0.7,0.4,1.4,0.5,2.3,0.5h12.9v4.2H255
				c-1.2,0-2.1,0.3-2.8,1c-0.7,0.7-1,1.6-1,2.8c0,0.8,0.2,1.6,0.6,2.2c0.4,0.6,0.9,1.2,1.6,1.5c0.7,0.4,1.5,0.5,2.4,0.5h12.7v4.3
				H247.9z"/>
			<path class="st11" d="M247.9,1428.2v-4.3h3.2v-0.1c-1.1-0.4-1.9-1.2-2.6-2.2c-0.7-1-1-2.2-1-3.5c0-0.9,0.2-1.8,0.5-2.5
				s0.8-1.4,1.4-2s1.3-0.9,2.2-1.2v-0.1c-0.8-0.4-1.6-0.8-2.2-1.5c-0.6-0.6-1.1-1.4-1.4-2.2c-0.3-0.8-0.5-1.7-0.5-2.7
				c0-1.4,0.3-2.5,0.8-3.5c0.6-1,1.4-1.8,2.4-2.3c1-0.6,2.2-0.8,3.6-0.8h14.1v4.3h-13.1c-1.3,0-2.4,0.3-3.1,1
				c-0.7,0.7-1.1,1.6-1.1,2.9c0,0.8,0.2,1.6,0.6,2.2c0.4,0.6,0.9,1.1,1.6,1.5c0.7,0.4,1.4,0.5,2.3,0.5h12.9v4.2H255
				c-1.2,0-2.1,0.3-2.8,1c-0.7,0.7-1,1.6-1,2.8c0,0.8,0.2,1.6,0.6,2.2c0.4,0.6,0.9,1.2,1.6,1.5c0.7,0.4,1.5,0.5,2.4,0.5h12.7v4.3
				H247.9z"/>
		</g>
	</g>
</g>
<g>
	<g>
		<g>
			<line class="st10" x1="289.6" y1="1010.4" x2="289.6" y2="1181.3"/>
			<g>
				<rect x="273.3" y="1007.9" class="st11" width="32.5" height="5"/>
			</g>
			<g>
				<rect x="273.3" y="1178.8" class="st11" width="32.5" height="5"/>
			</g>
		</g>
	</g>
	<g>
		<g>
			<path class="st11" d="M244.6,1153.3L244.6,1153.3l5.1,7.5h-4.2l-5.3-7.4v-4.3h28.2v4.3H244.6z"/>
			<path class="st11" d="M267.9,1137.6c-0.7,1.5-1.6,2.7-2.8,3.6c-1.2,0.9-2.6,1.4-4.1,1.5l-0.2,0v-4.2l0.2,0
				c1.2-0.1,2.3-0.7,3.1-1.8c0.8-1.1,1.2-2.5,1.2-4.3c0-1.1-0.2-2.2-0.6-3c-0.4-0.9-0.9-1.5-1.7-2c-0.7-0.5-1.5-0.7-2.4-0.7h0
				c-1.6,0-2.8,0.5-3.7,1.6c-0.9,1.1-1.3,2.6-1.3,4.4v3.4h-3.4v-3.3c0-1.1-0.2-2-0.6-2.8c-0.4-0.8-0.9-1.4-1.6-1.9
				c-0.7-0.4-1.5-0.7-2.3-0.7h0c-0.9,0-1.7,0.2-2.3,0.6c-0.6,0.4-1.1,1-1.5,1.7c-0.3,0.8-0.5,1.7-0.5,2.7c0,1,0.2,2,0.5,2.8
				c0.3,0.8,0.8,1.5,1.5,1.9c0.6,0.5,1.4,0.8,2.3,0.9l0.2,0v4.1l-0.2,0c-1.6-0.2-2.9-0.7-4.1-1.5s-2.1-2-2.7-3.4c-0.6-1.4-1-3-1-4.9
				c0-1.9,0.3-3.5,0.9-4.9c0.6-1.4,1.5-2.5,2.6-3.2c1.1-0.8,2.4-1.2,3.8-1.2h0c1.2,0,2.2,0.3,3.1,0.8c0.9,0.5,1.6,1.2,2.2,2.1
				c0.6,0.9,1,1.9,1.2,3.1h0.1c0.2-2.1,0.9-3.7,2.1-5c1.2-1.3,2.8-1.9,4.8-1.9h0c1.6,0,3,0.4,4.3,1.3c1.2,0.9,2.2,2.1,2.9,3.6
				c0.7,1.5,1.1,3.3,1.1,5.3C268.9,1134.3,268.6,1136.1,267.9,1137.6z"/>
			<path class="st11" d="M267.1,1113.4c-1.2,1.6-2.9,2.8-5,3.7c-2.2,0.9-4.8,1.3-7.7,1.3h0c-3,0-5.6-0.4-7.7-1.3
				c-2.2-0.9-3.9-2.1-5-3.7c-1.2-1.6-1.8-3.5-1.8-5.8c0-2.2,0.6-4.2,1.8-5.8c1.2-1.6,2.9-2.8,5-3.7c2.2-0.9,4.8-1.3,7.7-1.3h0
				c3,0,5.6,0.4,7.7,1.3c2.2,0.9,3.9,2.1,5,3.7c1.2,1.6,1.8,3.5,1.8,5.8C268.9,1109.9,268.3,1111.8,267.1,1113.4z M263.9,1104.2
				c-0.9-0.9-2.1-1.7-3.8-2.2c-1.6-0.5-3.6-0.8-5.8-0.8h0c-2.3,0-4.2,0.3-5.8,0.8c-1.6,0.5-2.9,1.2-3.7,2.2
				c-0.9,0.9-1.3,2.1-1.3,3.4c0,1.3,0.4,2.5,1.3,3.4c0.9,0.9,2.1,1.7,3.7,2.2c1.6,0.5,3.6,0.7,5.8,0.7h0c2.3,0,4.2-0.2,5.8-0.7
				c1.6-0.5,2.9-1.2,3.8-2.2c0.9-0.9,1.3-2.1,1.3-3.4C265.3,1106.3,264.8,1105.1,263.9,1104.2z"/>
			<path class="st11" d="M247.9,1093.1v-4.3h3.2v-0.1c-1.1-0.4-1.9-1.2-2.6-2.2c-0.7-1-1-2.2-1-3.5c0-0.9,0.2-1.8,0.5-2.5
				s0.8-1.4,1.4-2s1.3-1,2.2-1.2v-0.1c-0.8-0.4-1.6-0.8-2.2-1.5c-0.6-0.6-1.1-1.4-1.4-2.2c-0.3-0.8-0.5-1.7-0.5-2.7
				c0-1.4,0.3-2.5,0.8-3.5c0.6-1,1.4-1.8,2.4-2.3c1-0.6,2.2-0.8,3.6-0.8h14.1v4.3h-13.1c-1.3,0-2.4,0.3-3.1,1
				c-0.7,0.7-1.1,1.6-1.1,2.9c0,0.8,0.2,1.6,0.6,2.2c0.4,0.6,0.9,1.1,1.6,1.5c0.7,0.4,1.4,0.5,2.3,0.5h12.9v4.2H255
				c-1.2,0-2.1,0.3-2.8,1c-0.7,0.7-1,1.6-1,2.8c0,0.8,0.2,1.6,0.6,2.2c0.4,0.6,0.9,1.1,1.6,1.5c0.7,0.4,1.5,0.5,2.4,0.5h12.7v4.3
				H247.9z"/>
			<path class="st11" d="M247.9,1060.1v-4.3h3.2v-0.1c-1.1-0.4-1.9-1.2-2.6-2.2c-0.7-1-1-2.2-1-3.5c0-0.9,0.2-1.8,0.5-2.5
				s0.8-1.4,1.4-2s1.3-1,2.2-1.2v-0.1c-0.8-0.4-1.6-0.8-2.2-1.5c-0.6-0.6-1.1-1.4-1.4-2.2c-0.3-0.8-0.5-1.7-0.5-2.7
				c0-1.4,0.3-2.5,0.8-3.5c0.6-1,1.4-1.8,2.4-2.3c1-0.6,2.2-0.8,3.6-0.8h14.1v4.3h-13.1c-1.3,0-2.4,0.3-3.1,1
				c-0.7,0.7-1.1,1.6-1.1,2.9c0,0.8,0.2,1.6,0.6,2.2c0.4,0.6,0.9,1.1,1.6,1.5c0.7,0.4,1.4,0.5,2.3,0.5h12.9v4.2H255
				c-1.2,0-2.1,0.3-2.8,1c-0.7,0.7-1,1.6-1,2.8c0,0.8,0.2,1.6,0.6,2.2c0.4,0.6,0.9,1.1,1.6,1.5c0.7,0.4,1.5,0.5,2.4,0.5h12.7v4.3
				H247.9z"/>
		</g>
	</g>
</g>
<g>
	<g>
		<g>
			<line class="st10" x1="289.6" y1="803.9" x2="289.6" y2="925.2"/>
			<g>
				<rect x="273.3" y="801.4" class="st11" width="32.5" height="5"/>
			</g>
			<g>
				<rect x="273.3" y="922.7" class="st11" width="32.5" height="5"/>
			</g>
		</g>
	</g>
	<g>
		<g>
			<path class="st11" d="M244.6,921.8L244.6,921.8l5.1,7.5h-4.2l-5.3-7.4v-4.3h28.2v4.3H244.6z"/>
			<path class="st11" d="M267.1,906.2c-1.2,1.6-2.9,2.8-5,3.7c-2.2,0.9-4.8,1.3-7.7,1.3h0c-3,0-5.6-0.4-7.7-1.3
				c-2.2-0.9-3.9-2.1-5-3.7c-1.2-1.6-1.8-3.5-1.8-5.8c0-2.2,0.6-4.2,1.8-5.8c1.2-1.6,2.9-2.8,5-3.7c2.2-0.9,4.8-1.3,7.7-1.3h0
				c3,0,5.6,0.4,7.7,1.3c2.2,0.9,3.9,2.1,5,3.7c1.2,1.6,1.8,3.5,1.8,5.8C268.9,902.6,268.3,904.6,267.1,906.2z M263.9,897
				c-0.9-0.9-2.1-1.7-3.8-2.2c-1.6-0.5-3.6-0.8-5.8-0.8h0c-2.3,0-4.2,0.3-5.8,0.8c-1.6,0.5-2.9,1.2-3.7,2.2
				c-0.9,0.9-1.3,2.1-1.3,3.4c0,1.3,0.4,2.5,1.3,3.4c0.9,0.9,2.1,1.7,3.7,2.2c1.6,0.5,3.6,0.7,5.8,0.7h0c2.3,0,4.2-0.2,5.8-0.7
				c1.6-0.5,2.9-1.2,3.8-2.2c0.9-0.9,1.3-2.1,1.3-3.4C265.3,899,264.8,897.9,263.9,897z"/>
			<path class="st11" d="M267.9,880.6c-0.7,1.5-1.7,2.6-2.9,3.5c-1.2,0.9-2.6,1.4-4.1,1.5l-0.2,0v-4.2l0.1,0c0.8-0.1,1.6-0.5,2.3-1
				s1.2-1.2,1.6-2c0.4-0.8,0.6-1.8,0.6-2.8c0-1.2-0.3-2.2-0.8-3.1c-0.5-0.9-1.2-1.6-2.1-2.1s-1.9-0.8-3.1-0.8h0
				c-1.1,0-2.2,0.3-3,0.8c-0.9,0.5-1.6,1.2-2.1,2.1s-0.8,1.9-0.8,3.1c0,0.9,0.1,1.7,0.4,2.4s0.6,1.4,1.1,2c0.2,0.2,0.5,0.5,0.7,0.7
				c0.3,0.2,0.6,0.4,0.9,0.6v3.8l-16.2-1.4v-16.8h3.7v13.3l8.9,0.9v-0.1c-1-0.6-1.7-1.5-2.2-2.6c-0.5-1.1-0.8-2.4-0.8-3.8
				c0-1.8,0.4-3.4,1.2-4.8c0.8-1.4,1.9-2.5,3.3-3.3c1.4-0.8,3-1.2,4.8-1.2h0c1.9,0,3.6,0.4,5,1.3c1.5,0.9,2.6,2.1,3.4,3.7
				c0.8,1.6,1.2,3.3,1.2,5.4C268.9,877.5,268.6,879.2,267.9,880.6z"/>
			<path class="st11" d="M247.9,861.8v-4.3h3.2v-0.1c-1.1-0.4-1.9-1.2-2.6-2.2c-0.7-1-1-2.2-1-3.5c0-0.9,0.2-1.8,0.5-2.5
				s0.8-1.4,1.4-2s1.3-1,2.2-1.2V846c-0.8-0.4-1.6-0.8-2.2-1.5c-0.6-0.6-1.1-1.4-1.4-2.2c-0.3-0.8-0.5-1.7-0.5-2.7
				c0-1.4,0.3-2.5,0.8-3.5c0.6-1,1.4-1.8,2.4-2.3c1-0.6,2.2-0.8,3.6-0.8h14.1v4.3h-13.1c-1.3,0-2.4,0.3-3.1,1
				c-0.7,0.7-1.1,1.6-1.1,2.9c0,0.8,0.2,1.6,0.6,2.2c0.4,0.6,0.9,1.1,1.6,1.5c0.7,0.4,1.4,0.5,2.3,0.5h12.9v4.2H255
				c-1.2,0-2.1,0.3-2.8,1c-0.7,0.7-1,1.6-1,2.8c0,0.8,0.2,1.6,0.6,2.2c0.4,0.6,0.9,1.1,1.6,1.5c0.7,0.4,1.5,0.5,2.4,0.5h12.7v4.3
				H247.9z"/>
			<path class="st11" d="M247.9,828.8v-4.3h3.2v-0.1c-1.1-0.4-1.9-1.2-2.6-2.2c-0.7-1-1-2.2-1-3.5c0-0.9,0.2-1.8,0.5-2.5
				s0.8-1.4,1.4-2s1.3-1,2.2-1.2V813c-0.8-0.4-1.6-0.8-2.2-1.5c-0.6-0.6-1.1-1.4-1.4-2.2c-0.3-0.8-0.5-1.7-0.5-2.7
				c0-1.4,0.3-2.5,0.8-3.5c0.6-1,1.4-1.8,2.4-2.3c1-0.6,2.2-0.8,3.6-0.8h14.1v4.3h-13.1c-1.3,0-2.4,0.3-3.1,1
				c-0.7,0.7-1.1,1.6-1.1,2.9c0,0.8,0.2,1.6,0.6,2.2c0.4,0.6,0.9,1.1,1.6,1.5c0.7,0.4,1.4,0.5,2.3,0.5h12.9v4.2H255
				c-1.2,0-2.1,0.3-2.8,1c-0.7,0.7-1,1.6-1,2.8c0,0.8,0.2,1.6,0.6,2.2c0.4,0.6,0.9,1.1,1.6,1.5c0.7,0.4,1.5,0.5,2.4,0.5h12.7v4.3
				H247.9z"/>
		</g>
	</g>
</g>
<g>
	<g>
		<g>
			<line class="st10" x1="289.6" y1="629.1" x2="289.6" y2="751.5"/>
			<g>
				<rect x="273.3" y="626.6" class="st11" width="32.5" height="5"/>
			</g>
			<g>
				<rect x="273.3" y="749" class="st11" width="32.5" height="5"/>
			</g>
		</g>
	</g>
	<g>
		<g>
			<path class="st11" d="M244.6,748.2L244.6,748.2l5.1,7.5h-4.2l-5.3-7.4v-4.3h28.2v4.3H244.6z"/>
			<path class="st11" d="M267.1,732.5c-1.2,1.6-2.9,2.8-5,3.7c-2.2,0.9-4.8,1.3-7.7,1.3h0c-3,0-5.6-0.4-7.7-1.3
				c-2.2-0.9-3.9-2.1-5-3.7c-1.2-1.6-1.8-3.5-1.8-5.8c0-2.2,0.6-4.2,1.8-5.8c1.2-1.6,2.9-2.8,5-3.7c2.2-0.9,4.8-1.3,7.7-1.3h0
				c3,0,5.6,0.4,7.7,1.3c2.2,0.9,3.9,2.1,5,3.7c1.2,1.6,1.8,3.5,1.8,5.8C268.9,729,268.3,730.9,267.1,732.5z M263.9,723.3
				c-0.9-0.9-2.1-1.7-3.8-2.2c-1.6-0.5-3.6-0.8-5.8-0.8h0c-2.3,0-4.2,0.3-5.8,0.8c-1.6,0.5-2.9,1.2-3.7,2.2
				c-0.9,0.9-1.3,2.1-1.3,3.4c0,1.3,0.4,2.5,1.3,3.4c0.9,0.9,2.1,1.7,3.7,2.2c1.6,0.5,3.6,0.7,5.8,0.7h0c2.3,0,4.2-0.2,5.8-0.7
				c1.6-0.5,2.9-1.2,3.8-2.2c0.9-0.9,1.3-2.1,1.3-3.4C265.3,725.4,264.8,724.2,263.9,723.3z"/>
			<path class="st11" d="M267.9,706.9c-0.7,1.5-1.7,2.6-2.9,3.5c-1.2,0.9-2.6,1.4-4.1,1.5l-0.2,0v-4.2l0.1,0c0.8-0.1,1.6-0.5,2.3-1
				s1.2-1.2,1.6-2c0.4-0.8,0.6-1.8,0.6-2.8c0-1.2-0.3-2.2-0.8-3.1c-0.5-0.9-1.2-1.6-2.1-2.1s-1.9-0.8-3.1-0.8h0
				c-1.1,0-2.2,0.3-3,0.8c-0.9,0.5-1.6,1.2-2.1,2.1s-0.8,1.9-0.8,3.1c0,0.9,0.1,1.7,0.4,2.4s0.6,1.4,1.1,2c0.2,0.2,0.5,0.5,0.7,0.7
				c0.3,0.2,0.6,0.4,0.9,0.6v3.8l-16.2-1.4v-16.8h3.7v13.3l8.9,0.9v-0.1c-1-0.6-1.7-1.5-2.2-2.6c-0.5-1.1-0.8-2.4-0.8-3.8
				c0-1.8,0.4-3.4,1.2-4.8c0.8-1.4,1.9-2.5,3.3-3.3c1.4-0.8,3-1.2,4.8-1.2h0c1.9,0,3.6,0.4,5,1.3c1.5,0.9,2.6,2.1,3.4,3.7
				c0.8,1.6,1.2,3.3,1.2,5.4C268.9,703.8,268.6,705.5,267.9,706.9z"/>
			<path class="st11" d="M247.9,688.2v-4.3h3.2v-0.1c-1.1-0.4-1.9-1.2-2.6-2.2c-0.7-1-1-2.2-1-3.5c0-0.9,0.2-1.8,0.5-2.5
				s0.8-1.4,1.4-2s1.3-1,2.2-1.2v-0.1c-0.8-0.4-1.6-0.8-2.2-1.5c-0.6-0.6-1.1-1.4-1.4-2.2c-0.3-0.8-0.5-1.7-0.5-2.7
				c0-1.4,0.3-2.5,0.8-3.5c0.6-1,1.4-1.8,2.4-2.3c1-0.6,2.2-0.8,3.6-0.8h14.1v4.3h-13.1c-1.3,0-2.4,0.3-3.1,1
				c-0.7,0.7-1.1,1.6-1.1,2.9c0,0.8,0.2,1.6,0.6,2.2c0.4,0.6,0.9,1.1,1.6,1.5c0.7,0.4,1.4,0.5,2.3,0.5h12.9v4.2H255
				c-1.2,0-2.1,0.3-2.8,1c-0.7,0.7-1,1.6-1,2.8c0,0.8,0.2,1.6,0.6,2.2c0.4,0.6,0.9,1.1,1.6,1.5c0.7,0.4,1.5,0.5,2.4,0.5h12.7v4.3
				H247.9z"/>
			<path class="st11" d="M247.9,655.2v-4.3h3.2v-0.1c-1.1-0.4-1.9-1.2-2.6-2.2c-0.7-1-1-2.2-1-3.5c0-0.9,0.2-1.8,0.5-2.5
				s0.8-1.4,1.4-2s1.3-1,2.2-1.2v-0.1c-0.8-0.4-1.6-0.8-2.2-1.5c-0.6-0.6-1.1-1.4-1.4-2.2c-0.3-0.8-0.5-1.7-0.5-2.7
				c0-1.4,0.3-2.5,0.8-3.5c0.6-1,1.4-1.8,2.4-2.3c1-0.6,2.2-0.8,3.6-0.8h14.1v4.3h-13.1c-1.3,0-2.4,0.3-3.1,1
				c-0.7,0.7-1.1,1.6-1.1,2.9c0,0.8,0.2,1.6,0.6,2.2c0.4,0.6,0.9,1.1,1.6,1.5c0.7,0.4,1.4,0.5,2.3,0.5h12.9v4.2H255
				c-1.2,0-2.1,0.3-2.8,1c-0.7,0.7-1,1.6-1,2.8c0,0.8,0.2,1.6,0.6,2.2c0.4,0.6,0.9,1.1,1.6,1.5c0.7,0.4,1.5,0.5,2.4,0.5h12.7v4.3
				H247.9z"/>
		</g>
	</g>
</g>
<g>
	<g>
		<g>
			<line class="st10" x1="289.6" y1="454.7" x2="289.6" y2="577.1"/>
			<g>
				<rect x="273.3" y="452.2" class="st11" width="32.5" height="5"/>
			</g>
			<g>
				<rect x="273.3" y="574.6" class="st11" width="32.5" height="5"/>
			</g>
		</g>
	</g>
	<g>
		<g>
			<path class="st11" d="M244.6,560.8L244.6,560.8l5.1,7.5h-4.2l-5.3-7.4v-4.3h28.2v4.3H244.6z"/>
			<path class="st11" d="M265.5,549.7l-10-9.9c-1.3-1.3-2.3-2.2-3.1-2.9c-0.8-0.7-1.6-1.1-2.2-1.3c-0.7-0.2-1.4-0.4-2.1-0.4h0
				c-0.9,0-1.7,0.2-2.4,0.6c-0.7,0.4-1.2,1-1.6,1.7c-0.4,0.7-0.6,1.6-0.6,2.5c0,1.1,0.2,2.1,0.7,2.9c0.5,0.9,1.1,1.5,1.8,2
				c0.8,0.5,1.6,0.7,2.6,0.7l0.1,0v4.1h-0.1c-1.7,0-3.2-0.4-4.5-1.3c-1.3-0.9-2.3-2-3.1-3.5c-0.7-1.5-1.1-3.1-1.1-5
				c0-1.8,0.3-3.4,1-4.8c0.7-1.4,1.6-2.5,2.8-3.3c1.2-0.8,2.6-1.2,4.1-1.2h0c1.1,0,2.1,0.2,3,0.6c1,0.4,2,1.1,3.2,2
				c1.2,0.9,2.6,2.3,4.3,4l7.7,7.9l-2.8-1.5h2.8l-1.3,1.5v-14.9h3.7v19.3H265.5z"/>
			<path class="st11" d="M247.9,526.6v-4.3h3.2v-0.1c-1.1-0.4-1.9-1.2-2.6-2.2c-0.7-1-1-2.2-1-3.5c0-0.9,0.2-1.8,0.5-2.5
				s0.8-1.4,1.4-2c0.6-0.5,1.3-1,2.2-1.2v-0.1c-0.8-0.4-1.6-0.8-2.2-1.5c-0.6-0.6-1.1-1.4-1.4-2.2c-0.3-0.8-0.5-1.7-0.5-2.7
				c0-1.4,0.3-2.5,0.8-3.5c0.6-1,1.4-1.8,2.4-2.3c1-0.6,2.2-0.8,3.6-0.8h14.1v4.3h-13.1c-1.3,0-2.4,0.3-3.1,1
				c-0.7,0.7-1.1,1.6-1.1,2.9c0,0.8,0.2,1.6,0.6,2.2c0.4,0.6,0.9,1.1,1.6,1.5c0.7,0.4,1.4,0.5,2.3,0.5h12.9v4.2H255
				c-1.2,0-2.1,0.3-2.8,1c-0.7,0.7-1,1.6-1,2.8c0,0.8,0.2,1.6,0.6,2.2c0.4,0.6,0.9,1.1,1.6,1.5c0.7,0.4,1.5,0.5,2.4,0.5h12.7v4.3
				H247.9z"/>
			<path class="st11" d="M247.9,493.6v-4.3h3.2v-0.1c-1.1-0.4-1.9-1.2-2.6-2.2c-0.7-1-1-2.2-1-3.5c0-0.9,0.2-1.8,0.5-2.5
				s0.8-1.4,1.4-2s1.3-1,2.2-1.2v-0.1c-0.8-0.4-1.6-0.8-2.2-1.5c-0.6-0.6-1.1-1.4-1.4-2.2c-0.3-0.8-0.5-1.7-0.5-2.7
				c0-1.4,0.3-2.5,0.8-3.5c0.6-1,1.4-1.8,2.4-2.3c1-0.6,2.2-0.8,3.6-0.8h14.1v4.3h-13.1c-1.3,0-2.4,0.3-3.1,1
				c-0.7,0.7-1.1,1.6-1.1,2.9c0,0.8,0.2,1.6,0.6,2.2c0.4,0.6,0.9,1.1,1.6,1.5c0.7,0.4,1.4,0.5,2.3,0.5h12.9v4.2H255
				c-1.2,0-2.1,0.3-2.8,1c-0.7,0.7-1,1.6-1,2.8c0,0.8,0.2,1.6,0.6,2.2c0.4,0.6,0.9,1.1,1.6,1.5c0.7,0.4,1.5,0.5,2.4,0.5h12.7v4.3
				H247.9z"/>
		</g>
	</g>
</g>
<g>
	<g>
		<path class="st11" d="M144.5,1265.4c-0.5,1.3-1.4,2.5-2.5,3.6c-1.1,1-2.6,1.9-4.4,2.5c-1.8,0.6-4,0.9-6.5,0.9h0
			c-3.1,0-5.8-0.4-8.1-1.3c-2.2-0.9-3.9-2.2-5.1-3.9c-1.2-1.7-1.8-3.7-1.8-6c0-1.7,0.3-3.2,0.9-4.5c0.6-1.3,1.4-2.5,2.5-3.4
			c1.1-0.9,2.3-1.5,3.7-1.8l0.2,0v4.4l-0.2,0.1c-0.7,0.2-1.3,0.6-1.8,1.1c-0.5,0.5-0.9,1.1-1.2,1.8c-0.3,0.7-0.4,1.5-0.4,2.4
			c0,1.6,0.5,2.9,1.4,3.9c0.9,1,2.2,1.8,3.7,2.2s3.3,0.8,5.1,0.8c0.1,0,0.3,0,0.4,0c0.1,0,0.3,0,0.5,0l4.6-0.8c1.1,0,2.1-0.3,3-0.8
			c0.9-0.5,1.6-1.2,2.1-2.1c0.5-0.9,0.8-1.9,0.8-3c0-1.1-0.3-2.1-0.8-3c-0.5-0.9-1.2-1.6-2.1-2.2c-0.9-0.5-1.9-0.8-3-0.8h0
			c-1.1,0-2.1,0.3-3,0.8c-0.9,0.5-1.6,1.2-2.1,2.1c-0.5,0.9-0.8,1.9-0.8,3s0.2,2.2,0.7,3.1c0.5,0.9,1.2,1.6,2,2.2
			c0.9,0.5,1.9,0.8,3,0.8h0v1.2h-4.8v-0.4c-0.8-0.4-1.6-0.9-2.3-1.7c-0.7-0.7-1.2-1.6-1.6-2.7c-0.4-1-0.6-2.2-0.6-3.5
			c0-1.8,0.4-3.4,1.2-4.8c0.8-1.4,1.9-2.5,3.3-3.3c1.4-0.8,3-1.2,4.8-1.2h0c1.9,0,3.5,0.4,5,1.3c1.5,0.9,2.6,2.1,3.4,3.7
			c0.8,1.6,1.2,3.3,1.2,5.3C145.3,1262.7,145,1264.1,144.5,1265.4z"/>
		<path class="st11" d="M143.5,1242.1c-1.2,1.6-2.9,2.8-5,3.7c-2.2,0.9-4.8,1.3-7.7,1.3h0c-3,0-5.6-0.4-7.7-1.3
			c-2.2-0.9-3.9-2.1-5-3.7c-1.2-1.6-1.8-3.5-1.8-5.8c0-2.2,0.6-4.2,1.8-5.8c1.2-1.6,2.9-2.8,5-3.7c2.2-0.9,4.8-1.3,7.7-1.3h0
			c3,0,5.6,0.4,7.7,1.3c2.2,0.9,3.9,2.1,5,3.7c1.2,1.6,1.8,3.5,1.8,5.8C145.3,1238.6,144.7,1240.5,143.5,1242.1z M140.3,1232.9
			c-0.9-0.9-2.1-1.7-3.8-2.2c-1.6-0.5-3.6-0.8-5.8-0.8h0c-2.3,0-4.2,0.3-5.8,0.8c-1.6,0.5-2.9,1.2-3.7,2.2c-0.9,0.9-1.3,2.1-1.3,3.4
			c0,1.3,0.4,2.5,1.3,3.4c0.9,0.9,2.1,1.7,3.7,2.2c1.6,0.5,3.6,0.7,5.8,0.7h0c2.3,0,4.2-0.2,5.8-0.7c1.6-0.5,2.9-1.2,3.8-2.2
			c0.9-0.9,1.3-2.1,1.3-3.4C141.6,1235,141.1,1233.9,140.3,1232.9z"/>
		<path class="st11" d="M124.2,1221.8v-4.3h3.2v-0.1c-1.1-0.4-1.9-1.2-2.6-2.2c-0.7-1-1-2.2-1-3.5c0-0.9,0.2-1.8,0.5-2.5
			s0.8-1.4,1.4-2s1.3-0.9,2.2-1.2v-0.1c-0.8-0.4-1.6-0.8-2.2-1.5c-0.6-0.6-1.1-1.4-1.4-2.2c-0.3-0.8-0.5-1.7-0.5-2.7
			c0-1.4,0.3-2.5,0.8-3.5c0.6-1,1.4-1.8,2.4-2.3c1-0.6,2.2-0.8,3.6-0.8h14.1v4.3h-13.1c-1.3,0-2.4,0.3-3.1,1
			c-0.7,0.7-1.1,1.6-1.1,2.9c0,0.8,0.2,1.6,0.6,2.2c0.4,0.6,0.9,1.1,1.6,1.5c0.7,0.4,1.4,0.5,2.3,0.5h12.9v4.2h-13.4
			c-1.2,0-2.1,0.3-2.8,1c-0.7,0.7-1,1.6-1,2.8c0,0.8,0.2,1.6,0.6,2.2c0.4,0.6,0.9,1.2,1.6,1.5c0.7,0.4,1.5,0.5,2.4,0.5h12.7v4.3
			H124.2z"/>
		<path class="st11" d="M124.2,1188.8v-4.3h3.2v-0.1c-1.1-0.4-1.9-1.2-2.6-2.2c-0.7-1-1-2.2-1-3.5c0-0.9,0.2-1.8,0.5-2.5
			s0.8-1.4,1.4-2s1.3-0.9,2.2-1.2v-0.1c-0.8-0.4-1.6-0.8-2.2-1.5c-0.6-0.6-1.1-1.4-1.4-2.2c-0.3-0.8-0.5-1.7-0.5-2.7
			c0-1.4,0.3-2.5,0.8-3.5c0.6-1,1.4-1.8,2.4-2.3c1-0.6,2.2-0.8,3.6-0.8h14.1v4.3h-13.1c-1.3,0-2.4,0.3-3.1,1
			c-0.7,0.7-1.1,1.6-1.1,2.9c0,0.8,0.2,1.6,0.6,2.2c0.4,0.6,0.9,1.1,1.6,1.5c0.7,0.4,1.4,0.5,2.3,0.5h12.9v4.2h-13.4
			c-1.2,0-2.1,0.3-2.8,1c-0.7,0.7-1,1.6-1,2.8c0,0.8,0.2,1.6,0.6,2.2c0.4,0.6,0.9,1.2,1.6,1.5c0.7,0.4,1.5,0.5,2.4,0.5h12.7v4.3
			H124.2z"/>
	</g>
</g>
<g>
	<g>
		<path class="st11" d="M120.9,1025.9L120.9,1025.9l5.1,7.5l-4.2,0l-5.3-7.4l0-4.3l28.2,0l0,4.3L120.9,1025.9z"/>
		<path class="st11" d="M143.4,1010.2c-1.2,1.6-2.9,2.8-5,3.7c-2.2,0.9-4.8,1.3-7.7,1.3h0c-3,0-5.6-0.4-7.7-1.3
			c-2.2-0.9-3.9-2.1-5-3.7c-1.2-1.6-1.8-3.5-1.8-5.8c0-2.2,0.6-4.2,1.8-5.8c1.2-1.6,2.9-2.8,5-3.7c2.2-0.9,4.8-1.3,7.7-1.3h0
			c3,0,5.6,0.4,7.7,1.3c2.2,0.9,3.9,2.1,5,3.7c1.2,1.6,1.8,3.5,1.8,5.8C145.2,1006.7,144.6,1008.6,143.4,1010.2z M140.2,1001
			c-0.9-0.9-2.1-1.7-3.8-2.2c-1.6-0.5-3.6-0.7-5.8-0.7h0c-2.3,0-4.2,0.3-5.8,0.8c-1.6,0.5-2.9,1.2-3.7,2.2c-0.9,0.9-1.3,2.1-1.3,3.4
			c0,1.3,0.4,2.5,1.3,3.4c0.9,0.9,2.1,1.7,3.7,2.2c1.6,0.5,3.6,0.7,5.8,0.7h0c2.3,0,4.2-0.3,5.8-0.7c1.6-0.5,2.9-1.2,3.7-2.2
			c0.9-0.9,1.3-2.1,1.3-3.4C141.5,1003.1,141.1,1001.9,140.2,1001z"/>
		<path class="st11" d="M143.4,985.2c-1.2,1.6-2.9,2.8-5,3.7s-4.8,1.3-7.7,1.3h0c-3,0-5.6-0.4-7.7-1.3c-2.2-0.9-3.9-2.1-5-3.7
			c-1.2-1.6-1.8-3.5-1.8-5.8c0-2.2,0.6-4.2,1.8-5.8c1.2-1.6,2.9-2.8,5-3.7c2.2-0.9,4.8-1.3,7.7-1.3h0c3,0,5.6,0.4,7.7,1.3
			c2.2,0.9,3.9,2.1,5,3.7c1.2,1.6,1.8,3.5,1.8,5.8C145.2,981.7,144.6,983.6,143.4,985.2z M140.2,976c-0.9-0.9-2.1-1.7-3.8-2.2
			c-1.6-0.5-3.6-0.7-5.8-0.7h0c-2.3,0-4.2,0.3-5.8,0.8c-1.6,0.5-2.9,1.2-3.7,2.2c-0.9,0.9-1.3,2.1-1.3,3.4c0,1.3,0.4,2.5,1.3,3.4
			c0.9,0.9,2.1,1.7,3.7,2.2c1.6,0.5,3.6,0.7,5.8,0.7h0c2.3,0,4.2-0.3,5.8-0.7c1.6-0.5,2.9-1.2,3.7-2.2c0.9-0.9,1.3-2.1,1.3-3.4
			C141.5,978.1,141.1,977,140.2,976z"/>
		<path class="st11" d="M124.1,964.9l0-4.3l3.2,0v-0.1c-1.1-0.4-1.9-1.2-2.6-2.2c-0.7-1-1-2.2-1-3.5c0-0.9,0.2-1.8,0.5-2.5
			c0.3-0.8,0.8-1.4,1.4-2c0.6-0.5,1.3-1,2.2-1.2v-0.1c-0.8-0.4-1.6-0.8-2.2-1.5c-0.6-0.6-1.1-1.4-1.4-2.2c-0.3-0.8-0.5-1.7-0.5-2.7
			c0-1.4,0.3-2.5,0.8-3.5c0.6-1,1.4-1.8,2.4-2.3c1-0.6,2.2-0.8,3.6-0.8l14.1,0l0,4.3l-13.1,0c-1.3,0-2.4,0.3-3.1,1
			c-0.7,0.7-1.1,1.6-1.1,2.9c0,0.8,0.2,1.6,0.6,2.2c0.4,0.6,0.9,1.1,1.6,1.5c0.7,0.4,1.4,0.5,2.3,0.5l12.9,0l0,4.2l-13.4,0
			c-1.2,0-2.1,0.4-2.8,1c-0.7,0.7-1,1.6-1,2.8c0,0.8,0.2,1.6,0.6,2.2c0.4,0.6,0.9,1.1,1.6,1.5s1.5,0.5,2.4,0.5l12.7,0l0,4.3
			L124.1,964.9z"/>
		<path class="st11" d="M124.1,931.9l0-4.3l3.2,0v-0.1c-1.1-0.4-1.9-1.2-2.6-2.2c-0.7-1-1-2.2-1-3.5c0-0.9,0.2-1.8,0.5-2.5
			c0.3-0.8,0.8-1.4,1.4-2c0.6-0.5,1.3-1,2.2-1.2V916c-0.8-0.4-1.6-0.8-2.2-1.5s-1.1-1.4-1.4-2.2c-0.3-0.8-0.5-1.7-0.5-2.7
			c0-1.4,0.3-2.5,0.8-3.5c0.6-1,1.4-1.8,2.4-2.3c1-0.6,2.2-0.8,3.6-0.8l14.1,0l0,4.3l-13.1,0c-1.3,0-2.4,0.3-3.1,1
			c-0.7,0.7-1.1,1.6-1.1,2.9c0,0.8,0.2,1.6,0.6,2.2c0.4,0.6,0.9,1.1,1.6,1.5c0.7,0.4,1.4,0.5,2.3,0.5l12.9,0l0,4.2l-13.4,0
			c-1.2,0-2.1,0.4-2.8,1c-0.7,0.7-1,1.6-1,2.8c0,0.8,0.2,1.6,0.6,2.2c0.4,0.6,0.9,1.1,1.6,1.5c0.7,0.4,1.5,0.5,2.4,0.5l12.7,0l0,4.3
			L124.1,931.9z"/>
	</g>
</g>
<g>
	<g>
		<path class="st11" d="M120.3,817.6L120.3,817.6l-0.1,14.9l-3.7,0l0-19.2l3.8,0l24.4,12.2l0,4.6L120.3,817.6z"/>
		<path class="st11" d="M144.1,804.3c-0.7,1.5-1.7,2.6-2.9,3.5c-1.2,0.9-2.6,1.4-4.1,1.5l-0.2,0l0-4.2l0.1,0c0.8-0.1,1.6-0.5,2.3-1
			c0.7-0.5,1.2-1.2,1.6-2c0.4-0.8,0.6-1.8,0.6-2.8c0-1.2-0.3-2.2-0.8-3.1c-0.5-0.9-1.2-1.6-2.1-2.1c-0.9-0.5-1.9-0.8-3.1-0.8h0
			c-1.1,0-2.2,0.3-3,0.8c-0.9,0.5-1.6,1.2-2.1,2.1c-0.5,0.9-0.8,1.9-0.8,3.1c0,0.9,0.1,1.7,0.4,2.4c0.3,0.7,0.6,1.4,1.1,2
			c0.2,0.2,0.5,0.5,0.7,0.7c0.3,0.2,0.6,0.4,0.9,0.6l0,3.8l-16.3-1.4l0-16.8l3.7,0l0,13.3l8.9,0.8v-0.1c-1-0.6-1.7-1.5-2.2-2.6
			c-0.5-1.1-0.8-2.4-0.8-3.8c0-1.8,0.4-3.4,1.2-4.8c0.8-1.4,1.9-2.5,3.3-3.3c1.4-0.8,3-1.2,4.8-1.2h0c1.9,0,3.6,0.4,5,1.3
			c1.5,0.9,2.6,2.1,3.4,3.7c0.8,1.6,1.2,3.3,1.2,5.4C145.2,801.2,144.8,802.8,144.1,804.3z"/>
		<path class="st11" d="M124.2,785.5l0-4.3l3.2,0v-0.1c-1.1-0.4-1.9-1.2-2.6-2.2c-0.7-1-1-2.2-1-3.5c0-0.9,0.2-1.8,0.5-2.5
			c0.3-0.8,0.8-1.4,1.4-2c0.6-0.5,1.3-1,2.2-1.2l0-0.1c-0.8-0.4-1.6-0.8-2.2-1.5c-0.6-0.6-1.1-1.4-1.4-2.2c-0.3-0.8-0.5-1.7-0.5-2.7
			c0-1.4,0.3-2.5,0.8-3.5c0.6-1,1.4-1.8,2.4-2.3c1-0.6,2.2-0.8,3.6-0.8l14.1,0l0,4.3l-13.1,0c-1.3,0-2.4,0.3-3.1,1
			c-0.7,0.7-1.1,1.6-1.1,2.9c0,0.8,0.2,1.6,0.6,2.2c0.4,0.6,0.9,1.1,1.6,1.5c0.7,0.4,1.4,0.5,2.3,0.5l12.9,0l0,4.2l-13.4,0
			c-1.2,0-2.1,0.4-2.8,1c-0.7,0.7-1,1.6-1,2.8c0,0.8,0.2,1.6,0.6,2.2c0.4,0.6,0.9,1.1,1.6,1.5c0.7,0.4,1.5,0.5,2.4,0.5l12.7,0l0,4.3
			L124.2,785.5z"/>
		<path class="st11" d="M124.1,752.5l0-4.3l3.2,0v-0.1c-1.1-0.4-1.9-1.2-2.6-2.2c-0.7-1-1-2.2-1-3.5c0-0.9,0.2-1.8,0.5-2.5
			c0.3-0.8,0.8-1.4,1.4-2c0.6-0.5,1.3-1,2.2-1.2v-0.1c-0.8-0.4-1.6-0.8-2.2-1.5c-0.6-0.6-1.1-1.4-1.4-2.2c-0.3-0.8-0.5-1.7-0.5-2.7
			c0-1.4,0.3-2.5,0.8-3.5c0.6-1,1.4-1.8,2.4-2.3c1-0.6,2.2-0.8,3.6-0.8l14.1,0l0,4.3l-13.1,0c-1.3,0-2.4,0.3-3.1,1
			c-0.7,0.7-1.1,1.6-1.1,2.9c0,0.8,0.2,1.6,0.6,2.2c0.4,0.6,0.9,1.1,1.6,1.5c0.7,0.4,1.4,0.5,2.3,0.5l12.9,0l0,4.2l-13.4,0
			c-1.2,0-2.1,0.4-2.8,1c-0.7,0.7-1,1.6-1,2.8c0,0.8,0.2,1.6,0.6,2.2c0.4,0.6,0.9,1.1,1.6,1.5c0.7,0.4,1.5,0.5,2.4,0.5l12.7,0l0,4.3
			L124.1,752.5z"/>
	</g>
</g>
<g>
	<g>
		<path class="st11" d="M120.3,643L120.3,643l-0.1,14.9l-3.7,0l0-19.2l3.8,0l24.4,12.2l0,4.6L120.3,643z"/>
		<path class="st11" d="M144.1,629.7c-0.7,1.5-1.7,2.6-2.9,3.5c-1.2,0.9-2.6,1.4-4.1,1.5l-0.2,0l0-4.2l0.1,0c0.8-0.1,1.6-0.5,2.3-1
			c0.7-0.5,1.2-1.2,1.6-2c0.4-0.8,0.6-1.8,0.6-2.8c0-1.2-0.3-2.2-0.8-3.1c-0.5-0.9-1.2-1.6-2.1-2.1c-0.9-0.5-1.9-0.8-3.1-0.8h0
			c-1.1,0-2.2,0.3-3,0.8c-0.9,0.5-1.6,1.2-2.1,2.1c-0.5,0.9-0.8,1.9-0.8,3.1c0,0.9,0.1,1.7,0.4,2.4c0.3,0.7,0.6,1.4,1.1,2
			c0.2,0.2,0.5,0.5,0.7,0.7c0.3,0.2,0.6,0.4,0.9,0.6l0,3.8l-16.3-1.4l0-16.8l3.7,0l0,13.3l8.9,0.8V630c-1-0.6-1.7-1.5-2.2-2.6
			c-0.5-1.1-0.8-2.4-0.8-3.8c0-1.8,0.4-3.4,1.2-4.8c0.8-1.4,1.9-2.5,3.3-3.3c1.4-0.8,3-1.2,4.8-1.2h0c1.9,0,3.6,0.4,5,1.3
			c1.5,0.9,2.6,2.1,3.4,3.7c0.8,1.6,1.2,3.3,1.2,5.4C145.2,626.6,144.8,628.3,144.1,629.7z"/>
		<path class="st11" d="M124.2,611l0-4.3l3.2,0v-0.1c-1.1-0.4-1.9-1.2-2.6-2.2c-0.7-1-1-2.2-1-3.5c0-0.9,0.2-1.8,0.5-2.5
			c0.3-0.8,0.8-1.4,1.4-2c0.6-0.5,1.3-1,2.2-1.2l0-0.1c-0.8-0.4-1.6-0.8-2.2-1.5c-0.6-0.6-1.1-1.4-1.4-2.2c-0.3-0.8-0.5-1.7-0.5-2.7
			c0-1.4,0.3-2.5,0.8-3.5c0.6-1,1.4-1.8,2.4-2.3c1-0.6,2.2-0.8,3.6-0.8l14.1,0l0,4.3l-13.1,0c-1.3,0-2.4,0.3-3.1,1
			c-0.7,0.7-1.1,1.6-1.1,2.9c0,0.8,0.2,1.6,0.6,2.2c0.4,0.6,0.9,1.1,1.6,1.5c0.7,0.4,1.4,0.5,2.3,0.5l12.9,0l0,4.2l-13.4,0
			c-1.2,0-2.1,0.4-2.8,1c-0.7,0.7-1,1.6-1,2.8c0,0.8,0.2,1.6,0.6,2.2c0.4,0.6,0.9,1.1,1.6,1.5c0.7,0.4,1.5,0.5,2.4,0.5l12.7,0l0,4.3
			L124.2,611z"/>
		<path class="st11" d="M124.1,578l0-4.3l3.2,0v-0.1c-1.1-0.4-1.9-1.2-2.6-2.2c-0.7-1-1-2.2-1-3.5c0-0.9,0.2-1.8,0.5-2.5
			c0.3-0.8,0.8-1.4,1.4-2c0.6-0.5,1.3-1,2.2-1.2v-0.1c-0.8-0.4-1.6-0.8-2.2-1.5c-0.6-0.6-1.1-1.4-1.4-2.2c-0.3-0.8-0.5-1.7-0.5-2.7
			c0-1.4,0.3-2.5,0.8-3.5c0.6-1,1.4-1.8,2.4-2.3c1-0.6,2.2-0.8,3.6-0.8l14.1,0l0,4.3l-13.1,0c-1.3,0-2.4,0.3-3.1,1
			c-0.7,0.7-1.1,1.6-1.1,2.9c0,0.8,0.2,1.6,0.6,2.2c0.4,0.6,0.9,1.1,1.6,1.5c0.7,0.4,1.4,0.5,2.3,0.5l12.9,0l0,4.2l-13.4,0
			c-1.2,0-2.1,0.4-2.8,1c-0.7,0.7-1,1.6-1,2.8c0,0.8,0.2,1.6,0.6,2.2c0.4,0.6,0.9,1.1,1.6,1.5c0.7,0.4,1.5,0.5,2.4,0.5l12.7,0l0,4.3
			L124.1,578z"/>
	</g>
</g>
<g>
	<g>
		<path class="st11" d="M144.2,453.1c-0.7,1.5-1.7,2.6-2.9,3.5c-1.2,0.9-2.6,1.4-4.1,1.5l-0.2,0l0-4.2l0.1,0c0.8-0.1,1.6-0.5,2.3-1
			c0.7-0.5,1.2-1.2,1.6-2c0.4-0.8,0.6-1.8,0.6-2.8c0-1.2-0.3-2.2-0.8-3.1c-0.5-0.9-1.2-1.6-2.1-2.1c-0.9-0.5-1.9-0.8-3.1-0.8h0
			c-1.1,0-2.2,0.3-3,0.8c-0.9,0.5-1.6,1.2-2.1,2.1c-0.5,0.9-0.8,1.9-0.8,3.1c0,0.9,0.1,1.7,0.4,2.4c0.3,0.7,0.6,1.4,1.1,2
			c0.2,0.2,0.5,0.5,0.7,0.7c0.3,0.2,0.6,0.4,0.9,0.6l0,3.8l-16.3-1.4l0-16.8l3.7,0l0,13.3l8.9,0.8l0-0.1c-1-0.6-1.7-1.5-2.2-2.6
			c-0.5-1.1-0.8-2.4-0.8-3.8c0-1.8,0.4-3.4,1.2-4.8c0.8-1.4,1.9-2.5,3.3-3.3c1.4-0.8,3-1.2,4.8-1.2h0c1.9,0,3.6,0.4,5,1.3
			c1.5,0.9,2.6,2.1,3.4,3.7c0.8,1.6,1.2,3.3,1.2,5.4C145.2,450,144.9,451.7,144.2,453.1z"/>
		<path class="st11" d="M143.4,429.7c-1.2,1.6-2.9,2.8-5,3.7s-4.8,1.3-7.7,1.3h0c-3,0-5.6-0.4-7.7-1.3c-2.2-0.9-3.9-2.1-5-3.7
			c-1.2-1.6-1.8-3.5-1.8-5.8c0-2.2,0.6-4.2,1.8-5.8c1.2-1.6,2.9-2.8,5-3.7c2.2-0.9,4.8-1.3,7.7-1.3h0c3,0,5.6,0.4,7.7,1.3
			c2.2,0.9,3.9,2.1,5,3.7c1.2,1.6,1.8,3.5,1.8,5.8C145.2,426.2,144.6,428.1,143.4,429.7z M140.2,420.5c-0.9-0.9-2.1-1.7-3.8-2.2
			c-1.6-0.5-3.6-0.7-5.8-0.7h0c-2.3,0-4.2,0.3-5.8,0.8c-1.6,0.5-2.9,1.2-3.7,2.2c-0.9,0.9-1.3,2.1-1.3,3.4c0,1.3,0.4,2.5,1.3,3.4
			c0.9,0.9,2.1,1.7,3.7,2.2c1.6,0.5,3.6,0.7,5.8,0.7h0c2.3,0,4.2-0.3,5.8-0.7c1.6-0.5,2.9-1.2,3.7-2.2c0.9-0.9,1.3-2.1,1.3-3.4
			C141.5,422.6,141.1,421.5,140.2,420.5z"/>
		<path class="st11" d="M124.2,409.4l0-4.3l3.2,0v-0.1c-1.1-0.4-1.9-1.2-2.6-2.2c-0.7-1-1-2.2-1-3.5c0-0.9,0.2-1.8,0.5-2.5
			c0.3-0.8,0.8-1.4,1.4-2c0.6-0.5,1.3-1,2.2-1.2v-0.1c-0.8-0.4-1.6-0.8-2.2-1.5s-1.1-1.4-1.4-2.2c-0.3-0.8-0.5-1.7-0.5-2.7
			c0-1.4,0.3-2.5,0.8-3.5c0.6-1,1.4-1.8,2.4-2.3c1-0.6,2.2-0.8,3.6-0.8l14.1,0l0,4.3l-13.1,0c-1.3,0-2.4,0.3-3.1,1
			c-0.7,0.7-1.1,1.6-1.1,2.9c0,0.8,0.2,1.6,0.6,2.2c0.4,0.6,0.9,1.1,1.6,1.5c0.7,0.4,1.4,0.5,2.3,0.5l12.9,0l0,4.2l-13.4,0
			c-1.2,0-2.1,0.4-2.8,1c-0.7,0.7-1,1.6-1,2.8c0,0.8,0.2,1.6,0.6,2.2c0.4,0.6,0.9,1.1,1.6,1.5c0.7,0.4,1.5,0.5,2.4,0.5l12.7,0l0,4.3
			L124.2,409.4z"/>
		<path class="st11" d="M124.1,376.4l0-4.3l3.2,0l0-0.1c-1.1-0.4-1.9-1.2-2.6-2.2c-0.7-1-1-2.2-1-3.5c0-0.9,0.2-1.8,0.5-2.5
			c0.3-0.8,0.8-1.4,1.4-2c0.6-0.5,1.3-1,2.2-1.2v-0.1c-0.8-0.4-1.6-0.8-2.2-1.5s-1.1-1.4-1.4-2.2c-0.3-0.8-0.5-1.7-0.5-2.7
			c0-1.4,0.3-2.5,0.8-3.5s1.4-1.8,2.4-2.3c1-0.6,2.2-0.8,3.6-0.8l14.1,0l0,4.3l-13.1,0c-1.3,0-2.4,0.3-3.1,1
			c-0.7,0.7-1.1,1.6-1.1,2.9c0,0.8,0.2,1.6,0.6,2.2c0.4,0.6,0.9,1.1,1.6,1.5c0.7,0.4,1.4,0.5,2.3,0.5l12.9,0l0,4.2l-13.4,0
			c-1.2,0-2.1,0.4-2.8,1c-0.7,0.7-1,1.6-1,2.8c0,0.8,0.2,1.6,0.6,2.2c0.4,0.6,0.9,1.1,1.6,1.5c0.7,0.4,1.5,0.5,2.4,0.5l12.7,0l0,4.3
			L124.1,376.4z"/>
	</g>
</g>
<g>
	<line class="st12" x1="466.8" y1="1686.8" x2="466.8" y2="1779.4"/>
	<line class="st12" x1="712.8" y1="1686.8" x2="712.8" y2="1777.8"/>
</g>
</svg>
