<?xml version="1.0" encoding="utf-8"?>
<!-- Generator: Adobe Illustrator 25.3.1, SVG Export Plug-In . SVG Version: 6.00 Build 0)  -->
<svg version="1.1" id="Ebene_1" xmlns="http://www.w3.org/2000/svg" xmlns:xlink="http://www.w3.org/1999/xlink" x="0px" y="0px"
	 viewBox="0 0 2097.6 1805.2" style="enable-background:new 0 0 2097.6 1805.2;" xml:space="preserve">
<style type="text/css">
	.st0{fill:none;stroke:#808080;stroke-width:5;stroke-miterlimit:10;stroke-dasharray:12.4333;}
	.st1{fill:#CCCCCC;}
	.st2{fill:#808080;}
	.st3{fill:#F6F6F6;}
	.st4{fill:#68442A;}
	.st5{fill:#A38060;}
	.st6{fill:#202020;}
	.st7{opacity:0.8;fill:#87603D;}
	.st8{fill:#87603D;}
	.st9{fill:#FFE9D7;stroke:#FFE9D7;stroke-width:12.3422;stroke-linejoin:bevel;stroke-miterlimit:10;}
	.st10{fill:none;stroke:#454545;stroke-width:5;stroke-miterlimit:10;}
	.st11{fill:#454545;}
</style>
<g>
	<g>
		<line class="st0" x1="1818.6" y1="793.4" x2="1988" y2="793.4"/>
		<line class="st0" x1="1818.6" y1="711.1" x2="1989.4" y2="711.1"/>
	</g>
	<g>
		<line class="st0" x1="1818.6" y1="449.8" x2="1988" y2="449.8"/>
		<line class="st0" x1="1746.8" y1="289.2" x2="1989.4" y2="289.2"/>
	</g>
	<path class="st1" d="M1837.4,1497.9H275.9l0-0.2l0-1.1l2.6-96.4l1.9-70.2l6.2-230l5-185.9l1.9-69.4v0l0-0.3c0,0,0,0,0,0l9.3-343.6
		c0-250.1,170.1-304,417.4-315.2c1.8-0.1,44.7-0.2,107.6-0.2c63-0.1,146-0.1,228.2-0.2h1.1c157,0.1,317.1,0.2,334.4,0.4
		c0.2,0,0.5,0,0.6,0c0.4,0,0.7,0,0.8,0c4.1,0.2,8.2,0.4,12.2,0.6c0.1,0,0.2,0,0.3,0c15,0.8,29.6,1.7,44,2.9c1.8,0.2,3.6,0.3,5.4,0.4
		c1.8,0.2,3.6,0.3,5.3,0.5c1.8,0.2,3.5,0.3,5.3,0.5c3.5,0.3,7,0.7,10.5,1c3.3,0.3,6.6,0.7,9.9,1c0.5,0.1,0.9,0.1,1.4,0.2
		c4.9,0.5,9.7,1.1,14.5,1.7c1.7,0.2,3.4,0.4,5.1,0.7c3.4,0.4,6.7,0.9,10,1.4c1.6,0.2,3.1,0.5,4.6,0.7c0.4,0.1,0.7,0.1,1.1,0.2
		c1.4,0.2,2.8,0.4,4.2,0.6c3,0.5,5.9,0.9,8.8,1.4c2.1,0.3,4.1,0.7,6.2,1.1c1.3,0.2,2.6,0.5,3.9,0.7c1.2,0.2,2.5,0.5,3.7,0.7
		c1.7,0.3,3.4,0.6,5.2,1c3.5,0.7,7,1.4,10.4,2.1c0.9,0.2,1.7,0.4,2.6,0.6c1.3,0.3,2.6,0.6,3.9,0.8c1.3,0.3,2.7,0.6,4,0.9
		c0.8,0.2,1.7,0.4,2.5,0.6c1.5,0.3,2.9,0.7,4.4,1c1.8,0.4,3.6,0.9,5.3,1.3c0,0,0,0,0.1,0c1.7,0.4,3.4,0.9,5.1,1.3c2,0.5,4,1.1,6,1.6
		c1.3,0.3,2.5,0.7,3.7,1c2,0.6,4.1,1.2,6.1,1.8c3.4,1,6.7,2.1,10,3.1c0.1,0,0.2,0.1,0.3,0.1c1.6,0.5,3.1,1,4.7,1.5
		c0.1,0,0.2,0.1,0.3,0.1c1.6,0.5,3.2,1.1,4.7,1.6c0,0,0,0,0,0c1.3,0.5,2.6,0.9,3.9,1.4c1.9,0.7,3.9,1.4,5.8,2.2
		c1.6,0.6,3.1,1.2,4.7,1.8c0.1,0,0.2,0.1,0.3,0.1c1.3,0.5,2.6,1,3.9,1.6c0.5,0.2,0.9,0.4,1.4,0.6c1,0.4,1.9,0.8,2.9,1.2
		c0.6,0.2,1.2,0.5,1.7,0.7c1.3,0.6,2.6,1.1,3.9,1.7c1.5,0.7,3,1.3,4.5,2c1.8,0.8,3.6,1.7,5.3,2.5c1.2,0.6,2.4,1.2,3.6,1.8
		c1.2,0.6,2.5,1.3,3.7,1.9c0.5,0.3,1,0.5,1.5,0.8c1.2,0.6,2.4,1.3,3.6,1.9c1.4,0.7,2.7,1.5,4.1,2.2c0,0,0.1,0,0.1,0.1
		c1.4,0.8,2.7,1.6,4.1,2.4c0.2,0.1,0.3,0.2,0.5,0.3c0.9,0.6,1.9,1.1,2.8,1.7c0.7,0.4,1.4,0.9,2.2,1.3c1.1,0.6,2.1,1.3,3.2,2
		c0.9,0.6,1.8,1.2,2.8,1.8c1.7,1.1,3.5,2.3,5.2,3.5c1.2,0.8,2.3,1.6,3.5,2.5c1.1,0.8,2.2,1.6,3.2,2.4c0.4,0.3,0.7,0.5,1,0.8
		c1.1,0.8,2.1,1.6,3.2,2.4c0,0,0.1,0.1,0.1,0.1c1.1,0.8,2.2,1.7,3.3,2.6c1.3,1.1,2.7,2.2,4,3.3c1.2,1,2.3,2,3.5,3
		c0.1,0.1,0.2,0.2,0.3,0.3c1.1,0.9,2.1,1.9,3.2,2.8c0.1,0.1,0.2,0.1,0.3,0.2c1,0.9,2,1.8,3,2.7c0.2,0.2,0.4,0.4,0.6,0.5
		c1,0.9,1.9,1.8,2.8,2.8c0.1,0.1,0.2,0.2,0.2,0.2c0,0,0.1,0.1,0.1,0.1l1.3,1.3c0.4,0.4,0.8,0.8,1.2,1.3c0.5,0.5,1.1,1.1,1.6,1.7
		c0.1,0.1,0.2,0.2,0.3,0.3c0.7,0.7,1.3,1.4,2,2.1c0.1,0,0.1,0.1,0.1,0.2c1.4,1.5,2.7,3,4,4.5c0.6,0.7,1.3,1.4,1.9,2.2
		c0.1,0.1,0.2,0.2,0.2,0.3c0.6,0.8,1.3,1.5,1.9,2.3c0.6,0.7,1.2,1.4,1.8,2.2c0.3,0.3,0.5,0.7,0.8,1c1.1,1.4,2.2,2.7,3.3,4.2
		c0.6,0.8,1.3,1.7,1.9,2.5c0.6,0.8,1.2,1.6,1.7,2.3c0.2,0.2,0.3,0.4,0.5,0.6c0.5,0.6,0.9,1.3,1.4,1.9c1.2,1.8,2.5,3.6,3.7,5.4
		c0.4,0.6,0.8,1.2,1.1,1.8c0.3,0.5,0.6,0.9,0.9,1.4c0.5,0.7,0.9,1.4,1.4,2.2c0.5,0.9,1.1,1.8,1.6,2.7c1.1,1.9,2.2,3.8,3.3,5.7
		c0.4,0.7,0.8,1.5,1.2,2.2c0.2,0.3,0.3,0.5,0.4,0.8c0.4,0.7,0.7,1.3,1.1,2c0.3,0.6,0.7,1.2,1,1.9c0.4,0.8,0.8,1.6,1.3,2.5
		c0.8,1.6,1.6,3.3,2.4,4.9c0,0.1,0.1,0.1,0.1,0.2c0.3,0.5,0.5,1.1,0.7,1.6c0.4,0.8,0.7,1.5,1,2.3c0.7,1.6,1.4,3.1,2.1,4.7
		c0.3,0.6,0.5,1.3,0.8,1.9c0.7,1.6,1.3,3.3,2,4.9c0.4,0.9,0.7,1.9,1.1,2.8c0.1,0.2,0.2,0.4,0.2,0.6c0.3,0.8,0.6,1.6,0.9,2.4
		c0.4,1,0.8,2.1,1.1,3.1c0.4,1.3,0.9,2.5,1.3,3.8c0.5,1.6,1.1,3.3,1.6,5c0.3,1,0.6,2,0.9,3c0.1,0.4,0.3,0.9,0.4,1.3
		c0.4,1.1,0.7,2.3,1,3.5c0,0.1,0.1,0.2,0.1,0.3c0.3,1,0.6,2.1,0.9,3.1c0.8,3,1.6,6.1,2.4,9.2c0.1,0.6,0.3,1.2,0.4,1.7
		c0.2,1,0.5,2,0.7,3c0.4,1.8,0.8,3.6,1.2,5.4c0.3,1.5,0.6,3,0.9,4.6c0,0.1,0,0.1,0,0.2c0.3,1.4,0.5,2.7,0.8,4.1
		c0.2,1.2,0.4,2.3,0.6,3.5c0.1,0.8,0.3,1.6,0.4,2.4c0.2,1.4,0.5,2.8,0.7,4.2c0.2,1.5,0.5,3.1,0.7,4.7c0,0.3,0.1,0.6,0.1,0.8
		c0.2,1.2,0.3,2.4,0.5,3.5c0.1,0.5,0.1,1,0.2,1.5c0.1,1.1,0.3,2.1,0.4,3.2c0.1,0.7,0.2,1.4,0.2,2.1c0,0.1,0,0.1,0,0.2
		c0.3,2.7,0.6,5.5,0.8,8.2c0.1,0.8,0.1,1.5,0.2,2.3c0.1,0.9,0.2,1.9,0.2,2.9c0.1,0.8,0.1,1.6,0.2,2.4c0.1,1.4,0.2,2.8,0.3,4.2
		c0.1,1.6,0.2,3.3,0.3,5c0,0.1,0,0.3,0,0.4c0.1,1.7,0.2,3.5,0.2,5.2c0,0.1,0,0.1,0,0.2c0.1,1.4,0.1,2.9,0.1,4.3
		c0,0.6,0.1,1.3,0.1,1.9c0,1.3,0.1,2.6,0.1,3.9c0,0.4,0,0.8,0,1.1c0,1.8,0.1,3.5,0.1,5.3c0,1.4,0,2.7,0,4.1l5.7,210.1l0.5,20.2
		l1.6,59.7l0,0.2l0.2,6.8l0.6,23.2l17.4,645.4l0.8,31.2L1837.4,1497.9z"/>
	<g>
		<rect x="560.3" y="1103.5" class="st2" width="353.5" height="349.9"/>
	</g>
	<g>
		<rect x="921.2" y="1103.5" class="st2" width="353.5" height="349.9"/>
	</g>
	<path class="st3" d="M312.9,926.6h1062.2c7.4,0,13.5-6.1,13.5-13.5v-73.2c0-7.4-6.1-13.5-13.5-13.5H312.9
		c-7.4,0-13.5,6.1-13.5,13.5v73.2C299.4,920.5,305.5,926.6,312.9,926.6z"/>
	<g>
		<rect x="1339.5" y="1446.1" class="st2" width="19.7" height="50.5"/>
		<rect x="535.3" y="1446.1" class="st2" width="19.7" height="50.5"/>
		<rect x="553.7" y="1453.7" class="st4" width="787.7" height="35.3"/>
	</g>
	<g>
		<rect x="290" y="1054.6" class="st5" width="1101.4" height="44.4"/>
		<g>
			
				<rect x="490.4" y="1099.1" transform="matrix(-1 -1.224647e-16 1.224647e-16 -1 1025.8884 2596.7996)" class="st5" width="45.1" height="398.7"/>
			
				<rect x="1352.3" y="1054.1" transform="matrix(-1 -1.224647e-16 1.224647e-16 -1 2749.5688 2551.8147)" class="st5" width="45.1" height="443.7"/>
			
				<rect x="1302.8" y="1054.1" transform="matrix(-1 -1.224647e-16 1.224647e-16 -1 2650.5718 2551.8152)" class="st5" width="45.1" height="443.7"/>
		</g>
	</g>
	<path class="st3" d="M1375.3,1029.2H308c-7.4,0-13.5-6.1-13.5-13.5v-73.2c0-7.4,6.1-13.5,13.5-13.5h1067.4
		c7.4,0,13.5,6.1,13.5,13.5v73.2C1388.9,1023.1,1382.8,1029.2,1375.3,1029.2z"/>
	<path class="st4" d="M1435.1,451.9v256.9h308.7V451.9L1435.1,451.9z"/>
	<path class="st4" d="M1837.4,1497.7l-0.8-31.2l-17.4-645.4l-0.6-23.2l-0.2-6.8l0-0.2l-1.6-59.7l-0.5-20.2l-5.7-210.1
		c0-1.4,0-2.7,0-4.1c0-1.8,0-3.6-0.1-5.3c0-0.4,0-0.8,0-1.1c0-1.3-0.1-2.6-0.1-3.9c0-0.7,0-1.3-0.1-1.9c0-1.4-0.1-2.9-0.1-4.3
		c0-0.1,0-0.1,0-0.2c-0.1-1.7-0.2-3.5-0.2-5.2c0-0.2,0-0.3,0-0.4c-0.1-1.7-0.2-3.3-0.3-5c-0.1-1.4-0.2-2.8-0.3-4.2
		c-0.1-0.8-0.1-1.6-0.2-2.4c-0.1-1-0.1-1.9-0.2-2.9c-0.1-0.8-0.1-1.5-0.2-2.3c-0.2-2.8-0.5-5.5-0.8-8.2c0-0.1,0-0.1,0-0.2
		c-0.1-0.7-0.1-1.4-0.2-2.1c-0.1-1.1-0.2-2.1-0.4-3.2c-0.1-0.5-0.1-1-0.2-1.5c-0.1-1.2-0.3-2.4-0.5-3.5c0-0.3-0.1-0.6-0.1-0.8
		c-0.2-1.6-0.4-3.1-0.7-4.7c-0.2-1.4-0.4-2.8-0.7-4.2c-0.1-0.8-0.3-1.6-0.4-2.4c-0.2-1.2-0.4-2.4-0.6-3.5c-0.3-1.4-0.5-2.8-0.8-4.1
		c0-0.1,0-0.1,0-0.2c-0.3-1.5-0.6-3-0.9-4.6c-0.4-1.8-0.8-3.6-1.2-5.4c-0.2-1-0.5-2-0.7-3c-0.1-0.6-0.3-1.2-0.4-1.7
		c-0.7-3.1-1.5-6.2-2.4-9.2c-0.3-1-0.6-2.1-0.9-3.1c0-0.1,0-0.2-0.1-0.3c-0.3-1.2-0.7-2.3-1-3.5c-0.1-0.4-0.3-0.9-0.4-1.3
		c-0.3-1-0.6-2-0.9-3c-0.5-1.7-1.1-3.3-1.6-5c-0.4-1.3-0.9-2.6-1.3-3.8c-0.4-1.1-0.7-2.1-1.1-3.1c-0.3-0.8-0.6-1.6-0.9-2.4
		c-0.1-0.2-0.2-0.4-0.2-0.6c-0.4-1-0.7-1.9-1.1-2.8c-0.6-1.6-1.3-3.3-2-4.9c-0.3-0.6-0.5-1.3-0.8-1.9c-0.7-1.6-1.4-3.2-2.1-4.7
		c-0.3-0.8-0.7-1.5-1-2.3c-0.2-0.5-0.5-1.1-0.7-1.6c0-0.1-0.1-0.1-0.1-0.2c-0.8-1.7-1.6-3.3-2.4-4.9c-0.4-0.8-0.8-1.7-1.3-2.5
		c-0.3-0.6-0.6-1.2-1-1.9c-0.4-0.7-0.7-1.4-1.1-2c-0.1-0.3-0.3-0.5-0.4-0.8c-0.4-0.7-0.8-1.5-1.2-2.2c-1.1-1.9-2.2-3.8-3.3-5.7
		c-0.5-0.9-1.1-1.8-1.6-2.7c-0.4-0.7-0.9-1.5-1.4-2.2c-0.3-0.5-0.6-1-0.9-1.4c-0.4-0.6-0.8-1.2-1.1-1.8c-1.2-1.8-2.4-3.6-3.7-5.4
		c-0.5-0.6-0.9-1.3-1.4-1.9c-0.2-0.2-0.3-0.4-0.5-0.6c-0.6-0.8-1.1-1.6-1.7-2.3c-0.6-0.8-1.2-1.7-1.9-2.5c-1.1-1.4-2.2-2.8-3.3-4.2
		c-0.3-0.3-0.5-0.7-0.8-1c-0.6-0.7-1.2-1.4-1.8-2.2c-0.6-0.8-1.3-1.5-1.9-2.3c-0.1-0.1-0.2-0.2-0.2-0.3c-0.6-0.7-1.2-1.4-1.9-2.2
		c-1.3-1.5-2.7-3-4-4.5c-0.1-0.1-0.1-0.1-0.1-0.2c-0.6-0.7-1.3-1.4-2-2.1c-0.1-0.1-0.2-0.2-0.3-0.3c-0.5-0.6-1.1-1.1-1.6-1.7
		c-0.4-0.4-0.8-0.8-1.2-1.3l-1.3-1.3c0,0-0.1-0.1-0.1-0.1c-0.1-0.1-0.2-0.2-0.2-0.2c-0.9-0.9-1.9-1.8-2.8-2.8
		c-0.2-0.2-0.4-0.4-0.6-0.5c-1-0.9-2-1.8-3-2.7c-0.1-0.1-0.2-0.2-0.3-0.2c-1-1-2.1-1.9-3.2-2.8c-0.1-0.1-0.2-0.2-0.3-0.3
		c-1.1-1-2.3-2-3.5-3c-1.3-1.1-2.6-2.2-4-3.3c-1.1-0.9-2.2-1.7-3.3-2.6c0,0-0.1-0.1-0.1-0.1c-1.1-0.8-2.1-1.6-3.2-2.4
		c-0.3-0.3-0.7-0.5-1-0.8c-1.1-0.8-2.2-1.6-3.2-2.4c-1.2-0.8-2.3-1.6-3.5-2.5c-1.7-1.2-3.4-2.3-5.2-3.5c-0.9-0.6-1.8-1.2-2.8-1.8
		c-1-0.7-2.1-1.3-3.2-2c-0.7-0.5-1.4-0.9-2.2-1.3c-0.9-0.6-1.9-1.1-2.8-1.7c-0.2-0.1-0.3-0.2-0.5-0.3c-1.3-0.8-2.7-1.6-4.1-2.4
		c0,0-0.1,0-0.1-0.1c-1.3-0.8-2.7-1.5-4.1-2.2c-1.2-0.7-2.4-1.3-3.6-1.9c-0.5-0.3-1-0.5-1.5-0.8c-1.2-0.6-2.5-1.3-3.7-1.9
		c-1.2-0.6-2.4-1.2-3.6-1.8c-1.8-0.9-3.5-1.7-5.3-2.5c-1.5-0.7-3-1.4-4.5-2c-1.3-0.6-2.6-1.1-3.9-1.7c-0.6-0.3-1.2-0.5-1.7-0.7
		c-0.9-0.4-1.9-0.8-2.9-1.2c-0.5-0.2-0.9-0.4-1.4-0.6c-1.3-0.5-2.6-1.1-3.9-1.6c-0.1-0.1-0.2-0.1-0.3-0.1c-1.6-0.6-3.1-1.2-4.7-1.8
		c-1.9-0.7-3.9-1.5-5.8-2.2c-1.3-0.5-2.6-0.9-3.9-1.4c0,0,0,0,0,0c-1.6-0.6-3.1-1.1-4.7-1.6c-0.1,0-0.2-0.1-0.3-0.1
		c-1.5-0.5-3.1-1-4.7-1.5c-0.1,0-0.2-0.1-0.3-0.1c-3.3-1.1-6.7-2.1-10-3.1c-2-0.6-4-1.2-6.1-1.8c-1.2-0.4-2.5-0.7-3.7-1
		c-2-0.6-4-1.1-6-1.6c-1.7-0.4-3.4-0.9-5.1-1.3c0,0,0,0-0.1,0c-1.8-0.4-3.5-0.9-5.3-1.3c-1.5-0.4-2.9-0.7-4.4-1
		c-0.8-0.2-1.7-0.4-2.5-0.6c-1.3-0.3-2.6-0.6-4-0.9c-1.3-0.3-2.6-0.6-3.9-0.8c-0.9-0.2-1.7-0.4-2.6-0.6c-3.4-0.7-6.9-1.4-10.4-2.1
		c-1.7-0.3-3.4-0.7-5.2-1c-1.2-0.2-2.5-0.5-3.7-0.7c-1.3-0.2-2.6-0.5-3.9-0.7c-2-0.4-4.1-0.7-6.2-1.1c-2.9-0.5-5.9-1-8.8-1.4
		c-1.4-0.2-2.8-0.4-4.2-0.6c-0.4-0.1-0.7-0.1-1.1-0.2c-1.5-0.2-3.1-0.5-4.6-0.7c-3.3-0.5-6.7-0.9-10-1.4c-1.7-0.2-3.4-0.4-5.1-0.7
		c-4.8-0.6-9.6-1.2-14.5-1.7c-0.5-0.1-0.9-0.1-1.4-0.2c-3.3-0.4-6.6-0.7-9.9-1c-3.5-0.4-7-0.7-10.5-1c-1.8-0.2-3.5-0.3-5.3-0.5
		c-1.8-0.2-3.6-0.3-5.3-0.5c-1.8-0.2-3.6-0.3-5.4-0.4c-14.3-1.2-29-2.1-44-2.9c-0.1,0-0.2,0-0.3,0c-0.2,0-0.4,0-0.5,0
		c-1-0.1-2.1-0.2-3.1-0.2c-0.9-0.1-1.8-0.1-2.7-0.2c-0.6,0-1.2-0.1-1.8-0.1c-1.6-0.1-3.3-0.2-4.9-0.3v0.2c-0.2,0-0.4,0-0.6,0v1312.4
		h445.8L1837.4,1497.7z M1747.6,713.1h-317.1V447.2h317.1V713.1z"/>
	<rect x="1471.4" y="520.7" class="st1" width="11.4" height="119"/>
	<g>
		
			<rect x="1767.7" y="698.2" transform="matrix(-1 -4.499613e-11 4.499613e-11 -1 3556.8792 1499.9902)" class="st2" width="21.6" height="103.5"/>
		
			<rect x="1726.3" y="665.4" transform="matrix(-7.965557e-11 1 -1 -7.965557e-11 2452.1633 -1017.1343)" class="st2" width="16.7" height="104.3"/>
	</g>
	<g>
		<path class="st6" d="M1520.9,406.9h-75.8c-4.2,0-7.6-3.4-7.6-7.6v-75.8c0-4.2,3.4-7.6,7.6-7.6h75.8c4.2,0,7.6,3.4,7.6,7.6v75.8
			C1528.5,403.5,1525.1,406.9,1520.9,406.9z"/>
	</g>
	<polygon class="st4" points="482.4,1100 482.4,1496.6 275.9,1496.6 278.5,1400.2 280.4,1330 280.5,1327.2 286.6,1100 	"/>
	<path class="st2" d="M409.8,1496.6H275.9l2.6-96.4l1.9-70.2l0.1-2.8c28.7,5,58.1,21.7,81.6,48.8
		C387.3,1405,405.9,1445.8,409.8,1496.6z"/>
	<g>
		<rect x="1553.1" y="316" class="st6" width="191.9" height="90.9"/>
		<g>
			<rect x="1616.4" y="406.9" class="st6" width="5.4" height="31"/>
			<rect x="1631.4" y="406.9" class="st6" width="5.4" height="31"/>
			<rect x="1646.4" y="406.9" class="st6" width="5.4" height="31"/>
			<rect x="1661.4" y="406.9" class="st6" width="5.4" height="31"/>
			<rect x="1676.3" y="406.9" class="st6" width="5.4" height="31"/>
		</g>
	</g>
	<path class="st7" d="M1736.1,286.4h-343.9v-101c1.6,0.1,3.3,0.2,4.9,0.3c0.6,0,1.2,0.1,1.8,0.1c0.9,0.1,1.8,0.1,2.7,0.2
		c1,0.1,2.1,0.1,3.1,0.2c0.2,0,0.4,0,0.5,0c0.1,0,0.2,0,0.3,0C1549.1,193.7,1665.5,216.7,1736.1,286.4z"/>
	<path class="st2" d="M1406.3,877.3v-86.2c0-4.1,3.3-7.4,7.4-7.4h338.7c4.1,0,7.4,3.3,7.4,7.4v86.2c0,4.1-3.3,7.4-7.4,7.4h-338.7
		C1409.6,884.7,1406.3,881.4,1406.3,877.3z"/>
	<path class="st8" d="M1818.5,797.9l-0.2-6.8l0-0.2H1231v30.3h588L1818.5,797.9z"/>
	<rect x="1529" y="512.1" class="st9" width="120.9" height="54.5"/>
	<g>
		<path class="st4" d="M1559,554.9h-9.5c-1.4,0-2.4-0.3-2.9-0.9c-0.6-0.6-0.9-1.6-0.9-2.9v-23.4c0-1.4,0.3-2.4,0.9-3
			c0.6-0.6,1.6-0.9,2.9-0.9h10.1c1.5,0,2.8,0.1,3.9,0.3c1.1,0.2,2.1,0.5,2.9,1.1c0.7,0.4,1.4,1,2,1.7s1,1.4,1.3,2.2s0.4,1.7,0.4,2.6
			c0,3.1-1.6,5.4-4.7,6.8c4.1,1.3,6.1,3.8,6.1,7.6c0,1.7-0.4,3.3-1.3,4.7c-0.9,1.4-2.1,2.4-3.6,3.1c-0.9,0.4-2,0.7-3.3,0.8
			C1562,554.8,1560.6,554.9,1559,554.9z M1551.9,528.5v8h5.8c1.6,0,2.8-0.1,3.6-0.4c0.9-0.3,1.5-0.9,2-1.7c0.4-0.6,0.5-1.3,0.5-2
			c0-1.6-0.6-2.6-1.7-3.1c-1.1-0.5-2.8-0.8-5.1-0.8H1551.9z M1558.5,541.1h-6.6v9.1h6.8c4.3,0,6.4-1.5,6.4-4.6
			c0-1.6-0.6-2.7-1.7-3.4C1562.3,541.4,1560.7,541.1,1558.5,541.1z"/>
		<path class="st4" d="M1595.2,551.4l-1.5-3.9h-12.7l-1.5,4c-0.6,1.6-1.1,2.6-1.5,3.2c-0.4,0.5-1.1,0.8-2,0.8
			c-0.8,0-1.5-0.3-2.1-0.9c-0.6-0.6-0.9-1.2-0.9-2c0-0.4,0.1-0.9,0.2-1.3c0.1-0.5,0.4-1.1,0.7-1.9l8-20.2c0.2-0.6,0.5-1.3,0.8-2.1
			s0.7-1.5,1-2c0.4-0.5,0.8-1,1.4-1.3c0.6-0.3,1.3-0.5,2.2-0.5c0.9,0,1.6,0.2,2.2,0.5c0.6,0.3,1.1,0.8,1.4,1.3
			c0.4,0.5,0.7,1.1,0.9,1.7c0.2,0.6,0.6,1.4,0.9,2.4l8.1,20.1c0.6,1.5,1,2.6,1,3.3c0,0.7-0.3,1.4-0.9,2c-0.6,0.6-1.3,0.9-2.2,0.9
			c-0.5,0-0.9-0.1-1.3-0.3c-0.4-0.2-0.7-0.4-0.9-0.7c-0.2-0.3-0.5-0.8-0.8-1.4C1595.6,552.4,1595.4,551.9,1595.2,551.4z
			 M1582.7,542.7h9.3l-4.7-12.8L1582.7,542.7z"/>
		<path class="st4" d="M1610.5,523.8h8.2c2.1,0,4,0.2,5.5,0.6c1.5,0.4,2.9,1.1,4.2,2.2c3.2,2.8,4.9,7,4.9,12.7
			c0,1.9-0.2,3.6-0.5,5.1c-0.3,1.5-0.8,2.9-1.5,4.2c-0.7,1.2-1.6,2.3-2.6,3.3c-0.8,0.8-1.7,1.4-2.7,1.8c-1,0.5-2.1,0.8-3.2,1
			c-1.1,0.2-2.4,0.3-3.9,0.3h-8.2c-1.1,0-2-0.2-2.6-0.5c-0.6-0.3-1-0.8-1.1-1.5c-0.2-0.6-0.3-1.4-0.3-2.5v-22.8c0-1.4,0.3-2.3,0.9-3
			C1608.1,524.1,1609.1,523.8,1610.5,523.8z M1612.9,528.8v21.1h4.8c1,0,1.9,0,2.5-0.1s1.2-0.2,1.8-0.4c0.6-0.2,1.2-0.5,1.7-1
			c2.1-1.8,3.2-4.9,3.2-9.2c0-3.1-0.5-5.4-1.4-6.9c-0.9-1.5-2.1-2.5-3.4-2.9s-3-0.6-4.9-0.6H1612.9z"/>
	</g>
	
		<rect x="294.2" y="1030.5" transform="matrix(-1 -1.224647e-16 1.224647e-16 -1 648.3297 2085.0071)" class="st5" width="60" height="24"/>
	
		<rect x="432.4" y="1030.5" transform="matrix(-1 -1.224647e-16 1.224647e-16 -1 924.8409 2085.0071)" class="st5" width="60" height="24"/>
	
		<rect x="570.7" y="1030.5" transform="matrix(-1 -1.224647e-16 1.224647e-16 -1 1201.3522 2085.0071)" class="st5" width="60" height="24"/>
	
		<rect x="708.9" y="1030.5" transform="matrix(-1 -1.224647e-16 1.224647e-16 -1 1477.8634 2085.0071)" class="st5" width="60" height="24"/>
	
		<rect x="847.2" y="1030.5" transform="matrix(-1 -1.224647e-16 1.224647e-16 -1 1754.3748 2085.0071)" class="st5" width="60" height="24"/>
	
		<rect x="985.4" y="1030.5" transform="matrix(-1 -1.224647e-16 1.224647e-16 -1 2030.886 2085.0071)" class="st5" width="60" height="24"/>
	
		<rect x="1123.7" y="1030.5" transform="matrix(-1 -1.224647e-16 1.224647e-16 -1 2307.3972 2085.0071)" class="st5" width="60" height="24"/>
	
		<rect x="1262" y="1030.5" transform="matrix(-1 -1.224647e-16 1.224647e-16 -1 2583.9084 2085.0071)" class="st5" width="60" height="24"/>
	<polygon class="st7" points="1837.4,1497.7 1232.5,1497.7 1232.5,821.1 1819.1,821.1 1836.5,1466.5 	"/>
	<g>
		<g>
			<g>
				<line class="st10" x1="1388.5" y1="1520.9" x2="292.3" y2="1520.9"/>
				<g>
					<rect x="1386" y="1504.6" class="st11" width="5" height="32.5"/>
				</g>
				<g>
					<rect x="289.8" y="1504.6" class="st11" width="5" height="32.5"/>
				</g>
			</g>
		</g>
		<g>
			<g>
				<path class="st11" d="M773.4,1540.5L773.4,1540.5l-7.5,5.1v-4.2l7.4-5.3h4.3v28.2h-4.3V1540.5z"/>
				<path class="st11" d="M791.7,1540.5L791.7,1540.5l-7.5,5.1v-4.2l7.4-5.3h4.3v28.2h-4.3V1540.5z"/>
				<path class="st11" d="M807.4,1563c-1.6-1.2-2.8-2.9-3.7-5c-0.9-2.2-1.3-4.8-1.3-7.7v0c0-3,0.4-5.6,1.3-7.7
					c0.9-2.2,2.1-3.9,3.7-5c1.6-1.2,3.5-1.8,5.8-1.8c2.2,0,4.2,0.6,5.8,1.8c1.6,1.2,2.8,2.9,3.7,5c0.9,2.2,1.3,4.8,1.3,7.7v0
					c0,3-0.4,5.6-1.3,7.7c-0.9,2.2-2.1,3.9-3.7,5c-1.6,1.2-3.5,1.8-5.8,1.8C810.9,1564.8,809,1564.2,807.4,1563z M816.6,1559.8
					c0.9-0.9,1.7-2.1,2.2-3.8c0.5-1.6,0.8-3.6,0.8-5.8v0c0-2.3-0.3-4.2-0.8-5.8c-0.5-1.6-1.2-2.9-2.2-3.7c-0.9-0.9-2.1-1.3-3.4-1.3
					c-1.3,0-2.5,0.4-3.4,1.3c-0.9,0.9-1.7,2.1-2.2,3.7c-0.5,1.6-0.7,3.6-0.7,5.8v0c0,2.3,0.2,4.2,0.7,5.8c0.5,1.6,1.2,2.9,2.2,3.8
					c0.9,0.9,2.1,1.3,3.4,1.3C814.5,1561.1,815.6,1560.7,816.6,1559.8z"/>
				<path class="st11" d="M832.4,1563c-1.6-1.2-2.8-2.9-3.7-5c-0.9-2.2-1.3-4.8-1.3-7.7v0c0-3,0.4-5.6,1.3-7.7
					c0.9-2.2,2.1-3.9,3.7-5c1.6-1.2,3.5-1.8,5.8-1.8c2.2,0,4.2,0.6,5.8,1.8c1.6,1.2,2.8,2.9,3.7,5c0.9,2.2,1.3,4.8,1.3,7.7v0
					c0,3-0.4,5.6-1.3,7.7c-0.9,2.2-2.1,3.9-3.7,5c-1.6,1.2-3.5,1.8-5.8,1.8C835.9,1564.8,834,1564.2,832.4,1563z M841.6,1559.8
					c0.9-0.9,1.7-2.1,2.2-3.8c0.5-1.6,0.8-3.6,0.8-5.8v0c0-2.3-0.3-4.2-0.8-5.8c-0.5-1.6-1.2-2.9-2.2-3.7c-0.9-0.9-2.1-1.3-3.4-1.3
					c-1.3,0-2.5,0.4-3.4,1.3c-0.9,0.9-1.7,2.1-2.2,3.7c-0.5,1.6-0.7,3.6-0.7,5.8v0c0,2.3,0.2,4.2,0.7,5.8c0.5,1.6,1.2,2.9,2.2,3.8
					c0.9,0.9,2.1,1.3,3.4,1.3C839.5,1561.1,840.6,1560.7,841.6,1559.8z"/>
				<path class="st11" d="M852.7,1543.8h4.3v3.2h0.1c0.4-1.1,1.2-1.9,2.2-2.6c1-0.7,2.2-1,3.5-1c0.9,0,1.8,0.2,2.5,0.5
					s1.4,0.8,2,1.4s1,1.3,1.2,2.2h0.1c0.4-0.8,0.8-1.6,1.5-2.2c0.6-0.6,1.4-1.1,2.2-1.4c0.8-0.3,1.7-0.5,2.7-0.5
					c1.4,0,2.5,0.3,3.5,0.8c1,0.6,1.8,1.4,2.3,2.4c0.6,1,0.8,2.2,0.8,3.6v14.1h-4.3v-13.1c0-1.3-0.3-2.4-1-3.1
					c-0.7-0.7-1.6-1.1-2.9-1.1c-0.8,0-1.6,0.2-2.2,0.6c-0.6,0.4-1.1,0.9-1.5,1.6c-0.4,0.7-0.5,1.4-0.5,2.3v12.9h-4.2v-13.4
					c0-1.2-0.3-2.1-1-2.8c-0.7-0.7-1.6-1-2.8-1c-0.8,0-1.6,0.2-2.2,0.6c-0.6,0.4-1.1,0.9-1.5,1.6c-0.4,0.7-0.5,1.5-0.5,2.4v12.7
					h-4.3V1543.8z"/>
				<path class="st11" d="M885.7,1543.8h4.3v3.2h0.1c0.4-1.1,1.2-1.9,2.2-2.6c1-0.7,2.2-1,3.5-1c0.9,0,1.8,0.2,2.5,0.5
					s1.4,0.8,2,1.4s1,1.3,1.2,2.2h0.1c0.4-0.8,0.8-1.6,1.5-2.2c0.6-0.6,1.4-1.1,2.2-1.4c0.8-0.3,1.7-0.5,2.7-0.5
					c1.4,0,2.5,0.3,3.5,0.8c1,0.6,1.8,1.4,2.3,2.4c0.6,1,0.8,2.2,0.8,3.6v14.1h-4.3v-13.1c0-1.3-0.3-2.4-1-3.1
					c-0.7-0.7-1.6-1.1-2.9-1.1c-0.8,0-1.6,0.2-2.2,0.6c-0.6,0.4-1.1,0.9-1.5,1.6c-0.4,0.7-0.5,1.4-0.5,2.3v12.9h-4.2v-13.4
					c0-1.2-0.3-2.1-1-2.8c-0.7-0.7-1.6-1-2.8-1c-0.8,0-1.6,0.2-2.2,0.6c-0.6,0.4-1.1,0.9-1.5,1.6c-0.4,0.7-0.5,1.5-0.5,2.4v12.7
					h-4.3V1543.8z"/>
			</g>
		</g>
	</g>
	<g>
		<g>
			<g>
				<line class="st10" x1="1835.5" y1="1520.9" x2="1388.4" y2="1520.9"/>
				<g>
					<rect x="1833" y="1504.6" class="st11" width="5" height="32.5"/>
				</g>
				<g>
					<rect x="1385.9" y="1504.6" class="st11" width="5" height="32.5"/>
				</g>
			</g>
		</g>
		<g>
			<g>
				<path class="st11" d="M1557.2,1558.7h-14.1v-3.8c0.8-1.2,1.6-2.5,2.4-3.8s1.6-2.5,2.4-3.8s1.6-2.5,2.4-3.8
					c0.8-1.2,1.6-2.5,2.4-3.8s1.6-2.5,2.4-3.8h6.3v18.9h3.9v3.7h-3.9v5.6h-4.2V1558.7z M1557.2,1555.1v-15.5h-0.1
					c-0.7,1-1.3,2.1-2,3.1c-0.7,1-1.3,2-2,3.1c-0.7,1-1.3,2-2,3.1c-0.7,1-1.3,2.1-2,3.1c-0.7,1-1.3,2-2,3.1v0.1H1557.2z"/>
				<path class="st11" d="M1582,1558.7h-14.1v-3.8c0.8-1.2,1.6-2.5,2.4-3.8s1.6-2.5,2.4-3.8s1.6-2.5,2.4-3.8
					c0.8-1.2,1.6-2.5,2.4-3.8s1.6-2.5,2.4-3.8h6.3v18.9h3.9v3.7h-3.9v5.6h-4.2V1558.7z M1582,1555.1v-15.5h-0.1
					c-0.7,1-1.3,2.1-2,3.1c-0.7,1-1.3,2-2,3.1c-0.7,1-1.3,2-2,3.1c-0.7,1-1.3,2.1-2,3.1c-0.7,1-1.3,2-2,3.1v0.1H1582z"/>
				<path class="st11" d="M1597.9,1563c-1.6-1.2-2.8-2.9-3.7-5c-0.9-2.2-1.3-4.8-1.3-7.7v0c0-3,0.4-5.6,1.3-7.7
					c0.9-2.2,2.1-3.9,3.7-5c1.6-1.2,3.5-1.8,5.8-1.8c2.2,0,4.2,0.6,5.8,1.8c1.6,1.2,2.8,2.9,3.7,5c0.9,2.2,1.3,4.8,1.3,7.7v0
					c0,3-0.4,5.6-1.3,7.7c-0.9,2.2-2.1,3.9-3.7,5c-1.6,1.2-3.5,1.8-5.8,1.8C1601.5,1564.8,1599.5,1564.2,1597.9,1563z
					 M1607.1,1559.8c0.9-0.9,1.7-2.1,2.2-3.8c0.5-1.6,0.8-3.6,0.8-5.8v0c0-2.3-0.3-4.2-0.8-5.8c-0.5-1.6-1.2-2.9-2.2-3.7
					c-0.9-0.9-2.1-1.3-3.4-1.3c-1.3,0-2.5,0.4-3.4,1.3c-0.9,0.9-1.7,2.1-2.2,3.7c-0.5,1.6-0.7,3.6-0.7,5.8v0c0,2.3,0.2,4.2,0.7,5.8
					c0.5,1.6,1.2,2.9,2.2,3.8c0.9,0.9,2.1,1.3,3.4,1.3C1605,1561.1,1606.2,1560.7,1607.1,1559.8z"/>
				<path class="st11" d="M1618.3,1543.8h4.3v3.2h0.1c0.4-1.1,1.2-1.9,2.2-2.6c1-0.7,2.2-1,3.5-1c0.9,0,1.8,0.2,2.5,0.5
					s1.4,0.8,2,1.4s1,1.3,1.2,2.2h0.1c0.4-0.8,0.8-1.6,1.5-2.2c0.6-0.6,1.4-1.1,2.2-1.4c0.8-0.3,1.7-0.5,2.7-0.5
					c1.4,0,2.5,0.3,3.5,0.8c1,0.6,1.8,1.4,2.3,2.4c0.6,1,0.8,2.2,0.8,3.6v14.1h-4.3v-13.1c0-1.3-0.3-2.4-1-3.1
					c-0.7-0.7-1.6-1.1-2.9-1.1c-0.8,0-1.6,0.2-2.2,0.6c-0.6,0.4-1.1,0.9-1.5,1.6c-0.4,0.7-0.5,1.4-0.5,2.3v12.9h-4.2v-13.4
					c0-1.2-0.3-2.1-1-2.8c-0.7-0.7-1.6-1-2.8-1c-0.8,0-1.6,0.2-2.2,0.6c-0.6,0.4-1.1,0.9-1.5,1.6c-0.4,0.7-0.5,1.5-0.5,2.4v12.7
					h-4.3V1543.8z"/>
				<path class="st11" d="M1651.3,1543.8h4.3v3.2h0.1c0.4-1.1,1.2-1.9,2.2-2.6c1-0.7,2.2-1,3.5-1c0.9,0,1.8,0.2,2.5,0.5
					s1.4,0.8,2,1.4s1,1.3,1.2,2.2h0.1c0.4-0.8,0.8-1.6,1.5-2.2c0.6-0.6,1.4-1.1,2.2-1.4c0.8-0.3,1.7-0.5,2.7-0.5
					c1.4,0,2.5,0.3,3.5,0.8c1,0.6,1.8,1.4,2.3,2.4c0.6,1,0.8,2.2,0.8,3.6v14.1h-4.3v-13.1c0-1.3-0.3-2.4-1-3.1
					c-0.7-0.7-1.6-1.1-2.9-1.1c-0.8,0-1.6,0.2-2.2,0.6c-0.6,0.4-1.1,0.9-1.5,1.6c-0.4,0.7-0.5,1.4-0.5,2.3v12.9h-4.2v-13.4
					c0-1.2-0.3-2.1-1-2.8c-0.7-0.7-1.6-1-2.8-1c-0.8,0-1.6,0.2-2.2,0.6c-0.6,0.4-1.1,0.9-1.5,1.6c-0.4,0.7-0.5,1.5-0.5,2.4v12.7
					h-4.3V1543.8z"/>
			</g>
		</g>
	</g>
	<g>
		<g>
			<g>
				<line class="st10" x1="1739.4" y1="166" x2="1394.9" y2="166"/>
				<g>
					<rect x="1736.9" y="149.8" class="st11" width="5" height="32.5"/>
				</g>
				<g>
					<rect x="1392.4" y="149.8" class="st11" width="5" height="32.5"/>
				</g>
			</g>
		</g>
		<g>
			<g>
				<path class="st11" d="M1504.2,158.4c-1.5-0.7-2.7-1.6-3.6-2.8c-0.9-1.2-1.4-2.6-1.5-4.1l0-0.2h4.2l0,0.2
					c0.1,1.2,0.7,2.3,1.8,3.1c1.1,0.8,2.5,1.2,4.3,1.2c1.1,0,2.2-0.2,3-0.6c0.9-0.4,1.5-0.9,2-1.7c0.5-0.7,0.7-1.5,0.7-2.4v0
					c0-1.6-0.5-2.8-1.6-3.7c-1.1-0.9-2.6-1.3-4.4-1.3h-3.4v-3.4h3.3c1.1,0,2-0.2,2.8-0.6c0.8-0.4,1.4-0.9,1.9-1.6
					c0.4-0.7,0.7-1.5,0.7-2.3v0c0-0.9-0.2-1.7-0.6-2.3c-0.4-0.6-1-1.1-1.7-1.5c-0.7-0.3-1.7-0.5-2.7-0.5c-1,0-2,0.2-2.8,0.5
					c-0.8,0.3-1.5,0.8-1.9,1.5c-0.5,0.6-0.8,1.4-0.9,2.3l0,0.2h-4.1l0-0.2c0.2-1.6,0.7-2.9,1.5-4.1s2-2.1,3.4-2.7c1.4-0.6,3-1,4.9-1
					c1.9,0,3.5,0.3,4.9,0.9c1.4,0.6,2.5,1.5,3.2,2.6c0.8,1.1,1.2,2.4,1.2,3.8v0c0,1.2-0.3,2.2-0.8,3.1c-0.5,0.9-1.2,1.6-2.1,2.2
					c-0.9,0.6-1.9,1-3.1,1.2v0.1c2.1,0.2,3.7,0.9,5,2.1c1.3,1.2,1.9,2.8,1.9,4.8v0c0,1.6-0.4,3-1.3,4.3c-0.9,1.2-2.1,2.2-3.6,2.9
					c-1.5,0.7-3.3,1.1-5.3,1.1C1507.5,159.4,1505.7,159.1,1504.2,158.4z"/>
				<path class="st11" d="M1528.4,158.4c-1.5-0.7-2.7-1.6-3.6-2.8c-0.9-1.2-1.4-2.6-1.5-4.1l0-0.2h4.2l0,0.2
					c0.1,1.2,0.7,2.3,1.8,3.1c1.1,0.8,2.5,1.2,4.3,1.2c1.1,0,2.2-0.2,3-0.6c0.9-0.4,1.5-0.9,2-1.7c0.5-0.7,0.7-1.5,0.7-2.4v0
					c0-1.6-0.5-2.8-1.6-3.7c-1.1-0.9-2.6-1.3-4.4-1.3h-3.4v-3.4h3.3c1.1,0,2-0.2,2.8-0.6c0.8-0.4,1.4-0.9,1.9-1.6
					c0.4-0.7,0.7-1.5,0.7-2.3v0c0-0.9-0.2-1.7-0.6-2.3c-0.4-0.6-1-1.1-1.7-1.5c-0.7-0.3-1.7-0.5-2.7-0.5c-1,0-2,0.2-2.8,0.5
					c-0.8,0.3-1.5,0.8-1.9,1.5c-0.5,0.6-0.8,1.4-0.9,2.3l0,0.2h-4.1l0-0.2c0.2-1.6,0.7-2.9,1.5-4.1s2-2.1,3.4-2.7c1.4-0.6,3-1,4.9-1
					c1.9,0,3.5,0.3,4.9,0.9c1.4,0.6,2.5,1.5,3.2,2.6c0.8,1.1,1.2,2.4,1.2,3.8v0c0,1.2-0.3,2.2-0.8,3.1c-0.5,0.9-1.2,1.6-2.1,2.2
					c-0.9,0.6-1.9,1-3.1,1.2v0.1c2.1,0.2,3.7,0.9,5,2.1c1.3,1.2,1.9,2.8,1.9,4.8v0c0,1.6-0.4,3-1.3,4.3c-0.9,1.2-2.1,2.2-3.6,2.9
					c-1.5,0.7-3.3,1.1-5.3,1.1C1531.7,159.4,1529.9,159.1,1528.4,158.4z"/>
				<path class="st11" d="M1552.6,157.6c-1.6-1.2-2.8-2.9-3.7-5c-0.9-2.2-1.3-4.8-1.3-7.7v0c0-3,0.4-5.6,1.3-7.7
					c0.9-2.2,2.1-3.9,3.7-5c1.6-1.2,3.5-1.8,5.8-1.8c2.2,0,4.2,0.6,5.8,1.8c1.6,1.2,2.8,2.9,3.7,5c0.9,2.2,1.3,4.8,1.3,7.7v0
					c0,3-0.4,5.6-1.3,7.7c-0.9,2.2-2.1,3.9-3.7,5c-1.6,1.2-3.5,1.8-5.8,1.8C1556.1,159.4,1554.2,158.8,1552.6,157.6z M1561.8,154.4
					c0.9-0.9,1.7-2.1,2.2-3.8c0.5-1.6,0.8-3.6,0.8-5.8v0c0-2.3-0.2-4.2-0.8-5.8c-0.5-1.6-1.2-2.9-2.2-3.7c-0.9-0.9-2.1-1.3-3.4-1.3
					c-1.3,0-2.5,0.4-3.4,1.3c-0.9,0.9-1.7,2.1-2.2,3.7c-0.5,1.6-0.7,3.6-0.7,5.8v0c0,2.3,0.2,4.2,0.7,5.8c0.5,1.6,1.2,2.9,2.2,3.8
					c0.9,0.9,2.1,1.3,3.4,1.3C1559.7,155.7,1560.8,155.3,1561.8,154.4z"/>
				<path class="st11" d="M1572.9,138.4h4.3v3.2h0.1c0.4-1.1,1.2-1.9,2.2-2.6c1-0.7,2.2-1,3.5-1c0.9,0,1.8,0.2,2.5,0.5
					s1.4,0.8,2,1.4s1,1.3,1.2,2.2h0.1c0.4-0.8,0.8-1.6,1.5-2.2c0.6-0.6,1.4-1.1,2.2-1.4c0.8-0.3,1.7-0.5,2.7-0.5
					c1.4,0,2.5,0.3,3.5,0.8c1,0.6,1.8,1.4,2.3,2.4c0.6,1,0.8,2.2,0.8,3.6v14.1h-4.3v-13.1c0-1.3-0.3-2.4-1-3.1
					c-0.7-0.7-1.6-1.1-2.9-1.1c-0.8,0-1.6,0.2-2.2,0.6c-0.6,0.4-1.1,0.9-1.5,1.6c-0.4,0.7-0.5,1.4-0.5,2.3v12.9h-4.2v-13.4
					c0-1.2-0.3-2.1-1-2.8c-0.7-0.7-1.6-1-2.8-1c-0.8,0-1.6,0.2-2.2,0.6c-0.6,0.4-1.1,0.9-1.5,1.6c-0.4,0.7-0.5,1.5-0.5,2.4v12.7
					h-4.3V138.4z"/>
				<path class="st11" d="M1605.9,138.4h4.3v3.2h0.1c0.4-1.1,1.2-1.9,2.2-2.6c1-0.7,2.2-1,3.5-1c0.9,0,1.8,0.2,2.5,0.5
					s1.4,0.8,2,1.4s1,1.3,1.2,2.2h0.1c0.4-0.8,0.8-1.6,1.5-2.2c0.6-0.6,1.4-1.1,2.2-1.4c0.8-0.3,1.7-0.5,2.7-0.5
					c1.4,0,2.5,0.3,3.5,0.8c1,0.6,1.8,1.4,2.3,2.4c0.6,1,0.8,2.2,0.8,3.6v14.1h-4.3v-13.1c0-1.3-0.3-2.4-1-3.1
					c-0.7-0.7-1.6-1.1-2.9-1.1c-0.8,0-1.6,0.2-2.2,0.6c-0.6,0.4-1.1,0.9-1.5,1.6c-0.4,0.7-0.5,1.4-0.5,2.3v12.9h-4.2v-13.4
					c0-1.2-0.3-2.1-1-2.8c-0.7-0.7-1.6-1-2.8-1c-0.8,0-1.6,0.2-2.2,0.6c-0.6,0.4-1.1,0.9-1.5,1.6c-0.4,0.7-0.5,1.5-0.5,2.4v12.7
					h-4.3V138.4z"/>
			</g>
		</g>
	</g>
	<g>
		<g>
			<g>
				<line class="st10" x1="1384" y1="764.1" x2="299" y2="764.1"/>
				<g>
					<rect x="1381.5" y="747.9" class="st11" width="5" height="32.5"/>
				</g>
				<g>
					<rect x="296.5" y="747.9" class="st11" width="5" height="32.5"/>
				</g>
			</g>
		</g>
		<g>
			<g>
				<path class="st11" d="M774.5,733.2L774.5,733.2l-7.5,5.1v-4.2l7.4-5.3h4.3V757h-4.3V733.2z"/>
				<path class="st11" d="M792.8,733.2L792.8,733.2l-7.5,5.1v-4.2l7.4-5.3h4.3V757h-4.3V733.2z"/>
				<path class="st11" d="M808.5,755.7c-1.6-1.2-2.8-2.9-3.7-5c-0.9-2.2-1.3-4.8-1.3-7.7v0c0-3,0.4-5.6,1.3-7.7
					c0.9-2.2,2.1-3.9,3.7-5c1.6-1.2,3.5-1.8,5.8-1.8c2.2,0,4.2,0.6,5.8,1.8c1.6,1.2,2.8,2.9,3.7,5c0.9,2.2,1.3,4.8,1.3,7.7v0
					c0,3-0.4,5.6-1.3,7.7c-0.9,2.2-2.1,3.9-3.7,5c-1.6,1.2-3.5,1.8-5.8,1.8C812,757.5,810.1,756.9,808.5,755.7z M817.7,752.5
					c0.9-0.9,1.7-2.1,2.2-3.8c0.5-1.6,0.8-3.6,0.8-5.8v0c0-2.3-0.3-4.2-0.8-5.8c-0.5-1.6-1.2-2.9-2.2-3.7c-0.9-0.9-2.1-1.3-3.4-1.3
					c-1.3,0-2.5,0.4-3.4,1.3c-0.9,0.9-1.7,2.1-2.2,3.7c-0.5,1.6-0.7,3.6-0.7,5.8v0c0,2.3,0.2,4.2,0.7,5.8c0.5,1.6,1.2,2.9,2.2,3.8
					c0.9,0.9,2.1,1.3,3.4,1.3C815.6,753.8,816.7,753.4,817.7,752.5z"/>
				<path class="st11" d="M833.4,755.7c-1.6-1.2-2.8-2.9-3.7-5c-0.9-2.2-1.3-4.8-1.3-7.7v0c0-3,0.4-5.6,1.3-7.7
					c0.9-2.2,2.1-3.9,3.7-5c1.6-1.2,3.5-1.8,5.8-1.8c2.2,0,4.2,0.6,5.8,1.8c1.6,1.2,2.8,2.9,3.7,5c0.9,2.2,1.3,4.8,1.3,7.7v0
					c0,3-0.4,5.6-1.3,7.7c-0.9,2.2-2.1,3.9-3.7,5c-1.6,1.2-3.5,1.8-5.8,1.8C837,757.5,835.1,756.9,833.4,755.7z M842.6,752.5
					c0.9-0.9,1.7-2.1,2.2-3.8c0.5-1.6,0.8-3.6,0.8-5.8v0c0-2.3-0.3-4.2-0.8-5.8c-0.5-1.6-1.2-2.9-2.2-3.7c-0.9-0.9-2.1-1.3-3.4-1.3
					c-1.3,0-2.5,0.4-3.4,1.3c-0.9,0.9-1.7,2.1-2.2,3.7c-0.5,1.6-0.7,3.6-0.7,5.8v0c0,2.3,0.2,4.2,0.7,5.8c0.5,1.6,1.2,2.9,2.2,3.8
					c0.9,0.9,2.1,1.3,3.4,1.3C840.6,753.8,841.7,753.4,842.6,752.5z"/>
				<path class="st11" d="M853.8,736.5h4.3v3.2h0.1c0.4-1.1,1.2-1.9,2.2-2.6c1-0.7,2.2-1,3.5-1c0.9,0,1.8,0.2,2.5,0.5s1.4,0.8,2,1.4
					s1,1.3,1.2,2.2h0.1c0.4-0.8,0.8-1.6,1.5-2.2c0.6-0.6,1.4-1.1,2.2-1.4c0.8-0.3,1.7-0.5,2.7-0.5c1.4,0,2.5,0.3,3.5,0.8
					c1,0.6,1.8,1.4,2.3,2.4c0.6,1,0.8,2.2,0.8,3.6V757h-4.3v-13.1c0-1.3-0.3-2.4-1-3.1c-0.7-0.7-1.6-1.1-2.9-1.1
					c-0.8,0-1.6,0.2-2.2,0.6c-0.6,0.4-1.1,0.9-1.5,1.6c-0.4,0.7-0.5,1.4-0.5,2.3V757h-4.2v-13.4c0-1.2-0.3-2.1-1-2.8
					c-0.7-0.7-1.6-1-2.8-1c-0.8,0-1.6,0.2-2.2,0.6c-0.6,0.4-1.1,0.9-1.5,1.6c-0.4,0.7-0.5,1.5-0.5,2.4V757h-4.3V736.5z"/>
				<path class="st11" d="M886.8,736.5h4.3v3.2h0.1c0.4-1.1,1.2-1.9,2.2-2.6c1-0.7,2.2-1,3.5-1c0.9,0,1.8,0.2,2.5,0.5s1.4,0.8,2,1.4
					s1,1.3,1.2,2.2h0.1c0.4-0.8,0.8-1.6,1.5-2.2c0.6-0.6,1.4-1.1,2.2-1.4c0.8-0.3,1.7-0.5,2.7-0.5c1.4,0,2.5,0.3,3.5,0.8
					c1,0.6,1.8,1.4,2.3,2.4c0.6,1,0.8,2.2,0.8,3.6V757h-4.3v-13.1c0-1.3-0.3-2.4-1-3.1c-0.7-0.7-1.6-1.1-2.9-1.1
					c-0.8,0-1.6,0.2-2.2,0.6c-0.6,0.4-1.1,0.9-1.5,1.6c-0.4,0.7-0.5,1.4-0.5,2.3V757h-4.2v-13.4c0-1.2-0.3-2.1-1-2.8
					c-0.7-0.7-1.6-1-2.8-1c-0.8,0-1.6,0.2-2.2,0.6c-0.6,0.4-1.1,0.9-1.5,1.6c-0.4,0.7-0.5,1.5-0.5,2.4V757h-4.3V736.5z"/>
			</g>
		</g>
	</g>
	<g>
		<g>
			<g>
				<line class="st10" x1="1835.5" y1="1583" x2="1234.1" y2="1583"/>
				<g>
					<rect x="1833" y="1566.7" class="st11" width="5" height="32.5"/>
				</g>
				<g>
					<rect x="1231.6" y="1566.7" class="st11" width="5" height="32.5"/>
				</g>
			</g>
		</g>
		<g>
			<g>
				<path class="st11" d="M1472.8,1636.1c-1.3-0.5-2.5-1.4-3.6-2.5c-1-1.1-1.9-2.6-2.5-4.4c-0.6-1.8-0.9-4-0.9-6.5v0
					c0-3.1,0.4-5.8,1.3-8.1c0.9-2.2,2.2-3.9,3.9-5.1c1.7-1.2,3.7-1.8,6-1.8c1.7,0,3.2,0.3,4.5,0.9c1.3,0.6,2.5,1.4,3.4,2.5
					c0.9,1.1,1.5,2.3,1.8,3.7l0,0.2h-4.4l-0.1-0.2c-0.2-0.7-0.6-1.3-1.1-1.8c-0.5-0.5-1.1-0.9-1.8-1.2c-0.7-0.3-1.5-0.4-2.4-0.4
					c-1.6,0-2.9,0.5-3.9,1.4c-1,0.9-1.8,2.2-2.2,3.7s-0.8,3.3-0.8,5.1c0,0.1,0,0.3,0,0.4c0,0.1,0,0.3,0,0.5l0.8,4.6
					c0,1.1,0.3,2.1,0.8,3c0.5,0.9,1.2,1.6,2.1,2.1c0.9,0.5,1.9,0.8,3,0.8c1.1,0,2.1-0.3,3-0.8c0.9-0.5,1.6-1.2,2.2-2.1
					c0.5-0.9,0.8-1.9,0.8-3v0c0-1.1-0.3-2.1-0.8-3c-0.5-0.9-1.2-1.6-2.1-2.1c-0.9-0.5-1.9-0.8-3-0.8s-2.2,0.2-3.1,0.7
					c-0.9,0.5-1.6,1.2-2.2,2c-0.5,0.9-0.8,1.9-0.8,3v0h-1.2v-4.8h0.4c0.4-0.8,0.9-1.6,1.7-2.3s1.6-1.2,2.7-1.6
					c1-0.4,2.2-0.6,3.5-0.6c1.8,0,3.4,0.4,4.8,1.2c1.4,0.8,2.5,1.9,3.3,3.3c0.8,1.4,1.2,3,1.2,4.8v0c0,1.9-0.4,3.5-1.3,5
					c-0.9,1.5-2.1,2.6-3.7,3.4c-1.5,0.8-3.3,1.2-5.3,1.2C1475.5,1636.9,1474.2,1636.6,1472.8,1636.1z"/>
				<path class="st11" d="M1496.1,1635.1c-1.6-1.2-2.8-2.9-3.7-5c-0.9-2.2-1.3-4.8-1.3-7.7v0c0-3,0.4-5.6,1.3-7.7
					c0.9-2.2,2.1-3.9,3.7-5c1.6-1.2,3.5-1.8,5.8-1.8c2.2,0,4.2,0.6,5.8,1.8c1.6,1.2,2.8,2.9,3.7,5c0.9,2.2,1.3,4.8,1.3,7.7v0
					c0,3-0.4,5.6-1.3,7.7c-0.9,2.2-2.1,3.9-3.7,5c-1.6,1.2-3.5,1.8-5.8,1.8C1499.6,1636.9,1497.7,1636.3,1496.1,1635.1z
					 M1505.3,1631.9c0.9-0.9,1.7-2.1,2.2-3.8c0.5-1.6,0.8-3.6,0.8-5.8v0c0-2.3-0.3-4.2-0.8-5.8c-0.5-1.6-1.2-2.9-2.2-3.7
					c-0.9-0.9-2.1-1.3-3.4-1.3c-1.3,0-2.5,0.4-3.4,1.3c-0.9,0.9-1.7,2.1-2.2,3.7c-0.5,1.6-0.7,3.6-0.7,5.8v0c0,2.3,0.2,4.2,0.7,5.8
					c0.5,1.6,1.2,2.9,2.2,3.8c0.9,0.9,2.1,1.3,3.4,1.3C1503.2,1633.2,1504.3,1632.8,1505.3,1631.9z"/>
				<path class="st11" d="M1521.1,1635.1c-1.6-1.2-2.8-2.9-3.7-5c-0.9-2.2-1.3-4.8-1.3-7.7v0c0-3,0.4-5.6,1.3-7.7
					c0.9-2.2,2.1-3.9,3.7-5c1.6-1.2,3.5-1.8,5.8-1.8c2.2,0,4.2,0.6,5.8,1.8c1.6,1.2,2.8,2.9,3.7,5c0.9,2.2,1.3,4.8,1.3,7.7v0
					c0,3-0.4,5.6-1.3,7.7c-0.9,2.2-2.1,3.9-3.7,5c-1.6,1.2-3.5,1.8-5.8,1.8C1524.6,1636.9,1522.7,1636.3,1521.1,1635.1z
					 M1530.3,1631.9c0.9-0.9,1.7-2.1,2.2-3.8c0.5-1.6,0.8-3.6,0.8-5.8v0c0-2.3-0.3-4.2-0.8-5.8c-0.5-1.6-1.2-2.9-2.2-3.7
					c-0.9-0.9-2.1-1.3-3.4-1.3c-1.3,0-2.5,0.4-3.4,1.3c-0.9,0.9-1.7,2.1-2.2,3.7c-0.5,1.6-0.7,3.6-0.7,5.8v0c0,2.3,0.2,4.2,0.7,5.8
					c0.5,1.6,1.2,2.9,2.2,3.8c0.9,0.9,2.1,1.3,3.4,1.3C1528.2,1633.2,1529.3,1632.8,1530.3,1631.9z"/>
				<path class="st11" d="M1541.4,1615.9h4.3v3.2h0.1c0.4-1.1,1.2-1.9,2.2-2.6c1-0.7,2.2-1,3.5-1c0.9,0,1.8,0.2,2.5,0.5
					s1.4,0.8,2,1.4s1,1.3,1.2,2.2h0.1c0.4-0.8,0.8-1.6,1.5-2.2c0.6-0.6,1.4-1.1,2.2-1.4c0.8-0.3,1.7-0.5,2.7-0.5
					c1.4,0,2.5,0.3,3.5,0.8c1,0.6,1.8,1.4,2.3,2.4c0.6,1,0.8,2.2,0.8,3.6v14.1h-4.3v-13.1c0-1.3-0.3-2.4-1-3.1
					c-0.7-0.7-1.6-1.1-2.9-1.1c-0.8,0-1.6,0.2-2.2,0.6c-0.6,0.4-1.1,0.9-1.5,1.6c-0.4,0.7-0.5,1.4-0.5,2.3v12.9h-4.2V1623
					c0-1.2-0.3-2.1-1-2.8c-0.7-0.7-1.6-1-2.8-1c-0.8,0-1.6,0.2-2.2,0.6c-0.6,0.4-1.1,0.9-1.5,1.6c-0.4,0.7-0.5,1.5-0.5,2.4v12.7
					h-4.3V1615.9z"/>
				<path class="st11" d="M1574.4,1615.9h4.3v3.2h0.1c0.4-1.1,1.2-1.9,2.2-2.6c1-0.7,2.2-1,3.5-1c0.9,0,1.8,0.2,2.5,0.5
					s1.4,0.8,2,1.4s1,1.3,1.2,2.2h0.1c0.4-0.8,0.8-1.6,1.5-2.2c0.6-0.6,1.4-1.1,2.2-1.4c0.8-0.3,1.7-0.5,2.7-0.5
					c1.4,0,2.5,0.3,3.5,0.8c1,0.6,1.8,1.4,2.3,2.4c0.6,1,0.8,2.2,0.8,3.6v14.1h-4.3v-13.1c0-1.3-0.3-2.4-1-3.1
					c-0.7-0.7-1.6-1.1-2.9-1.1c-0.8,0-1.6,0.2-2.2,0.6c-0.6,0.4-1.1,0.9-1.5,1.6c-0.4,0.7-0.5,1.4-0.5,2.3v12.9h-4.2V1623
					c0-1.2-0.3-2.1-1-2.8c-0.7-0.7-1.6-1-2.8-1c-0.8,0-1.6,0.2-2.2,0.6c-0.6,0.4-1.1,0.9-1.5,1.6c-0.4,0.7-0.5,1.5-0.5,2.4v12.7
					h-4.3V1615.9z"/>
			</g>
		</g>
	</g>
	<g>
		<g>
			<g>
				<line class="st10" x1="247.8" y1="1101.9" x2="247.8" y2="1495.7"/>
				<g>
					<rect x="231.5" y="1099.4" class="st11" width="32.5" height="5"/>
				</g>
				<g>
					<rect x="231.5" y="1493.2" class="st11" width="32.5" height="5"/>
				</g>
			</g>
		</g>
		<g>
			<g>
				<path class="st11" d="M219.2,1353.1v14.1h-3.8c-1.2-0.8-2.5-1.6-3.8-2.4s-2.5-1.6-3.8-2.4s-2.5-1.6-3.8-2.4
					c-1.2-0.8-2.5-1.6-3.8-2.4s-2.5-1.6-3.8-2.4v-6.3h18.9v-3.9h3.7v3.9h5.6v4.2H219.2z M215.6,1353.1h-15.5v0.1
					c1,0.7,2.1,1.3,3.1,2c1,0.7,2,1.3,3.1,2c1,0.7,2,1.3,3.1,2c1,0.7,2.1,1.3,3.1,2c1,0.7,2,1.3,3.1,2h0.1V1353.1z"/>
				<path class="st11" d="M223.5,1337.2c-1.2,1.6-2.9,2.8-5,3.7c-2.2,0.9-4.8,1.3-7.7,1.3h0c-3,0-5.6-0.4-7.7-1.3
					c-2.2-0.9-3.9-2.1-5-3.7c-1.2-1.6-1.8-3.5-1.8-5.8c0-2.2,0.6-4.2,1.8-5.8c1.2-1.6,2.9-2.8,5-3.7c2.2-0.9,4.8-1.3,7.7-1.3h0
					c3,0,5.6,0.4,7.7,1.3c2.2,0.9,3.9,2.1,5,3.7c1.2,1.6,1.8,3.5,1.8,5.8C225.2,1333.6,224.6,1335.6,223.5,1337.2z M220.3,1328
					c-0.9-0.9-2.1-1.7-3.8-2.2c-1.6-0.5-3.6-0.8-5.8-0.8h0c-2.3,0-4.2,0.3-5.8,0.8c-1.6,0.5-2.9,1.2-3.7,2.2
					c-0.9,0.9-1.3,2.1-1.3,3.4c0,1.3,0.4,2.5,1.3,3.4c0.9,0.9,2.1,1.7,3.7,2.2c1.6,0.5,3.6,0.7,5.8,0.7h0c2.3,0,4.2-0.2,5.8-0.7
					c1.6-0.5,2.9-1.2,3.8-2.2c0.9-0.9,1.3-2.1,1.3-3.4C221.6,1330.1,221.1,1328.9,220.3,1328z"/>
				<path class="st11" d="M224.2,1311.6c-0.7,1.5-1.7,2.6-2.9,3.5c-1.2,0.9-2.6,1.4-4.1,1.5l-0.2,0v-4.2l0.1,0
					c0.8-0.1,1.6-0.5,2.3-1s1.2-1.2,1.6-2c0.4-0.8,0.6-1.8,0.6-2.8c0-1.2-0.3-2.2-0.8-3.1c-0.5-0.9-1.2-1.6-2.1-2.1
					s-1.9-0.8-3.1-0.8h0c-1.1,0-2.2,0.3-3,0.8c-0.9,0.5-1.6,1.2-2.1,2.1s-0.8,1.9-0.8,3.1c0,0.9,0.1,1.7,0.4,2.4s0.6,1.4,1.1,2
					c0.2,0.2,0.5,0.5,0.7,0.7c0.3,0.2,0.6,0.4,0.9,0.6v3.8l-16.2-1.4v-16.8h3.7v13.3l8.9,0.9v-0.1c-1-0.6-1.7-1.5-2.2-2.6
					c-0.5-1.1-0.8-2.4-0.8-3.8c0-1.8,0.4-3.4,1.2-4.8c0.8-1.4,1.9-2.5,3.3-3.3c1.4-0.8,3-1.2,4.8-1.2h0c1.9,0,3.6,0.4,5,1.3
					c1.5,0.9,2.6,2.1,3.4,3.7c0.8,1.6,1.2,3.3,1.2,5.4C225.2,1308.5,224.9,1310.2,224.2,1311.6z"/>
				<path class="st11" d="M204.2,1292.8v-4.3h3.2v-0.1c-1.1-0.4-1.9-1.2-2.6-2.2c-0.7-1-1-2.2-1-3.5c0-0.9,0.2-1.8,0.5-2.5
					s0.8-1.4,1.4-2s1.3-1,2.2-1.2v-0.1c-0.8-0.4-1.6-0.8-2.2-1.5c-0.6-0.6-1.1-1.4-1.4-2.2c-0.3-0.8-0.5-1.7-0.5-2.7
					c0-1.4,0.3-2.5,0.8-3.5c0.6-1,1.4-1.8,2.4-2.3c1-0.6,2.2-0.8,3.6-0.8h14.1v4.3h-13.1c-1.3,0-2.4,0.3-3.1,1
					c-0.7,0.7-1.1,1.6-1.1,2.9c0,0.8,0.2,1.6,0.6,2.2c0.4,0.6,0.9,1.1,1.6,1.5c0.7,0.4,1.4,0.5,2.3,0.5h12.9v4.2h-13.4
					c-1.2,0-2.1,0.3-2.8,1c-0.7,0.7-1,1.6-1,2.8c0,0.8,0.2,1.6,0.6,2.2c0.4,0.6,0.9,1.1,1.6,1.5c0.7,0.4,1.5,0.5,2.4,0.5h12.7v4.3
					H204.2z"/>
				<path class="st11" d="M204.2,1259.8v-4.3h3.2v-0.1c-1.1-0.4-1.9-1.2-2.6-2.2c-0.7-1-1-2.2-1-3.5c0-0.9,0.2-1.8,0.5-2.5
					s0.8-1.4,1.4-2s1.3-1,2.2-1.2v-0.1c-0.8-0.4-1.6-0.8-2.2-1.5c-0.6-0.6-1.1-1.4-1.4-2.2c-0.3-0.8-0.5-1.7-0.5-2.7
					c0-1.4,0.3-2.5,0.8-3.5c0.6-1,1.4-1.8,2.4-2.3c1-0.6,2.2-0.8,3.6-0.8h14.1v4.3h-13.1c-1.3,0-2.4,0.3-3.1,1
					c-0.7,0.7-1.1,1.6-1.1,2.9c0,0.8,0.2,1.6,0.6,2.2c0.4,0.6,0.9,1.1,1.6,1.5c0.7,0.4,1.4,0.5,2.3,0.5h12.9v4.2h-13.4
					c-1.2,0-2.1,0.3-2.8,1c-0.7,0.7-1,1.6-1,2.8c0,0.8,0.2,1.6,0.6,2.2c0.4,0.6,0.9,1.1,1.6,1.5c0.7,0.4,1.5,0.5,2.4,0.5h12.7v4.3
					H204.2z"/>
			</g>
		</g>
	</g>
	<g>
		<g>
			<g>
				<line class="st10" x1="1864.7" y1="793.4" x2="1864.7" y2="1495.7"/>
				<g>
					<rect x="1848.4" y="790.9" class="st11" width="32.5" height="5"/>
				</g>
				<g>
					<rect x="1848.4" y="1493.2" class="st11" width="32.5" height="5"/>
				</g>
			</g>
		</g>
		<g>
			<g>
				<path class="st11" d="M1895,1197.4L1895,1197.4l-0.1,14.9h-3.7v-19.2h3.8l24.4,12.3v4.6L1895,1197.4z"/>
				<path class="st11" d="M1918,1184.7c-1.2,1.6-2.9,2.8-5,3.7c-2.2,0.9-4.8,1.3-7.7,1.3h0c-3,0-5.6-0.4-7.7-1.3
					c-2.2-0.9-3.9-2.1-5-3.7c-1.2-1.6-1.8-3.5-1.8-5.8c0-2.2,0.6-4.2,1.8-5.8c1.2-1.6,2.9-2.8,5-3.7c2.2-0.9,4.8-1.3,7.7-1.3h0
					c3,0,5.6,0.4,7.7,1.3c2.2,0.9,3.9,2.1,5,3.7c1.2,1.6,1.8,3.5,1.8,5.8C1919.8,1181.2,1919.2,1183.1,1918,1184.7z M1914.8,1175.5
					c-0.9-0.9-2.1-1.7-3.8-2.2c-1.6-0.5-3.6-0.8-5.8-0.8h0c-2.3,0-4.2,0.3-5.8,0.8c-1.6,0.5-2.9,1.2-3.7,2.2
					c-0.9,0.9-1.3,2.1-1.3,3.4c0,1.3,0.4,2.5,1.3,3.4c0.9,0.9,2.1,1.7,3.7,2.2c1.6,0.5,3.6,0.7,5.8,0.7h0c2.3,0,4.2-0.2,5.8-0.7
					c1.6-0.5,2.9-1.2,3.8-2.2c0.9-0.9,1.3-2.1,1.3-3.4C1916.1,1177.6,1915.7,1176.5,1914.8,1175.5z"/>
				<path class="st11" d="M1918,1159.7c-1.2,1.6-2.9,2.8-5,3.7c-2.2,0.9-4.8,1.3-7.7,1.3h0c-3,0-5.6-0.4-7.7-1.3
					c-2.2-0.9-3.9-2.1-5-3.7c-1.2-1.6-1.8-3.5-1.8-5.8c0-2.2,0.6-4.2,1.8-5.8c1.2-1.6,2.9-2.8,5-3.7c2.2-0.9,4.8-1.3,7.7-1.3h0
					c3,0,5.6,0.4,7.7,1.3c2.2,0.9,3.9,2.1,5,3.7c1.2,1.6,1.8,3.5,1.8,5.8C1919.8,1156.2,1919.2,1158.1,1918,1159.7z M1914.8,1150.5
					c-0.9-0.9-2.1-1.7-3.8-2.2c-1.6-0.5-3.6-0.8-5.8-0.8h0c-2.3,0-4.2,0.3-5.8,0.8c-1.6,0.5-2.9,1.2-3.7,2.2
					c-0.9,0.9-1.3,2.1-1.3,3.4c0,1.3,0.4,2.5,1.3,3.4c0.9,0.9,2.1,1.7,3.7,2.2c1.6,0.5,3.6,0.7,5.8,0.7h0c2.3,0,4.2-0.2,5.8-0.7
					c1.6-0.5,2.9-1.2,3.8-2.2c0.9-0.9,1.3-2.1,1.3-3.4C1916.1,1152.6,1915.7,1151.5,1914.8,1150.5z"/>
				<path class="st11" d="M1898.8,1139.4v-4.3h3.2v-0.1c-1.1-0.4-1.9-1.2-2.6-2.2c-0.7-1-1-2.2-1-3.5c0-0.9,0.2-1.8,0.5-2.5
					s0.8-1.4,1.4-2s1.3-1,2.2-1.2v-0.1c-0.8-0.4-1.6-0.8-2.2-1.5c-0.6-0.6-1.1-1.4-1.4-2.2c-0.3-0.8-0.5-1.7-0.5-2.7
					c0-1.4,0.3-2.5,0.8-3.5c0.6-1,1.4-1.8,2.4-2.3c1-0.6,2.2-0.8,3.6-0.8h14.1v4.3h-13.1c-1.3,0-2.4,0.3-3.1,1
					c-0.7,0.7-1.1,1.6-1.1,2.9c0,0.8,0.2,1.6,0.6,2.2c0.4,0.6,0.9,1.1,1.6,1.5c0.7,0.4,1.4,0.5,2.3,0.5h12.9v4.2h-13.4
					c-1.2,0-2.1,0.3-2.8,1c-0.7,0.7-1,1.6-1,2.8c0,0.8,0.2,1.6,0.6,2.2c0.4,0.6,0.9,1.1,1.6,1.5c0.7,0.4,1.5,0.5,2.4,0.5h12.7v4.3
					H1898.8z"/>
				<path class="st11" d="M1898.8,1106.4v-4.3h3.2v-0.1c-1.1-0.4-1.9-1.2-2.6-2.2c-0.7-1-1-2.2-1-3.5c0-0.9,0.2-1.8,0.5-2.5
					s0.8-1.4,1.4-2s1.3-1,2.2-1.2v-0.1c-0.8-0.4-1.6-0.8-2.2-1.5c-0.6-0.6-1.1-1.4-1.4-2.2c-0.3-0.8-0.5-1.7-0.5-2.7
					c0-1.4,0.3-2.5,0.8-3.5c0.6-1,1.4-1.8,2.4-2.3c1-0.6,2.2-0.8,3.6-0.8h14.1v4.3h-13.1c-1.3,0-2.4,0.3-3.1,1
					c-0.7,0.7-1.1,1.6-1.1,2.9c0,0.8,0.2,1.6,0.6,2.2c0.4,0.6,0.9,1.1,1.6,1.5c0.7,0.4,1.4,0.5,2.3,0.5h12.9v4.2h-13.4
					c-1.2,0-2.1,0.3-2.8,1c-0.7,0.7-1,1.6-1,2.8c0,0.8,0.2,1.6,0.6,2.2c0.4,0.6,0.9,1.1,1.6,1.5c0.7,0.4,1.5,0.5,2.4,0.5h12.7v4.3
					H1898.8z"/>
			</g>
		</g>
	</g>
	<g>
		<g>
			<g>
				<line class="st10" x1="1864.7" y1="449.9" x2="1864.7" y2="711.4"/>
				<g>
					<rect x="1848.4" y="447.4" class="st11" width="32.5" height="5"/>
				</g>
				<g>
					<rect x="1848.4" y="708.9" class="st11" width="32.5" height="5"/>
				</g>
			</g>
		</g>
		<g>
			<g>
				<path class="st11" d="M1916.3,647.4l-10-9.9c-1.3-1.3-2.3-2.2-3.1-2.9c-0.8-0.7-1.6-1.1-2.2-1.3c-0.7-0.2-1.4-0.4-2.1-0.4h0
					c-0.9,0-1.7,0.2-2.4,0.6c-0.7,0.4-1.2,1-1.6,1.7c-0.4,0.7-0.6,1.6-0.6,2.5c0,1.1,0.2,2.1,0.7,2.9c0.5,0.9,1.1,1.5,1.8,2
					c0.8,0.5,1.6,0.7,2.6,0.7l0.1,0v4.1h-0.1c-1.7,0-3.2-0.4-4.5-1.3c-1.3-0.9-2.3-2-3.1-3.5c-0.7-1.5-1.1-3.1-1.1-5
					c0-1.8,0.3-3.4,1-4.8c0.7-1.4,1.6-2.5,2.8-3.3c1.2-0.8,2.6-1.2,4.1-1.2h0c1.1,0,2.1,0.2,3,0.6c1,0.4,2,1.1,3.2,2
					c1.2,0.9,2.6,2.3,4.3,4l7.7,7.9l-2.8-1.5h2.8l-1.3,1.5v-14.9h3.7v19.3H1916.3z"/>
				<path class="st11" d="M1913.7,610.8v14.1h-3.8c-1.2-0.8-2.5-1.6-3.8-2.4s-2.5-1.6-3.8-2.4s-2.5-1.6-3.8-2.4
					c-1.2-0.8-2.5-1.6-3.8-2.4s-2.5-1.6-3.8-2.4v-6.3h18.9v-3.9h3.7v3.9h5.6v4.2H1913.7z M1910.1,610.8h-15.5v0.1
					c1,0.7,2.1,1.3,3.1,2c1,0.7,2,1.3,3.1,2c1,0.7,2,1.3,3.1,2c1,0.7,2.1,1.3,3.1,2c1,0.7,2,1.3,3.1,2h0.1V610.8z"/>
				<path class="st11" d="M1918.8,594.3c-0.7,1.5-1.7,2.6-2.9,3.5c-1.2,0.9-2.6,1.4-4.1,1.5l-0.2,0v-4.2l0.1,0
					c0.8-0.1,1.6-0.5,2.3-1s1.2-1.2,1.6-2c0.4-0.8,0.6-1.8,0.6-2.8c0-1.2-0.3-2.2-0.8-3.1c-0.5-0.9-1.2-1.6-2.1-2.1
					s-1.9-0.8-3.1-0.8h0c-1.1,0-2.2,0.3-3,0.8c-0.9,0.5-1.6,1.2-2.1,2.1s-0.8,1.9-0.8,3.1c0,0.9,0.1,1.7,0.4,2.4s0.6,1.4,1.1,2
					c0.2,0.2,0.5,0.5,0.7,0.7c0.3,0.2,0.6,0.4,0.9,0.6v3.8l-16.2-1.4v-16.8h3.7v13.3l8.9,0.9v-0.1c-1-0.6-1.7-1.5-2.2-2.6
					c-0.5-1.1-0.8-2.4-0.8-3.8c0-1.8,0.4-3.4,1.2-4.8c0.8-1.4,1.9-2.5,3.3-3.3c1.4-0.8,3-1.2,4.8-1.2h0c1.9,0,3.6,0.4,5,1.3
					c1.5,0.9,2.6,2.1,3.4,3.7c0.8,1.6,1.2,3.3,1.2,5.4C1919.8,591.2,1919.5,592.9,1918.8,594.3z"/>
				<path class="st11" d="M1898.8,575.6v-4.3h3.2v-0.1c-1.1-0.4-1.9-1.2-2.6-2.2c-0.7-1-1-2.2-1-3.5c0-0.9,0.2-1.8,0.5-2.5
					s0.8-1.4,1.4-2s1.3-1,2.2-1.2v-0.1c-0.8-0.4-1.6-0.8-2.2-1.5c-0.6-0.6-1.1-1.4-1.4-2.2c-0.3-0.8-0.5-1.7-0.5-2.7
					c0-1.4,0.3-2.5,0.8-3.5c0.6-1,1.4-1.8,2.4-2.3c1-0.6,2.2-0.8,3.6-0.8h14.1v4.3h-13.1c-1.3,0-2.4,0.3-3.1,1
					c-0.7,0.7-1.1,1.6-1.1,2.9c0,0.8,0.2,1.6,0.6,2.2c0.4,0.6,0.9,1.1,1.6,1.5c0.7,0.4,1.4,0.5,2.3,0.5h12.9v4.2h-13.4
					c-1.2,0-2.1,0.3-2.8,1c-0.7,0.7-1,1.6-1,2.8c0,0.8,0.2,1.6,0.6,2.2c0.4,0.6,0.9,1.1,1.6,1.5c0.7,0.4,1.5,0.5,2.4,0.5h12.7v4.3
					H1898.8z"/>
				<path class="st11" d="M1898.8,542.6v-4.3h3.2v-0.1c-1.1-0.4-1.9-1.2-2.6-2.2c-0.7-1-1-2.2-1-3.5c0-0.9,0.2-1.8,0.5-2.5
					s0.8-1.4,1.4-2s1.3-1,2.2-1.2v-0.1c-0.8-0.4-1.6-0.8-2.2-1.5c-0.6-0.6-1.1-1.4-1.4-2.2c-0.3-0.8-0.5-1.7-0.5-2.7
					c0-1.4,0.3-2.5,0.8-3.5c0.6-1,1.4-1.8,2.4-2.3c1-0.6,2.2-0.8,3.6-0.8h14.1v4.3h-13.1c-1.3,0-2.4,0.3-3.1,1
					c-0.7,0.7-1.1,1.6-1.1,2.9c0,0.8,0.2,1.6,0.6,2.2c0.4,0.6,0.9,1.1,1.6,1.5c0.7,0.4,1.4,0.5,2.3,0.5h12.9v4.2h-13.4
					c-1.2,0-2.1,0.3-2.8,1c-0.7,0.7-1,1.6-1,2.8c0,0.8,0.2,1.6,0.6,2.2c0.4,0.6,0.9,1.1,1.6,1.5c0.7,0.4,1.5,0.5,2.4,0.5h12.7v4.3
					H1898.8z"/>
			</g>
		</g>
	</g>
	<g>
		<g>
			<g>
				<line class="st10" x1="1864.7" y1="186.8" x2="1864.7" y2="289.4"/>
				<g>
					<rect x="1848.4" y="184.3" class="st11" width="32.5" height="5"/>
				</g>
				<g>
					<rect x="1848.4" y="286.9" class="st11" width="32.5" height="5"/>
				</g>
			</g>
		</g>
		<g>
			<g>
				<path class="st11" d="M1895.5,295.9L1895.5,295.9l5.1,7.5h-4.2l-5.3-7.4v-4.3h28.2v4.3H1895.5z"/>
				<path class="st11" d="M1918,280.2c-1.2,1.6-2.9,2.8-5,3.7c-2.2,0.9-4.8,1.3-7.7,1.3h0c-3,0-5.6-0.4-7.7-1.3
					c-2.2-0.9-3.9-2.1-5-3.7c-1.2-1.6-1.8-3.5-1.8-5.8c0-2.2,0.6-4.2,1.8-5.8c1.2-1.6,2.9-2.8,5-3.7c2.2-0.9,4.8-1.3,7.7-1.3h0
					c3,0,5.6,0.4,7.7,1.3c2.2,0.9,3.9,2.1,5,3.7c1.2,1.6,1.8,3.5,1.8,5.8C1919.8,276.7,1919.2,278.6,1918,280.2z M1914.8,271
					c-0.9-0.9-2.1-1.7-3.8-2.2c-1.6-0.5-3.6-0.8-5.8-0.8h0c-2.3,0-4.2,0.3-5.8,0.8c-1.6,0.5-2.9,1.2-3.7,2.2
					c-0.9,0.9-1.3,2.1-1.3,3.4c0,1.3,0.4,2.5,1.3,3.4c0.9,0.9,2.1,1.7,3.7,2.2c1.6,0.5,3.6,0.7,5.8,0.7h0c2.3,0,4.2-0.2,5.8-0.7
					c1.6-0.5,2.9-1.2,3.8-2.2c0.9-0.9,1.3-2.1,1.3-3.4C1916.1,273.1,1915.7,272,1914.8,271z"/>
				<path class="st11" d="M1918,255.2c-1.2,1.6-2.9,2.8-5,3.7c-2.2,0.9-4.8,1.3-7.7,1.3h0c-3,0-5.6-0.4-7.7-1.3
					c-2.2-0.9-3.9-2.1-5-3.7c-1.2-1.6-1.8-3.5-1.8-5.8c0-2.2,0.6-4.2,1.8-5.8c1.2-1.6,2.9-2.8,5-3.7c2.2-0.9,4.8-1.3,7.7-1.3h0
					c3,0,5.6,0.4,7.7,1.3c2.2,0.9,3.9,2.1,5,3.7c1.2,1.6,1.8,3.5,1.8,5.8C1919.8,251.7,1919.2,253.6,1918,255.2z M1914.8,246
					c-0.9-0.9-2.1-1.7-3.8-2.2c-1.6-0.5-3.6-0.8-5.8-0.8h0c-2.3,0-4.2,0.3-5.8,0.8c-1.6,0.5-2.9,1.2-3.7,2.2
					c-0.9,0.9-1.3,2.1-1.3,3.4c0,1.3,0.4,2.5,1.3,3.4c0.9,0.9,2.1,1.7,3.7,2.2c1.6,0.5,3.6,0.7,5.8,0.7h0c2.3,0,4.2-0.2,5.8-0.7
					c1.6-0.5,2.9-1.2,3.8-2.2c0.9-0.9,1.3-2.1,1.3-3.4C1916.1,248.1,1915.7,247,1914.8,246z"/>
				<path class="st11" d="M1898.8,234.9v-4.3h3.2v-0.1c-1.1-0.4-1.9-1.2-2.6-2.2c-0.7-1-1-2.2-1-3.5c0-0.9,0.2-1.8,0.5-2.5
					s0.8-1.4,1.4-2s1.3-1,2.2-1.2V219c-0.8-0.4-1.6-0.8-2.2-1.5c-0.6-0.6-1.1-1.4-1.4-2.2c-0.3-0.8-0.5-1.7-0.5-2.7
					c0-1.4,0.3-2.5,0.8-3.5c0.6-1,1.4-1.8,2.4-2.3c1-0.6,2.2-0.8,3.6-0.8h14.1v4.3h-13.1c-1.3,0-2.4,0.3-3.1,1
					c-0.7,0.7-1.1,1.6-1.1,2.9c0,0.8,0.2,1.6,0.6,2.2c0.4,0.6,0.9,1.1,1.6,1.5c0.7,0.4,1.4,0.5,2.3,0.5h12.9v4.2h-13.4
					c-1.2,0-2.1,0.3-2.8,1c-0.7,0.7-1,1.6-1,2.8c0,0.8,0.2,1.6,0.6,2.2c0.4,0.6,0.9,1.1,1.6,1.5c0.7,0.4,1.5,0.5,2.4,0.5h12.7v4.3
					H1898.8z"/>
				<path class="st11" d="M1898.8,201.9v-4.3h3.2v-0.1c-1.1-0.4-1.9-1.2-2.6-2.2c-0.7-1-1-2.2-1-3.5c0-0.9,0.2-1.8,0.5-2.5
					s0.8-1.4,1.4-2s1.3-1,2.2-1.2V186c-0.8-0.4-1.6-0.8-2.2-1.5c-0.6-0.6-1.1-1.4-1.4-2.2c-0.3-0.8-0.5-1.7-0.5-2.7
					c0-1.4,0.3-2.5,0.8-3.5c0.6-1,1.4-1.8,2.4-2.3c1-0.6,2.2-0.8,3.6-0.8h14.1v4.3h-13.1c-1.3,0-2.4,0.3-3.1,1
					c-0.7,0.7-1.1,1.6-1.1,2.9c0,0.8,0.2,1.6,0.6,2.2c0.4,0.6,0.9,1.1,1.6,1.5c0.7,0.4,1.4,0.5,2.3,0.5h12.9v4.2h-13.4
					c-1.2,0-2.1,0.3-2.8,1c-0.7,0.7-1,1.6-1,2.8c0,0.8,0.2,1.6,0.6,2.2c0.4,0.6,0.9,1.1,1.6,1.5c0.7,0.4,1.5,0.5,2.4,0.5h12.7v4.3
					H1898.8z"/>
			</g>
		</g>
	</g>
	<g>
		<g>
			<g>
				<line class="st10" x1="247.8" y1="1057.5" x2="247.8" y2="1101.8"/>
				<g>
					<rect x="231.5" y="1055" class="st11" width="32.5" height="5"/>
				</g>
				<g>
					<rect x="231.5" y="1099.3" class="st11" width="32.5" height="5"/>
				</g>
			</g>
		</g>
		<g>
			<g>
				<path class="st11" d="M219.2,1121.9v14.1h-3.8c-1.2-0.8-2.5-1.6-3.8-2.4s-2.5-1.6-3.8-2.4s-2.5-1.6-3.8-2.4
					c-1.2-0.8-2.5-1.6-3.8-2.4s-2.5-1.6-3.8-2.4v-6.3h18.9v-3.9h3.7v3.9h5.6v4.2H219.2z M215.6,1121.8h-15.5v0.1
					c1,0.7,2.1,1.3,3.1,2c1,0.7,2,1.3,3.1,2c1,0.7,2,1.3,3.1,2c1,0.7,2.1,1.3,3.1,2c1,0.7,2,1.3,3.1,2h0.1V1121.8z"/>
				<path class="st11" d="M219.2,1097.1v14.1h-3.8c-1.2-0.8-2.5-1.6-3.8-2.4s-2.5-1.6-3.8-2.4s-2.5-1.6-3.8-2.4
					c-1.2-0.8-2.5-1.6-3.8-2.4s-2.5-1.6-3.8-2.4v-6.3h18.9v-3.9h3.7v3.9h5.6v4.2H219.2z M215.6,1097h-15.5v0.1c1,0.7,2.1,1.3,3.1,2
					c1,0.7,2,1.3,3.1,2c1,0.7,2,1.3,3.1,2c1,0.7,2.1,1.3,3.1,2c1,0.7,2,1.3,3.1,2h0.1V1097z"/>
				<path class="st11" d="M204.2,1085.8v-4.3h3.2v-0.1c-1.1-0.4-1.9-1.2-2.6-2.2c-0.7-1-1-2.2-1-3.5c0-0.9,0.2-1.8,0.5-2.5
					s0.8-1.4,1.4-2s1.3-1,2.2-1.2v-0.1c-0.8-0.4-1.6-0.8-2.2-1.5c-0.6-0.6-1.1-1.4-1.4-2.2c-0.3-0.8-0.5-1.7-0.5-2.7
					c0-1.4,0.3-2.5,0.8-3.5c0.6-1,1.4-1.8,2.4-2.3c1-0.6,2.2-0.8,3.6-0.8h14.1v4.3h-13.1c-1.3,0-2.4,0.3-3.1,1
					c-0.7,0.7-1.1,1.6-1.1,2.9c0,0.8,0.2,1.6,0.6,2.2c0.4,0.6,0.9,1.1,1.6,1.5c0.7,0.4,1.4,0.5,2.3,0.5h12.9v4.2h-13.4
					c-1.2,0-2.1,0.3-2.8,1c-0.7,0.7-1,1.6-1,2.8c0,0.8,0.2,1.6,0.6,2.2c0.4,0.6,0.9,1.1,1.6,1.5c0.7,0.4,1.5,0.5,2.4,0.5h12.7v4.3
					H204.2z"/>
				<path class="st11" d="M204.2,1052.8v-4.3h3.2v-0.1c-1.1-0.4-1.9-1.2-2.6-2.2c-0.7-1-1-2.2-1-3.5c0-0.9,0.2-1.8,0.5-2.5
					s0.8-1.4,1.4-2s1.3-1,2.2-1.2v-0.1c-0.8-0.4-1.6-0.8-2.2-1.5c-0.6-0.6-1.1-1.4-1.4-2.2c-0.3-0.8-0.5-1.7-0.5-2.7
					c0-1.4,0.3-2.5,0.8-3.5c0.6-1,1.4-1.8,2.4-2.3c1-0.6,2.2-0.8,3.6-0.8h14.1v4.3h-13.1c-1.3,0-2.4,0.3-3.1,1
					c-0.7,0.7-1.1,1.6-1.1,2.9c0,0.8,0.2,1.6,0.6,2.2c0.4,0.6,0.9,1.1,1.6,1.5c0.7,0.4,1.4,0.5,2.3,0.5h12.9v4.2h-13.4
					c-1.2,0-2.1,0.3-2.8,1c-0.7,0.7-1,1.6-1,2.8c0,0.8,0.2,1.6,0.6,2.2c0.4,0.6,0.9,1.1,1.6,1.5c0.7,0.4,1.5,0.5,2.4,0.5h12.7v4.3
					H204.2z"/>
			</g>
		</g>
	</g>
	<g>
		<g>
			<g>
				<line class="st10" x1="177.9" y1="1032.9" x2="177.9" y2="1057.7"/>
				<g>
					<rect x="161.7" y="1030.4" class="st11" width="32.5" height="5"/>
				</g>
				<g>
					<rect x="161.7" y="1055.2" class="st11" width="32.5" height="5"/>
				</g>
			</g>
		</g>
		<g>
			<g>
				<path class="st11" d="M150,1100.1l-10-9.9c-1.3-1.3-2.3-2.2-3.1-2.9c-0.8-0.7-1.6-1.1-2.2-1.3c-0.7-0.2-1.4-0.4-2.1-0.4h0
					c-0.9,0-1.7,0.2-2.4,0.6c-0.7,0.4-1.2,1-1.6,1.7c-0.4,0.7-0.6,1.6-0.6,2.5c0,1.1,0.2,2.1,0.7,2.9c0.5,0.9,1.1,1.5,1.8,2
					c0.8,0.5,1.6,0.7,2.6,0.7l0.1,0v4.1H133c-1.7,0-3.2-0.4-4.5-1.3c-1.3-0.9-2.3-2-3.1-3.5c-0.7-1.5-1.1-3.1-1.1-5
					c0-1.8,0.3-3.4,1-4.8c0.7-1.4,1.6-2.5,2.8-3.3c1.2-0.8,2.6-1.2,4.1-1.2h0c1.1,0,2.1,0.2,3,0.6c1,0.4,2,1.1,3.2,2
					c1.2,0.9,2.6,2.3,4.3,4l7.7,7.9l-2.8-1.5h2.8l-1.3,1.5v-14.9h3.7v19.3H150z"/>
				<path class="st11" d="M147.4,1063.5v14.1h-3.8c-1.2-0.8-2.5-1.6-3.8-2.4s-2.5-1.6-3.8-2.4s-2.5-1.6-3.8-2.4
					c-1.2-0.8-2.5-1.6-3.8-2.4c-1.3-0.8-2.5-1.6-3.8-2.4v-6.3h18.9v-3.9h3.7v3.9h5.6v4.2H147.4z M143.8,1063.5h-15.5v0.1
					c1,0.7,2.1,1.3,3.1,2c1,0.7,2,1.3,3.1,2c1,0.7,2,1.3,3.1,2c1,0.7,2.1,1.3,3.1,2c1,0.7,2,1.3,3.1,2h0.1V1063.5z"/>
				<path class="st11" d="M132.5,1052.2v-4.3h3.2v-0.1c-1.1-0.4-1.9-1.2-2.6-2.2c-0.7-1-1-2.2-1-3.5c0-0.9,0.2-1.8,0.5-2.5
					s0.8-1.4,1.4-2s1.3-1,2.2-1.2v-0.1c-0.8-0.4-1.6-0.8-2.2-1.5c-0.6-0.6-1.1-1.4-1.4-2.2c-0.3-0.8-0.5-1.7-0.5-2.7
					c0-1.4,0.3-2.5,0.8-3.5c0.6-1,1.4-1.8,2.4-2.3c1-0.6,2.2-0.8,3.6-0.8H153v4.3h-13.1c-1.3,0-2.4,0.3-3.1,1
					c-0.7,0.7-1.1,1.6-1.1,2.9c0,0.8,0.2,1.6,0.6,2.2c0.4,0.6,0.9,1.1,1.6,1.5c0.7,0.4,1.4,0.5,2.3,0.5H153v4.2h-13.4
					c-1.2,0-2.1,0.3-2.8,1c-0.7,0.7-1,1.6-1,2.8c0,0.8,0.2,1.6,0.6,2.2c0.4,0.6,0.9,1.1,1.6,1.5c0.7,0.4,1.5,0.5,2.4,0.5H153v4.3
					H132.5z"/>
				<path class="st11" d="M132.5,1019.2v-4.3h3.2v-0.1c-1.1-0.4-1.9-1.2-2.6-2.2c-0.7-1-1-2.2-1-3.5c0-0.9,0.2-1.8,0.5-2.5
					s0.8-1.4,1.4-2s1.3-1,2.2-1.2v-0.1c-0.8-0.4-1.6-0.8-2.2-1.5c-0.6-0.6-1.1-1.4-1.4-2.2c-0.3-0.8-0.5-1.7-0.5-2.7
					c0-1.4,0.3-2.5,0.8-3.5c0.6-1,1.4-1.8,2.4-2.3c1-0.6,2.2-0.8,3.6-0.8H153v4.3h-13.1c-1.3,0-2.4,0.3-3.1,1
					c-0.7,0.7-1.1,1.6-1.1,2.9c0,0.8,0.2,1.6,0.6,2.2c0.4,0.6,0.9,1.1,1.6,1.5c0.7,0.4,1.4,0.5,2.3,0.5H153v4.2h-13.4
					c-1.2,0-2.1,0.3-2.8,1c-0.7,0.7-1,1.6-1,2.8c0,0.8,0.2,1.6,0.6,2.2c0.4,0.6,0.9,1.1,1.6,1.5c0.7,0.4,1.5,0.5,2.4,0.5H153v4.3
					H132.5z"/>
			</g>
		</g>
	</g>
	<g>
		<g>
			<path class="st11" d="M2023.8,802.8c-0.7,1.6-1.6,2.9-2.9,3.8c-1.2,0.9-2.6,1.4-4.2,1.4h0c-1.2,0-2.3-0.3-3.3-0.8
				s-1.8-1.3-2.5-2.2s-1.2-2-1.4-3.2h-0.1c-0.5,1.6-1.2,2.8-2.3,3.8c-1.1,0.9-2.4,1.4-3.9,1.4h0c-1.4,0-2.7-0.4-3.8-1.2
				s-2-2-2.6-3.4c-0.6-1.5-1-3.1-1-5c0-1.9,0.3-3.5,1-5c0.6-1.5,1.5-2.6,2.6-3.4s2.4-1.2,3.8-1.2h0c1.5,0,2.8,0.5,3.9,1.4
				s1.9,2.2,2.3,3.8h0.1c0.3-1.2,0.7-2.3,1.4-3.3c0.7-0.9,1.5-1.7,2.5-2.2s2.1-0.8,3.3-0.8h0c1.6,0,3,0.5,4.2,1.4
				c1.2,0.9,2.2,2.2,2.9,3.8c0.7,1.6,1,3.4,1,5.5C2024.8,799.3,2024.5,801.2,2023.8,802.8z M2007.4,794.5c-0.4-0.8-0.9-1.4-1.5-1.9
				s-1.4-0.7-2.3-0.7h0c-0.9,0-1.6,0.2-2.3,0.7s-1.2,1.1-1.5,1.9c-0.4,0.8-0.6,1.7-0.6,2.7c0,1,0.2,2,0.6,2.8
				c0.4,0.8,0.9,1.4,1.5,1.9s1.4,0.7,2.3,0.7h0c0.8,0,1.6-0.2,2.3-0.7s1.2-1.1,1.5-1.9c0.4-0.8,0.6-1.7,0.6-2.8
				C2007.9,796.2,2007.7,795.3,2007.4,794.5z M2020.7,794.1c-0.4-0.9-1-1.6-1.7-2.2s-1.6-0.8-2.5-0.8h0c-1,0-1.8,0.3-2.5,0.8
				c-0.7,0.5-1.3,1.2-1.7,2.2c-0.4,0.9-0.6,2-0.6,3.2c0,1.2,0.2,2.3,0.6,3.2c0.4,0.9,1,1.6,1.7,2.2c0.7,0.5,1.6,0.8,2.5,0.8h0
				c1,0,1.8-0.3,2.5-0.8s1.3-1.3,1.7-2.2c0.4-0.9,0.6-2,0.6-3.2C2021.3,796,2021.1,795,2020.7,794.1z"/>
			<path class="st11" d="M2023.8,777.6c-0.7,1.5-1.7,2.6-2.9,3.5c-1.2,0.9-2.6,1.4-4.1,1.5l-0.2,0v-4.2l0.1,0c0.8-0.1,1.6-0.5,2.3-1
				s1.2-1.2,1.6-2c0.4-0.8,0.6-1.8,0.6-2.8c0-1.2-0.3-2.2-0.8-3.1c-0.5-0.9-1.2-1.6-2.1-2.1s-1.9-0.8-3.1-0.8h0
				c-1.1,0-2.2,0.3-3,0.8c-0.9,0.5-1.6,1.2-2.1,2.1s-0.8,1.9-0.8,3.1c0,0.9,0.1,1.7,0.4,2.4s0.6,1.4,1.1,2c0.2,0.2,0.5,0.5,0.7,0.7
				c0.3,0.2,0.6,0.4,0.9,0.6v3.8l-16.2-1.4v-16.8h3.7v13.3l8.9,0.9v-0.1c-1-0.6-1.7-1.5-2.2-2.6s-0.8-2.4-0.8-3.8
				c0-1.8,0.4-3.4,1.2-4.8c0.8-1.4,1.9-2.5,3.3-3.3s3-1.2,4.8-1.2h0c1.9,0,3.6,0.4,5,1.3c1.5,0.9,2.6,2.1,3.4,3.7
				c0.8,1.6,1.2,3.3,1.2,5.4C2024.8,774.5,2024.5,776.2,2023.8,777.6z"/>
			<path class="st11" d="M2003.8,758.8v-4.3h3.2v-0.1c-1.1-0.4-1.9-1.2-2.6-2.2c-0.7-1-1-2.2-1-3.5c0-0.9,0.2-1.8,0.5-2.5
				s0.8-1.4,1.4-2s1.3-1,2.2-1.2V743c-0.8-0.4-1.6-0.8-2.2-1.5c-0.6-0.6-1.1-1.4-1.4-2.2s-0.5-1.7-0.5-2.7c0-1.4,0.3-2.5,0.8-3.5
				c0.6-1,1.4-1.8,2.4-2.3c1-0.6,2.2-0.8,3.6-0.8h14.1v4.3h-13.1c-1.3,0-2.4,0.3-3.1,1c-0.7,0.7-1.1,1.6-1.1,2.9
				c0,0.8,0.2,1.6,0.6,2.2c0.4,0.6,0.9,1.1,1.6,1.5c0.7,0.4,1.4,0.5,2.3,0.5h12.9v4.2h-13.4c-1.2,0-2.1,0.3-2.8,1
				c-0.7,0.7-1,1.6-1,2.8c0,0.8,0.2,1.6,0.6,2.2s0.9,1.1,1.6,1.5c0.7,0.4,1.5,0.5,2.4,0.5h12.7v4.3H2003.8z"/>
			<path class="st11" d="M2003.8,725.8v-4.3h3.2v-0.1c-1.1-0.4-1.9-1.2-2.6-2.2c-0.7-1-1-2.2-1-3.5c0-0.9,0.2-1.8,0.5-2.5
				s0.8-1.4,1.4-2s1.3-1,2.2-1.2V710c-0.8-0.4-1.6-0.8-2.2-1.5c-0.6-0.6-1.1-1.4-1.4-2.2s-0.5-1.7-0.5-2.7c0-1.4,0.3-2.5,0.8-3.5
				c0.6-1,1.4-1.8,2.4-2.3c1-0.6,2.2-0.8,3.6-0.8h14.1v4.3h-13.1c-1.3,0-2.4,0.3-3.1,1c-0.7,0.7-1.1,1.6-1.1,2.9
				c0,0.8,0.2,1.6,0.6,2.2c0.4,0.6,0.9,1.1,1.6,1.5c0.7,0.4,1.4,0.5,2.3,0.5h12.9v4.2h-13.4c-1.2,0-2.1,0.3-2.8,1
				c-0.7,0.7-1,1.6-1,2.8c0,0.8,0.2,1.6,0.6,2.2s0.9,1.1,1.6,1.5c0.7,0.4,1.5,0.5,2.4,0.5h12.7v4.3H2003.8z"/>
		</g>
	</g>
	<g>
		<g>
			<path class="st11" d="M2000.5,427.2L2000.5,427.2l5.1,7.5h-4.2l-5.3-7.4v-4.3h28.2v4.3H2000.5z"/>
			<path class="st11" d="M2023.8,411.4c-0.7,1.6-1.6,2.9-2.9,3.8c-1.2,0.9-2.6,1.4-4.2,1.4h0c-1.2,0-2.3-0.3-3.3-0.8
				s-1.8-1.3-2.5-2.2s-1.2-2-1.4-3.2h-0.1c-0.5,1.6-1.2,2.8-2.3,3.8c-1.1,0.9-2.4,1.4-3.9,1.4h0c-1.4,0-2.7-0.4-3.8-1.2
				s-2-2-2.6-3.4c-0.6-1.5-1-3.1-1-5c0-1.9,0.3-3.5,1-5c0.6-1.5,1.5-2.6,2.6-3.4s2.4-1.2,3.8-1.2h0c1.5,0,2.8,0.5,3.9,1.4
				s1.9,2.2,2.3,3.8h0.1c0.3-1.2,0.7-2.3,1.4-3.3c0.7-0.9,1.5-1.7,2.5-2.2s2.1-0.8,3.3-0.8h0c1.6,0,3,0.5,4.2,1.4
				c1.2,0.9,2.2,2.2,2.9,3.8c0.7,1.6,1,3.4,1,5.5C2024.8,407.9,2024.5,409.8,2023.8,411.4z M2007.4,403.1c-0.4-0.8-0.9-1.4-1.5-1.9
				s-1.4-0.7-2.3-0.7h0c-0.9,0-1.6,0.2-2.3,0.7s-1.2,1.1-1.5,1.9c-0.4,0.8-0.6,1.7-0.6,2.7c0,1,0.2,2,0.6,2.8
				c0.4,0.8,0.9,1.4,1.5,1.9s1.4,0.7,2.3,0.7h0c0.8,0,1.6-0.2,2.3-0.7s1.2-1.1,1.5-1.9c0.4-0.8,0.6-1.7,0.6-2.8
				C2007.9,404.8,2007.7,403.9,2007.4,403.1z M2020.7,402.7c-0.4-0.9-1-1.6-1.7-2.2s-1.6-0.8-2.5-0.8h0c-1,0-1.8,0.3-2.5,0.8
				c-0.7,0.5-1.3,1.2-1.7,2.2c-0.4,0.9-0.6,2-0.6,3.2c0,1.2,0.2,2.3,0.6,3.2c0.4,0.9,1,1.6,1.7,2.2c0.7,0.5,1.6,0.8,2.5,0.8h0
				c1,0,1.8-0.3,2.5-0.8s1.3-1.3,1.7-2.2c0.4-0.9,0.6-2,0.6-3.2C2021.3,404.7,2021.1,403.6,2020.7,402.7z"/>
			<path class="st11" d="M2023,386.8c-1.2,1.6-2.9,2.8-5,3.7s-4.8,1.3-7.7,1.3h0c-3,0-5.6-0.4-7.7-1.3s-3.9-2.1-5-3.7
				c-1.2-1.6-1.8-3.5-1.8-5.8c0-2.2,0.6-4.2,1.8-5.8c1.2-1.6,2.9-2.8,5-3.7c2.2-0.9,4.8-1.3,7.7-1.3h0c3,0,5.6,0.4,7.7,1.3
				c2.2,0.9,3.9,2.1,5,3.7c1.2,1.6,1.8,3.5,1.8,5.8C2024.8,383.3,2024.2,385.2,2023,386.8z M2019.8,377.6c-0.9-0.9-2.1-1.7-3.8-2.2
				c-1.6-0.5-3.6-0.8-5.8-0.8h0c-2.3,0-4.2,0.3-5.8,0.8c-1.6,0.5-2.9,1.2-3.7,2.2c-0.9,0.9-1.3,2.1-1.3,3.4c0,1.3,0.4,2.5,1.3,3.4
				c0.9,0.9,2.1,1.7,3.7,2.2c1.6,0.5,3.6,0.7,5.8,0.7h0c2.3,0,4.2-0.2,5.8-0.7c1.6-0.5,2.9-1.2,3.8-2.2c0.9-0.9,1.3-2.1,1.3-3.4
				C2021.1,379.7,2020.7,378.5,2019.8,377.6z"/>
			<path class="st11" d="M2003.8,366.5v-4.3h3.2v-0.1c-1.1-0.4-1.9-1.2-2.6-2.2c-0.7-1-1-2.2-1-3.5c0-0.9,0.2-1.8,0.5-2.5
				s0.8-1.4,1.4-2s1.3-1,2.2-1.2v-0.1c-0.8-0.4-1.6-0.8-2.2-1.5c-0.6-0.6-1.1-1.4-1.4-2.2s-0.5-1.7-0.5-2.7c0-1.4,0.3-2.5,0.8-3.5
				c0.6-1,1.4-1.8,2.4-2.3c1-0.6,2.2-0.8,3.6-0.8h14.1v4.3h-13.1c-1.3,0-2.4,0.3-3.1,1c-0.7,0.7-1.1,1.6-1.1,2.9
				c0,0.8,0.2,1.6,0.6,2.2c0.4,0.6,0.9,1.1,1.6,1.5c0.7,0.4,1.4,0.5,2.3,0.5h12.9v4.2h-13.4c-1.2,0-2.1,0.3-2.8,1
				c-0.7,0.7-1,1.6-1,2.8c0,0.8,0.2,1.6,0.6,2.2s0.9,1.1,1.6,1.5c0.7,0.4,1.5,0.5,2.4,0.5h12.7v4.3H2003.8z"/>
			<path class="st11" d="M2003.8,333.4v-4.3h3.2v-0.1c-1.1-0.4-1.9-1.2-2.6-2.2c-0.7-1-1-2.2-1-3.5c0-0.9,0.2-1.8,0.5-2.5
				s0.8-1.4,1.4-2s1.3-1,2.2-1.2v-0.1c-0.8-0.4-1.6-0.8-2.2-1.5c-0.6-0.6-1.1-1.4-1.4-2.2s-0.5-1.7-0.5-2.7c0-1.4,0.3-2.5,0.8-3.5
				c0.6-1,1.4-1.8,2.4-2.3c1-0.6,2.2-0.8,3.6-0.8h14.1v4.3h-13.1c-1.3,0-2.4,0.3-3.1,1c-0.7,0.7-1.1,1.6-1.1,2.9
				c0,0.8,0.2,1.6,0.6,2.2c0.4,0.6,0.9,1.1,1.6,1.5c0.7,0.4,1.4,0.5,2.3,0.5h12.9v4.2h-13.4c-1.2,0-2.1,0.3-2.8,1
				c-0.7,0.7-1,1.6-1,2.8c0,0.8,0.2,1.6,0.6,2.2s0.9,1.1,1.6,1.5c0.7,0.4,1.5,0.5,2.4,0.5h12.7v4.3H2003.8z"/>
		</g>
	</g>
	<g>
		<g>
			<line class="st10" x1="532.9" y1="1583" x2="493.2" y2="1583"/>
			<g>
				<rect x="530.4" y="1566.7" class="st11" width="5" height="32.5"/>
			</g>
			<g>
				<rect x="490.7" y="1566.7" class="st11" width="5" height="32.5"/>
			</g>
		</g>
	</g>
	<g>
		<g>
			<path class="st11" d="M470.8,1630.8h-14.1v-3.8c0.8-1.2,1.6-2.5,2.4-3.8s1.6-2.5,2.4-3.8s1.6-2.5,2.4-3.8
				c0.8-1.2,1.6-2.5,2.4-3.8s1.6-2.5,2.4-3.8h6.3v18.9h3.9v3.7H475v5.6h-4.2V1630.8z M470.8,1627.2v-15.5h-0.1c-0.7,1-1.3,2.1-2,3.1
				c-0.7,1-1.3,2-2,3.1c-0.7,1-1.3,2-2,3.1c-0.7,1-1.3,2.1-2,3.1c-0.7,1-1.3,2-2,3.1v0.1H470.8z"/>
			<path class="st11" d="M495.6,1630.8h-14.1v-3.8c0.8-1.2,1.6-2.5,2.4-3.8s1.6-2.5,2.4-3.8s1.6-2.5,2.4-3.8
				c0.8-1.2,1.6-2.5,2.4-3.8s1.6-2.5,2.4-3.8h6.3v18.9h3.9v3.7h-3.9v5.6h-4.2V1630.8z M495.6,1627.2v-15.5h-0.1
				c-0.7,1-1.3,2.1-2,3.1c-0.7,1-1.3,2-2,3.1c-0.7,1-1.3,2-2,3.1c-0.7,1-1.3,2.1-2,3.1c-0.7,1-1.3,2-2,3.1v0.1H495.6z"/>
			<path class="st11" d="M506.9,1615.9h4.3v3.2h0.1c0.4-1.1,1.2-1.9,2.2-2.6c1-0.7,2.2-1,3.5-1c0.9,0,1.8,0.2,2.5,0.5s1.4,0.8,2,1.4
				s1,1.3,1.2,2.2h0.1c0.4-0.8,0.8-1.6,1.5-2.2c0.6-0.6,1.4-1.1,2.2-1.4c0.8-0.3,1.7-0.5,2.7-0.5c1.4,0,2.5,0.3,3.5,0.8
				c1,0.6,1.8,1.4,2.3,2.4c0.6,1,0.8,2.2,0.8,3.6v14.1h-4.3v-13.1c0-1.3-0.3-2.4-1-3.1c-0.7-0.7-1.6-1.1-2.9-1.1
				c-0.8,0-1.6,0.2-2.2,0.6c-0.6,0.4-1.1,0.9-1.5,1.6c-0.4,0.7-0.5,1.4-0.5,2.3v12.9h-4.2V1623c0-1.2-0.3-2.1-1-2.8
				c-0.7-0.7-1.6-1-2.8-1c-0.8,0-1.6,0.2-2.2,0.6c-0.6,0.4-1.1,0.9-1.5,1.6c-0.4,0.7-0.5,1.5-0.5,2.4v12.7h-4.3V1615.9z"/>
			<path class="st11" d="M539.9,1615.9h4.3v3.2h0.1c0.4-1.1,1.2-1.9,2.2-2.6c1-0.7,2.2-1,3.5-1c0.9,0,1.8,0.2,2.5,0.5s1.4,0.8,2,1.4
				s1,1.3,1.2,2.2h0.1c0.4-0.8,0.8-1.6,1.5-2.2c0.6-0.6,1.4-1.1,2.2-1.4c0.8-0.3,1.7-0.5,2.7-0.5c1.4,0,2.5,0.3,3.5,0.8
				c1,0.6,1.8,1.4,2.3,2.4c0.6,1,0.8,2.2,0.8,3.6v14.1h-4.3v-13.1c0-1.3-0.3-2.4-1-3.1c-0.7-0.7-1.6-1.1-2.9-1.1
				c-0.8,0-1.6,0.2-2.2,0.6c-0.6,0.4-1.1,0.9-1.5,1.6c-0.4,0.7-0.5,1.4-0.5,2.3v12.9h-4.2V1623c0-1.2-0.3-2.1-1-2.8
				c-0.7-0.7-1.6-1-2.8-1c-0.8,0-1.6,0.2-2.2,0.6c-0.6,0.4-1.1,0.9-1.5,1.6c-0.4,0.7-0.5,1.5-0.5,2.4v12.7h-4.3V1615.9z"/>
		</g>
	</g>
</g>
</svg>
