<?xml version="1.0" encoding="utf-8"?>
<!-- Generator: Adobe Illustrator 25.3.1, SVG Export Plug-In . SVG Version: 6.00 Build 0)  -->
<svg version="1.1" id="Layer_1" xmlns="http://www.w3.org/2000/svg" xmlns:xlink="http://www.w3.org/1999/xlink" x="0px" y="0px"
	 viewBox="0 0 2168 514" style="enable-background:new 0 0 2168 514;" xml:space="preserve">
<style type="text/css">
	.st0{fill:#202020;}
	.st1{fill:#F6F6F6;}
	.st2{clip-path:url(#SVGID_2_);}
	.st3{clip-path:url(#SVGID_4_);}
	.st4{clip-path:url(#SVGID_6_);}
</style>
<path class="st0" d="M1597,47.7h158.2c28.1,0,50.9,22.8,50.9,50.9v328.2c0,28.1-22.8,50.9-50.9,50.9H1597
	c-28.1,0-50.9-22.8-50.9-50.9V98.6C1546.1,70.5,1568.9,47.7,1597,47.7z"/>
<g>
	<g>
		<path class="st1" d="M1610.7,202.1h22v4.7h-16.5V218h15.1v4.6h-15.1v14.7h-5.5V202.1z"/>
		<path class="st1" d="M1636.8,211.7h5.3v4.4h0.1c0.4-1.5,1.1-2.7,2.2-3.6c1-0.9,2.3-1.3,3.8-1.3c0.4,0,0.7,0,1.1,0.1
			c0.3,0,0.6,0.1,0.8,0.1v4.9c-0.2-0.1-0.5-0.2-1-0.2c-0.4-0.1-0.9-0.1-1.4-0.1c-1.1,0-2.1,0.2-2.9,0.7c-0.8,0.5-1.5,1.2-1.9,2.1
			s-0.7,2-0.7,3.3v15.3h-5.3V211.7z"/>
		<path class="st1" d="M1654,206.8c-0.6-0.6-0.9-1.3-0.9-2.1c0-0.9,0.3-1.6,0.9-2.2c0.6-0.6,1.3-0.9,2.2-0.9c0.9,0,1.6,0.3,2.2,0.9
			s0.9,1.3,0.9,2.2c0,0.8-0.3,1.5-0.9,2.1c-0.6,0.6-1.3,0.9-2.2,0.9C1655.3,207.7,1654.6,207.4,1654,206.8z M1653.5,211.7h5.3v25.7
			h-5.3V211.7z"/>
		<path class="st1" d="M1668.1,236.2c-1.6-1.1-2.9-2.6-3.7-4.6c-0.9-2-1.3-4.4-1.3-7.1v0c0-2.7,0.4-5.1,1.3-7.1
			c0.9-2,2.1-3.5,3.7-4.6c1.6-1.1,3.5-1.6,5.6-1.6c1.8,0,3.4,0.4,4.8,1.3c1.4,0.9,2.5,2.1,3.3,3.6h0.1v-13.9h5.3v35.2h-5.3V233h-0.1
			c-0.8,1.5-1.8,2.7-3.2,3.6c-1.4,0.9-3,1.3-4.8,1.3C1671.6,237.9,1669.7,237.3,1668.1,236.2z M1678.7,232.2c1-0.7,1.8-1.7,2.4-3.1
			s0.9-2.9,0.9-4.6v0c0-1.8-0.3-3.3-0.9-4.6c-0.6-1.3-1.4-2.3-2.4-3.1c-1-0.7-2.2-1.1-3.5-1.1c-1.4,0-2.6,0.4-3.6,1.1
			c-1,0.7-1.8,1.7-2.3,3c-0.5,1.3-0.8,2.9-0.8,4.7v0c0,1.8,0.3,3.4,0.8,4.7c0.5,1.3,1.3,2.3,2.3,3c1,0.7,2.2,1,3.6,1
			C1676.5,233.3,1677.7,232.9,1678.7,232.2z"/>
		<path class="st1" d="M1698.2,245.5c-1.6-0.6-3-1.5-3.9-2.5c-1-1.1-1.6-2.2-1.9-3.5l0-0.2h5.3l0.1,0.2c0.4,0.8,1.1,1.5,2.2,2
			s2.4,0.8,4.1,0.8c2.1,0,3.7-0.5,4.8-1.6s1.7-2.5,1.7-4.2v-3.5h-0.1c-0.5,0.9-1.1,1.7-1.9,2.4s-1.7,1.2-2.7,1.6
			c-1,0.4-2.2,0.6-3.4,0.6c-2.1,0-4-0.5-5.6-1.6c-1.6-1.1-2.9-2.6-3.7-4.5s-1.3-4.3-1.3-6.9v0c0-2.7,0.4-5,1.3-7
			c0.9-2,2.2-3.5,3.8-4.5c1.6-1.1,3.5-1.6,5.7-1.6c1.2,0,2.3,0.2,3.4,0.6c1,0.4,1.9,1,2.7,1.7c0.8,0.7,1.4,1.6,1.9,2.6h0.1v-4.4h5.3
			v25c0,2-0.5,3.7-1.4,5.1s-2.3,2.6-4.1,3.4c-1.8,0.8-3.9,1.2-6.3,1.2C1701.7,246.4,1699.8,246.1,1698.2,245.5z M1707.2,232
			c1-0.7,1.8-1.7,2.3-3c0.6-1.3,0.8-2.8,0.8-4.6v0c0-1.8-0.3-3.3-0.8-4.6s-1.3-2.3-2.4-3c-1-0.7-2.2-1.1-3.5-1.1
			c-1.4,0-2.6,0.4-3.6,1c-1,0.7-1.8,1.7-2.4,3c-0.6,1.3-0.8,2.8-0.8,4.6v0c0,1.8,0.3,3.4,0.8,4.7c0.6,1.3,1.3,2.3,2.4,3
			s2.2,1.1,3.6,1.1C1705,233.1,1706.2,232.7,1707.2,232z"/>
		<path class="st1" d="M1725.4,236.2c-1.8-1.1-3.2-2.6-4.2-4.6c-1-2-1.5-4.3-1.5-7v0c0-2.7,0.5-5,1.5-7c1-2,2.4-3.6,4.1-4.7
			c1.8-1.1,3.9-1.7,6.2-1.7c2.4,0,4.5,0.5,6.2,1.6c1.7,1.1,3.1,2.6,4,4.5c0.9,1.9,1.4,4.2,1.4,6.8v1.8h-20.9v-3.7h18.3l-2.6,3.5
			v-2.1c0-1.8-0.3-3.3-0.8-4.5s-1.3-2.1-2.3-2.7s-2.1-0.9-3.4-0.9c-1.3,0-2.4,0.3-3.4,0.9c-1,0.6-1.8,1.5-2.3,2.7
			c-0.6,1.2-0.9,2.7-0.9,4.4v2.1c0,1.7,0.3,3.1,0.8,4.3c0.6,1.2,1.4,2.1,2.4,2.7c1,0.6,2.3,0.9,3.7,0.9c1,0,2-0.2,2.8-0.5
			c0.8-0.3,1.5-0.7,2-1.3c0.5-0.5,0.9-1.1,1.1-1.8l0.1-0.2h5l0,0.3c-0.2,1-0.6,2-1.2,2.9s-1.3,1.8-2.3,2.5c-0.9,0.7-2,1.3-3.3,1.7
			s-2.7,0.6-4.2,0.6C1729.4,237.9,1727.2,237.3,1725.4,236.2z"/>
	</g>
</g>
<path class="st0" d="M883,487.5H66.9c-25.9,0-47-21-47-47v-56.1c0-25.9,21-47,47-47H883c25.9,0,47,21,47,47v56.1
	C930,466.5,909,487.5,883,487.5z"/>
<g>
	<g>
		<path class="st1" d="M228.1,428.9c-3.9-2.4-6.9-5.7-9.1-10.1c-2.1-4.4-3.2-9.5-3.2-15.5v0c0-6,1.1-11.1,3.2-15.5
			c2.1-4.3,5.2-7.7,9.1-10.1c3.9-2.4,8.5-3.5,13.9-3.5c4.1,0,7.9,0.8,11.2,2.4c3.3,1.6,6.1,3.8,8.2,6.6c2.2,2.8,3.5,6.1,4.1,9.8
			l0,0.4h-8.7l-0.2-0.8c-0.6-2.2-1.6-4.1-2.9-5.7c-1.3-1.6-3-2.8-5-3.7c-2-0.8-4.2-1.3-6.8-1.3c-3.5,0-6.5,0.9-9.1,2.6
			c-2.6,1.7-4.6,4.2-6,7.4c-1.4,3.2-2.1,6.9-2.1,11.3v0c0,4.3,0.7,8.1,2.1,11.3c1.4,3.2,3.4,5.7,6,7.4c2.6,1.7,5.6,2.6,9.1,2.6
			c2.5,0,4.7-0.4,6.7-1.3c2-0.8,3.6-2.1,5-3.7c1.4-1.6,2.4-3.6,3.1-6l0.1-0.4h8.7l-0.1,0.4c-0.6,3.8-1.9,7-4.1,9.9
			c-2.1,2.8-4.9,5-8.2,6.6c-3.3,1.6-7.1,2.3-11.2,2.3C236.6,432.4,232,431.2,228.1,428.9z"/>
		<path class="st1" d="M277.4,430.7c-2.1-1-3.7-2.5-4.8-4.4c-1.1-1.9-1.7-4-1.7-6.5v-0.1c0-3.6,1.3-6.4,4-8.5
			c2.7-2.1,6.4-3.3,11.3-3.6l15.5-0.9v5.9l-14.4,0.9c-2.5,0.2-4.5,0.8-5.8,1.8s-2.1,2.5-2.1,4.2v0.1c0,1.8,0.7,3.2,2.1,4.3
			c1.4,1,3.2,1.6,5.4,1.6c2,0,3.8-0.4,5.3-1.2c1.6-0.8,2.8-1.9,3.7-3.3c0.9-1.4,1.4-3,1.4-4.8v-12.2c0-2.3-0.7-4-2.1-5.3
			s-3.4-1.9-6.1-1.9c-2.4,0-4.4,0.5-5.8,1.6c-1.5,1-2.4,2.4-2.8,4l-0.1,0.4h-8l0-0.4c0.2-2.4,1-4.5,2.4-6.4c1.4-1.9,3.3-3.4,5.7-4.5
			c2.4-1.1,5.4-1.6,8.7-1.6s6.3,0.6,8.7,1.7c2.4,1.1,4.3,2.7,5.7,4.7c1.4,2,2,4.4,2,7.1v28.3h-8.5V425h-0.2
			c-0.8,1.5-1.8,2.8-3.1,3.8c-1.3,1.1-2.7,1.9-4.3,2.5s-3.3,0.9-5.1,0.9C281.8,432.2,279.4,431.7,277.4,430.7z"/>
		<path class="st1" d="M313.9,390.4h8.5v6.4h0.2c0.9-2.2,2.3-3.9,4.3-5.2c2-1.3,4.3-2,7-2c1.9,0,3.6,0.3,5.1,0.9s2.8,1.5,3.9,2.8
			s1.9,2.7,2.4,4.4h0.2c0.7-1.7,1.7-3.1,2.9-4.3c1.3-1.2,2.7-2.1,4.4-2.8c1.7-0.7,3.5-1,5.4-1c2.7,0,5.1,0.6,7.1,1.7
			c2,1.1,3.6,2.7,4.7,4.7c1.1,2,1.7,4.4,1.7,7.1v28.3h-8.5v-26.2c0-2.7-0.7-4.7-2-6.2c-1.4-1.5-3.3-2.2-5.8-2.2
			c-1.7,0-3.1,0.4-4.4,1.1c-1.3,0.8-2.3,1.8-3,3.2c-0.7,1.4-1.1,2.9-1.1,4.6v25.7h-8.3v-26.8c0-2.4-0.7-4.3-2.1-5.7
			c-1.4-1.4-3.3-2.1-5.7-2.1c-1.6,0-3.1,0.4-4.4,1.2c-1.3,0.8-2.3,1.9-3,3.3c-0.7,1.4-1.1,3-1.1,4.8v25.4h-8.5V390.4z"/>
		<path class="st1" d="M380,390.4h8.5v7h0.2c0.8-1.6,1.8-3,3.1-4.2c1.3-1.2,2.7-2.1,4.4-2.7s3.4-0.9,5.4-0.9c3.5,0,6.5,0.9,9.1,2.6
			c2.6,1.7,4.6,4.2,6,7.4c1.4,3.2,2.1,7,2.1,11.3v0c0,4.4-0.7,8.2-2.1,11.3c-1.4,3.2-3.4,5.6-6,7.4c-2.6,1.7-5.5,2.6-9,2.6
			c-1.9,0-3.7-0.3-5.4-0.9s-3.2-1.5-4.4-2.7c-1.3-1.2-2.3-2.5-3.2-4.1h-0.2v20.6H380V390.4z M405,423.3c1.6-1.1,2.9-2.8,3.7-4.9
			s1.3-4.6,1.3-7.5v0c0-2.9-0.4-5.4-1.3-7.5s-2.1-3.7-3.7-4.8c-1.6-1.1-3.5-1.7-5.7-1.7c-2.1,0-4,0.6-5.7,1.7
			c-1.6,1.2-2.9,2.8-3.8,4.9c-0.9,2.1-1.4,4.6-1.4,7.4v0c0,2.8,0.5,5.3,1.4,7.4c0.9,2.1,2.2,3.7,3.8,4.9c1.6,1.2,3.5,1.7,5.6,1.7
			C401.5,425,403.4,424.4,405,423.3z"/>
		<path class="st1" d="M426.3,382.6c-1-1-1.4-2.1-1.4-3.4c0-1.4,0.5-2.5,1.4-3.5c1-0.9,2.1-1.4,3.5-1.4c1.4,0,2.5,0.5,3.5,1.4
			c1,0.9,1.4,2.1,1.4,3.5c0,1.3-0.5,2.5-1.4,3.4c-1,1-2.1,1.4-3.5,1.4C428.5,384.1,427.3,383.6,426.3,382.6z M425.5,390.4h8.5v41.1
			h-8.5V390.4z"/>
		<path class="st1" d="M442.7,390.4h8.5v6.2h0.2c1.1-2.1,2.7-3.8,4.8-5.1s4.7-1.9,7.8-1.9c4.5,0,8,1.4,10.5,4.1
			c2.5,2.7,3.7,6.5,3.7,11.2v26.6h-8.5v-25c0-3.1-0.7-5.5-2.2-7.1c-1.4-1.7-3.6-2.5-6.5-2.5c-2,0-3.7,0.4-5.2,1.3
			c-1.5,0.9-2.6,2.1-3.4,3.7c-0.8,1.6-1.2,3.5-1.2,5.6v23.9h-8.5V390.4z"/>
		<path class="st1" d="M495.2,444.5c-2.6-1-4.7-2.3-6.3-4c-1.6-1.7-2.6-3.6-3-5.7l-0.1-0.4h8.4l0.1,0.3c0.6,1.3,1.7,2.4,3.5,3.2
			c1.7,0.8,3.9,1.2,6.5,1.2c3.3,0,5.9-0.8,7.7-2.5s2.7-3.9,2.7-6.8v-5.7h-0.2c-0.8,1.5-1.8,2.8-3.1,3.9c-1.3,1.1-2.7,1.9-4.4,2.5
			c-1.7,0.6-3.5,0.9-5.5,0.9c-3.4,0-6.4-0.9-9-2.6c-2.6-1.7-4.6-4.1-6-7.2s-2.1-6.8-2.1-11.1v0c0-4.3,0.7-8,2.1-11.2
			c1.4-3.1,3.4-5.6,6-7.3c2.6-1.7,5.6-2.6,9.1-2.6c2,0,3.7,0.3,5.4,1c1.6,0.7,3.1,1.6,4.3,2.7c1.2,1.2,2.3,2.5,3.1,4.1h0.2v-7h8.5
			v40c0,3.1-0.8,5.9-2.3,8.2s-3.7,4.2-6.5,5.5c-2.8,1.3-6.2,2-10,2C500.9,446,497.8,445.5,495.2,444.5z M509.6,422.9
			c1.6-1.1,2.9-2.8,3.8-4.8c0.9-2.1,1.3-4.5,1.3-7.3v0c0-2.8-0.4-5.3-1.3-7.3s-2.2-3.7-3.8-4.8c-1.6-1.1-3.5-1.7-5.6-1.7
			c-2.2,0-4.1,0.6-5.8,1.7c-1.6,1.1-2.9,2.7-3.8,4.8c-0.9,2.1-1.3,4.5-1.3,7.3v0c0,2.9,0.4,5.4,1.3,7.4c0.9,2.1,2.1,3.7,3.8,4.8
			c1.6,1.1,3.5,1.7,5.8,1.7C506.1,424.7,508,424.1,509.6,422.9z"/>
		<path class="st1" d="M562.7,382.7h-17.2v-7.6h43.2v7.6h-17.2v48.8h-8.8V382.7z"/>
		<path class="st1" d="M599.6,430.7c-2.1-1-3.7-2.5-4.8-4.4c-1.1-1.9-1.7-4-1.7-6.5v-0.1c0-3.6,1.3-6.4,4-8.5
			c2.7-2.1,6.4-3.3,11.3-3.6l15.5-0.9v5.9l-14.4,0.9c-2.5,0.2-4.5,0.8-5.8,1.8s-2.1,2.5-2.1,4.2v0.1c0,1.8,0.7,3.2,2.1,4.3
			c1.4,1,3.2,1.6,5.4,1.6c2,0,3.8-0.4,5.3-1.2c1.6-0.8,2.8-1.9,3.7-3.3c0.9-1.4,1.4-3,1.4-4.8v-12.2c0-2.3-0.7-4-2.1-5.3
			s-3.4-1.9-6.1-1.9c-2.4,0-4.4,0.5-5.8,1.6c-1.5,1-2.4,2.4-2.8,4l-0.1,0.4h-8l0-0.4c0.2-2.4,1-4.5,2.4-6.4c1.4-1.9,3.3-3.4,5.7-4.5
			c2.4-1.1,5.4-1.6,8.7-1.6s6.3,0.6,8.7,1.7c2.4,1.1,4.3,2.7,5.7,4.7c1.4,2,2,4.4,2,7.1v28.3h-8.5V425h-0.2
			c-0.8,1.5-1.8,2.8-3.1,3.8c-1.3,1.1-2.7,1.9-4.3,2.5s-3.3,0.9-5.1,0.9C604.1,432.2,601.7,431.7,599.6,430.7z"/>
		<path class="st1" d="M650.4,430.2c-2.2-1.4-3.9-3.3-5.1-5.7H645v7h-8.5v-56.4h8.5v22.3h0.2c1.2-2.4,3-4.3,5.2-5.7
			c2.3-1.4,4.8-2.1,7.8-2.1c3.4,0,6.4,0.9,9,2.6c2.6,1.7,4.5,4.2,6,7.4c1.4,3.2,2.1,7,2.1,11.3v0c0,4.4-0.7,8.2-2.1,11.3
			c-1.4,3.2-3.4,5.7-6,7.4c-2.6,1.7-5.6,2.6-9.1,2.6C655.2,432.3,652.6,431.6,650.4,430.2z M661.6,423.3c1.6-1.1,2.9-2.7,3.7-4.9
			c0.9-2.1,1.3-4.6,1.3-7.5v0c0-2.9-0.4-5.4-1.3-7.5c-0.9-2.1-2.1-3.7-3.7-4.8c-1.6-1.1-3.5-1.7-5.7-1.7c-2.1,0-4,0.6-5.6,1.7
			c-1.6,1.2-2.9,2.8-3.8,4.9c-0.9,2.1-1.4,4.6-1.4,7.4v0c0,2.8,0.5,5.3,1.4,7.4c0.9,2.1,2.2,3.7,3.8,4.9c1.6,1.2,3.5,1.7,5.6,1.7
			C658.1,425,660,424.4,661.6,423.3z"/>
		<path class="st1" d="M682.1,375.1h8.5v56.4h-8.5V375.1z"/>
		<path class="st1" d="M706.4,429.7c-2.9-1.7-5.1-4.2-6.7-7.4c-1.5-3.2-2.3-6.9-2.3-11.3v0c0-4.3,0.8-8,2.3-11.2
			c1.6-3.2,3.8-5.7,6.6-7.5c2.8-1.8,6.2-2.7,10-2.7c3.9,0,7.2,0.9,9.9,2.6c2.8,1.7,4.9,4.1,6.4,7.2c1.5,3.1,2.3,6.7,2.3,10.8v2.9
			h-33.4v-6h29.3l-4.2,5.6v-3.3c0-2.9-0.4-5.3-1.3-7.2c-0.9-1.9-2.1-3.3-3.6-4.3c-1.5-0.9-3.3-1.4-5.4-1.4c-2,0-3.8,0.5-5.4,1.5
			c-1.6,1-2.8,2.4-3.8,4.4c-0.9,1.9-1.4,4.3-1.4,7.1v3.3c0,2.7,0.4,4.9,1.3,6.8c0.9,1.9,2.2,3.3,3.8,4.3c1.7,1,3.6,1.5,5.9,1.5
			c1.7,0,3.1-0.3,4.4-0.8c1.3-0.5,2.3-1.2,3.2-2c0.8-0.8,1.4-1.8,1.8-2.8l0.1-0.3h8l-0.1,0.4c-0.3,1.6-1,3.2-1.9,4.6s-2.2,2.8-3.7,4
			c-1.5,1.2-3.3,2.1-5.3,2.8s-4.3,1-6.8,1C712.8,432.3,709.3,431.4,706.4,429.7z"/>
	</g>
</g>
<rect x="623" y="71" transform="matrix(-1.357876e-10 1 -1 -1.357876e-10 944 -342)" class="st0" width="40" height="460"/>
<g>
	<g>
		<path class="st1" d="M529.6,288.6h3.4l3.9,16.6h0.1l4.5-16.6h3.1l4.5,16.6h0.1l3.9-16.6h3.4l-5.7,21.1h-3.2l-4.5-15.9H543
			l-4.5,15.9h-3.2L529.6,288.6z"/>
		<path class="st1" d="M560.5,309.4c-0.8-0.4-1.4-0.9-1.8-1.6s-0.6-1.5-0.6-2.4v0c0-1.3,0.5-2.4,1.5-3.2s2.4-1.2,4.2-1.3l5.8-0.4
			v2.2l-5.4,0.3c-0.9,0.1-1.7,0.3-2.2,0.7s-0.8,0.9-0.8,1.6v0c0,0.7,0.3,1.2,0.8,1.6s1.2,0.6,2,0.6c0.7,0,1.4-0.2,2-0.5
			s1.1-0.7,1.4-1.3s0.5-1.1,0.5-1.8v-4.6c0-0.8-0.3-1.5-0.8-2s-1.3-0.7-2.3-0.7c-0.9,0-1.6,0.2-2.2,0.6s-0.9,0.9-1,1.5l0,0.1h-3
			l0-0.2c0.1-0.9,0.4-1.7,0.9-2.4s1.2-1.3,2.2-1.7s2-0.6,3.3-0.6s2.3,0.2,3.3,0.6s1.6,1,2.1,1.8s0.8,1.7,0.8,2.7v10.6H568v-2.4h-0.1
			c-0.3,0.6-0.7,1-1.2,1.4s-1,0.7-1.6,0.9s-1.2,0.3-1.9,0.3C562.2,310,561.3,309.8,560.5,309.4z"/>
		<path class="st1" d="M574.2,294.3h3.2v2.6h0.1c0.2-0.9,0.7-1.6,1.3-2.1s1.4-0.8,2.3-0.8c0.2,0,0.4,0,0.6,0s0.3,0.1,0.5,0.1v2.9
			c-0.1,0-0.3-0.1-0.6-0.1s-0.5-0.1-0.8-0.1c-0.7,0-1.3,0.1-1.8,0.4s-0.9,0.7-1.1,1.2s-0.4,1.2-0.4,2v9.2h-3.2V294.3z"/>
		<path class="st1" d="M584.1,294.3h3.2v2.3h0.1c0.4-0.8,1-1.4,1.8-1.9s1.8-0.7,2.9-0.7c1.7,0,3,0.5,3.9,1.5s1.4,2.4,1.4,4.2v10
			h-3.2v-9.4c0-1.2-0.3-2.1-0.8-2.7s-1.4-0.9-2.5-0.9c-0.7,0-1.4,0.2-1.9,0.5s-1,0.8-1.3,1.4s-0.4,1.3-0.4,2.1v9h-3.2V294.3z"/>
		<path class="st1" d="M600.9,291.4c-0.4-0.4-0.5-0.8-0.5-1.3c0-0.5,0.2-1,0.5-1.3s0.8-0.5,1.3-0.5c0.5,0,1,0.2,1.3,0.5
			s0.5,0.8,0.5,1.3c0,0.5-0.2,0.9-0.5,1.3s-0.8,0.5-1.3,0.5C601.7,291.9,601.2,291.8,600.9,291.4z M600.6,294.3h3.2v15.4h-3.2V294.3
			z"/>
		<path class="st1" d="M607,294.3h3.2v2.3h0.1c0.4-0.8,1-1.4,1.8-1.9s1.8-0.7,2.9-0.7c1.7,0,3,0.5,3.9,1.5s1.4,2.4,1.4,4.2v10h-3.2
			v-9.4c0-1.2-0.3-2.1-0.8-2.7s-1.4-0.9-2.5-0.9c-0.7,0-1.4,0.2-1.9,0.5s-1,0.8-1.3,1.4s-0.4,1.3-0.4,2.1v9H607V294.3z"/>
		<path class="st1" d="M626.7,314.6c-1-0.4-1.8-0.9-2.4-1.5s-1-1.3-1.1-2.1l0-0.1h3.2l0,0.1c0.2,0.5,0.6,0.9,1.3,1.2
			s1.5,0.5,2.5,0.5c1.2,0,2.2-0.3,2.9-0.9s1-1.5,1-2.5V307H634c-0.3,0.6-0.7,1-1.2,1.5s-1,0.7-1.6,1s-1.3,0.3-2.1,0.3
			c-1.3,0-2.4-0.3-3.4-1s-1.7-1.5-2.2-2.7s-0.8-2.6-0.8-4.2v0c0-1.6,0.3-3,0.8-4.2s1.3-2.1,2.3-2.7s2.1-1,3.4-1c0.7,0,1.4,0.1,2,0.4
			s1.2,0.6,1.6,1s0.9,0.9,1.2,1.5h0.1v-2.6h3.2v15c0,1.2-0.3,2.2-0.9,3.1s-1.4,1.6-2.4,2.1s-2.3,0.7-3.8,0.7
			C628.8,315.2,627.7,315,626.7,314.6z M632.1,306.5c0.6-0.4,1.1-1,1.4-1.8s0.5-1.7,0.5-2.8v0c0-1.1-0.2-2-0.5-2.7s-0.8-1.4-1.4-1.8
			s-1.3-0.6-2.1-0.6c-0.8,0-1.6,0.2-2.2,0.6s-1.1,1-1.4,1.8s-0.5,1.7-0.5,2.7v0c0,1.1,0.2,2,0.5,2.8s0.8,1.4,1.4,1.8
			s1.3,0.6,2.2,0.6C630.8,307.2,631.5,306.9,632.1,306.5z"/>
		<path class="st1" d="M648.4,309c-0.7-0.7-1.1-1.8-1.1-3.3v-8.8h-2.2v-2.5h2.2v-4h3.3v4h2.9v2.5h-2.9v8.6c0,0.8,0.2,1.3,0.5,1.6
			s0.8,0.4,1.5,0.4c0.2,0,0.3,0,0.5,0s0.3,0,0.4,0v2.4c-0.2,0-0.4,0.1-0.7,0.1s-0.6,0-0.9,0C650.3,310,649.2,309.7,648.4,309z"/>
		<path class="st1" d="M656,294.3h3.2v2.6h0.1c0.2-0.9,0.7-1.6,1.3-2.1s1.4-0.8,2.3-0.8c0.2,0,0.4,0,0.6,0s0.3,0.1,0.5,0.1v2.9
			c-0.1,0-0.3-0.1-0.6-0.1s-0.5-0.1-0.8-0.1c-0.7,0-1.3,0.1-1.8,0.4s-0.9,0.7-1.1,1.2s-0.4,1.2-0.4,2v9.2H656V294.3z"/>
		<path class="st1" d="M666.3,291.4c-0.4-0.4-0.5-0.8-0.5-1.3c0-0.5,0.2-1,0.5-1.3s0.8-0.5,1.3-0.5c0.5,0,1,0.2,1.3,0.5
			s0.5,0.8,0.5,1.3c0,0.5-0.2,0.9-0.5,1.3s-0.8,0.5-1.3,0.5C667.1,291.9,666.7,291.8,666.3,291.4z M666,294.3h3.2v15.4H666V294.3z"
			/>
		<path class="st1" d="M674.3,309.4c-0.8-0.4-1.4-0.9-1.8-1.6s-0.6-1.5-0.6-2.4v0c0-1.3,0.5-2.4,1.5-3.2s2.4-1.2,4.2-1.3l5.8-0.4
			v2.2L678,303c-0.9,0.1-1.7,0.3-2.2,0.7s-0.8,0.9-0.8,1.6v0c0,0.7,0.3,1.2,0.8,1.6s1.2,0.6,2,0.6c0.7,0,1.4-0.2,2-0.5
			s1.1-0.7,1.4-1.3s0.5-1.1,0.5-1.8v-4.6c0-0.8-0.3-1.5-0.8-2s-1.3-0.7-2.3-0.7c-0.9,0-1.6,0.2-2.2,0.6s-0.9,0.9-1,1.5l0,0.1h-3
			l0-0.2c0.1-0.9,0.4-1.7,0.9-2.4s1.2-1.3,2.2-1.7s2-0.6,3.3-0.6s2.3,0.2,3.3,0.6s1.6,1,2.1,1.8s0.8,1.7,0.8,2.7v10.6h-3.2v-2.4
			h-0.1c-0.3,0.6-0.7,1-1.2,1.4s-1,0.7-1.6,0.9s-1.2,0.3-1.9,0.3C676,310,675.1,309.8,674.3,309.4z"/>
		<path class="st1" d="M688,294.3h3.2v2.3h0.1c0.4-0.8,1-1.4,1.8-1.9s1.8-0.7,2.9-0.7c1.7,0,3,0.5,3.9,1.5s1.4,2.4,1.4,4.2v10h-3.2
			v-9.4c0-1.2-0.3-2.1-0.8-2.7s-1.4-0.9-2.5-0.9c-0.7,0-1.4,0.2-1.9,0.5s-1,0.8-1.3,1.4s-0.4,1.3-0.4,2.1v9H688V294.3z"/>
		<path class="st1" d="M707.7,314.6c-1-0.4-1.8-0.9-2.4-1.5s-1-1.3-1.1-2.1l0-0.1h3.2l0,0.1c0.2,0.5,0.6,0.9,1.3,1.2
			s1.5,0.5,2.5,0.5c1.2,0,2.2-0.3,2.9-0.9s1-1.5,1-2.5V307h-0.1c-0.3,0.6-0.7,1-1.2,1.5s-1,0.7-1.6,1s-1.3,0.3-2.1,0.3
			c-1.3,0-2.4-0.3-3.4-1s-1.7-1.5-2.2-2.7s-0.8-2.6-0.8-4.2v0c0-1.6,0.3-3,0.8-4.2s1.3-2.1,2.3-2.7s2.1-1,3.4-1c0.7,0,1.4,0.1,2,0.4
			s1.2,0.6,1.6,1s0.9,0.9,1.2,1.5h0.1v-2.6h3.2v15c0,1.2-0.3,2.2-0.9,3.1s-1.4,1.6-2.4,2.1s-2.3,0.7-3.8,0.7
			C709.8,315.2,708.7,315,707.7,314.6z M713.1,306.5c0.6-0.4,1.1-1,1.4-1.8s0.5-1.7,0.5-2.8v0c0-1.1-0.2-2-0.5-2.7s-0.8-1.4-1.4-1.8
			s-1.3-0.6-2.1-0.6c-0.8,0-1.6,0.2-2.2,0.6s-1.1,1-1.4,1.8s-0.5,1.7-0.5,2.7v0c0,1.1,0.2,2,0.5,2.8s0.8,1.4,1.4,1.8
			s1.3,0.6,2.2,0.6C711.8,307.2,712.5,306.9,713.1,306.5z"/>
		<path class="st1" d="M721.4,288.6h3.2v21.1h-3.2V288.6z"/>
		<path class="st1" d="M730.5,309.1c-1.1-0.6-1.9-1.6-2.5-2.8s-0.9-2.6-0.9-4.2v0c0-1.6,0.3-3,0.9-4.2s1.4-2.1,2.5-2.8s2.3-1,3.8-1
			c1.4,0,2.7,0.3,3.7,1s1.8,1.5,2.4,2.7s0.8,2.5,0.8,4.1v1.1h-12.5v-2.2h11l-1.6,2.1v-1.2c0-1.1-0.2-2-0.5-2.7s-0.8-1.3-1.4-1.6
			s-1.3-0.5-2-0.5c-0.8,0-1.4,0.2-2,0.6s-1.1,0.9-1.4,1.6s-0.5,1.6-0.5,2.6v1.2c0,1,0.2,1.8,0.5,2.6s0.8,1.2,1.4,1.6
			s1.4,0.6,2.2,0.6c0.6,0,1.2-0.1,1.7-0.3s0.9-0.4,1.2-0.8s0.5-0.7,0.7-1.1l0-0.1h3l0,0.2c-0.1,0.6-0.4,1.2-0.7,1.7
			s-0.8,1.1-1.4,1.5s-1.2,0.8-2,1s-1.6,0.4-2.5,0.4C732.9,310,731.6,309.7,730.5,309.1z"/>
	</g>
</g>
<path class="st0" d="M475,261.2v-6.5c0-3.7,3-6.8,6.8-6.8h384.5c3.7,0,6.8,3,6.8,6.8v6.5c0,3.7-3,6.8-6.8,6.8H481.8
	C478,268,475,265,475,261.2z"/>
<g>
	<g>
		<path class="st1" d="M636.3,247.6h3.8l6.8,16.9h0.1l6.8-16.9h3.8v21.1h-3v-15.6h-1.5l3.4-5l-8.4,20.6h-2.4l-8.4-20.6l3.4,5h-1.5
			v15.6h-3V247.6z"/>
		<path class="st1" d="M663,268.4c-0.8-0.4-1.4-0.9-1.8-1.6s-0.6-1.5-0.6-2.4v0c0-1.3,0.5-2.4,1.5-3.2s2.4-1.2,4.2-1.3l5.8-0.4v2.2
			l-5.4,0.3c-0.9,0.1-1.7,0.3-2.2,0.7s-0.8,0.9-0.8,1.6v0c0,0.7,0.3,1.2,0.8,1.6s1.2,0.6,2,0.6c0.7,0,1.4-0.2,2-0.5s1.1-0.7,1.4-1.3
			s0.5-1.1,0.5-1.8v-4.6c0-0.8-0.3-1.5-0.8-2s-1.3-0.7-2.3-0.7c-0.9,0-1.6,0.2-2.2,0.6s-0.9,0.9-1,1.5l0,0.1h-3l0-0.2
			c0.1-0.9,0.4-1.7,0.9-2.4s1.2-1.3,2.2-1.7s2-0.6,3.3-0.6s2.3,0.2,3.3,0.6s1.6,1,2.1,1.8s0.8,1.7,0.8,2.7v10.6h-3.2v-2.4h-0.1
			c-0.3,0.6-0.7,1-1.2,1.4s-1,0.7-1.6,0.9s-1.2,0.3-1.9,0.3C664.7,269,663.8,268.8,663,268.4z"/>
		<path class="st1" d="M679.5,268c-1.1-0.7-1.9-1.6-2.5-2.8s-0.9-2.6-0.9-4.3v0c0-1.6,0.3-3,0.9-4.2s1.4-2.1,2.5-2.8s2.4-1,3.8-1
			c1.3,0,2.5,0.3,3.4,0.8s1.7,1.2,2.3,2s0.9,1.7,1,2.7l0,0.1h-3l0-0.1c-0.2-0.8-0.5-1.4-1.1-2s-1.4-0.8-2.4-0.8
			c-0.8,0-1.5,0.2-2.1,0.7s-1.1,1.1-1.4,1.9s-0.5,1.7-0.5,2.8v0c0,1.1,0.2,2.1,0.5,2.9s0.8,1.4,1.4,1.8s1.3,0.6,2.1,0.6
			c1,0,1.8-0.3,2.4-0.8s1-1.2,1.2-2l0-0.1h3v0.1c-0.1,1-0.5,2-1,2.8s-1.3,1.5-2.3,2s-2,0.7-3.3,0.7C681.9,269,680.6,268.7,679.5,268
			z"/>
	</g>
</g>
<path class="st0" d="M602,233.2v-0.5c0-3.7,3-6.8,6.8-6.8h257.5c3.7,0,6.8,3,6.8,6.8v0.5c0,3.7-3,6.8-6.8,6.8H608.8
	C605,240,602,237,602,233.2z"/>
<g>
	<g>
		<path class="st1" d="M709.5,224.4c-0.4-0.4-0.5-0.8-0.5-1.3c0-0.5,0.2-1,0.5-1.3s0.8-0.5,1.3-0.5c0.5,0,1,0.2,1.3,0.5
			s0.5,0.8,0.5,1.3c0,0.5-0.2,0.9-0.5,1.3s-0.8,0.5-1.3,0.5C710.3,224.9,709.9,224.8,709.5,224.4z M709.2,227.3h3.2v15.4h-3.2V227.3
			z"/>
		<path class="st1" d="M716,221.6h3.3v21.1H716V221.6z M717.7,232.7h5.4c1.4,0,2.5-0.4,3.3-1.1s1.2-1.8,1.2-3.1v0
			c0-1.3-0.4-2.4-1.2-3.1s-1.9-1.1-3.3-1.1h-5.4v-2.8h6.2c1.4,0,2.6,0.3,3.7,0.9s1.9,1.4,2.5,2.4s0.9,2.2,0.9,3.6v0
			c0,1.4-0.3,2.6-0.9,3.6s-1.4,1.9-2.5,2.4s-2.3,0.9-3.7,0.9h-6.2V232.7z"/>
		<path class="st1" d="M735.3,242.4c-0.8-0.4-1.4-0.9-1.8-1.6s-0.6-1.5-0.6-2.4v0c0-1.3,0.5-2.4,1.5-3.2s2.4-1.2,4.2-1.3l5.8-0.4
			v2.2L739,236c-0.9,0.1-1.7,0.3-2.2,0.7s-0.8,0.9-0.8,1.6v0c0,0.7,0.3,1.2,0.8,1.6s1.2,0.6,2,0.6c0.7,0,1.4-0.2,2-0.5
			s1.1-0.7,1.4-1.3s0.5-1.1,0.5-1.8v-4.6c0-0.8-0.3-1.5-0.8-2s-1.3-0.7-2.3-0.7c-0.9,0-1.6,0.2-2.2,0.6s-0.9,0.9-1,1.5l0,0.1h-3
			l0-0.2c0.1-0.9,0.4-1.7,0.9-2.4s1.2-1.3,2.2-1.7s2-0.6,3.3-0.6s2.3,0.2,3.3,0.6s1.6,1,2.1,1.8s0.8,1.7,0.8,2.7v10.6h-3.2v-2.4
			h-0.1c-0.3,0.6-0.7,1-1.2,1.4s-1,0.7-1.6,0.9s-1.2,0.3-1.9,0.3C736.9,243,736,242.8,735.3,242.4z"/>
		<path class="st1" d="M751.3,242c-1-0.7-1.7-1.6-2.2-2.8s-0.8-2.6-0.8-4.3v0c0-1.6,0.3-3.1,0.8-4.2s1.3-2.1,2.2-2.8s2.1-1,3.4-1
			c1.1,0,2,0.3,2.9,0.8s1.5,1.2,2,2.1h0.1v-8.3h3.2v21.1h-3.2v-2.6h-0.1c-0.5,0.9-1.1,1.6-1.9,2.1s-1.8,0.8-2.9,0.8
			C753.4,243,752.3,242.7,751.3,242z M757.7,239.6c0.6-0.4,1.1-1,1.4-1.8s0.5-1.7,0.5-2.8v0c0-1.1-0.2-2-0.5-2.8s-0.8-1.4-1.4-1.8
			s-1.3-0.7-2.1-0.7c-0.8,0-1.5,0.2-2.2,0.6s-1.1,1-1.4,1.8s-0.5,1.7-0.5,2.8v0c0,1.1,0.2,2,0.5,2.8s0.8,1.4,1.4,1.8
			s1.3,0.6,2.2,0.6C756.4,240.3,757.1,240.1,757.7,239.6z"/>
	</g>
</g>
<path class="st0" d="M951.5,27.3h235.4c17.8,0,32.3,14.5,32.3,32.3v85.4c0,17.8-14.5,32.3-32.3,32.3H951.5
	c-17.8,0-32.3-14.5-32.3-32.3V59.6C919.2,41.8,933.7,27.3,951.5,27.3z"/>
<g>
	<g>
		<path class="st1" d="M1015,119.1c-2-0.8-3.5-1.9-4.7-3.4c-1.2-1.5-1.8-3.3-2-5.3l0-0.4h5.3l0,0.3c0.2,1.1,0.6,2,1.4,2.8
			c0.7,0.8,1.7,1.4,2.9,1.8c1.2,0.4,2.6,0.6,4.2,0.6c1.6,0,2.9-0.2,4.1-0.7c1.1-0.4,2-1.1,2.6-1.9c0.6-0.8,0.9-1.8,0.9-2.9v0
			c0-1.4-0.5-2.5-1.5-3.4c-1-0.8-2.7-1.5-5-2l-3.8-0.8c-3.5-0.7-6-1.9-7.7-3.5c-1.7-1.6-2.5-3.7-2.5-6.3v0c0-2,0.6-3.8,1.7-5.3
			c1.1-1.5,2.6-2.7,4.5-3.6c1.9-0.9,4.1-1.3,6.6-1.3c2.4,0,4.6,0.4,6.5,1.2c1.9,0.8,3.4,2,4.4,3.5c1.1,1.5,1.7,3.2,1.8,5.2l0,0.4
			h-5.3l0-0.3c-0.1-1.1-0.5-2.1-1.2-2.8s-1.5-1.4-2.6-1.8c-1.1-0.4-2.3-0.6-3.7-0.6c-1.4,0-2.7,0.2-3.8,0.6c-1.1,0.4-1.9,1-2.5,1.8
			s-0.9,1.7-0.9,2.7v0c0,1.3,0.5,2.4,1.6,3.2c1,0.8,2.7,1.5,4.9,2l3.8,0.8c3.6,0.8,6.3,1.9,7.9,3.5c1.7,1.6,2.5,3.7,2.5,6.4v0
			c0,2.1-0.5,4-1.6,5.6c-1.1,1.6-2.6,2.8-4.6,3.6c-2,0.9-4.4,1.3-7.2,1.3C1019.3,120.2,1017,119.9,1015,119.1z"/>
		<path class="st1" d="M1043,118.5c-1.2-1.1-1.9-3-1.9-5.6V98.2h-3.7V94h3.7v-6.7h5.4V94h4.8v4.2h-4.8v14.4c0,1.3,0.3,2.2,0.9,2.7
			c0.6,0.5,1.4,0.7,2.5,0.7c0.3,0,0.5,0,0.8,0c0.2,0,0.5,0,0.6-0.1v4.1c-0.3,0-0.7,0.1-1.2,0.1c-0.5,0-1,0.1-1.5,0.1
			C1046.1,120.2,1044.2,119.6,1043,118.5z"/>
		<path class="st1" d="M1060.3,118.6c-1.8-1.1-3.3-2.6-4.3-4.6c-1-2-1.5-4.4-1.5-7.1v0c0-2.7,0.5-5.1,1.5-7.1c1-2,2.4-3.5,4.3-4.6
			s4-1.6,6.4-1.6c2.4,0,4.6,0.5,6.4,1.6c1.8,1.1,3.3,2.6,4.3,4.6c1,2,1.5,4.4,1.5,7.1v0c0,2.8-0.5,5.1-1.5,7.1c-1,2-2.4,3.5-4.3,4.6
			c-1.8,1.1-4,1.6-6.4,1.6C1064.3,120.2,1062.2,119.6,1060.3,118.6z M1070.4,114.7c1-0.7,1.8-1.7,2.3-3c0.6-1.3,0.8-2.9,0.8-4.8v0
			c0-1.9-0.3-3.5-0.8-4.8c-0.6-1.3-1.3-2.3-2.4-3c-1-0.7-2.2-1-3.6-1c-1.4,0-2.5,0.3-3.6,1c-1,0.7-1.8,1.7-2.4,3
			c-0.6,1.3-0.9,2.9-0.9,4.8v0c0,1.9,0.3,3.5,0.8,4.8c0.6,1.3,1.4,2.3,2.4,3s2.2,1,3.6,1C1068.2,115.7,1069.3,115.4,1070.4,114.7z"
			/>
		<path class="st1" d="M1080.8,94h5.6l6.4,20.5h0.1l6.4-20.5h5.5l-9.2,25.7h-5.7L1080.8,94z"/>
		<path class="st1" d="M1112.5,118.6c-1.8-1.1-3.2-2.6-4.2-4.6c-1-2-1.5-4.3-1.5-7v0c0-2.7,0.5-5,1.5-7c1-2,2.4-3.6,4.1-4.7
			c1.8-1.1,3.9-1.7,6.2-1.7c2.4,0,4.5,0.5,6.2,1.6c1.7,1.1,3.1,2.6,4,4.5c0.9,1.9,1.4,4.2,1.4,6.8v1.8h-20.9v-3.7h18.3l-2.6,3.5
			v-2.1c0-1.8-0.3-3.3-0.8-4.5c-0.5-1.2-1.3-2.1-2.3-2.7c-1-0.6-2.1-0.9-3.4-0.9c-1.3,0-2.4,0.3-3.4,0.9s-1.8,1.5-2.3,2.7
			s-0.9,2.7-0.9,4.4v2.1c0,1.7,0.3,3.1,0.8,4.3c0.6,1.2,1.4,2.1,2.4,2.7c1,0.6,2.3,0.9,3.7,0.9c1,0,2-0.2,2.8-0.5s1.5-0.7,2-1.3
			c0.5-0.5,0.9-1.1,1.1-1.8l0.1-0.2h5l0,0.3c-0.2,1-0.6,2-1.2,2.9s-1.3,1.8-2.3,2.5c-0.9,0.7-2,1.3-3.3,1.7s-2.7,0.6-4.2,0.6
			C1116.5,120.2,1114.3,119.6,1112.5,118.6z"/>
	</g>
</g>
<path class="st0" d="M1135,484.7h-129.7c-8.4,0-15.2-6.8-15.2-15.2V229.9c0-8.4,6.8-15.2,15.2-15.2H1135c8.4,0,15.2,6.8,15.2,15.2
	v239.7C1150.1,478,1143.3,484.7,1135,484.7z"/>
<g id="books">
	<g>
		<g>
			
				<rect x="1145.7" y="387" transform="matrix(-1.836970e-16 1 -1 -1.836970e-16 1622.0181 -827.4035)" class="st0" width="157.9" height="20.5"/>
			
				<rect x="1222.8" y="327" transform="matrix(-1.836970e-16 1 -1 -1.836970e-16 1561.9384 -887.4832)" class="st0" width="3.7" height="20.5"/>
			
				<rect x="1222.8" y="448.6" transform="matrix(-1.836970e-16 1 -1 -1.836970e-16 1683.6029 -765.8187)" class="st0" width="3.7" height="20.5"/>
			
				<rect x="1177.1" y="395.3" transform="matrix(-1.836970e-16 1 -1 -1.836970e-16 1622.9401 -826.4814)" class="st0" width="95.2" height="5.8"/>
		</g>
	</g>
	<g>
		<g>
			<polygon class="st0" points="1283,476.3 1275.5,476.3 1275.5,333 1242.4,333 1242.4,476.3 1234.9,476.3 1234.9,324.5 1283,324.5 
							"/>
			<g>
				<path class="st0" d="M1242.4,333v81.4v56.1c0,0,5.4-3.2,16.6-3.2c12.9,0,16.6,3.2,16.6,3.2v-56.1V333H1259H1242.4z"/>
				<g>
					<defs>
						<path id="SVGID_1_" d="M1242.4,333v81.4v56.1c0,0,5.4-3.2,16.6-3.2c12.9,0,16.6,3.2,16.6,3.2v-56.1V333H1259H1242.4z"/>
					</defs>
					<use xlink:href="#SVGID_1_"  style="overflow:visible;fill:#202020;"/>
					<clipPath id="SVGID_2_">
						<use xlink:href="#SVGID_1_"  style="overflow:visible;"/>
					</clipPath>
					<g class="st2">
						
							<rect x="1200.8" y="400" transform="matrix(6.123234e-17 -1 1 6.123234e-17 870.2166 1672.0352)" class="st0" width="140.7" height="1.7"/>
						
							<rect x="1195.8" y="400" transform="matrix(6.123234e-17 -1 1 6.123234e-17 865.2313 1667.0499)" class="st0" width="140.7" height="1.7"/>
						
							<rect x="1190.8" y="400" transform="matrix(6.123234e-17 -1 1 6.123234e-17 860.2459 1662.0646)" class="st0" width="140.7" height="1.7"/>
						
							<rect x="1185.8" y="400" transform="matrix(6.123234e-17 -1 1 6.123234e-17 855.2606 1657.0792)" class="st0" width="140.7" height="1.7"/>
						
							<rect x="1180.8" y="400" transform="matrix(6.123234e-17 -1 1 6.123234e-17 850.2752 1652.0939)" class="st0" width="140.7" height="1.7"/>
						
							<rect x="1175.8" y="400" transform="matrix(6.123234e-17 -1 1 6.123234e-17 845.2899 1647.1085)" class="st0" width="140.7" height="1.7"/>
					</g>
				</g>
			</g>
		</g>
		<polygon class="st0" points="1233.1,365.1 1237.7,370.9 1233.1,376.8 1250,376.8 1266.9,376.8 1266.9,370.9 1266.9,365.1 
			1250,365.1 		"/>
	</g>
	<g>
		<g>
			<g>
				<polygon class="st0" points="1359.2,316.1 1351.7,316.1 1351.7,467.8 1318.6,467.8 1318.6,316.1 1311.1,316.1 1311.1,476.3 
					1359.2,476.3 				"/>
				<g>
					<path class="st0" d="M1318.6,467.8v-81.4v-64.5c0,0,5.4,3.2,16.6,3.2c12.9,0,16.6-3.2,16.6-3.2v64.5v81.4h-16.6H1318.6z"/>
					<g>
						<defs>
							<path id="SVGID_3_" d="M1318.6,467.8v-81.4v-64.5c0,0,5.4,3.2,16.6,3.2c12.9,0,16.6-3.2,16.6-3.2v64.5v81.4h-16.6H1318.6z"/>
						</defs>
						<use xlink:href="#SVGID_3_"  style="overflow:visible;fill:#202020;"/>
						<clipPath id="SVGID_4_">
							<use xlink:href="#SVGID_3_"  style="overflow:visible;"/>
						</clipPath>
						<g class="st3">
							
								<rect x="1272.8" y="394.8" transform="matrix(-1.836970e-16 1 -1 -1.836970e-16 1742.9664 -951.6884)" class="st0" width="149.1" height="1.7"/>
							
								<rect x="1267.8" y="394.8" transform="matrix(-1.836970e-16 1 -1 -1.836970e-16 1737.9811 -946.7031)" class="st0" width="149.1" height="1.7"/>
							
								<rect x="1262.8" y="394.8" transform="matrix(-1.836970e-16 1 -1 -1.836970e-16 1732.9957 -941.7178)" class="st0" width="149.1" height="1.7"/>
							
								<rect x="1257.8" y="394.8" transform="matrix(-1.836970e-16 1 -1 -1.836970e-16 1728.0105 -936.7325)" class="st0" width="149.1" height="1.7"/>
							
								<rect x="1252.8" y="394.8" transform="matrix(-1.836970e-16 1 -1 -1.836970e-16 1723.0251 -931.7472)" class="st0" width="149.1" height="1.7"/>
							
								<rect x="1247.8" y="394.8" transform="matrix(-1.836970e-16 1 -1 -1.836970e-16 1718.0398 -926.7618)" class="st0" width="149.1" height="1.7"/>
						</g>
					</g>
				</g>
			</g>
		</g>
		<g>
			
				<rect x="1331.7" y="433" transform="matrix(6.123234e-17 -1 1 6.123234e-17 890.0364 1776.2404)" class="st0" width="2.9" height="20.2"/>
			<ellipse class="st0" cx="1323.3" cy="443.1" rx="8.6" ry="7.8"/>
			<path class="st0" d="M1323.3,437.7c-3.3,0-6,2.4-6,5.4c0,3,2.7,5.4,6,5.4s6-2.4,6-5.4C1329.2,440.1,1326.6,437.7,1323.3,437.7z"
				/>
		</g>
	</g>
	<g>
		<g>
			
				<rect x="1284.2" y="378.4" transform="matrix(-1.836970e-16 1 -1 -1.836970e-16 1760.4465 -980.8137)" class="st0" width="172.9" height="22.8"/>
			<g>
				
					<rect x="1369.6" y="317.3" transform="matrix(-1.836970e-16 1 -1 -1.836970e-16 1699.3544 -1041.9059)" class="st0" width="2" height="22.8"/>
				
					<rect x="1369.6" y="321.6" transform="matrix(-1.836970e-16 1 -1 -1.836970e-16 1703.5927 -1037.6676)" class="st0" width="2" height="22.8"/>
			</g>
			<g>
				
					<rect x="1369.6" y="375.9" transform="matrix(-1.836970e-16 1 -1 -1.836970e-16 1757.9078 -983.3524)" class="st0" width="2" height="22.8"/>
				
					<rect x="1369.6" y="380.1" transform="matrix(-1.836970e-16 1 -1 -1.836970e-16 1762.1461 -979.1141)" class="st0" width="2" height="22.8"/>
			</g>
			<g>
				
					<rect x="1369.6" y="434.4" transform="matrix(-1.836970e-16 1 -1 -1.836970e-16 1816.4614 -924.7988)" class="st0" width="2" height="22.8"/>
				
					<rect x="1369.6" y="438.7" transform="matrix(-1.836970e-16 1 -1 -1.836970e-16 1820.6996 -920.5607)" class="st0" width="2" height="22.8"/>
			</g>
		</g>
	</g>
	<g>
		
			<rect x="1117.1" y="379.2" transform="matrix(-1.836970e-16 1 -1 -1.836970e-16 1593.3612 -816.4891)" class="st0" width="175.7" height="18.4"/>
		
			<rect x="1179.3" y="335.3" transform="matrix(-1.836970e-16 1 -1 -1.836970e-16 1549.444 -860.4064)" class="st0" width="51.3" height="18.4"/>
		
			<rect x="1200.7" y="373.6" transform="matrix(-1.836970e-16 1 -1 -1.836970e-16 1587.7399 -822.1105)" class="st0" width="8.4" height="18.4"/>
		
			<rect x="1203.3" y="447" transform="matrix(-1.836970e-16 1 -1 -1.836970e-16 1661.1696 -748.6809)" class="st0" width="3.2" height="18.4"/>
	</g>
	<g>
		<g>
			
				<rect x="1202" y="366.5" transform="matrix(-1.836970e-16 1 -1 -1.836970e-16 1678.3152 -916.7982)" class="st0" width="191" height="28.5"/>
			<path class="st0" d="M1289.5,400.2v-89.3c0-4,3.6-7.3,8.1-7.3l0,0c4.4,0,8.1,3.3,8.1,7.3v89.3c0,4-3.6,7.3-8.1,7.3l0,0
				C1293.1,407.5,1289.5,404.2,1289.5,400.2z"/>
			<path class="st0" d="M1289.3,416.8L1289.3,416.8c0-1.4,1.3-2.6,2.9-2.6h10.7c1.6,0,2.9,1.2,2.9,2.6l0,0c0,1.4-1.3,2.6-2.9,2.6
				h-10.7C1290.5,419.4,1289.3,418.2,1289.3,416.8z"/>
		</g>
	</g>
	<g>
		
			<rect x="1313.3" y="366.7" transform="matrix(-1.836970e-16 1 -1 -1.836970e-16 1789.5991 -1015.6252)" class="st0" width="178.6" height="40.7"/>
		<g>
			
				<rect x="1392.2" y="308.7" transform="matrix(-1.836970e-16 1 -1 -1.836970e-16 1731.6736 -1073.5508)" class="st0" width="20.9" height="40.7"/>
			
				<rect x="1398" y="329.6" transform="matrix(-1.836970e-16 1 -1 -1.836970e-16 1752.3615 -1052.863)" class="st0" width="9.1" height="40.2"/>
			
				<rect x="1398.9" y="410.4" transform="matrix(-1.836970e-16 1 -1 -1.836970e-16 1833.3699 -971.8545)" class="st0" width="7.4" height="40.7"/>
			
				<rect x="1400" y="422.4" transform="matrix(-1.836970e-16 1 -1 -1.836970e-16 1845.3469 -959.8774)" class="st0" width="5.2" height="40.7"/>
		</g>
	</g>
	<g>
		<g>
			<g>
				<path class="st0" d="M1429,469.6v-63.9V360c0,0,6,2.5,18.6,2.5c14.5,0,18.6-2.5,18.6-2.5v45.7v63.9h-18.6H1429z"/>
				<path class="st0" d="M1429,469.6v-63.9V360c0,0,6,4.1,18.6,4.1c14.5,0,18.6-4.1,18.6-4.1v45.7v63.9h-18.6H1429z"/>
				<g>
					<defs>
						<path id="SVGID_5_" d="M1429,469.6v-63.9V360c0,0,6,2.5,18.6,2.5c14.5,0,18.6-2.5,18.6-2.5v45.7v63.9h-18.6H1429z"/>
					</defs>
					<use xlink:href="#SVGID_5_"  style="overflow:visible;fill:#202020;"/>
					<clipPath id="SVGID_6_">
						<use xlink:href="#SVGID_5_"  style="overflow:visible;"/>
					</clipPath>
					<g class="st4">
						<g>
							
								<rect x="1395.5" y="414.8" transform="matrix(-1.836970e-16 1 -1 -1.836970e-16 1867.0261 -1036.1562)" class="st0" width="112.2" height="1.4"/>
							
								<rect x="1391.6" y="414.8" transform="matrix(-1.836970e-16 1 -1 -1.836970e-16 1863.1113 -1032.2415)" class="st0" width="112.2" height="1.4"/>
							
								<rect x="1387.7" y="414.8" transform="matrix(-1.836970e-16 1 -1 -1.836970e-16 1859.1963 -1028.3264)" class="st0" width="112.2" height="1.4"/>
							
								<rect x="1383.8" y="414.8" transform="matrix(-1.836970e-16 1 -1 -1.836970e-16 1855.2814 -1024.4115)" class="st0" width="112.2" height="1.4"/>
							
								<rect x="1379.9" y="414.8" transform="matrix(-1.836970e-16 1 -1 -1.836970e-16 1851.3666 -1020.4966)" class="st0" width="112.2" height="1.4"/>
							
								<rect x="1375.9" y="414.8" transform="matrix(-1.836970e-16 1 -1 -1.836970e-16 1847.4517 -1016.5817)" class="st0" width="112.2" height="1.4"/>
						</g>
						<g>
							
								<rect x="1407.5" y="414.8" transform="matrix(-1.836970e-16 1 -1 -1.836970e-16 1879.009 -1048.139)" class="st0" width="112.2" height="1.4"/>
							
								<rect x="1403.6" y="414.8" transform="matrix(-1.836970e-16 1 -1 -1.836970e-16 1875.0941 -1044.2242)" class="st0" width="112.2" height="1.4"/>
							
								<rect x="1399.7" y="414.8" transform="matrix(-1.836970e-16 1 -1 -1.836970e-16 1871.1792 -1040.3092)" class="st0" width="112.2" height="1.4"/>
						</g>
					</g>
				</g>
			</g>
			<polygon class="st0" points="1471.8,355.4 1466,355.4 1466,469.6 1429,469.6 1429,355.4 1423.2,355.4 1423.2,476.3 1471.8,476.3 
							"/>
		</g>
		<polygon class="st0" points="1437.2,456.8 1440.8,451 1437.2,445.2 1450.5,445.2 1456.4,445.2 1456.4,451 1456.4,456.8 
			1450.5,456.8 		"/>
	</g>
</g>
<g id="books_1_">
	<g id="books_2_">
		<path class="st1" d="M1269.6,354.9h5.5v35.2h-5.5V354.9z M1272.3,385.7h10.3c2.4,0,4.3-0.5,5.6-1.5s1.9-2.4,1.9-4.3v0
			c0-1.3-0.3-2.3-0.9-3.2c-0.6-0.8-1.5-1.5-2.6-1.9c-1.2-0.4-2.6-0.6-4.4-0.6h-9.9v-4.2h8.8c2.4,0,4.2-0.5,5.5-1.4s1.9-2.3,1.9-4.1
			v0c0-1.6-0.5-2.9-1.6-3.7c-1.1-0.9-2.6-1.3-4.6-1.3h-10v-4.5h11.3c2.1,0,3.9,0.4,5.5,1.1c1.6,0.7,2.8,1.8,3.6,3.1
			c0.9,1.3,1.3,2.9,1.3,4.7v0c0,1.2-0.3,2.4-0.9,3.5s-1.3,2-2.3,2.8c-1,0.7-2.1,1.2-3.4,1.4v0.1c1.7,0.2,3.1,0.6,4.4,1.4
			c1.2,0.8,2.2,1.8,2.9,3c0.7,1.2,1,2.6,1,4.2v0c0,2.1-0.5,3.8-1.5,5.3c-1,1.5-2.3,2.6-4.1,3.4s-3.9,1.2-6.4,1.2h-11.4V385.7z"/>
		<path class="st1" d="M1304.4,389c-1.8-1.1-3.3-2.6-4.3-4.6c-1-2-1.5-4.4-1.5-7.1v0c0-2.7,0.5-5.1,1.5-7.1c1-2,2.4-3.5,4.3-4.6
			s4-1.6,6.4-1.6c2.4,0,4.6,0.5,6.4,1.6c1.8,1.1,3.3,2.6,4.3,4.6c1,2,1.5,4.4,1.5,7.1v0c0,2.8-0.5,5.1-1.5,7.1c-1,2-2.4,3.5-4.3,4.6
			c-1.8,1.1-4,1.6-6.4,1.6C1308.4,390.7,1306.3,390.1,1304.4,389z M1314.5,385.2c1-0.7,1.8-1.7,2.3-3c0.6-1.3,0.8-2.9,0.8-4.8v0
			c0-1.9-0.3-3.5-0.8-4.8c-0.6-1.3-1.3-2.3-2.4-3c-1-0.7-2.2-1-3.6-1c-1.4,0-2.5,0.3-3.6,1c-1,0.7-1.8,1.7-2.4,3s-0.9,2.9-0.9,4.8v0
			c0,1.9,0.3,3.5,0.8,4.8c0.6,1.3,1.4,2.3,2.4,3s2.2,1,3.6,1C1312.3,386.2,1313.5,385.9,1314.5,385.2z"/>
		<path class="st1" d="M1331.8,389c-1.8-1.1-3.3-2.6-4.3-4.6c-1-2-1.5-4.4-1.5-7.1v0c0-2.7,0.5-5.1,1.5-7.1c1-2,2.4-3.5,4.3-4.6
			s4-1.6,6.4-1.6c2.4,0,4.6,0.5,6.4,1.6c1.8,1.1,3.3,2.6,4.3,4.6c1,2,1.5,4.4,1.5,7.1v0c0,2.8-0.5,5.1-1.5,7.1c-1,2-2.4,3.5-4.3,4.6
			c-1.8,1.1-4,1.6-6.4,1.6C1335.7,390.7,1333.6,390.1,1331.8,389z M1341.8,385.2c1-0.7,1.8-1.7,2.3-3c0.6-1.3,0.8-2.9,0.8-4.8v0
			c0-1.9-0.3-3.5-0.8-4.8c-0.6-1.3-1.3-2.3-2.4-3c-1-0.7-2.2-1-3.6-1c-1.4,0-2.5,0.3-3.6,1c-1,0.7-1.8,1.7-2.4,3s-0.9,2.9-0.9,4.8v0
			c0,1.9,0.3,3.5,0.8,4.8c0.6,1.3,1.4,2.3,2.4,3s2.2,1,3.6,1C1339.6,386.2,1340.8,385.9,1341.8,385.2z"/>
		<path class="st1" d="M1354.7,354.9h5.3v35.2h-5.3V354.9z M1359.1,375.4h1l10.3-10.9h6.2l-12,12.6h-0.8l-4.7,4.7V375.4z
			 M1361.8,378.2l3.4-3.8l11.8,15.7h-6.1L1361.8,378.2z"/>
		<path class="st1" d="M1383.8,389.7c-1.5-0.7-2.7-1.6-3.6-2.8c-0.9-1.2-1.4-2.6-1.6-4.1l0-0.2h5.2l0,0.2c0.3,1.2,0.8,2.1,1.7,2.7
			s2.1,1,3.8,1c1.1,0,2-0.1,2.7-0.4s1.3-0.7,1.7-1.2s0.6-1.1,0.6-1.8v0c0-0.8-0.3-1.5-0.8-2s-1.5-0.9-2.9-1.3l-4.2-1
			c-2.4-0.6-4.3-1.4-5.5-2.6c-1.2-1.2-1.8-2.7-1.8-4.6v0c0-1.5,0.4-2.9,1.2-4.1c0.8-1.2,2-2.1,3.5-2.7c1.5-0.6,3.2-1,5.2-1
			c2,0,3.8,0.3,5.2,1s2.6,1.6,3.4,2.8c0.8,1.2,1.3,2.5,1.4,3.9v0.3h-5l0-0.2c-0.1-1.1-0.7-2-1.5-2.7s-2-1.1-3.5-1.1
			c-0.9,0-1.8,0.1-2.5,0.4s-1.2,0.7-1.6,1.2s-0.6,1.1-0.6,1.8v0c0,0.8,0.3,1.4,0.9,2s1.6,1,2.9,1.3l4.2,1c2.6,0.6,4.5,1.5,5.6,2.6
			s1.6,2.6,1.6,4.4v0c0,1.6-0.4,2.9-1.3,4.1s-2.1,2.1-3.7,2.8c-1.6,0.7-3.4,1-5.4,1C1387.2,390.7,1385.3,390.3,1383.8,389.7z"/>
	</g>
</g>
<path id="left-tank" class="st0" d="M1880.3,463V104.1c0-11.4,9.2-20.6,20.6-20.6h88.9c11.4,0,20.6,9.2,20.6,20.6V463
	c0,11.4-9.2,20.6-20.6,20.6h-88.9C1889.5,483.5,1880.3,474.3,1880.3,463z"/>
<path id="left_cap" class="st0" d="M1976.3,83.5h-62V68.5c0-3.7,3-6.6,6.6-6.6h48.7c3.7,0,6.6,3,6.6,6.6V83.5z"/>
<g id="right-bottle">
	<path id="right-tank" class="st0" d="M2018.6,463V104.1c0-11.4,9.2-20.6,20.6-20.6h88.9c11.4,0,20.6,9.2,20.6,20.6V463
		c0,11.4-9.2,20.6-20.6,20.6h-88.9C2027.8,483.5,2018.6,474.3,2018.6,463z"/>
	<path id="right_cap" class="st0" d="M2114.6,83.5h-62V68.5c0-3.7,3-6.6,6.6-6.6h48.7c3.7,0,6.6,3,6.6,6.6V83.5z"/>
</g>
<g>
	<g>
		<path class="st1" d="M1938.8,221h5.7l6.5,27.6h0.1l7.4-27.6h5.2l7.4,27.6h0.1l6.5-27.6h5.7l-9.5,35.2h-5.3l-7.6-26.5h-0.1
			l-7.6,26.5h-5.3L1938.8,221z"/>
		<path class="st1" d="M1990.3,255.7c-1.3-0.7-2.3-1.6-3-2.7c-0.7-1.2-1.1-2.5-1.1-4.1v0c0-2.2,0.8-4,2.5-5.3c1.7-1.3,4-2.1,7-2.2
			l9.7-0.6v3.7l-9,0.6c-1.6,0.1-2.8,0.5-3.6,1.1s-1.3,1.5-1.3,2.6v0c0,1.1,0.4,2,1.3,2.7c0.9,0.7,2,1,3.4,1c1.2,0,2.3-0.3,3.3-0.8
			c1-0.5,1.8-1.2,2.3-2.1c0.6-0.9,0.9-1.9,0.9-3V239c0-1.4-0.4-2.5-1.3-3.3s-2.1-1.2-3.8-1.2c-1.5,0-2.7,0.3-3.6,1
			c-0.9,0.7-1.5,1.5-1.7,2.5l0,0.2h-5l0-0.3c0.1-1.5,0.6-2.8,1.5-4c0.9-1.2,2.1-2.1,3.6-2.8c1.5-0.7,3.3-1,5.4-1s3.9,0.4,5.4,1
			c1.5,0.7,2.7,1.7,3.6,3c0.8,1.3,1.3,2.8,1.3,4.5v17.7h-5.3v-4.1h-0.1c-0.5,0.9-1.2,1.7-2,2.4c-0.8,0.7-1.7,1.2-2.7,1.6
			s-2.1,0.5-3.2,0.5C1993.1,256.7,1991.6,256.4,1990.3,255.7z"/>
		<path class="st1" d="M2016.6,255.1c-1.2-1.1-1.9-3-1.9-5.6v-14.7h-3.7v-4.2h3.7v-6.7h5.4v6.7h4.8v4.2h-4.8v14.4
			c0,1.3,0.3,2.2,0.9,2.7c0.6,0.5,1.4,0.7,2.5,0.7c0.3,0,0.5,0,0.8,0s0.5,0,0.6-0.1v4.1c-0.3,0-0.7,0.1-1.2,0.1
			c-0.5,0-1,0.1-1.5,0.1C2019.7,256.8,2017.8,256.2,2016.6,255.1z"/>
		<path class="st1" d="M2033.8,255.1c-1.8-1.1-3.2-2.6-4.2-4.6c-1-2-1.5-4.3-1.5-7v0c0-2.7,0.5-5,1.5-7c1-2,2.4-3.6,4.1-4.7
			c1.8-1.1,3.9-1.7,6.2-1.7c2.4,0,4.5,0.5,6.2,1.6c1.7,1.1,3.1,2.6,4,4.5c0.9,1.9,1.4,4.2,1.4,6.8v1.8h-20.9V241h18.3l-2.6,3.5v-2.1
			c0-1.8-0.3-3.3-0.8-4.5s-1.3-2.1-2.3-2.7c-1-0.6-2.1-0.9-3.4-0.9c-1.3,0-2.4,0.3-3.4,0.9c-1,0.6-1.8,1.5-2.3,2.7
			c-0.6,1.2-0.9,2.7-0.9,4.4v2.1c0,1.7,0.3,3.1,0.8,4.3c0.6,1.2,1.4,2.1,2.4,2.7c1,0.6,2.3,0.9,3.7,0.9c1,0,2-0.2,2.8-0.5
			c0.8-0.3,1.5-0.7,2-1.3c0.5-0.5,0.9-1.1,1.1-1.8l0.1-0.2h5l0,0.3c-0.2,1-0.6,2-1.2,2.9s-1.3,1.8-2.3,2.5c-0.9,0.7-2,1.3-3.3,1.7
			s-2.7,0.6-4.2,0.6C2037.7,256.8,2035.6,256.2,2033.8,255.1z"/>
		<path class="st1" d="M2055.6,230.6h5.3v4.4h0.1c0.4-1.5,1.1-2.7,2.2-3.6c1-0.9,2.3-1.3,3.8-1.3c0.4,0,0.7,0,1.1,0.1
			c0.3,0,0.6,0.1,0.8,0.1v4.9c-0.2-0.1-0.5-0.2-1-0.2c-0.4-0.1-0.9-0.1-1.4-0.1c-1.1,0-2.1,0.2-2.9,0.7c-0.8,0.5-1.5,1.2-1.9,2.1
			s-0.7,2-0.7,3.3v15.3h-5.3V230.6z"/>
		<path class="st1" d="M2072.5,239.6h15.7v4.8h-15.7V239.6z"/>
		<path class="st1" d="M1961.1,305.1c-1.2-1.1-1.9-3-1.9-5.6v-14.7h-3.7v-4.2h3.7v-6.7h5.4v6.7h4.8v4.2h-4.8v14.4
			c0,1.3,0.3,2.2,0.9,2.7c0.6,0.5,1.4,0.7,2.5,0.7c0.3,0,0.5,0,0.8,0c0.2,0,0.5,0,0.6-0.1v4.1c-0.3,0-0.7,0.1-1.2,0.1
			c-0.5,0-1,0.1-1.5,0.1C1964.2,306.8,1962.3,306.2,1961.1,305.1z"/>
		<path class="st1" d="M1976.9,305.7c-1.3-0.7-2.3-1.6-3-2.7c-0.7-1.2-1.1-2.5-1.1-4.1v0c0-2.2,0.8-4,2.5-5.3c1.7-1.3,4-2.1,7-2.2
			l9.7-0.6v3.7l-9,0.6c-1.6,0.1-2.8,0.5-3.7,1.1c-0.9,0.7-1.3,1.5-1.3,2.6v0c0,1.1,0.4,2,1.3,2.7c0.9,0.7,2,1,3.4,1
			c1.2,0,2.3-0.3,3.3-0.8c1-0.5,1.8-1.2,2.3-2.1c0.6-0.9,0.9-1.9,0.9-3V289c0-1.4-0.4-2.5-1.3-3.3s-2.1-1.2-3.8-1.2
			c-1.5,0-2.7,0.3-3.7,1c-0.9,0.7-1.5,1.5-1.7,2.5l0,0.2h-5l0-0.3c0.1-1.5,0.6-2.8,1.5-4c0.9-1.2,2.1-2.1,3.6-2.8s3.3-1,5.4-1
			s3.9,0.4,5.4,1.1c1.5,0.7,2.7,1.7,3.6,3s1.3,2.8,1.3,4.5v17.7h-5.3v-4.1h-0.1c-0.5,0.9-1.2,1.7-2,2.4c-0.8,0.7-1.7,1.2-2.7,1.6
			c-1,0.4-2.1,0.5-3.2,0.5C1979.6,306.7,1978.1,306.4,1976.9,305.7z"/>
		<path class="st1" d="M1999.7,280.6h5.3v3.9h0.1c0.7-1.3,1.7-2.4,3-3.2s2.9-1.2,4.9-1.2c2.8,0,5,0.9,6.5,2.6c1.5,1.7,2.3,4,2.3,7
			v16.6h-5.3v-15.6c0-1.9-0.5-3.4-1.4-4.5c-0.9-1-2.3-1.6-4.1-1.6c-1.2,0-2.3,0.3-3.2,0.8c-0.9,0.6-1.6,1.3-2.1,2.3
			c-0.5,1-0.7,2.2-0.7,3.5v15h-5.3V280.6z"/>
		<path class="st1" d="M2027.3,271h5.3v35.2h-5.3V271z M2031.6,291.5h1l10.3-10.9h6.2l-12,12.6h-0.8l-4.7,4.7V291.5z M2034.4,294.3
			l3.4-3.8l11.8,15.7h-6.1L2034.4,294.3z"/>
		<path class="st1" d="M2056.3,305.8c-1.5-0.7-2.7-1.6-3.6-2.8s-1.4-2.6-1.6-4.1l0-0.2h5.2l0,0.2c0.3,1.2,0.8,2.1,1.7,2.7
			c0.9,0.7,2.1,1,3.8,1c1.1,0,2-0.1,2.7-0.4c0.7-0.3,1.3-0.7,1.7-1.2c0.4-0.5,0.6-1.1,0.6-1.8v0c0-0.8-0.3-1.5-0.8-2
			c-0.5-0.5-1.5-0.9-2.9-1.3l-4.2-1c-2.4-0.6-4.3-1.4-5.5-2.6s-1.8-2.7-1.8-4.6v0c0-1.5,0.4-2.9,1.2-4.1c0.8-1.2,2-2.1,3.5-2.7
			c1.5-0.6,3.2-1,5.2-1c2,0,3.8,0.3,5.2,1s2.6,1.6,3.4,2.8c0.8,1.2,1.3,2.5,1.4,3.9v0.3h-5l0-0.2c-0.1-1.1-0.7-2-1.5-2.7
			s-2-1.1-3.5-1.1c-0.9,0-1.8,0.1-2.5,0.4c-0.7,0.3-1.2,0.7-1.6,1.2c-0.4,0.5-0.6,1.1-0.6,1.8v0c0,0.8,0.3,1.4,0.9,2
			c0.6,0.6,1.6,1,2.9,1.3l4.2,1c2.6,0.6,4.5,1.5,5.6,2.6c1.1,1.1,1.6,2.6,1.6,4.4v0c0,1.6-0.4,2.9-1.3,4.1c-0.9,1.2-2.1,2.1-3.7,2.8
			c-1.6,0.7-3.4,1-5.4,1C2059.7,306.8,2057.8,306.4,2056.3,305.8z"/>
	</g>
</g>
<g>
	<g>
		<path class="st1" d="M1015.6,347.3c-2.4-1.5-4.3-3.6-5.7-6.3c-1.3-2.7-2-6-2-9.7v0c0-3.7,0.7-6.9,2-9.7c1.3-2.7,3.2-4.8,5.7-6.3
			c2.4-1.5,5.3-2.2,8.7-2.2c2.6,0,4.9,0.5,7,1.5c2.1,1,3.8,2.4,5.2,4.1c1.4,1.8,2.2,3.8,2.6,6.1l0,0.2h-5.4l-0.1-0.5
			c-0.4-1.4-1-2.6-1.8-3.6c-0.8-1-1.9-1.8-3.1-2.3c-1.2-0.5-2.6-0.8-4.2-0.8c-2.2,0-4.1,0.5-5.7,1.6c-1.6,1.1-2.8,2.6-3.7,4.6
			s-1.3,4.3-1.3,7.1v0c0,2.7,0.4,5.1,1.3,7.1c0.9,2,2.1,3.6,3.7,4.7s3.5,1.6,5.7,1.6c1.6,0,3-0.3,4.2-0.8c1.2-0.5,2.3-1.3,3.1-2.3
			c0.9-1,1.5-2.3,1.9-3.8l0.1-0.2h5.4l0,0.2c-0.4,2.3-1.2,4.4-2.6,6.2c-1.3,1.8-3.1,3.1-5.1,4.1c-2.1,1-4.4,1.5-7,1.5
			C1021,349.5,1018.1,348.8,1015.6,347.3z"/>
		<path class="st1" d="M1046.4,348.4c-1.3-0.7-2.3-1.6-3-2.7c-0.7-1.2-1.1-2.5-1.1-4.1v0c0-2.2,0.8-4,2.5-5.3c1.7-1.3,4-2.1,7-2.2
			l9.7-0.6v3.7l-9,0.6c-1.6,0.1-2.8,0.5-3.6,1.1c-0.9,0.7-1.3,1.5-1.3,2.6v0c0,1.1,0.4,2,1.3,2.7c0.9,0.7,2,1,3.4,1
			c1.2,0,2.3-0.3,3.3-0.8c1-0.5,1.8-1.2,2.3-2.1c0.6-0.9,0.9-1.9,0.9-3v-7.6c0-1.4-0.4-2.5-1.3-3.3c-0.9-0.8-2.1-1.2-3.8-1.2
			c-1.5,0-2.7,0.3-3.6,1c-0.9,0.7-1.5,1.5-1.7,2.5l0,0.2h-5l0-0.3c0.1-1.5,0.6-2.8,1.5-4c0.9-1.2,2.1-2.1,3.6-2.8
			c1.5-0.7,3.3-1,5.4-1s3.9,0.4,5.4,1c1.5,0.7,2.7,1.7,3.6,3c0.8,1.3,1.3,2.8,1.3,4.5v17.7h-5.3v-4.1h-0.1c-0.5,0.9-1.2,1.7-2,2.4
			c-0.8,0.7-1.7,1.2-2.7,1.6c-1,0.4-2.1,0.5-3.2,0.5C1049.2,349.4,1047.7,349.1,1046.4,348.4z"/>
		<path class="st1" d="M1078.1,348.1c-1.4-0.9-2.4-2.1-3.2-3.6h-0.1v4.3h-5.3v-35.2h5.3v13.9h0.1c0.8-1.5,1.9-2.7,3.3-3.6
			c1.4-0.9,3-1.3,4.8-1.3c2.1,0,4,0.5,5.6,1.6s2.8,2.6,3.7,4.6c0.9,2,1.3,4.3,1.3,7.1v0c0,2.7-0.4,5.1-1.3,7.1
			c-0.9,2-2.1,3.5-3.7,4.6s-3.5,1.6-5.7,1.6C1081.1,349.4,1079.5,349,1078.1,348.1z M1085.2,343.8c1-0.7,1.8-1.7,2.3-3
			c0.5-1.3,0.8-2.9,0.8-4.7v0c0-1.8-0.3-3.4-0.8-4.7c-0.5-1.3-1.3-2.3-2.3-3c-1-0.7-2.2-1.1-3.6-1.1c-1.3,0-2.5,0.4-3.5,1.1
			c-1,0.7-1.8,1.7-2.4,3.1c-0.6,1.3-0.9,2.9-0.9,4.6v0c0,1.8,0.3,3.3,0.9,4.6c0.6,1.3,1.4,2.3,2.4,3.1c1,0.7,2.2,1.1,3.5,1.1
			C1083,344.9,1084.2,344.5,1085.2,343.8z"/>
		<path class="st1" d="M1098,313.7h5.3v35.2h-5.3V313.7z"/>
		<path class="st1" d="M1113.2,347.8c-1.8-1.1-3.2-2.6-4.2-4.6c-1-2-1.5-4.3-1.5-7v0c0-2.7,0.5-5,1.5-7s2.4-3.6,4.1-4.7
			s3.9-1.7,6.2-1.7c2.4,0,4.5,0.5,6.2,1.6c1.7,1.1,3.1,2.6,4,4.5s1.4,4.2,1.4,6.8v1.8h-20.9v-3.7h18.3l-2.6,3.5v-2.1
			c0-1.8-0.3-3.3-0.8-4.5c-0.5-1.2-1.3-2.1-2.3-2.7c-1-0.6-2.1-0.9-3.4-0.9c-1.3,0-2.4,0.3-3.4,0.9c-1,0.6-1.8,1.5-2.3,2.7
			c-0.6,1.2-0.9,2.7-0.9,4.4v2.1c0,1.7,0.3,3.1,0.8,4.3c0.6,1.2,1.4,2.1,2.4,2.7s2.3,0.9,3.7,0.9c1,0,2-0.2,2.8-0.5
			c0.8-0.3,1.5-0.7,2-1.3c0.5-0.5,0.9-1.1,1.1-1.8l0.1-0.2h5l0,0.3c-0.2,1-0.6,2-1.2,2.9s-1.3,1.8-2.3,2.5c-0.9,0.7-2,1.3-3.3,1.7
			s-2.7,0.6-4.2,0.6C1117.2,349.4,1115,348.9,1113.2,347.8z"/>
		<path class="st1" d="M1012.9,363.7h12.4c3.5,0,6.5,0.7,9,2.1c2.5,1.4,4.4,3.4,5.7,6c1.3,2.6,2,5.8,2,9.5v0c0,3.7-0.7,6.9-2,9.5
			s-3.2,4.7-5.7,6.1c-2.5,1.4-5.5,2.1-9,2.1h-12.4V363.7z M1024.8,394.2c2.5,0,4.6-0.5,6.3-1.5c1.7-1,3-2.4,3.9-4.4
			c0.9-1.9,1.3-4.3,1.3-7v0c0-2.8-0.5-5.1-1.4-7c-0.9-1.9-2.2-3.4-3.9-4.3c-1.7-1-3.8-1.5-6.3-1.5h-6.4v25.8H1024.8z"/>
		<path class="st1" d="M1046.5,373.2h5.3v4.4h0.1c0.4-1.5,1.1-2.7,2.2-3.6c1-0.9,2.3-1.3,3.8-1.3c0.4,0,0.7,0,1.1,0.1
			s0.6,0.1,0.8,0.1v4.9c-0.2-0.1-0.5-0.2-1-0.2c-0.4-0.1-0.9-0.1-1.4-0.1c-1.1,0-2.1,0.2-2.9,0.7s-1.5,1.2-1.9,2.1
			c-0.4,0.9-0.7,2-0.7,3.3v15.3h-5.3V373.2z"/>
		<path class="st1" d="M1066.9,398.3c-1.3-0.8-2.3-1.9-3-3.3c-0.7-1.4-1-3.1-1-5.1v-16.6h5.3v15.6c0,1.9,0.5,3.4,1.4,4.5
			s2.3,1.5,4.1,1.5c1.2,0,2.3-0.3,3.2-0.8c0.9-0.6,1.6-1.3,2.1-2.3c0.5-1,0.7-2.2,0.7-3.5v-15h5.3v25.7h-5.3v-3.9h-0.1
			c-0.7,1.3-1.7,2.4-3,3.2c-1.3,0.8-2.9,1.2-4.9,1.2C1069.8,399.4,1068.2,399,1066.9,398.3z"/>
		<path class="st1" d="M1090.2,373.2h5.3v4h0.1c0.6-1.4,1.5-2.4,2.7-3.2s2.7-1.2,4.4-1.2c1.2,0,2.2,0.2,3.2,0.6s1.8,1,2.5,1.7
			c0.7,0.8,1.2,1.7,1.5,2.7h0.1c0.4-1,1.1-1.9,1.8-2.7c0.8-0.8,1.7-1.3,2.8-1.7c1-0.4,2.2-0.6,3.4-0.6c1.7,0,3.2,0.4,4.4,1.1
			c1.3,0.7,2.2,1.7,2.9,3s1,2.8,1,4.5v17.7h-5.3v-16.4c0-1.7-0.4-2.9-1.3-3.9s-2.1-1.4-3.6-1.4c-1,0-2,0.2-2.7,0.7
			c-0.8,0.5-1.4,1.1-1.9,2c-0.4,0.8-0.7,1.8-0.7,2.9v16.1h-5.2v-16.8c0-1.5-0.4-2.7-1.3-3.6c-0.9-0.9-2.1-1.3-3.6-1.3
			c-1,0-1.9,0.2-2.7,0.7s-1.4,1.2-1.9,2s-0.7,1.9-0.7,3v15.9h-5.3V373.2z"/>
	</g>
</g>
</svg>
