<svg id="Ebene_1" data-name="Ebene 1" xmlns="http://www.w3.org/2000/svg" viewBox="0 0 668.17 394.63"><defs><style>.cls-1{fill:#68442a;}.cls-2{fill:none;stroke:#ccc;stroke-miterlimit:10;stroke-width:4.02px;stroke-dasharray:10.01;}.cls-3{fill:#f6f6f6;}</style></defs><rect class="cls-1" x="185.78" y="-75.15" width="310" height="550" transform="translate(540.63 -140.93) rotate(90)"/><line class="cls-2" x1="634.71" y1="34.83" x2="46.85" y2="364.87"/><path class="cls-3" d="M324.23,224.07a27.07,27.07,0,0,1-11.31-8.59,20.46,20.46,0,0,1-4.1-12.63v-.11a20.33,20.33,0,0,1,2.37-9.76,22.17,22.17,0,0,1,6.59-7.5,25.34,25.34,0,0,1,9.73-4.25v-.29a22.89,22.89,0,0,1-11.34-7,17.39,17.39,0,0,1-4.25-11.69v-.12a18.94,18.94,0,0,1,3.69-11.48,24.83,24.83,0,0,1,10.23-7.94,39.93,39.93,0,0,1,29.88,0A24.76,24.76,0,0,1,366,150.65a18.94,18.94,0,0,1,3.69,11.48v.12a17.47,17.47,0,0,1-4.22,11.69,22.72,22.72,0,0,1-11.37,7v.29a25.15,25.15,0,0,1,9.76,4.25,22.29,22.29,0,0,1,6.56,7.5,20.33,20.33,0,0,1,2.37,9.76v.11a20.56,20.56,0,0,1-4.07,12.63,26.82,26.82,0,0,1-11.31,8.59,45.81,45.81,0,0,1-33.13,0Zm26.1-9.32a15.85,15.85,0,0,0,6.5-5.19,12.61,12.61,0,0,0,2.38-7.58v-.12a12.91,12.91,0,0,0-2.35-7.62,15.77,15.77,0,0,0-6.5-5.24,25,25,0,0,0-19.16,0,15.77,15.77,0,0,0-6.5,5.24,12.91,12.91,0,0,0-2.35,7.62V202a12.61,12.61,0,0,0,2.38,7.58,15.75,15.75,0,0,0,6.53,5.19,25.24,25.24,0,0,0,19.07,0ZM349,174.82a13.63,13.63,0,0,0,5.57-4.63,11.69,11.69,0,0,0,2-6.77v-.12a11.64,11.64,0,0,0-2-6.79,13.59,13.59,0,0,0-5.6-4.6,21.11,21.11,0,0,0-16.46,0,13.59,13.59,0,0,0-5.6,4.6,11.64,11.64,0,0,0-2,6.79v.12a11.69,11.69,0,0,0,2,6.77,13.63,13.63,0,0,0,5.57,4.63,21.26,21.26,0,0,0,16.52,0Z"/></svg>