<svg id="Ebene_1" data-name="Ebene 1" xmlns="http://www.w3.org/2000/svg" viewBox="0 0 1203.97 252.44"><defs><style>.cls-1{fill:#68442a;}.cls-2,.cls-4{fill:none;stroke-miterlimit:10;}.cls-2{stroke:#ccc;stroke-width:3.97px;stroke-dasharray:9.86;}.cls-3{fill:#f6f6f6;}.cls-4{stroke:#454545;stroke-width:5px;}.cls-5{fill:#454545;}</style></defs><rect class="cls-1" x="93.07" y="91.71" width="1075" height="115"/><line class="cls-2" x1="1115.88" y1="157.28" x2="143.14" y2="157.28"/><line class="cls-2" x1="144.53" y1="81.81" x2="144.53" y2="159.68"/><line class="cls-2" x1="1116.69" y1="81.81" x2="1116.69" y2="159.68"/><path class="cls-3" d="M618.71,183.92A29.34,29.34,0,0,1,608,176.48a35.63,35.63,0,0,1-7.41-13.13,61.67,61.67,0,0,1-2.7-19.48v-.12q0-14.12,4-24.17t11.6-15.35a30.88,30.88,0,0,1,18.13-5.3,33.69,33.69,0,0,1,13.63,2.66,27.53,27.53,0,0,1,10.11,7.47,25.26,25.26,0,0,1,5.39,11.08l.11.7H647.74l-.23-.58a14.84,14.84,0,0,0-8.74-9.06,19.3,19.3,0,0,0-7.2-1.26,16.59,16.59,0,0,0-11.75,4.22,25.33,25.33,0,0,0-6.74,11.16,56,56,0,0,0-2.43,15.38c0,.44-.06.87-.06,1.32v1.38l2.52,13.95a18,18,0,0,0,33.46,9.19,16.89,16.89,0,0,0,2.4-8.9v-.12a17.51,17.51,0,0,0-2.29-9,16.39,16.39,0,0,0-6.32-6.18,18.41,18.41,0,0,0-9.14-2.26,19.06,19.06,0,0,0-9.23,2.23,16.53,16.53,0,0,0-8.88,15v.06h-3.52V143h1.24a20.92,20.92,0,0,1,5-6.88,25.16,25.16,0,0,1,8-4.9A30.65,30.65,0,0,1,648.62,133a26.21,26.21,0,0,1,9.87,9.9,28.25,28.25,0,0,1,3.6,14.27v.12a28,28,0,0,1-4,15,28.42,28.42,0,0,1-11,10.28,33,33,0,0,1-15.87,3.75A33.45,33.45,0,0,1,618.71,183.92Z"/><line class="cls-4" x1="144.53" y1="68.2" x2="95.59" y2="68.2"/><rect class="cls-5" x="142.03" y="51.95" width="5" height="32.5"/><rect class="cls-5" x="93.09" y="51.95" width="5" height="32.5"/><path class="cls-5" d="M69.85,46.32a8.9,8.9,0,0,1-3.48-2.88,8.1,8.1,0,0,1-1.49-4.13l0-.23H69l0,.14a5,5,0,0,0,1,2.29,5.65,5.65,0,0,0,2,1.62A6.85,6.85,0,0,0,78,43a5.54,5.54,0,0,0,2.13-2.11,6.15,6.15,0,0,0,.76-3.09v0a6,6,0,0,0-.77-3A5.6,5.6,0,0,0,78,32.59a6.25,6.25,0,0,0-3.08-.76,7.59,7.59,0,0,0-2.43.38,5.81,5.81,0,0,0-2,1.15A7,7,0,0,0,69.21,35H65.37l1.38-16.25H83.57v3.69H70.31l-.86,8.92h.1a6.14,6.14,0,0,1,2.62-2.19,8.81,8.81,0,0,1,3.76-.77,9.46,9.46,0,0,1,4.79,1.2A8.73,8.73,0,0,1,84,32.87a9.43,9.43,0,0,1,1.2,4.78v0a9.49,9.49,0,0,1-1.33,5,9.28,9.28,0,0,1-3.66,3.42,12.33,12.33,0,0,1-10.37.17Z"/><path class="cls-5" d="M93.27,45.6a11.11,11.11,0,0,1-3.71-5,21.18,21.18,0,0,1-1.28-7.73v0a21.18,21.18,0,0,1,1.28-7.73,11,11,0,0,1,3.71-5,10.29,10.29,0,0,1,11.54,0,11.1,11.1,0,0,1,3.71,5,21,21,0,0,1,1.3,7.73v0a21,21,0,0,1-1.3,7.73,11.18,11.18,0,0,1-3.71,5,10.24,10.24,0,0,1-11.54,0Zm9.19-3.2a8.23,8.23,0,0,0,2.17-3.75,20,20,0,0,0,.75-5.82v0a19.85,19.85,0,0,0-.75-5.81,8.24,8.24,0,0,0-2.17-3.74,5.13,5.13,0,0,0-6.85,0A8.23,8.23,0,0,0,93.45,27a20.22,20.22,0,0,0-.74,5.81v0a20.34,20.34,0,0,0,.74,5.82,8.22,8.22,0,0,0,2.16,3.75,5.13,5.13,0,0,0,6.85,0Z"/><path class="cls-5" d="M113.61,26.36h4.26v3.19h.07a5.55,5.55,0,0,1,2.17-2.6,6.33,6.33,0,0,1,3.52-1,6.77,6.77,0,0,1,2.55.47,5.3,5.3,0,0,1,2,1.38,5.61,5.61,0,0,1,1.21,2.2h.1a6.28,6.28,0,0,1,1.47-2.16,6.6,6.6,0,0,1,2.21-1.4,7.59,7.59,0,0,1,2.72-.49,7.16,7.16,0,0,1,3.54.85,6,6,0,0,1,2.34,2.38,7.25,7.25,0,0,1,.84,3.57V46.91h-4.26V33.81a4.45,4.45,0,0,0-1-3.1,3.75,3.75,0,0,0-2.91-1.1,4.16,4.16,0,0,0-2.2.56,4,4,0,0,0-1.48,1.58,4.86,4.86,0,0,0-.54,2.31V46.91H126V33.49a3.61,3.61,0,0,0-3.89-3.88,4,4,0,0,0-2.19.59,4.19,4.19,0,0,0-1.52,1.63,5.1,5.1,0,0,0-.54,2.39V46.91h-4.26Z"/><path class="cls-5" d="M146.62,26.36h4.25v3.19H151a5.55,5.55,0,0,1,2.17-2.6,6.3,6.3,0,0,1,3.51-1,6.7,6.7,0,0,1,2.55.47,5.25,5.25,0,0,1,2,1.38,5.73,5.73,0,0,1,1.21,2.2h.1a6.28,6.28,0,0,1,1.47-2.16,6.6,6.6,0,0,1,2.21-1.4,7.55,7.55,0,0,1,2.72-.49,7.19,7.19,0,0,1,3.54.85,6,6,0,0,1,2.34,2.38,7.25,7.25,0,0,1,.84,3.57V46.91h-4.26V33.81a4.45,4.45,0,0,0-1-3.1,3.75,3.75,0,0,0-2.91-1.1,4.16,4.16,0,0,0-2.2.56,4.05,4.05,0,0,0-1.49,1.58,5,5,0,0,0-.53,2.31V46.91H159V33.49a3.61,3.61,0,0,0-3.89-3.88,4.1,4.1,0,0,0-2.2.59,4.16,4.16,0,0,0-1.51,1.63,5,5,0,0,0-.55,2.39V46.91h-4.25Z"/><line class="cls-4" x1="74.18" y1="158.91" x2="74.18" y2="203.12"/><rect class="cls-5" x="57.93" y="156.41" width="32.5" height="5"/><rect class="cls-5" x="57.93" y="200.62" width="32.5" height="5"/><path class="cls-5" d="M47.62,231.23a8.87,8.87,0,0,1-2.88,3.47,8.15,8.15,0,0,1-4.13,1.5l-.23,0V232l.13,0a4.89,4.89,0,0,0,2.3-1,5.65,5.65,0,0,0,1.62-2,6.81,6.81,0,0,0-.17-5.94,5.4,5.4,0,0,0-2.11-2.13,6.19,6.19,0,0,0-3.08-.76h0a6,6,0,0,0-3.05.77,5.67,5.67,0,0,0-2.09,2.12,6.15,6.15,0,0,0-.76,3.09,7.53,7.53,0,0,0,.38,2.42,6,6,0,0,0,1.14,2,7.35,7.35,0,0,0,.75.72,6.24,6.24,0,0,0,.88.61v3.85L20,234.32V217.51h3.69v13.26l8.92.86v-.1a6.17,6.17,0,0,1-2.19-2.63,8.75,8.75,0,0,1-.78-3.76,9.33,9.33,0,0,1,1.21-4.78,8.66,8.66,0,0,1,3.29-3.29A9.41,9.41,0,0,1,39,215.86h0a9.58,9.58,0,0,1,5,1.33,9.24,9.24,0,0,1,3.42,3.67,12.33,12.33,0,0,1,.17,10.37Z"/><path class="cls-5" d="M46.9,207.81a11.15,11.15,0,0,1-5,3.7,21,21,0,0,1-7.73,1.29h0a21.05,21.05,0,0,1-7.74-1.29,11.12,11.12,0,0,1-5-3.7,10.34,10.34,0,0,1,0-11.54,11.22,11.22,0,0,1,5-3.72,21.05,21.05,0,0,1,7.74-1.29h0a21,21,0,0,1,7.73,1.29,11.26,11.26,0,0,1,5,3.72,10.24,10.24,0,0,1,0,11.54Zm-3.2-9.2A8.42,8.42,0,0,0,40,196.44a20,20,0,0,0-5.82-.75h0a19.85,19.85,0,0,0-5.81.75,8.33,8.33,0,0,0-3.74,2.17,5.13,5.13,0,0,0,0,6.85,8.14,8.14,0,0,0,3.74,2.16,19.87,19.87,0,0,0,5.81.74h0a20,20,0,0,0,5.82-.74,8.23,8.23,0,0,0,3.75-2.16,5.13,5.13,0,0,0,0-6.85Z"/><path class="cls-5" d="M27.66,187.47v-4.26h3.19v-.08a5.45,5.45,0,0,1-2.6-2.17,6.3,6.3,0,0,1-1-3.51,6.7,6.7,0,0,1,.47-2.55,5.22,5.22,0,0,1,1.38-2,5.78,5.78,0,0,1,2.19-1.22v-.09a6.36,6.36,0,0,1-2.15-1.48,6.66,6.66,0,0,1-1.4-2.2,7.4,7.4,0,0,1-.49-2.73,7,7,0,0,1,.85-3.53,6,6,0,0,1,2.37-2.35,7.31,7.31,0,0,1,3.58-.84H48.21v4.26H35.1a4.38,4.38,0,0,0-3.09,1,3.72,3.72,0,0,0-1.11,2.91,4.16,4.16,0,0,0,.57,2.19,4,4,0,0,0,1.58,1.49,4.86,4.86,0,0,0,2.31.53H48.21v4.16H34.79A3.62,3.62,0,0,0,30.9,179a4.1,4.1,0,0,0,.6,2.2,4.16,4.16,0,0,0,1.63,1.51,5,5,0,0,0,2.38.55h12.7v4.26Z"/><path class="cls-5" d="M27.66,154.46V150.2h3.19v-.08a5.45,5.45,0,0,1-2.6-2.17,6.3,6.3,0,0,1-1-3.51,6.7,6.7,0,0,1,.47-2.55,5.22,5.22,0,0,1,1.38-2,5.64,5.64,0,0,1,2.19-1.21v-.1a6.22,6.22,0,0,1-2.15-1.48,6.56,6.56,0,0,1-1.4-2.2,7.4,7.4,0,0,1-.49-2.73,7,7,0,0,1,.85-3.53,6.08,6.08,0,0,1,2.37-2.35,7.43,7.43,0,0,1,3.58-.84H48.21v4.26H35.1a4.38,4.38,0,0,0-3.09,1,3.75,3.75,0,0,0-1.11,2.91,4.16,4.16,0,0,0,.57,2.19,4,4,0,0,0,1.58,1.49,4.86,4.86,0,0,0,2.31.54H48.21v4.16H34.79a3.61,3.61,0,0,0-3.89,3.88,4.08,4.08,0,0,0,.6,2.2,4.16,4.16,0,0,0,1.63,1.51,5,5,0,0,0,2.38.55h12.7v4.26Z"/></svg>