<svg id="Ebene_1" data-name="Ebene 1" xmlns="http://www.w3.org/2000/svg" viewBox="0 0 1178.11 837.49"><defs><style>.cls-1,.cls-2,.cls-5,.cls-6{fill:none;stroke-miterlimit:10;}.cls-1{stroke:gray;stroke-dasharray:19.18;}.cls-1,.cls-2{stroke-width:5px;}.cls-2,.cls-6{stroke:#454545;}.cls-3{fill:#454545;}.cls-4{fill:#68442a;}.cls-5{stroke:#ccc;stroke-width:3.97px;stroke-dasharray:9.86;}.cls-6{stroke-width:4.99px;}.cls-7{fill:#f6f6f6;}</style></defs><line class="cls-1" x1="848.36" y1="96.03" x2="1066.64" y2="96.03"/><line class="cls-1" x1="848.36" y1="76.06" x2="1063.48" y2="76.06"/><line class="cls-2" x1="1083.3" y1="76.36" x2="1083.3" y2="95.9"/><rect class="cls-3" x="1067.05" y="73.86" width="32.5" height="5"/><rect class="cls-3" x="1067.05" y="93.4" width="32.5" height="5"/><path class="cls-3" d="M1136.75,137.57l-10-9.94a40.64,40.64,0,0,0-3.13-2.87,8.8,8.8,0,0,0-2.21-1.35,6.07,6.07,0,0,0-2.08-.37h0a4.38,4.38,0,0,0-4,2.36,5.32,5.32,0,0,0-.58,2.54,6,6,0,0,0,.68,2.92,5.27,5.27,0,0,0,1.83,2,4.55,4.55,0,0,0,2.56.75l.14,0v4.14h-.14a8,8,0,0,1-4.49-1.29,8.83,8.83,0,0,1-3.08-3.53,10.87,10.87,0,0,1-1.12-5,10.72,10.72,0,0,1,1-4.82,8,8,0,0,1,2.84-3.27,7.29,7.29,0,0,1,4.09-1.19h0a8.08,8.08,0,0,1,3.05.59,13.06,13.06,0,0,1,3.18,2q1.74,1.43,4.26,4l7.73,7.89-2.81-1.49h2.81l-1.27,1.49V118.27h3.7v19.3Z"/><path class="cls-3" d="M1139.17,109.28a9,9,0,0,1-2.88,3.48,8.26,8.26,0,0,1-4.13,1.49l-.24,0v-4.18l.14,0a4.86,4.86,0,0,0,2.29-1,5.41,5.41,0,0,0,1.63-2,6.48,6.48,0,0,0,.59-2.79,6.32,6.32,0,0,0-.76-3.14A5.47,5.47,0,0,0,1133.7,99a6.15,6.15,0,0,0-3.09-.76h0a5.89,5.89,0,0,0-3,.77,5.53,5.53,0,0,0-2.09,2.12,6.09,6.09,0,0,0-.76,3.08,7.23,7.23,0,0,0,.38,2.42,5.67,5.67,0,0,0,1.14,2,8.38,8.38,0,0,0,.74.71,7.74,7.74,0,0,0,.88.62v3.84l-16.25-1.38V95.56h3.69v13.26l8.93.86v-.1A6.23,6.23,0,0,1,1122,107a9,9,0,0,1-.77-3.76,9.46,9.46,0,0,1,1.2-4.79,8.8,8.8,0,0,1,3.29-3.29,9.46,9.46,0,0,1,4.79-1.2h0a9.49,9.49,0,0,1,5,1.33,9.2,9.2,0,0,1,3.41,3.66,12.38,12.38,0,0,1,.18,10.37Z"/><path class="cls-3" d="M1119.21,90.5V86.24h3.18v-.07a5.66,5.66,0,0,1-2.6-2.17,6.33,6.33,0,0,1-1-3.52,6.51,6.51,0,0,1,.47-2.55,5.39,5.39,0,0,1,1.37-2,5.68,5.68,0,0,1,2.2-1.21v-.1a6.47,6.47,0,0,1-2.16-1.47,6.58,6.58,0,0,1-1.39-2.21,7.4,7.4,0,0,1-.49-2.73,7,7,0,0,1,.85-3.53,5.93,5.93,0,0,1,2.37-2.34,7.3,7.3,0,0,1,3.57-.84h14.15v4.25h-13.11a4.41,4.41,0,0,0-3.1,1,3.78,3.78,0,0,0-1.1,2.91,4.19,4.19,0,0,0,.57,2.2,3.9,3.9,0,0,0,1.58,1.48,4.82,4.82,0,0,0,2.3.54h12.86V78.1h-13.42a3.61,3.61,0,0,0-3.89,3.89,4,4,0,0,0,.6,2.19,4.12,4.12,0,0,0,1.63,1.52,5.06,5.06,0,0,0,2.38.54h12.7V90.5Z"/><path class="cls-3" d="M1119.21,57.49V53.24h3.18v-.08a5.6,5.6,0,0,1-2.6-2.17,6.3,6.3,0,0,1-1-3.52,6.58,6.58,0,0,1,.47-2.55,5.39,5.39,0,0,1,1.37-2,5.81,5.81,0,0,1,2.2-1.21v-.1a6.47,6.47,0,0,1-2.16-1.47,6.58,6.58,0,0,1-1.39-2.21,7.38,7.38,0,0,1-.49-2.72,7.05,7.05,0,0,1,.85-3.54,5.93,5.93,0,0,1,2.37-2.34,7.3,7.3,0,0,1,3.57-.84h14.15v4.26h-13.11a4.45,4.45,0,0,0-3.1,1,3.78,3.78,0,0,0-1.1,2.91,4.17,4.17,0,0,0,.57,2.2,3.83,3.83,0,0,0,1.58,1.48,4.82,4.82,0,0,0,2.3.54h12.86v4.16h-13.42a3.62,3.62,0,0,0-3.89,3.89,4.12,4.12,0,0,0,2.23,3.71,5.06,5.06,0,0,0,2.38.55h12.7v4.25Z"/><rect class="cls-4" x="121.25" y="75.24" width="726.72" height="660.27"/><line class="cls-5" x1="501.1" y1="62.75" x2="501.1" y2="752.38"/><line class="cls-5" x1="867.28" y1="270.63" x2="126.28" y2="270.63"/><line class="cls-5" x1="856.89" y1="137.25" x2="503.97" y2="137.25"/><line class="cls-5" x1="856.89" y1="101.29" x2="503.97" y2="101.29"/><line class="cls-5" x1="502.16" y1="425.5" x2="127.49" y2="425.5"/><line class="cls-5" x1="501.76" y1="578.78" x2="125.14" y2="578.78"/><line class="cls-2" x1="501.02" y1="757.7" x2="121.67" y2="757.7"/><rect class="cls-3" x="498.52" y="741.45" width="5" height="32.5"/><rect class="cls-3" x="119.17" y="741.45" width="5" height="32.5"/><path class="cls-3" d="M256.56,795.56h-14.1v-3.83q1.18-1.87,2.39-3.75l2.4-3.75,2.4-3.75q1.18-1.87,2.39-3.75t2.39-3.75h6.33v18.88h3.91v3.7h-3.91v5.6h-4.2Zm0-3.62V776.45h-.12l-2,3.08c-.66,1-1.33,2.05-2,3.07l-2,3.07c-.68,1-1.34,2.06-2,3.08l-2,3.08v.11Z"/><path class="cls-3" d="M272.45,799.85a11.1,11.1,0,0,1-3.7-5,21,21,0,0,1-1.29-7.73v0a21,21,0,0,1,1.29-7.73,11.07,11.07,0,0,1,3.7-5,10.29,10.29,0,0,1,11.54,0,11.08,11.08,0,0,1,3.71,5A20.75,20.75,0,0,1,289,787v0a20.75,20.75,0,0,1-1.3,7.73,11.11,11.11,0,0,1-3.71,5,10.24,10.24,0,0,1-11.54,0Zm9.2-3.2a8.41,8.41,0,0,0,2.17-3.75,20,20,0,0,0,.75-5.82v0a19.85,19.85,0,0,0-.75-5.81,8.42,8.42,0,0,0-2.17-3.74,5.15,5.15,0,0,0-6.86,0,8.32,8.32,0,0,0-2.16,3.74,20.22,20.22,0,0,0-.74,5.81v0a20.34,20.34,0,0,0,.74,5.82,8.3,8.3,0,0,0,2.16,3.75,5.15,5.15,0,0,0,6.86,0Z"/><path class="cls-3" d="M297.43,799.85a11.1,11.1,0,0,1-3.7-5,21,21,0,0,1-1.29-7.73v0a21,21,0,0,1,1.29-7.73,11.07,11.07,0,0,1,3.7-5,10.29,10.29,0,0,1,11.54,0,11.08,11.08,0,0,1,3.71,5A20.75,20.75,0,0,1,314,787v0a20.75,20.75,0,0,1-1.3,7.73,11.11,11.11,0,0,1-3.71,5,10.24,10.24,0,0,1-11.54,0Zm9.2-3.2a8.31,8.31,0,0,0,2.17-3.75,20,20,0,0,0,.75-5.82v0a19.85,19.85,0,0,0-.75-5.81,8.33,8.33,0,0,0-2.17-3.74,5.15,5.15,0,0,0-6.86,0,8.22,8.22,0,0,0-2.15,3.74,19.85,19.85,0,0,0-.75,5.81v0a20,20,0,0,0,.75,5.82,8.21,8.21,0,0,0,2.15,3.75,5.15,5.15,0,0,0,6.86,0Z"/><path class="cls-3" d="M317.77,780.61H322v3.19h.08a5.49,5.49,0,0,1,2.17-2.6,6.3,6.3,0,0,1,3.51-1,6.7,6.7,0,0,1,2.55.47,5.22,5.22,0,0,1,2,1.38,5.61,5.61,0,0,1,1.21,2.2h.1a6.17,6.17,0,0,1,1.48-2.16,6.56,6.56,0,0,1,2.2-1.4,7.61,7.61,0,0,1,2.73-.49,7.12,7.12,0,0,1,3.53.85,6,6,0,0,1,2.35,2.38,7.25,7.25,0,0,1,.84,3.57v14.14h-4.26v-13.1a4.41,4.41,0,0,0-1-3.1,3.72,3.72,0,0,0-2.91-1.1,4.25,4.25,0,0,0-2.19.56,4,4,0,0,0-1.49,1.58,4.86,4.86,0,0,0-.54,2.31v12.85h-4.16V787.74a3.84,3.84,0,0,0-1-2.84,3.88,3.88,0,0,0-2.84-1,4.06,4.06,0,0,0-3.71,2.22,5,5,0,0,0-.55,2.39v12.69h-4.26Z"/><path class="cls-3" d="M350.78,780.61H355v3.19h.08a5.53,5.53,0,0,1,2.16-2.6,6.36,6.36,0,0,1,3.52-1,6.7,6.7,0,0,1,2.55.47,5.3,5.3,0,0,1,2,1.38,5.61,5.61,0,0,1,1.21,2.2h.1a6.28,6.28,0,0,1,1.47-2.16,6.7,6.7,0,0,1,2.21-1.4,7.61,7.61,0,0,1,2.73-.49,7.12,7.12,0,0,1,3.53.85,6,6,0,0,1,2.34,2.38,7.25,7.25,0,0,1,.84,3.57v14.14h-4.25v-13.1a4.41,4.41,0,0,0-1-3.1,3.75,3.75,0,0,0-2.91-1.1,4.28,4.28,0,0,0-2.2.56,4,4,0,0,0-1.48,1.58,4.86,4.86,0,0,0-.54,2.31v12.85h-4.16V787.74a3.59,3.59,0,0,0-3.89-3.88,4.13,4.13,0,0,0-2.19.59,4.19,4.19,0,0,0-1.52,1.63,5.1,5.1,0,0,0-.54,2.39v12.69h-4.26Z"/><line class="cls-2" x1="845.77" y1="757.7" x2="500.75" y2="757.7"/><rect class="cls-3" x="843.27" y="741.45" width="5" height="32.5"/><rect class="cls-3" x="498.25" y="741.45" width="5" height="32.5"/><path class="cls-3" d="M609.84,800.62a8.72,8.72,0,0,1-3.57-2.79,7.91,7.91,0,0,1-1.5-4.09l0-.24H609l0,.22a4.21,4.21,0,0,0,1.84,3.06,8.07,8.07,0,0,0,7.29.6,4.75,4.75,0,0,0,2-1.65,4.14,4.14,0,0,0,.72-2.4v0a4.38,4.38,0,0,0-1.62-3.66,7,7,0,0,0-4.43-1.28h-3.44v-3.44h3.3a6.43,6.43,0,0,0,2.82-.58,4.46,4.46,0,0,0,1.9-1.59,4.07,4.07,0,0,0,.67-2.32v0a4.43,4.43,0,0,0-.57-2.32,3.65,3.65,0,0,0-1.7-1.46,6.76,6.76,0,0,0-2.73-.5,7.09,7.09,0,0,0-2.77.51,4.55,4.55,0,0,0-1.93,1.47,4.33,4.33,0,0,0-.86,2.26l0,.2h-4.14l0-.22a8.11,8.11,0,0,1,4.85-6.84,11.41,11.41,0,0,1,4.85-1,12,12,0,0,1,4.91.93,7.68,7.68,0,0,1,3.24,2.56,6.47,6.47,0,0,1,1.15,3.81v0a6.14,6.14,0,0,1-.77,3.1,6.67,6.67,0,0,1-2.11,2.22,8.51,8.51,0,0,1-3.06,1.25v.09a8,8,0,0,1,5,2,6.29,6.29,0,0,1,1.9,4.77v0a7.32,7.32,0,0,1-1.31,4.28,8.78,8.78,0,0,1-3.61,2.93,12.6,12.6,0,0,1-5.3,1A12.82,12.82,0,0,1,609.84,800.62Z"/><path class="cls-3" d="M635.89,800.84a9.79,9.79,0,0,1-3.55-2.48,11.87,11.87,0,0,1-2.47-4.38,20.54,20.54,0,0,1-.9-6.49v0a21.59,21.59,0,0,1,1.34-8.06,11,11,0,0,1,3.86-5.11,10.31,10.31,0,0,1,6.05-1.77,11.21,11.21,0,0,1,4.54.89,9.08,9.08,0,0,1,3.37,2.49,8.4,8.4,0,0,1,1.8,3.69l0,.23h-4.4l-.08-.19a5,5,0,0,0-1.11-1.83,5.1,5.1,0,0,0-1.8-1.19,6.42,6.42,0,0,0-2.4-.42,5.53,5.53,0,0,0-3.92,1.41,8.34,8.34,0,0,0-2.24,3.72,18.49,18.49,0,0,0-.81,5.12,3.24,3.24,0,0,0,0,.44v.46L634,792a5.89,5.89,0,0,0,2.94,5.17,6.05,6.05,0,0,0,8.21-2.1,5.7,5.7,0,0,0,.8-3v0a5.88,5.88,0,0,0-.76-3,5.5,5.5,0,0,0-2.11-2.06,6.16,6.16,0,0,0-3.05-.75A6.39,6.39,0,0,0,637,787a5.68,5.68,0,0,0-2.17,2,5.58,5.58,0,0,0-.79,3v0h-1.17V787.2h.41a6.71,6.71,0,0,1,1.68-2.3,8.33,8.33,0,0,1,2.65-1.63,10.23,10.23,0,0,1,8.26.6,8.69,8.69,0,0,1,3.29,3.3,9.3,9.3,0,0,1,1.21,4.75v0a9.34,9.34,0,0,1-1.34,5,9.45,9.45,0,0,1-3.66,3.43,11.66,11.66,0,0,1-9.47.46Z"/><path class="cls-3" d="M659.15,799.85a11.17,11.17,0,0,1-3.7-5,21,21,0,0,1-1.29-7.73v0a21,21,0,0,1,1.29-7.73,11.14,11.14,0,0,1,3.7-5,10.31,10.31,0,0,1,11.55,0,11.15,11.15,0,0,1,3.71,5,21,21,0,0,1,1.3,7.73v0a21,21,0,0,1-1.3,7.73,11.18,11.18,0,0,1-3.71,5,10.26,10.26,0,0,1-11.55,0Zm9.2-3.2a8.23,8.23,0,0,0,2.17-3.75,20,20,0,0,0,.75-5.82v0a19.85,19.85,0,0,0-.75-5.81,8.24,8.24,0,0,0-2.17-3.74,5.13,5.13,0,0,0-6.85,0,8.14,8.14,0,0,0-2.16,3.74,20.22,20.22,0,0,0-.74,5.81v0a20.34,20.34,0,0,0,.74,5.82,8.13,8.13,0,0,0,2.16,3.75,5.13,5.13,0,0,0,6.85,0Z"/><path class="cls-3" d="M679.5,780.61h4.25v3.19h.08a5.55,5.55,0,0,1,2.17-2.6,6.31,6.31,0,0,1,3.52-1,6.68,6.68,0,0,1,2.54.47,5.25,5.25,0,0,1,2,1.38,5.73,5.73,0,0,1,1.21,2.2h.1a6.28,6.28,0,0,1,1.47-2.16,6.6,6.6,0,0,1,2.21-1.4,7.59,7.59,0,0,1,2.72-.49,7.16,7.16,0,0,1,3.54.85,6,6,0,0,1,2.34,2.38,7.25,7.25,0,0,1,.84,3.57v14.14H704.2v-13.1a4.45,4.45,0,0,0-1-3.1,3.75,3.75,0,0,0-2.91-1.1,4.26,4.26,0,0,0-2.2.56A4,4,0,0,0,696.6,786a4.86,4.86,0,0,0-.54,2.31v12.85H691.9V787.74a3.61,3.61,0,0,0-3.89-3.88,4.19,4.19,0,0,0-2.2.59,4.24,4.24,0,0,0-1.51,1.63,5.11,5.11,0,0,0-.55,2.39v12.69H679.5Z"/><path class="cls-3" d="M712.5,780.61h4.26v3.19h.08a5.55,5.55,0,0,1,2.17-2.6,6.3,6.3,0,0,1,3.51-1,6.7,6.7,0,0,1,2.55.47,5.33,5.33,0,0,1,2,1.38,5.73,5.73,0,0,1,1.21,2.2h.09a6.44,6.44,0,0,1,1.48-2.16,6.6,6.6,0,0,1,2.21-1.4,7.55,7.55,0,0,1,2.72-.49,7.19,7.19,0,0,1,3.54.85,6,6,0,0,1,2.34,2.38,7.25,7.25,0,0,1,.84,3.57v14.14h-4.26v-13.1a4.45,4.45,0,0,0-1-3.1,3.75,3.75,0,0,0-2.91-1.1,4.26,4.26,0,0,0-2.2.56A4.05,4.05,0,0,0,729.6,786a5,5,0,0,0-.53,2.31v12.85h-4.16V787.74a3.61,3.61,0,0,0-3.89-3.88,4.06,4.06,0,0,0-3.71,2.22,5,5,0,0,0-.55,2.39v12.69H712.5Z"/><line class="cls-6" x1="872.2" y1="270.81" x2="872.2" y2="730.79"/><rect class="cls-3" x="855.97" y="268.32" width="32.46" height="4.99"/><rect class="cls-3" x="855.97" y="728.29" width="32.46" height="4.99"/><path class="cls-3" d="M922.91,553.87V568h-3.82l-3.74-2.4-3.74-2.4-3.74-2.39-3.73-2.39-3.75-2.4v-6.32h18.84v-3.91h3.68v3.91h5.59v4.2Zm-3.6,0H903.86v.11l3.07,2,3.06,2,3.07,2c1,.67,2,1.34,3.06,2l3.07,2h.12Z"/><path class="cls-3" d="M904.17,528.77h-.09v14.88h-3.69V524.43h3.8L928.5,536.7v4.59Z"/><path class="cls-3" d="M927.2,516.43a11,11,0,0,1-5,3.7,20.89,20.89,0,0,1-7.71,1.29h0a20.85,20.85,0,0,1-7.71-1.29,11,11,0,0,1-5-3.7,10.34,10.34,0,0,1,0-11.54,11.18,11.18,0,0,1,5-3.71,20.64,20.64,0,0,1,7.71-1.3h0a20.67,20.67,0,0,1,7.71,1.3,11.21,11.21,0,0,1,5,3.71,10.29,10.29,0,0,1,0,11.54Zm-3.2-9.2a8.27,8.27,0,0,0-3.74-2.16,19.8,19.8,0,0,0-5.8-.76h0a19.75,19.75,0,0,0-5.8.76,8.34,8.34,0,0,0-3.73,2.16,5.17,5.17,0,0,0,0,6.86,8.34,8.34,0,0,0,3.73,2.16,20.14,20.14,0,0,0,5.8.74h0a20.19,20.19,0,0,0,5.8-.74,8.27,8.27,0,0,0,3.74-2.16,5.15,5.15,0,0,0,0-6.86Z"/><path class="cls-3" d="M908,496.09v-4.26h3.18v-.07a5.54,5.54,0,0,1-2.59-2.17,6.36,6.36,0,0,1-1-3.52,6.73,6.73,0,0,1,.47-2.55,5.39,5.39,0,0,1,1.37-2,5.71,5.71,0,0,1,2.19-1.21v-.1a6.33,6.33,0,0,1-2.15-1.47,6.58,6.58,0,0,1-1.39-2.21,7.38,7.38,0,0,1-.49-2.72,7,7,0,0,1,.85-3.54,5.93,5.93,0,0,1,2.37-2.34,7.24,7.24,0,0,1,3.56-.84h14.1v4.25H915.43a4.4,4.4,0,0,0-3.09,1,3.78,3.78,0,0,0-1.1,2.91,4.19,4.19,0,0,0,.57,2.2,4,4,0,0,0,1.58,1.48,4.78,4.78,0,0,0,2.29.54H928.5v4.16H915.12a3.61,3.61,0,0,0-3.88,3.89,4,4,0,0,0,.6,2.19,4.16,4.16,0,0,0,1.62,1.52,5.06,5.06,0,0,0,2.38.54H928.5v4.26Z"/><path class="cls-3" d="M908,463.08v-4.25h3.18v-.08a5.48,5.48,0,0,1-2.59-2.17,6.31,6.31,0,0,1-1-3.52,6.68,6.68,0,0,1,.47-2.54,5.35,5.35,0,0,1,1.37-2,5.84,5.84,0,0,1,2.19-1.21v-.1a6.33,6.33,0,0,1-2.15-1.47,6.58,6.58,0,0,1-1.39-2.21,7.38,7.38,0,0,1-.49-2.72,7.05,7.05,0,0,1,.85-3.54,5.93,5.93,0,0,1,2.37-2.34,7.24,7.24,0,0,1,3.56-.84h14.1v4.26H915.43a4.44,4.44,0,0,0-3.09,1,3.78,3.78,0,0,0-1.1,2.91,4.17,4.17,0,0,0,.57,2.2,3.89,3.89,0,0,0,1.58,1.48,4.78,4.78,0,0,0,2.29.54H928.5v4.16H915.12a3.62,3.62,0,0,0-3.88,3.89,4.11,4.11,0,0,0,2.22,3.71,5.06,5.06,0,0,0,2.38.55H928.5v4.25Z"/><line class="cls-2" x1="872.11" y1="141.61" x2="872.11" y2="265.26"/><rect class="cls-3" x="855.86" y="139.11" width="32.5" height="5"/><rect class="cls-3" x="855.86" y="262.76" width="32.5" height="5"/><path class="cls-3" d="M904.73,260.85v.09l5.08,7.37h-4.16l-5.27-7.42v-4.34h28.18v4.3Z"/><path class="cls-3" d="M928,245.11a8.68,8.68,0,0,1-2.8,3.57,7.91,7.91,0,0,1-4.09,1.5l-.23,0V246l.21,0a4.21,4.21,0,0,0,3.06-1.84,7.08,7.08,0,0,0,1.2-4.27,7.17,7.17,0,0,0-.6-3,4.73,4.73,0,0,0-1.65-2,4.14,4.14,0,0,0-2.4-.72h0a4.38,4.38,0,0,0-3.66,1.62,7,7,0,0,0-1.28,4.43v3.44h-3.44v-3.3a6.57,6.57,0,0,0-.57-2.82,4.61,4.61,0,0,0-1.6-1.9,4.07,4.07,0,0,0-2.32-.67h0a4.37,4.37,0,0,0-2.32.58,3.6,3.6,0,0,0-1.46,1.7,6.71,6.71,0,0,0-.5,2.72,7.05,7.05,0,0,0,.51,2.77,4.58,4.58,0,0,0,1.47,1.94,4.45,4.45,0,0,0,2.26.86l.2,0v4.14l-.22,0a8.4,8.4,0,0,1-4.12-1.5,8.29,8.29,0,0,1-2.72-3.36,11.38,11.38,0,0,1-1-4.85,11.93,11.93,0,0,1,.93-4.9,7.5,7.5,0,0,1,2.57-3.24,6.44,6.44,0,0,1,3.81-1.16h0a6.12,6.12,0,0,1,3.1.77,6.8,6.8,0,0,1,2.23,2.11,8.84,8.84,0,0,1,1.24,3.06h.09a8,8,0,0,1,2.06-5,6.24,6.24,0,0,1,4.76-1.89h0a7.31,7.31,0,0,1,4.28,1.3,8.84,8.84,0,0,1,2.93,3.61,12.63,12.63,0,0,1,1,5.3A12.79,12.79,0,0,1,928,245.11Z"/><path class="cls-3" d="M927.25,221a11.12,11.12,0,0,1-5,3.7,21.05,21.05,0,0,1-7.74,1.29h0a21,21,0,0,1-7.73-1.29,11.07,11.07,0,0,1-5-3.7,10.29,10.29,0,0,1,0-11.54,11.15,11.15,0,0,1,5-3.71,20.75,20.75,0,0,1,7.73-1.3h0a20.84,20.84,0,0,1,7.74,1.3,11.21,11.21,0,0,1,5,3.71,10.24,10.24,0,0,1,0,11.54Zm-3.2-9.2a8.3,8.3,0,0,0-3.75-2.16,19.94,19.94,0,0,0-5.82-.76h0a19.83,19.83,0,0,0-5.81.76,8.32,8.32,0,0,0-3.74,2.16,5.15,5.15,0,0,0,0,6.86,8.32,8.32,0,0,0,3.74,2.16,20.22,20.22,0,0,0,5.81.74h0a20.34,20.34,0,0,0,5.82-.74,8.3,8.3,0,0,0,3.75-2.16,5.15,5.15,0,0,0,0-6.86Z"/><path class="cls-3" d="M908,200.65v-4.26h3.18v-.07a5.61,5.61,0,0,1-2.6-2.17,6.33,6.33,0,0,1-1-3.52,6.7,6.7,0,0,1,.46-2.55,5.54,5.54,0,0,1,1.38-2,5.68,5.68,0,0,1,2.2-1.21v-.1a6.47,6.47,0,0,1-2.16-1.47,6.6,6.6,0,0,1-1.4-2.21,7.59,7.59,0,0,1-.48-2.72,7,7,0,0,1,.85-3.54,5.93,5.93,0,0,1,2.37-2.34,7.27,7.27,0,0,1,3.57-.84h14.14v4.25h-13.1a4.41,4.41,0,0,0-3.1,1,3.78,3.78,0,0,0-1.1,2.91,4.28,4.28,0,0,0,.56,2.2,4,4,0,0,0,1.59,1.48,4.79,4.79,0,0,0,2.3.54h12.85v4.16H915.14a3.59,3.59,0,0,0-3.88,3.89,4.13,4.13,0,0,0,.59,2.19,4.26,4.26,0,0,0,1.63,1.52,5.13,5.13,0,0,0,2.39.54h12.69v4.26Z"/><path class="cls-3" d="M908,167.64v-4.25h3.18v-.08a5.55,5.55,0,0,1-2.6-2.17,6.3,6.3,0,0,1-1-3.52,6.68,6.68,0,0,1,.46-2.54,5.49,5.49,0,0,1,1.38-2,5.81,5.81,0,0,1,2.2-1.21v-.1a6.47,6.47,0,0,1-2.16-1.47,6.6,6.6,0,0,1-1.4-2.21,7.59,7.59,0,0,1-.48-2.72,7.05,7.05,0,0,1,.85-3.54,5.93,5.93,0,0,1,2.37-2.34,7.27,7.27,0,0,1,3.57-.84h14.14v4.26h-13.1a4.45,4.45,0,0,0-3.1,1,3.78,3.78,0,0,0-1.1,2.91,4.26,4.26,0,0,0,.56,2.2,3.92,3.92,0,0,0,1.59,1.48,4.79,4.79,0,0,0,2.3.54h12.85v4.16H915.14a3.61,3.61,0,0,0-3.88,3.89,4.19,4.19,0,0,0,.59,2.2,4.23,4.23,0,0,0,1.63,1.51,5.14,5.14,0,0,0,2.39.55h12.69v4.25Z"/><line class="cls-2" x1="94.62" y1="584.78" x2="94.62" y2="730.78"/><rect class="cls-3" x="78.37" y="582.28" width="32.5" height="5"/><rect class="cls-3" x="78.37" y="728.28" width="32.5" height="5"/><path class="cls-3" d="M40.66,715.2v.1l5.08,7.37H41.58l-5.27-7.43v-4.33H64.49v4.29Z"/><path class="cls-3" d="M64.17,697.6a9.79,9.79,0,0,1-2.48,3.55,11.87,11.87,0,0,1-4.38,2.47,20.54,20.54,0,0,1-6.49.9h0a21.59,21.59,0,0,1-8.06-1.34,11,11,0,0,1-5.11-3.86,10.31,10.31,0,0,1-1.77-6.05,11.21,11.21,0,0,1,.89-4.54,9.08,9.08,0,0,1,2.49-3.37,8.4,8.4,0,0,1,3.69-1.8l.23,0v4.4L43,688a5.17,5.17,0,0,0-1.83,1.11,5.1,5.1,0,0,0-1.19,1.8,6.42,6.42,0,0,0-.42,2.4,5.53,5.53,0,0,0,1.41,3.92,8.45,8.45,0,0,0,3.72,2.24,18.5,18.5,0,0,0,5.13.81,3.1,3.1,0,0,0,.43,0h.46l4.65-.84a5.89,5.89,0,0,0,6-6,6,6,0,0,0-2.89-5.18,5.7,5.7,0,0,0-3-.8h0a5.88,5.88,0,0,0-3,.76,5.5,5.5,0,0,0-2.06,2.11,6.16,6.16,0,0,0-.75,3,6.42,6.42,0,0,0,.74,3.07,5.68,5.68,0,0,0,2,2.17,5.58,5.58,0,0,0,3,.79h0v1.17H50.53v-.41a6.81,6.81,0,0,1-2.3-1.68,8.51,8.51,0,0,1-1.63-2.65,10.23,10.23,0,0,1,.6-8.26,8.79,8.79,0,0,1,3.3-3.3,9.39,9.39,0,0,1,4.75-1.2h0a9.28,9.28,0,0,1,8.42,5,11.66,11.66,0,0,1,.46,9.47Z"/><path class="cls-3" d="M63.91,673.77A9.15,9.15,0,0,1,61,677.25a8.26,8.26,0,0,1-4.14,1.49l-.23,0v-4.18l.14,0a4.9,4.9,0,0,0,2.29-1,5.29,5.29,0,0,0,1.62-2,6.34,6.34,0,0,0,.6-2.79,6.49,6.49,0,0,0-.76-3.15,5.38,5.38,0,0,0-2.11-2.12,6.16,6.16,0,0,0-3.09-.77h0a5.88,5.88,0,0,0-3,.78,5.5,5.5,0,0,0-2.09,2.11,6.16,6.16,0,0,0-.77,3.09,7.53,7.53,0,0,0,.38,2.42,6,6,0,0,0,1.15,2,8.38,8.38,0,0,0,.74.71,6,6,0,0,0,.88.61v3.85l-16.25-1.39V660.05H40v13.26l8.93.86v-.1a6.19,6.19,0,0,1-2.2-2.63,8.75,8.75,0,0,1-.77-3.76,9.43,9.43,0,0,1,1.2-4.78,8.8,8.8,0,0,1,3.29-3.29,9.43,9.43,0,0,1,4.78-1.2h0a9.49,9.49,0,0,1,5,1.33,9.15,9.15,0,0,1,3.42,3.66,12.38,12.38,0,0,1,.18,10.37Z"/><path class="cls-3" d="M44,655v-4.26h3.18v-.08a5.53,5.53,0,0,1-2.6-2.16,6.36,6.36,0,0,1-1-3.52,6.7,6.7,0,0,1,.47-2.55,5.33,5.33,0,0,1,1.38-2,5.68,5.68,0,0,1,2.2-1.21v-.1a6.17,6.17,0,0,1-2.16-1.48,6.56,6.56,0,0,1-1.4-2.2,7.61,7.61,0,0,1-.49-2.73,7.12,7.12,0,0,1,.85-3.53,6,6,0,0,1,2.38-2.35,7.36,7.36,0,0,1,3.57-.84H64.49v4.26H51.39a4.41,4.41,0,0,0-3.1,1,3.78,3.78,0,0,0-1.1,2.91,4.31,4.31,0,0,0,.56,2.2,4,4,0,0,0,1.59,1.48,4.79,4.79,0,0,0,2.3.54H64.49v4.16H51.07a3.59,3.59,0,0,0-3.88,3.88,4.16,4.16,0,0,0,.59,2.2,4.09,4.09,0,0,0,1.63,1.51,5,5,0,0,0,2.39.55H64.49V655Z"/><path class="cls-3" d="M44,622v-4.26h3.18v-.07a5.61,5.61,0,0,1-2.6-2.17,6.33,6.33,0,0,1-1-3.52,6.7,6.7,0,0,1,.47-2.55,5.42,5.42,0,0,1,1.38-2,5.68,5.68,0,0,1,2.2-1.21v-.1a6.28,6.28,0,0,1-2.16-1.47,6.6,6.6,0,0,1-1.4-2.21,7.59,7.59,0,0,1-.49-2.72,7.13,7.13,0,0,1,.85-3.54,6,6,0,0,1,2.38-2.34,7.25,7.25,0,0,1,3.57-.84H64.49v4.25H51.39a4.41,4.41,0,0,0-3.1,1,3.78,3.78,0,0,0-1.1,2.91,4.28,4.28,0,0,0,.56,2.2,4,4,0,0,0,1.59,1.48,4.79,4.79,0,0,0,2.3.54H64.49v4.16H51.07a3.59,3.59,0,0,0-3.88,3.89,4.13,4.13,0,0,0,.59,2.19,4.19,4.19,0,0,0,1.63,1.52,5.1,5.1,0,0,0,2.39.54H64.49V622Z"/><line class="cls-2" x1="94.62" y1="431.16" x2="94.62" y2="575.09"/><rect class="cls-3" x="78.37" y="428.66" width="32.5" height="5"/><rect class="cls-3" x="78.37" y="572.59" width="32.5" height="5"/><path class="cls-3" d="M40.66,560.35v.1l5.08,7.37H41.58l-5.27-7.43v-4.33H64.49v4.29Z"/><path class="cls-3" d="M58.89,535.8v14.11H55.06l-3.75-2.4-3.75-2.4-3.75-2.39-3.75-2.39-3.75-2.4V531.6H55.2v-3.9h3.69v3.9h5.6v4.2Zm-3.62,0H39.79v.12l3.07,2,3.07,2c1,.65,2,1.32,3.07,2l3.08,2,3.08,2h.11Z"/><path class="cls-3" d="M63.91,519.31A9.15,9.15,0,0,1,61,522.79a8.26,8.26,0,0,1-4.14,1.49l-.23,0v-4.18l.14,0a4.9,4.9,0,0,0,2.29-1,5.29,5.29,0,0,0,1.62-2,6.34,6.34,0,0,0,.6-2.79,6.43,6.43,0,0,0-.76-3.14A5.4,5.4,0,0,0,58.44,509a6.15,6.15,0,0,0-3.09-.76h0a5.87,5.87,0,0,0-3,.77,5.46,5.46,0,0,0-2.09,2.12,6.1,6.1,0,0,0-.77,3.08,7.53,7.53,0,0,0,.38,2.42,5.85,5.85,0,0,0,1.15,2,8.38,8.38,0,0,0,.74.71,6,6,0,0,0,.88.61v3.85l-16.25-1.38V505.59H40v13.26l8.93.86v-.1a6.16,6.16,0,0,1-2.2-2.62,8.81,8.81,0,0,1-.77-3.76,9.44,9.44,0,0,1,1.2-4.79,8.8,8.8,0,0,1,3.29-3.29,9.43,9.43,0,0,1,4.78-1.2h0a9.49,9.49,0,0,1,5,1.33,9.15,9.15,0,0,1,3.42,3.66,12.38,12.38,0,0,1,.18,10.37Z"/><path class="cls-3" d="M44,500.53v-4.26h3.18v-.08a5.53,5.53,0,0,1-2.6-2.16,6.36,6.36,0,0,1-1-3.52A6.7,6.7,0,0,1,44,488a5.42,5.42,0,0,1,1.38-2,5.68,5.68,0,0,1,2.2-1.21v-.1a6.28,6.28,0,0,1-2.16-1.47A6.7,6.7,0,0,1,44,481a7.61,7.61,0,0,1-.49-2.73,7.12,7.12,0,0,1,.85-3.53,6,6,0,0,1,2.38-2.34,7.25,7.25,0,0,1,3.57-.84H64.49v4.25H51.39a4.41,4.41,0,0,0-3.1,1,3.78,3.78,0,0,0-1.1,2.91,4.28,4.28,0,0,0,.56,2.2,4,4,0,0,0,1.59,1.48,4.79,4.79,0,0,0,2.3.54H64.49v4.16H51.07A3.59,3.59,0,0,0,47.19,492a4.09,4.09,0,0,0,2.22,3.72,5.1,5.1,0,0,0,2.39.54H64.49v4.26Z"/><path class="cls-3" d="M44,467.52v-4.26h3.18v-.07a5.55,5.55,0,0,1-2.6-2.17,6.33,6.33,0,0,1-1-3.52A6.77,6.77,0,0,1,44,455a5.42,5.42,0,0,1,1.38-2,5.68,5.68,0,0,1,2.2-1.21v-.1a6.28,6.28,0,0,1-2.16-1.47A6.6,6.6,0,0,1,44,448a7.59,7.59,0,0,1-.49-2.72,7.16,7.16,0,0,1,.85-3.54,6,6,0,0,1,2.38-2.34,7.25,7.25,0,0,1,3.57-.84H64.49v4.26H51.39a4.45,4.45,0,0,0-3.1,1,3.78,3.78,0,0,0-1.1,2.91,4.26,4.26,0,0,0,.56,2.2,3.92,3.92,0,0,0,1.59,1.48,4.79,4.79,0,0,0,2.3.54H64.49v4.16H51.07A3.61,3.61,0,0,0,47.19,459a4.13,4.13,0,0,0,.59,2.19,4.19,4.19,0,0,0,1.63,1.52,5.1,5.1,0,0,0,2.39.54H64.49v4.26Z"/><line class="cls-2" x1="94.62" y1="274.49" x2="94.62" y2="424.22"/><rect class="cls-3" x="78.37" y="271.99" width="32.5" height="5"/><rect class="cls-3" x="78.37" y="421.72" width="32.5" height="5"/><path class="cls-3" d="M40.66,406.67v.09l5.08,7.37H41.58l-5.27-7.42v-4.34H64.49v4.3Z"/><path class="cls-3" d="M63.91,390.43A9,9,0,0,1,61,393.9a8.18,8.18,0,0,1-4.14,1.5l-.23,0v-4.18l.14,0a4.9,4.9,0,0,0,2.29-1,5.44,5.44,0,0,0,1.62-2,6.34,6.34,0,0,0,.6-2.79,6.47,6.47,0,0,0-.76-3.15,5.47,5.47,0,0,0-2.11-2.13,6.26,6.26,0,0,0-3.09-.76h0a6,6,0,0,0-3,.77,5.53,5.53,0,0,0-2.09,2.12,6.16,6.16,0,0,0-.77,3.09,7.53,7.53,0,0,0,.38,2.42,5.81,5.81,0,0,0,1.15,2,7.23,7.23,0,0,0,.74.72,6.88,6.88,0,0,0,.88.61v3.85l-16.25-1.39V376.71H40V390l8.93.86v-.1a6.19,6.19,0,0,1-2.2-2.63,8.75,8.75,0,0,1-.77-3.76,9.43,9.43,0,0,1,1.2-4.78,8.8,8.8,0,0,1,3.29-3.29,9.43,9.43,0,0,1,4.78-1.2h0a9.57,9.57,0,0,1,5,1.32,9.24,9.24,0,0,1,3.42,3.67,12.38,12.38,0,0,1,.18,10.37Z"/><path class="cls-3" d="M63.18,367a11.1,11.1,0,0,1-5,3.7A21,21,0,0,1,50.41,372h0a21,21,0,0,1-7.73-1.29,11.07,11.07,0,0,1-5-3.7,10.29,10.29,0,0,1,0-11.54,11.17,11.17,0,0,1,5-3.72,21,21,0,0,1,7.73-1.29h0a21,21,0,0,1,7.73,1.29,11.2,11.2,0,0,1,5,3.72,10.24,10.24,0,0,1,0,11.54Zm-3.2-9.2a8.31,8.31,0,0,0-3.75-2.17,20,20,0,0,0-5.82-.75h0a19.85,19.85,0,0,0-5.81.75,8.33,8.33,0,0,0-3.74,2.17,5.15,5.15,0,0,0,0,6.86,8.22,8.22,0,0,0,3.74,2.15,19.85,19.85,0,0,0,5.81.75h0a20,20,0,0,0,5.82-.75A8.21,8.21,0,0,0,60,364.67a5.15,5.15,0,0,0,0-6.86Z"/><path class="cls-3" d="M44,346.67v-4.26h3.18v-.08a5.49,5.49,0,0,1-2.6-2.17,6.3,6.3,0,0,1-1-3.51A6.7,6.7,0,0,1,44,334.1a5.33,5.33,0,0,1,1.38-2,5.83,5.83,0,0,1,2.2-1.22v-.09a6.17,6.17,0,0,1-2.16-1.48,6.56,6.56,0,0,1-1.4-2.2,7.61,7.61,0,0,1-.49-2.73,7.12,7.12,0,0,1,.85-3.53,6,6,0,0,1,2.38-2.35,7.25,7.25,0,0,1,3.57-.84H64.49V322H51.39a4.41,4.41,0,0,0-3.1,1,3.75,3.75,0,0,0-1.1,2.91,4.25,4.25,0,0,0,.56,2.19,3.94,3.94,0,0,0,1.59,1.49,4.79,4.79,0,0,0,2.3.53H64.49v4.16H51.07a3.61,3.61,0,0,0-3.88,3.89,4.06,4.06,0,0,0,2.22,3.71,5,5,0,0,0,2.39.55H64.49v4.26Z"/><path class="cls-3" d="M44,313.66V309.4h3.18v-.08a5.53,5.53,0,0,1-2.6-2.16,6.36,6.36,0,0,1-1-3.52,6.7,6.7,0,0,1,.47-2.55,5.33,5.33,0,0,1,1.38-2,5.68,5.68,0,0,1,2.2-1.21v-.1a6.17,6.17,0,0,1-2.16-1.48,6.56,6.56,0,0,1-1.4-2.2,7.61,7.61,0,0,1-.49-2.73,7.12,7.12,0,0,1,.85-3.53,6,6,0,0,1,2.38-2.35,7.36,7.36,0,0,1,3.57-.84H64.49V289H51.39a4.41,4.41,0,0,0-3.1,1,3.78,3.78,0,0,0-1.1,2.91,4.31,4.31,0,0,0,.56,2.2,4,4,0,0,0,1.59,1.48,4.79,4.79,0,0,0,2.3.54H64.49v4.16H51.07a3.59,3.59,0,0,0-3.88,3.88,4.16,4.16,0,0,0,.59,2.2,4.09,4.09,0,0,0,1.63,1.51,5,5,0,0,0,2.39.55H64.49v4.26Z"/><line class="cls-2" x1="94.62" y1="77.57" x2="94.62" y2="267.42"/><rect class="cls-3" x="78.37" y="75.07" width="32.5" height="5"/><rect class="cls-3" x="78.37" y="264.92" width="32.5" height="5"/><path class="cls-3" d="M40.66,229.67v.1l5.08,7.36H41.58l-5.27-7.42v-4.33H64.49v4.29Z"/><path class="cls-3" d="M63.93,213.87a9.06,9.06,0,0,1-2.87,3.77,6.82,6.82,0,0,1-4.2,1.37h0a6.78,6.78,0,0,1-3.26-.79,7.5,7.5,0,0,1-2.5-2.2,8.47,8.47,0,0,1-1.41-3.24h-.1a7.64,7.64,0,0,1-2.33,3.78,5.81,5.81,0,0,1-3.9,1.41h0a6.32,6.32,0,0,1-3.83-1.23,8.17,8.17,0,0,1-2.64-3.41,13.27,13.27,0,0,1,0-10,8.2,8.2,0,0,1,2.64-3.4,6.32,6.32,0,0,1,3.83-1.23h0a5.8,5.8,0,0,1,3.9,1.4,7.54,7.54,0,0,1,2.33,3.79h.1a8.31,8.31,0,0,1,1.41-3.25,7.58,7.58,0,0,1,2.5-2.19,6.78,6.78,0,0,1,3.26-.79h0a6.81,6.81,0,0,1,4.2,1.36,8.93,8.93,0,0,1,2.87,3.77,15.31,15.31,0,0,1,0,11ZM47.51,205.6A4.48,4.48,0,0,0,46,203.75a3.91,3.91,0,0,0-2.26-.68h0a3.87,3.87,0,0,0-2.26.68,4.51,4.51,0,0,0-1.54,1.86,7.12,7.12,0,0,0,0,5.49A4.57,4.57,0,0,0,41.41,213a3.87,3.87,0,0,0,2.26.68h0A3.91,3.91,0,0,0,46,213a4.54,4.54,0,0,0,1.54-1.85,6.46,6.46,0,0,0,.56-2.77A6.38,6.38,0,0,0,47.51,205.6Zm13.31-.43A5.29,5.29,0,0,0,59.09,203a4.27,4.27,0,0,0-2.53-.79h0A4.34,4.34,0,0,0,54,203a5.25,5.25,0,0,0-1.74,2.17,8.29,8.29,0,0,0,0,6.39A5.25,5.25,0,0,0,54,213.72a4.34,4.34,0,0,0,2.54.78h0a4.27,4.27,0,0,0,2.53-.79,5.32,5.32,0,0,0,1.73-2.18,7.66,7.66,0,0,0,.63-3.19A7.57,7.57,0,0,0,60.82,205.17Z"/><path class="cls-3" d="M63.91,188.73A9,9,0,0,1,61,192.2a8.18,8.18,0,0,1-4.14,1.5l-.23,0v-4.18l.14,0a4.9,4.9,0,0,0,2.29-1,5.44,5.44,0,0,0,1.62-2,6.34,6.34,0,0,0,.6-2.79,6.44,6.44,0,0,0-.76-3.15,5.47,5.47,0,0,0-2.11-2.13,6.26,6.26,0,0,0-3.09-.76h0a6,6,0,0,0-3,.77,5.53,5.53,0,0,0-2.09,2.12,6.16,6.16,0,0,0-.77,3.09,7.53,7.53,0,0,0,.38,2.42,5.81,5.81,0,0,0,1.15,2,7.23,7.23,0,0,0,.74.72,6.88,6.88,0,0,0,.88.61v3.85l-16.25-1.39V175H40v13.27l8.93.86V189a6.25,6.25,0,0,1-2.2-2.63,8.75,8.75,0,0,1-.77-3.76,9.4,9.4,0,0,1,1.2-4.78,8.73,8.73,0,0,1,3.29-3.29,9.33,9.33,0,0,1,4.78-1.21h0a9.58,9.58,0,0,1,5,1.33,9.28,9.28,0,0,1,3.42,3.66,12.4,12.4,0,0,1,.18,10.38Z"/><path class="cls-3" d="M44,170v-4.26h3.18v-.08a5.49,5.49,0,0,1-2.6-2.17,6.3,6.3,0,0,1-1-3.51,6.7,6.7,0,0,1,.47-2.55,5.33,5.33,0,0,1,1.38-2,5.83,5.83,0,0,1,2.2-1.22v-.09a6.44,6.44,0,0,1-2.16-1.48,6.6,6.6,0,0,1-1.4-2.21,7.55,7.55,0,0,1-.49-2.72,7.12,7.12,0,0,1,.85-3.53,6,6,0,0,1,2.38-2.35,7.25,7.25,0,0,1,3.57-.84H64.49v4.26H51.39a4.45,4.45,0,0,0-3.1,1,3.79,3.79,0,0,0-1.1,2.92,4.25,4.25,0,0,0,.56,2.19,3.94,3.94,0,0,0,1.59,1.49,4.79,4.79,0,0,0,2.3.53H64.49v4.16H51.07a3.61,3.61,0,0,0-3.88,3.89,4.06,4.06,0,0,0,2.22,3.71,5,5,0,0,0,2.39.55H64.49V170Z"/><path class="cls-3" d="M44,136.94v-4.26h3.18v-.08a5.49,5.49,0,0,1-2.6-2.17,6.3,6.3,0,0,1-1-3.51,6.7,6.7,0,0,1,.47-2.55,5.33,5.33,0,0,1,1.38-2,5.68,5.68,0,0,1,2.2-1.21v-.1a6.17,6.17,0,0,1-2.16-1.48,6.56,6.56,0,0,1-1.4-2.2,7.61,7.61,0,0,1-.49-2.73,7.12,7.12,0,0,1,.85-3.53,6,6,0,0,1,2.38-2.35,7.25,7.25,0,0,1,3.57-.84H64.49v4.26H51.39a4.41,4.41,0,0,0-3.1,1,3.77,3.77,0,0,0-1.1,2.91,4.25,4.25,0,0,0,.56,2.19,3.94,3.94,0,0,0,1.59,1.49,4.79,4.79,0,0,0,2.3.54H64.49v4.16H51.07a3.59,3.59,0,0,0-3.88,3.88,4.06,4.06,0,0,0,2.22,3.71,5,5,0,0,0,2.39.55H64.49v4.26Z"/><line class="cls-1" x1="848.36" y1="132.28" x2="952.17" y2="132.28"/><line class="cls-1" x1="848.36" y1="106.55" x2="951.12" y2="106.55"/><line class="cls-2" x1="964.56" y1="106.81" x2="964.56" y2="132.3"/><rect class="cls-3" x="948.31" y="104.31" width="32.5" height="5"/><rect class="cls-3" x="948.31" y="129.8" width="32.5" height="5"/><path class="cls-3" d="M1020.47,170.38a8.69,8.69,0,0,1-2.79,3.56,7.84,7.84,0,0,1-4.09,1.51l-.24,0v-4.22l.22,0a4.24,4.24,0,0,0,3.06-1.85,8.05,8.05,0,0,0,.6-7.28,4.82,4.82,0,0,0-1.65-2,4.08,4.08,0,0,0-2.4-.73h0a4.38,4.38,0,0,0-3.66,1.62,7,7,0,0,0-1.28,4.44v3.43h-3.44v-3.3a6.49,6.49,0,0,0-.58-2.82,4.49,4.49,0,0,0-1.59-1.89,4.08,4.08,0,0,0-2.32-.68h0a4.5,4.5,0,0,0-2.33.58,3.64,3.64,0,0,0-1.45,1.7,6.74,6.74,0,0,0-.5,2.72,7.11,7.11,0,0,0,.51,2.78,4.61,4.61,0,0,0,1.46,1.93,4.48,4.48,0,0,0,2.27.86l.2,0v4.14l-.22,0a8.14,8.14,0,0,1-6.85-4.85,11.58,11.58,0,0,1-1-4.86,12,12,0,0,1,.93-4.9,7.6,7.6,0,0,1,2.56-3.24,6.47,6.47,0,0,1,3.81-1.15h0a6,6,0,0,1,3.1.77,6.58,6.58,0,0,1,2.22,2.11,8.35,8.35,0,0,1,1.24,3h.1a8,8,0,0,1,2-5,6.28,6.28,0,0,1,4.77-1.89h0a7.29,7.29,0,0,1,4.27,1.31,8.67,8.67,0,0,1,2.93,3.6,12.48,12.48,0,0,1,1.06,5.3A12.87,12.87,0,0,1,1020.47,170.38Z"/><path class="cls-3" d="M1019.7,146.26a11.1,11.1,0,0,1-5,3.7,21,21,0,0,1-7.73,1.29h0a21.05,21.05,0,0,1-7.74-1.29,11,11,0,0,1-5-3.7,10.31,10.31,0,0,1,0-11.55,11.19,11.19,0,0,1,5-3.71,21,21,0,0,1,7.74-1.3h0a21,21,0,0,1,7.73,1.3,11.26,11.26,0,0,1,5,3.71,10.26,10.26,0,0,1,0,11.55Zm-3.2-9.2a8.23,8.23,0,0,0-3.75-2.17,20,20,0,0,0-5.82-.75h0a19.85,19.85,0,0,0-5.81.75,8.24,8.24,0,0,0-3.74,2.17,5.13,5.13,0,0,0,0,6.85,8.14,8.14,0,0,0,3.74,2.16,19.87,19.87,0,0,0,5.81.74h0a20,20,0,0,0,5.82-.74,8.13,8.13,0,0,0,3.75-2.16,5.13,5.13,0,0,0,0-6.85Z"/><path class="cls-3" d="M1000.46,125.92v-4.26h3.19v-.08a5.49,5.49,0,0,1-2.6-2.17,6.3,6.3,0,0,1-1-3.51,6.7,6.7,0,0,1,.47-2.55,5.25,5.25,0,0,1,1.38-2,5.73,5.73,0,0,1,2.2-1.21v-.09a6.44,6.44,0,0,1-2.16-1.48,6.6,6.6,0,0,1-1.4-2.21,7.55,7.55,0,0,1-.49-2.72,7.19,7.19,0,0,1,.85-3.54,6,6,0,0,1,2.38-2.34,7.25,7.25,0,0,1,3.57-.84H1021v4.26H1007.9a4.44,4.44,0,0,0-3.09,1,3.75,3.75,0,0,0-1.1,2.91,4.16,4.16,0,0,0,.56,2.2,4.05,4.05,0,0,0,1.58,1.49,5,5,0,0,0,2.31.53H1021v4.16h-13.42a3.61,3.61,0,0,0-3.88,3.89,4.1,4.1,0,0,0,.59,2.2,4.16,4.16,0,0,0,1.63,1.51,5,5,0,0,0,2.38.55H1021v4.26Z"/><path class="cls-3" d="M1000.46,92.91V88.65h3.19v-.08a5.49,5.49,0,0,1-2.6-2.17,6.3,6.3,0,0,1-1-3.51,6.7,6.7,0,0,1,.47-2.55,5.22,5.22,0,0,1,1.38-2,5.61,5.61,0,0,1,2.2-1.21v-.1a6.17,6.17,0,0,1-2.16-1.48,6.56,6.56,0,0,1-1.4-2.2,7.61,7.61,0,0,1-.49-2.73,7.12,7.12,0,0,1,.85-3.53,6,6,0,0,1,2.38-2.35,7.25,7.25,0,0,1,3.57-.84H1021V68.2H1007.9a4.4,4.4,0,0,0-3.09,1,3.72,3.72,0,0,0-1.1,2.91,4.15,4.15,0,0,0,.56,2.19,4,4,0,0,0,1.58,1.49,4.86,4.86,0,0,0,2.31.53H1021V80.5h-13.42a3.61,3.61,0,0,0-3.88,3.89,4.1,4.1,0,0,0,.59,2.2,4.16,4.16,0,0,0,1.63,1.51,5,5,0,0,0,2.38.55H1021v4.26Z"/><path class="cls-7" d="M494,414.34H452.33V403q3.53-5.55,7.07-11.09l7.11-11.09,7.07-11.08q3.53-5.55,7.07-11.09t7.08-11.09h18.71v55.84H518v10.91H506.44v16.58H494Zm.12-10.68V357.87h-.35q-2.94,4.56-5.89,9.1T482,376q-2.91,4.53-5.89,9.1t-5.89,9.09l-5.86,9.1v.34Z"/></svg>