<svg id="Ebene_1" data-name="Ebene 1" xmlns="http://www.w3.org/2000/svg" viewBox="0 0 1583.01 667.91"><defs><style>.cls-1{fill:#68442a;}.cls-2,.cls-3{fill:none;stroke-miterlimit:10;stroke-width:5px;}.cls-2{stroke:#ccc;stroke-dasharray:12.43;}.cls-3{stroke:#454545;}.cls-4{fill:#454545;}.cls-5{fill:#f6f6f6;}</style></defs><rect class="cls-1" x="110.42" y="83.73" width="1400" height="550"/><line class="cls-2" x1="83.52" y1="493.07" x2="1548.02" y2="493.07"/><line class="cls-3" x1="83.29" y1="493.14" x2="83.29" y2="629.4"/><rect class="cls-4" x="67.04" y="490.64" width="32.5" height="5"/><rect class="cls-4" x="67.04" y="626.9" width="32.5" height="5"/><path class="cls-4" d="M34.17,618.68v.1l5.07,7.36H35.08l-5.27-7.42v-4.33H58v4.29Z"/><path class="cls-4" d="M57.46,603a8.71,8.71,0,0,1-2.8,3.56A7.84,7.84,0,0,1,50.57,608l-.23,0v-4.22l.21,0A4.23,4.23,0,0,0,53.61,602a7.07,7.07,0,0,0,1.2-4.26,7.14,7.14,0,0,0-.6-3,4.67,4.67,0,0,0-1.65-2,4.15,4.15,0,0,0-2.4-.73h0a4.39,4.39,0,0,0-3.66,1.63A7,7,0,0,0,45.18,598v3.44H41.74v-3.3a6.65,6.65,0,0,0-.57-2.83,4.64,4.64,0,0,0-1.59-1.89,4.14,4.14,0,0,0-2.33-.68h0a4.46,4.46,0,0,0-2.32.58,3.65,3.65,0,0,0-1.46,1.7,6.74,6.74,0,0,0-.5,2.72,7.11,7.11,0,0,0,.51,2.78,4.55,4.55,0,0,0,1.47,1.93,4.45,4.45,0,0,0,2.26.86l.2,0v4.14l-.22,0a8.11,8.11,0,0,1-6.84-4.85,11.43,11.43,0,0,1-1-4.86,12,12,0,0,1,.93-4.9,7.62,7.62,0,0,1,2.57-3.24,6.43,6.43,0,0,1,3.81-1.15h0a6.12,6.12,0,0,1,3.1.77A6.8,6.8,0,0,1,42,591.31a8.68,8.68,0,0,1,1.24,3.06h.09a8,8,0,0,1,2.06-5,6.21,6.21,0,0,1,4.76-1.9h0a7.32,7.32,0,0,1,4.28,1.31,8.75,8.75,0,0,1,2.93,3.6,12.64,12.64,0,0,1,1.05,5.31A12.82,12.82,0,0,1,57.46,603Z"/><path class="cls-4" d="M56.68,578.83a11.12,11.12,0,0,1-5,3.7,21.05,21.05,0,0,1-7.74,1.29h0a21,21,0,0,1-7.73-1.29,11.07,11.07,0,0,1-5-3.7,10.29,10.29,0,0,1,0-11.54,11.17,11.17,0,0,1,5-3.72,21,21,0,0,1,7.73-1.29h0a21.05,21.05,0,0,1,7.74,1.29,11.22,11.22,0,0,1,5,3.72,10.24,10.24,0,0,1,0,11.54Zm-3.2-9.2a8.31,8.31,0,0,0-3.75-2.17,20,20,0,0,0-5.82-.75h0a19.85,19.85,0,0,0-5.81.75,8.33,8.33,0,0,0-3.74,2.17,5.13,5.13,0,0,0,0,6.85,8.14,8.14,0,0,0,3.74,2.16,19.85,19.85,0,0,0,5.81.75h0a20,20,0,0,0,5.82-.75,8.13,8.13,0,0,0,3.75-2.16,5.13,5.13,0,0,0,0-6.85Z"/><path class="cls-4" d="M37.45,558.49v-4.26h3.18v-.08A5.49,5.49,0,0,1,38,552a6.29,6.29,0,0,1-1-3.51,6.7,6.7,0,0,1,.46-2.55,5.45,5.45,0,0,1,1.38-2,5.83,5.83,0,0,1,2.2-1.22v-.09a6.5,6.5,0,0,1-2.16-1.48,6.83,6.83,0,0,1-1.4-2.2,7.61,7.61,0,0,1-.48-2.73,7,7,0,0,1,.85-3.53,5.89,5.89,0,0,1,2.37-2.35,7.27,7.27,0,0,1,3.57-.84H58v4.26H44.89a4.41,4.41,0,0,0-3.1,1,3.75,3.75,0,0,0-1.1,2.91,4.25,4.25,0,0,0,.56,2.19,3.94,3.94,0,0,0,1.59,1.49,4.79,4.79,0,0,0,2.3.53H58v4.16H44.58A3.61,3.61,0,0,0,40.69,550a4.19,4.19,0,0,0,.59,2.2,4.12,4.12,0,0,0,1.64,1.51,5,5,0,0,0,2.38.55H58v4.26Z"/><path class="cls-4" d="M37.45,525.48v-4.26h3.18v-.08A5.49,5.49,0,0,1,38,519a6.29,6.29,0,0,1-1-3.51,6.7,6.7,0,0,1,.46-2.55,5.45,5.45,0,0,1,1.38-2,5.68,5.68,0,0,1,2.2-1.21v-.1a6.35,6.35,0,0,1-2.16-1.48,6.72,6.72,0,0,1-1.4-2.2,7.61,7.61,0,0,1-.48-2.73,7,7,0,0,1,.85-3.53,6,6,0,0,1,2.37-2.35,7.39,7.39,0,0,1,3.57-.84H58v4.26H44.89a4.41,4.41,0,0,0-3.1,1,3.78,3.78,0,0,0-1.1,2.91,4.25,4.25,0,0,0,.56,2.19,3.94,3.94,0,0,0,1.59,1.49,4.79,4.79,0,0,0,2.3.54H58v4.16H44.58A3.59,3.59,0,0,0,40.69,517a4,4,0,0,0,2.23,3.71,5,5,0,0,0,2.38.55H58v4.26Z"/><line class="cls-3" x1="83.29" y1="86" x2="83.29" y2="493.55"/><rect class="cls-4" x="67.04" y="83.5" width="32.5" height="5"/><rect class="cls-4" x="67.04" y="491.05" width="32.5" height="5"/><path class="cls-4" d="M52.39,344.56v14.1H48.56l-3.75-2.39-3.75-2.41-3.75-2.39-3.75-2.39-3.75-2.39v-6.33H48.7v-3.91h3.69v3.91H58v4.2Zm-3.62,0H33.29v.12l3.07,2,3.07,2,3.07,2,3.08,2,3.08,2h.11Z"/><path class="cls-4" d="M56.68,328.67a11.12,11.12,0,0,1-5,3.7,21.05,21.05,0,0,1-7.74,1.29h0a21,21,0,0,1-7.73-1.29,11.07,11.07,0,0,1-5-3.7,10.29,10.29,0,0,1,0-11.54,11.17,11.17,0,0,1,5-3.72,21,21,0,0,1,7.73-1.29h0a21.05,21.05,0,0,1,7.74,1.29,11.22,11.22,0,0,1,5,3.72,10.24,10.24,0,0,1,0,11.54Zm-3.2-9.2a8.31,8.31,0,0,0-3.75-2.17,20,20,0,0,0-5.82-.75h0a19.85,19.85,0,0,0-5.81.75,8.33,8.33,0,0,0-3.74,2.17,5.13,5.13,0,0,0,0,6.85,8.14,8.14,0,0,0,3.74,2.16,19.87,19.87,0,0,0,5.81.74h0a20,20,0,0,0,5.82-.74,8.13,8.13,0,0,0,3.75-2.16,5.13,5.13,0,0,0,0-6.85Z"/><path class="cls-4" d="M56.68,303.69a11.12,11.12,0,0,1-5,3.7,21.05,21.05,0,0,1-7.74,1.29h0a21,21,0,0,1-7.73-1.29,11.07,11.07,0,0,1-5-3.7,10.31,10.31,0,0,1,0-11.55,11.23,11.23,0,0,1,5-3.71,21,21,0,0,1,7.73-1.29h0a21.05,21.05,0,0,1,7.74,1.29,11.28,11.28,0,0,1,5,3.71,10.26,10.26,0,0,1,0,11.55Zm-3.2-9.2a8.31,8.31,0,0,0-3.75-2.17,20,20,0,0,0-5.82-.75h0a19.85,19.85,0,0,0-5.81.75,8.33,8.33,0,0,0-3.74,2.17,5.13,5.13,0,0,0,0,6.85,8.14,8.14,0,0,0,3.74,2.16,19.87,19.87,0,0,0,5.81.74h0a20,20,0,0,0,5.82-.74,8.13,8.13,0,0,0,3.75-2.16,5.13,5.13,0,0,0,0-6.85Z"/><path class="cls-4" d="M37.45,283.35v-4.26h3.18V279a5.49,5.49,0,0,1-2.6-2.17,6.29,6.29,0,0,1-1-3.51,6.7,6.7,0,0,1,.46-2.55,5.58,5.58,0,0,1,1.38-2,6,6,0,0,1,2.2-1.21v-.09A6.65,6.65,0,0,1,38.94,266a6.76,6.76,0,0,1-1.4-2.21,7.55,7.55,0,0,1-.48-2.72,7.08,7.08,0,0,1,.85-3.54,5.93,5.93,0,0,1,2.37-2.34,7.27,7.27,0,0,1,3.57-.84H58v4.26H44.89a4.45,4.45,0,0,0-3.1,1,3.78,3.78,0,0,0-1.1,2.91,4.26,4.26,0,0,0,.56,2.2,4,4,0,0,0,1.59,1.49,4.79,4.79,0,0,0,2.3.53H58v4.16H44.58a3.61,3.61,0,0,0-3.89,3.89,4.19,4.19,0,0,0,.59,2.2,4.12,4.12,0,0,0,1.64,1.51,5,5,0,0,0,2.38.55H58v4.26Z"/><path class="cls-4" d="M37.45,250.34v-4.26h3.18V246a5.49,5.49,0,0,1-2.6-2.17,6.29,6.29,0,0,1-1-3.51,6.7,6.7,0,0,1,.46-2.55,5.45,5.45,0,0,1,1.38-2,5.68,5.68,0,0,1,2.2-1.21v-.1A6.35,6.35,0,0,1,38.94,233a6.72,6.72,0,0,1-1.4-2.2,7.61,7.61,0,0,1-.48-2.73,7,7,0,0,1,.85-3.53,5.89,5.89,0,0,1,2.37-2.35,7.27,7.27,0,0,1,3.57-.84H58v4.26H44.89a4.41,4.41,0,0,0-3.1,1,3.77,3.77,0,0,0-1.1,2.91,4.25,4.25,0,0,0,.56,2.19,3.94,3.94,0,0,0,1.59,1.49,4.79,4.79,0,0,0,2.3.54H58v4.16H44.58a3.59,3.59,0,0,0-3.89,3.88,4,4,0,0,0,2.23,3.71,5,5,0,0,0,2.38.55H58v4.26Z"/><line class="cls-2" x1="1160.42" y1="47.6" x2="1160.42" y2="493.06"/><line class="cls-2" x1="810.42" y1="47.6" x2="810.42" y2="493.06"/><line class="cls-2" x1="460.42" y1="47.6" x2="460.42" y2="493.06"/><path class="cls-5" d="M794.39,383a26,26,0,0,1-10.69-8.38,23.69,23.69,0,0,1-4.51-12.27l-.06-.7h12.66l.05.64a12.66,12.66,0,0,0,5.54,9.17q4.95,3.6,12.8,3.6a21.57,21.57,0,0,0,9.06-1.78,14.46,14.46,0,0,0,6.06-5,12.38,12.38,0,0,0,2.17-7.2V361q0-7.15-4.86-11t-13.3-3.83H799V335.89h9.91a19.64,19.64,0,0,0,8.46-1.72,13.71,13.71,0,0,0,5.69-4.78,12.39,12.39,0,0,0,2-7v-.12a13.3,13.3,0,0,0-1.73-7,10.89,10.89,0,0,0-5.1-4.37,20.21,20.21,0,0,0-8.17-1.49,21.43,21.43,0,0,0-8.32,1.52,13.67,13.67,0,0,0-5.8,4.4,13.26,13.26,0,0,0-2.58,6.79l-.06.59H780.89l.06-.65a24.4,24.4,0,0,1,14.56-20.53,34.37,34.37,0,0,1,14.56-2.9,36.07,36.07,0,0,1,14.7,2.78,22.85,22.85,0,0,1,9.73,7.71A19.31,19.31,0,0,1,838,320.6v.12a18.23,18.23,0,0,1-2.32,9.29,19.82,19.82,0,0,1-6.32,6.67,25.87,25.87,0,0,1-9.17,3.73v.29q9.32.76,15,6.15t5.68,14.3v.11a21.87,21.87,0,0,1-3.93,12.84,26.12,26.12,0,0,1-10.81,8.79,37.71,37.71,0,0,1-15.91,3.16A38.54,38.54,0,0,1,794.39,383Z"/><line class="cls-3" x1="460.65" y1="49.94" x2="113.56" y2="49.94"/><rect class="cls-4" x="458.15" y="33.69" width="5" height="32.5"/><rect class="cls-4" x="111.06" y="33.69" width="5" height="32.5"/><path class="cls-4" d="M224.28,39.11a8.66,8.66,0,0,1-3.57-2.79,7.94,7.94,0,0,1-1.5-4.09l0-.24h4.22l0,.22a4.19,4.19,0,0,0,1.84,3,7,7,0,0,0,4.27,1.21,7.14,7.14,0,0,0,3-.6,4.88,4.88,0,0,0,2-1.65,4.14,4.14,0,0,0,.72-2.4v0a4.38,4.38,0,0,0-1.62-3.66,6.93,6.93,0,0,0-4.43-1.28h-3.44V23.4h3.3a6.43,6.43,0,0,0,2.82-.58,4.46,4.46,0,0,0,1.9-1.59,4.1,4.1,0,0,0,.67-2.32v0a4.4,4.4,0,0,0-.58-2.33,3.66,3.66,0,0,0-1.69-1.45,6.76,6.76,0,0,0-2.73-.5,7.09,7.09,0,0,0-2.77.51,4.71,4.71,0,0,0-1.94,1.46,4.58,4.58,0,0,0-.86,2.27V19h-4.15l0-.21A8.18,8.18,0,0,1,224.65,12a11.57,11.57,0,0,1,4.85-1,11.93,11.93,0,0,1,4.9.93,7.57,7.57,0,0,1,3.25,2.56,6.55,6.55,0,0,1,1.15,3.81v0a6.14,6.14,0,0,1-.77,3.1,6.67,6.67,0,0,1-2.11,2.22,8.33,8.33,0,0,1-3.06,1.24V25a7.94,7.94,0,0,1,5,2.05,6.28,6.28,0,0,1,1.89,4.77v0a7.28,7.28,0,0,1-1.3,4.27,8.76,8.76,0,0,1-3.61,2.93,12.44,12.44,0,0,1-5.3,1.06A12.82,12.82,0,0,1,224.28,39.11Z"/><path class="cls-4" d="M249,39.06a8.87,8.87,0,0,1-3.47-2.88,8.11,8.11,0,0,1-1.5-4.13l0-.23h4.18l0,.13a4.89,4.89,0,0,0,1,2.3,5.65,5.65,0,0,0,2,1.62,6.81,6.81,0,0,0,5.94-.17,5.4,5.4,0,0,0,2.13-2.11,6.19,6.19,0,0,0,.76-3.08v0a6,6,0,0,0-.77-3,5.67,5.67,0,0,0-2.12-2.09,6.26,6.26,0,0,0-3.09-.76,7.53,7.53,0,0,0-2.42.38,6,6,0,0,0-2,1.14,7.35,7.35,0,0,0-.72.75,6.24,6.24,0,0,0-.61.88h-3.85l1.39-16.25h16.81v3.69H249.46l-.86,8.92h.1a6.17,6.17,0,0,1,2.63-2.19,8.75,8.75,0,0,1,3.76-.78,9.33,9.33,0,0,1,4.78,1.21,8.66,8.66,0,0,1,3.29,3.29,9.4,9.4,0,0,1,1.2,4.78v0a9.57,9.57,0,0,1-1.32,5,9.24,9.24,0,0,1-3.67,3.42,12.33,12.33,0,0,1-10.37.17Z"/><path class="cls-4" d="M272.42,38.34a11.1,11.1,0,0,1-3.7-5,21,21,0,0,1-1.29-7.73v0a21.05,21.05,0,0,1,1.29-7.74,11.12,11.12,0,0,1,3.7-5,10.34,10.34,0,0,1,11.54,0,11.14,11.14,0,0,1,3.71,5,20.84,20.84,0,0,1,1.3,7.74v0a20.75,20.75,0,0,1-1.3,7.73,11.11,11.11,0,0,1-3.71,5,10.24,10.24,0,0,1-11.54,0Zm9.2-3.2a8.31,8.31,0,0,0,2.17-3.75,20,20,0,0,0,.75-5.82v0a19.85,19.85,0,0,0-.75-5.81A8.33,8.33,0,0,0,281.62,16a5.15,5.15,0,0,0-6.86,0,8.22,8.22,0,0,0-2.15,3.74,19.85,19.85,0,0,0-.75,5.81v0a20,20,0,0,0,.75,5.82,8.21,8.21,0,0,0,2.15,3.75,5.15,5.15,0,0,0,6.86,0Z"/><path class="cls-4" d="M292.76,19.1H297v3.19h.08a5.49,5.49,0,0,1,2.17-2.6,6.3,6.3,0,0,1,3.51-1,6.7,6.7,0,0,1,2.55.47,5.22,5.22,0,0,1,2,1.38,5.61,5.61,0,0,1,1.21,2.2h.1a6.3,6.3,0,0,1,1.48-2.16,6.56,6.56,0,0,1,2.2-1.4,7.61,7.61,0,0,1,2.73-.49,7.12,7.12,0,0,1,3.53.85,6,6,0,0,1,2.35,2.37,7.31,7.31,0,0,1,.84,3.58V39.65h-4.26V26.54a4.38,4.38,0,0,0-1-3.09,3.72,3.72,0,0,0-2.91-1.11,4.16,4.16,0,0,0-2.19.57,4,4,0,0,0-1.49,1.58,4.86,4.86,0,0,0-.53,2.31V39.65h-4.16V26.23a3.62,3.62,0,0,0-3.89-3.89,4.1,4.1,0,0,0-2.2.6,4.16,4.16,0,0,0-1.51,1.63A5,5,0,0,0,297,27v12.7h-4.26Z"/><path class="cls-4" d="M325.77,19.1H330v3.19h.08a5.53,5.53,0,0,1,2.16-2.6,6.36,6.36,0,0,1,3.52-1,6.7,6.7,0,0,1,2.55.47,5.3,5.3,0,0,1,2,1.38,5.61,5.61,0,0,1,1.21,2.2h.1a6.17,6.17,0,0,1,1.48-2.16,6.56,6.56,0,0,1,2.2-1.4,7.61,7.61,0,0,1,2.73-.49,7.12,7.12,0,0,1,3.53.85,6.08,6.08,0,0,1,2.35,2.37,7.31,7.31,0,0,1,.84,3.58V39.65h-4.26V26.54a4.38,4.38,0,0,0-1-3.09,3.74,3.74,0,0,0-2.91-1.11,4.22,4.22,0,0,0-2.2.57,4,4,0,0,0-1.48,1.58,4.86,4.86,0,0,0-.54,2.31V39.65h-4.16V26.23a3.61,3.61,0,0,0-3.88-3.89,4.09,4.09,0,0,0-3.71,2.23A5,5,0,0,0,330,27v12.7h-4.26Z"/></svg>