<svg id="Ebene_1" data-name="Ebene 1" xmlns="http://www.w3.org/2000/svg" viewBox="0 0 1468.98 812.26"><defs><style>.cls-1,.cls-2,.cls-6,.cls-7{fill:none;stroke-miterlimit:10;}.cls-1{stroke:gray;stroke-dasharray:19.18;}.cls-1,.cls-2{stroke-width:5px;}.cls-2,.cls-7{stroke:#454545;}.cls-3{fill:#454545;}.cls-4{fill:#68442a;}.cls-5{fill:#f6f6f6;}.cls-6{stroke:#ccc;stroke-width:3.97px;stroke-dasharray:9.86;}.cls-7{stroke-width:4.99px;}</style></defs><line class="cls-1" x1="1162.29" y1="78.61" x2="1380.56" y2="78.61"/><line class="cls-1" x1="1162.29" y1="58.63" x2="1377.4" y2="58.63"/><line class="cls-2" x1="1397.22" y1="58.94" x2="1397.22" y2="78.47"/><rect class="cls-3" x="1380.97" y="56.44" width="32.5" height="5"/><rect class="cls-3" x="1380.97" y="75.97" width="32.5" height="5"/><path class="cls-3" d="M1450.67,120.14l-10-9.94a38.85,38.85,0,0,0-3.13-2.87,8.8,8.8,0,0,0-2.21-1.35,6,6,0,0,0-2.08-.37h0a4.54,4.54,0,0,0-2.39.64,4.43,4.43,0,0,0-1.62,1.73,5.29,5.29,0,0,0-.58,2.54,6.2,6.2,0,0,0,.68,2.92,5.5,5.5,0,0,0,1.83,2,4.65,4.65,0,0,0,2.57.74l.13,0v4.14h-.13a8.06,8.06,0,0,1-4.5-1.29,8.8,8.8,0,0,1-3.08-3.52,11.08,11.08,0,0,1-1.12-5,10.72,10.72,0,0,1,1-4.82,8.17,8.17,0,0,1,2.84-3.27,7.31,7.31,0,0,1,4.09-1.18h0a8,8,0,0,1,3,.58,13.06,13.06,0,0,1,3.18,2q1.74,1.43,4.26,4l7.73,7.89-2.81-1.48h2.81l-1.26,1.48V100.85h3.69v19.29Z"/><path class="cls-3" d="M1453.09,91.85a8.9,8.9,0,0,1-2.88,3.48,8,8,0,0,1-4.13,1.49l-.24,0V92.66l.14,0a4.82,4.82,0,0,0,2.3-1,5.65,5.65,0,0,0,1.62-2,6.53,6.53,0,0,0,.59-2.8,6.32,6.32,0,0,0-.76-3.14,5.47,5.47,0,0,0-2.11-2.13,6.12,6.12,0,0,0-3.08-.76h0a6,6,0,0,0-3,.77,5.6,5.6,0,0,0-2.09,2.12,6.15,6.15,0,0,0-.76,3.09,7.53,7.53,0,0,0,.38,2.42,5.63,5.63,0,0,0,1.14,2,6.24,6.24,0,0,0,.74.71,6.65,6.65,0,0,0,.88.62v3.85L1425.49,95V78.13h3.69V91.39l8.93.86v-.09a6.32,6.32,0,0,1-2.2-2.63,8.93,8.93,0,0,1-.77-3.76,9.46,9.46,0,0,1,1.2-4.79,8.8,8.8,0,0,1,3.29-3.29,9.46,9.46,0,0,1,4.79-1.2h0a9.58,9.58,0,0,1,5,1.33,9.33,9.33,0,0,1,3.41,3.66,11.24,11.24,0,0,1,1.24,5.36A11.39,11.39,0,0,1,1453.09,91.85Z"/><path class="cls-3" d="M1433.13,73.07V68.82h3.18v-.08a5.53,5.53,0,0,1-2.59-2.17,6.23,6.23,0,0,1-1-3.52,6.68,6.68,0,0,1,.47-2.54,5.35,5.35,0,0,1,1.37-2,5.81,5.81,0,0,1,2.2-1.21v-.1a6.47,6.47,0,0,1-2.16-1.47,6.58,6.58,0,0,1-1.39-2.21,7.38,7.38,0,0,1-.49-2.72,7.05,7.05,0,0,1,.85-3.54A6.06,6.06,0,0,1,1436,45a7.31,7.31,0,0,1,3.58-.84h14.14v4.26h-13.11a4.41,4.41,0,0,0-3.09,1,3.75,3.75,0,0,0-1.11,2.91,4.17,4.17,0,0,0,.57,2.2,3.89,3.89,0,0,0,1.58,1.48,4.86,4.86,0,0,0,2.31.54h12.85v4.16h-13.42a3.62,3.62,0,0,0-3.89,3.89,4.1,4.1,0,0,0,.6,2.2,4.16,4.16,0,0,0,1.63,1.51,5.06,5.06,0,0,0,2.38.55h12.7v4.25Z"/><path class="cls-3" d="M1433.13,40.07V35.81h3.18v-.08a5.47,5.47,0,0,1-2.59-2.17,6.22,6.22,0,0,1-1-3.51,6.7,6.7,0,0,1,.47-2.55,5.31,5.31,0,0,1,1.37-2,5.83,5.83,0,0,1,2.2-1.22v-.09a6.5,6.5,0,0,1-2.16-1.48,6.64,6.64,0,0,1-1.39-2.2,7.4,7.4,0,0,1-.49-2.73,7,7,0,0,1,.85-3.53,6,6,0,0,1,2.37-2.35,7.31,7.31,0,0,1,3.58-.84h14.14v4.26h-13.11a4.36,4.36,0,0,0-3.09,1,3.72,3.72,0,0,0-1.11,2.91,4.16,4.16,0,0,0,.57,2.19,3.92,3.92,0,0,0,1.58,1.49,4.86,4.86,0,0,0,2.31.53h12.85v4.16h-13.42a3.62,3.62,0,0,0-3.89,3.89,4.1,4.1,0,0,0,.6,2.2,4.16,4.16,0,0,0,1.63,1.51,5,5,0,0,0,2.38.55h12.7v4.26Z"/><rect class="cls-4" x="127.14" y="57.82" width="1034.75" height="660.27"/><path class="cls-5" d="M630.57,411.76a26.51,26.51,0,0,1-10.27-8.52A24.16,24.16,0,0,1,615.88,391l-.06-.69h12.36l.06.4a14.49,14.49,0,0,0,2.91,6.78,16.34,16.34,0,0,0,6,4.8,20.28,20.28,0,0,0,17.55-.49,16.06,16.06,0,0,0,6.29-6.24,18.14,18.14,0,0,0,2.26-9.12v-.12a17.52,17.52,0,0,0-2.29-9,16.49,16.49,0,0,0-6.26-6.17,18.14,18.14,0,0,0-9.12-2.26,22.09,22.09,0,0,0-7.17,1.13,17.09,17.09,0,0,0-5.83,3.38,19.94,19.94,0,0,0-2.1,2.19,18.92,18.92,0,0,0-1.82,2.6H617.32l4.1-48h49.72v10.91H631.93l-2.54,26.39h.29a18.35,18.35,0,0,1,7.77-6.5,26.18,26.18,0,0,1,11.11-2.28,28,28,0,0,1,14.15,3.55,26,26,0,0,1,9.73,9.73A28,28,0,0,1,676,386.12v.12a28.08,28.08,0,0,1-3.93,14.89,27.26,27.26,0,0,1-10.82,10.11,36.53,36.53,0,0,1-30.67.52Z"/><line class="cls-6" x1="815.02" y1="45.32" x2="815.02" y2="734.95"/><line class="cls-6" x1="435.32" y1="45.32" x2="435.32" y2="734.95"/><line class="cls-6" x1="1181.2" y1="253.2" x2="440.21" y2="253.2"/><line class="cls-6" x1="1170.81" y1="119.82" x2="817.89" y2="119.82"/><line class="cls-6" x1="1170.81" y1="83.86" x2="817.89" y2="83.86"/><line class="cls-6" x1="816.08" y1="408.07" x2="441.41" y2="408.07"/><line class="cls-6" x1="815.68" y1="561.35" x2="439.06" y2="561.35"/><line class="cls-2" x1="435.06" y1="740.28" x2="129.72" y2="740.28"/><rect class="cls-3" x="432.56" y="724.03" width="5" height="32.5"/><rect class="cls-3" x="127.22" y="724.03" width="5" height="32.5"/><path class="cls-3" d="M220.6,783.2a8.63,8.63,0,0,1-3.56-2.8,7.82,7.82,0,0,1-1.5-4.09l0-.23h4.21l0,.21a4.23,4.23,0,0,0,1.85,3.06,7.08,7.08,0,0,0,4.27,1.2,7.25,7.25,0,0,0,3-.59,4.86,4.86,0,0,0,2-1.66,4.14,4.14,0,0,0,.72-2.4v0A4.4,4.4,0,0,0,230,772.2a7,7,0,0,0-4.44-1.28h-3.43v-3.44h3.3a6.6,6.6,0,0,0,2.82-.57,4.56,4.56,0,0,0,1.89-1.59,4.11,4.11,0,0,0,.68-2.33v0a4.37,4.37,0,0,0-.58-2.32,3.66,3.66,0,0,0-1.7-1.46,6.71,6.71,0,0,0-2.72-.49,7.33,7.33,0,0,0-2.78.5,4.61,4.61,0,0,0-1.93,1.47,4.45,4.45,0,0,0-.86,2.26l0,.2H216.1l0-.22a8.44,8.44,0,0,1,1.5-4.12,8.26,8.26,0,0,1,3.35-2.72,11.43,11.43,0,0,1,4.86-1,12,12,0,0,1,4.9.93,7.62,7.62,0,0,1,3.24,2.57,6.43,6.43,0,0,1,1.15,3.81v0a6,6,0,0,1-.77,3.09,6.51,6.51,0,0,1-2.11,2.23,8.71,8.71,0,0,1-3.05,1.24v.1a8,8,0,0,1,5,2,6.26,6.26,0,0,1,1.89,4.76v0a7.25,7.25,0,0,1-1.31,4.28,8.67,8.67,0,0,1-3.6,2.93,12.63,12.63,0,0,1-5.3,1.05A12.87,12.87,0,0,1,220.6,783.2Z"/><path class="cls-3" d="M254.32,759.34v-.1H239.44v-3.69h19.22v3.81l-12.27,24.37H241.8Z"/><path class="cls-3" d="M266.66,782.43a11.2,11.2,0,0,1-3.7-5,21.05,21.05,0,0,1-1.29-7.74v0a21,21,0,0,1,1.29-7.73,11.12,11.12,0,0,1,3.7-5,10.29,10.29,0,0,1,11.54,0,11.14,11.14,0,0,1,3.71,5,20.75,20.75,0,0,1,1.3,7.73v0a20.84,20.84,0,0,1-1.3,7.74,11.22,11.22,0,0,1-3.71,5,10.29,10.29,0,0,1-11.54,0Zm9.2-3.21a8.41,8.41,0,0,0,2.17-3.75,19.87,19.87,0,0,0,.75-5.82v0a19.85,19.85,0,0,0-.75-5.81,8.48,8.48,0,0,0-2.17-3.74,5.15,5.15,0,0,0-6.86,0,8.38,8.38,0,0,0-2.16,3.74,20.22,20.22,0,0,0-.74,5.81v0a20.24,20.24,0,0,0,.74,5.82,8.3,8.3,0,0,0,2.16,3.75,5.15,5.15,0,0,0,6.86,0Z"/><path class="cls-3" d="M287,763.19h4.26v3.18h.08a5.58,5.58,0,0,1,2.16-2.6,6.35,6.35,0,0,1,3.52-1,6.51,6.51,0,0,1,2.55.47,5.39,5.39,0,0,1,2,1.37,5.68,5.68,0,0,1,1.21,2.2h.1a6.47,6.47,0,0,1,1.47-2.16,6.68,6.68,0,0,1,2.21-1.39,7.4,7.4,0,0,1,2.73-.49,7,7,0,0,1,3.53.85,5.87,5.87,0,0,1,2.34,2.37,7.3,7.3,0,0,1,.84,3.57v14.14h-4.25v-13.1a4.41,4.41,0,0,0-1-3.1,3.78,3.78,0,0,0-2.91-1.1,4.22,4.22,0,0,0-2.2.57,4,4,0,0,0-1.48,1.58,4.82,4.82,0,0,0-.54,2.3v12.85H299.4V770.32a3.59,3.59,0,0,0-3.88-3.89,4.08,4.08,0,0,0-2.2.6,4.12,4.12,0,0,0-1.52,1.63,5.06,5.06,0,0,0-.54,2.38v12.69H287Z"/><path class="cls-3" d="M320,763.19h4.26v3.18h.07a5.66,5.66,0,0,1,2.17-2.6,6.33,6.33,0,0,1,3.52-1,6.58,6.58,0,0,1,2.55.47,5.39,5.39,0,0,1,2,1.37,5.68,5.68,0,0,1,1.21,2.2h.1a6.47,6.47,0,0,1,1.47-2.16,6.58,6.58,0,0,1,2.21-1.39,7.38,7.38,0,0,1,2.72-.49,7,7,0,0,1,3.54.85,5.93,5.93,0,0,1,2.34,2.37,7.3,7.3,0,0,1,.84,3.57v14.14h-4.26v-13.1a4.4,4.4,0,0,0-1-3.1,3.78,3.78,0,0,0-2.91-1.1,4.19,4.19,0,0,0-2.2.57,4,4,0,0,0-1.48,1.58,4.82,4.82,0,0,0-.54,2.3v12.85h-4.16V770.32a3.6,3.6,0,0,0-3.89-3.89,4,4,0,0,0-2.19.6,4.12,4.12,0,0,0-1.52,1.63,5.06,5.06,0,0,0-.54,2.38v12.69H320Z"/><line class="cls-2" x1="814.95" y1="740.28" x2="435.59" y2="740.28"/><rect class="cls-3" x="812.45" y="724.03" width="5" height="32.5"/><rect class="cls-3" x="433.09" y="724.03" width="5" height="32.5"/><path class="cls-3" d="M570.48,778.13h-14.1V774.3q1.18-1.87,2.39-3.75l2.41-3.75,2.39-3.75q1.18-1.87,2.39-3.75t2.39-3.75h6.33v18.89h3.91v3.69h-3.91v5.6h-4.2Zm0-3.61V759h-.12c-.66,1-1.32,2.05-2,3.07l-2,3.07-2,3.08c-.67,1-1.34,2-2,3.07l-2,3.08v.12Z"/><path class="cls-3" d="M586.37,782.43a11.2,11.2,0,0,1-3.7-5,21.05,21.05,0,0,1-1.29-7.74v0a21,21,0,0,1,1.29-7.73,11.12,11.12,0,0,1,3.7-5,10.29,10.29,0,0,1,11.54,0,11.14,11.14,0,0,1,3.71,5,20.75,20.75,0,0,1,1.3,7.73v0a20.84,20.84,0,0,1-1.3,7.74,11.22,11.22,0,0,1-3.71,5,10.29,10.29,0,0,1-11.54,0Zm9.2-3.21a8.31,8.31,0,0,0,2.17-3.75,19.87,19.87,0,0,0,.75-5.82v0a19.85,19.85,0,0,0-.75-5.81,8.39,8.39,0,0,0-2.17-3.74,5.15,5.15,0,0,0-6.86,0,8.27,8.27,0,0,0-2.15,3.74,19.85,19.85,0,0,0-.75,5.81v0a19.87,19.87,0,0,0,.75,5.82,8.21,8.21,0,0,0,2.15,3.75,5.15,5.15,0,0,0,6.86,0Z"/><path class="cls-3" d="M611.35,782.43a11.2,11.2,0,0,1-3.7-5,21.05,21.05,0,0,1-1.29-7.74v0a21,21,0,0,1,1.29-7.73,11.12,11.12,0,0,1,3.7-5,10.29,10.29,0,0,1,11.54,0,11.22,11.22,0,0,1,3.72,5,21,21,0,0,1,1.29,7.73v0a21.05,21.05,0,0,1-1.29,7.74,11.31,11.31,0,0,1-3.72,5,10.29,10.29,0,0,1-11.54,0Zm9.2-3.21a8.31,8.31,0,0,0,2.17-3.75,19.87,19.87,0,0,0,.75-5.82v0a19.85,19.85,0,0,0-.75-5.81,8.39,8.39,0,0,0-2.17-3.74,5.13,5.13,0,0,0-6.85,0,8.2,8.2,0,0,0-2.16,3.74,19.85,19.85,0,0,0-.75,5.81v0a19.87,19.87,0,0,0,.75,5.82,8.13,8.13,0,0,0,2.16,3.75,5.13,5.13,0,0,0,6.85,0Z"/><path class="cls-3" d="M631.69,763.19H636v3.18H636a5.54,5.54,0,0,1,2.17-2.6,6.29,6.29,0,0,1,3.51-1,6.51,6.51,0,0,1,2.55.47,5.31,5.31,0,0,1,2,1.37,5.83,5.83,0,0,1,1.22,2.2h.09a6.46,6.46,0,0,1,3.68-3.55,7.4,7.4,0,0,1,2.73-.49,7,7,0,0,1,3.53.85,5.89,5.89,0,0,1,2.35,2.37,7.3,7.3,0,0,1,.84,3.57v14.14H656.4v-13.1a4.41,4.41,0,0,0-1-3.1,3.75,3.75,0,0,0-2.91-1.1,4.16,4.16,0,0,0-2.19.57,4,4,0,0,0-1.49,1.58,4.82,4.82,0,0,0-.53,2.3v12.85H644.1V770.32a3.61,3.61,0,0,0-3.89-3.89,4.09,4.09,0,0,0-3.71,2.23A5,5,0,0,0,636,771v12.69h-4.26Z"/><path class="cls-3" d="M664.7,763.19H669v3.18H669a5.58,5.58,0,0,1,2.16-2.6,6.35,6.35,0,0,1,3.52-1,6.51,6.51,0,0,1,2.55.47,5.31,5.31,0,0,1,2,1.37,5.68,5.68,0,0,1,1.21,2.2h.1a6.35,6.35,0,0,1,1.48-2.16,6.54,6.54,0,0,1,2.2-1.39,7.4,7.4,0,0,1,2.73-.49,7,7,0,0,1,3.53.85,6,6,0,0,1,2.35,2.37,7.3,7.3,0,0,1,.84,3.57v14.14h-4.26v-13.1a4.41,4.41,0,0,0-1-3.1,3.78,3.78,0,0,0-2.91-1.1,4.16,4.16,0,0,0-2.19.57,3.92,3.92,0,0,0-1.49,1.58,4.82,4.82,0,0,0-.54,2.3v12.85H677.1V770.32a3.59,3.59,0,0,0-3.88-3.89,4.08,4.08,0,0,0-2.2.6,4,4,0,0,0-1.51,1.63A5,5,0,0,0,669,771v12.69H664.7Z"/><line class="cls-2" x1="1159.69" y1="740.28" x2="814.67" y2="740.28"/><rect class="cls-3" x="1157.19" y="724.03" width="5" height="32.5"/><rect class="cls-3" x="812.17" y="724.03" width="5" height="32.5"/><path class="cls-3" d="M923.76,783.2a8.63,8.63,0,0,1-3.56-2.8,7.84,7.84,0,0,1-1.51-4.09l0-.23h4.22l0,.21a4.23,4.23,0,0,0,1.85,3.06,7.07,7.07,0,0,0,4.26,1.2,7.26,7.26,0,0,0,3-.59,4.77,4.77,0,0,0,2-1.66,4.15,4.15,0,0,0,.73-2.4v0a4.4,4.4,0,0,0-1.63-3.66,7,7,0,0,0-4.43-1.28h-3.44v-3.44h3.3a6.65,6.65,0,0,0,2.83-.57,4.56,4.56,0,0,0,1.89-1.59A4.11,4.11,0,0,0,934,763v0a4.46,4.46,0,0,0-.57-2.32,3.71,3.71,0,0,0-1.7-1.46,6.76,6.76,0,0,0-2.73-.49,7.28,7.28,0,0,0-2.77.5,4.55,4.55,0,0,0-1.93,1.47,4.45,4.45,0,0,0-.86,2.26l0,.2h-4.14l0-.22a8.11,8.11,0,0,1,4.85-6.84,11.41,11.41,0,0,1,4.85-1,12,12,0,0,1,4.91.93,7.62,7.62,0,0,1,3.24,2.57,6.43,6.43,0,0,1,1.15,3.81v0a6.11,6.11,0,0,1-.77,3.09,6.6,6.6,0,0,1-2.11,2.23,8.68,8.68,0,0,1-3.06,1.24v.1a7.94,7.94,0,0,1,5,2,6.23,6.23,0,0,1,1.9,4.76v0a7.32,7.32,0,0,1-1.31,4.28,8.67,8.67,0,0,1-3.6,2.93A12.64,12.64,0,0,1,929,784.2,12.82,12.82,0,0,1,923.76,783.2Z"/><path class="cls-3" d="M949.81,783.41a9.79,9.79,0,0,1-3.55-2.48,11.74,11.74,0,0,1-2.47-4.37,20.6,20.6,0,0,1-.9-6.5v0a21.74,21.74,0,0,1,1.34-8,11,11,0,0,1,3.87-5.12,10.25,10.25,0,0,1,6-1.77,11.21,11.21,0,0,1,4.54.89,9.08,9.08,0,0,1,3.37,2.49,8.4,8.4,0,0,1,1.8,3.69l0,.24h-4.4l-.08-.2a4.78,4.78,0,0,0-1.11-1.82,5,5,0,0,0-1.8-1.2,6.42,6.42,0,0,0-2.4-.42,5.5,5.5,0,0,0-3.91,1.41,8.47,8.47,0,0,0-2.25,3.72,18.5,18.5,0,0,0-.81,5.13c0,.14,0,.29,0,.44v.46l.84,4.64a5.89,5.89,0,0,0,6,6,5.92,5.92,0,0,0,3-.78,5.83,5.83,0,0,0,2.16-2.11,5.56,5.56,0,0,0,.8-3v0a5.82,5.82,0,0,0-.76-3,5.43,5.43,0,0,0-2.11-2.06,6.16,6.16,0,0,0-3-.76,6.31,6.31,0,0,0-3.07.75,5.51,5.51,0,0,0-3,5h-1.17v-4.78h.41a7,7,0,0,1,1.68-2.3,8.51,8.51,0,0,1,2.65-1.63,10.25,10.25,0,0,1,8.27.6,8.76,8.76,0,0,1,3.29,3.3,9.43,9.43,0,0,1,1.2,4.76v0a9.25,9.25,0,0,1-5,8.41,11,11,0,0,1-5.3,1.25A11.16,11.16,0,0,1,949.81,783.41Z"/><path class="cls-3" d="M973.08,782.43a11.22,11.22,0,0,1-3.71-5,21.27,21.27,0,0,1-1.28-7.74v0a21.18,21.18,0,0,1,1.28-7.73,11.14,11.14,0,0,1,3.71-5,10.29,10.29,0,0,1,11.54,0,11.21,11.21,0,0,1,3.71,5,20.75,20.75,0,0,1,1.3,7.73v0a20.84,20.84,0,0,1-1.3,7.74,11.29,11.29,0,0,1-3.71,5,10.29,10.29,0,0,1-11.54,0Zm9.2-3.21a8.3,8.3,0,0,0,2.16-3.75,19.52,19.52,0,0,0,.76-5.82v0a19.49,19.49,0,0,0-.76-5.81,8.38,8.38,0,0,0-2.16-3.74,5.15,5.15,0,0,0-6.86,0,8.38,8.38,0,0,0-2.16,3.74,20.22,20.22,0,0,0-.74,5.81v0a20.24,20.24,0,0,0,.74,5.82,8.3,8.3,0,0,0,2.16,3.75,5.15,5.15,0,0,0,6.86,0Z"/><path class="cls-3" d="M993.42,763.19h4.26v3.18h.07a5.66,5.66,0,0,1,2.17-2.6,6.33,6.33,0,0,1,3.52-1,6.58,6.58,0,0,1,2.55.47,5.39,5.39,0,0,1,2,1.37,5.68,5.68,0,0,1,1.21,2.2h.1a6.47,6.47,0,0,1,1.47-2.16,6.58,6.58,0,0,1,2.21-1.39,7.38,7.38,0,0,1,2.72-.49,7,7,0,0,1,3.54.85,5.93,5.93,0,0,1,2.34,2.37,7.3,7.3,0,0,1,.84,3.57v14.14h-4.26v-13.1a4.4,4.4,0,0,0-1-3.1,3.78,3.78,0,0,0-2.91-1.1,4.19,4.19,0,0,0-2.2.57,4,4,0,0,0-1.48,1.58,4.82,4.82,0,0,0-.54,2.3v12.85h-4.16V770.32a3.6,3.6,0,0,0-3.89-3.89,4,4,0,0,0-2.19.6,4.12,4.12,0,0,0-1.52,1.63,5.06,5.06,0,0,0-.54,2.38v12.69h-4.26Z"/><path class="cls-3" d="M1026.43,763.19h4.25v3.18h.08a5.6,5.6,0,0,1,2.17-2.6,6.3,6.3,0,0,1,3.52-1,6.49,6.49,0,0,1,2.54.47,5.35,5.35,0,0,1,2,1.37,5.81,5.81,0,0,1,1.21,2.2h.1a6.47,6.47,0,0,1,1.47-2.16,6.58,6.58,0,0,1,2.21-1.39,7.38,7.38,0,0,1,2.72-.49,7.05,7.05,0,0,1,3.54.85,5.93,5.93,0,0,1,2.34,2.37,7.3,7.3,0,0,1,.84,3.57v14.14h-4.26v-13.1a4.45,4.45,0,0,0-1-3.1,3.78,3.78,0,0,0-2.91-1.1,4.17,4.17,0,0,0-2.2.57,3.89,3.89,0,0,0-1.48,1.58,4.82,4.82,0,0,0-.54,2.3v12.85h-4.16V770.32a3.61,3.61,0,0,0-3.89-3.89,4.1,4.1,0,0,0-2.2.6,4.17,4.17,0,0,0-1.51,1.63,5.06,5.06,0,0,0-.55,2.38v12.69h-4.25Z"/><line class="cls-7" x1="1186.12" y1="253.39" x2="1186.12" y2="713.36"/><rect class="cls-3" x="1169.9" y="250.89" width="32.46" height="4.99"/><rect class="cls-3" x="1169.9" y="710.86" width="32.46" height="4.99"/><path class="cls-3" d="M1236.83,536.44v14.1H1233l-3.74-2.39-3.74-2.4-3.74-2.4-3.74-2.39-3.74-2.39v-6.33h18.83v-3.91h3.68v3.91h5.59v4.2Zm-3.6,0h-15.44v.12l3.06,2,3.06,2,3.07,2c1,.68,2,1.34,3.07,2l3.06,2h.12Z"/><path class="cls-3" d="M1218.1,511.34h-.1v14.88h-3.68V507h3.8l24.3,12.26v4.59Z"/><path class="cls-3" d="M1241.12,499a11.12,11.12,0,0,1-5,3.7,20.81,20.81,0,0,1-7.71,1.29h0a20.89,20.89,0,0,1-7.71-1.29,11.09,11.09,0,0,1-5-3.7,10.35,10.35,0,0,1,0-11.55,11.25,11.25,0,0,1,5-3.71,20.89,20.89,0,0,1,7.71-1.29h0a20.81,20.81,0,0,1,7.71,1.29,11.28,11.28,0,0,1,5,3.71,10.31,10.31,0,0,1,0,11.55Zm-3.19-9.2a8.3,8.3,0,0,0-3.74-2.17,19.9,19.9,0,0,0-5.81-.75h0a19.71,19.71,0,0,0-5.79.75,8.2,8.2,0,0,0-3.73,2.17,5.13,5.13,0,0,0,0,6.85,8.11,8.11,0,0,0,3.73,2.16,19.73,19.73,0,0,0,5.79.74h0a19.92,19.92,0,0,0,5.81-.74,8.2,8.2,0,0,0,3.74-2.16,5.16,5.16,0,0,0,0-6.85Z"/><path class="cls-3" d="M1221.93,478.67v-4.26h3.18v-.08a5.47,5.47,0,0,1-2.59-2.17,6.3,6.3,0,0,1-1-3.51,6.7,6.7,0,0,1,.47-2.55,5.43,5.43,0,0,1,1.37-2,5.81,5.81,0,0,1,2.2-1.21v-.09a6.65,6.65,0,0,1-2.16-1.48,6.74,6.74,0,0,1-1.39-2.21,7.55,7.55,0,0,1-.49-2.72,7.19,7.19,0,0,1,.85-3.54,6.06,6.06,0,0,1,2.37-2.34,7.24,7.24,0,0,1,3.56-.84h14.1V454h-13.06a4.41,4.41,0,0,0-3.09,1,3.75,3.75,0,0,0-1.1,2.91,4.26,4.26,0,0,0,.56,2.2,4,4,0,0,0,1.58,1.49,4.91,4.91,0,0,0,2.3.53h12.81v4.16H1229a3.61,3.61,0,0,0-3.87,3.89,4.06,4.06,0,0,0,2.22,3.71,4.93,4.93,0,0,0,2.37.55h12.66v4.26Z"/><path class="cls-3" d="M1221.93,445.66V441.4h3.18v-.08a5.47,5.47,0,0,1-2.59-2.17,6.3,6.3,0,0,1-1-3.51,6.7,6.7,0,0,1,.47-2.55,5.31,5.31,0,0,1,1.37-2,5.68,5.68,0,0,1,2.2-1.21v-.1a6.35,6.35,0,0,1-2.16-1.48,6.69,6.69,0,0,1-1.39-2.2,7.61,7.61,0,0,1-.49-2.73,7.12,7.12,0,0,1,.85-3.53,6,6,0,0,1,2.37-2.35,7.24,7.24,0,0,1,3.56-.84h14.1V421h-13.06a4.36,4.36,0,0,0-3.09,1,3.72,3.72,0,0,0-1.1,2.91,4.25,4.25,0,0,0,.56,2.19,3.92,3.92,0,0,0,1.58,1.49,4.79,4.79,0,0,0,2.3.54h12.81v4.16H1229a3.59,3.59,0,0,0-3.87,3.88,4.06,4.06,0,0,0,2.22,3.71,4.93,4.93,0,0,0,2.37.55h12.66v4.26Z"/><line class="cls-2" x1="1186.03" y1="124.18" x2="1186.03" y2="247.84"/><rect class="cls-3" x="1169.78" y="121.68" width="32.5" height="5"/><rect class="cls-3" x="1169.78" y="245.34" width="32.5" height="5"/><path class="cls-3" d="M1218.66,243.42v.1l5.07,7.36h-4.16l-5.27-7.42v-4.34h28.18v4.3Z"/><path class="cls-3" d="M1242,227.69a8.63,8.63,0,0,1-2.8,3.56,7.84,7.84,0,0,1-4.09,1.51l-.23,0v-4.22l.21,0a4.23,4.23,0,0,0,3.06-1.85,8.05,8.05,0,0,0,.6-7.28,4.76,4.76,0,0,0-1.65-2,4.14,4.14,0,0,0-2.4-.72h0a4.4,4.4,0,0,0-3.66,1.62,7,7,0,0,0-1.28,4.44v3.43h-3.44v-3.3a6.64,6.64,0,0,0-.57-2.82,4.56,4.56,0,0,0-1.59-1.89,4.11,4.11,0,0,0-2.33-.68h0a4.46,4.46,0,0,0-2.32.58,3.66,3.66,0,0,0-1.46,1.7,6.75,6.75,0,0,0-.49,2.72,7.29,7.29,0,0,0,.5,2.78,4.55,4.55,0,0,0,1.47,1.93,4.45,4.45,0,0,0,2.26.86l.2,0v4.14l-.22,0a8.43,8.43,0,0,1-4.12-1.49,8.29,8.29,0,0,1-2.72-3.36,11.43,11.43,0,0,1-1-4.86,12,12,0,0,1,.93-4.9,7.62,7.62,0,0,1,2.57-3.24,6.43,6.43,0,0,1,3.81-1.15h0a6,6,0,0,1,3.09.77,6.6,6.6,0,0,1,2.23,2.11,8.71,8.71,0,0,1,1.24,3h.1a8,8,0,0,1,2.05-5,6.26,6.26,0,0,1,4.76-1.89h0a7.32,7.32,0,0,1,4.28,1.31,8.67,8.67,0,0,1,2.93,3.6,12.63,12.63,0,0,1,1,5.3A12.87,12.87,0,0,1,1242,227.69Z"/><path class="cls-3" d="M1241.18,203.57a11.2,11.2,0,0,1-5,3.7,21.05,21.05,0,0,1-7.74,1.29h0a21,21,0,0,1-7.73-1.29,11.07,11.07,0,0,1-5-3.7,10.31,10.31,0,0,1,0-11.55,11.23,11.23,0,0,1,5-3.71,21,21,0,0,1,7.73-1.3h0a21,21,0,0,1,7.74,1.3,11.37,11.37,0,0,1,5,3.71,10.31,10.31,0,0,1,0,11.55Zm-3.21-9.2a8.23,8.23,0,0,0-3.75-2.17,19.87,19.87,0,0,0-5.82-.75h0a19.85,19.85,0,0,0-5.81.75,8.3,8.3,0,0,0-3.74,2.17,5.13,5.13,0,0,0,0,6.85,8.2,8.2,0,0,0,3.74,2.16,19.87,19.87,0,0,0,5.81.74h0a19.9,19.9,0,0,0,5.82-.74,8.13,8.13,0,0,0,3.75-2.16,5.13,5.13,0,0,0,0-6.85Z"/><path class="cls-3" d="M1221.94,183.22V179h3.18v-.08a5.6,5.6,0,0,1-2.6-2.17,6.29,6.29,0,0,1-1-3.51,6.51,6.51,0,0,1,.47-2.55,5.35,5.35,0,0,1,1.37-2,5.81,5.81,0,0,1,2.2-1.21v-.1a6.47,6.47,0,0,1-2.16-1.47,6.58,6.58,0,0,1-1.39-2.21,7.35,7.35,0,0,1-.49-2.72,7.08,7.08,0,0,1,.85-3.54,5.93,5.93,0,0,1,2.37-2.34,7.3,7.3,0,0,1,3.57-.84h14.14v4.26h-13.1a4.45,4.45,0,0,0-3.1,1,3.78,3.78,0,0,0-1.1,2.91,4.17,4.17,0,0,0,.57,2.2,3.92,3.92,0,0,0,1.58,1.49,4.93,4.93,0,0,0,2.3.53h12.85v4.16h-13.41a3.61,3.61,0,0,0-3.89,3.89,4.09,4.09,0,0,0,2.23,3.71,5,5,0,0,0,2.38.55h12.69v4.25Z"/><path class="cls-3" d="M1221.94,150.22V146h3.18v-.08a5.54,5.54,0,0,1-2.6-2.17,6.29,6.29,0,0,1-1-3.51,6.51,6.51,0,0,1,.47-2.55,5.31,5.31,0,0,1,1.37-2,5.83,5.83,0,0,1,2.2-1.22v-.09a6.35,6.35,0,0,1-2.16-1.48,6.54,6.54,0,0,1-1.39-2.2,7.4,7.4,0,0,1-.49-2.73,7,7,0,0,1,.85-3.53,5.89,5.89,0,0,1,2.37-2.35,7.3,7.3,0,0,1,3.57-.84h14.14v4.26h-13.1a4.41,4.41,0,0,0-3.1,1,3.75,3.75,0,0,0-1.1,2.91,4.16,4.16,0,0,0,.57,2.19,3.85,3.85,0,0,0,1.58,1.49,4.82,4.82,0,0,0,2.3.53h12.85v4.16h-13.41a3.61,3.61,0,0,0-3.89,3.89,4.09,4.09,0,0,0,2.23,3.71,5,5,0,0,0,2.38.55h12.69v4.26Z"/><line class="cls-2" x1="104" y1="567.35" x2="104" y2="713.36"/><rect class="cls-3" x="87.75" y="564.85" width="32.5" height="5"/><rect class="cls-3" x="87.75" y="710.86" width="32.5" height="5"/><path class="cls-3" d="M50.05,697.78v.1l5.08,7.36H51l-5.28-7.42v-4.34H73.88v4.3Z"/><path class="cls-3" d="M73.55,680.17a9.59,9.59,0,0,1-2.48,3.55,11.76,11.76,0,0,1-4.37,2.48,20.62,20.62,0,0,1-6.5.89h0a21.77,21.77,0,0,1-8.06-1.33A11,11,0,0,1,47,681.89a10.29,10.29,0,0,1-1.77-6,11.21,11.21,0,0,1,.89-4.54,9.38,9.38,0,0,1,2.49-3.37,8.49,8.49,0,0,1,3.69-1.79l.24,0v4.39l-.2.08a4.93,4.93,0,0,0-3,2.91,6.42,6.42,0,0,0-.42,2.4,5.57,5.57,0,0,0,1.4,3.92A8.47,8.47,0,0,0,54,682.05a19.41,19.41,0,0,0,5.13.81l.44,0h.46L64.7,682a5.84,5.84,0,0,0,3-.8,5.74,5.74,0,0,0,2.15-2.14,6.24,6.24,0,0,0,0-6.06,6,6,0,0,0-2.11-2.16,5.65,5.65,0,0,0-3-.8h0a5.93,5.93,0,0,0-3,.76A5.5,5.5,0,0,0,59.69,673a6.18,6.18,0,0,0-.75,3,6.35,6.35,0,0,0,.74,3.08,5.56,5.56,0,0,0,5,3h0v1.17H59.91v-.41a7.05,7.05,0,0,1-2.29-1.68A8.21,8.21,0,0,1,56,678.46a9.27,9.27,0,0,1-.61-3.46,9.48,9.48,0,0,1,1.2-4.8,8.76,8.76,0,0,1,3.3-3.29,9.43,9.43,0,0,1,4.76-1.2h0a9.28,9.28,0,0,1,5,1.34,9.52,9.52,0,0,1,3.43,3.66,11.57,11.57,0,0,1,.45,9.46Z"/><path class="cls-3" d="M73.29,656.34a8.9,8.9,0,0,1-2.88,3.48,8.14,8.14,0,0,1-4.13,1.49l-.24,0v-4.18l.14,0a5,5,0,0,0,2.3-1,5.65,5.65,0,0,0,1.62-2,6.56,6.56,0,0,0,.59-2.8,6.32,6.32,0,0,0-.76-3.14A5.47,5.47,0,0,0,67.82,646a6.12,6.12,0,0,0-3.08-.76h0a6,6,0,0,0-3.05.77,5.53,5.53,0,0,0-2.09,2.12,6.14,6.14,0,0,0-.76,3.08,7.59,7.59,0,0,0,.38,2.43,5.63,5.63,0,0,0,1.14,2,7.15,7.15,0,0,0,.74.71,6.65,6.65,0,0,0,.88.62v3.84l-16.25-1.38V642.62h3.69v13.26l8.93.86v-.1a6.23,6.23,0,0,1-2.2-2.62,9,9,0,0,1-.77-3.76,9.46,9.46,0,0,1,1.2-4.79,8.8,8.8,0,0,1,3.29-3.29,9.46,9.46,0,0,1,4.79-1.2h0a9.49,9.49,0,0,1,5,1.33A9.35,9.35,0,0,1,73.12,646a12.33,12.33,0,0,1,.17,10.37Z"/><path class="cls-3" d="M53.33,637.56V633.3h3.18v-.07a5.53,5.53,0,0,1-2.59-2.17,6.25,6.25,0,0,1-1-3.52,6.77,6.77,0,0,1,.47-2.55,5.3,5.3,0,0,1,1.38-2A5.57,5.57,0,0,1,57,621.82v-.1a6.47,6.47,0,0,1-2.16-1.47A6.58,6.58,0,0,1,53.43,618a7.38,7.38,0,0,1-.49-2.72,7.05,7.05,0,0,1,.85-3.54,6.06,6.06,0,0,1,2.37-2.34,7.31,7.31,0,0,1,3.58-.84H73.88v4.26H60.77a4.41,4.41,0,0,0-3.09,1,3.75,3.75,0,0,0-1.11,2.91,4.17,4.17,0,0,0,.57,2.2,3.89,3.89,0,0,0,1.58,1.48A4.86,4.86,0,0,0,61,621H73.88v4.16H60.46a3.62,3.62,0,0,0-3.89,3.89,4,4,0,0,0,.6,2.19,4.19,4.19,0,0,0,1.63,1.52,5.06,5.06,0,0,0,2.38.54h12.7v4.26Z"/><path class="cls-3" d="M53.33,604.55V600.3h3.18v-.08a5.53,5.53,0,0,1-2.59-2.17,6.22,6.22,0,0,1-1-3.51,6.7,6.7,0,0,1,.47-2.55,5.25,5.25,0,0,1,1.38-2A5.69,5.69,0,0,1,57,588.81v-.1a6.47,6.47,0,0,1-2.16-1.47A6.58,6.58,0,0,1,53.43,585a7.35,7.35,0,0,1-.49-2.72,7.08,7.08,0,0,1,.85-3.54,6.06,6.06,0,0,1,2.37-2.34,7.31,7.31,0,0,1,3.58-.84H73.88v4.26H60.77a4.41,4.41,0,0,0-3.09,1,3.75,3.75,0,0,0-1.11,2.91,4.17,4.17,0,0,0,.57,2.2,4,4,0,0,0,1.58,1.49A5,5,0,0,0,61,588H73.88v4.16H60.46A3.62,3.62,0,0,0,56.57,596a4.1,4.1,0,0,0,.6,2.2,4.16,4.16,0,0,0,1.63,1.51,5,5,0,0,0,2.38.55h12.7v4.25Z"/><line class="cls-2" x1="104" y1="413.73" x2="104" y2="557.66"/><rect class="cls-3" x="87.75" y="411.23" width="32.5" height="5"/><rect class="cls-3" x="87.75" y="555.16" width="32.5" height="5"/><path class="cls-3" d="M50.05,542.93v.1l5.08,7.36H51L45.69,543v-4.34H73.88v4.3Z"/><path class="cls-3" d="M68.27,518.38v14.1H64.44l-3.75-2.39-3.75-2.41-3.75-2.39-3.75-2.39-3.75-2.39v-6.33H64.58v-3.91h3.69v3.91h5.61v4.2Zm-3.61,0H49.17v.12l3.08,2,3.06,2,3.08,2c1,.67,2,1.34,3.07,2l3.08,2h.12Z"/><path class="cls-3" d="M73.29,501.88a8.9,8.9,0,0,1-2.88,3.48,8.14,8.14,0,0,1-4.13,1.49l-.24,0v-4.18l.14,0a4.92,4.92,0,0,0,2.3-1,5.65,5.65,0,0,0,1.62-2,6.56,6.56,0,0,0,.59-2.8,6.32,6.32,0,0,0-.76-3.14,5.47,5.47,0,0,0-2.11-2.13,6.12,6.12,0,0,0-3.08-.76h0a6,6,0,0,0-3.05.77,5.6,5.6,0,0,0-2.09,2.12,6.15,6.15,0,0,0-.76,3.09,7.58,7.58,0,0,0,.38,2.42,5.63,5.63,0,0,0,1.14,2,6.24,6.24,0,0,0,.74.71,6.65,6.65,0,0,0,.88.62v3.85L45.69,505V488.16h3.69v13.26l8.93.86v-.09a6.32,6.32,0,0,1-2.2-2.63,8.93,8.93,0,0,1-.77-3.76,9.46,9.46,0,0,1,1.2-4.79,8.8,8.8,0,0,1,3.29-3.29,9.46,9.46,0,0,1,4.79-1.2h0a9.49,9.49,0,0,1,5,1.33,9.35,9.35,0,0,1,3.42,3.66,12.33,12.33,0,0,1,.17,10.37Z"/><path class="cls-3" d="M53.33,483.1v-4.25h3.18v-.08a5.53,5.53,0,0,1-2.59-2.17,6.23,6.23,0,0,1-1-3.52,6.68,6.68,0,0,1,.47-2.54,5.25,5.25,0,0,1,1.38-2A5.69,5.69,0,0,1,57,467.36v-.1a6.47,6.47,0,0,1-2.16-1.47,6.58,6.58,0,0,1-1.39-2.21,7.38,7.38,0,0,1-.49-2.72,7.05,7.05,0,0,1,.85-3.54A6.06,6.06,0,0,1,56.16,455a7.31,7.31,0,0,1,3.58-.84H73.88v4.26H60.77a4.41,4.41,0,0,0-3.09,1,3.75,3.75,0,0,0-1.11,2.91,4.17,4.17,0,0,0,.57,2.2A3.89,3.89,0,0,0,58.72,466a4.86,4.86,0,0,0,2.31.54H73.88v4.16H60.46a3.62,3.62,0,0,0-3.89,3.89,4.1,4.1,0,0,0,.6,2.2,4.16,4.16,0,0,0,1.63,1.51,5.06,5.06,0,0,0,2.38.55h12.7v4.25Z"/><path class="cls-3" d="M53.33,450.1v-4.26h3.18v-.08a5.47,5.47,0,0,1-2.59-2.17,6.22,6.22,0,0,1-1-3.51,6.7,6.7,0,0,1,.47-2.55,5.33,5.33,0,0,1,1.38-2A5.83,5.83,0,0,1,57,434.35v-.09a6.65,6.65,0,0,1-2.16-1.48,6.58,6.58,0,0,1-1.39-2.21,7.35,7.35,0,0,1-.49-2.72,7.08,7.08,0,0,1,.85-3.54A6.06,6.06,0,0,1,56.16,422a7.31,7.31,0,0,1,3.58-.84H73.88v4.26H60.77a4.41,4.41,0,0,0-3.09,1,3.75,3.75,0,0,0-1.11,2.91,4.17,4.17,0,0,0,.57,2.2A4,4,0,0,0,58.72,433a4.86,4.86,0,0,0,2.31.53H73.88v4.16H60.46a3.62,3.62,0,0,0-3.89,3.89,4.1,4.1,0,0,0,.6,2.2,4.16,4.16,0,0,0,1.63,1.51,5,5,0,0,0,2.38.55h12.7v4.26Z"/><line class="cls-2" x1="104" y1="257.06" x2="104" y2="406.79"/><rect class="cls-3" x="87.75" y="254.56" width="32.5" height="5"/><rect class="cls-3" x="87.75" y="404.29" width="32.5" height="5"/><path class="cls-3" d="M50.05,389.24v.1l5.08,7.36H51l-5.28-7.42v-4.34H73.88v4.3Z"/><path class="cls-3" d="M73.29,373a9,9,0,0,1-2.88,3.48A8.23,8.23,0,0,1,66.28,378L66,378v-4.18l.14,0a4.93,4.93,0,0,0,2.3-1,5.48,5.48,0,0,0,1.62-2,6.48,6.48,0,0,0,.59-2.79,6.32,6.32,0,0,0-.76-3.14,5.47,5.47,0,0,0-2.11-2.13,6.12,6.12,0,0,0-3.08-.76h0a5.91,5.91,0,0,0-3.05.77,5.53,5.53,0,0,0-2.09,2.12,6.09,6.09,0,0,0-.76,3.08,7.49,7.49,0,0,0,.38,2.42,5.67,5.67,0,0,0,1.14,2,8.38,8.38,0,0,0,.74.71,6.58,6.58,0,0,0,.88.61v3.85L45.69,376.1V359.28h3.69v13.26l8.93.86v-.1a6.23,6.23,0,0,1-2.2-2.62,9,9,0,0,1-.77-3.76,9.46,9.46,0,0,1,1.2-4.79,8.8,8.8,0,0,1,3.29-3.29,9.46,9.46,0,0,1,4.79-1.2h0a9.49,9.49,0,0,1,5,1.33,9.22,9.22,0,0,1,3.42,3.66A12.33,12.33,0,0,1,73.29,373Z"/><path class="cls-3" d="M72.57,349.58a11.2,11.2,0,0,1-5,3.7,21,21,0,0,1-7.74,1.29h0A21,21,0,0,1,52,353.28a11.12,11.12,0,0,1-5-3.7A10.29,10.29,0,0,1,47,338a11.21,11.21,0,0,1,5-3.71,20.8,20.8,0,0,1,7.74-1.3h0a20.8,20.8,0,0,1,7.74,1.3,11.29,11.29,0,0,1,5,3.71,10.24,10.24,0,0,1,0,11.54Zm-3.2-9.2a8.52,8.52,0,0,0-3.75-2.17,20,20,0,0,0-5.83-.75h0a19.8,19.8,0,0,0-5.81.75,8.46,8.46,0,0,0-3.75,2.17,5.17,5.17,0,0,0,0,6.86A8.36,8.36,0,0,0,54,349.4a20.17,20.17,0,0,0,5.81.74h0a20.36,20.36,0,0,0,5.83-.74,8.41,8.41,0,0,0,3.75-2.16,5.17,5.17,0,0,0,0-6.86Z"/><path class="cls-3" d="M53.33,329.24V325h3.18v-.08a5.51,5.51,0,0,1-2.59-2.16,6.27,6.27,0,0,1-1-3.52,6.7,6.7,0,0,1,.47-2.55,5.3,5.3,0,0,1,1.38-2A5.57,5.57,0,0,1,57,313.5v-.1a6.47,6.47,0,0,1-2.16-1.47,6.58,6.58,0,0,1-1.39-2.21,7.4,7.4,0,0,1-.49-2.73,7,7,0,0,1,.85-3.53,6.06,6.06,0,0,1,2.37-2.34,7.31,7.31,0,0,1,3.58-.84H73.88v4.25H60.77a4.36,4.36,0,0,0-3.09,1,3.75,3.75,0,0,0-1.11,2.91,4.19,4.19,0,0,0,.57,2.2,4,4,0,0,0,1.58,1.48,4.86,4.86,0,0,0,2.31.54H73.88v4.16H60.46a3.61,3.61,0,0,0-3.89,3.88,4.06,4.06,0,0,0,.6,2.2,4.19,4.19,0,0,0,1.63,1.52,5.06,5.06,0,0,0,2.38.54h12.7v4.26Z"/><path class="cls-3" d="M53.33,296.23V292h3.18v-.07a5.53,5.53,0,0,1-2.59-2.17,6.25,6.25,0,0,1-1-3.52,6.77,6.77,0,0,1,.47-2.55,5.3,5.3,0,0,1,1.38-2A5.57,5.57,0,0,1,57,280.49v-.1a6.47,6.47,0,0,1-2.16-1.47,6.58,6.58,0,0,1-1.39-2.21,7.38,7.38,0,0,1-.49-2.72,7.05,7.05,0,0,1,.85-3.54,6.06,6.06,0,0,1,2.37-2.34,7.31,7.31,0,0,1,3.58-.84H73.88v4.26H60.77a4.41,4.41,0,0,0-3.09,1,3.75,3.75,0,0,0-1.11,2.91,4.17,4.17,0,0,0,.57,2.2,3.89,3.89,0,0,0,1.58,1.48,4.86,4.86,0,0,0,2.31.54H73.88v4.16H60.46a3.62,3.62,0,0,0-3.89,3.89,4,4,0,0,0,.6,2.19,4.19,4.19,0,0,0,1.63,1.52,5.06,5.06,0,0,0,2.38.54h12.7v4.26Z"/><line class="cls-2" x1="104" y1="60.15" x2="104" y2="249.99"/><rect class="cls-3" x="87.75" y="57.65" width="32.5" height="5"/><rect class="cls-3" x="87.75" y="247.49" width="32.5" height="5"/><path class="cls-3" d="M50.05,212.25v.09l5.08,7.37H51l-5.28-7.42V208H73.88v4.3Z"/><path class="cls-3" d="M73.31,196.45a9,9,0,0,1-2.86,3.76,6.79,6.79,0,0,1-4.21,1.37h0a6.74,6.74,0,0,1-3.25-.79,7.4,7.4,0,0,1-2.5-2.2A8.35,8.35,0,0,1,59,195.35h-.09a7.63,7.63,0,0,1-2.34,3.78,5.77,5.77,0,0,1-3.9,1.42h0a6.3,6.3,0,0,1-3.83-1.23,8.34,8.34,0,0,1-2.65-3.41,13.27,13.27,0,0,1,0-10,8.34,8.34,0,0,1,2.65-3.41,6.3,6.3,0,0,1,3.83-1.23h0a5.85,5.85,0,0,1,3.9,1.4,7.66,7.66,0,0,1,2.34,3.79H59a8.39,8.39,0,0,1,1.42-3.25,7.48,7.48,0,0,1,2.5-2.19,6.85,6.85,0,0,1,3.25-.79h0a6.91,6.91,0,0,1,4.21,1.36,9,9,0,0,1,2.86,3.77,15.2,15.2,0,0,1,0,11Zm-16.42-8.28a4.53,4.53,0,0,0-1.54-1.85,3.9,3.9,0,0,0-2.25-.68h0a3.9,3.9,0,0,0-2.27.68,4.55,4.55,0,0,0-1.53,1.86,7,7,0,0,0,0,5.49,4.52,4.52,0,0,0,1.53,1.87,3.89,3.89,0,0,0,2.27.67h0a3.9,3.9,0,0,0,2.25-.67,4.5,4.5,0,0,0,1.54-1.86,7.06,7.06,0,0,0,0-5.51Zm13.31-.43a5.24,5.24,0,0,0-1.72-2.16,4.23,4.23,0,0,0-2.53-.79h0a4.32,4.32,0,0,0-2.54.78,5.24,5.24,0,0,0-1.75,2.16,8.42,8.42,0,0,0,0,6.39,5.2,5.2,0,0,0,1.75,2.17,4.32,4.32,0,0,0,2.54.78h0a4.23,4.23,0,0,0,2.53-.79,5.24,5.24,0,0,0,1.72-2.18,8.34,8.34,0,0,0,0-6.36Z"/><path class="cls-3" d="M73.29,171.3a9,9,0,0,1-2.88,3.48,8.23,8.23,0,0,1-4.13,1.49l-.24,0v-4.18l.14,0a4.93,4.93,0,0,0,2.3-1,5.48,5.48,0,0,0,1.62-2,6.48,6.48,0,0,0,.59-2.79,6.32,6.32,0,0,0-.76-3.14A5.34,5.34,0,0,0,67.82,161a6.12,6.12,0,0,0-3.08-.77h0a5.92,5.92,0,0,0-3.05.78,5.53,5.53,0,0,0-2.09,2.12,6.09,6.09,0,0,0-.76,3.08,7.53,7.53,0,0,0,.38,2.42,5.67,5.67,0,0,0,1.14,2,8.38,8.38,0,0,0,.74.71,6.58,6.58,0,0,0,.88.61v3.85l-16.25-1.39V157.58h3.69v13.26l8.93.86v-.1a6.26,6.26,0,0,1-2.2-2.63,8.9,8.9,0,0,1-.77-3.76,9.43,9.43,0,0,1,1.2-4.78,8.8,8.8,0,0,1,3.29-3.29,9.46,9.46,0,0,1,4.79-1.2h0a9.49,9.49,0,0,1,5,1.33,9.22,9.22,0,0,1,3.42,3.66,12.33,12.33,0,0,1,.17,10.37Z"/><path class="cls-3" d="M53.33,152.52v-4.26h3.18v-.08A5.51,5.51,0,0,1,53.92,146a6.27,6.27,0,0,1-1-3.52,6.7,6.7,0,0,1,.47-2.55,5.3,5.3,0,0,1,1.38-2A5.57,5.57,0,0,1,57,136.78v-.1a6.47,6.47,0,0,1-2.16-1.47A6.68,6.68,0,0,1,53.43,133a7.4,7.4,0,0,1-.49-2.73,7,7,0,0,1,.85-3.53,6.15,6.15,0,0,1,2.37-2.35,7.43,7.43,0,0,1,3.58-.84H73.88v4.26H60.77a4.36,4.36,0,0,0-3.09,1,3.75,3.75,0,0,0-1.11,2.91,4.22,4.22,0,0,0,.57,2.2,4,4,0,0,0,1.58,1.48A4.86,4.86,0,0,0,61,136H73.88v4.16H60.46A3.61,3.61,0,0,0,56.57,144a4.09,4.09,0,0,0,2.23,3.71,5,5,0,0,0,2.38.55h12.7v4.26Z"/><path class="cls-3" d="M53.33,119.51v-4.26h3.18v-.07A5.58,5.58,0,0,1,53.92,113a6.25,6.25,0,0,1-1-3.52,6.73,6.73,0,0,1,.47-2.55,5.3,5.3,0,0,1,1.38-2A5.57,5.57,0,0,1,57,103.77v-.1a6.47,6.47,0,0,1-2.16-1.47A6.58,6.58,0,0,1,53.43,100a7.38,7.38,0,0,1-.49-2.72,7,7,0,0,1,.85-3.54,6.06,6.06,0,0,1,2.37-2.34,7.31,7.31,0,0,1,3.58-.84H73.88V94.8H60.77a4.36,4.36,0,0,0-3.09,1,3.75,3.75,0,0,0-1.11,2.91,4.19,4.19,0,0,0,.57,2.2,4,4,0,0,0,1.58,1.48A4.86,4.86,0,0,0,61,103H73.88v4.16H60.46A3.61,3.61,0,0,0,56.57,111a4,4,0,0,0,.6,2.19,4.19,4.19,0,0,0,1.63,1.52,5.06,5.06,0,0,0,2.38.54h12.7v4.26Z"/><line class="cls-1" x1="1162.29" y1="114.86" x2="1266.1" y2="114.86"/><line class="cls-1" x1="1162.29" y1="89.12" x2="1265.04" y2="89.12"/><line class="cls-2" x1="1278.48" y1="89.38" x2="1278.48" y2="114.88"/><rect class="cls-3" x="1262.23" y="86.88" width="32.5" height="5"/><rect class="cls-3" x="1262.23" y="112.38" width="32.5" height="5"/><path class="cls-3" d="M1334.39,153a8.72,8.72,0,0,1-2.79,3.57,7.91,7.91,0,0,1-4.09,1.5l-.23,0v-4.22l.21,0a4.21,4.21,0,0,0,3.06-1.84,8.07,8.07,0,0,0,.6-7.29,4.75,4.75,0,0,0-1.65-2,4.14,4.14,0,0,0-2.4-.72h0a4.38,4.38,0,0,0-3.66,1.62,7,7,0,0,0-1.28,4.43v3.44h-3.44v-3.3a6.57,6.57,0,0,0-.57-2.82,4.55,4.55,0,0,0-1.6-1.9,4.07,4.07,0,0,0-2.32-.67h0a4.43,4.43,0,0,0-2.32.57,3.65,3.65,0,0,0-1.46,1.7,6.76,6.76,0,0,0-.5,2.73,7.09,7.09,0,0,0,.51,2.77,4.55,4.55,0,0,0,1.47,1.93,4.33,4.33,0,0,0,2.26.86l.2,0v4.14l-.22,0a8.11,8.11,0,0,1-6.84-4.85,11.41,11.41,0,0,1-1-4.85,12,12,0,0,1,.93-4.91,7.62,7.62,0,0,1,2.57-3.24,6.42,6.42,0,0,1,3.8-1.15h0a6.14,6.14,0,0,1,3.1.77,6.8,6.8,0,0,1,2.23,2.11,8.68,8.68,0,0,1,1.24,3.06h.09a8,8,0,0,1,2-5,6.29,6.29,0,0,1,4.77-1.9h0a7.32,7.32,0,0,1,4.28,1.31,8.81,8.81,0,0,1,2.93,3.6,14.07,14.07,0,0,1,0,10.57Z"/><path class="cls-3" d="M1333.62,128.83a11.1,11.1,0,0,1-5,3.7,21,21,0,0,1-7.73,1.29h0a21,21,0,0,1-7.73-1.29,11.07,11.07,0,0,1-5-3.7,10.29,10.29,0,0,1,0-11.54,11.08,11.08,0,0,1,5-3.71,20.75,20.75,0,0,1,7.73-1.3h0a20.75,20.75,0,0,1,7.73,1.3,11.11,11.11,0,0,1,5,3.71,10.24,10.24,0,0,1,0,11.54Zm-3.2-9.2a8.31,8.31,0,0,0-3.75-2.17,20,20,0,0,0-5.82-.75h0a19.85,19.85,0,0,0-5.81.75,8.33,8.33,0,0,0-3.74,2.17,5.15,5.15,0,0,0,0,6.86,8.22,8.22,0,0,0,3.74,2.15,19.85,19.85,0,0,0,5.81.75h0a20,20,0,0,0,5.82-.75,8.21,8.21,0,0,0,3.75-2.15,5.15,5.15,0,0,0,0-6.86Z"/><path class="cls-3" d="M1314.38,108.49v-4.26h3.19v-.08A5.49,5.49,0,0,1,1315,102a6.3,6.3,0,0,1-1-3.51,6.7,6.7,0,0,1,.47-2.55,5.33,5.33,0,0,1,1.38-2,5.68,5.68,0,0,1,2.2-1.21v-.1a6.17,6.17,0,0,1-2.16-1.48,6.56,6.56,0,0,1-1.4-2.2,7.61,7.61,0,0,1-.49-2.73,7.12,7.12,0,0,1,.85-3.53,6,6,0,0,1,2.38-2.35,7.25,7.25,0,0,1,3.57-.84h14.14v4.26h-13.1a4.41,4.41,0,0,0-3.1,1,3.77,3.77,0,0,0-1.1,2.91,4.25,4.25,0,0,0,.56,2.19,3.94,3.94,0,0,0,1.59,1.49,4.79,4.79,0,0,0,2.3.54h12.85v4.16h-13.42a3.59,3.59,0,0,0-3.88,3.88,4.06,4.06,0,0,0,2.22,3.71,5,5,0,0,0,2.39.55h12.69v4.26Z"/><path class="cls-3" d="M1314.38,75.48V71.22h3.19v-.08A5.53,5.53,0,0,1,1315,69a6.36,6.36,0,0,1-1-3.52,6.7,6.7,0,0,1,.47-2.55,5.42,5.42,0,0,1,1.38-2,5.68,5.68,0,0,1,2.2-1.21v-.1a6.28,6.28,0,0,1-2.16-1.47,6.6,6.6,0,0,1-1.4-2.21,7.61,7.61,0,0,1-.49-2.73,7.12,7.12,0,0,1,.85-3.53,6,6,0,0,1,2.38-2.34,7.25,7.25,0,0,1,3.57-.84h14.14v4.25h-13.1a4.41,4.41,0,0,0-3.1,1,3.78,3.78,0,0,0-1.1,2.91,4.28,4.28,0,0,0,.56,2.2,4,4,0,0,0,1.59,1.48,4.79,4.79,0,0,0,2.3.54h12.85v4.16h-13.42a3.59,3.59,0,0,0-3.88,3.88,4.14,4.14,0,0,0,.59,2.2,4.19,4.19,0,0,0,1.63,1.52,5.1,5.1,0,0,0,2.39.54h12.69v4.26Z"/></svg>