<svg id="Ebene_1" data-name="Ebene 1" xmlns="http://www.w3.org/2000/svg" viewBox="0 0 1262.54 1584.15"><defs><style>.cls-1,.cls-13{fill:#68442a;}.cls-1,.cls-6,.cls-8{opacity:0.5;}.cls-10,.cls-2,.cls-7{fill:none;stroke-miterlimit:10;}.cls-2{stroke:#f6f6f6;stroke-width:9.71px;}.cls-3{fill:gray;}.cls-4{fill:#202020;}.cls-5{fill:#f6f6f6;}.cls-6{fill:#e8e8e8;}.cls-7{stroke:gray;stroke-width:20px;}.cls-8,.cls-9{fill:#87603d;}.cls-10{stroke:#454545;stroke-width:5px;}.cls-11{fill:#454545;}.cls-12{fill:#a5a5a5;}.cls-14{fill:#a67c52;}</style></defs><rect class="cls-1" x="129.22" y="702.86" width="1027.73" height="684.56"/><path class="cls-2" d="M385.77,714.43a542.15,542.15,0,0,1,.64,59.09,351.63,351.63,0,0,1-23.67,112.84C340,945,346.27,978.65,346.27,978.65"/><rect class="cls-1" x="129.22" y="87.66" width="1020.37" height="98.92"/><rect class="cls-3" x="142.2" y="684.71" width="279.98" height="100" rx="6.53" transform="translate(564.38 1469.42) rotate(180)"/><rect class="cls-4" x="849.75" y="915.44" width="260" height="430" rx="22.24" transform="translate(1959.5 2260.89) rotate(180)"/><path class="cls-5" d="M923.78,1069.88h5.47v35.23h-5.47Zm5.13,16.85h.51l14.19-16.85h6.49l-13.6,15.92h-.68l-6.91,8Zm3.34,1.63,3.91-3.76,15.11,20.51h-6.79Z"/><path class="cls-5" d="M957.92,1104.46a7.57,7.57,0,0,1-3-3.31,11.49,11.49,0,0,1-1-5.1v-16.62h5.33v15.62a6.6,6.6,0,0,0,1.35,4.46,5.16,5.16,0,0,0,4.09,1.55,6.2,6.2,0,0,0,3.24-.83,5.53,5.53,0,0,0,2.12-2.34,7.67,7.67,0,0,0,.74-3.47v-15H976v25.68h-5.3v-3.86h-.12a7.88,7.88,0,0,1-3,3.16,9.18,9.18,0,0,1-4.9,1.21A9.33,9.33,0,0,1,957.92,1104.46Zm.16-29.78a2.8,2.8,0,0,1,0-4,2.78,2.78,0,0,1,2-.82,2.81,2.81,0,0,1,2,4.8,2.74,2.74,0,0,1-2,.82A2.82,2.82,0,0,1,958.08,1074.68Zm9.65,0a2.8,2.8,0,0,1,0-4,2.72,2.72,0,0,1,2-.82,2.77,2.77,0,0,1,2,.82,2.85,2.85,0,0,1,0,4,2.81,2.81,0,0,1-2,.82A2.76,2.76,0,0,1,967.73,1074.68Z"/><path class="cls-5" d="M981.42,1069.88h5.3v13.77h.12a7.54,7.54,0,0,1,3-3.48,9.36,9.36,0,0,1,4.92-1.23,8.78,8.78,0,0,1,4.8,1.28,8.5,8.5,0,0,1,3.17,3.6,12.15,12.15,0,0,1,1.14,5.42v15.87h-5.3v-14.87a7.37,7.37,0,0,0-1.54-5,5.38,5.38,0,0,0-4.32-1.78,5.63,5.63,0,0,0-5.27,3.22,7.76,7.76,0,0,0-.76,3.54v14.87h-5.3Z"/><path class="cls-5" d="M1009.21,1069.88h5.29v35.23h-5.29Z"/><path class="cls-5" d="M1020.29,1088.41H1036v4.81h-15.7Z"/><path class="cls-5" d="M900.43,1154.63a8.58,8.58,0,0,1-3.63-2.76,8.33,8.33,0,0,1-1.58-4.11l0-.22h5.23l.05.25a4.45,4.45,0,0,0,1.73,2.74,6.23,6.23,0,0,0,3.76,1,8.11,8.11,0,0,0,2.73-.4,3.9,3.9,0,0,0,1.74-1.16,2.85,2.85,0,0,0,.61-1.81v0a2.6,2.6,0,0,0-.81-2,6.59,6.59,0,0,0-2.88-1.27l-4.2-1a11.11,11.11,0,0,1-5.48-2.62,6.17,6.17,0,0,1-1.82-4.58v0a6.84,6.84,0,0,1,1.25-4.07,8.14,8.14,0,0,1,3.49-2.71,13.11,13.11,0,0,1,5.2-1,12.27,12.27,0,0,1,5.22,1,8.41,8.41,0,0,1,3.43,2.8,7.5,7.5,0,0,1,1.36,3.94v.29h-5l0-.17a4.08,4.08,0,0,0-1.52-2.74,5.35,5.35,0,0,0-3.51-1.06,6.62,6.62,0,0,0-2.47.41,3.55,3.55,0,0,0-1.61,1.18,3,3,0,0,0-.56,1.8v0a2.67,2.67,0,0,0,.88,2,6.32,6.32,0,0,0,2.93,1.29l4.2,1a11.43,11.43,0,0,1,5.57,2.55,6,6,0,0,1,1.65,4.43v0a6.66,6.66,0,0,1-1.34,4.13,8.81,8.81,0,0,1-3.7,2.78,13.58,13.58,0,0,1-5.38,1A14,14,0,0,1,900.43,1154.63Z"/><path class="cls-5" d="M925,1154a10.8,10.8,0,0,1-4.22-4.64,15.86,15.86,0,0,1-1.48-7.11v0a15.54,15.54,0,0,1,1.5-7.06,11,11,0,0,1,4.23-4.6,13.53,13.53,0,0,1,12.1-.37,9.89,9.89,0,0,1,3.77,3.34,9.57,9.57,0,0,1,1.59,4.49l0,.2H937.5l0-.22a6.11,6.11,0,0,0-1.89-3.26,5.71,5.71,0,0,0-4.06-1.38,6,6,0,0,0-3.56,1.08,7.2,7.2,0,0,0-2.37,3.09,12.2,12.2,0,0,0-.84,4.74v0a12.15,12.15,0,0,0,.86,4.8,6.82,6.82,0,0,0,2.38,3,6.13,6.13,0,0,0,3.57,1,5.9,5.9,0,0,0,4-1.28,6.2,6.2,0,0,0,2-3.36l0-.19h5.08v.17a9.84,9.84,0,0,1-1.75,4.62,10.1,10.1,0,0,1-3.83,3.27,11.89,11.89,0,0,1-5.48,1.21A12.43,12.43,0,0,1,925,1154Z"/><path class="cls-5" d="M946.53,1119.88h5.3v13.77H952a7.6,7.6,0,0,1,3-3.48,9.36,9.36,0,0,1,4.92-1.23,8.78,8.78,0,0,1,4.8,1.28,8.59,8.59,0,0,1,3.18,3.6,12.29,12.29,0,0,1,1.13,5.42v15.87h-5.3v-14.87a7.37,7.37,0,0,0-1.54-5,5.38,5.38,0,0,0-4.32-1.78,5.63,5.63,0,0,0-5.27,3.22,7.76,7.76,0,0,0-.76,3.54v14.87h-5.3Z"/><path class="cls-5" d="M974.1,1129.43h5.32v4.39h.1a6.8,6.8,0,0,1,2.17-3.58,5.68,5.68,0,0,1,3.76-1.3,8.43,8.43,0,0,1,1.06.06,6.36,6.36,0,0,1,.77.13V1134a4.76,4.76,0,0,0-.95-.21,12.12,12.12,0,0,0-1.42-.08,5.76,5.76,0,0,0-2.93.72,4.71,4.71,0,0,0-1.9,2.07,7.4,7.4,0,0,0-.66,3.26v15.31H974.1Z"/><path class="cls-5" d="M993.07,1154.6a7.24,7.24,0,0,1-3-2.74,7.57,7.57,0,0,1-1.08-4v0a6.41,6.41,0,0,1,2.5-5.33,12.42,12.42,0,0,1,7-2.24l9.71-.58v3.71l-9,.56a6.61,6.61,0,0,0-3.65,1.13,3.17,3.17,0,0,0-1.28,2.63v0a3.18,3.18,0,0,0,1.28,2.66,5.5,5.5,0,0,0,3.41,1,7.23,7.23,0,0,0,3.33-.76,5.9,5.9,0,0,0,2.33-2.09,5.41,5.41,0,0,0,.86-3v-7.64a4.27,4.27,0,0,0-1.32-3.33,5.38,5.38,0,0,0-3.78-1.21,6.19,6.19,0,0,0-3.65,1,4.09,4.09,0,0,0-1.72,2.52l0,.22h-5l0-.27a7.81,7.81,0,0,1,1.49-4,8.79,8.79,0,0,1,3.59-2.8,13.3,13.3,0,0,1,5.44-1,13,13,0,0,1,5.45,1,8.26,8.26,0,0,1,3.56,3,7.84,7.84,0,0,1,1.27,4.47v17.7h-5.32v-4h-.1a8.24,8.24,0,0,1-1.95,2.4,8.66,8.66,0,0,1-2.7,1.56,9.17,9.17,0,0,1-3.21.55A9.8,9.8,0,0,1,993.07,1154.6Z"/><path class="cls-5" d="M1015.92,1129.43h5.32v3.88h.1a8,8,0,0,1,3-3.16,9.19,9.19,0,0,1,4.89-1.21,8.4,8.4,0,0,1,6.54,2.55,10,10,0,0,1,2.32,7v16.63h-5.3v-15.6a6.58,6.58,0,0,0-1.36-4.47,5.11,5.11,0,0,0-4.08-1.56,6.2,6.2,0,0,0-3.24.83,5.47,5.47,0,0,0-2.12,2.32,7.7,7.7,0,0,0-.75,3.51v15h-5.32Z"/><path class="cls-5" d="M1043.48,1119.88h5.3v35.23h-5.3Zm4.37,20.48h1.05l10.28-10.93h6.23l-12,12.64h-.8l-4.72,4.71Zm2.74,2.84,3.44-3.79,11.77,15.7h-6.13Z"/><rect class="cls-6" x="146.27" y="1117.36" width="400" height="130" rx="20.55" transform="translate(1528.62 836.09) rotate(90)"/><rect class="cls-6" x="8.02" y="1117.36" width="400" height="130" rx="20.55" transform="translate(1390.37 974.34) rotate(90)"/><rect class="cls-3" x="373.57" y="591.28" width="21.36" height="102.5" transform="translate(768.5 1285.06) rotate(180)"/><rect class="cls-3" x="355.36" y="581.48" width="16.51" height="57.77" transform="translate(973.98 246.75) rotate(90)"/><rect class="cls-3" x="245.02" y="776.83" width="62.01" height="37.29" rx="8.7"/><path class="cls-3" d="M183.65,960.63h48.73a6.64,6.64,0,0,1,6.64,6.64v15.08a0,0,0,0,1,0,0H177a0,0,0,0,1,0,0V967.27A6.64,6.64,0,0,1,183.65,960.63Z"/><path class="cls-5" d="M321.9,960.63h48.73a6.64,6.64,0,0,1,6.64,6.64v15.08a0,0,0,0,1,0,0h-62a0,0,0,0,1,0,0V967.27A6.64,6.64,0,0,1,321.9,960.63Z"/><path class="cls-7" d="M276,795.47s5.24,47.67-15.85,80.46c-8.39,13.87-51.51,45.33-52,84.7"/><rect class="cls-8" x="462.93" y="1027.68" width="699.64" height="20" transform="translate(1850.43 224.93) rotate(90)"/><rect class="cls-8" x="811.95" y="1042.68" width="670" height="20" transform="translate(2199.63 -94.27) rotate(90)"/><rect class="cls-8" x="81.89" y="1027.68" width="699.64" height="20" transform="translate(1469.39 605.96) rotate(90)"/><rect class="cls-9" x="129.45" y="687.86" width="1050.31" height="30"/><rect class="cls-8" x="837.75" y="1345.44" width="284.2" height="20" transform="translate(1959.7 2710.89) rotate(180)"/><rect class="cls-3" x="822.75" y="1305.74" width="15" height="40" transform="translate(1660.5 2651.48) rotate(180)"/><rect class="cls-3" x="1121.69" y="1305.74" width="15" height="40" transform="translate(2258.39 2651.48) rotate(180)"/><rect class="cls-9" x="837.75" y="750.9" width="284.2" height="30"/><rect class="cls-3" x="822.75" y="750.9" width="15" height="30" transform="translate(1660.5 1531.81) rotate(180)"/><rect class="cls-3" x="1121.95" y="750.9" width="15" height="30" transform="translate(2258.9 1531.81) rotate(180)"/><path class="cls-5" d="M933.32,749.72H922.55V745h27v4.74H938.81v30.49h-5.49Z"/><path class="cls-5" d="M952.9,749.68a2.85,2.85,0,0,1-.91-2.13,2.9,2.9,0,0,1,.91-2.18,3.13,3.13,0,0,1,4.35,0,2.93,2.93,0,0,1,.9,2.18,2.88,2.88,0,0,1-.9,2.13,3.1,3.1,0,0,1-4.35,0Zm-.49,4.85h5.32v25.68h-5.32Z"/><path class="cls-5" d="M967.26,779.74a8.7,8.7,0,0,1-3.62-2.76,8.34,8.34,0,0,1-1.59-4.12l0-.22h5.22l0,.25a4.47,4.47,0,0,0,1.73,2.74,6.25,6.25,0,0,0,3.76,1,8.13,8.13,0,0,0,2.74-.4,3.78,3.78,0,0,0,1.73-1.16,2.77,2.77,0,0,0,.61-1.81v0a2.63,2.63,0,0,0-.8-2,6.59,6.59,0,0,0-2.88-1.27l-4.2-1a11.24,11.24,0,0,1-5.49-2.63,6.15,6.15,0,0,1-1.81-4.58v0a6.84,6.84,0,0,1,1.24-4.07,8.14,8.14,0,0,1,3.49-2.71,13.14,13.14,0,0,1,5.2-1,12.2,12.2,0,0,1,5.23,1,8.37,8.37,0,0,1,3.43,2.79,7.52,7.52,0,0,1,1.35,3.94v.3h-5l0-.17a4.09,4.09,0,0,0-1.51-2.75,5.38,5.38,0,0,0-3.52-1.06,6.82,6.82,0,0,0-2.46.41,3.5,3.5,0,0,0-1.61,1.19,2.92,2.92,0,0,0-.57,1.79v0a2.68,2.68,0,0,0,.88,2,6.42,6.42,0,0,0,2.93,1.29l4.2,1a11.52,11.52,0,0,1,5.58,2.55,6,6,0,0,1,1.65,4.43v0a6.7,6.7,0,0,1-1.34,4.13,8.79,8.79,0,0,1-3.7,2.78,13.64,13.64,0,0,1-5.39,1A14.2,14.2,0,0,1,967.26,779.74Z"/><path class="cls-5" d="M991.87,779.09a10.8,10.8,0,0,1-4.22-4.64,15.85,15.85,0,0,1-1.48-7.1v0a15.47,15.47,0,0,1,1.5-7.05,11,11,0,0,1,4.24-4.61,12.3,12.3,0,0,1,6.4-1.62,12.16,12.16,0,0,1,5.7,1.26,10,10,0,0,1,3.77,3.33,9.68,9.68,0,0,1,1.59,4.49l0,.2h-5l-.05-.22a6.24,6.24,0,0,0-1.89-3.26,5.73,5.73,0,0,0-4.07-1.38,5.93,5.93,0,0,0-3.55,1.09,7,7,0,0,0-2.37,3.08,12.24,12.24,0,0,0-.84,4.74v0a12.09,12.09,0,0,0,.85,4.8,6.89,6.89,0,0,0,2.38,3,6.16,6.16,0,0,0,3.58,1,5.87,5.87,0,0,0,3.94-1.28,6.1,6.1,0,0,0,2-3.36l0-.19h5.07v.17a9.72,9.72,0,0,1-1.74,4.62,10.37,10.37,0,0,1-3.83,3.28,12,12,0,0,1-5.48,1.2A12.44,12.44,0,0,1,991.87,779.09Z"/><path class="cls-5" d="M1013.37,745h5.3v13.77h.12a7.59,7.59,0,0,1,3-3.48,9.36,9.36,0,0,1,4.92-1.23,8.87,8.87,0,0,1,4.8,1.28,8.76,8.76,0,0,1,3.17,3.6,12.18,12.18,0,0,1,1.14,5.42v15.87h-5.3V765.34a7.42,7.42,0,0,0-1.54-5,5.44,5.44,0,0,0-4.32-1.78,5.7,5.7,0,0,0-5.28,3.22,7.89,7.89,0,0,0-.75,3.54v14.87h-5.3Z"/><rect class="cls-8" x="694.55" y="1190.24" width="298.4" height="12" transform="translate(-352.49 2039.99) rotate(-90)"/><rect class="cls-8" x="966.55" y="1190.24" width="298.4" height="12" transform="translate(-80.49 2311.99) rotate(-90)"/><rect class="cls-8" x="837.75" y="895.65" width="284.2" height="12" transform="translate(1959.7 1803.29) rotate(180)"/><rect class="cls-3" x="822.75" y="851.41" width="15" height="30" transform="translate(1660.5 1732.81) rotate(180)"/><rect class="cls-3" x="1121.95" y="851.41" width="15" height="30" transform="translate(2258.9 1732.81) rotate(180)"/><rect class="cls-8" x="798.75" y="844.55" width="90" height="12" transform="translate(-6.8 1694.3) rotate(-90)"/><rect class="cls-8" x="1070.95" y="844.55" width="90" height="12" transform="translate(265.4 1966.5) rotate(-90)"/><path class="cls-5" d="M895.91,829h5.47v35.23h-5.47Zm2.74,30.76H909a9.09,9.09,0,0,0,5.59-1.46,5,5,0,0,0,1.93-4.27V854a5,5,0,0,0-3.54-5.09,12.78,12.78,0,0,0-4.37-.65h-9.91v-4.22h8.81a9.11,9.11,0,0,0,5.52-1.42,4.73,4.73,0,0,0,1.9-4v-.05a4.52,4.52,0,0,0-1.62-3.74,7.24,7.24,0,0,0-4.6-1.29h-10V829H910a12.94,12.94,0,0,1,5.48,1.09,8.15,8.15,0,0,1,4.89,7.73v0a7.58,7.58,0,0,1-.85,3.51,8.05,8.05,0,0,1-2.33,2.78,7.17,7.17,0,0,1-3.36,1.4v.09a10,10,0,0,1,4.38,1.41,8,8,0,0,1,2.88,3,8.5,8.5,0,0,1,1,4.19v.05a9.51,9.51,0,0,1-1.46,5.32,9.37,9.37,0,0,1-4.14,3.42,15.86,15.86,0,0,1-6.44,1.19h-11.4Z"/><path class="cls-5" d="M930.62,863.16a10.63,10.63,0,0,1-4.18-4.61,16.1,16.1,0,0,1-1.45-7v0a15.84,15.84,0,0,1,1.47-7,11.15,11.15,0,0,1,4.12-4.69,12.71,12.71,0,0,1,12.47-.07,10.58,10.58,0,0,1,4,4.52,15.37,15.37,0,0,1,1.42,6.77v1.78H927.6V849h18.31l-2.61,3.49v-2a10.82,10.82,0,0,0-.82-4.51,5.84,5.84,0,0,0-2.27-2.67,6.3,6.3,0,0,0-3.35-.88,6.21,6.21,0,0,0-3.37.93,6.3,6.3,0,0,0-2.35,2.72,10.23,10.23,0,0,0-.85,4.41v2a9.87,9.87,0,0,0,.84,4.26,6.13,6.13,0,0,0,2.41,2.71,7,7,0,0,0,3.68.94A7.39,7.39,0,0,0,940,860a5.67,5.67,0,0,0,2-1.27,4.27,4.27,0,0,0,1.11-1.77l.07-.19h5l0,.27a9.11,9.11,0,0,1-1.2,2.9,10.13,10.13,0,0,1-2.28,2.5,10.55,10.55,0,0,1-3.31,1.75,13.5,13.5,0,0,1-4.25.63A12.42,12.42,0,0,1,930.62,863.16Z"/><path class="cls-5" d="M956.64,863.8A8.7,8.7,0,0,1,953,861a8.34,8.34,0,0,1-1.59-4.12l0-.22h5.22l0,.25a4.47,4.47,0,0,0,1.73,2.74,6.25,6.25,0,0,0,3.76,1,8.13,8.13,0,0,0,2.74-.4,3.78,3.78,0,0,0,1.73-1.16,2.75,2.75,0,0,0,.61-1.81v0a2.63,2.63,0,0,0-.8-2,6.59,6.59,0,0,0-2.88-1.27l-4.2-.95a11.15,11.15,0,0,1-5.48-2.63,6.12,6.12,0,0,1-1.82-4.58v0a6.84,6.84,0,0,1,1.24-4.07,8.2,8.2,0,0,1,3.49-2.71,13.14,13.14,0,0,1,5.2-1,12.2,12.2,0,0,1,5.23,1,8.44,8.44,0,0,1,3.43,2.79,7.52,7.52,0,0,1,1.35,3.94v.3h-5l0-.17a4.09,4.09,0,0,0-1.51-2.75,5.39,5.39,0,0,0-3.52-1.06,6.82,6.82,0,0,0-2.46.41,3.5,3.5,0,0,0-1.61,1.19,2.92,2.92,0,0,0-.57,1.79v0a2.68,2.68,0,0,0,.88,2,6.42,6.42,0,0,0,2.93,1.29l4.2,1a11.52,11.52,0,0,1,5.58,2.55,6,6,0,0,1,1.65,4.43v0a6.7,6.7,0,0,1-1.34,4.13,8.79,8.79,0,0,1-3.7,2.78,13.64,13.64,0,0,1-5.39,1A14,14,0,0,1,956.64,863.8Z"/><path class="cls-5" d="M980.06,863.06q-1.87-1.71-1.87-5.57v-14.7H974.5v-4.2h3.69V831.9h5.42v6.69h4.81v4.2h-4.81v14.4a3.4,3.4,0,0,0,.85,2.68,3.87,3.87,0,0,0,2.54.72c.28,0,.54,0,.77,0l.65-.06v4.08l-1.17.14a14.64,14.64,0,0,1-1.52.07Q981.92,864.78,980.06,863.06Z"/><path class="cls-5" d="M996.66,863.16a10.63,10.63,0,0,1-4.18-4.61,16,16,0,0,1-1.45-7v0a15.84,15.84,0,0,1,1.47-7,11.15,11.15,0,0,1,4.12-4.69,12.69,12.69,0,0,1,12.46-.07,10.53,10.53,0,0,1,4,4.52,15.23,15.23,0,0,1,1.42,6.77v1.78H993.64V849H1012l-2.61,3.49v-2a10.82,10.82,0,0,0-.82-4.51,5.84,5.84,0,0,0-2.27-2.67,6.3,6.3,0,0,0-3.35-.88,6.21,6.21,0,0,0-3.37.93,6.3,6.3,0,0,0-2.35,2.72,10.23,10.23,0,0,0-.85,4.41v2a9.87,9.87,0,0,0,.84,4.26,6.13,6.13,0,0,0,2.41,2.71,7,7,0,0,0,3.68.94A7.39,7.39,0,0,0,1006,860a5.67,5.67,0,0,0,2-1.27,4.27,4.27,0,0,0,1.11-1.77l.07-.19h5l0,.27a8.88,8.88,0,0,1-1.2,2.9,10.13,10.13,0,0,1-2.28,2.5,10.55,10.55,0,0,1-3.31,1.75,13.5,13.5,0,0,1-4.25.63A12.42,12.42,0,0,1,996.66,863.16Z"/><path class="cls-5" d="M1023.12,863.15a10.8,10.8,0,0,1-4.22-4.64,15.85,15.85,0,0,1-1.48-7.1v0a15.47,15.47,0,0,1,1.5-7,11,11,0,0,1,4.24-4.61,12.3,12.3,0,0,1,6.4-1.62,12.16,12.16,0,0,1,5.7,1.26,10,10,0,0,1,3.77,3.33,9.68,9.68,0,0,1,1.59,4.49l0,.2h-5.05l0-.22a6.28,6.28,0,0,0-1.89-3.26,5.73,5.73,0,0,0-4.07-1.38,5.93,5.93,0,0,0-3.55,1.09,7,7,0,0,0-2.37,3.08,12.24,12.24,0,0,0-.84,4.74v0a12.09,12.09,0,0,0,.85,4.8,6.89,6.89,0,0,0,2.38,3,6.16,6.16,0,0,0,3.58,1.05,5.87,5.87,0,0,0,3.94-1.28,6.07,6.07,0,0,0,2-3.36l0-.19h5.07v.17a9.8,9.8,0,0,1-1.74,4.63,10.44,10.44,0,0,1-3.83,3.27,12,12,0,0,1-5.48,1.2A12.44,12.44,0,0,1,1023.12,863.15Z"/><path class="cls-5" d="M1044.72,829h5.3v35.23h-5.3Zm4.37,20.49h1.05l10.28-10.94h6.22l-12,12.65h-.81l-4.71,4.71Zm2.73,2.83,3.44-3.79,11.77,15.7h-6.13Z"/><rect class="cls-4" x="468.82" y="804.29" width="260" height="90" rx="9.97" transform="translate(1197.63 1698.58) rotate(180)"/><path class="cls-5" d="M525.46,823.46h5.47v35.23h-5.47Zm5.13,16.85h.51l14.19-16.85h6.49l-13.6,15.92h-.68l-6.91,8Zm3.35,1.63,3.9-3.76L553,858.69h-6.78Z"/><path class="cls-5" d="M558.88,857.58a11,11,0,0,1-4.27-4.61,15.74,15.74,0,0,1-1.51-7.12v-.05a15.34,15.34,0,0,1,1.53-7.08,10.9,10.9,0,0,1,4.27-4.59,13.54,13.54,0,0,1,12.79,0A10.9,10.9,0,0,1,576,838.7a15.47,15.47,0,0,1,1.52,7.1v.05A15.57,15.57,0,0,1,576,853a11.11,11.11,0,0,1-4.27,4.6,13.49,13.49,0,0,1-12.82,0Zm10-3.87a6.68,6.68,0,0,0,2.34-3,12.58,12.58,0,0,0,.83-4.82v-.05a12.54,12.54,0,0,0-.83-4.8,6.54,6.54,0,0,0-2.37-3,6.19,6.19,0,0,0-3.59-1,6.11,6.11,0,0,0-3.55,1,6.84,6.84,0,0,0-2.38,3,12,12,0,0,0-.85,4.78v.05a12.38,12.38,0,0,0,.84,4.82,6.68,6.68,0,0,0,2.38,3,6.24,6.24,0,0,0,3.61,1A6.11,6.11,0,0,0,568.9,853.71Z"/><path class="cls-5" d="M586.12,857.57a10.8,10.8,0,0,1-4.22-4.64,15.86,15.86,0,0,1-1.48-7.11v0a15.54,15.54,0,0,1,1.5-7.06,11,11,0,0,1,4.24-4.6,13.48,13.48,0,0,1,12.1-.36,9.86,9.86,0,0,1,3.77,3.33,9.56,9.56,0,0,1,1.58,4.49l0,.2h-5.06l0-.22a6.19,6.19,0,0,0-1.9-3.26,5.71,5.71,0,0,0-4.06-1.38A6,6,0,0,0,589,838a7.05,7.05,0,0,0-2.37,3.09,12.24,12.24,0,0,0-.84,4.74v0a12.12,12.12,0,0,0,.85,4.8,6.82,6.82,0,0,0,2.38,3,6.16,6.16,0,0,0,3.58,1,5.87,5.87,0,0,0,3.94-1.28,6.16,6.16,0,0,0,2-3.36l0-.19h5.08v.17a9.72,9.72,0,0,1-1.74,4.62,10.21,10.21,0,0,1-3.84,3.27,11.86,11.86,0,0,1-5.48,1.21A12.43,12.43,0,0,1,586.12,857.57Z"/><path class="cls-5" d="M607.62,823.46h5.3v13.77H613a7.49,7.49,0,0,1,3-3.48,9.36,9.36,0,0,1,4.92-1.23,8.81,8.81,0,0,1,4.79,1.28,8.65,8.65,0,0,1,3.18,3.6,12.15,12.15,0,0,1,1.13,5.42v15.87h-5.29V843.82a7.42,7.42,0,0,0-1.54-5,5.41,5.41,0,0,0-4.32-1.78,5.63,5.63,0,0,0-5.28,3.22,7.89,7.89,0,0,0-.75,3.54v14.87h-5.3Z"/><path class="cls-5" d="M639.69,857.58a10.63,10.63,0,0,1-4.18-4.61,16,16,0,0,1-1.45-7.05v0a16,16,0,0,1,1.46-7,11.17,11.17,0,0,1,4.13-4.69,12.69,12.69,0,0,1,12.46-.07,10.57,10.57,0,0,1,4,4.51,15.44,15.44,0,0,1,1.41,6.78v1.78H636.67v-3.73H655L652.37,847V844.9a10.82,10.82,0,0,0-.82-4.51,5.84,5.84,0,0,0-2.27-2.67,6.33,6.33,0,0,0-3.36-.88,6.08,6.08,0,0,0-5.71,3.65,10.23,10.23,0,0,0-.85,4.41V847a9.87,9.87,0,0,0,.84,4.26,6.17,6.17,0,0,0,2.4,2.71,7.1,7.1,0,0,0,3.69.94,7.39,7.39,0,0,0,2.76-.48,5.82,5.82,0,0,0,2-1.27,4.41,4.41,0,0,0,1.11-1.77l.07-.19h5l0,.27a9,9,0,0,1-1.19,2.9,10,10,0,0,1-2.29,2.5,10.6,10.6,0,0,1-3.3,1.75,13.5,13.5,0,0,1-4.25.63A12.42,12.42,0,0,1,639.69,857.58Z"/><path class="cls-5" d="M661.57,833h5.33v4.39H667a6.85,6.85,0,0,1,2.18-3.58,5.66,5.66,0,0,1,3.76-1.3,8.55,8.55,0,0,1,1.06.06c.32,0,.57.09.77.13v4.91a4.89,4.89,0,0,0-1-.21,11.94,11.94,0,0,0-1.41-.08,5.76,5.76,0,0,0-2.93.72,4.73,4.73,0,0,0-1.91,2.07,7.41,7.41,0,0,0-.65,3.26v15.31h-5.33Z"/><rect class="cls-8" x="455.56" y="895.65" width="332.19" height="12" transform="translate(1243.31 1803.29) rotate(180)"/><rect class="cls-3" x="440.56" y="851.68" width="15" height="30" transform="translate(896.12 1733.35) rotate(180)"/><rect class="cls-3" x="787.75" y="851.68" width="15" height="30" transform="translate(1590.5 1733.35) rotate(180)"/><rect class="cls-8" x="431.56" y="859.62" width="60" height="12" transform="translate(-404.06 1327.18) rotate(-90)"/><rect class="cls-8" x="751.75" y="859.64" width="60" height="12" transform="translate(-83.89 1647.39) rotate(-90)"/><path class="cls-5" d="M543.43,1123.61h22.36v4.74H548.9v10.25h16v4.59h-16v10.91h16.89v4.74H543.43Z"/><path class="cls-5" d="M574.91,1158.36a8.63,8.63,0,0,1-3.62-2.76,8.3,8.3,0,0,1-1.59-4.11l0-.22h5.22l.05.25a4.5,4.5,0,0,0,1.73,2.74,6.25,6.25,0,0,0,3.76,1,8.13,8.13,0,0,0,2.74-.4,3.86,3.86,0,0,0,1.73-1.16,2.79,2.79,0,0,0,.61-1.81v0a2.67,2.67,0,0,0-.8-2,6.71,6.71,0,0,0-2.89-1.26l-4.19-1a11.15,11.15,0,0,1-5.49-2.62,6.16,6.16,0,0,1-1.81-4.58v0a6.84,6.84,0,0,1,1.24-4.07,8.07,8.07,0,0,1,3.49-2.71,13.14,13.14,0,0,1,5.2-1,12.35,12.35,0,0,1,5.23,1,8.54,8.54,0,0,1,3.43,2.8,7.49,7.49,0,0,1,1.35,3.94v.29h-4.95l0-.17a4.13,4.13,0,0,0-1.51-2.74,5.39,5.39,0,0,0-3.52-1.06,6.61,6.61,0,0,0-2.46.41,3.64,3.64,0,0,0-1.62,1.18,3,3,0,0,0-.56,1.8v0a2.71,2.71,0,0,0,.88,2,6.37,6.37,0,0,0,2.93,1.29l4.2,1a11.52,11.52,0,0,1,5.58,2.55,6,6,0,0,1,1.65,4.43v0a6.65,6.65,0,0,1-1.35,4.13,8.69,8.69,0,0,1-3.69,2.78,13.64,13.64,0,0,1-5.39,1A14,14,0,0,1,574.91,1158.36Z"/><path class="cls-5" d="M599.08,1158.36a8.63,8.63,0,0,1-3.62-2.76,8.3,8.3,0,0,1-1.59-4.11l0-.22h5.22l0,.25a4.5,4.5,0,0,0,1.73,2.74,6.25,6.25,0,0,0,3.76,1,8.13,8.13,0,0,0,2.74-.4,3.86,3.86,0,0,0,1.73-1.16,2.79,2.79,0,0,0,.61-1.81v0a2.67,2.67,0,0,0-.8-2,6.71,6.71,0,0,0-2.89-1.26l-4.19-1a11.15,11.15,0,0,1-5.49-2.62,6.16,6.16,0,0,1-1.81-4.58v0a6.84,6.84,0,0,1,1.24-4.07,8.07,8.07,0,0,1,3.49-2.71,13.14,13.14,0,0,1,5.2-1,12.35,12.35,0,0,1,5.23,1,8.54,8.54,0,0,1,3.43,2.8,7.49,7.49,0,0,1,1.35,3.94v.29h-5l0-.17a4.13,4.13,0,0,0-1.51-2.74,5.39,5.39,0,0,0-3.52-1.06,6.61,6.61,0,0,0-2.46.41,3.64,3.64,0,0,0-1.62,1.18,3,3,0,0,0-.56,1.8v0a2.71,2.71,0,0,0,.88,2,6.37,6.37,0,0,0,2.93,1.29l4.2,1a11.52,11.52,0,0,1,5.58,2.55,6,6,0,0,1,1.65,4.43v0a6.65,6.65,0,0,1-1.35,4.13,8.69,8.69,0,0,1-3.69,2.78,13.64,13.64,0,0,1-5.39,1A14,14,0,0,1,599.08,1158.36Z"/><path class="cls-5" d="M623.62,1157.73a10.6,10.6,0,0,1-4.18-4.62,16.06,16.06,0,0,1-1.45-7v0a15.84,15.84,0,0,1,1.47-7,11.15,11.15,0,0,1,4.12-4.69,12.71,12.71,0,0,1,12.47-.07,10.55,10.55,0,0,1,4,4.51,15.3,15.3,0,0,1,1.42,6.78v1.78H620.6v-3.74h18.31l-2.61,3.5v-2a10.82,10.82,0,0,0-.82-4.51,5.79,5.79,0,0,0-2.27-2.67,6.3,6.3,0,0,0-3.35-.88,6.11,6.11,0,0,0-5.72,3.65,10.2,10.2,0,0,0-.85,4.41v2a9.87,9.87,0,0,0,.84,4.26,6.13,6.13,0,0,0,2.41,2.71,7.06,7.06,0,0,0,3.68.94,7.39,7.39,0,0,0,2.76-.48,5.82,5.82,0,0,0,2-1.27,4.41,4.41,0,0,0,1.11-1.77l.08-.19h5l-.05.26a8.93,8.93,0,0,1-1.2,2.91,10.13,10.13,0,0,1-2.28,2.5,11,11,0,0,1-3.31,1.75,13.5,13.5,0,0,1-4.25.63A12.42,12.42,0,0,1,623.62,1157.73Z"/><path class="cls-5" d="M645.51,1133.16h5.32V1137h.1a8,8,0,0,1,3-3.16,9.15,9.15,0,0,1,4.88-1.21,8.41,8.41,0,0,1,6.55,2.55,10,10,0,0,1,2.31,7v16.63h-5.29v-15.6a6.63,6.63,0,0,0-1.36-4.47,5.13,5.13,0,0,0-4.09-1.56,6.16,6.16,0,0,0-3.23.83,5.56,5.56,0,0,0-2.13,2.32,7.83,7.83,0,0,0-.74,3.51v15h-5.32Z"/><path class="cls-5" d="M691.92,1129.05h-.12l-9.21,6.35v-5.2l9.28-6.59h5.42v35.23h-5.37Z"/><rect class="cls-8" x="455.56" y="1054.65" width="332.19" height="12" transform="translate(1243.31 2121.31) rotate(180)"/><rect class="cls-3" x="440.56" y="979.65" width="15" height="30" transform="translate(896.12 1989.31) rotate(180)"/><rect class="cls-3" x="787.75" y="979.65" width="15" height="30" transform="translate(1590.5 1989.31) rotate(180)"/><rect class="cls-8" x="401.56" y="988.65" width="120" height="12" transform="translate(-533.1 1456.21) rotate(-90)"/><rect class="cls-8" x="721.75" y="988.65" width="120" height="12" transform="translate(-212.9 1776.4) rotate(-90)"/><path class="cls-5" d="M539.5,1002.41a14.86,14.86,0,0,1-5.7-6.35,22.05,22.05,0,0,1-2-9.78v0a21.31,21.31,0,0,1,2-9.6,14.6,14.6,0,0,1,5.69-6.22,18.37,18.37,0,0,1,15.87-.75,13.55,13.55,0,0,1,5,4,14.4,14.4,0,0,1,2.69,5.71l.1.42h-5.64l-.1-.27a9.61,9.61,0,0,0-3.45-4.74,9.74,9.74,0,0,0-5.8-1.68,10.48,10.48,0,0,0-5.78,1.56,9.91,9.91,0,0,0-3.72,4.5,17.58,17.58,0,0,0-1.29,7.07v0a17.93,17.93,0,0,0,1.33,7.24,10.41,10.41,0,0,0,3.77,4.66,10.22,10.22,0,0,0,5.79,1.62,10.88,10.88,0,0,0,5-1.12,8.48,8.48,0,0,0,3.41-3.14,8.79,8.79,0,0,0,1.26-4.67v-.59h-9.23v-4.47H563.4v3.62a17.29,17.29,0,0,1-1.8,8.17,12.4,12.4,0,0,1-5.2,5.24,17.16,17.16,0,0,1-8.18,1.82A16.49,16.49,0,0,1,539.5,1002.41Z"/><path class="cls-5" d="M572.59,1002.94a10.67,10.67,0,0,1-4.17-4.61,15.92,15.92,0,0,1-1.45-7v0a15.84,15.84,0,0,1,1.46-7,11.09,11.09,0,0,1,4.13-4.68,11.43,11.43,0,0,1,6.25-1.68,11.66,11.66,0,0,1,6.21,1.6,10.66,10.66,0,0,1,4,4.52,15.37,15.37,0,0,1,1.41,6.77v1.79H569.58v-3.74h18.31l-2.61,3.49v-2a10.9,10.9,0,0,0-.82-4.5,5.88,5.88,0,0,0-2.27-2.68,6.43,6.43,0,0,0-3.36-.88,6.23,6.23,0,0,0-3.37.93,6.34,6.34,0,0,0-2.34,2.72,10.23,10.23,0,0,0-.86,4.41v2a9.72,9.72,0,0,0,.85,4.26,6.17,6.17,0,0,0,2.4,2.71,7,7,0,0,0,3.69.94,7.6,7.6,0,0,0,2.76-.47,5.91,5.91,0,0,0,2-1.27,4.41,4.41,0,0,0,1.11-1.77l.07-.2h5l0,.27a8.59,8.59,0,0,1-1.2,2.9,9.79,9.79,0,0,1-2.28,2.51,10.63,10.63,0,0,1-3.31,1.74,13.43,13.43,0,0,1-4.24.64A12.39,12.39,0,0,1,572.59,1002.94Z"/><path class="cls-5" d="M598.62,1003.58a8.66,8.66,0,0,1-3.63-2.76,8.33,8.33,0,0,1-1.58-4.11l0-.22h5.23l0,.24a4.48,4.48,0,0,0,1.73,2.75,6.23,6.23,0,0,0,3.76,1,8.09,8.09,0,0,0,2.73-.41,3.82,3.82,0,0,0,1.74-1.16,2.8,2.8,0,0,0,.61-1.8v0a2.6,2.6,0,0,0-.81-2,6.71,6.71,0,0,0-2.88-1.27l-4.2-.95a11.11,11.11,0,0,1-5.48-2.63,6.15,6.15,0,0,1-1.82-4.57v0a6.81,6.81,0,0,1,1.25-4.06,8,8,0,0,1,3.49-2.71,12.93,12.93,0,0,1,5.2-1,12.12,12.12,0,0,1,5.22,1,8.31,8.31,0,0,1,3.43,2.79,7.53,7.53,0,0,1,1.36,3.95v.29h-5l0-.17a4.11,4.11,0,0,0-1.52-2.75A5.35,5.35,0,0,0,604,982a6.83,6.83,0,0,0-2.47.41,3.57,3.57,0,0,0-1.61,1.19,3,3,0,0,0-.56,1.79v0a2.63,2.63,0,0,0,.88,2,6.32,6.32,0,0,0,2.93,1.29l4.2,1a11.52,11.52,0,0,1,5.58,2.55,6,6,0,0,1,1.64,4.43v0a6.61,6.61,0,0,1-1.34,4.12,8.82,8.82,0,0,1-3.7,2.79,13.76,13.76,0,0,1-5.38,1A14,14,0,0,1,598.62,1003.58Z"/><path class="cls-5" d="M623.23,1002.93a10.88,10.88,0,0,1-4.23-4.64,16,16,0,0,1-1.47-7.1v0a15.5,15.5,0,0,1,1.5-7,10.86,10.86,0,0,1,4.24-4.6,13.43,13.43,0,0,1,12.09-.37,9.87,9.87,0,0,1,3.77,3.33,9.61,9.61,0,0,1,1.59,4.49l0,.2h-5.06l-.05-.22a6.22,6.22,0,0,0-1.89-3.26,5.71,5.71,0,0,0-4.06-1.38,5.94,5.94,0,0,0-3.56,1.09,7,7,0,0,0-2.36,3.09,12,12,0,0,0-.85,4.73v0a12.06,12.06,0,0,0,.86,4.79,6.82,6.82,0,0,0,2.38,3,6.15,6.15,0,0,0,3.57,1,5.85,5.85,0,0,0,3.95-1.28,6.13,6.13,0,0,0,2-3.36l0-.19h5.08v.17a9.91,9.91,0,0,1-1.75,4.63,10.28,10.28,0,0,1-3.83,3.27,12,12,0,0,1-5.48,1.21A12.43,12.43,0,0,1,623.23,1002.93Z"/><path class="cls-5" d="M644.73,968.82H650v13.77h.13a7.49,7.49,0,0,1,3-3.47,9.27,9.27,0,0,1,4.92-1.24,8.87,8.87,0,0,1,4.8,1.28,8.59,8.59,0,0,1,3.17,3.61,12.12,12.12,0,0,1,1.14,5.42v15.86h-5.3V989.19a7.33,7.33,0,0,0-1.54-5,5.38,5.38,0,0,0-4.32-1.79,5.66,5.66,0,0,0-5.27,3.23,7.76,7.76,0,0,0-.76,3.54v14.86h-5.29Z"/><path class="cls-5" d="M673,973.52a3,3,0,0,1,0-4.3,3.13,3.13,0,0,1,4.35,0,3,3,0,0,1,0,4.3,3.08,3.08,0,0,1-4.35,0Zm-.49,4.85h5.32v25.68h-5.32Z"/><path class="cls-5" d="M683.23,978.37h5.32v4.4h.1a6.76,6.76,0,0,1,2.17-3.58,5.67,5.67,0,0,1,3.76-1.31,8.55,8.55,0,0,1,1.06.06,6.45,6.45,0,0,1,.77.14V983a4.24,4.24,0,0,0-.95-.2,10.28,10.28,0,0,0-1.42-.09,5.76,5.76,0,0,0-2.93.72,4.68,4.68,0,0,0-1.9,2.08,7.37,7.37,0,0,0-.66,3.26v15.3h-5.32Z"/><path class="cls-5" d="M699.66,978.37H705v4.4h.1a6.76,6.76,0,0,1,2.17-3.58,5.67,5.67,0,0,1,3.76-1.31,8.55,8.55,0,0,1,1.06.06,6.09,6.09,0,0,1,.77.14V983a4.24,4.24,0,0,0-1-.2,10.28,10.28,0,0,0-1.42-.09,5.76,5.76,0,0,0-2.93.72,4.68,4.68,0,0,0-1.9,2.08,7.37,7.37,0,0,0-.66,3.26v15.3h-5.32Z"/><rect class="cls-8" x="455.56" y="1352.76" width="332.19" height="12" transform="translate(1243.31 2717.52) rotate(180)"/><rect class="cls-3" x="440.56" y="1277.76" width="15" height="30" transform="translate(896.12 2585.52) rotate(180)"/><rect class="cls-3" x="787.75" y="1277.76" width="15" height="30" transform="translate(1590.5 2585.52) rotate(180)"/><rect class="cls-8" x="401.56" y="1286.76" width="120" height="12" transform="translate(-831.2 1754.32) rotate(-90)"/><rect class="cls-8" x="721.75" y="1286.76" width="120" height="12" transform="translate(-511.01 2074.51) rotate(-90)"/><path class="cls-5" d="M540.37,1266.93h22.36v4.74H545.84v10.25h16v4.59h-16v10.91h16.89v4.74H540.37Z"/><path class="cls-5" d="M571.85,1301.68a8.66,8.66,0,0,1-3.63-2.76,8.33,8.33,0,0,1-1.58-4.11l0-.22h5.23l0,.24a4.45,4.45,0,0,0,1.73,2.75,6.23,6.23,0,0,0,3.76,1,8.11,8.11,0,0,0,2.73-.4,3.9,3.9,0,0,0,1.74-1.16,2.85,2.85,0,0,0,.61-1.81v0a2.64,2.64,0,0,0-.81-2,6.83,6.83,0,0,0-2.88-1.27l-4.2-1a11.19,11.19,0,0,1-5.48-2.62,6.19,6.19,0,0,1-1.82-4.58v0a6.82,6.82,0,0,1,1.25-4.07A8.07,8.07,0,0,1,572,1277a13.11,13.11,0,0,1,5.2-1,12.27,12.27,0,0,1,5.22,1,8.33,8.33,0,0,1,3.43,2.8,7.5,7.5,0,0,1,1.36,3.94v.29h-5l0-.17a4.08,4.08,0,0,0-1.52-2.74,5.35,5.35,0,0,0-3.51-1.07,6.62,6.62,0,0,0-2.47.42,3.55,3.55,0,0,0-1.61,1.18,3,3,0,0,0-.56,1.8v0a2.63,2.63,0,0,0,.88,2,6.22,6.22,0,0,0,2.93,1.3l4.2,1a11.52,11.52,0,0,1,5.57,2.56,6,6,0,0,1,1.65,4.43v0a6.66,6.66,0,0,1-1.34,4.13,8.81,8.81,0,0,1-3.7,2.78,13.58,13.58,0,0,1-5.38,1A14,14,0,0,1,571.85,1301.68Z"/><path class="cls-5" d="M596,1301.68a8.66,8.66,0,0,1-3.63-2.76,8.24,8.24,0,0,1-1.58-4.11l0-.22H596l0,.24a4.45,4.45,0,0,0,1.73,2.75,6.23,6.23,0,0,0,3.76,1,8.11,8.11,0,0,0,2.73-.4A3.9,3.9,0,0,0,606,1297a2.85,2.85,0,0,0,.61-1.81v0a2.64,2.64,0,0,0-.81-2,6.83,6.83,0,0,0-2.88-1.27l-4.2-1a11.19,11.19,0,0,1-5.48-2.62,6.19,6.19,0,0,1-1.82-4.58v0a6.82,6.82,0,0,1,1.25-4.07,8.07,8.07,0,0,1,3.49-2.71,13.11,13.11,0,0,1,5.2-1,12.27,12.27,0,0,1,5.22,1,8.33,8.33,0,0,1,3.43,2.8,7.5,7.5,0,0,1,1.36,3.94v.29h-5l0-.17a4.08,4.08,0,0,0-1.52-2.74,5.35,5.35,0,0,0-3.51-1.07,6.62,6.62,0,0,0-2.47.42,3.55,3.55,0,0,0-1.61,1.18,3,3,0,0,0-.56,1.8v0a2.63,2.63,0,0,0,.88,2,6.22,6.22,0,0,0,2.93,1.3l4.2,1a11.52,11.52,0,0,1,5.57,2.56,6,6,0,0,1,1.65,4.43v0a6.66,6.66,0,0,1-1.34,4.13,8.87,8.87,0,0,1-3.7,2.78,13.58,13.58,0,0,1-5.38,1A14,14,0,0,1,596,1301.68Z"/><path class="cls-5" d="M620.56,1301.05a10.6,10.6,0,0,1-4.18-4.62,15.92,15.92,0,0,1-1.45-7v0a16,16,0,0,1,1.46-7,11.11,11.11,0,0,1,4.13-4.69,11.45,11.45,0,0,1,6.25-1.67,11.57,11.57,0,0,1,6.21,1.6,10.57,10.57,0,0,1,4,4.51,15.44,15.44,0,0,1,1.41,6.78v1.78H617.54v-3.74h18.31l-2.61,3.5v-2.06a10.81,10.81,0,0,0-.82-4.5,5.8,5.8,0,0,0-2.27-2.67,6.33,6.33,0,0,0-3.36-.88,6.08,6.08,0,0,0-5.71,3.65,10.16,10.16,0,0,0-.85,4.4v2.06a9.87,9.87,0,0,0,.84,4.26,6.22,6.22,0,0,0,2.4,2.71,7.08,7.08,0,0,0,3.69.94,7.39,7.39,0,0,0,2.76-.48,5.82,5.82,0,0,0,2-1.27,4.41,4.41,0,0,0,1.11-1.77l.07-.2h5l0,.27a8.91,8.91,0,0,1-1.19,2.91,10,10,0,0,1-2.29,2.5,10.86,10.86,0,0,1-3.31,1.75,13.39,13.39,0,0,1-4.24.63A12.42,12.42,0,0,1,620.56,1301.05Z"/><path class="cls-5" d="M642.44,1276.47h5.32v3.89h.1a8.15,8.15,0,0,1,3-3.17,9.28,9.28,0,0,1,4.89-1.2,8.4,8.4,0,0,1,6.54,2.55,10,10,0,0,1,2.32,7v16.63h-5.3v-15.6a6.63,6.63,0,0,0-1.35-4.47,5.14,5.14,0,0,0-4.09-1.56,6.1,6.1,0,0,0-3.24.83,5.42,5.42,0,0,0-2.12,2.32,7.7,7.7,0,0,0-.75,3.51v15h-5.32Z"/><path class="cls-5" d="M679.92,1298.4l12.42-12.48a49.18,49.18,0,0,0,3.59-3.9,10.71,10.71,0,0,0,1.69-2.77,7.34,7.34,0,0,0,.46-2.6v-.05a5.55,5.55,0,0,0-.79-3,5.63,5.63,0,0,0-2.16-2,6.61,6.61,0,0,0-3.18-.73,7.65,7.65,0,0,0-3.65.85,6.72,6.72,0,0,0-2.52,2.29,5.74,5.74,0,0,0-.93,3.21l0,.17h-5.17v-.17a10.1,10.1,0,0,1,1.61-5.62,11,11,0,0,1,4.41-3.86,13.82,13.82,0,0,1,6.21-1.39,13.31,13.31,0,0,1,6,1.3,10.07,10.07,0,0,1,4.09,3.55,9.16,9.16,0,0,1,1.48,5.11v0a10,10,0,0,1-.74,3.81,15.79,15.79,0,0,1-2.5,4,72.53,72.53,0,0,1-4.94,5.32l-9.86,9.67,1.85-3.52v3.52l-1.85-1.59H704v4.62H679.92Z"/><rect class="cls-8" x="455.56" y="1209.44" width="332.19" height="12" transform="translate(1243.31 2430.88) rotate(180)"/><rect class="cls-3" x="440.56" y="1134.44" width="15" height="30" transform="translate(896.12 2298.88) rotate(180)"/><rect class="cls-3" x="787.75" y="1134.44" width="15" height="30" transform="translate(1590.5 2298.88) rotate(180)"/><rect class="cls-8" x="401.56" y="1143.44" width="120" height="12" transform="translate(-687.88 1611) rotate(-90)"/><rect class="cls-8" x="721.75" y="1143.44" width="120" height="12" transform="translate(-367.69 1931.19) rotate(-90)"/><path class="cls-5" d="M543.43,1123.61h22.36v4.74H548.9v10.25h16v4.59h-16v10.91h16.89v4.74H543.43Z"/><path class="cls-5" d="M574.91,1158.36a8.63,8.63,0,0,1-3.62-2.76,8.3,8.3,0,0,1-1.59-4.11l0-.22h5.22l.05.25a4.5,4.5,0,0,0,1.73,2.74,6.25,6.25,0,0,0,3.76,1,8.13,8.13,0,0,0,2.74-.4,3.86,3.86,0,0,0,1.73-1.16,2.79,2.79,0,0,0,.61-1.81v0a2.67,2.67,0,0,0-.8-2,6.71,6.71,0,0,0-2.89-1.26l-4.19-1a11.15,11.15,0,0,1-5.49-2.62,6.16,6.16,0,0,1-1.81-4.58v0a6.84,6.84,0,0,1,1.24-4.07,8.07,8.07,0,0,1,3.49-2.71,13.14,13.14,0,0,1,5.2-1,12.35,12.35,0,0,1,5.23,1,8.54,8.54,0,0,1,3.43,2.8,7.49,7.49,0,0,1,1.35,3.94v.29h-4.95l0-.17a4.13,4.13,0,0,0-1.51-2.74,5.39,5.39,0,0,0-3.52-1.06,6.61,6.61,0,0,0-2.46.41,3.64,3.64,0,0,0-1.62,1.18,3,3,0,0,0-.56,1.8v0a2.71,2.71,0,0,0,.88,2,6.37,6.37,0,0,0,2.93,1.29l4.2,1a11.52,11.52,0,0,1,5.58,2.55,6,6,0,0,1,1.65,4.43v0a6.65,6.65,0,0,1-1.35,4.13,8.69,8.69,0,0,1-3.69,2.78,13.64,13.64,0,0,1-5.39,1A14,14,0,0,1,574.91,1158.36Z"/><path class="cls-5" d="M599.08,1158.36a8.63,8.63,0,0,1-3.62-2.76,8.3,8.3,0,0,1-1.59-4.11l0-.22h5.22l0,.25a4.5,4.5,0,0,0,1.73,2.74,6.25,6.25,0,0,0,3.76,1,8.13,8.13,0,0,0,2.74-.4,3.86,3.86,0,0,0,1.73-1.16,2.79,2.79,0,0,0,.61-1.81v0a2.67,2.67,0,0,0-.8-2,6.71,6.71,0,0,0-2.89-1.26l-4.19-1a11.15,11.15,0,0,1-5.49-2.62,6.16,6.16,0,0,1-1.81-4.58v0a6.84,6.84,0,0,1,1.24-4.07,8.07,8.07,0,0,1,3.49-2.71,13.14,13.14,0,0,1,5.2-1,12.35,12.35,0,0,1,5.23,1,8.54,8.54,0,0,1,3.43,2.8,7.49,7.49,0,0,1,1.35,3.94v.29h-5l0-.17a4.13,4.13,0,0,0-1.51-2.74,5.39,5.39,0,0,0-3.52-1.06,6.61,6.61,0,0,0-2.46.41,3.64,3.64,0,0,0-1.62,1.18,3,3,0,0,0-.56,1.8v0a2.71,2.71,0,0,0,.88,2,6.37,6.37,0,0,0,2.93,1.29l4.2,1a11.52,11.52,0,0,1,5.58,2.55,6,6,0,0,1,1.65,4.43v0a6.65,6.65,0,0,1-1.35,4.13,8.69,8.69,0,0,1-3.69,2.78,13.64,13.64,0,0,1-5.39,1A14,14,0,0,1,599.08,1158.36Z"/><path class="cls-5" d="M623.62,1157.73a10.6,10.6,0,0,1-4.18-4.62,16.06,16.06,0,0,1-1.45-7v0a15.84,15.84,0,0,1,1.47-7,11.15,11.15,0,0,1,4.12-4.69,12.71,12.71,0,0,1,12.47-.07,10.55,10.55,0,0,1,4,4.51,15.3,15.3,0,0,1,1.42,6.78v1.78H620.6v-3.74h18.31l-2.61,3.5v-2a10.82,10.82,0,0,0-.82-4.51,5.79,5.79,0,0,0-2.27-2.67,6.3,6.3,0,0,0-3.35-.88,6.11,6.11,0,0,0-5.72,3.65,10.2,10.2,0,0,0-.85,4.41v2a9.87,9.87,0,0,0,.84,4.26,6.13,6.13,0,0,0,2.41,2.71,7.06,7.06,0,0,0,3.68.94,7.39,7.39,0,0,0,2.76-.48,5.82,5.82,0,0,0,2-1.27,4.41,4.41,0,0,0,1.11-1.77l.08-.19h5l-.05.26a8.93,8.93,0,0,1-1.2,2.91,10.13,10.13,0,0,1-2.28,2.5,11,11,0,0,1-3.31,1.75,13.5,13.5,0,0,1-4.25.63A12.42,12.42,0,0,1,623.62,1157.73Z"/><path class="cls-5" d="M645.51,1133.16h5.32V1137h.1a8,8,0,0,1,3-3.16,9.15,9.15,0,0,1,4.88-1.21,8.41,8.41,0,0,1,6.55,2.55,10,10,0,0,1,2.31,7v16.63h-5.29v-15.6a6.63,6.63,0,0,0-1.36-4.47,5.13,5.13,0,0,0-4.09-1.56,6.16,6.16,0,0,0-3.23.83,5.56,5.56,0,0,0-2.13,2.32,7.83,7.83,0,0,0-.74,3.51v15h-5.32Z"/><path class="cls-5" d="M691.92,1129.05h-.12l-9.21,6.35v-5.2l9.28-6.59h5.42v35.23h-5.37Z"/><line class="cls-10" x1="1033.05" y1="477.26" x2="665.83" y2="477.26"/><rect class="cls-11" x="1030.55" y="461.01" width="5" height="32.5"/><rect class="cls-11" x="663.33" y="461.01" width="5" height="32.5"/><path class="cls-11" d="M786.27,516.57a8.66,8.66,0,0,1-3.57-2.79,7.94,7.94,0,0,1-1.5-4.09l0-.24h4.22l0,.22a4.23,4.23,0,0,0,1.84,3.06,8.07,8.07,0,0,0,7.29.6,4.88,4.88,0,0,0,2-1.65,4.14,4.14,0,0,0,.72-2.4v0a4.38,4.38,0,0,0-1.62-3.66,6.93,6.93,0,0,0-4.43-1.28H787.8v-3.44h3.3a6.43,6.43,0,0,0,2.82-.58,4.46,4.46,0,0,0,1.9-1.59,4.07,4.07,0,0,0,.67-2.32v0a4.4,4.4,0,0,0-.58-2.33,3.66,3.66,0,0,0-1.69-1.45,6.76,6.76,0,0,0-2.73-.5,7.05,7.05,0,0,0-2.77.51,4.71,4.71,0,0,0-1.94,1.46,4.58,4.58,0,0,0-.86,2.27l0,.19h-4.14l0-.21a8.18,8.18,0,0,1,4.86-6.85,11.53,11.53,0,0,1,4.85-1,11.93,11.93,0,0,1,4.9.93,7.57,7.57,0,0,1,3.25,2.56,6.55,6.55,0,0,1,1.15,3.81v0a6.14,6.14,0,0,1-.77,3.1,6.67,6.67,0,0,1-2.11,2.22,8.4,8.4,0,0,1-3.06,1.24v.1a7.94,7.94,0,0,1,5,2.05,6.28,6.28,0,0,1,1.89,4.77v0a7.28,7.28,0,0,1-1.3,4.27,8.76,8.76,0,0,1-3.61,2.93,12.48,12.48,0,0,1-5.3,1.06A12.79,12.79,0,0,1,786.27,516.57Z"/><path class="cls-11" d="M810.55,516.54a9,9,0,0,1-3.77-2.86,6.84,6.84,0,0,1-1.36-4.21v0a6.76,6.76,0,0,1,.79-3.25,7.46,7.46,0,0,1,2.19-2.5,8.45,8.45,0,0,1,3.25-1.41v-.1a7.56,7.56,0,0,1-3.78-2.34,5.74,5.74,0,0,1-1.42-3.89v0a6.32,6.32,0,0,1,1.23-3.83,8.34,8.34,0,0,1,3.41-2.65,13.4,13.4,0,0,1,10,0,8.34,8.34,0,0,1,3.41,2.65,6.32,6.32,0,0,1,1.23,3.83v0a5.79,5.79,0,0,1-1.41,3.89,7.51,7.51,0,0,1-3.79,2.34v.1a8.36,8.36,0,0,1,3.26,1.41,7.43,7.43,0,0,1,2.18,2.5,6.77,6.77,0,0,1,.8,3.25v0a6.91,6.91,0,0,1-1.36,4.21,9,9,0,0,1-3.77,2.86,15.2,15.2,0,0,1-11.05,0Zm8.7-3.1a5.23,5.23,0,0,0,2.17-1.73,4.23,4.23,0,0,0,.79-2.53v0a4.32,4.32,0,0,0-.78-2.54,5.28,5.28,0,0,0-2.17-1.75,8.39,8.39,0,0,0-6.38,0,5.28,5.28,0,0,0-2.17,1.75,4.32,4.32,0,0,0-.78,2.54v0a4.23,4.23,0,0,0,.79,2.53,5.26,5.26,0,0,0,2.18,1.73,7.74,7.74,0,0,0,3.18.62A7.66,7.66,0,0,0,819.25,513.44Zm-.43-13.31a4.52,4.52,0,0,0,1.86-1.55,3.85,3.85,0,0,0,.67-2.25v0a3.91,3.91,0,0,0-.67-2.27,4.55,4.55,0,0,0-1.86-1.53,7,7,0,0,0-5.49,0,4.52,4.52,0,0,0-1.87,1.53,3.91,3.91,0,0,0-.67,2.27v0a3.85,3.85,0,0,0,.67,2.25,4.52,4.52,0,0,0,1.86,1.55,7.15,7.15,0,0,0,5.5,0Z"/><path class="cls-11" d="M835.09,515.8a11.17,11.17,0,0,1-3.7-5A21,21,0,0,1,830.1,503v0a21.05,21.05,0,0,1,1.29-7.74,11.11,11.11,0,0,1,3.7-5,10.31,10.31,0,0,1,11.55,0,11.19,11.19,0,0,1,3.71,5,21,21,0,0,1,1.3,7.74v0a21,21,0,0,1-1.3,7.73,11.26,11.26,0,0,1-3.71,5,10.26,10.26,0,0,1-11.55,0Zm9.2-3.2a8.23,8.23,0,0,0,2.17-3.75,20,20,0,0,0,.75-5.82v0a19.85,19.85,0,0,0-.75-5.81,8.24,8.24,0,0,0-2.17-3.74,5.13,5.13,0,0,0-6.85,0,8.14,8.14,0,0,0-2.16,3.74,19.87,19.87,0,0,0-.74,5.81v0a20,20,0,0,0,.74,5.82,8.13,8.13,0,0,0,2.16,3.75,5.13,5.13,0,0,0,6.85,0Z"/><path class="cls-11" d="M855.44,496.56h4.25v3.19h.08a5.55,5.55,0,0,1,2.17-2.6,6.31,6.31,0,0,1,3.52-1,6.68,6.68,0,0,1,2.54.47,5.25,5.25,0,0,1,2,1.38,5.73,5.73,0,0,1,1.21,2.2h.1a6.28,6.28,0,0,1,1.47-2.16,6.6,6.6,0,0,1,2.21-1.4,7.59,7.59,0,0,1,2.72-.49,7.16,7.16,0,0,1,3.54.85,6.06,6.06,0,0,1,2.34,2.37,7.31,7.31,0,0,1,.84,3.58v14.14h-4.26V504a4.42,4.42,0,0,0-1-3.09,3.75,3.75,0,0,0-2.91-1.1,4.16,4.16,0,0,0-2.2.56,4,4,0,0,0-1.48,1.58,4.86,4.86,0,0,0-.54,2.31v12.85h-4.16V503.69a3.61,3.61,0,0,0-3.89-3.88,4.1,4.1,0,0,0-2.2.59,4.24,4.24,0,0,0-1.51,1.63,5.09,5.09,0,0,0-.55,2.38v12.7h-4.25Z"/><path class="cls-11" d="M888.44,496.56h4.26v3.19h.08a5.49,5.49,0,0,1,2.17-2.6,6.3,6.3,0,0,1,3.51-1,6.7,6.7,0,0,1,2.55.47,5.33,5.33,0,0,1,2,1.38,5.73,5.73,0,0,1,1.21,2.2h.09a6.44,6.44,0,0,1,1.48-2.16,6.6,6.6,0,0,1,2.21-1.4,7.55,7.55,0,0,1,2.72-.49,7.19,7.19,0,0,1,3.54.85,6.06,6.06,0,0,1,2.34,2.37,7.31,7.31,0,0,1,.84,3.58v14.14h-4.26V504a4.42,4.42,0,0,0-1-3.09,3.75,3.75,0,0,0-2.91-1.1,4.16,4.16,0,0,0-2.2.56,4.05,4.05,0,0,0-1.49,1.58,5,5,0,0,0-.53,2.31v12.85h-4.16V503.69a3.61,3.61,0,0,0-3.89-3.88,4.1,4.1,0,0,0-2.2.59,4.16,4.16,0,0,0-1.51,1.63,5,5,0,0,0-.55,2.38v12.7h-4.26Z"/><rect class="cls-8" x="-529.91" y="728.29" width="1300.26" height="18" transform="translate(857.51 617.07) rotate(90)"/><rect class="cls-8" x="-529.91" y="728.29" width="1300.26" height="18" transform="translate(857.51 617.07) rotate(90)"/><rect class="cls-8" x="1100.55" y="118.19" width="80.07" height="18" transform="translate(1267.78 -1013.39) rotate(90)"/><rect class="cls-8" x="129.43" y="167.16" width="1020.13" height="20"/><line class="cls-10" x1="1166.06" y1="60.15" x2="116.93" y2="60.15"/><rect class="cls-11" x="1163.56" y="43.9" width="5" height="32.5"/><rect class="cls-11" x="114.43" y="43.9" width="5" height="32.5"/><path class="cls-11" d="M571.35,22.71h-.1l-7.36,5.08V23.63l7.42-5.28h4.34V46.54h-4.3Z"/><path class="cls-11" d="M587,45.23a11.2,11.2,0,0,1-3.7-5A21,21,0,0,1,582,32.46v0a21.05,21.05,0,0,1,1.29-7.74,11.12,11.12,0,0,1,3.7-5,10.35,10.35,0,0,1,11.55,0,11.28,11.28,0,0,1,3.71,5,21,21,0,0,1,1.3,7.74v0a21,21,0,0,1-1.3,7.73,11.37,11.37,0,0,1-3.71,5,10.26,10.26,0,0,1-11.55,0Zm9.2-3.2a8.33,8.33,0,0,0,2.17-3.75,20,20,0,0,0,.75-5.82v0a19.8,19.8,0,0,0-.75-5.81,8.19,8.19,0,0,0-2.17-3.74,5.13,5.13,0,0,0-6.85,0,8.09,8.09,0,0,0-2.16,3.74,19.83,19.83,0,0,0-.74,5.81v0a20,20,0,0,0,.74,5.82A8.23,8.23,0,0,0,589.37,42a5.16,5.16,0,0,0,6.85,0Z"/><path class="cls-11" d="M612.13,46a9,9,0,0,1-3.77-2.86A6.85,6.85,0,0,1,607,38.9v0a6.85,6.85,0,0,1,.79-3.25,7.4,7.4,0,0,1,2.2-2.5,8.48,8.48,0,0,1,3.24-1.42V31.6a7.72,7.72,0,0,1-3.78-2.34A5.8,5.8,0,0,1,608,25.37v0a6.3,6.3,0,0,1,1.23-3.83,8.34,8.34,0,0,1,3.41-2.65,13.4,13.4,0,0,1,10,0A8.34,8.34,0,0,1,626,21.5a6.3,6.3,0,0,1,1.23,3.83v0a5.8,5.8,0,0,1-1.41,3.89,7.62,7.62,0,0,1-3.79,2.34v.09a8.33,8.33,0,0,1,3.25,1.42,7.48,7.48,0,0,1,2.19,2.5,6.74,6.74,0,0,1,.79,3.25v0a6.84,6.84,0,0,1-1.36,4.21A8.94,8.94,0,0,1,623.18,46a15.2,15.2,0,0,1-11,0Zm8.7-3.1A5.37,5.37,0,0,0,623,41.14a4.23,4.23,0,0,0,.79-2.53v0A4.32,4.32,0,0,0,623,36a5.28,5.28,0,0,0-2.17-1.75,7.58,7.58,0,0,0-3.18-.63,7.73,7.73,0,0,0-3.21.63A5.32,5.32,0,0,0,612.29,36a4.32,4.32,0,0,0-.78,2.54v0a4.23,4.23,0,0,0,.79,2.53,5.31,5.31,0,0,0,2.17,1.73,7.83,7.83,0,0,0,3.19.62A7.69,7.69,0,0,0,620.83,42.87Zm-.43-13.31A4.59,4.59,0,0,0,622.26,28a3.9,3.9,0,0,0,.67-2.25v0a3.89,3.89,0,0,0-.67-2.27,4.52,4.52,0,0,0-1.87-1.53,6.37,6.37,0,0,0-2.73-.56,6.51,6.51,0,0,0-2.76.56A4.55,4.55,0,0,0,613,23.45a3.9,3.9,0,0,0-.68,2.27v0A3.9,3.9,0,0,0,613,28a4.63,4.63,0,0,0,1.85,1.55,6.46,6.46,0,0,0,2.77.55A6.38,6.38,0,0,0,620.4,29.56Z"/><path class="cls-11" d="M636.67,45.23a11.2,11.2,0,0,1-3.7-5,21,21,0,0,1-1.29-7.73v0A21.05,21.05,0,0,1,633,24.68a11.12,11.12,0,0,1,3.7-5,10.34,10.34,0,0,1,11.54,0,11.22,11.22,0,0,1,3.72,5,21.05,21.05,0,0,1,1.29,7.74v0a21,21,0,0,1-1.29,7.73,11.31,11.31,0,0,1-3.72,5,10.24,10.24,0,0,1-11.54,0Zm9.2-3.2A8.33,8.33,0,0,0,648,38.28a20,20,0,0,0,.75-5.82v0a19.8,19.8,0,0,0-.75-5.81,8.19,8.19,0,0,0-2.17-3.74,5.13,5.13,0,0,0-6.85,0,8.09,8.09,0,0,0-2.16,3.74,19.8,19.8,0,0,0-.75,5.81v0a20,20,0,0,0,.75,5.82A8.23,8.23,0,0,0,639,42a5.16,5.16,0,0,0,6.85,0Z"/><path class="cls-11" d="M657,26h4.26v3.18h.08a5.47,5.47,0,0,1,2.17-2.59,6.3,6.3,0,0,1,3.51-1,6.7,6.7,0,0,1,2.55.47,5.22,5.22,0,0,1,2,1.38,5.71,5.71,0,0,1,1.22,2.19h.09a6.46,6.46,0,0,1,3.68-3.55,7.4,7.4,0,0,1,2.73-.49,7,7,0,0,1,3.53.85,6,6,0,0,1,2.35,2.37A7.31,7.31,0,0,1,686,32.4V46.54h-4.26V33.43a4.36,4.36,0,0,0-1-3.09,3.72,3.72,0,0,0-2.91-1.11,4.16,4.16,0,0,0-2.19.57,4,4,0,0,0-1.49,1.58,4.86,4.86,0,0,0-.53,2.31V46.54h-4.16V33.12a3.62,3.62,0,0,0-3.89-3.89,4.1,4.1,0,0,0-2.2.6,4.16,4.16,0,0,0-1.51,1.63,5,5,0,0,0-.55,2.38v12.7H657Z"/><path class="cls-11" d="M690,26h4.26v3.18h.08a5.51,5.51,0,0,1,2.16-2.59,6.36,6.36,0,0,1,3.52-1,6.7,6.7,0,0,1,2.55.47,5.22,5.22,0,0,1,2,1.38,5.57,5.57,0,0,1,1.21,2.19h.1a6.35,6.35,0,0,1,1.48-2.16,6.54,6.54,0,0,1,2.2-1.39,7.4,7.4,0,0,1,2.73-.49,7,7,0,0,1,3.53.85,6,6,0,0,1,2.35,2.37A7.31,7.31,0,0,1,719,32.4V46.54h-4.26V33.43a4.36,4.36,0,0,0-1-3.09,3.72,3.72,0,0,0-2.91-1.11,4.16,4.16,0,0,0-2.19.57,3.92,3.92,0,0,0-1.49,1.58,4.86,4.86,0,0,0-.54,2.31V46.54h-4.16V33.12a3.61,3.61,0,0,0-3.88-3.89,4.09,4.09,0,0,0-3.71,2.23,5,5,0,0,0-.55,2.38v12.7H690Z"/><line class="cls-10" x1="1179.79" y1="89.81" x2="1179.79" y2="185.1"/><rect class="cls-11" x="1163.54" y="87.31" width="32.5" height="5"/><rect class="cls-11" x="1163.54" y="182.6" width="32.5" height="5"/><path class="cls-11" d="M1221.4,195.27v.1l5.08,7.36h-4.16l-5.27-7.42V191h28.18v4.3Z"/><path class="cls-11" d="M1243.92,179.6a11.17,11.17,0,0,1-5,3.7,21,21,0,0,1-7.73,1.29h0a21,21,0,0,1-7.73-1.29,11.14,11.14,0,0,1-5-3.7,10.31,10.31,0,0,1,0-11.55,11.15,11.15,0,0,1,5-3.71,21,21,0,0,1,7.73-1.3h0a21,21,0,0,1,7.73,1.3,11.18,11.18,0,0,1,5,3.71,10.26,10.26,0,0,1,0,11.55Zm-3.2-9.2a8.23,8.23,0,0,0-3.75-2.17,20,20,0,0,0-5.82-.75h0a19.85,19.85,0,0,0-5.81.75,8.24,8.24,0,0,0-3.74,2.17,5.13,5.13,0,0,0,0,6.85,8.14,8.14,0,0,0,3.74,2.16,19.87,19.87,0,0,0,5.81.74h0a20,20,0,0,0,5.82-.74,8.13,8.13,0,0,0,3.75-2.16,5.13,5.13,0,0,0,0-6.85Z"/><path class="cls-11" d="M1243.92,154.62a11.17,11.17,0,0,1-5,3.7,21,21,0,0,1-7.73,1.29h0a21,21,0,0,1-7.73-1.29,11.14,11.14,0,0,1-5-3.7,10.31,10.31,0,0,1,0-11.55,11.15,11.15,0,0,1,5-3.71,21,21,0,0,1,7.73-1.3h0a21,21,0,0,1,7.73,1.3,11.18,11.18,0,0,1,5,3.71,10.26,10.26,0,0,1,0,11.55Zm-3.2-9.2a8.23,8.23,0,0,0-3.75-2.17,20,20,0,0,0-5.82-.75h0a19.85,19.85,0,0,0-5.81.75,8.24,8.24,0,0,0-3.74,2.17,5.13,5.13,0,0,0,0,6.85,8.14,8.14,0,0,0,3.74,2.16,20.22,20.22,0,0,0,5.81.74h0a20.34,20.34,0,0,0,5.82-.74,8.13,8.13,0,0,0,3.75-2.16,5.13,5.13,0,0,0,0-6.85Z"/><path class="cls-11" d="M1224.68,134.27V130h3.19v-.08a5.55,5.55,0,0,1-2.6-2.17,6.31,6.31,0,0,1-1-3.52,6.68,6.68,0,0,1,.47-2.54,5.25,5.25,0,0,1,1.38-2,5.73,5.73,0,0,1,2.2-1.21v-.1a6.28,6.28,0,0,1-2.16-1.47,6.6,6.6,0,0,1-1.4-2.21,7.59,7.59,0,0,1-.49-2.72,7.16,7.16,0,0,1,.85-3.54,6,6,0,0,1,2.38-2.34,7.25,7.25,0,0,1,3.57-.84h14.14v4.26h-13.1a4.45,4.45,0,0,0-3.1,1,3.78,3.78,0,0,0-1.1,2.91,4.26,4.26,0,0,0,.56,2.2,4,4,0,0,0,1.58,1.48,4.86,4.86,0,0,0,2.31.54h12.85v4.16h-13.42a3.61,3.61,0,0,0-3.88,3.89,4.19,4.19,0,0,0,.59,2.2,4.24,4.24,0,0,0,1.63,1.51,5.11,5.11,0,0,0,2.39.55h12.69v4.25Z"/><path class="cls-11" d="M1224.68,101.27V97h3.19v-.08a5.55,5.55,0,0,1-2.6-2.17,6.3,6.3,0,0,1-1-3.51,6.7,6.7,0,0,1,.47-2.55,5.33,5.33,0,0,1,1.38-2,5.73,5.73,0,0,1,2.2-1.21v-.09a6.44,6.44,0,0,1-2.16-1.48,6.6,6.6,0,0,1-1.4-2.21,7.55,7.55,0,0,1-.49-2.72,7.19,7.19,0,0,1,.85-3.54,6,6,0,0,1,2.38-2.34,7.25,7.25,0,0,1,3.57-.84h14.14v4.26h-13.1a4.45,4.45,0,0,0-3.1,1,3.78,3.78,0,0,0-1.1,2.91,4.26,4.26,0,0,0,.56,2.2,4.05,4.05,0,0,0,1.58,1.49,5,5,0,0,0,2.31.53h12.85v4.16h-13.42a3.61,3.61,0,0,0-3.88,3.89,4.06,4.06,0,0,0,2.22,3.71,5,5,0,0,0,2.39.55h12.69v4.26Z"/><line class="cls-10" x1="87.1" y1="961.8" x2="87.1" y2="1382.48"/><rect class="cls-11" x="70.85" y="959.3" width="32.5" height="5"/><rect class="cls-11" x="70.85" y="1379.98" width="32.5" height="5"/><path class="cls-11" d="M69.73,1226.92V1241H65.9l-3.75-2.39-3.75-2.4-3.75-2.39-3.75-2.4-3.75-2.39v-6.33H66v-3.9h3.69v3.9h5.61v4.2Zm-3.61,0H50.63v.12l3.08,2,3.06,2,3.08,2,3.08,2,3.07,2h.12Z"/><path class="cls-11" d="M74,1211a11.2,11.2,0,0,1-5,3.7,21,21,0,0,1-7.73,1.29h0a21,21,0,0,1-7.74-1.29,11.12,11.12,0,0,1-5-3.7,10.34,10.34,0,0,1,0-11.54,11.21,11.21,0,0,1,5-3.71,20.8,20.8,0,0,1,7.74-1.3h0a20.75,20.75,0,0,1,7.73,1.3,11.29,11.29,0,0,1,5,3.71A10.24,10.24,0,0,1,74,1211Zm-3.2-9.2a8.41,8.41,0,0,0-3.75-2.16,19.94,19.94,0,0,0-5.82-.76h0a19.78,19.78,0,0,0-5.81.76,8.32,8.32,0,0,0-3.74,2.16,5.15,5.15,0,0,0,0,6.86,8.32,8.32,0,0,0,3.74,2.16,20.17,20.17,0,0,0,5.81.74h0a20.34,20.34,0,0,0,5.82-.74,8.41,8.41,0,0,0,3.75-2.16,5.15,5.15,0,0,0,0-6.86Z"/><path class="cls-11" d="M74,1186.05a11.2,11.2,0,0,1-5,3.7,21,21,0,0,1-7.73,1.29h0a21,21,0,0,1-7.74-1.29,11.12,11.12,0,0,1-5-3.7,10.34,10.34,0,0,1,0-11.54,11.21,11.21,0,0,1,5-3.71,20.8,20.8,0,0,1,7.74-1.3h0a20.75,20.75,0,0,1,7.73,1.3,11.29,11.29,0,0,1,5,3.71,10.24,10.24,0,0,1,0,11.54Zm-3.2-9.2a8.41,8.41,0,0,0-3.75-2.16,19.94,19.94,0,0,0-5.82-.76h0a19.78,19.78,0,0,0-5.81.76,8.32,8.32,0,0,0-3.74,2.16,5.15,5.15,0,0,0,0,6.86,8.32,8.32,0,0,0,3.74,2.16,20.17,20.17,0,0,0,5.81.74h0a20.34,20.34,0,0,0,5.82-.74,8.41,8.41,0,0,0,3.75-2.16,5.15,5.15,0,0,0,0-6.86Z"/><path class="cls-11" d="M54.79,1165.71v-4.26H58v-.08a5.48,5.48,0,0,1-2.6-2.16,6.36,6.36,0,0,1-1-3.52,6.7,6.7,0,0,1,.47-2.55,5.3,5.3,0,0,1,1.38-2,5.57,5.57,0,0,1,2.19-1.21v-.1a6.33,6.33,0,0,1-2.15-1.47,6.45,6.45,0,0,1-1.4-2.21,7.4,7.4,0,0,1-.49-2.73,7,7,0,0,1,.85-3.53,6.06,6.06,0,0,1,2.37-2.34,7.31,7.31,0,0,1,3.58-.84H75.34V1141H62.23a4.36,4.36,0,0,0-3.09,1,3.75,3.75,0,0,0-1.11,2.91,4.19,4.19,0,0,0,.57,2.2,4,4,0,0,0,1.58,1.48,4.86,4.86,0,0,0,2.31.54H75.34v4.16H61.92a3.61,3.61,0,0,0-3.89,3.88,4.06,4.06,0,0,0,.6,2.2,4.19,4.19,0,0,0,1.63,1.52,5.06,5.06,0,0,0,2.38.54h12.7v4.26Z"/><path class="cls-11" d="M54.79,1132.7v-4.26H58v-.07a5.5,5.5,0,0,1-2.6-2.17,6.33,6.33,0,0,1-1-3.52,6.77,6.77,0,0,1,.47-2.55,5.3,5.3,0,0,1,1.38-2,5.57,5.57,0,0,1,2.19-1.21v-.1a6.33,6.33,0,0,1-2.15-1.47,6.45,6.45,0,0,1-1.4-2.21,7.38,7.38,0,0,1-.49-2.72,7.05,7.05,0,0,1,.85-3.54,6.06,6.06,0,0,1,2.37-2.34,7.31,7.31,0,0,1,3.58-.84H75.34V1108H62.23a4.41,4.41,0,0,0-3.09,1,3.75,3.75,0,0,0-1.11,2.91,4.17,4.17,0,0,0,.57,2.2,3.89,3.89,0,0,0,1.58,1.48,4.86,4.86,0,0,0,2.31.54H75.34v4.16H61.92a3.62,3.62,0,0,0-3.89,3.89,4,4,0,0,0,.6,2.19,4.19,4.19,0,0,0,1.63,1.52,5.06,5.06,0,0,0,2.38.54h12.7v4.26Z"/><line class="cls-10" x1="87.1" y1="684.06" x2="87.1" y2="781.93"/><rect class="cls-11" x="70.85" y="681.56" width="32.5" height="5"/><rect class="cls-11" x="70.85" y="779.43" width="32.5" height="5"/><path class="cls-11" d="M34.69,790.81v.09l5.08,7.37H35.61l-5.27-7.42v-4.34H58.52v4.3Z"/><path class="cls-11" d="M57.21,775.13a11.1,11.1,0,0,1-5,3.7,21,21,0,0,1-7.73,1.29h0a21,21,0,0,1-7.73-1.29,11.07,11.07,0,0,1-5-3.7,10.29,10.29,0,0,1,0-11.54,11.15,11.15,0,0,1,5-3.71,20.75,20.75,0,0,1,7.73-1.3h0a20.75,20.75,0,0,1,7.73,1.3,11.18,11.18,0,0,1,5,3.71,10.24,10.24,0,0,1,0,11.54Zm-3.2-9.2a8.3,8.3,0,0,0-3.75-2.16,19.61,19.61,0,0,0-5.82-.76h0a19.49,19.49,0,0,0-5.81.76,8.32,8.32,0,0,0-3.74,2.16,5.15,5.15,0,0,0,0,6.86A8.32,8.32,0,0,0,38.59,775a20.22,20.22,0,0,0,5.81.74h0a20.34,20.34,0,0,0,5.82-.74A8.3,8.3,0,0,0,54,772.79a5.15,5.15,0,0,0,0-6.86Z"/><path class="cls-11" d="M57.21,750.15a11.1,11.1,0,0,1-5,3.7,21,21,0,0,1-7.73,1.29h0a21,21,0,0,1-7.73-1.29,11.07,11.07,0,0,1-5-3.7,10.29,10.29,0,0,1,0-11.54,11.08,11.08,0,0,1,5-3.71,20.75,20.75,0,0,1,7.73-1.3h0a20.75,20.75,0,0,1,7.73,1.3,11.11,11.11,0,0,1,5,3.71,10.24,10.24,0,0,1,0,11.54ZM54,741a8.3,8.3,0,0,0-3.75-2.16,19.61,19.61,0,0,0-5.82-.76h0a19.49,19.49,0,0,0-5.81.76A8.32,8.32,0,0,0,34.85,741a5.15,5.15,0,0,0,0,6.86A8.32,8.32,0,0,0,38.59,750a20.22,20.22,0,0,0,5.81.74h0a20.34,20.34,0,0,0,5.82-.74A8.3,8.3,0,0,0,54,747.81,5.15,5.15,0,0,0,54,741Z"/><path class="cls-11" d="M38,729.81v-4.26h3.18v-.08a5.53,5.53,0,0,1-2.6-2.16,6.36,6.36,0,0,1-1-3.52,6.7,6.7,0,0,1,.47-2.55,5.42,5.42,0,0,1,1.38-2,5.68,5.68,0,0,1,2.2-1.21V714a6.28,6.28,0,0,1-2.16-1.47,6.7,6.7,0,0,1-1.4-2.21,7.61,7.61,0,0,1-.49-2.73,7.12,7.12,0,0,1,.85-3.53,6,6,0,0,1,2.38-2.34,7.25,7.25,0,0,1,3.57-.84H58.52v4.25H45.42a4.41,4.41,0,0,0-3.1,1,3.78,3.78,0,0,0-1.1,2.91,4.28,4.28,0,0,0,.56,2.2,4,4,0,0,0,1.59,1.48,4.79,4.79,0,0,0,2.3.54H58.52v4.16H45.1a3.59,3.59,0,0,0-3.88,3.88,4.14,4.14,0,0,0,.59,2.2A4.19,4.19,0,0,0,43.44,725a5.1,5.1,0,0,0,2.39.54H58.52v4.26Z"/><path class="cls-11" d="M38,696.8v-4.26h3.18v-.07a5.61,5.61,0,0,1-2.6-2.17,6.33,6.33,0,0,1-1-3.52,6.77,6.77,0,0,1,.47-2.55,5.42,5.42,0,0,1,1.38-2,5.68,5.68,0,0,1,2.2-1.21V681a6.28,6.28,0,0,1-2.16-1.47,6.6,6.6,0,0,1-1.4-2.21,7.59,7.59,0,0,1-.49-2.72,7.13,7.13,0,0,1,.85-3.54,6,6,0,0,1,2.38-2.34,7.25,7.25,0,0,1,3.57-.84H58.52v4.26H45.42a4.4,4.4,0,0,0-3.1,1,3.78,3.78,0,0,0-1.1,2.91,4.28,4.28,0,0,0,.56,2.2,3.92,3.92,0,0,0,1.59,1.48,4.79,4.79,0,0,0,2.3.54H58.52v4.16H45.1a3.61,3.61,0,0,0-3.88,3.89,4.13,4.13,0,0,0,.59,2.19A4.19,4.19,0,0,0,43.44,692a5.1,5.1,0,0,0,2.39.54H58.52v4.26Z"/><path class="cls-12" d="M756.5,420.84H743.84v-9.91c0-1-2.39-1.77-5.31-1.77H706.26c-2.91,0-5.3.8-5.3,1.77v9.91H688.29c-3.21,0-5.84.87-5.84,1.94V468.5c0,1.07,2.63,1.95,5.84,1.95H756.5c3.22,0,5.85-.88,5.85-1.95V422.78C762.35,421.71,759.72,420.84,756.5,420.84Z"/><path class="cls-12" d="M841.05,420.84H828.38v-9.91c0-1-2.39-1.77-5.3-1.77H790.81c-2.92,0-5.3.8-5.3,1.77v9.91H772.84c-3.22,0-5.85.87-5.85,1.94V468.5c0,1.07,2.63,1.95,5.85,1.95h68.21c3.21,0,5.84-.88,5.84-1.95V422.78C846.89,421.71,844.26,420.84,841.05,420.84Z"/><path class="cls-12" d="M925.59,420.84H912.93v-9.91c0-1-2.39-1.77-5.31-1.77H875.36c-2.92,0-5.31.8-5.31,1.77v9.91H857.39c-3.22,0-5.85.87-5.85,1.94V468.5c0,1.07,2.63,1.95,5.85,1.95h68.2c3.22,0,5.85-.88,5.85-1.95V422.78C931.44,421.71,928.81,420.84,925.59,420.84Z"/><path class="cls-12" d="M1010.14,420.84H997.47v-9.91c0-1-2.38-1.77-5.3-1.77H959.9c-2.92,0-5.3.8-5.3,1.77v9.91H941.93c-3.21,0-5.85.87-5.85,1.94V468.5c0,1.07,2.64,1.95,5.85,1.95h68.21c3.21,0,5.85-.88,5.85-1.95V422.78C1016,421.71,1013.35,420.84,1010.14,420.84Z"/><path class="cls-12" d="M1012.49,313.83h-10.26v-19c0-1.86-1.93-3.39-4.29-3.39H971.82c-2.36,0-4.29,1.53-4.29,3.39v19H957.27c-2.6,0-4.73,1.69-4.73,3.74v87.86c0,2.05,2.13,3.73,4.73,3.73h55.22c2.6,0,4.73-1.68,4.73-3.73V317.57C1017.22,315.52,1015.09,313.83,1012.49,313.83Z"/><path class="cls-12" d="M945.11,313.83H934.86v-19c0-1.86-1.93-3.39-4.3-3.39H904.44c-2.36,0-4.29,1.53-4.29,3.39v19H889.9c-2.61,0-4.74,1.69-4.74,3.74v87.86c0,2.05,2.13,3.73,4.74,3.73h55.21c2.6,0,4.73-1.68,4.73-3.73V317.57C949.84,315.52,947.71,313.83,945.11,313.83Z"/><path class="cls-12" d="M877.73,313.83H867.48v-19c0-1.86-1.93-3.39-4.29-3.39H837.07c-2.36,0-4.29,1.53-4.29,3.39v19H822.52c-2.6,0-4.73,1.69-4.73,3.74v87.86c0,2.05,2.13,3.73,4.73,3.73h55.21c2.61,0,4.74-1.68,4.74-3.73V317.57C882.47,315.52,880.34,313.83,877.73,313.83Z"/><path class="cls-12" d="M810.36,313.83H800.11v-19c0-1.86-1.94-3.39-4.3-3.39H769.69c-2.36,0-4.29,1.53-4.29,3.39v19H755.15c-2.61,0-4.74,1.69-4.74,3.74v87.86c0,2.05,2.13,3.73,4.74,3.73h55.21c2.6,0,4.73-1.68,4.73-3.73V317.57C815.09,315.52,813,313.83,810.36,313.83Z"/><path class="cls-12" d="M743,313.83H732.73v-19c0-1.86-1.93-3.39-4.29-3.39H702.32c-2.36,0-4.3,1.53-4.3,3.39v19H687.77c-2.6,0-4.73,1.69-4.73,3.74v87.86c0,2.05,2.13,3.73,4.73,3.73H743c2.61,0,4.74-1.68,4.74-3.73V317.57C747.72,315.52,745.59,313.83,743,313.83Z"/><rect class="cls-13" x="662.7" y="331.25" width="10" height="77.76"/><rect class="cls-13" x="1025.74" y="330.56" width="10" height="77.89"/><rect class="cls-13" x="842.62" y="170.66" width="15.14" height="364.98" transform="translate(1203.34 -497.03) rotate(90)"/><rect class="cls-13" x="844.3" y="218.17" width="10" height="372.94" transform="translate(1253.93 -444.66) rotate(90)"/><path class="cls-3" d="M333.79,402.85l-3.92-3.91a18.66,18.66,0,0,0,4.31-3.76c8.51-8.51,7-23.77-3.29-34.09s-25.59-11.8-34.09-3.3l.05,0a18.66,18.66,0,0,0-3.76,4.31l8.67,8.68a8.12,8.12,0,0,0-.22-3.3c-.49-1.59-.73-3.76.25-4.75l-.05,0c6.26-6.26,17.48-5.18,25.08,2.42s8.68,18.82,2.42,25.08c-1,1-3.15.74-4.75.24a8.28,8.28,0,0,0-3.29-.22l-19.44-19.43-19.67-19.68-56.63,56.64,51.69,51.7s11.16,14.86,41-14h0l.85-.86.86-.85v0C348.65,414,333.79,402.85,333.79,402.85Z"/><path class="cls-3" d="M499.29,402.85l-3.91-3.91a18.66,18.66,0,0,0,4.31-3.76c8.5-8.51,7-23.77-3.3-34.09s-25.58-11.8-34.09-3.3l.05,0a18.93,18.93,0,0,0-3.76,4.31l8.68,8.68a8.33,8.33,0,0,0-.22-3.3c-.5-1.59-.74-3.76.24-4.75l0,0c6.25-6.26,17.48-5.18,25.07,2.42S501,384,494.75,390.24c-1,1-3.16.74-4.75.24a8.33,8.33,0,0,0-3.3-.22l-19.43-19.43-19.68-19.68L391,407.79l51.7,51.7s11.15,14.86,41-14h0l.86-.86c.28-.29.57-.56.86-.85l0,0C514.16,414,499.29,402.85,499.29,402.85Z"/><line class="cls-10" x1="1056.75" y1="334.11" x2="1056.75" y2="407.74"/><rect class="cls-11" x="1040.5" y="331.61" width="32.5" height="5"/><rect class="cls-11" x="1040.5" y="405.24" width="32.5" height="5"/><path class="cls-11" d="M1112.88,419.88a9.82,9.82,0,0,1-2.48,3.56,11.79,11.79,0,0,1-4.38,2.47,20.54,20.54,0,0,1-6.49.9h0a21.79,21.79,0,0,1-8.06-1.34,11,11,0,0,1-5.11-3.87,10.25,10.25,0,0,1-1.77-6,11.18,11.18,0,0,1,.89-4.54,9,9,0,0,1,2.49-3.37,8.4,8.4,0,0,1,3.69-1.8l.23,0v4.4l-.19.07a5,5,0,0,0-3,2.91,6.51,6.51,0,0,0-.42,2.41,5.5,5.5,0,0,0,1.41,3.91,8.47,8.47,0,0,0,3.72,2.25,18.5,18.5,0,0,0,5.13.81l.43,0h.46l4.65-.84a6,6,0,0,0,3.07-11.15,5.61,5.61,0,0,0-3-.81h0a5.89,5.89,0,0,0-3,.77,5.43,5.43,0,0,0-2.06,2.11,6.12,6.12,0,0,0-.75,3,6.43,6.43,0,0,0,.74,3.08,5.51,5.51,0,0,0,5,3h0v1.17h-4.78v-.41a7.09,7.09,0,0,1-2.3-1.68,8.56,8.56,0,0,1-1.63-2.66,10.23,10.23,0,0,1,.6-8.26,8.76,8.76,0,0,1,3.3-3.29,9.39,9.39,0,0,1,4.75-1.2h0a9.34,9.34,0,0,1,5,1.34,9.45,9.45,0,0,1,3.43,3.66,11.63,11.63,0,0,1,.46,9.46Z"/><path class="cls-11" d="M1112.62,396.05a8.93,8.93,0,0,1-2.89,3.48,8.11,8.11,0,0,1-4.13,1.5h-.23v-4.17l.14,0a4.9,4.9,0,0,0,2.29-1,5.54,5.54,0,0,0,1.62-2,6.37,6.37,0,0,0,.6-2.79,6.44,6.44,0,0,0-.76-3.15,5.47,5.47,0,0,0-2.11-2.13,6.15,6.15,0,0,0-3.09-.76h0a6,6,0,0,0-3,.77,5.53,5.53,0,0,0-2.09,2.12,6.16,6.16,0,0,0-.77,3.09,7.53,7.53,0,0,0,.38,2.42,5.81,5.81,0,0,0,1.15,2,6.24,6.24,0,0,0,.74.71,6.06,6.06,0,0,0,.88.62v3.85L1085,399.15V382.33h3.69V395.6l8.93.86v-.1a6.25,6.25,0,0,1-2.2-2.63,8.78,8.78,0,0,1-.77-3.76,9.4,9.4,0,0,1,1.2-4.78,8.83,8.83,0,0,1,3.29-3.3,9.43,9.43,0,0,1,4.78-1.2h0a9.58,9.58,0,0,1,5,1.33,9.28,9.28,0,0,1,3.42,3.66,12.38,12.38,0,0,1,.18,10.37Z"/><path class="cls-11" d="M1092.65,377.28V373h3.19v-.08a5.55,5.55,0,0,1-2.6-2.17,6.3,6.3,0,0,1-1-3.51,6.7,6.7,0,0,1,.47-2.55,5.45,5.45,0,0,1,1.38-2,5.81,5.81,0,0,1,2.2-1.21v-.09a6.44,6.44,0,0,1-2.16-1.48,6.6,6.6,0,0,1-1.4-2.21,7.55,7.55,0,0,1-.49-2.72,7.19,7.19,0,0,1,.85-3.54,6,6,0,0,1,2.38-2.34,7.25,7.25,0,0,1,3.57-.84h14.14v4.26h-13.1a4.45,4.45,0,0,0-3.1,1,3.78,3.78,0,0,0-1.1,2.91,4.26,4.26,0,0,0,.56,2.2,4,4,0,0,0,1.59,1.49,4.91,4.91,0,0,0,2.3.53h12.85v4.16h-13.42a3.61,3.61,0,0,0-3.88,3.89,4.06,4.06,0,0,0,2.22,3.71,5,5,0,0,0,2.39.55h12.69v4.26Z"/><path class="cls-11" d="M1092.65,344.27V340h3.19v-.08a5.49,5.49,0,0,1-2.6-2.17,6.3,6.3,0,0,1-1-3.51,6.7,6.7,0,0,1,.47-2.55,5.33,5.33,0,0,1,1.38-2,5.68,5.68,0,0,1,2.2-1.21v-.1a6.3,6.3,0,0,1-2.16-1.48,6.56,6.56,0,0,1-1.4-2.2,7.61,7.61,0,0,1-.49-2.73,7.12,7.12,0,0,1,.85-3.53,6,6,0,0,1,2.38-2.35,7.25,7.25,0,0,1,3.57-.84h14.14v4.26h-13.1a4.41,4.41,0,0,0-3.1,1,3.75,3.75,0,0,0-1.1,2.91,4.25,4.25,0,0,0,.56,2.19,3.94,3.94,0,0,0,1.59,1.49,4.79,4.79,0,0,0,2.3.54h12.85v4.16h-13.42a3.59,3.59,0,0,0-3.88,3.88,4.06,4.06,0,0,0,2.22,3.71,5,5,0,0,0,2.39.55h12.69v4.26Z"/><circle class="cls-11" cx="477.82" cy="365.62" r="7.01"/><circle class="cls-11" cx="311.42" cy="365.62" r="7.01"/><rect class="cls-14" x="129.6" y="718.24" width="1027.44" height="18" transform="translate(1286.65 1454.49) rotate(180)"/><rect class="cls-14" x="129.6" y="1369.68" width="1027.44" height="18" transform="translate(1286.65 2757.35) rotate(180)"/><line class="cls-10" x1="270.33" y1="1409.33" x2="145.35" y2="1409.33"/><rect class="cls-11" x="267.83" y="1393.08" width="5" height="32.5"/><rect class="cls-11" x="142.85" y="1393.08" width="5" height="32.5"/><path class="cls-11" d="M151.9,1436.47h-.1l-7.37,5.08v-4.16l7.43-5.27h4.33v28.18H151.9Z"/><path class="cls-11" d="M177.13,1435.91v-.1H162.25v-3.69h19.22v3.81L169.2,1460.3h-4.59Z"/><path class="cls-11" d="M190.38,1459.72a9.15,9.15,0,0,1-3.48-2.88,8.26,8.26,0,0,1-1.49-4.14l0-.23h4.18l0,.14a4.9,4.9,0,0,0,1,2.29,5.29,5.29,0,0,0,2,1.62,6.34,6.34,0,0,0,2.79.6,6.47,6.47,0,0,0,3.15-.76,5.38,5.38,0,0,0,2.12-2.11,6.16,6.16,0,0,0,.77-3.09v0a5.88,5.88,0,0,0-.78-3,5.5,5.5,0,0,0-2.11-2.09,6.16,6.16,0,0,0-3.09-.77,7.53,7.53,0,0,0-2.42.38,6,6,0,0,0-2,1.15,8.38,8.38,0,0,0-.71.74,6,6,0,0,0-.61.88H185.9l1.39-16.25H204.1v3.69H190.84l-.86,8.93h.1a6.19,6.19,0,0,1,2.63-2.2,8.75,8.75,0,0,1,3.76-.77,9.43,9.43,0,0,1,4.78,1.2,8.8,8.8,0,0,1,3.29,3.29,9.43,9.43,0,0,1,1.2,4.78v0a9.49,9.49,0,0,1-1.33,5,9.15,9.15,0,0,1-3.66,3.42,12.38,12.38,0,0,1-10.37.18Z"/><path class="cls-11" d="M209.16,1439.76h4.26v3.18h.08a5.53,5.53,0,0,1,2.16-2.6,6.36,6.36,0,0,1,3.52-1,6.7,6.7,0,0,1,2.55.47,5.33,5.33,0,0,1,2,1.38,5.68,5.68,0,0,1,1.21,2.2h.1a6.17,6.17,0,0,1,1.48-2.16,6.56,6.56,0,0,1,2.2-1.4,7.61,7.61,0,0,1,2.73-.49,7.12,7.12,0,0,1,3.53.85,6,6,0,0,1,2.35,2.38,7.25,7.25,0,0,1,.84,3.57v14.14h-4.26v-13.1a4.41,4.41,0,0,0-1-3.1,3.78,3.78,0,0,0-2.91-1.1,4.31,4.31,0,0,0-2.2.56,4,4,0,0,0-1.48,1.59,4.79,4.79,0,0,0-.54,2.3v12.85h-4.16v-13.42a3.59,3.59,0,0,0-3.88-3.88,4.16,4.16,0,0,0-2.2.59,4.09,4.09,0,0,0-1.51,1.63,5,5,0,0,0-.55,2.39v12.69h-4.26Z"/><path class="cls-11" d="M242.17,1439.76h4.26v3.18h.07a5.61,5.61,0,0,1,2.17-2.6,6.33,6.33,0,0,1,3.52-1,6.7,6.7,0,0,1,2.55.47,5.42,5.42,0,0,1,2,1.38,5.68,5.68,0,0,1,1.21,2.2h.1a6.28,6.28,0,0,1,1.47-2.16,6.6,6.6,0,0,1,2.21-1.4,7.59,7.59,0,0,1,2.72-.49,7.13,7.13,0,0,1,3.54.85,6,6,0,0,1,2.34,2.38,7.25,7.25,0,0,1,.84,3.57v14.14h-4.25v-13.1a4.41,4.41,0,0,0-1-3.1A3.78,3.78,0,0,0,263,1443a4.28,4.28,0,0,0-2.2.56,4,4,0,0,0-1.48,1.59,4.79,4.79,0,0,0-.54,2.3v12.85h-4.16v-13.42a3.59,3.59,0,0,0-3.89-3.88,4.13,4.13,0,0,0-2.19.59,4.19,4.19,0,0,0-1.52,1.63,5.1,5.1,0,0,0-.54,2.39v12.69h-4.26Z"/><line class="cls-10" x1="785.23" y1="1501.92" x2="458.61" y2="1501.92"/><rect class="cls-11" x="782.73" y="1485.67" width="5" height="32.5"/><rect class="cls-11" x="456.11" y="1485.67" width="5" height="32.5"/><path class="cls-11" d="M560.46,1541.36a8.66,8.66,0,0,1-3.57-2.79,7.91,7.91,0,0,1-1.5-4.09l0-.24h4.22l0,.22a4.23,4.23,0,0,0,1.84,3.06,8.07,8.07,0,0,0,7.29.6,4.88,4.88,0,0,0,2-1.65,4.14,4.14,0,0,0,.72-2.4v0a4.38,4.38,0,0,0-1.62-3.66,7,7,0,0,0-4.43-1.28H562v-3.44h3.3a6.43,6.43,0,0,0,2.82-.58,4.46,4.46,0,0,0,1.9-1.59,4.07,4.07,0,0,0,.67-2.32v0a4.5,4.5,0,0,0-.57-2.33,3.74,3.74,0,0,0-1.7-1.45,6.76,6.76,0,0,0-2.73-.5,7.09,7.09,0,0,0-2.77.51,4.71,4.71,0,0,0-1.94,1.46,4.58,4.58,0,0,0-.86,2.27v.19H556l0-.21a8.18,8.18,0,0,1,4.86-6.85,11.57,11.57,0,0,1,4.85-1,11.93,11.93,0,0,1,4.9.93,7.57,7.57,0,0,1,3.25,2.56,6.55,6.55,0,0,1,1.15,3.81v0a6.14,6.14,0,0,1-.77,3.1,6.67,6.67,0,0,1-2.11,2.22,8.33,8.33,0,0,1-3.06,1.24v.1a7.94,7.94,0,0,1,5,2,6.29,6.29,0,0,1,1.9,4.77v0a7.29,7.29,0,0,1-1.31,4.27,8.76,8.76,0,0,1-3.61,2.93,12.44,12.44,0,0,1-5.3,1.06A12.82,12.82,0,0,1,560.46,1541.36Z"/><path class="cls-11" d="M594.18,1517.51v-.1H579.29v-3.69h19.22v3.8l-12.26,24.38h-4.59Z"/><path class="cls-11" d="M607.43,1541.31a9,9,0,0,1-3.48-2.88,8.19,8.19,0,0,1-1.49-4.13l0-.23h4.18l0,.13a5,5,0,0,0,1,2.3,5.6,5.6,0,0,0,2,1.62,6.79,6.79,0,0,0,5.93-.17,5.44,5.44,0,0,0,2.13-2.1,6.15,6.15,0,0,0,.76-3.09v0a5.94,5.94,0,0,0-.77-3,5.6,5.6,0,0,0-2.12-2.09,6.22,6.22,0,0,0-3.08-.76,7.53,7.53,0,0,0-2.42.38,5.85,5.85,0,0,0-2,1.15,7.19,7.19,0,0,0-.71.74,6.29,6.29,0,0,0-.62.88H603l1.38-16.25h16.82v3.69H607.89l-.86,8.92h.1a6.14,6.14,0,0,1,2.62-2.19,8.81,8.81,0,0,1,3.76-.78,9.47,9.47,0,0,1,4.79,1.21,8.73,8.73,0,0,1,3.29,3.29,9.43,9.43,0,0,1,1.2,4.78v0a9.49,9.49,0,0,1-1.33,5,9.15,9.15,0,0,1-3.66,3.42,12.33,12.33,0,0,1-10.37.17Z"/><path class="cls-11" d="M626.21,1521.35h4.26v3.19h.07a5.61,5.61,0,0,1,2.17-2.6,6.36,6.36,0,0,1,3.52-1,6.7,6.7,0,0,1,2.55.47,5.3,5.3,0,0,1,2,1.38A5.61,5.61,0,0,1,642,1525h.1a6.28,6.28,0,0,1,1.47-2.16,6.6,6.6,0,0,1,2.21-1.4,7.59,7.59,0,0,1,2.72-.49,7.13,7.13,0,0,1,3.54.85,6,6,0,0,1,2.34,2.38,7.25,7.25,0,0,1,.84,3.57v14.14h-4.25v-13.11a4.4,4.4,0,0,0-1-3.09,3.75,3.75,0,0,0-2.91-1.1,4.19,4.19,0,0,0-2.2.56,4,4,0,0,0-1.48,1.58,4.86,4.86,0,0,0-.54,2.31v12.85h-4.16v-13.42a3.59,3.59,0,0,0-3.89-3.88,4,4,0,0,0-2.19.59,4.19,4.19,0,0,0-1.52,1.63,5.09,5.09,0,0,0-.54,2.38v12.7h-4.26Z"/><path class="cls-11" d="M659.22,1521.35h4.25v3.19h.08a5.55,5.55,0,0,1,2.17-2.6,6.33,6.33,0,0,1,3.52-1,6.68,6.68,0,0,1,2.54.47,5.25,5.25,0,0,1,2,1.38A5.73,5.73,0,0,1,675,1525h.1a6.28,6.28,0,0,1,1.47-2.16,6.6,6.6,0,0,1,2.21-1.4,7.59,7.59,0,0,1,2.72-.49,7.16,7.16,0,0,1,3.54.85,6,6,0,0,1,2.34,2.38,7.25,7.25,0,0,1,.84,3.57v14.14h-4.26v-13.11a4.44,4.44,0,0,0-1-3.09,3.75,3.75,0,0,0-2.91-1.1,4.16,4.16,0,0,0-2.2.56,4,4,0,0,0-1.48,1.58,4.86,4.86,0,0,0-.54,2.31v12.85h-4.16v-13.42a3.61,3.61,0,0,0-3.89-3.88,4.1,4.1,0,0,0-2.2.59,4.24,4.24,0,0,0-1.51,1.63,5.09,5.09,0,0,0-.55,2.38v12.7h-4.25Z"/><line class="cls-10" x1="1118.78" y1="1502.85" x2="840.88" y2="1501.93"/><rect class="cls-11" x="1102.53" y="1500.35" width="32.5" height="5" transform="translate(-387.74 2616.67) rotate(-89.81)"/><rect class="cls-11" x="824.63" y="1499.43" width="32.5" height="5" transform="translate(-663.81 2337.85) rotate(-89.81)"/><path class="cls-11" d="M912.85,1538.89l9.94-10a39,39,0,0,0,2.87-3.12,8.66,8.66,0,0,0,1.35-2.22,6,6,0,0,0,.37-2.08v0a4.39,4.39,0,0,0-.64-2.38,4.47,4.47,0,0,0-1.72-1.62,5.32,5.32,0,0,0-2.54-.59,6.14,6.14,0,0,0-2.92.68,5.35,5.35,0,0,0-2,1.83,4.58,4.58,0,0,0-.75,2.57l0,.14h-4.14v-.14a8,8,0,0,1,1.29-4.49,8.77,8.77,0,0,1,3.53-3.09,11,11,0,0,1,5-1.11,10.72,10.72,0,0,1,4.82,1,8,8,0,0,1,3.27,2.84,7.32,7.32,0,0,1,1.19,4.1v0a8,8,0,0,1-.59,3,12.91,12.91,0,0,1-2,3.19q-1.43,1.73-4,4.25l-7.89,7.74,1.49-2.81v2.81l-1.49-1.27h14.89v3.69h-19.3Z"/><path class="cls-11" d="M950.42,1514a9.79,9.79,0,0,1,3.55,2.48,11.84,11.84,0,0,1,2.48,4.37,20.34,20.34,0,0,1,.91,6.5v0a21.49,21.49,0,0,1-1.35,8,11.15,11.15,0,0,1-3.86,5.12,10.27,10.27,0,0,1-6.06,1.77,11,11,0,0,1-4.53-.9,9.13,9.13,0,0,1-3.37-2.49,8.65,8.65,0,0,1-1.81-3.68l0-.24h4.4l.08.2a5.39,5.39,0,0,0,1.12,1.82,4.87,4.87,0,0,0,1.79,1.2,6.42,6.42,0,0,0,2.4.42,5.54,5.54,0,0,0,3.93-1.41,8.51,8.51,0,0,0,2.23-3.73,18.92,18.92,0,0,0,.83-5.12c0-.14,0-.29,0-.44v-.46l-.86-4.64a5.86,5.86,0,0,0-.79-3,5.93,5.93,0,0,0-2.14-2.14,5.87,5.87,0,0,0-3-.79,5.94,5.94,0,0,0-3,.78,5.83,5.83,0,0,0-2.16,2.11,5.58,5.58,0,0,0-.8,3v0a5.79,5.79,0,0,0,.77,3,5.64,5.64,0,0,0,2.11,2.06,6.09,6.09,0,0,0,3,.75,6.4,6.4,0,0,0,3.08-.74,5.68,5.68,0,0,0,2.16-2.05,5.52,5.52,0,0,0,.79-2.95v0h1.17v4.78H953a7.06,7.06,0,0,1-1.67,2.3,8.4,8.4,0,0,1-2.65,1.63,9.57,9.57,0,0,1-3.47.6,9.44,9.44,0,0,1-4.79-1.2,8.81,8.81,0,0,1-3.31-3.3A9.4,9.4,0,0,1,936,1523v0a9.28,9.28,0,0,1,5-8.42,11,11,0,0,1,5.32-1.25A11.09,11.09,0,0,1,950.42,1514Z"/><path class="cls-11" d="M966.26,1541.31a8.9,8.9,0,0,1-3.48-2.88,8,8,0,0,1-1.49-4.13l0-.23h4.18l0,.13a4.78,4.78,0,0,0,1,2.3,5.65,5.65,0,0,0,2,1.62,6.39,6.39,0,0,0,2.8.6,6.32,6.32,0,0,0,3.14-.77,5.44,5.44,0,0,0,2.13-2.1,6.15,6.15,0,0,0,.76-3.09v0a6,6,0,0,0-.77-3,5.67,5.67,0,0,0-2.12-2.09,6.26,6.26,0,0,0-3.09-.76,7.53,7.53,0,0,0-2.42.38,5.81,5.81,0,0,0-2,1.15,7,7,0,0,0-1.33,1.62h-3.85l1.39-16.25H980v3.69H966.72l-.86,8.92H966a6.23,6.23,0,0,1,2.63-2.19,8.78,8.78,0,0,1,3.76-.78,9.47,9.47,0,0,1,4.79,1.21,8.73,8.73,0,0,1,3.29,3.29,9.43,9.43,0,0,1,1.2,4.78v0a9.58,9.58,0,0,1-1.33,5,9.28,9.28,0,0,1-3.66,3.42,12.33,12.33,0,0,1-10.37.17Z"/><path class="cls-11" d="M985,1521.35h4.25v3.19h.08a5.55,5.55,0,0,1,2.17-2.6,6.31,6.31,0,0,1,3.52-1,6.68,6.68,0,0,1,2.54.47,5.25,5.25,0,0,1,2,1.38,5.73,5.73,0,0,1,1.21,2.2h.1a6.28,6.28,0,0,1,1.47-2.16,6.6,6.6,0,0,1,2.21-1.4,7.59,7.59,0,0,1,2.72-.49,7.16,7.16,0,0,1,3.54.85,6,6,0,0,1,2.34,2.38,7.25,7.25,0,0,1,.84,3.57v14.14h-4.26v-13.11a4.44,4.44,0,0,0-1-3.09,3.75,3.75,0,0,0-2.91-1.1,4.16,4.16,0,0,0-2.2.56,4,4,0,0,0-1.48,1.58,4.86,4.86,0,0,0-.54,2.31v12.85h-4.16v-13.42a3.61,3.61,0,0,0-3.89-3.88,4.1,4.1,0,0,0-2.2.59,4.16,4.16,0,0,0-1.51,1.63,5.09,5.09,0,0,0-.55,2.38v12.7H985Z"/><path class="cls-11" d="M1018,1521.35h4.26v3.19h.08a5.49,5.49,0,0,1,2.17-2.6,6.3,6.3,0,0,1,3.51-1,6.7,6.7,0,0,1,2.55.47,5.22,5.22,0,0,1,2,1.38,5.75,5.75,0,0,1,1.22,2.2h.09a6.3,6.3,0,0,1,1.48-2.16,6.6,6.6,0,0,1,2.21-1.4,7.51,7.51,0,0,1,2.72-.49,7.12,7.12,0,0,1,3.53.85,6,6,0,0,1,2.35,2.38,7.25,7.25,0,0,1,.84,3.57v14.14h-4.26v-13.11a4.4,4.4,0,0,0-1-3.09,3.72,3.72,0,0,0-2.91-1.1,4.15,4.15,0,0,0-2.19.56,4,4,0,0,0-1.49,1.58,4.86,4.86,0,0,0-.53,2.31v12.85h-4.16v-13.42a3.61,3.61,0,0,0-3.89-3.88,4.1,4.1,0,0,0-2.2.59,4.16,4.16,0,0,0-1.51,1.63,5,5,0,0,0-.55,2.38v12.7H1018Z"/><line class="cls-10" x1="454.24" y1="1409.33" x2="444.24" y2="1409.33"/><rect class="cls-11" x="451.74" y="1393.08" width="5" height="32.5"/><rect class="cls-11" x="441.74" y="1393.08" width="5" height="32.5"/><path class="cls-11" d="M404,1436.47h-.1l-7.36,5.08v-4.16l7.42-5.27h4.34v28.18H404Z"/><path class="cls-11" d="M428.56,1454.7h-14.1v-3.83q1.19-1.87,2.39-3.75l2.4-3.75c.81-1.25,1.6-2.5,2.4-3.75s1.59-2.5,2.39-3.75,1.6-2.5,2.39-3.75h6.33V1451h3.91v3.69h-3.91v5.6h-4.2Zm0-3.62V1435.6h-.12l-2,3.07-2,3.07c-.66,1-1.32,2-2,3.07l-2,3.08c-.65,1-1.31,2-2,3.08v.11Z"/><path class="cls-11" d="M439.85,1439.76h4.26v3.18h.08a5.53,5.53,0,0,1,2.16-2.6,6.36,6.36,0,0,1,3.52-1,6.7,6.7,0,0,1,2.55.47,5.42,5.42,0,0,1,2,1.38,5.68,5.68,0,0,1,1.21,2.2h.1a6.28,6.28,0,0,1,1.47-2.16,6.7,6.7,0,0,1,2.21-1.4,7.61,7.61,0,0,1,2.73-.49,7.12,7.12,0,0,1,3.53.85,6.11,6.11,0,0,1,2.35,2.38,7.36,7.36,0,0,1,.84,3.57v14.14h-4.26v-13.1a4.41,4.41,0,0,0-1-3.1,3.78,3.78,0,0,0-2.91-1.1,4.31,4.31,0,0,0-2.2.56,4,4,0,0,0-1.48,1.59,4.79,4.79,0,0,0-.54,2.3v12.85h-4.16v-13.42a3.59,3.59,0,0,0-3.88-3.88,4.09,4.09,0,0,0-3.72,2.22,5.1,5.1,0,0,0-.54,2.39v12.69h-4.26Z"/><path class="cls-11" d="M472.86,1439.76h4.26v3.18h.07a5.61,5.61,0,0,1,2.17-2.6,6.33,6.33,0,0,1,3.52-1,6.73,6.73,0,0,1,2.55.47,5.42,5.42,0,0,1,2,1.38,5.68,5.68,0,0,1,1.21,2.2h.1a6.28,6.28,0,0,1,1.47-2.16,6.6,6.6,0,0,1,2.21-1.4,7.59,7.59,0,0,1,2.72-.49,7.13,7.13,0,0,1,3.54.85,6,6,0,0,1,2.34,2.38,7.25,7.25,0,0,1,.84,3.57v14.14h-4.25v-13.1a4.41,4.41,0,0,0-1-3.1,3.78,3.78,0,0,0-2.91-1.1,4.28,4.28,0,0,0-2.2.56,4,4,0,0,0-1.48,1.59,4.79,4.79,0,0,0-.54,2.3v12.85h-4.16v-13.42a3.59,3.59,0,0,0-3.89-3.88,4.13,4.13,0,0,0-2.19.59,4.19,4.19,0,0,0-1.52,1.63,5.1,5.1,0,0,0-.54,2.39v12.69h-4.26Z"/><line class="cls-10" x1="799.04" y1="1409.33" x2="789.04" y2="1409.33"/><rect class="cls-11" x="796.54" y="1393.08" width="5" height="32.5"/><rect class="cls-11" x="786.54" y="1393.08" width="5" height="32.5"/><path class="cls-11" d="M748.8,1436.47h-.1l-7.36,5.08v-4.16l7.42-5.27h4.34v28.18h-4.3Z"/><path class="cls-11" d="M773.35,1454.7h-14.1v-3.83q1.18-1.87,2.39-3.75l2.4-3.75c.81-1.25,1.6-2.5,2.4-3.75s1.59-2.5,2.39-3.75,1.6-2.5,2.39-3.75h6.33V1451h3.91v3.69h-3.91v5.6h-4.2Zm0-3.62V1435.6h-.12l-2,3.07-2,3.07c-.66,1-1.32,2-2,3.07l-2,3.08c-.65,1-1.31,2-2,3.08v.11Z"/><path class="cls-11" d="M784.64,1439.76h4.26v3.18H789a5.53,5.53,0,0,1,2.16-2.6,6.36,6.36,0,0,1,3.52-1,6.7,6.7,0,0,1,2.55.47,5.42,5.42,0,0,1,2,1.38,5.68,5.68,0,0,1,1.21,2.2h.1a6.28,6.28,0,0,1,1.47-2.16,6.7,6.7,0,0,1,2.21-1.4,7.61,7.61,0,0,1,2.73-.49,7.12,7.12,0,0,1,3.53.85,6,6,0,0,1,2.35,2.38,7.36,7.36,0,0,1,.84,3.57v14.14h-4.26v-13.1a4.41,4.41,0,0,0-1-3.1,3.78,3.78,0,0,0-2.91-1.1,4.31,4.31,0,0,0-2.2.56,4,4,0,0,0-1.48,1.59,4.79,4.79,0,0,0-.54,2.3v12.85H797v-13.42a3.59,3.59,0,0,0-3.88-3.88,4.09,4.09,0,0,0-3.72,2.22,5.1,5.1,0,0,0-.54,2.39v12.69h-4.26Z"/><path class="cls-11" d="M817.65,1439.76h4.26v3.18H822a5.61,5.61,0,0,1,2.17-2.6,6.33,6.33,0,0,1,3.52-1,6.73,6.73,0,0,1,2.55.47,5.42,5.42,0,0,1,2,1.38,5.68,5.68,0,0,1,1.21,2.2h.1a6.28,6.28,0,0,1,1.47-2.16,6.6,6.6,0,0,1,2.21-1.4,7.59,7.59,0,0,1,2.72-.49,7.13,7.13,0,0,1,3.54.85,6,6,0,0,1,2.34,2.38,7.25,7.25,0,0,1,.84,3.57v14.14h-4.25v-13.1a4.41,4.41,0,0,0-1-3.1,3.78,3.78,0,0,0-2.91-1.1,4.28,4.28,0,0,0-2.2.56,4,4,0,0,0-1.48,1.59,4.79,4.79,0,0,0-.54,2.3v12.85h-4.16v-13.42a3.59,3.59,0,0,0-3.89-3.88,4.13,4.13,0,0,0-2.19.59,4.19,4.19,0,0,0-1.52,1.63,5.1,5.1,0,0,0-.54,2.39v12.69h-4.26Z"/><text/></svg>