<svg id="Ebene_1" data-name="Ebene 1" xmlns="http://www.w3.org/2000/svg" viewBox="0 0 1473.83 1484.05"><defs><style>.cls-1{fill:#454545;}.cls-2,.cls-5{fill:#87603d;}.cls-2{opacity:0.2;}.cls-3{fill:#595959;}.cls-4{opacity:0.8;}.cls-6{fill:#664b32;}.cls-7{fill:#f6f6f6;}.cls-8{fill:#a5a5a5;}.cls-9{fill:none;stroke:#454545;stroke-miterlimit:10;stroke-width:5px;}</style></defs><path class="cls-1" d="M20.13,1324.68H20l-7.37,5.08v-4.16l7.43-5.28h4.33v28.19h-4.3Z"/><path class="cls-1" d="M36.37,1347.92A8.87,8.87,0,0,1,32.9,1345a8.24,8.24,0,0,1-1.5-4.13l0-.24h4.18l0,.14a4.93,4.93,0,0,0,1,2.3,5.65,5.65,0,0,0,2,1.62,6.55,6.55,0,0,0,2.79.59,6.33,6.33,0,0,0,3.15-.76,5.47,5.47,0,0,0,2.13-2.11,6.12,6.12,0,0,0,.76-3.08v0a6,6,0,0,0-.77-3,5.67,5.67,0,0,0-2.12-2.09,6.15,6.15,0,0,0-3.09-.76,7.53,7.53,0,0,0-2.42.38,5.63,5.63,0,0,0-2,1.14,6.24,6.24,0,0,0-.71.74,6.65,6.65,0,0,0-.62.88H31.89l1.39-16.25H50.1V1324H36.83l-.86,8.93h.1a6.32,6.32,0,0,1,2.63-2.2,8.93,8.93,0,0,1,3.76-.77,9.4,9.4,0,0,1,4.78,1.2,8.83,8.83,0,0,1,3.3,3.29,9.46,9.46,0,0,1,1.2,4.79v0a9.58,9.58,0,0,1-1.33,5,9.35,9.35,0,0,1-3.66,3.42,11.37,11.37,0,0,1-5.37,1.23A11.45,11.45,0,0,1,36.37,1347.92Z"/><path class="cls-1" d="M55.15,1328h4.26v3.18h.08a5.53,5.53,0,0,1,2.17-2.59,6.3,6.3,0,0,1,3.51-1,6.7,6.7,0,0,1,2.55.47,5.33,5.33,0,0,1,2,1.38,5.69,5.69,0,0,1,1.21,2.19H71a6.65,6.65,0,0,1,1.48-2.16,6.58,6.58,0,0,1,2.21-1.39,7.35,7.35,0,0,1,2.72-.49,7.08,7.08,0,0,1,3.54.85,6.06,6.06,0,0,1,2.34,2.37,7.31,7.31,0,0,1,.84,3.58v14.14H79.86V1335.4a4.41,4.41,0,0,0-1-3.09,3.75,3.75,0,0,0-2.91-1.11,4.17,4.17,0,0,0-2.2.57,4,4,0,0,0-1.49,1.58,5,5,0,0,0-.53,2.31v12.85H67.56v-13.42a3.62,3.62,0,0,0-3.89-3.89,4.1,4.1,0,0,0-2.2.6,4.16,4.16,0,0,0-1.51,1.63,5,5,0,0,0-.55,2.38v12.7H55.15Z"/><path class="cls-1" d="M88.16,1328h4.26v3.18h.08a5.47,5.47,0,0,1,2.17-2.59,6.3,6.3,0,0,1,3.51-1,6.7,6.7,0,0,1,2.55.47,5.22,5.22,0,0,1,2,1.38,5.57,5.57,0,0,1,1.21,2.19h.1a6.46,6.46,0,0,1,3.68-3.55,7.4,7.4,0,0,1,2.73-.49,7,7,0,0,1,3.53.85,6,6,0,0,1,2.35,2.37,7.31,7.31,0,0,1,.84,3.58v14.14h-4.26V1335.4a4.36,4.36,0,0,0-1-3.09,3.72,3.72,0,0,0-2.91-1.11,4.16,4.16,0,0,0-2.19.57,4,4,0,0,0-1.49,1.58,4.86,4.86,0,0,0-.54,2.31v12.85h-4.16v-13.42a3.61,3.61,0,0,0-3.88-3.89,4.08,4.08,0,0,0-2.2.6,4.16,4.16,0,0,0-1.51,1.63,5,5,0,0,0-.55,2.38v12.7H88.16Z"/><path class="cls-1" d="M247.53,1410.11h-.09l-7.37,5.08V1411l7.42-5.27h4.34v28.18h-4.3Z"/><path class="cls-1" d="M263.77,1433.35a8.87,8.87,0,0,1-3.47-2.88,8.15,8.15,0,0,1-1.5-4.13l0-.23H263l0,.13a4.89,4.89,0,0,0,1,2.3,5.65,5.65,0,0,0,2,1.62A6.81,6.81,0,0,0,272,1430a5.4,5.4,0,0,0,2.13-2.11,6.19,6.19,0,0,0,.76-3.08v0a6,6,0,0,0-.77-3,5.67,5.67,0,0,0-2.12-2.09,6.26,6.26,0,0,0-3.09-.76,7.53,7.53,0,0,0-2.42.38,6,6,0,0,0-2,1.14,7.35,7.35,0,0,0-.72.75,6.24,6.24,0,0,0-.61.88h-3.85l1.39-16.25h16.81v3.69H264.23l-.86,8.92h.1a6.17,6.17,0,0,1,2.63-2.19,8.75,8.75,0,0,1,3.76-.78,9.33,9.33,0,0,1,4.78,1.21,8.66,8.66,0,0,1,3.29,3.29,9.4,9.4,0,0,1,1.2,4.78v0a9.57,9.57,0,0,1-1.32,5,9.24,9.24,0,0,1-3.67,3.42,12.33,12.33,0,0,1-10.37.17Z"/><path class="cls-1" d="M282.55,1413.39h4.26v3.19h.08a5.49,5.49,0,0,1,2.17-2.6,6.3,6.3,0,0,1,3.51-1,6.7,6.7,0,0,1,2.55.47,5.22,5.22,0,0,1,2,1.38,5.51,5.51,0,0,1,1.21,2.19h.1a6.36,6.36,0,0,1,1.48-2.15,6.56,6.56,0,0,1,2.2-1.4,7.61,7.61,0,0,1,2.73-.49,7.12,7.12,0,0,1,3.53.85,6,6,0,0,1,2.35,2.37,7.31,7.31,0,0,1,.84,3.58v14.14h-4.26v-13.11a4.38,4.38,0,0,0-1-3.09,3.72,3.72,0,0,0-2.91-1.11,4.16,4.16,0,0,0-2.19.57,4.05,4.05,0,0,0-1.49,1.58,4.86,4.86,0,0,0-.53,2.31v12.85H295v-13.42a3.62,3.62,0,0,0-3.89-3.89,4.1,4.1,0,0,0-2.2.6,4.16,4.16,0,0,0-1.51,1.63,5,5,0,0,0-.55,2.38v12.7h-4.26Z"/><path class="cls-1" d="M315.56,1413.39h4.26v3.19h.08a5.53,5.53,0,0,1,2.16-2.6,6.36,6.36,0,0,1,3.52-1,6.7,6.7,0,0,1,2.55.47,5.3,5.3,0,0,1,2,1.38,5.64,5.64,0,0,1,1.21,2.19h.1a6.33,6.33,0,0,1,1.47-2.15,6.7,6.7,0,0,1,2.21-1.4,7.61,7.61,0,0,1,2.73-.49,7.12,7.12,0,0,1,3.53.85,6.08,6.08,0,0,1,2.35,2.37,7.31,7.31,0,0,1,.84,3.58v14.14h-4.26v-13.11a4.38,4.38,0,0,0-1-3.09,3.72,3.72,0,0,0-2.91-1.11,4.22,4.22,0,0,0-2.2.57,4,4,0,0,0-1.48,1.58,4.86,4.86,0,0,0-.54,2.31v12.85H328v-13.42a3.61,3.61,0,0,0-3.88-3.89,4.09,4.09,0,0,0-3.71,2.23,5,5,0,0,0-.55,2.38v12.7h-4.26Z"/><path class="cls-1" d="M92.2,1410.11h-.1l-7.37,5.08V1411l7.43-5.28h4.33v28.19H92.2Z"/><path class="cls-1" d="M107.87,1432.63a11.1,11.1,0,0,1-3.7-5,21,21,0,0,1-1.29-7.73v0a21.05,21.05,0,0,1,1.29-7.74,11.12,11.12,0,0,1,3.7-5,10.34,10.34,0,0,1,11.54,0,11.14,11.14,0,0,1,3.71,5,20.84,20.84,0,0,1,1.3,7.74v0a20.75,20.75,0,0,1-1.3,7.73,11.11,11.11,0,0,1-3.71,5,10.24,10.24,0,0,1-11.54,0Zm9.2-3.2a8.41,8.41,0,0,0,2.17-3.75,20,20,0,0,0,.75-5.82v0a19.85,19.85,0,0,0-.75-5.81,8.42,8.42,0,0,0-2.17-3.74,5.15,5.15,0,0,0-6.86,0,8.32,8.32,0,0,0-2.16,3.74,20.22,20.22,0,0,0-.74,5.81v0a20.34,20.34,0,0,0,.74,5.82,8.3,8.3,0,0,0,2.16,3.75,5.15,5.15,0,0,0,6.86,0Z"/><path class="cls-1" d="M128.21,1413.39h4.26v3.19h.08a5.53,5.53,0,0,1,2.16-2.6,6.36,6.36,0,0,1,3.52-1,6.7,6.7,0,0,1,2.55.47,5.22,5.22,0,0,1,2,1.38A5.57,5.57,0,0,1,144,1417h.1a6.22,6.22,0,0,1,1.48-2.15,6.56,6.56,0,0,1,2.2-1.4,7.61,7.61,0,0,1,2.73-.49,7,7,0,0,1,3.53.85,6.08,6.08,0,0,1,2.35,2.37,7.31,7.31,0,0,1,.84,3.58v14.14h-4.26v-13.11a4.36,4.36,0,0,0-1-3.09,3.75,3.75,0,0,0-2.91-1.11,4.22,4.22,0,0,0-2.2.57,4,4,0,0,0-1.48,1.58,4.86,4.86,0,0,0-.54,2.31v12.85h-4.16v-13.42a3.61,3.61,0,0,0-3.88-3.89,4.09,4.09,0,0,0-3.71,2.23,5,5,0,0,0-.55,2.38v12.7h-4.26Z"/><path class="cls-1" d="M161.22,1413.39h4.26v3.19h.07a5.61,5.61,0,0,1,2.17-2.6,6.33,6.33,0,0,1,3.52-1,6.7,6.7,0,0,1,2.55.47,5.3,5.3,0,0,1,2,1.38A5.57,5.57,0,0,1,177,1417h.1a6.33,6.33,0,0,1,1.47-2.15,6.6,6.6,0,0,1,2.21-1.4,7.59,7.59,0,0,1,2.72-.49,7,7,0,0,1,3.54.85,6.06,6.06,0,0,1,2.34,2.37,7.31,7.31,0,0,1,.84,3.58v14.14h-4.25v-13.11a4.36,4.36,0,0,0-1-3.09,3.75,3.75,0,0,0-2.91-1.11,4.19,4.19,0,0,0-2.2.57,4,4,0,0,0-1.48,1.58,4.86,4.86,0,0,0-.54,2.31v12.85h-4.16v-13.42a3.61,3.61,0,0,0-3.89-3.89,4,4,0,0,0-2.19.6,4.19,4.19,0,0,0-1.52,1.63,5.06,5.06,0,0,0-.54,2.38v12.7h-4.26Z"/><rect class="cls-2" x="169.76" y="87.6" width="1167.51" height="1264.61"/><rect class="cls-3" x="263.55" y="520.86" width="1008.33" height="802.93" rx="59.84" transform="translate(1535.44 1844.65) rotate(180)"/><g class="cls-4"><rect class="cls-5" x="217.8" y="1324.51" width="1099.83" height="26.14"/><path class="cls-6" d="M1316.7,1325.44v24.28h-1098v-24.28h1098m1.87-1.86H216.87v28h1101.7v-28Z"/></g><g class="cls-4"><rect class="cls-5" x="198.55" y="568.26" width="16.81" height="782.39"/><path class="cls-6" d="M214.42,569.19v780.53H199.48V569.19h14.94m1.87-1.86H197.61v784.26h18.68V567.33Z"/></g><g class="cls-4"><rect class="cls-5" x="198.55" y="234.46" width="16.81" height="222.21"/><path class="cls-6" d="M214.42,235.39V455.73H199.48V235.39h14.94m1.87-1.86H197.61V457.6h18.68V233.53Z"/></g><g class="cls-4"><rect class="cls-5" x="169.65" y="474.9" width="26.14" height="875.76"/><path class="cls-6" d="M194.86,475.83v873.89H170.59V475.83h24.27m1.87-1.87h-28v877.63h28V474Z"/></g><g class="cls-4"><rect class="cls-5" x="169.65" y="225.12" width="26.14" height="240.88"/><path class="cls-6" d="M194.86,226.06v239H170.59v-239h24.27m1.87-1.87h-28V466.94h28V224.19Z"/></g><g class="cls-4"><rect class="cls-5" x="1270.18" y="1286.93" width="26.14" height="35.48"/><path class="cls-6" d="M1295.39,1287.86v33.61h-24.27v-33.61h24.27m1.87-1.87h-28v37.35h28V1286Z"/></g><path class="cls-7" d="M663.21,825.87h10.21v65.79H663.21Zm9.57,31.46h1l26.49-31.46h12.12L687,855.59h-1.28l-12.9,14.87Zm6.25,3,7.29-7,28.22,38.3H701.87Z"/><path class="cls-7" d="M727,890.45a14.21,14.21,0,0,1-5.67-6.18,21.44,21.44,0,0,1-2-9.53v-31h9.94v29.17q0,5.43,2.52,8.32t7.64,2.9a11.53,11.53,0,0,0,6-1.55,10.35,10.35,0,0,0,4-4.36,14.52,14.52,0,0,0,1.39-6.49v-28h9.89v48h-9.89v-7.21h-.23a14.82,14.82,0,0,1-5.54,5.91,17.2,17.2,0,0,1-9.14,2.25A17.56,17.56,0,0,1,727,890.45Zm.3-55.62a5.23,5.23,0,0,1,0-7.43,5.17,5.17,0,0,1,3.78-1.53,5.25,5.25,0,1,1,0,10.49A5.17,5.17,0,0,1,727.26,834.83Zm18,0a5.23,5.23,0,0,1,0-7.43,5.12,5.12,0,0,1,3.73-1.53,5.17,5.17,0,0,1,3.81,1.53,5.28,5.28,0,0,1,0,7.43,5.17,5.17,0,0,1-3.81,1.53A5.12,5.12,0,0,1,745.27,834.83Z"/><path class="cls-7" d="M770.84,825.87h9.89v25.71H781a14.11,14.11,0,0,1,5.68-6.49,17.35,17.35,0,0,1,9.18-2.3,16.43,16.43,0,0,1,9,2.39,16.12,16.12,0,0,1,5.93,6.72A22.82,22.82,0,0,1,812.83,862v29.64h-9.89V863.89q0-6-2.88-9.3a10.07,10.07,0,0,0-8.07-3.33,10.56,10.56,0,0,0-9.84,6,14.66,14.66,0,0,0-1.42,6.61v27.77h-9.89Z"/><path class="cls-7" d="M822.72,825.87h9.89v65.79h-9.89Z"/><path class="cls-7" d="M843.42,860.47h29.31v9H843.42Z"/><path class="cls-7" d="M619.6,984.13a16.17,16.17,0,0,1-6.77-5.15,15.55,15.55,0,0,1-3-7.68l0-.41h9.76l.09.45a8.4,8.4,0,0,0,3.24,5.13,11.65,11.65,0,0,0,7,1.85,15.2,15.2,0,0,0,5.1-.75,7.22,7.22,0,0,0,3.24-2.17,5.21,5.21,0,0,0,1.14-3.37v0a4.91,4.91,0,0,0-1.5-3.74,12.52,12.52,0,0,0-5.38-2.37l-7.84-1.78q-6.84-1.55-10.24-4.9a11.5,11.5,0,0,1-3.4-8.54v0a12.72,12.72,0,0,1,2.33-7.59A15.08,15.08,0,0,1,619.9,938a24.41,24.41,0,0,1,9.71-1.8,23,23,0,0,1,9.76,1.91,15.71,15.71,0,0,1,6.4,5.22,14.07,14.07,0,0,1,2.53,7.37v.54h-9.25l0-.32a7.67,7.67,0,0,0-2.83-5.12,10,10,0,0,0-6.56-2,12.47,12.47,0,0,0-4.61.78,6.51,6.51,0,0,0-3,2.21,5.52,5.52,0,0,0-1,3.35v0a4.93,4.93,0,0,0,1.64,3.74,11.74,11.74,0,0,0,5.47,2.42l7.84,1.82c4.89,1.13,8.37,2.71,10.42,4.77a11.18,11.18,0,0,1,3.07,8.27v.05a12.46,12.46,0,0,1-2.5,7.7,16.59,16.59,0,0,1-6.91,5.2A25.58,25.58,0,0,1,629.93,986,26.16,26.16,0,0,1,619.6,984.13Z"/><path class="cls-7" d="M665.55,982.92a20.19,20.19,0,0,1-7.88-8.66A29.73,29.73,0,0,1,654.91,961v0a29,29,0,0,1,2.8-13.18,20.5,20.5,0,0,1,7.91-8.59,23,23,0,0,1,12-3,22.6,22.6,0,0,1,10.64,2.35,18.5,18.5,0,0,1,7,6.22,18,18,0,0,1,3,8.39l0,.36h-9.43l-.09-.41A11.59,11.59,0,0,0,685.2,947a10.68,10.68,0,0,0-7.59-2.58,11.16,11.16,0,0,0-6.63,2,13.05,13.05,0,0,0-4.42,5.77A22.67,22.67,0,0,0,665,961v.05a22.67,22.67,0,0,0,1.59,8.95,12.79,12.79,0,0,0,4.45,5.68,11.43,11.43,0,0,0,6.67,2,11,11,0,0,0,7.37-2.39,11.47,11.47,0,0,0,3.71-6.27l.05-.37h9.48V969a18.34,18.34,0,0,1-3.26,8.64,19.14,19.14,0,0,1-7.16,6.11A22.33,22.33,0,0,1,677.66,986,23.21,23.21,0,0,1,665.55,982.92Z"/><path class="cls-7" d="M705.69,919.24h9.9V945h.23a14.06,14.06,0,0,1,5.67-6.5,17.48,17.48,0,0,1,9.19-2.3,16.49,16.49,0,0,1,9,2.39,16.08,16.08,0,0,1,5.93,6.73,22.79,22.79,0,0,1,2.12,10.12V985h-9.89V957.26q0-6-2.87-9.3a10.1,10.1,0,0,0-8.07-3.33,10.52,10.52,0,0,0-9.85,6,14.6,14.6,0,0,0-1.41,6.61V985h-9.9Z"/><path class="cls-7" d="M757.16,937.06h9.94v8.21h.18a12.73,12.73,0,0,1,4.06-6.68,10.59,10.59,0,0,1,7-2.44,16.85,16.85,0,0,1,2,.11,13.79,13.79,0,0,1,1.44.25v9.17a8.68,8.68,0,0,0-1.78-.39,19.3,19.3,0,0,0-2.64-.16,10.79,10.79,0,0,0-5.47,1.34,8.82,8.82,0,0,0-3.56,3.88,13.84,13.84,0,0,0-1.23,6.09V985h-9.94Z"/><path class="cls-7" d="M792.58,984.06A13.57,13.57,0,0,1,787,979a14.2,14.2,0,0,1-2-7.57v-.09a12,12,0,0,1,4.67-10q4.68-3.68,13.16-4.17l18.14-1.1V963l-16.82,1a12.26,12.26,0,0,0-6.82,2.12,5.89,5.89,0,0,0-2.39,4.9v.09a5.91,5.91,0,0,0,2.39,5,10.22,10.22,0,0,0,6.36,1.82,13.51,13.51,0,0,0,6.23-1.41,11.1,11.1,0,0,0,4.35-3.9,10.13,10.13,0,0,0,1.59-5.58V952.79a8,8,0,0,0-2.46-6.22q-2.46-2.27-7.06-2.26a11.61,11.61,0,0,0-6.82,1.82,7.63,7.63,0,0,0-3.21,4.7l-.09.41h-9.3l0-.5a14.56,14.56,0,0,1,2.78-7.46,16.42,16.42,0,0,1,6.7-5.22,24.91,24.91,0,0,1,10.17-1.91,24.25,24.25,0,0,1,10.17,2,15.53,15.53,0,0,1,6.65,5.52,14.68,14.68,0,0,1,2.37,8.34v33h-9.94v-7.57h-.18a15.7,15.7,0,0,1-3.64,4.49,16.46,16.46,0,0,1-5,2.92,17.43,17.43,0,0,1-6,1A18.32,18.32,0,0,1,792.58,984.06Z"/><path class="cls-7" d="M835.25,937.06h9.94v7.25h.19a15,15,0,0,1,5.6-5.9,17.13,17.13,0,0,1,9.12-2.26q7.89,0,12.22,4.76T876.65,954v31h-9.89V955.89c0-3.62-.85-6.4-2.53-8.34s-4.24-2.92-7.64-2.92a11.53,11.53,0,0,0-6,1.55,10.33,10.33,0,0,0-4,4.33,14.58,14.58,0,0,0-1.39,6.56V985h-9.94Z"/><path class="cls-7" d="M886.72,919.24h9.9V985h-9.9Zm8.16,38.24h2L916,937.06h11.62l-22.47,23.62h-1.51l-8.8,8.79Zm5.11,5.29,6.43-7.06,22,29.31H917Z"/><g class="cls-4"><polygon class="cls-5" points="217.87 1322.49 217.87 587.88 1073.37 1322.49 217.87 1322.49"/><path class="cls-6" d="M218.8,589.92l852.05,731.64h-852V589.92m-1.86-4.07v737.58h859L216.94,585.85Z"/></g><rect class="cls-8" x="217.76" y="1248.82" width="1027.01" height="74.69" transform="translate(1462.53 2572.33) rotate(180)"/><g class="cls-4"><rect class="cls-5" x="218.54" y="439.86" width="1099.17" height="16.81"/><path class="cls-6" d="M1316.77,440.79v14.94H219.47V440.79h1097.3m1.86-1.86H217.6V457.6h1101V438.93Z"/></g><g class="cls-4"><rect class="cls-5" x="218.69" y="270.67" width="1098.66" height="166.19"/><path class="cls-6" d="M1316.42,271.6V435.92H219.63V271.6H1316.42m1.87-1.87H217.76V437.79H1318.29V269.73Z"/></g><g class="cls-4"><rect class="cls-5" x="170.7" y="101.84" width="26.14" height="44.81"/><path class="cls-6" d="M195.91,102.77v43H171.63V102.77h24.28m1.86-1.87h-28v46.68h28V100.9Z"/></g><rect class="cls-6" x="142.26" y="41.65" width="1195.06" height="56.02"/><rect class="cls-6" x="189.94" y="153.42" width="1120.37" height="56.02"/><g class="cls-4"><rect class="cls-5" x="170.7" y="154.29" width="16.81" height="63.49"/><path class="cls-6" d="M186.57,155.22v61.62H171.63V155.22h14.94m1.87-1.87H169.76v65.36h18.68V153.35Z"/></g><rect class="cls-8" x="189.91" y="157.09" width="1027.01" height="48.55" transform="translate(1406.83 362.72) rotate(180)"/><line class="cls-9" x1="207.81" y1="1345.34" x2="150.68" y2="1402.47"/><line class="cls-9" x1="180.74" y1="1265.95" x2="123.6" y2="1323.08"/><line class="cls-9" x1="355.12" y1="1342.58" x2="297.99" y2="1399.72"/><line class="cls-9" x1="1365.3" y1="155.73" x2="1365.3" y2="206.62"/><rect class="cls-1" x="1349.05" y="153.23" width="32.5" height="5"/><rect class="cls-1" x="1349.05" y="204.12" width="32.5" height="5"/><path class="cls-1" d="M1421.21,232a8.66,8.66,0,0,1-2.79,3.57,7.91,7.91,0,0,1-4.09,1.5l-.23,0v-4.22l.21,0a4.21,4.21,0,0,0,3.06-1.84,8.07,8.07,0,0,0,.6-7.29,4.73,4.73,0,0,0-1.65-2,4.14,4.14,0,0,0-2.4-.72h0a4.38,4.38,0,0,0-3.66,1.62,7,7,0,0,0-1.28,4.43v3.44h-3.44v-3.3a6.57,6.57,0,0,0-.57-2.82,4.55,4.55,0,0,0-1.6-1.9,4.07,4.07,0,0,0-2.32-.67h0a4.37,4.37,0,0,0-2.32.58,3.62,3.62,0,0,0-1.46,1.69,6.76,6.76,0,0,0-.5,2.73,7.05,7.05,0,0,0,.51,2.77,4.65,4.65,0,0,0,1.47,1.94,4.5,4.5,0,0,0,2.26.86h.2v4.15l-.22,0a8.4,8.4,0,0,1-4.12-1.5,8.29,8.29,0,0,1-2.72-3.36,11.41,11.41,0,0,1-1-4.85,11.93,11.93,0,0,1,.93-4.9,7.59,7.59,0,0,1,2.57-3.25,6.49,6.49,0,0,1,3.8-1.15h0a6.12,6.12,0,0,1,3.1.77,6.8,6.8,0,0,1,2.23,2.11,8.76,8.76,0,0,1,1.24,3.06h.09a8,8,0,0,1,2.05-5,6.28,6.28,0,0,1,4.77-1.89h0a7.31,7.31,0,0,1,4.28,1.3,8.84,8.84,0,0,1,2.93,3.61,14,14,0,0,1,0,10.56Z"/><path class="cls-1" d="M1420.44,207.87a11.1,11.1,0,0,1-5,3.7,21,21,0,0,1-7.73,1.29h0a21,21,0,0,1-7.73-1.29,11.07,11.07,0,0,1-5-3.7,10.29,10.29,0,0,1,0-11.54,11.08,11.08,0,0,1,5-3.71,20.75,20.75,0,0,1,7.73-1.3h0a20.75,20.75,0,0,1,7.73,1.3,11.11,11.11,0,0,1,5,3.71,10.24,10.24,0,0,1,0,11.54Zm-3.2-9.2a8.3,8.3,0,0,0-3.75-2.16,19.61,19.61,0,0,0-5.82-.76h0a19.49,19.49,0,0,0-5.81.76,8.32,8.32,0,0,0-3.74,2.16,5.15,5.15,0,0,0,0,6.86,8.32,8.32,0,0,0,3.74,2.16,20.22,20.22,0,0,0,5.81.74h0a20.34,20.34,0,0,0,5.82-.74,8.3,8.3,0,0,0,3.75-2.16,5.15,5.15,0,0,0,0-6.86Z"/><path class="cls-1" d="M1401.21,187.53v-4.26h3.18v-.08a5.53,5.53,0,0,1-2.6-2.16,6.36,6.36,0,0,1-1-3.52,6.7,6.7,0,0,1,.47-2.55,5.42,5.42,0,0,1,1.38-2,5.68,5.68,0,0,1,2.2-1.21v-.1a6.37,6.37,0,0,1-2.16-1.47,6.7,6.7,0,0,1-1.4-2.21,7.61,7.61,0,0,1-.49-2.73,7.12,7.12,0,0,1,.85-3.53,6,6,0,0,1,2.38-2.34,7.25,7.25,0,0,1,3.57-.84h14.14v4.25h-13.1a4.41,4.41,0,0,0-3.1,1,3.78,3.78,0,0,0-1.1,2.91,4.28,4.28,0,0,0,.56,2.2,4,4,0,0,0,1.59,1.48,4.79,4.79,0,0,0,2.3.54h12.85v4.16h-13.42a3.59,3.59,0,0,0-3.88,3.89,4.13,4.13,0,0,0,.59,2.19,4.19,4.19,0,0,0,1.63,1.52,5.13,5.13,0,0,0,2.39.54h12.69v4.26Z"/><path class="cls-1" d="M1401.21,154.52v-4.25h3.18v-.08a5.61,5.61,0,0,1-2.6-2.17,6.33,6.33,0,0,1-1-3.52,6.77,6.77,0,0,1,.47-2.55,5.42,5.42,0,0,1,1.38-2,5.68,5.68,0,0,1,2.2-1.21v-.1a6.37,6.37,0,0,1-2.16-1.47,6.6,6.6,0,0,1-1.4-2.21,7.59,7.59,0,0,1-.49-2.72,7.13,7.13,0,0,1,.85-3.54,6,6,0,0,1,2.38-2.34,7.25,7.25,0,0,1,3.57-.84h14.14v4.26h-13.1a4.4,4.4,0,0,0-3.1,1,3.78,3.78,0,0,0-1.1,2.91,4.26,4.26,0,0,0,.56,2.2,3.92,3.92,0,0,0,1.59,1.48,4.79,4.79,0,0,0,2.3.54h12.85v4.16h-13.42a3.61,3.61,0,0,0-3.88,3.89,4.13,4.13,0,0,0,.59,2.19,4.19,4.19,0,0,0,1.63,1.52,5.14,5.14,0,0,0,2.39.55h12.69v4.25Z"/><line class="cls-9" x1="1365.3" y1="273.69" x2="1365.3" y2="456.43"/><rect class="cls-1" x="1349.05" y="271.19" width="32.5" height="5"/><rect class="cls-1" x="1349.05" y="453.93" width="32.5" height="5"/><path class="cls-1" d="M1397.92,422.87v.1l5.08,7.37h-4.16l-5.27-7.43v-4.33h28.18v4.29Z"/><path class="cls-1" d="M1420.44,407.2a11.1,11.1,0,0,1-5,3.7,21,21,0,0,1-7.73,1.29h0a21,21,0,0,1-7.73-1.29,11.07,11.07,0,0,1-5-3.7,10.29,10.29,0,0,1,0-11.54,11.08,11.08,0,0,1,5-3.71,20.75,20.75,0,0,1,7.73-1.3h0a20.75,20.75,0,0,1,7.73,1.3,11.11,11.11,0,0,1,5,3.71,10.24,10.24,0,0,1,0,11.54Zm-3.2-9.2a8.31,8.31,0,0,0-3.75-2.17,20,20,0,0,0-5.82-.75h0a19.85,19.85,0,0,0-5.81.75,8.33,8.33,0,0,0-3.74,2.17,5.15,5.15,0,0,0,0,6.86,8.32,8.32,0,0,0,3.74,2.16,20.22,20.22,0,0,0,5.81.74h0a20.34,20.34,0,0,0,5.82-.74,8.3,8.3,0,0,0,3.75-2.16,5.15,5.15,0,0,0,0-6.86Z"/><path class="cls-1" d="M1420.44,382.22a11.1,11.1,0,0,1-5,3.7,21,21,0,0,1-7.73,1.29h0a21,21,0,0,1-7.73-1.29,11.07,11.07,0,0,1-5-3.7,10.29,10.29,0,0,1,0-11.54,11.08,11.08,0,0,1,5-3.71,20.75,20.75,0,0,1,7.73-1.3h0a20.75,20.75,0,0,1,7.73,1.3,11.11,11.11,0,0,1,5,3.71,10.24,10.24,0,0,1,0,11.54Zm-3.2-9.2a8.31,8.31,0,0,0-3.75-2.17,20,20,0,0,0-5.82-.75h0a19.85,19.85,0,0,0-5.81.75,8.33,8.33,0,0,0-3.74,2.17,5.15,5.15,0,0,0,0,6.86,8.22,8.22,0,0,0,3.74,2.15,19.85,19.85,0,0,0,5.81.75h0a20,20,0,0,0,5.82-.75,8.21,8.21,0,0,0,3.75-2.15,5.15,5.15,0,0,0,0-6.86Z"/><path class="cls-1" d="M1401.21,361.88v-4.26h3.18v-.08a5.49,5.49,0,0,1-2.6-2.17,6.3,6.3,0,0,1-1-3.51,6.7,6.7,0,0,1,.47-2.55,5.33,5.33,0,0,1,1.38-2,5.68,5.68,0,0,1,2.2-1.21V346a6.26,6.26,0,0,1-2.16-1.48,6.56,6.56,0,0,1-1.4-2.2,7.61,7.61,0,0,1-.49-2.73,7.12,7.12,0,0,1,.85-3.53,6,6,0,0,1,2.38-2.35,7.25,7.25,0,0,1,3.57-.84h14.14v4.26h-13.1a4.41,4.41,0,0,0-3.1,1,3.75,3.75,0,0,0-1.1,2.91,4.25,4.25,0,0,0,.56,2.19,3.94,3.94,0,0,0,1.59,1.49,4.79,4.79,0,0,0,2.3.54h12.85v4.16h-13.42a3.84,3.84,0,0,0-2.84,1,3.88,3.88,0,0,0-1,2.84,4.06,4.06,0,0,0,2.22,3.71,5,5,0,0,0,2.39.55h12.69v4.26Z"/><path class="cls-1" d="M1401.21,328.87v-4.26h3.18v-.08a5.53,5.53,0,0,1-2.6-2.16,6.36,6.36,0,0,1-1-3.52,6.7,6.7,0,0,1,.47-2.55,5.42,5.42,0,0,1,1.38-2,5.68,5.68,0,0,1,2.2-1.21V313a6.37,6.37,0,0,1-2.16-1.47,6.7,6.7,0,0,1-1.4-2.21,7.61,7.61,0,0,1-.49-2.73,7.12,7.12,0,0,1,.85-3.53,6,6,0,0,1,2.38-2.34,7.25,7.25,0,0,1,3.57-.84h14.14v4.25h-13.1a4.41,4.41,0,0,0-3.1,1,3.78,3.78,0,0,0-1.1,2.91,4.28,4.28,0,0,0,.56,2.2,4,4,0,0,0,1.59,1.48,4.79,4.79,0,0,0,2.3.54h12.85v4.16h-13.42a3.59,3.59,0,0,0-3.88,3.88,4.14,4.14,0,0,0,.59,2.2,4.19,4.19,0,0,0,1.63,1.52,5.13,5.13,0,0,0,2.39.54h12.69v4.26Z"/><line class="cls-9" x1="1365.3" y1="525.08" x2="1365.3" y2="1325.06"/><rect class="cls-1" x="1349.05" y="522.58" width="32.5" height="5"/><rect class="cls-1" x="1349.05" y="1322.56" width="32.5" height="5"/><path class="cls-1" d="M1416.15,979.48v14.1h-3.83l-3.75-2.39-3.75-2.41-3.75-2.39-3.75-2.39-3.75-2.39v-6.33h18.89v-3.91h3.69v3.91h5.6v4.2Zm-3.62,0H1397v.12c1,.66,2.06,1.32,3.08,2l3.07,2,3.07,2,3.08,2,3.08,2h.11Z"/><path class="cls-1" d="M1421.21,963.49a8.72,8.72,0,0,1-2.79,3.57,7.91,7.91,0,0,1-4.09,1.5l-.23,0v-4.22l.21,0a4.21,4.21,0,0,0,3.06-1.84,8.07,8.07,0,0,0,.6-7.29,4.67,4.67,0,0,0-1.65-2,4.14,4.14,0,0,0-2.4-.72h0a4.38,4.38,0,0,0-3.66,1.62,7,7,0,0,0-1.28,4.43V962h-3.44v-3.3a6.65,6.65,0,0,0-.57-2.83,4.58,4.58,0,0,0-1.6-1.89,4.07,4.07,0,0,0-2.32-.67h0a4.46,4.46,0,0,0-2.32.57,3.65,3.65,0,0,0-1.46,1.7,6.76,6.76,0,0,0-.5,2.73,7.09,7.09,0,0,0,.51,2.77,4.55,4.55,0,0,0,1.47,1.93,4.33,4.33,0,0,0,2.26.86l.2,0V968l-.22,0a8.11,8.11,0,0,1-6.84-4.85,11.41,11.41,0,0,1-1-4.85,12,12,0,0,1,.93-4.91,7.62,7.62,0,0,1,2.57-3.24,6.42,6.42,0,0,1,3.8-1.15h0a6.12,6.12,0,0,1,3.1.77,6.8,6.8,0,0,1,2.23,2.11,8.68,8.68,0,0,1,1.24,3.06h.09a8,8,0,0,1,2.05-5,6.29,6.29,0,0,1,4.77-1.9h0a7.32,7.32,0,0,1,4.28,1.31,8.81,8.81,0,0,1,2.93,3.6,14.07,14.07,0,0,1,0,10.57Z"/><path class="cls-1" d="M1420.44,939.37a11.1,11.1,0,0,1-5,3.7,21,21,0,0,1-7.73,1.29h0a21,21,0,0,1-7.73-1.29,11.07,11.07,0,0,1-5-3.7,10.29,10.29,0,0,1,0-11.54,11.08,11.08,0,0,1,5-3.71,20.75,20.75,0,0,1,7.73-1.3h0a20.75,20.75,0,0,1,7.73,1.3,11.11,11.11,0,0,1,5,3.71,10.24,10.24,0,0,1,0,11.54Zm-3.2-9.2a8.31,8.31,0,0,0-3.75-2.17,20,20,0,0,0-5.82-.75h0a19.85,19.85,0,0,0-5.81.75,8.33,8.33,0,0,0-3.74,2.17,5.15,5.15,0,0,0,0,6.86,8.22,8.22,0,0,0,3.74,2.15,19.85,19.85,0,0,0,5.81.75h0a20,20,0,0,0,5.82-.75,8.21,8.21,0,0,0,3.75-2.15,5.15,5.15,0,0,0,0-6.86Z"/><path class="cls-1" d="M1401.21,919v-4.26h3.18v-.08a5.49,5.49,0,0,1-2.6-2.17,6.3,6.3,0,0,1-1-3.51,6.7,6.7,0,0,1,.47-2.55,5.33,5.33,0,0,1,1.38-2,5.68,5.68,0,0,1,2.2-1.21v-.1a6.26,6.26,0,0,1-2.16-1.48,6.56,6.56,0,0,1-1.4-2.2,7.61,7.61,0,0,1-.49-2.73,7.12,7.12,0,0,1,.85-3.53,6,6,0,0,1,2.38-2.35,7.25,7.25,0,0,1,3.57-.84h14.14v4.26h-13.1a4.41,4.41,0,0,0-3.1,1,3.77,3.77,0,0,0-1.1,2.91,4.25,4.25,0,0,0,.56,2.19,3.94,3.94,0,0,0,1.59,1.49,4.79,4.79,0,0,0,2.3.54h12.85v4.16h-13.42a3.59,3.59,0,0,0-3.88,3.88,4.06,4.06,0,0,0,2.22,3.71,5,5,0,0,0,2.39.55h12.69V919Z"/><path class="cls-1" d="M1401.21,886v-4.26h3.18v-.08a5.53,5.53,0,0,1-2.6-2.16,6.36,6.36,0,0,1-1-3.52,6.7,6.7,0,0,1,.47-2.55,5.42,5.42,0,0,1,1.38-2,5.68,5.68,0,0,1,2.2-1.21v-.1a6.37,6.37,0,0,1-2.16-1.47,6.6,6.6,0,0,1-1.4-2.21,7.61,7.61,0,0,1-.49-2.73,7.12,7.12,0,0,1,.85-3.53,6,6,0,0,1,2.38-2.34,7.25,7.25,0,0,1,3.57-.84h14.14v4.25h-13.1a4.41,4.41,0,0,0-3.1,1,3.78,3.78,0,0,0-1.1,2.91,4.28,4.28,0,0,0,.56,2.2,4,4,0,0,0,1.59,1.48,4.79,4.79,0,0,0,2.3.54h12.85v4.16h-13.42a3.59,3.59,0,0,0-3.88,3.88,4.14,4.14,0,0,0,.59,2.2,4.19,4.19,0,0,0,1.63,1.52,5.13,5.13,0,0,0,2.39.54h12.69V886Z"/><path class="cls-1" d="M352.85,1296.72a8.74,8.74,0,0,1-3.76-2.75,7.56,7.56,0,0,1-1.56-4.26l0-.3h4.28l0,.26a4,4,0,0,0,1.09,2.23,5.67,5.67,0,0,0,2.33,1.46,10,10,0,0,0,3.32.51,9.09,9.09,0,0,0,3.26-.53,4.69,4.69,0,0,0,2.12-1.51,3.64,3.64,0,0,0,.76-2.28v0a3.31,3.31,0,0,0-1.23-2.7,9.58,9.58,0,0,0-4-1.62l-3.07-.64a12.67,12.67,0,0,1-6.17-2.82,6.73,6.73,0,0,1-2-5.07v0a7.19,7.19,0,0,1,1.33-4.23,8.62,8.62,0,0,1,3.61-2.85,13,13,0,0,1,5.3-1,12.71,12.71,0,0,1,5.17,1,8.65,8.65,0,0,1,3.56,2.78,7.73,7.73,0,0,1,1.46,4.17l0,.32h-4.28l0-.26a4.21,4.21,0,0,0-1-2.26,5,5,0,0,0-2.06-1.44,8.1,8.1,0,0,0-2.95-.5,8.21,8.21,0,0,0-3,.52,4.49,4.49,0,0,0-2,1.44,3.43,3.43,0,0,0-.7,2.16v0a3.12,3.12,0,0,0,1.25,2.58,9.28,9.28,0,0,0,3.88,1.56l3.07.67a13.1,13.1,0,0,1,6.36,2.8,6.77,6.77,0,0,1,2,5.15v0a7.71,7.71,0,0,1-1.3,4.46,8.28,8.28,0,0,1-3.71,2.91,16.67,16.67,0,0,1-11.29.07Z"/><path class="cls-1" d="M376.19,1296.31a8.63,8.63,0,0,1-3.38-3.71,12.73,12.73,0,0,1-1.18-5.69v0a12.41,12.41,0,0,1,1.2-5.64,8.7,8.7,0,0,1,3.39-3.68,10.81,10.81,0,0,1,9.68-.3,8,8,0,0,1,3,2.67,7.66,7.66,0,0,1,1.27,3.59l0,.16h-4l0-.18a5,5,0,0,0-1.51-2.6,4.58,4.58,0,0,0-3.25-1.11,4.79,4.79,0,0,0-2.85.87,5.68,5.68,0,0,0-1.89,2.47,9.72,9.72,0,0,0-.67,3.79v0a9.63,9.63,0,0,0,.68,3.84,5.46,5.46,0,0,0,1.9,2.43,4.94,4.94,0,0,0,2.86.84,4.71,4.71,0,0,0,3.16-1,4.92,4.92,0,0,0,1.59-2.69l0-.16h4.06v.14a7.84,7.84,0,0,1-1.39,3.7,8.34,8.34,0,0,1-3.07,2.62,9.62,9.62,0,0,1-4.39,1A9.94,9.94,0,0,1,376.19,1296.31Z"/><path class="cls-1" d="M393.39,1269h4.23v11h.1a6.13,6.13,0,0,1,2.43-2.79,7.55,7.55,0,0,1,3.94-1,6.74,6.74,0,0,1,6.38,3.9,9.87,9.87,0,0,1,.9,4.34v12.7h-4.23v-11.9a5.91,5.91,0,0,0-1.23-4,4.34,4.34,0,0,0-3.46-1.43,4.5,4.5,0,0,0-4.22,2.58,6.31,6.31,0,0,0-.61,2.83v11.9h-4.23Z"/><path class="cls-1" d="M413.82,1276.66h4.23l3.74,16.17h.09l4.26-16.17h4.08l4.3,16.17h.1l3.73-16.17h4.2l-5.63,20.55h-4.41l-4.3-15.39h-.1l-4.27,15.39h-4.4Z"/><path class="cls-1" d="M448.59,1296.32a8.61,8.61,0,0,1-3.34-3.69,12.88,12.88,0,0,1-1.16-5.64v0a12.69,12.69,0,0,1,1.17-5.61,8.88,8.88,0,0,1,3.3-3.75,9.14,9.14,0,0,1,5-1.34,9.3,9.3,0,0,1,5,1.28,8.51,8.51,0,0,1,3.22,3.61,12.35,12.35,0,0,1,1.13,5.42V1288h-16.7v-3h14.65l-2.09,2.79v-1.64a8.61,8.61,0,0,0-.66-3.6,4.65,4.65,0,0,0-1.81-2.14,5.09,5.09,0,0,0-2.69-.7,4.92,4.92,0,0,0-2.69.74,5,5,0,0,0-1.88,2.18,8.07,8.07,0,0,0-.68,3.52v1.64a7.86,7.86,0,0,0,.67,3.41,4.92,4.92,0,0,0,1.93,2.17,5.59,5.59,0,0,0,2.94.75,6,6,0,0,0,2.21-.38,4.59,4.59,0,0,0,1.59-1,3.44,3.44,0,0,0,.89-1.41l.06-.16h4l0,.22a7.06,7.06,0,0,1-1,2.32,8,8,0,0,1-1.83,2,8.74,8.74,0,0,1-2.64,1.4,10.69,10.69,0,0,1-3.4.51A10,10,0,0,1,448.59,1296.32Z"/><path class="cls-1" d="M466.1,1276.66h4.26v3.51h.08a5.39,5.39,0,0,1,1.74-2.86,4.54,4.54,0,0,1,3-1,7.08,7.08,0,0,1,.85,0c.26,0,.46.07.62.1v3.93a4.43,4.43,0,0,0-.76-.17,9.82,9.82,0,0,0-1.14-.06,4.64,4.64,0,0,0-2.34.57,3.82,3.82,0,0,0-1.52,1.66,6,6,0,0,0-.53,2.61v12.25H466.1Z"/><path class="cls-1" d="M479.42,1269h4.24v28.19h-4.24Z"/><path class="cls-1" d="M490.44,1296.8a5.79,5.79,0,0,1-2.4-2.19,6,6,0,0,1-.86-3.24v0a5.12,5.12,0,0,1,2-4.27,9.93,9.93,0,0,1,5.63-1.79l7.78-.47v3l-7.21.45a5.24,5.24,0,0,0-2.92.91,2.54,2.54,0,0,0-1,2.1v0a2.54,2.54,0,0,0,1,2.13,4.37,4.37,0,0,0,2.72.78,5.71,5.71,0,0,0,2.67-.61,4.63,4.63,0,0,0,1.86-1.67,4.29,4.29,0,0,0,.69-2.39v-6.11a3.42,3.42,0,0,0-1.06-2.67,4.33,4.33,0,0,0-3-1,5,5,0,0,0-2.92.79,3.25,3.25,0,0,0-1.38,2l0,.17h-4l0-.21a6.16,6.16,0,0,1,1.19-3.19,6.94,6.94,0,0,1,2.87-2.24,11.84,11.84,0,0,1,8.71,0,6.73,6.73,0,0,1,2.85,2.36,6.29,6.29,0,0,1,1,3.58v14.16H500.4V1294h-.08a6.66,6.66,0,0,1-1.56,1.93,7.27,7.27,0,0,1-2.16,1.25,7.5,7.5,0,0,1-2.57.44A7.82,7.82,0,0,1,490.44,1296.8Z"/><path class="cls-1" d="M512,1296.83a7,7,0,0,1-2.9-2.21,6.69,6.69,0,0,1-1.27-3.29l0-.18H512l0,.2a3.57,3.57,0,0,0,1.39,2.19,4.93,4.93,0,0,0,3,.79,6.41,6.41,0,0,0,2.19-.32,3,3,0,0,0,1.39-.93,2.24,2.24,0,0,0,.49-1.44v0a2.09,2.09,0,0,0-.65-1.6,5.45,5.45,0,0,0-2.3-1l-3.36-.76a8.89,8.89,0,0,1-4.39-2.1,4.93,4.93,0,0,1-1.45-3.66v0a5.46,5.46,0,0,1,1-3.25,6.49,6.49,0,0,1,2.8-2.17,10.5,10.5,0,0,1,4.16-.77,9.8,9.8,0,0,1,4.18.82,6.71,6.71,0,0,1,2.74,2.24,5.9,5.9,0,0,1,1.08,3.15v.23h-4l0-.13a3.31,3.31,0,0,0-1.21-2.2,4.28,4.28,0,0,0-2.81-.85,5.4,5.4,0,0,0-2,.33,2.84,2.84,0,0,0-1.29,1,2.37,2.37,0,0,0-.44,1.44h0a2.14,2.14,0,0,0,.7,1.61,5.12,5.12,0,0,0,2.34,1l3.36.78a9.14,9.14,0,0,1,4.46,2,4.79,4.79,0,0,1,1.32,3.55v0a5.37,5.37,0,0,1-1.07,3.3,7.13,7.13,0,0,1-3,2.23,11,11,0,0,1-4.31.8A11.3,11.3,0,0,1,512,1296.83Z"/><path class="cls-1" d="M530.76,1296.24c-1-.92-1.49-2.41-1.49-4.46V1280h-2.95v-3.36h2.95v-5.35h4.33v5.35h3.85V1280H533.6v11.52a2.69,2.69,0,0,0,.69,2.14,3.09,3.09,0,0,0,2,.58,5.79,5.79,0,0,0,.61,0l.52,0v3.26l-.94.12a11.53,11.53,0,0,1-1.21.06A6.51,6.51,0,0,1,530.76,1296.24Z"/><path class="cls-1" d="M541.1,1283.85h12.56v3.84H541.1Z"/><path class="cls-1" d="M555.38,1269h4.73l7.67,23.3h.1l7.67-23.3h4.75l-10,28.19h-4.84Z"/><path class="cls-1" d="M583.87,1296.32a8.76,8.76,0,0,1-3.41-3.69,12.48,12.48,0,0,1-1.21-5.7v0a12.21,12.21,0,0,1,1.22-5.66,8.78,8.78,0,0,1,3.41-3.67,9.92,9.92,0,0,1,5.11-1.29,10,10,0,0,1,5.13,1.28,8.78,8.78,0,0,1,3.42,3.66,12.36,12.36,0,0,1,1.22,5.68v0a12.44,12.44,0,0,1-1.22,5.71,9,9,0,0,1-3.41,3.68,10.77,10.77,0,0,1-10.26,0Zm8-3.1a5.43,5.43,0,0,0,1.88-2.43,10.08,10.08,0,0,0,.66-3.86v0a10,10,0,0,0-.66-3.83,5.34,5.34,0,0,0-1.9-2.43,5,5,0,0,0-2.87-.83,4.88,4.88,0,0,0-2.84.84,5.46,5.46,0,0,0-1.9,2.43,9.52,9.52,0,0,0-.69,3.82v0a9.87,9.87,0,0,0,.68,3.86,5.39,5.39,0,0,0,1.9,2.43,5,5,0,0,0,2.89.84A4.89,4.89,0,0,0,591.88,1293.22Z"/><path class="cls-1" d="M602.18,1269h4.23v28.19h-4.23Z"/><path class="cls-1" d="M610.91,1269h4.23v28.19h-4.23Z"/><path class="cls-1" d="M621.92,1296.8a5.79,5.79,0,0,1-2.4-2.19,6.13,6.13,0,0,1-.86-3.24v0a5.15,5.15,0,0,1,2-4.27,10,10,0,0,1,5.64-1.79l7.77-.47v3l-7.21.45a5.27,5.27,0,0,0-2.92.91,2.53,2.53,0,0,0-1,2.1v0a2.54,2.54,0,0,0,1,2.13,4.42,4.42,0,0,0,2.73.78,5.67,5.67,0,0,0,2.66-.61,4.73,4.73,0,0,0,1.87-1.67,4.36,4.36,0,0,0,.68-2.39v-6.11a3.45,3.45,0,0,0-1-2.67,4.36,4.36,0,0,0-3-1,5,5,0,0,0-2.92.79,3.3,3.3,0,0,0-1.38,2l0,.17h-4l0-.21a6.16,6.16,0,0,1,1.19-3.19,7,7,0,0,1,2.87-2.24,10.6,10.6,0,0,1,4.36-.82,10.36,10.36,0,0,1,4.35.84,6.61,6.61,0,0,1,2.85,2.36,6.29,6.29,0,0,1,1,3.58v14.16h-4.26V1294h-.08a6.5,6.5,0,0,1-1.56,1.93,7.27,7.27,0,0,1-2.16,1.25,7.44,7.44,0,0,1-2.56.44A7.89,7.89,0,0,1,621.92,1296.8Z"/><path class="cls-1" d="M643.38,1296.69A6,6,0,0,1,641,1294a9,9,0,0,1-.84-4.08v-13.3h4.25v12.5a5.19,5.19,0,0,0,1.09,3.56,4.09,4.09,0,0,0,3.27,1.24,5,5,0,0,0,2.59-.66,4.41,4.41,0,0,0,1.7-1.87,6.25,6.25,0,0,0,.59-2.78v-12h4.24v20.55H653.6v-3.09h-.1a6.32,6.32,0,0,1-2.37,2.53,8.38,8.38,0,0,1-7.75,0Z"/><path class="cls-1" d="M665.31,1296.83a7,7,0,0,1-2.9-2.21,6.69,6.69,0,0,1-1.27-3.29l0-.18h4.18l0,.2a3.57,3.57,0,0,0,1.39,2.19,5,5,0,0,0,3,.79,6.41,6.41,0,0,0,2.19-.32,3,3,0,0,0,1.39-.93,2.24,2.24,0,0,0,.49-1.44v0a2.09,2.09,0,0,0-.65-1.6,5.45,5.45,0,0,0-2.3-1l-3.36-.76a8.93,8.93,0,0,1-4.39-2.1,4.93,4.93,0,0,1-1.45-3.66v0a5.46,5.46,0,0,1,1-3.25,6.49,6.49,0,0,1,2.8-2.17,10.5,10.5,0,0,1,4.16-.77,9.77,9.77,0,0,1,4.18.82,6.71,6.71,0,0,1,2.74,2.24,6,6,0,0,1,1.09,3.15v.23h-4l0-.13a3.31,3.31,0,0,0-1.21-2.2,4.28,4.28,0,0,0-2.81-.85,5.4,5.4,0,0,0-2,.33,2.75,2.75,0,0,0-1.28,1,2.37,2.37,0,0,0-.45,1.44h0a2.14,2.14,0,0,0,.7,1.61,5.12,5.12,0,0,0,2.34,1l3.36.78a9.22,9.22,0,0,1,4.47,2,4.83,4.83,0,0,1,1.31,3.55v0a5.37,5.37,0,0,1-1.07,3.3,7.13,7.13,0,0,1-3,2.23,11,11,0,0,1-4.31.8A11.34,11.34,0,0,1,665.31,1296.83Z"/><path class="cls-1" d="M680.93,1294.49l11-14.39V1280H681v-3.36h15.75v2.91L686,1293.77v.08h10.82v3.36H680.93Z"/><path class="cls-1" d="M703.77,1296.69a6,6,0,0,1-2.43-2.65,9.17,9.17,0,0,1-.84-4.08v-13.3h4.25v12.5a5.24,5.24,0,0,0,1.09,3.56,4.09,4.09,0,0,0,3.27,1.24,5,5,0,0,0,2.59-.66,4.41,4.41,0,0,0,1.7-1.87,6.25,6.25,0,0,0,.59-2.78v-12h4.24v20.55H714v-3.09h-.1a6.32,6.32,0,0,1-2.37,2.53,7.38,7.38,0,0,1-3.91,1A7.48,7.48,0,0,1,703.77,1296.69Z"/><path class="cls-1" d="M726.83,1303.71a8.38,8.38,0,0,1-3.15-2,5.64,5.64,0,0,1-1.5-2.83l0-.18h4.22l0,.16a3.36,3.36,0,0,0,1.73,1.59,7.67,7.67,0,0,0,3.27.61,5.43,5.43,0,0,0,3.85-1.26,4.41,4.41,0,0,0,1.35-3.38v-2.84h-.1a6.57,6.57,0,0,1-1.53,1.94,7,7,0,0,1-2.2,1.27,8.56,8.56,0,0,1-7.24-.83,8.29,8.29,0,0,1-3-3.63,13.29,13.29,0,0,1-1.06-5.54v0a13.29,13.29,0,0,1,1.08-5.58,8.34,8.34,0,0,1,3-3.63,8.1,8.1,0,0,1,4.54-1.28,7,7,0,0,1,4.85,1.84,7.31,7.31,0,0,1,1.54,2.05h.1v-3.5h4.24v20a7.37,7.37,0,0,1-1.14,4.1,7.65,7.65,0,0,1-3.27,2.74,11.88,11.88,0,0,1-5,1A13.13,13.13,0,0,1,726.83,1303.71Zm7.23-10.78a5.64,5.64,0,0,0,1.88-2.42,9.44,9.44,0,0,0,.67-3.68h0a9.36,9.36,0,0,0-.67-3.67,5.58,5.58,0,0,0-1.89-2.4,4.76,4.76,0,0,0-2.81-.85,4.94,4.94,0,0,0-2.88.84,5.35,5.35,0,0,0-1.89,2.39,9.36,9.36,0,0,0-.66,3.67v0a9.51,9.51,0,0,0,.66,3.72,5.44,5.44,0,0,0,1.89,2.4,4.94,4.94,0,0,0,2.88.85A4.74,4.74,0,0,0,734.06,1292.93Z"/><path class="cls-1" d="M757.11,1298.9a25.77,25.77,0,0,1-1.85-5.81,36.27,36.27,0,0,1,0-13.14,25.6,25.6,0,0,1,1.85-5.79,24.1,24.1,0,0,1,3.19-5.14H764a13.94,13.94,0,0,0-2,3.21,28.62,28.62,0,0,0-1.6,4.32,36.62,36.62,0,0,0-1.06,4.94,34.38,34.38,0,0,0,0,10.06,37.1,37.1,0,0,0,1.06,5,28.49,28.49,0,0,0,1.6,4.34,13.86,13.86,0,0,0,2,3.2H760.3A23.86,23.86,0,0,1,757.11,1298.9Z"/><path class="cls-1" d="M771.44,1296.72a8.8,8.8,0,0,1-3.76-2.75,7.71,7.71,0,0,1-1.56-4.26l0-.3h4.28l0,.26a4.08,4.08,0,0,0,1.08,2.23,5.64,5.64,0,0,0,2.34,1.46,9.94,9.94,0,0,0,3.32.51,9.09,9.09,0,0,0,3.26-.53,4.69,4.69,0,0,0,2.12-1.51,3.63,3.63,0,0,0,.75-2.28v0a3.33,3.33,0,0,0-1.22-2.7,9.7,9.7,0,0,0-4-1.62l-3.07-.64a12.63,12.63,0,0,1-6.17-2.82,6.69,6.69,0,0,1-2-5.07v0a7.18,7.18,0,0,1,1.32-4.23,8.59,8.59,0,0,1,3.62-2.85,12.93,12.93,0,0,1,5.29-1,12.76,12.76,0,0,1,5.18,1,8.62,8.62,0,0,1,3.55,2.78,7.82,7.82,0,0,1,1.47,4.17v.32h-4.27l0-.26a4.29,4.29,0,0,0-1-2.26,5,5,0,0,0-2.06-1.44,8.1,8.1,0,0,0-3-.5,8.21,8.21,0,0,0-3,.52,4.55,4.55,0,0,0-2,1.44,3.43,3.43,0,0,0-.7,2.16v0a3.15,3.15,0,0,0,1.25,2.58,9.33,9.33,0,0,0,3.89,1.56l3.06.67q4.38.92,6.36,2.8a6.77,6.77,0,0,1,2,5.15v0a7.64,7.64,0,0,1-1.3,4.46,8.22,8.22,0,0,1-3.71,2.91,16.67,16.67,0,0,1-11.29.07Z"/><path class="cls-1" d="M794.84,1296.32a8.89,8.89,0,0,1-3.41-3.69,12.48,12.48,0,0,1-1.21-5.7v0a12.34,12.34,0,0,1,1.22-5.66,8.86,8.86,0,0,1,3.42-3.67,9.92,9.92,0,0,1,5.11-1.29,10.07,10.07,0,0,1,5.13,1.28,8.69,8.69,0,0,1,3.41,3.66,12.24,12.24,0,0,1,1.22,5.68v0a12.31,12.31,0,0,1-1.22,5.71,9,9,0,0,1-3.4,3.68,10.79,10.79,0,0,1-10.27,0Zm8-3.1a5.34,5.34,0,0,0,1.87-2.43,9.88,9.88,0,0,0,.67-3.86v0a9.79,9.79,0,0,0-.67-3.83,5.26,5.26,0,0,0-1.89-2.43,5,5,0,0,0-2.87-.83,4.88,4.88,0,0,0-2.84.84,5.48,5.48,0,0,0-1.91,2.43,9.7,9.7,0,0,0-.68,3.82v0a9.88,9.88,0,0,0,.67,3.86,5.41,5.41,0,0,0,1.91,2.43,5,5,0,0,0,2.89.84A4.89,4.89,0,0,0,802.86,1293.22Z"/><path class="cls-1" d="M814.23,1280h-2.84v-3.36h2.84v-2.19a5.92,5.92,0,0,1,1.46-4.42,6.35,6.35,0,0,1,4.59-1.44c.43,0,.86,0,1.3.05a9.26,9.26,0,0,1,1.06.13v3.12l-.68-.06-.78,0a2.86,2.86,0,0,0-2.09.68,2.73,2.73,0,0,0-.68,2v2.11h4.16V1280h-4.09v17.19h-4.25Z"/><path class="cls-1" d="M828.59,1296.24a5.85,5.85,0,0,1-1.49-4.46V1280h-3v-3.36h3v-5.35h4.33v5.35h3.85V1280h-3.85v11.52a2.69,2.69,0,0,0,.69,2.14,3.09,3.09,0,0,0,2,.58,5.79,5.79,0,0,0,.61,0l.52,0v3.26l-.94.12a11.53,11.53,0,0,1-1.21.06A6.51,6.51,0,0,1,828.59,1296.24Z"/><path class="cls-1" d="M841.93,1296.31a8.69,8.69,0,0,1-3.38-3.71,12.73,12.73,0,0,1-1.18-5.69v0a12.41,12.41,0,0,1,1.2-5.64,8.7,8.7,0,0,1,3.39-3.68,10.81,10.81,0,0,1,9.68-.3,8,8,0,0,1,3,2.67,7.88,7.88,0,0,1,1.27,3.59l0,.16H851.9l0-.18a4.91,4.91,0,0,0-1.51-2.6,4.56,4.56,0,0,0-3.25-1.11,4.76,4.76,0,0,0-2.84.87,5.63,5.63,0,0,0-1.9,2.47,9.72,9.72,0,0,0-.67,3.79v0a9.63,9.63,0,0,0,.68,3.84,5.48,5.48,0,0,0,1.91,2.43,4.9,4.9,0,0,0,2.86.84,4.7,4.7,0,0,0,3.15-1,4.92,4.92,0,0,0,1.59-2.69l0-.16H856v.14a7.84,7.84,0,0,1-1.39,3.7,8.34,8.34,0,0,1-3.07,2.62,9.61,9.61,0,0,1-4.38,1A10,10,0,0,1,841.93,1296.31Z"/><path class="cls-1" d="M859.13,1269h4.24v28.19h-4.24Z"/><path class="cls-1" d="M871.4,1296.32a8.8,8.8,0,0,1-3.4-3.69,12.48,12.48,0,0,1-1.21-5.7v0a12.21,12.21,0,0,1,1.22-5.66,8.78,8.78,0,0,1,3.41-3.67,9.92,9.92,0,0,1,5.11-1.29,10.07,10.07,0,0,1,5.13,1.28,8.78,8.78,0,0,1,3.42,3.66,12.36,12.36,0,0,1,1.22,5.68v0a12.44,12.44,0,0,1-1.22,5.71,9.06,9.06,0,0,1-3.41,3.68,10.79,10.79,0,0,1-10.27,0Zm8-3.1a5.43,5.43,0,0,0,1.88-2.43,10.08,10.08,0,0,0,.66-3.86v0a10,10,0,0,0-.66-3.83,5.34,5.34,0,0,0-1.9-2.43,5,5,0,0,0-2.87-.83,4.88,4.88,0,0,0-2.84.84,5.39,5.39,0,0,0-1.9,2.43,9.52,9.52,0,0,0-.69,3.82v0a9.87,9.87,0,0,0,.68,3.86,5.33,5.33,0,0,0,1.9,2.43,5,5,0,0,0,2.89.84A4.89,4.89,0,0,0,879.42,1293.22Z"/><path class="cls-1" d="M892.85,1296.83a7,7,0,0,1-2.9-2.21,6.69,6.69,0,0,1-1.27-3.29l0-.18h4.18l0,.2a3.57,3.57,0,0,0,1.39,2.19,4.93,4.93,0,0,0,3,.79,6.41,6.41,0,0,0,2.19-.32,3,3,0,0,0,1.39-.93,2.24,2.24,0,0,0,.49-1.44v0a2.09,2.09,0,0,0-.65-1.6,5.45,5.45,0,0,0-2.3-1l-3.36-.76a8.89,8.89,0,0,1-4.39-2.1,4.93,4.93,0,0,1-1.45-3.66v0a5.46,5.46,0,0,1,1-3.25A6.49,6.49,0,0,1,893,1277a10.5,10.5,0,0,1,4.16-.77,9.8,9.8,0,0,1,4.18.82,6.71,6.71,0,0,1,2.74,2.24,5.9,5.9,0,0,1,1.08,3.15v.23h-4l0-.13a3.31,3.31,0,0,0-1.21-2.2,4.28,4.28,0,0,0-2.81-.85,5.4,5.4,0,0,0-2,.33,2.84,2.84,0,0,0-1.29,1,2.37,2.37,0,0,0-.44,1.44h0a2.14,2.14,0,0,0,.7,1.61,5.12,5.12,0,0,0,2.34,1l3.36.78a9.14,9.14,0,0,1,4.46,2,4.79,4.79,0,0,1,1.32,3.55v0a5.37,5.37,0,0,1-1.07,3.3,7.13,7.13,0,0,1-3,2.23,11,11,0,0,1-4.31.8A11.3,11.3,0,0,1,892.85,1296.83Z"/><path class="cls-1" d="M912.48,1296.32a8.55,8.55,0,0,1-3.34-3.69A12.74,12.74,0,0,1,908,1287v0a12.69,12.69,0,0,1,1.17-5.61,8.88,8.88,0,0,1,3.3-3.75,9.14,9.14,0,0,1,5-1.34,9.35,9.35,0,0,1,5,1.28,8.42,8.42,0,0,1,3.21,3.61,12.21,12.21,0,0,1,1.14,5.42V1288h-16.7v-3h14.64l-2.09,2.79v-1.64a8.62,8.62,0,0,0-.65-3.6,4.66,4.66,0,0,0-1.82-2.14,5.05,5.05,0,0,0-2.68-.7,4.84,4.84,0,0,0-4.57,2.92,8.06,8.06,0,0,0-.69,3.52v1.64a7.85,7.85,0,0,0,.68,3.41,5,5,0,0,0,1.92,2.17,5.63,5.63,0,0,0,3,.75,6.06,6.06,0,0,0,2.21-.38,4.59,4.59,0,0,0,1.59-1,3.55,3.55,0,0,0,.89-1.41l.06-.16h4l0,.22a7.25,7.25,0,0,1-1,2.32,8,8,0,0,1-1.83,2,8.68,8.68,0,0,1-2.65,1.4,10.65,10.65,0,0,1-3.4.51A10,10,0,0,1,912.48,1296.32Z"/><path class="cls-1" d="M928.66,1304a13.85,13.85,0,0,0,2-3.2,28.24,28.24,0,0,0,1.59-4.35,38.75,38.75,0,0,0,1.07-5,33.41,33.41,0,0,0,0-10,38.23,38.23,0,0,0-1.07-4.94,28.63,28.63,0,0,0-1.59-4.32,13.93,13.93,0,0,0-2-3.21h3.73a24.1,24.1,0,0,1,3.19,5.14,25.6,25.6,0,0,1,1.85,5.79,35.69,35.69,0,0,1,0,13.14,25.77,25.77,0,0,1-1.85,5.81,23.86,23.86,0,0,1-3.19,5.14Z"/><path class="cls-1" d="M952.16,1283.85h12.55v3.84H952.16Z"/><path class="cls-1" d="M983.83,1296.88a9.62,9.62,0,0,1-3.56-2.48,11.74,11.74,0,0,1-2.47-4.37,20.6,20.6,0,0,1-.9-6.5v0a21.76,21.76,0,0,1,1.34-8.06,11,11,0,0,1,3.87-5.12,10.25,10.25,0,0,1,6-1.77,11.18,11.18,0,0,1,4.54.89,9.3,9.3,0,0,1,3.37,2.49,8.4,8.4,0,0,1,1.8,3.69l0,.24h-4.4l-.07-.2a5,5,0,0,0-2.91-3,6.51,6.51,0,0,0-2.41-.42,5.5,5.5,0,0,0-3.91,1.4,8.47,8.47,0,0,0-2.25,3.72,18.56,18.56,0,0,0-.81,5.13c0,.14,0,.29,0,.44v.46L982,1288a5.83,5.83,0,0,0,.79,3,5.76,5.76,0,0,0,2.15,2.15,5.89,5.89,0,0,0,3,.79,6,6,0,0,0,3-.78,5.88,5.88,0,0,0,2.15-2.11,5.56,5.56,0,0,0,.8-3v0a5.82,5.82,0,0,0-.76-3A5.5,5.5,0,0,0,991,1283a6.15,6.15,0,0,0-3-.76,6.33,6.33,0,0,0-3.08.75,5.51,5.51,0,0,0-3,5v0h-1.17v-4.79h.41a7,7,0,0,1,1.68-2.29,8.21,8.21,0,0,1,2.66-1.63,9.18,9.18,0,0,1,3.45-.61,9.51,9.51,0,0,1,4.81,1.2,8.76,8.76,0,0,1,3.29,3.3,9.43,9.43,0,0,1,1.2,4.76v0a9.25,9.25,0,0,1-5,8.41,10.94,10.94,0,0,1-5.29,1.25A11.08,11.08,0,0,1,983.83,1296.88Z"/><path class="cls-1" d="M1007.09,1295.9a11.2,11.2,0,0,1-3.7-5,21,21,0,0,1-1.29-7.74v0a21,21,0,0,1,1.29-7.73,11.12,11.12,0,0,1,3.7-5,10.29,10.29,0,0,1,11.54,0,11.21,11.21,0,0,1,3.71,5,20.78,20.78,0,0,1,1.3,7.73v0a20.8,20.8,0,0,1-1.3,7.74,11.29,11.29,0,0,1-3.71,5,10.29,10.29,0,0,1-11.54,0Zm9.2-3.21a8.41,8.41,0,0,0,2.17-3.75,19.87,19.87,0,0,0,.75-5.82v0a19.9,19.9,0,0,0-.75-5.81,8.48,8.48,0,0,0-2.17-3.74,5.17,5.17,0,0,0-6.86,0,8.38,8.38,0,0,0-2.16,3.74,20.26,20.26,0,0,0-.74,5.81v0a20.24,20.24,0,0,0,.74,5.82,8.3,8.3,0,0,0,2.16,3.75,5.15,5.15,0,0,0,6.86,0Z"/><path class="cls-1" d="M1032.07,1295.9a11.2,11.2,0,0,1-3.7-5,21,21,0,0,1-1.29-7.74v0a21,21,0,0,1,1.29-7.73,11.12,11.12,0,0,1,3.7-5,10.29,10.29,0,0,1,11.54,0,11.14,11.14,0,0,1,3.71,5,20.78,20.78,0,0,1,1.3,7.73v0a20.8,20.8,0,0,1-1.3,7.74,11.22,11.22,0,0,1-3.71,5,10.29,10.29,0,0,1-11.54,0Zm9.2-3.21a8.41,8.41,0,0,0,2.17-3.75,19.87,19.87,0,0,0,.75-5.82v0a19.9,19.9,0,0,0-.75-5.81,8.48,8.48,0,0,0-2.17-3.74,5.17,5.17,0,0,0-6.86,0,8.38,8.38,0,0,0-2.16,3.74,20.26,20.26,0,0,0-.74,5.81v0a20.24,20.24,0,0,0,.74,5.82,8.3,8.3,0,0,0,2.16,3.75,5.15,5.15,0,0,0,6.86,0Z"/><path class="cls-1" d="M1052.41,1276.66h4.26v3.18h.08a5.51,5.51,0,0,1,2.16-2.59,6.27,6.27,0,0,1,3.52-1,6.51,6.51,0,0,1,2.55.47,5.39,5.39,0,0,1,2,1.37,5.68,5.68,0,0,1,1.21,2.2h.1a6.47,6.47,0,0,1,1.47-2.16,6.68,6.68,0,0,1,2.21-1.39,7.4,7.4,0,0,1,2.73-.49,7,7,0,0,1,3.53.85,6.08,6.08,0,0,1,2.35,2.37,7.42,7.42,0,0,1,.83,3.58v14.14h-4.25V1284.1a4.41,4.41,0,0,0-1-3.1,3.78,3.78,0,0,0-2.91-1.1,4.19,4.19,0,0,0-2.2.57,4,4,0,0,0-1.48,1.58,4.85,4.85,0,0,0-.54,2.3v12.86h-4.16v-13.42a3.61,3.61,0,0,0-3.88-3.89,4.08,4.08,0,0,0-2.2.6,4.12,4.12,0,0,0-1.52,1.63,5.06,5.06,0,0,0-.54,2.38v12.7h-4.26Z"/><path class="cls-1" d="M1085.42,1276.66h4.26v3.18h.07a5.58,5.58,0,0,1,2.17-2.59,6.25,6.25,0,0,1,3.52-1,6.58,6.58,0,0,1,2.55.47,5.39,5.39,0,0,1,2,1.37,5.68,5.68,0,0,1,1.21,2.2h.1a6.47,6.47,0,0,1,1.47-2.16,6.58,6.58,0,0,1,2.21-1.39,7.38,7.38,0,0,1,2.72-.49,7,7,0,0,1,3.54.85,6,6,0,0,1,2.34,2.37,7.31,7.31,0,0,1,.84,3.58v14.14h-4.26V1284.1a4.4,4.4,0,0,0-1-3.1,3.78,3.78,0,0,0-2.91-1.1,4.19,4.19,0,0,0-2.2.57,3.89,3.89,0,0,0-1.48,1.58,4.85,4.85,0,0,0-.54,2.3v12.86h-4.16v-13.42a3.61,3.61,0,0,0-3.89-3.89,4,4,0,0,0-2.19.6,4.12,4.12,0,0,0-1.52,1.63,5.06,5.06,0,0,0-.54,2.38v12.7h-4.26Z"/><rect class="cls-8" x="217.76" y="375.65" width="1027.01" height="37.35" transform="translate(1462.53 788.64) rotate(180)"/><path class="cls-1" d="M564.23,377.17H569l7.68,23.31h.1l7.67-23.31h4.75l-10,28.19h-4.85Z"/><path class="cls-1" d="M592.71,404.47a8.89,8.89,0,0,1-3.41-3.69,12.58,12.58,0,0,1-1.21-5.7v0a12.35,12.35,0,0,1,1.22-5.67,8.86,8.86,0,0,1,3.42-3.67,9.92,9.92,0,0,1,5.11-1.29A10.07,10.07,0,0,1,603,385.7a8.69,8.69,0,0,1,3.41,3.66,12.28,12.28,0,0,1,1.22,5.69v0a12.31,12.31,0,0,1-1.22,5.71,8.91,8.91,0,0,1-3.4,3.68,10.79,10.79,0,0,1-10.27,0Zm8-3.1a5.34,5.34,0,0,0,1.87-2.43,9.85,9.85,0,0,0,.67-3.86v0a9.81,9.81,0,0,0-.67-3.84,5.23,5.23,0,0,0-1.89-2.42,5,5,0,0,0-2.87-.83,4.88,4.88,0,0,0-2.84.84,5.45,5.45,0,0,0-1.91,2.42,9.72,9.72,0,0,0-.68,3.83v0a9.85,9.85,0,0,0,.67,3.86,5.41,5.41,0,0,0,1.91,2.43,5,5,0,0,0,2.89.84A4.89,4.89,0,0,0,600.73,401.37Z"/><path class="cls-1" d="M611,377.17h4.24v28.19H611Z"/><path class="cls-1" d="M619.75,377.17H624v28.19h-4.24Z"/><path class="cls-1" d="M630.77,405a5.79,5.79,0,0,1-2.4-2.19,6,6,0,0,1-.86-3.24v0a5.12,5.12,0,0,1,2-4.27,9.93,9.93,0,0,1,5.63-1.79l7.78-.46v3l-7.21.45a5.24,5.24,0,0,0-2.92.91,2.54,2.54,0,0,0-1,2.1v0a2.54,2.54,0,0,0,1,2.13,4.37,4.37,0,0,0,2.72.78,5.83,5.83,0,0,0,2.67-.6,4.81,4.81,0,0,0,1.87-1.67,4.39,4.39,0,0,0,.68-2.4v-6.11a3.44,3.44,0,0,0-1.06-2.67,4.33,4.33,0,0,0-3-1,5,5,0,0,0-2.92.78,3.25,3.25,0,0,0-1.38,2l0,.18h-4l0-.22a6.19,6.19,0,0,1,1.19-3.19,7,7,0,0,1,2.87-2.24,10.52,10.52,0,0,1,4.35-.82,10.4,10.4,0,0,1,4.36.84,6.73,6.73,0,0,1,2.85,2.36,6.29,6.29,0,0,1,1,3.58v14.16h-4.26v-3.24h-.08a6.59,6.59,0,0,1-1.56,1.92,7.06,7.06,0,0,1-2.16,1.25,7.5,7.5,0,0,1-2.57.44A7.87,7.87,0,0,1,630.77,405Z"/><path class="cls-1" d="M652.22,404.84a6.07,6.07,0,0,1-2.43-2.65,9.17,9.17,0,0,1-.84-4.08v-13.3h4.26v12.5a5.29,5.29,0,0,0,1.08,3.57,4.16,4.16,0,0,0,3.28,1.24,4.84,4.84,0,0,0,2.58-.67,4.32,4.32,0,0,0,1.7-1.86,6.16,6.16,0,0,0,.6-2.79v-12h4.24v20.55h-4.24v-3.09h-.1A6.26,6.26,0,0,1,660,404.8a7.33,7.33,0,0,1-3.92,1A7.51,7.51,0,0,1,652.22,404.84Z"/><path class="cls-1" d="M674.16,405a7,7,0,0,1-2.9-2.21,6.56,6.56,0,0,1-1.27-3.29l0-.18h4.18l0,.2a3.58,3.58,0,0,0,1.38,2.2,5.06,5.06,0,0,0,3,.79,6.66,6.66,0,0,0,2.19-.32,3.16,3.16,0,0,0,1.39-.93,2.28,2.28,0,0,0,.48-1.45v0a2.09,2.09,0,0,0-.64-1.6,5.33,5.33,0,0,0-2.31-1l-3.36-.77a8.89,8.89,0,0,1-4.38-2.1,4.9,4.9,0,0,1-1.45-3.66v0a5.49,5.49,0,0,1,1-3.25,6.59,6.59,0,0,1,2.79-2.17,10.57,10.57,0,0,1,4.16-.77,9.74,9.74,0,0,1,4.18.82,6.68,6.68,0,0,1,2.75,2.24,5.9,5.9,0,0,1,1.08,3.15v.24h-4l0-.14a3.31,3.31,0,0,0-1.21-2.2,4.35,4.35,0,0,0-2.82-.85,5.38,5.38,0,0,0-2,.33,2.91,2.91,0,0,0-1.29.95,2.37,2.37,0,0,0-.45,1.44v0a2.13,2.13,0,0,0,.71,1.6,5,5,0,0,0,2.34,1l3.36.78a9.27,9.27,0,0,1,4.46,2.05,4.77,4.77,0,0,1,1.32,3.54v0a5.37,5.37,0,0,1-1.07,3.3,7.2,7.2,0,0,1-3,2.23,11,11,0,0,1-4.31.8A11.3,11.3,0,0,1,674.16,405Z"/><path class="cls-1" d="M689.77,402.64l11-14.39v-.08h-10.9v-3.36h15.74v2.91l-10.7,14.2V402h10.82v3.36H689.77Z"/><path class="cls-1" d="M712.61,404.84a6.07,6.07,0,0,1-2.43-2.65,9.17,9.17,0,0,1-.84-4.08v-13.3h4.26v12.5a5.29,5.29,0,0,0,1.08,3.57,4.16,4.16,0,0,0,3.28,1.24,4.82,4.82,0,0,0,2.58-.67,4.32,4.32,0,0,0,1.7-1.86,6.16,6.16,0,0,0,.6-2.79v-12h4.24v20.55h-4.24v-3.09h-.1a6.26,6.26,0,0,1-2.37,2.53,7.33,7.33,0,0,1-3.92,1A7.53,7.53,0,0,1,712.61,404.84Z"/><path class="cls-1" d="M735.68,411.86a8.07,8.07,0,0,1-3.15-2A5.73,5.73,0,0,1,731,407l0-.18h4.22l.06.16a3.32,3.32,0,0,0,1.73,1.59,7.66,7.66,0,0,0,3.27.62,5.43,5.43,0,0,0,3.85-1.26,4.41,4.41,0,0,0,1.35-3.39v-2.83h-.1a6.66,6.66,0,0,1-1.53,1.93,7,7,0,0,1-2.2,1.27,8.58,8.58,0,0,1-7.25-.83,8.33,8.33,0,0,1-3-3.62,13.54,13.54,0,0,1-1-5.55v0a13.45,13.45,0,0,1,1.07-5.58,8.36,8.36,0,0,1,3-3.63,8.1,8.1,0,0,1,4.54-1.28,7.11,7.11,0,0,1,2.69.49,6.93,6.93,0,0,1,2.16,1.36,7.41,7.41,0,0,1,1.54,2h.1v-3.5h4.23v20a7.37,7.37,0,0,1-1.14,4.1,7.49,7.49,0,0,1-3.26,2.74,11.88,11.88,0,0,1-5,1A12.87,12.87,0,0,1,735.68,411.86Zm7.23-10.78a5.62,5.62,0,0,0,1.87-2.42,9.21,9.21,0,0,0,.68-3.67v0a9.09,9.09,0,0,0-.68-3.66,5.54,5.54,0,0,0-1.88-2.41,4.84,4.84,0,0,0-2.82-.85,5,5,0,0,0-2.88.84,5.38,5.38,0,0,0-1.88,2.4,9.27,9.27,0,0,0-.66,3.66v0a9.51,9.51,0,0,0,.66,3.72,5.49,5.49,0,0,0,1.88,2.4,4.92,4.92,0,0,0,2.88.85A4.75,4.75,0,0,0,742.91,401.08Z"/><path class="cls-1" d="M767.13,404.77a8.9,8.9,0,0,1-3.48-2.88,8.14,8.14,0,0,1-1.49-4.13l0-.23h4.18v.13a4.93,4.93,0,0,0,1,2.3,5.65,5.65,0,0,0,2,1.62,6.41,6.41,0,0,0,2.8.59,6.32,6.32,0,0,0,3.14-.76,5.4,5.4,0,0,0,2.13-2.11,6.09,6.09,0,0,0,.76-3.08v0a6,6,0,0,0-.77-3.05A5.67,5.67,0,0,0,775.3,391a6.15,6.15,0,0,0-3.09-.76,7.53,7.53,0,0,0-2.42.38,6,6,0,0,0-2,1.14,6.34,6.34,0,0,0-.71.75,6,6,0,0,0-.62.87h-3.85L764,377.17h16.82v3.7H767.58l-.85,8.92h.09a6.32,6.32,0,0,1,2.63-2.2,8.93,8.93,0,0,1,3.76-.77A9.46,9.46,0,0,1,778,388a8.83,8.83,0,0,1,3.29,3.3,9.4,9.4,0,0,1,1.2,4.78v0a9.58,9.58,0,0,1-1.33,5,9.28,9.28,0,0,1-3.66,3.42,12.33,12.33,0,0,1-10.37.17Z"/><path class="cls-1" d="M791.11,404.77a9,9,0,0,1-3.48-2.88,8.23,8.23,0,0,1-1.49-4.13l0-.23h4.18l0,.13a4.93,4.93,0,0,0,1,2.3,5.48,5.48,0,0,0,2,1.62,6.88,6.88,0,0,0,5.93-.17,5.28,5.28,0,0,0,2.13-2.11,6.09,6.09,0,0,0,.76-3.08v0a5.91,5.91,0,0,0-.77-3.05,5.6,5.6,0,0,0-2.12-2.09,6.09,6.09,0,0,0-3.08-.76,7.53,7.53,0,0,0-2.42.38,6,6,0,0,0-2,1.14,8.54,8.54,0,0,0-.71.75,5.9,5.9,0,0,0-.61.87h-3.85L788,377.17h16.82v3.7H791.57l-.86,8.92h.1a6.29,6.29,0,0,1,2.62-2.2,9,9,0,0,1,3.76-.77A9.44,9.44,0,0,1,802,388a8.83,8.83,0,0,1,3.29,3.3,9.4,9.4,0,0,1,1.2,4.78v0a9.49,9.49,0,0,1-1.33,5,9.15,9.15,0,0,1-3.66,3.42,12.33,12.33,0,0,1-10.37.17Z"/><path class="cls-1" d="M814.53,404.05a11.1,11.1,0,0,1-3.7-5,21,21,0,0,1-1.29-7.73v0a21.05,21.05,0,0,1,1.29-7.74,11.12,11.12,0,0,1,3.7-5,10.34,10.34,0,0,1,11.54,0,11.14,11.14,0,0,1,3.71,5,20.84,20.84,0,0,1,1.3,7.74v0a20.75,20.75,0,0,1-1.3,7.73,11.11,11.11,0,0,1-3.71,5,10.24,10.24,0,0,1-11.54,0Zm9.2-3.2a8.52,8.52,0,0,0,2.17-3.75,20,20,0,0,0,.75-5.82v0a19.8,19.8,0,0,0-.75-5.81,8.42,8.42,0,0,0-2.17-3.74,5.15,5.15,0,0,0-6.86,0,8.32,8.32,0,0,0-2.16,3.74,20.17,20.17,0,0,0-.74,5.81v0a20.34,20.34,0,0,0,.74,5.82,8.41,8.41,0,0,0,2.16,3.75,5.15,5.15,0,0,0,6.86,0Z"/><path class="cls-1" d="M834.87,384.81h4.26V388h.08a5.48,5.48,0,0,1,2.16-2.6,6.36,6.36,0,0,1,3.52-1,6.7,6.7,0,0,1,2.55.47,5.3,5.3,0,0,1,2,1.38,5.57,5.57,0,0,1,1.21,2.19h.1a6.33,6.33,0,0,1,1.47-2.15,6.55,6.55,0,0,1,2.21-1.4,7.4,7.4,0,0,1,2.73-.49,7,7,0,0,1,3.53.85,6.08,6.08,0,0,1,2.35,2.37,7.42,7.42,0,0,1,.83,3.58v14.14h-4.25V392.25a4.36,4.36,0,0,0-1-3.09,3.75,3.75,0,0,0-2.91-1.11,4.22,4.22,0,0,0-2.2.57A4,4,0,0,0,852,390.2a4.86,4.86,0,0,0-.54,2.31v12.85h-4.16V391.94a3.61,3.61,0,0,0-3.88-3.89,4.08,4.08,0,0,0-2.2.6,4.19,4.19,0,0,0-1.52,1.63,5.06,5.06,0,0,0-.54,2.38v12.7h-4.26Z"/><path class="cls-1" d="M867.88,384.81h4.26V388h.07a5.56,5.56,0,0,1,2.17-2.6,6.33,6.33,0,0,1,3.52-1,6.77,6.77,0,0,1,2.55.47,5.3,5.3,0,0,1,2,1.38,5.57,5.57,0,0,1,1.21,2.19h.1a6.33,6.33,0,0,1,1.47-2.15,6.45,6.45,0,0,1,2.21-1.4,7.38,7.38,0,0,1,2.72-.49,7,7,0,0,1,3.54.85,6.06,6.06,0,0,1,2.34,2.37,7.31,7.31,0,0,1,.84,3.58v14.14h-4.26V392.25a4.36,4.36,0,0,0-1-3.09,3.75,3.75,0,0,0-2.91-1.11,4.19,4.19,0,0,0-2.2.57A4,4,0,0,0,885,390.2a4.86,4.86,0,0,0-.54,2.31v12.85h-4.16V391.94a3.61,3.61,0,0,0-3.89-3.89,4,4,0,0,0-2.19.6,4.19,4.19,0,0,0-1.52,1.63,5.06,5.06,0,0,0-.54,2.38v12.7h-4.26Z"/><path class="cls-1" d="M321.29,196.58a8.87,8.87,0,0,1-3.76-2.74,7.77,7.77,0,0,1-1.56-4.27l0-.29h4.28l0,.25a4.07,4.07,0,0,0,1.08,2.24,5.76,5.76,0,0,0,2.33,1.45,10,10,0,0,0,3.32.51,9.15,9.15,0,0,0,3.27-.53,4.72,4.72,0,0,0,2.11-1.5,3.67,3.67,0,0,0,.76-2.29v0a3.33,3.33,0,0,0-1.22-2.7,9.7,9.7,0,0,0-4-1.61l-3.06-.65a12.49,12.49,0,0,1-6.18-2.82,6.73,6.73,0,0,1-2-5.07v0a7.19,7.19,0,0,1,1.33-4.23,8.69,8.69,0,0,1,3.61-2.85,13,13,0,0,1,5.3-1,12.68,12.68,0,0,1,5.17,1,8.61,8.61,0,0,1,3.56,2.79,7.73,7.73,0,0,1,1.46,4.17l0,.31h-4.27l0-.26a4.29,4.29,0,0,0-1-2.26,5,5,0,0,0-2.06-1.44,8.1,8.1,0,0,0-3-.5,8.21,8.21,0,0,0-3,.52,4.65,4.65,0,0,0-2,1.44,3.44,3.44,0,0,0-.7,2.17v0a3.11,3.11,0,0,0,1.25,2.57,9.46,9.46,0,0,0,3.88,1.57l3.07.66a13.1,13.1,0,0,1,6.36,2.8,6.77,6.77,0,0,1,2,5.15v0a7.61,7.61,0,0,1-1.3,4.46,8.28,8.28,0,0,1-3.71,2.91,14.55,14.55,0,0,1-5.75,1A14.71,14.71,0,0,1,321.29,196.58Z"/><path class="cls-1" d="M344.63,196.17a8.69,8.69,0,0,1-3.38-3.71,12.72,12.72,0,0,1-1.18-5.68v0a12.42,12.42,0,0,1,1.2-5.65,8.76,8.76,0,0,1,3.39-3.68,10.76,10.76,0,0,1,9.68-.29,8.07,8.07,0,0,1,3,2.66,7.75,7.75,0,0,1,1.26,3.6l0,.15h-4l0-.17a4.94,4.94,0,0,0-1.51-2.61,4.56,4.56,0,0,0-3.25-1.1,4.74,4.74,0,0,0-2.84.87,5.52,5.52,0,0,0-1.9,2.47,9.67,9.67,0,0,0-.67,3.78v0a9.63,9.63,0,0,0,.68,3.84,5.53,5.53,0,0,0,1.9,2.43,5,5,0,0,0,2.87.84,4.7,4.7,0,0,0,3.15-1,4.92,4.92,0,0,0,1.59-2.69l0-.15h4.06v.13a7.84,7.84,0,0,1-1.39,3.7,8.16,8.16,0,0,1-3.07,2.62,9.48,9.48,0,0,1-4.38,1A10,10,0,0,1,344.63,196.17Z"/><path class="cls-1" d="M361.83,168.88h4.24v11h.09a6,6,0,0,1,2.44-2.78,7.4,7.4,0,0,1,3.93-1,7,7,0,0,1,3.84,1,6.86,6.86,0,0,1,2.54,2.88,9.79,9.79,0,0,1,.91,4.33v12.7h-4.24v-11.9a5.91,5.91,0,0,0-1.23-4,4.34,4.34,0,0,0-3.46-1.43,4.61,4.61,0,0,0-2.53.69,4.57,4.57,0,0,0-1.69,1.89,6.31,6.31,0,0,0-.6,2.83v11.9h-4.24Z"/><path class="cls-1" d="M382.26,176.52h4.24l3.73,16.17h.09l4.26-16.17h4.08l4.3,16.17h.1l3.73-16.17H411l-5.63,20.55H401l-4.3-15.39h-.1l-4.27,15.39h-4.4Z"/><path class="cls-1" d="M417,196.18a8.61,8.61,0,0,1-3.34-3.69,12.85,12.85,0,0,1-1.16-5.64v0a12.72,12.72,0,0,1,1.17-5.61,8.88,8.88,0,0,1,3.3-3.75,10.14,10.14,0,0,1,10-.06,8.51,8.51,0,0,1,3.22,3.61,12.38,12.38,0,0,1,1.13,5.42v1.43h-16.7v-3h14.65l-2.09,2.79V186a8.81,8.81,0,0,0-.65-3.6,4.72,4.72,0,0,0-1.82-2.14,5.09,5.09,0,0,0-2.69-.7,4.87,4.87,0,0,0-4.57,2.92,8.21,8.21,0,0,0-.68,3.52v1.64a7.86,7.86,0,0,0,.67,3.41,4.87,4.87,0,0,0,1.93,2.17,5.6,5.6,0,0,0,2.95.75,5.8,5.8,0,0,0,2.2-.38,4.71,4.71,0,0,0,1.6-1,3.63,3.63,0,0,0,.88-1.42l.06-.16h4l0,.22a7,7,0,0,1-1,2.32,8,8,0,0,1-1.83,2,8.53,8.53,0,0,1-2.64,1.4,10.69,10.69,0,0,1-3.4.51A9.9,9.9,0,0,1,417,196.18Z"/><path class="cls-1" d="M434.54,176.52h4.26V180h.08a5.35,5.35,0,0,1,1.74-2.86,4.5,4.5,0,0,1,3-1.05,7.08,7.08,0,0,1,.85.05,4.78,4.78,0,0,1,.62.11v3.92a3.6,3.6,0,0,0-.76-.16,7.87,7.87,0,0,0-1.13-.07,4.67,4.67,0,0,0-2.35.57,3.82,3.82,0,0,0-1.52,1.66,6,6,0,0,0-.53,2.61v12.25h-4.26Z"/><path class="cls-1" d="M447.86,168.88h4.24v28.19h-4.24Z"/><path class="cls-1" d="M458.88,196.66a5.79,5.79,0,0,1-2.4-2.19,6,6,0,0,1-.86-3.24v0a5.12,5.12,0,0,1,2-4.27,9.93,9.93,0,0,1,5.63-1.79l7.78-.46v3l-7.21.45a5.24,5.24,0,0,0-2.92.91,2.54,2.54,0,0,0-1,2.1v0a2.54,2.54,0,0,0,1,2.13,4.37,4.37,0,0,0,2.72.78,5.83,5.83,0,0,0,2.67-.6,4.81,4.81,0,0,0,1.87-1.67,4.39,4.39,0,0,0,.68-2.4v-6.11a3.46,3.46,0,0,0-1-2.67,4.37,4.37,0,0,0-3-1,5,5,0,0,0-2.92.78,3.25,3.25,0,0,0-1.38,2l0,.18h-4l0-.22a6.19,6.19,0,0,1,1.19-3.19,6.94,6.94,0,0,1,2.87-2.24,10.55,10.55,0,0,1,4.35-.82,10.4,10.4,0,0,1,4.36.84,6.73,6.73,0,0,1,2.85,2.36,6.29,6.29,0,0,1,1,3.58v14.16h-4.26v-3.24h-.08a6.59,6.59,0,0,1-1.56,1.92A7.06,7.06,0,0,1,465,197a7.5,7.5,0,0,1-2.57.44A7.87,7.87,0,0,1,458.88,196.66Z"/><path class="cls-1" d="M480.47,196.69a7,7,0,0,1-2.9-2.21,6.65,6.65,0,0,1-1.27-3.29l0-.18h4.18l0,.2a3.59,3.59,0,0,0,1.39,2.2,5,5,0,0,0,3,.79,6.66,6.66,0,0,0,2.19-.32,3.16,3.16,0,0,0,1.39-.93,2.29,2.29,0,0,0,.49-1.45v0a2.09,2.09,0,0,0-.65-1.6,5.34,5.34,0,0,0-2.3-1l-3.36-.77a8.93,8.93,0,0,1-4.39-2.1,4.9,4.9,0,0,1-1.45-3.66v0a5.49,5.49,0,0,1,1-3.25,6.56,6.56,0,0,1,2.8-2.17,10.5,10.5,0,0,1,4.16-.77,9.77,9.77,0,0,1,4.18.82,6.71,6.71,0,0,1,2.74,2.24,6,6,0,0,1,1.09,3.15v.24h-4l0-.14a3.31,3.31,0,0,0-1.21-2.2,4.34,4.34,0,0,0-2.81-.85,5.31,5.31,0,0,0-2,.33,2.8,2.8,0,0,0-1.29.95,2.37,2.37,0,0,0-.45,1.44v0a2.12,2.12,0,0,0,.7,1.6,5,5,0,0,0,2.34,1l3.36.78a9.31,9.31,0,0,1,4.47,2.05,4.8,4.8,0,0,1,1.31,3.54v0a5.37,5.37,0,0,1-1.07,3.3,7.13,7.13,0,0,1-3,2.23,11,11,0,0,1-4.31.8A11.34,11.34,0,0,1,480.47,196.69Z"/><path class="cls-1" d="M499.2,196.1c-1-.92-1.49-2.4-1.49-4.46V179.88h-2.95v-3.36h2.95v-5.35H502v5.35h3.85v3.36H502V191.4a2.67,2.67,0,0,0,.69,2.14,3,3,0,0,0,2,.58,5.79,5.79,0,0,0,.61,0l.52-.05v3.26l-.94.12a11.53,11.53,0,0,1-1.21.06A6.51,6.51,0,0,1,499.2,196.1Z"/><path class="cls-1" d="M509.54,183.71H522.1v3.85H509.54Z"/><path class="cls-1" d="M523.82,168.88h4.73l7.67,23.31h.1L544,168.88h4.74l-10,28.19h-4.84Z"/><path class="cls-1" d="M552.31,196.18a8.83,8.83,0,0,1-3.41-3.69,12.45,12.45,0,0,1-1.21-5.7v0a12.22,12.22,0,0,1,1.22-5.67,8.74,8.74,0,0,1,3.42-3.67,9.86,9.86,0,0,1,5.1-1.29,10,10,0,0,1,5.13,1.28,8.72,8.72,0,0,1,3.42,3.66,12.41,12.41,0,0,1,1.22,5.69v0A12.44,12.44,0,0,1,566,192.5a8.93,8.93,0,0,1-3.41,3.68,10.77,10.77,0,0,1-10.26,0Zm8-3.1a5.36,5.36,0,0,0,1.88-2.43,10,10,0,0,0,.66-3.86v0a10,10,0,0,0-.66-3.84,5.25,5.25,0,0,0-1.9-2.42,4.94,4.94,0,0,0-2.87-.83,4.88,4.88,0,0,0-2.84.84,5.43,5.43,0,0,0-1.9,2.42,9.54,9.54,0,0,0-.69,3.83v0a9.84,9.84,0,0,0,.68,3.86,5.39,5.39,0,0,0,1.9,2.43,5,5,0,0,0,2.89.84A4.84,4.84,0,0,0,560.32,193.08Z"/><path class="cls-1" d="M570.62,168.88h4.24v28.19h-4.24Z"/><path class="cls-1" d="M579.35,168.88h4.24v28.19h-4.24Z"/><path class="cls-1" d="M590.36,196.66a5.79,5.79,0,0,1-2.4-2.19,6.13,6.13,0,0,1-.86-3.24v0a5.15,5.15,0,0,1,2-4.27,10,10,0,0,1,5.64-1.79l7.77-.46v3l-7.21.45a5.27,5.27,0,0,0-2.92.91,2.53,2.53,0,0,0-1,2.1v0a2.54,2.54,0,0,0,1,2.13,4.42,4.42,0,0,0,2.73.78,5.83,5.83,0,0,0,2.67-.6,4.85,4.85,0,0,0,1.86-1.67,4.31,4.31,0,0,0,.68-2.4v-6.11a3.46,3.46,0,0,0-1.05-2.67,4.34,4.34,0,0,0-3-1,5,5,0,0,0-2.92.78,3.28,3.28,0,0,0-1.37,2l0,.18h-4l0-.22a6.19,6.19,0,0,1,1.19-3.19A7,7,0,0,1,592,177a10.6,10.6,0,0,1,4.36-.82,10.36,10.36,0,0,1,4.35.84,6.7,6.7,0,0,1,2.86,2.36,6.37,6.37,0,0,1,1,3.58v14.16h-4.26v-3.24h-.07a6.79,6.79,0,0,1-1.57,1.92,7,7,0,0,1-2.15,1.25,7.54,7.54,0,0,1-2.57.44A7.89,7.89,0,0,1,590.36,196.66Z"/><path class="cls-1" d="M611.82,196.55a6.07,6.07,0,0,1-2.43-2.65,9.17,9.17,0,0,1-.84-4.08v-13.3h4.25V189a5.29,5.29,0,0,0,1.09,3.57,4.13,4.13,0,0,0,3.27,1.24,5,5,0,0,0,2.59-.67,4.44,4.44,0,0,0,1.7-1.86,6.3,6.3,0,0,0,.59-2.79v-12h4.24v20.55H622V194H622a6.35,6.35,0,0,1-2.38,2.53,7.29,7.29,0,0,1-3.91,1A7.48,7.48,0,0,1,611.82,196.55Z"/><path class="cls-1" d="M633.75,196.69a7,7,0,0,1-2.9-2.21,6.65,6.65,0,0,1-1.27-3.29l0-.18h4.18l0,.2a3.59,3.59,0,0,0,1.39,2.2,5,5,0,0,0,3,.79,6.6,6.6,0,0,0,2.18-.32,3.16,3.16,0,0,0,1.39-.93,2.29,2.29,0,0,0,.49-1.45v0a2.09,2.09,0,0,0-.65-1.6,5.34,5.34,0,0,0-2.3-1l-3.36-.77a8.93,8.93,0,0,1-4.39-2.1,4.9,4.9,0,0,1-1.45-3.66v0a5.42,5.42,0,0,1,1-3.25,6.47,6.47,0,0,1,2.79-2.17,10.54,10.54,0,0,1,4.16-.77,9.77,9.77,0,0,1,4.18.82,6.71,6.71,0,0,1,2.74,2.24,6,6,0,0,1,1.09,3.15v.24h-4l0-.14a3.27,3.27,0,0,0-1.21-2.2,4.34,4.34,0,0,0-2.81-.85,5.31,5.31,0,0,0-2,.33,2.91,2.91,0,0,0-1.29.95,2.37,2.37,0,0,0-.45,1.44v0a2.12,2.12,0,0,0,.7,1.6,5,5,0,0,0,2.34,1l3.36.78a9.31,9.31,0,0,1,4.47,2.05,4.77,4.77,0,0,1,1.32,3.54v0a5.31,5.31,0,0,1-1.08,3.3,7.13,7.13,0,0,1-3,2.23,11,11,0,0,1-4.3.8A11.35,11.35,0,0,1,633.75,196.69Z"/><path class="cls-1" d="M649.37,194.35l11-14.39v-.08H649.45v-3.36h15.74v2.91l-10.71,14.2v.08H665.3v3.36H649.37Z"/><path class="cls-1" d="M672.21,196.55a6.07,6.07,0,0,1-2.43-2.65,9.17,9.17,0,0,1-.84-4.08v-13.3h4.26V189a5.29,5.29,0,0,0,1.08,3.57,4.13,4.13,0,0,0,3.27,1.24,5,5,0,0,0,2.59-.67,4.44,4.44,0,0,0,1.7-1.86,6.3,6.3,0,0,0,.59-2.79v-12h4.24v20.55h-4.24V194h-.09a6.35,6.35,0,0,1-2.38,2.53,7.29,7.29,0,0,1-3.91,1A7.48,7.48,0,0,1,672.21,196.55Z"/><path class="cls-1" d="M695.28,203.57a8.11,8.11,0,0,1-3.16-2,5.71,5.71,0,0,1-1.5-2.83l0-.18h4.22l.06.16a3.29,3.29,0,0,0,1.72,1.59,7.68,7.68,0,0,0,3.28.62,5.42,5.42,0,0,0,3.84-1.26,4.41,4.41,0,0,0,1.35-3.39v-2.83H705a6.66,6.66,0,0,1-1.53,1.93,6.85,6.85,0,0,1-2.2,1.27,8.56,8.56,0,0,1-7.24-.83,8.27,8.27,0,0,1-3-3.62,13.53,13.53,0,0,1-1.06-5.55v0A13.29,13.29,0,0,1,691,181a8.3,8.3,0,0,1,3-3.63,8.06,8.06,0,0,1,4.54-1.28,7.06,7.06,0,0,1,2.68.49,6.82,6.82,0,0,1,2.16,1.36,7.22,7.22,0,0,1,1.54,2h.1v-3.5h4.24v20a7.37,7.37,0,0,1-1.14,4.1,7.51,7.51,0,0,1-3.27,2.74,11.88,11.88,0,0,1-5,1A12.81,12.81,0,0,1,695.28,203.57Zm7.22-10.78a5.64,5.64,0,0,0,1.88-2.42,9.21,9.21,0,0,0,.67-3.67v0a9.09,9.09,0,0,0-.67-3.66,5.55,5.55,0,0,0-1.89-2.41,4.81,4.81,0,0,0-2.81-.85,4.94,4.94,0,0,0-2.88.84,5.4,5.4,0,0,0-1.89,2.4,9.27,9.27,0,0,0-.66,3.66v0a9.51,9.51,0,0,0,.66,3.72,5.51,5.51,0,0,0,1.89,2.4,4.87,4.87,0,0,0,2.88.85A4.74,4.74,0,0,0,702.5,192.79Z"/><path class="cls-1" d="M725.55,198.76a26.37,26.37,0,0,1-1.85-5.8,36.33,36.33,0,0,1,0-13.15,26.12,26.12,0,0,1,1.85-5.79,24.1,24.1,0,0,1,3.19-5.14h3.73a14.52,14.52,0,0,0-2,3.21,28.62,28.62,0,0,0-1.6,4.32,36.77,36.77,0,0,0-1.06,5,34.31,34.31,0,0,0,0,10,36.92,36.92,0,0,0,1.06,5,28.76,28.76,0,0,0,1.6,4.33,14.2,14.2,0,0,0,2,3.2h-3.73A23.86,23.86,0,0,1,725.55,198.76Z"/><path class="cls-1" d="M735.81,168.88h4.38v28.19h-4.38ZM738,183.77h7.23a6.17,6.17,0,0,0,4.4-1.48,5.31,5.31,0,0,0,1.57-4.09v0a5.35,5.35,0,0,0-1.57-4.12,6.2,6.2,0,0,0-4.4-1.46H738v-3.7h8.32a9.83,9.83,0,0,1,4.87,1.17,8.33,8.33,0,0,1,3.29,3.24,9.51,9.51,0,0,1,1.2,4.83v0a9.62,9.62,0,0,1-1.2,4.86,8.38,8.38,0,0,1-3.29,3.26,9.94,9.94,0,0,1-4.87,1.16H738Z"/><path class="cls-1" d="M762.15,196.55a6.07,6.07,0,0,1-2.43-2.65,9.17,9.17,0,0,1-.84-4.08v-13.3h4.26V189a5.29,5.29,0,0,0,1.08,3.57,4.13,4.13,0,0,0,3.27,1.24,5,5,0,0,0,2.59-.67,4.44,4.44,0,0,0,1.7-1.86,6.16,6.16,0,0,0,.59-2.79v-12h4.24v20.55h-4.24V194h-.09a6.35,6.35,0,0,1-2.38,2.53,7.27,7.27,0,0,1-3.91,1A7.48,7.48,0,0,1,762.15,196.55Z"/><path class="cls-1" d="M784.08,196.69a7,7,0,0,1-2.9-2.21,6.75,6.75,0,0,1-1.27-3.29l0-.18h4.18l0,.2a3.59,3.59,0,0,0,1.39,2.2,5,5,0,0,0,3,.79,6.66,6.66,0,0,0,2.19-.32,3.12,3.12,0,0,0,1.38-.93,2.23,2.23,0,0,0,.49-1.45v0a2.09,2.09,0,0,0-.64-1.6,5.33,5.33,0,0,0-2.31-1l-3.36-.77a8.89,8.89,0,0,1-4.38-2.1,4.9,4.9,0,0,1-1.46-3.66v0a5.42,5.42,0,0,1,1-3.25,6.47,6.47,0,0,1,2.79-2.17,10.54,10.54,0,0,1,4.16-.77,9.77,9.77,0,0,1,4.18.82,6.65,6.65,0,0,1,2.74,2.24,6,6,0,0,1,1.09,3.15v.24h-4l0-.14a3.27,3.27,0,0,0-1.21-2.2,4.34,4.34,0,0,0-2.81-.85,5.38,5.38,0,0,0-2,.33,2.91,2.91,0,0,0-1.29.95,2.37,2.37,0,0,0-.45,1.44v0a2.12,2.12,0,0,0,.7,1.6,5,5,0,0,0,2.35,1l3.36.78a9.32,9.32,0,0,1,4.46,2.05,4.77,4.77,0,0,1,1.32,3.54v0a5.31,5.31,0,0,1-1.08,3.3,7.07,7.07,0,0,1-3,2.23,11,11,0,0,1-4.3.8A11.35,11.35,0,0,1,784.08,196.69Z"/><path class="cls-1" d="M800.29,168.88h4.23v11h.1a6,6,0,0,1,2.43-2.78,7.46,7.46,0,0,1,3.94-1,7,7,0,0,1,3.84,1,6.93,6.93,0,0,1,2.54,2.88,9.79,9.79,0,0,1,.9,4.33v12.7H814v-11.9a5.91,5.91,0,0,0-1.24-4,4.32,4.32,0,0,0-3.45-1.43,4.55,4.55,0,0,0-4.22,2.58,6.18,6.18,0,0,0-.61,2.83v11.9h-4.23Z"/><path class="cls-1" d="M822.65,183.71h12.56v3.85H822.65Z"/><path class="cls-1" d="M839.84,168.88h4.23v28.19h-4.23Z"/><path class="cls-1" d="M852.11,196.18a8.89,8.89,0,0,1-3.41-3.69,12.45,12.45,0,0,1-1.21-5.7v0a12.35,12.35,0,0,1,1.22-5.67,8.86,8.86,0,0,1,3.42-3.67,9.92,9.92,0,0,1,5.11-1.29,10.07,10.07,0,0,1,5.13,1.28,8.69,8.69,0,0,1,3.41,3.66,12.28,12.28,0,0,1,1.22,5.69v0a12.31,12.31,0,0,1-1.22,5.71,8.86,8.86,0,0,1-3.41,3.68,9.76,9.76,0,0,1-5.11,1.3A9.9,9.9,0,0,1,852.11,196.18Zm8-3.1a5.34,5.34,0,0,0,1.87-2.43,9.85,9.85,0,0,0,.67-3.86v0a9.81,9.81,0,0,0-.67-3.84,5.23,5.23,0,0,0-1.89-2.42,5,5,0,0,0-2.87-.83,4.88,4.88,0,0,0-2.84.84,5.45,5.45,0,0,0-1.91,2.42,9.72,9.72,0,0,0-.68,3.83v0a9.85,9.85,0,0,0,.67,3.86,5.41,5.41,0,0,0,1.91,2.43,5,5,0,0,0,2.89.84A4.89,4.89,0,0,0,860.13,193.08Z"/><path class="cls-1" d="M873.91,196.17a8.63,8.63,0,0,1-3.38-3.71,12.72,12.72,0,0,1-1.18-5.68v0a12.42,12.42,0,0,1,1.2-5.65,8.76,8.76,0,0,1,3.39-3.68,10.76,10.76,0,0,1,9.68-.29,8,8,0,0,1,3,2.66,7.66,7.66,0,0,1,1.27,3.6l0,.15h-4l0-.17a5,5,0,0,0-1.51-2.61,4.58,4.58,0,0,0-3.26-1.1,4.76,4.76,0,0,0-2.84.87,5.57,5.57,0,0,0-1.89,2.47,9.67,9.67,0,0,0-.68,3.78v0a9.62,9.62,0,0,0,.69,3.84,5.46,5.46,0,0,0,1.9,2.43,4.92,4.92,0,0,0,2.86.84,4.72,4.72,0,0,0,3.16-1,4.92,4.92,0,0,0,1.59-2.69l0-.15h4.06v.13a7.75,7.75,0,0,1-1.4,3.7,8.06,8.06,0,0,1-3.06,2.62,9.49,9.49,0,0,1-4.39,1A9.94,9.94,0,0,1,873.91,196.17Z"/><path class="cls-1" d="M891.18,168.88h4.24v28.19h-4.24Zm3.5,16.39h.84l8.22-8.75h5l-9.63,10.12h-.64l-3.77,3.77Zm2.19,2.27,2.75-3L909,197.07h-4.91Z"/><path class="cls-1" d="M909.78,203.9a14.2,14.2,0,0,0,2-3.2,29.6,29.6,0,0,0,1.59-4.34,39.28,39.28,0,0,0,1.07-5,33.35,33.35,0,0,0,0-10,38.38,38.38,0,0,0-1.07-5,29.75,29.75,0,0,0-1.59-4.32,14.51,14.51,0,0,0-2-3.21h3.73A24.51,24.51,0,0,1,916.7,174a26.12,26.12,0,0,1,1.85,5.79,36.33,36.33,0,0,1,0,13.15,26.37,26.37,0,0,1-1.85,5.8,24.26,24.26,0,0,1-3.19,5.14Z"/><path class="cls-1" d="M939.53,196.75a9.91,9.91,0,0,1-3.55-2.48,11.87,11.87,0,0,1-2.47-4.38,20.54,20.54,0,0,1-.9-6.49v0A21.55,21.55,0,0,1,934,175.3a11.07,11.07,0,0,1,3.86-5.12,10.37,10.37,0,0,1,6.05-1.76,11.21,11.21,0,0,1,4.54.88,9.3,9.3,0,0,1,3.37,2.49,8.38,8.38,0,0,1,1.8,3.7l0,.23h-4.4l-.08-.19A5,5,0,0,0,948,173.7a5.1,5.1,0,0,0-1.8-1.19,6.42,6.42,0,0,0-2.4-.42,5.57,5.57,0,0,0-3.92,1.4,8.45,8.45,0,0,0-2.24,3.72,18.62,18.62,0,0,0-.81,5.13,3.24,3.24,0,0,0,0,.44v.46l.84,4.65a5.87,5.87,0,0,0,.79,3,6.08,6.08,0,0,0,8.2,2.15,5.88,5.88,0,0,0,2.16-2.1,5.7,5.7,0,0,0,.8-3v0a5.83,5.83,0,0,0-.76-3,5.5,5.5,0,0,0-2.11-2.06,6.16,6.16,0,0,0-3-.75,6.28,6.28,0,0,0-3.07.74,5.51,5.51,0,0,0-3,5v0H936.5V183.1h.41a6.78,6.78,0,0,1,1.68-2.29,8.16,8.16,0,0,1,2.65-1.63,9.27,9.27,0,0,1,3.46-.61,9.45,9.45,0,0,1,4.8,1.2,8.69,8.69,0,0,1,3.29,3.3,9.34,9.34,0,0,1,1.21,4.76v0a9.36,9.36,0,0,1-1.34,5,9.59,9.59,0,0,1-3.66,3.43,11.06,11.06,0,0,1-5.3,1.25A11.28,11.28,0,0,1,939.53,196.75Z"/><path class="cls-1" d="M962.79,195.76a11.17,11.17,0,0,1-3.7-5A21,21,0,0,1,957.8,183v0a21.05,21.05,0,0,1,1.29-7.74,11.19,11.19,0,0,1,3.7-5,10.35,10.35,0,0,1,11.55,0,11.21,11.21,0,0,1,3.71,5,21,21,0,0,1,1.3,7.74v0a21,21,0,0,1-1.3,7.73,11.18,11.18,0,0,1-3.71,5,10.26,10.26,0,0,1-11.55,0Zm9.2-3.2a8.33,8.33,0,0,0,2.17-3.75,20,20,0,0,0,.75-5.82v0a19.8,19.8,0,0,0-.75-5.81A8.24,8.24,0,0,0,972,173.4a5.13,5.13,0,0,0-6.85,0,8.14,8.14,0,0,0-2.16,3.74,19.83,19.83,0,0,0-.74,5.81v0a20,20,0,0,0,.74,5.82,8.23,8.23,0,0,0,2.16,3.75,5.13,5.13,0,0,0,6.85,0Z"/><path class="cls-1" d="M987.78,195.76a11.11,11.11,0,0,1-3.71-5,21,21,0,0,1-1.28-7.73v0a21.06,21.06,0,0,1,1.28-7.74,11.14,11.14,0,0,1,3.71-5,10.34,10.34,0,0,1,11.54,0,11.21,11.21,0,0,1,3.71,5,21,21,0,0,1,1.3,7.74v0a21,21,0,0,1-1.3,7.73,11.18,11.18,0,0,1-3.71,5,10.24,10.24,0,0,1-11.54,0Zm9.19-3.2a8.33,8.33,0,0,0,2.17-3.75,20,20,0,0,0,.75-5.82v0a19.8,19.8,0,0,0-.75-5.81A8.24,8.24,0,0,0,997,173.4a5.13,5.13,0,0,0-6.85,0,8.23,8.23,0,0,0-2.16,3.74,19.83,19.83,0,0,0-.74,5.81v0a20,20,0,0,0,.74,5.82,8.32,8.32,0,0,0,2.16,3.75,5.13,5.13,0,0,0,6.85,0Z"/><path class="cls-1" d="M1008.12,176.52h4.25v3.19h.08a5.5,5.5,0,0,1,2.17-2.6,6.31,6.31,0,0,1,3.52-1,6.77,6.77,0,0,1,2.55.47,5.3,5.3,0,0,1,2,1.38,5.57,5.57,0,0,1,1.21,2.19h.1a6.33,6.33,0,0,1,1.47-2.15,6.45,6.45,0,0,1,2.21-1.4,7.38,7.38,0,0,1,2.72-.49,7.05,7.05,0,0,1,3.54.85,6.06,6.06,0,0,1,2.34,2.37,7.31,7.31,0,0,1,.84,3.58v14.14h-4.26V184a4.41,4.41,0,0,0-1-3.09,3.75,3.75,0,0,0-2.91-1.11,4.17,4.17,0,0,0-2.2.57,4,4,0,0,0-1.48,1.58,4.86,4.86,0,0,0-.54,2.31v12.85h-4.16V183.65a3.62,3.62,0,0,0-3.89-3.89,4,4,0,0,0-2.19.6,4.19,4.19,0,0,0-1.52,1.63,5.06,5.06,0,0,0-.55,2.38v12.7h-4.25Z"/><path class="cls-1" d="M1041.12,176.52h4.26v3.19h.08a5.45,5.45,0,0,1,2.17-2.6,6.3,6.3,0,0,1,3.51-1,6.7,6.7,0,0,1,2.55.47,5.25,5.25,0,0,1,2,1.38,5.69,5.69,0,0,1,1.21,2.19h.09a6.52,6.52,0,0,1,3.69-3.55,7.35,7.35,0,0,1,2.72-.49,7.08,7.08,0,0,1,3.54.85,6.06,6.06,0,0,1,2.34,2.37,7.31,7.31,0,0,1,.84,3.58v14.14h-4.26V184a4.41,4.41,0,0,0-1-3.09,3.75,3.75,0,0,0-2.91-1.11,4.17,4.17,0,0,0-2.2.57,4.05,4.05,0,0,0-1.49,1.58,5,5,0,0,0-.53,2.31v12.85h-4.16V183.65a3.62,3.62,0,0,0-3.89-3.89,4.1,4.1,0,0,0-2.2.6,4.16,4.16,0,0,0-1.51,1.63,5,5,0,0,0-.55,2.38v12.7h-4.26Z"/></svg>