<svg id="Ebene_1" data-name="Ebene 1" xmlns="http://www.w3.org/2000/svg" viewBox="0 0 1005.03 663.63"><defs><style>.cls-1{fill:#68442a;}.cls-2,.cls-3,.cls-5{fill:none;stroke-miterlimit:10;}.cls-2,.cls-3{stroke:#ccc;}.cls-2,.cls-5{stroke-width:5px;}.cls-2{stroke-dasharray:12.43;}.cls-3{stroke-width:4.02px;stroke-dasharray:10.01;}.cls-4{fill:#f6f6f6;}.cls-5{stroke:#454545;}.cls-6{fill:#454545;}</style></defs><rect class="cls-1" x="96.52" y="26.11" width="850" height="550"/><line class="cls-2" x1="75.06" y1="156.11" x2="976.7" y2="156.11"/><line class="cls-2" x1="75.06" y1="295.67" x2="976.7" y2="295.67"/><line class="cls-2" x1="75.06" y1="435.24" x2="976.7" y2="435.24"/><line class="cls-3" x1="521.52" y1="8.97" x2="521.52" y2="593.25"/><path class="cls-4" d="M522.05,255.54h-.29l-22.09,15.24V258.3l22.26-15.82h13V327H522.05Z"/><line class="cls-5" x1="521.5" y1="598.86" x2="99.67" y2="598.86"/><rect class="cls-6" x="519" y="582.61" width="5" height="32.5"/><rect class="cls-6" x="97.17" y="582.61" width="5" height="32.5"/><path class="cls-6" d="M255.8,636.71H241.7v-3.83q1.19-1.87,2.39-3.75l2.4-3.75,2.4-3.75q1.19-1.87,2.39-3.75t2.39-3.75H260V633h3.91v3.69H260v5.6h-4.2Zm0-3.62V617.61h-.12c-.66,1-1.33,2-2,3.07s-1.33,2.05-2,3.07-1.32,2-2,3.07l-2,3.08-2,3.08v.11Z"/><path class="cls-6" d="M271.69,641a11.12,11.12,0,0,1-3.7-5,21.05,21.05,0,0,1-1.29-7.74v0a21,21,0,0,1,1.29-7.73,11.07,11.07,0,0,1,3.7-5,10.29,10.29,0,0,1,11.54,0,11.08,11.08,0,0,1,3.71,5,20.75,20.75,0,0,1,1.3,7.73v0a20.84,20.84,0,0,1-1.3,7.74,11.14,11.14,0,0,1-3.71,5,10.24,10.24,0,0,1-11.54,0Zm9.2-3.2a8.41,8.41,0,0,0,2.17-3.75,20,20,0,0,0,.75-5.82v0a19.85,19.85,0,0,0-.75-5.81,8.42,8.42,0,0,0-2.17-3.74,5.15,5.15,0,0,0-6.86,0,8.32,8.32,0,0,0-2.16,3.74,20.22,20.22,0,0,0-.74,5.81v0a20.34,20.34,0,0,0,.74,5.82A8.3,8.3,0,0,0,274,637.8a5.15,5.15,0,0,0,6.86,0Z"/><path class="cls-6" d="M296.67,641a11.12,11.12,0,0,1-3.7-5,21.05,21.05,0,0,1-1.29-7.74v0a21,21,0,0,1,1.29-7.73,11.07,11.07,0,0,1,3.7-5,10.29,10.29,0,0,1,11.54,0,11.08,11.08,0,0,1,3.71,5,20.75,20.75,0,0,1,1.3,7.73v0a20.84,20.84,0,0,1-1.3,7.74,11.14,11.14,0,0,1-3.71,5,10.24,10.24,0,0,1-11.54,0Zm9.2-3.2a8.41,8.41,0,0,0,2.17-3.75,20,20,0,0,0,.75-5.82v0a19.85,19.85,0,0,0-.75-5.81,8.42,8.42,0,0,0-2.17-3.74,5.15,5.15,0,0,0-6.86,0,8.32,8.32,0,0,0-2.16,3.74,20.22,20.22,0,0,0-.74,5.81v0a20.34,20.34,0,0,0,.74,5.82A8.3,8.3,0,0,0,299,637.8a5.15,5.15,0,0,0,6.86,0Z"/><path class="cls-6" d="M317,621.77h4.26V625h.08a5.53,5.53,0,0,1,2.16-2.6,6.35,6.35,0,0,1,3.52-1,6.7,6.7,0,0,1,2.55.46,5.45,5.45,0,0,1,2,1.38,5.68,5.68,0,0,1,1.21,2.2h.1a6.35,6.35,0,0,1,1.48-2.16,6.56,6.56,0,0,1,2.2-1.4,7.61,7.61,0,0,1,2.73-.48,7,7,0,0,1,3.53.85,6,6,0,0,1,2.35,2.37,7.27,7.27,0,0,1,.84,3.57v14.14h-4.26v-13.1a4.41,4.41,0,0,0-1-3.1,3.78,3.78,0,0,0-2.91-1.1,4.31,4.31,0,0,0-2.2.56,4,4,0,0,0-1.48,1.59,4.79,4.79,0,0,0-.54,2.3v12.85h-4.16V628.9a3.59,3.59,0,0,0-3.88-3.89,4.06,4.06,0,0,0-3.71,2.22,5,5,0,0,0-.55,2.39v12.69H317Z"/><path class="cls-6" d="M350,621.77h4.26V625h.07a5.61,5.61,0,0,1,2.17-2.6,6.33,6.33,0,0,1,3.52-1,6.7,6.7,0,0,1,2.55.46,5.54,5.54,0,0,1,2,1.38,5.68,5.68,0,0,1,1.21,2.2h.1a6.47,6.47,0,0,1,1.47-2.16,6.6,6.6,0,0,1,2.21-1.4,7.59,7.59,0,0,1,2.72-.48,7,7,0,0,1,3.54.85,5.93,5.93,0,0,1,2.34,2.37,7.27,7.27,0,0,1,.84,3.57v14.14h-4.25v-13.1a4.41,4.41,0,0,0-1-3.1,3.78,3.78,0,0,0-2.91-1.1,4.28,4.28,0,0,0-2.2.56,4,4,0,0,0-1.48,1.59,4.79,4.79,0,0,0-.54,2.3v12.85h-4.16V628.9a3.6,3.6,0,0,0-3.89-3.89,4.13,4.13,0,0,0-2.19.59,4.26,4.26,0,0,0-1.52,1.63,5.13,5.13,0,0,0-.54,2.39v12.69H350Z"/><line class="cls-5" x1="66.62" y1="435.2" x2="66.62" y2="571.45"/><rect class="cls-6" x="50.37" y="432.7" width="32.5" height="5"/><rect class="cls-6" x="50.37" y="568.95" width="32.5" height="5"/><path class="cls-6" d="M17.5,560.74v.1l5.08,7.36H18.42l-5.28-7.42v-4.34H41.33v4.3Z"/><path class="cls-6" d="M40.79,545A8.69,8.69,0,0,1,38,548.57a7.89,7.89,0,0,1-4.1,1.5l-.23,0v-4.21l.21,0A4.23,4.23,0,0,0,36.94,544a7.08,7.08,0,0,0,1.2-4.27,7.25,7.25,0,0,0-.59-3,4.91,4.91,0,0,0-1.65-2,4.2,4.2,0,0,0-2.41-.72h0a4.41,4.41,0,0,0-3.66,1.62A7,7,0,0,0,28.51,540v3.43H25.08v-3.3a6.61,6.61,0,0,0-.58-2.82,4.5,4.5,0,0,0-1.59-1.89,4.11,4.11,0,0,0-2.33-.68h0a4.46,4.46,0,0,0-2.32.58,3.58,3.58,0,0,0-1.45,1.7,6.58,6.58,0,0,0-.5,2.72,7.33,7.33,0,0,0,.5,2.78,4.61,4.61,0,0,0,1.47,1.93,4.45,4.45,0,0,0,2.27.86l.19,0v4.14l-.21,0a8.44,8.44,0,0,1-4.13-1.5,8.26,8.26,0,0,1-2.72-3.35,11.58,11.58,0,0,1-1-4.86,12,12,0,0,1,.93-4.9,7.7,7.7,0,0,1,2.57-3.24A6.44,6.44,0,0,1,20,530.48h0a6,6,0,0,1,3.09.78,6.6,6.6,0,0,1,2.23,2.11,8.53,8.53,0,0,1,1.24,3h.1a8,8,0,0,1,2.05-5,6.26,6.26,0,0,1,4.76-1.89h0a7.32,7.32,0,0,1,4.28,1.31,8.67,8.67,0,0,1,2.93,3.6,12.63,12.63,0,0,1,1,5.3A12.87,12.87,0,0,1,40.79,545Z"/><path class="cls-6" d="M40,520.89a11.28,11.28,0,0,1-5,3.7,21,21,0,0,1-7.74,1.29h0a21,21,0,0,1-7.73-1.29,11.19,11.19,0,0,1-5-3.7,10.31,10.31,0,0,1,0-11.55,11.21,11.21,0,0,1,5-3.71,21,21,0,0,1,7.73-1.3h0a21,21,0,0,1,7.74,1.3,11.29,11.29,0,0,1,5,3.71,10.31,10.31,0,0,1,0,11.55Zm-3.21-9.2a8.23,8.23,0,0,0-3.75-2.17,19.87,19.87,0,0,0-5.82-.75h0a19.9,19.9,0,0,0-5.81.75,8.3,8.3,0,0,0-3.74,2.17,5.16,5.16,0,0,0,0,6.85,8.2,8.2,0,0,0,3.74,2.16,19.92,19.92,0,0,0,5.81.74h0a19.9,19.9,0,0,0,5.82-.74,8.13,8.13,0,0,0,3.75-2.16,5.13,5.13,0,0,0,0-6.85Z"/><path class="cls-6" d="M20.78,500.54v-4.25H24v-.08a5.6,5.6,0,0,1-2.6-2.17,6.3,6.3,0,0,1-1-3.52,6.49,6.49,0,0,1,.47-2.54,5.35,5.35,0,0,1,1.37-2,5.81,5.81,0,0,1,2.2-1.21v-.1a6.47,6.47,0,0,1-2.16-1.47A6.58,6.58,0,0,1,20.88,481a7.38,7.38,0,0,1-.49-2.72,7.05,7.05,0,0,1,.85-3.54,6,6,0,0,1,2.37-2.34,7.31,7.31,0,0,1,3.58-.84H41.33v4.26H28.22a4.45,4.45,0,0,0-3.1,1,3.78,3.78,0,0,0-1.1,2.91,4.17,4.17,0,0,0,.57,2.2,3.89,3.89,0,0,0,1.58,1.48,4.82,4.82,0,0,0,2.3.54H41.33v4.16H27.91A3.62,3.62,0,0,0,24,492a4.09,4.09,0,0,0,2.23,3.71,5.06,5.06,0,0,0,2.38.55h12.7v4.25Z"/><path class="cls-6" d="M20.78,467.54v-4.26H24v-.08a5.54,5.54,0,0,1-2.6-2.17,6.29,6.29,0,0,1-1-3.51,6.51,6.51,0,0,1,.47-2.55,5.43,5.43,0,0,1,1.37-2,6,6,0,0,1,2.2-1.21v-.09a6.65,6.65,0,0,1-2.16-1.48A6.58,6.58,0,0,1,20.88,448a7.35,7.35,0,0,1-.49-2.72,7.08,7.08,0,0,1,.85-3.54,6,6,0,0,1,2.37-2.34,7.31,7.31,0,0,1,3.58-.84H41.33v4.26H28.22a4.45,4.45,0,0,0-3.1,1,3.78,3.78,0,0,0-1.1,2.91,4.17,4.17,0,0,0,.57,2.2,4,4,0,0,0,1.58,1.49,4.82,4.82,0,0,0,2.3.53H41.33v4.16H27.91A3.62,3.62,0,0,0,24,459a4.09,4.09,0,0,0,2.23,3.71,5,5,0,0,0,2.38.55h12.7v4.26Z"/></svg>