<svg id="Ebene_1" data-name="Ebene 1" xmlns="http://www.w3.org/2000/svg" viewBox="0 0 876.65 729.37"><defs><style>.cls-1{fill:#68442a;}.cls-2,.cls-4,.cls-5{fill:none;stroke-miterlimit:10;}.cls-2,.cls-4{stroke:#ccc;}.cls-2{stroke-width:4.02px;stroke-dasharray:10.01;}.cls-3{fill:#f6f6f6;}.cls-4,.cls-5{stroke-width:5px;}.cls-4{stroke-dasharray:12.43;}.cls-5{stroke:#454545;}.cls-6{fill:#454545;}</style></defs><rect class="cls-1" x="99.19" y="98.12" width="680" height="550"/><line class="cls-2" x1="633.6" y1="80.99" x2="633.6" y2="665.26"/><path class="cls-3" d="M410.92,390l29.82-29.95a117.32,117.32,0,0,0,8.62-9.37,25.77,25.77,0,0,0,4-6.65,17.6,17.6,0,0,0,1.11-6.24v-.12a13.16,13.16,0,0,0-7.09-12,15.89,15.89,0,0,0-7.61-1.76,18.22,18.22,0,0,0-8.76,2.05,16.27,16.27,0,0,0-6.07,5.48,13.91,13.91,0,0,0-2.23,7.71l-.05.41H410.27v-.41a24.09,24.09,0,0,1,3.87-13.48,26.36,26.36,0,0,1,10.58-9.26,32.93,32.93,0,0,1,14.91-3.34,32.19,32.19,0,0,1,14.47,3.11,24.41,24.41,0,0,1,9.82,8.52A22,22,0,0,1,467.46,337v.11a24,24,0,0,1-1.76,9.15,38.72,38.72,0,0,1-6,9.55,172.75,172.75,0,0,1-11.87,12.77l-23.67,23.2,4.45-8.43v8.43L424.16,388h44.65V399H410.92Z"/><line class="cls-4" x1="66.08" y1="233.56" x2="634.48" y2="233.56"/><line class="cls-4" x1="66.08" y1="512.69" x2="634.48" y2="512.69"/><line class="cls-5" x1="633.73" y1="671.24" x2="102.01" y2="671.24"/><rect class="cls-6" x="631.23" y="654.99" width="5" height="32.5"/><rect class="cls-6" x="99.51" y="654.99" width="5" height="32.5"/><path class="cls-6" d="M305.66,714.11a8.87,8.87,0,0,1-3.47-2.88,8.15,8.15,0,0,1-1.5-4.13l0-.23h4.18l0,.13a4.93,4.93,0,0,0,1,2.3,5.65,5.65,0,0,0,2,1.62,6.9,6.9,0,0,0,5.94-.17,5.47,5.47,0,0,0,2.13-2.11,6.12,6.12,0,0,0,.76-3.08v0a6,6,0,0,0-.77-3,5.67,5.67,0,0,0-2.12-2.09,6.15,6.15,0,0,0-3.09-.76,7.53,7.53,0,0,0-2.42.38,5.78,5.78,0,0,0-2,1.14,5.65,5.65,0,0,0-.71.75,6,6,0,0,0-.62.87h-3.85l1.39-16.25h16.82v3.7H306.12l-.86,8.92h.1a6.32,6.32,0,0,1,2.63-2.2,8.93,8.93,0,0,1,3.76-.77,9.4,9.4,0,0,1,4.78,1.2,8.83,8.83,0,0,1,3.3,3.29,9.46,9.46,0,0,1,1.2,4.79v0a9.58,9.58,0,0,1-1.33,5,9.28,9.28,0,0,1-3.66,3.42,12.35,12.35,0,0,1-10.38.17Z"/><path class="cls-6" d="M329.65,714.11a9,9,0,0,1-3.48-2.88,8.23,8.23,0,0,1-1.49-4.13l0-.23h4.18l0,.13a5,5,0,0,0,1,2.3,5.6,5.6,0,0,0,2.05,1.62,6.88,6.88,0,0,0,5.93-.17,5.47,5.47,0,0,0,2.13-2.11,6.12,6.12,0,0,0,.76-3.08v0a5.91,5.91,0,0,0-.77-3,5.6,5.6,0,0,0-2.12-2.09,6.12,6.12,0,0,0-3.08-.76,7.49,7.49,0,0,0-2.42.38,5.73,5.73,0,0,0-2,1.14,6.38,6.38,0,0,0-.71.75,6.83,6.83,0,0,0-.62.87h-3.84l1.38-16.25h16.82v3.7H330.11l-.86,8.92h.1a6.23,6.23,0,0,1,2.62-2.2,9,9,0,0,1,3.76-.77,9.46,9.46,0,0,1,4.79,1.2,8.8,8.8,0,0,1,3.29,3.29,9.46,9.46,0,0,1,1.2,4.79v0a9.49,9.49,0,0,1-1.33,5,9.15,9.15,0,0,1-3.66,3.42,12.33,12.33,0,0,1-10.37.17Z"/><path class="cls-6" d="M353.07,713.39a11.2,11.2,0,0,1-3.7-5,21,21,0,0,1-1.29-7.73v0a21.05,21.05,0,0,1,1.29-7.74,11.12,11.12,0,0,1,3.7-5,10.34,10.34,0,0,1,11.54,0,11.21,11.21,0,0,1,3.71,5,20.84,20.84,0,0,1,1.3,7.74v0a20.75,20.75,0,0,1-1.3,7.73,11.29,11.29,0,0,1-3.71,5,10.24,10.24,0,0,1-11.54,0Zm9.2-3.2a8.41,8.41,0,0,0,2.16-3.75,19.61,19.61,0,0,0,.76-5.82v0a19.45,19.45,0,0,0-.76-5.81,8.32,8.32,0,0,0-2.16-3.74,5.15,5.15,0,0,0-6.86,0,8.32,8.32,0,0,0-2.16,3.74,20.17,20.17,0,0,0-.74,5.81v0a20.34,20.34,0,0,0,.74,5.82,8.41,8.41,0,0,0,2.16,3.75,5.17,5.17,0,0,0,6.86,0Z"/><path class="cls-6" d="M373.41,694.15h4.26v3.18h.07a5.58,5.58,0,0,1,2.17-2.59,6.33,6.33,0,0,1,3.52-1,6.7,6.7,0,0,1,2.55.47,5.3,5.3,0,0,1,2,1.38,5.57,5.57,0,0,1,1.21,2.19h.1a6.33,6.33,0,0,1,1.47-2.15,6.45,6.45,0,0,1,2.21-1.4,7.4,7.4,0,0,1,2.73-.49,7,7,0,0,1,3.53.85,6.06,6.06,0,0,1,2.34,2.37,7.31,7.31,0,0,1,.84,3.58V714.7h-4.25V701.59a4.36,4.36,0,0,0-1-3.09,3.75,3.75,0,0,0-2.91-1.11,4.19,4.19,0,0,0-2.2.57,4,4,0,0,0-1.48,1.58,4.86,4.86,0,0,0-.54,2.31V714.7h-4.16V701.28a3.61,3.61,0,0,0-3.89-3.89,4,4,0,0,0-2.19.6,4.19,4.19,0,0,0-1.52,1.63,5.06,5.06,0,0,0-.54,2.38v12.7h-4.26Z"/><path class="cls-6" d="M406.42,694.15h4.25v3.18h.08a5.58,5.58,0,0,1,2.17-2.59,6.31,6.31,0,0,1,3.52-1,6.77,6.77,0,0,1,2.55.47,5.3,5.3,0,0,1,2,1.38,5.69,5.69,0,0,1,1.21,2.19h.1a6.33,6.33,0,0,1,1.47-2.15,6.45,6.45,0,0,1,2.21-1.4,7.38,7.38,0,0,1,2.72-.49,7,7,0,0,1,3.54.85,6.06,6.06,0,0,1,2.34,2.37,7.31,7.31,0,0,1,.84,3.58V714.7h-4.26V701.59a4.36,4.36,0,0,0-1-3.09,3.75,3.75,0,0,0-2.91-1.11,4.17,4.17,0,0,0-2.2.57,3.89,3.89,0,0,0-1.48,1.58,4.86,4.86,0,0,0-.54,2.31V714.7h-4.16V701.28a3.62,3.62,0,0,0-3.89-3.89,4,4,0,0,0-2.19.6,4.19,4.19,0,0,0-1.52,1.63,5.06,5.06,0,0,0-.55,2.38v12.7h-4.25Z"/><line class="cls-5" x1="778.58" y1="68.08" x2="634.04" y2="68.08"/><rect class="cls-6" x="776.08" y="51.83" width="5" height="32.5"/><rect class="cls-6" x="631.54" y="51.83" width="5" height="32.5"/><path class="cls-6" d="M648.9,23h-.1L641.44,28V23.88l7.42-5.28h4.34V46.79h-4.3Z"/><path class="cls-6" d="M664.63,46.25a8.69,8.69,0,0,1-3.56-2.79,7.87,7.87,0,0,1-1.51-4.09l0-.24h4.22l0,.22a4.22,4.22,0,0,0,1.85,3,8.11,8.11,0,0,0,7.28.61,4.82,4.82,0,0,0,2-1.65,4.1,4.1,0,0,0,.73-2.4v0A4.38,4.38,0,0,0,674,35.26,7,7,0,0,0,669.6,34h-3.44V30.54h3.31a6.49,6.49,0,0,0,2.82-.58,4.49,4.49,0,0,0,1.89-1.59,4.1,4.1,0,0,0,.68-2.32v0a4.5,4.5,0,0,0-.58-2.33,3.64,3.64,0,0,0-1.7-1.45,6.74,6.74,0,0,0-2.72-.5,7.11,7.11,0,0,0-2.78.51,4.59,4.59,0,0,0-1.93,1.46,4.48,4.48,0,0,0-.86,2.27l0,.19h-4.14l0-.21A8.14,8.14,0,0,1,665,19.1a11.58,11.58,0,0,1,4.86-1,12.14,12.14,0,0,1,4.9.92A7.7,7.7,0,0,1,678,21.63a6.47,6.47,0,0,1,1.15,3.81v0a6.07,6.07,0,0,1-.77,3.1,6.58,6.58,0,0,1-2.11,2.22,8.35,8.35,0,0,1-3,1.24v.1a8,8,0,0,1,5,2A6.28,6.28,0,0,1,680.11,39v0a7.29,7.29,0,0,1-1.31,4.27,8.67,8.67,0,0,1-3.6,2.93,12.48,12.48,0,0,1-5.3,1.06A12.87,12.87,0,0,1,664.63,46.25Z"/><path class="cls-6" d="M688.75,45.48a11.1,11.1,0,0,1-3.7-5,21,21,0,0,1-1.29-7.73v0a21.05,21.05,0,0,1,1.29-7.74,11.12,11.12,0,0,1,3.7-5,10.35,10.35,0,0,1,11.55,0,11.28,11.28,0,0,1,3.71,5,21,21,0,0,1,1.3,7.74v0a21,21,0,0,1-1.3,7.73,11.26,11.26,0,0,1-3.71,5,10.26,10.26,0,0,1-11.55,0Zm9.2-3.2a8.33,8.33,0,0,0,2.17-3.75,20,20,0,0,0,.75-5.82v0a19.8,19.8,0,0,0-.75-5.81A8.24,8.24,0,0,0,698,23.12a5.13,5.13,0,0,0-6.85,0,8.14,8.14,0,0,0-2.16,3.74,19.83,19.83,0,0,0-.74,5.81v0a20,20,0,0,0,.74,5.82,8.23,8.23,0,0,0,2.16,3.75,5.13,5.13,0,0,0,6.85,0Z"/><path class="cls-6" d="M709.09,26.24h4.26v3.19h.08a5.5,5.5,0,0,1,2.17-2.6,6.3,6.3,0,0,1,3.51-1,6.7,6.7,0,0,1,2.55.47,5.33,5.33,0,0,1,2,1.38,5.69,5.69,0,0,1,1.21,2.19h.09a6.52,6.52,0,0,1,3.69-3.55,7.35,7.35,0,0,1,2.72-.49,7.08,7.08,0,0,1,3.54.85,6.06,6.06,0,0,1,2.34,2.37,7.31,7.31,0,0,1,.84,3.58V46.79H733.8V33.68a4.41,4.41,0,0,0-1-3.09,3.75,3.75,0,0,0-2.91-1.11,4.17,4.17,0,0,0-2.2.57,4.05,4.05,0,0,0-1.49,1.58,5,5,0,0,0-.53,2.31V46.79H721.5V33.37a3.62,3.62,0,0,0-3.89-3.89,4.1,4.1,0,0,0-2.2.6,4.16,4.16,0,0,0-1.51,1.63,5,5,0,0,0-.55,2.38v12.7h-4.26Z"/><path class="cls-6" d="M742.1,26.24h4.26v3.19h.08a5.45,5.45,0,0,1,2.17-2.6,6.3,6.3,0,0,1,3.51-1,6.7,6.7,0,0,1,2.55.47,5.22,5.22,0,0,1,2,1.38,5.57,5.57,0,0,1,1.21,2.19h.1a6.55,6.55,0,0,1,3.68-3.55,7.4,7.4,0,0,1,2.73-.49,7,7,0,0,1,3.53.85,6,6,0,0,1,2.35,2.37,7.31,7.31,0,0,1,.84,3.58V46.79h-4.26V33.68a4.36,4.36,0,0,0-1-3.09,3.72,3.72,0,0,0-2.91-1.11,4.16,4.16,0,0,0-2.19.57,4,4,0,0,0-1.49,1.58,4.86,4.86,0,0,0-.54,2.31V46.79H754.5V33.37a3.61,3.61,0,0,0-3.88-3.89,4.1,4.1,0,0,0-2.2.6,4.16,4.16,0,0,0-1.51,1.63,5,5,0,0,0-.55,2.38v12.7H742.1Z"/><line class="cls-5" x1="71.41" y1="512.59" x2="71.41" y2="648.85"/><rect class="cls-6" x="55.16" y="510.09" width="32.5" height="5"/><rect class="cls-6" x="55.16" y="646.35" width="32.5" height="5"/><path class="cls-6" d="M22.29,638.13v.1l5.07,7.37H23.2l-5.27-7.43v-4.33H46.11v4.29Z"/><path class="cls-6" d="M45.58,622.4a8.6,8.6,0,0,1-2.8,3.57,7.91,7.91,0,0,1-4.09,1.5l-.23,0v-4.22l.21,0a4.21,4.21,0,0,0,3.06-1.84,8.07,8.07,0,0,0,.6-7.29,4.73,4.73,0,0,0-1.65-2,4.14,4.14,0,0,0-2.4-.72h0A4.4,4.4,0,0,0,34.58,613a7,7,0,0,0-1.28,4.43v3.44H29.86v-3.3a6.57,6.57,0,0,0-.57-2.82,4.61,4.61,0,0,0-1.59-1.9,4.13,4.13,0,0,0-2.33-.67h0a4.46,4.46,0,0,0-2.32.57,3.71,3.71,0,0,0-1.46,1.7,6.76,6.76,0,0,0-.49,2.73,7.28,7.28,0,0,0,.5,2.77A4.55,4.55,0,0,0,23,621.88a4.36,4.36,0,0,0,2.26.86l.2,0v4.14l-.22,0A8.11,8.11,0,0,1,18.43,622a11.41,11.41,0,0,1-1-4.85,12,12,0,0,1,.93-4.91A7.62,7.62,0,0,1,21,609a6.5,6.5,0,0,1,3.81-1.15h0a6.11,6.11,0,0,1,3.09.77,6.7,6.7,0,0,1,2.23,2.11,8.68,8.68,0,0,1,1.24,3.06h.1a7.94,7.94,0,0,1,2.05-5,6.25,6.25,0,0,1,4.76-1.9h0a7.32,7.32,0,0,1,4.28,1.31,8.7,8.7,0,0,1,2.93,3.61,12.6,12.6,0,0,1,1,5.3A12.82,12.82,0,0,1,45.58,622.4Z"/><path class="cls-6" d="M44.81,598.28a11.2,11.2,0,0,1-5,3.7A21.05,21.05,0,0,1,32,603.27h0A21,21,0,0,1,24.26,602a11.07,11.07,0,0,1-5-3.7,10.29,10.29,0,0,1,0-11.54,11.08,11.08,0,0,1,5-3.71,20.75,20.75,0,0,1,7.73-1.3h0a20.84,20.84,0,0,1,7.74,1.3,11.22,11.22,0,0,1,5,3.71,10.29,10.29,0,0,1,0,11.54Zm-3.21-9.2a8.41,8.41,0,0,0-3.75-2.17,19.87,19.87,0,0,0-5.82-.75h0a19.85,19.85,0,0,0-5.81.75,8.48,8.48,0,0,0-3.74,2.17,5.15,5.15,0,0,0,0,6.86,8.38,8.38,0,0,0,3.74,2.16,20.22,20.22,0,0,0,5.81.74h0a20.24,20.24,0,0,0,5.82-.74,8.3,8.3,0,0,0,3.75-2.16,5.15,5.15,0,0,0,0-6.86Z"/><path class="cls-6" d="M25.57,577.94v-4.26h3.18v-.08a5.53,5.53,0,0,1-2.6-2.16,6.35,6.35,0,0,1-1-3.52,6.51,6.51,0,0,1,.47-2.55,5.31,5.31,0,0,1,1.37-2,5.68,5.68,0,0,1,2.2-1.21v-.1a6.35,6.35,0,0,1-2.16-1.48,6.72,6.72,0,0,1-1.4-2.2,7.61,7.61,0,0,1-.48-2.73,7,7,0,0,1,.85-3.53,6,6,0,0,1,2.37-2.35A7.39,7.39,0,0,1,32,549H46.11v4.26H33a4.41,4.41,0,0,0-3.1,1,3.78,3.78,0,0,0-1.1,2.91,4.16,4.16,0,0,0,.57,2.19A3.85,3.85,0,0,0,31,560.84a4.82,4.82,0,0,0,2.3.54H46.11v4.16H32.7a3.59,3.59,0,0,0-3.89,3.88,4.08,4.08,0,0,0,.6,2.2A4,4,0,0,0,31,573.13a5,5,0,0,0,2.38.55H46.11v4.26Z"/><path class="cls-6" d="M25.57,544.93v-4.26h3.18v-.07a5.61,5.61,0,0,1-2.6-2.17,6.33,6.33,0,0,1-1-3.52,6.51,6.51,0,0,1,.47-2.55,5.39,5.39,0,0,1,1.37-2,5.68,5.68,0,0,1,2.2-1.21v-.1a6.47,6.47,0,0,1-2.16-1.47,6.76,6.76,0,0,1-1.4-2.21,7.59,7.59,0,0,1-.48-2.72,7,7,0,0,1,.85-3.54,5.93,5.93,0,0,1,2.37-2.34A7.27,7.27,0,0,1,32,516H46.11v4.25H33a4.41,4.41,0,0,0-3.1,1,3.78,3.78,0,0,0-1.1,2.91,4.19,4.19,0,0,0,.57,2.2A3.9,3.9,0,0,0,31,527.83a4.82,4.82,0,0,0,2.3.54H46.11v4.16H32.7a3.6,3.6,0,0,0-3.89,3.89,4,4,0,0,0,.6,2.19A4.12,4.12,0,0,0,31,540.13a5.06,5.06,0,0,0,2.38.54H46.11v4.26Z"/><line class="cls-5" x1="806.1" y1="234.69" x2="806.1" y2="512.94"/><rect class="cls-6" x="789.85" y="232.19" width="32.5" height="5"/><rect class="cls-6" x="789.85" y="510.44" width="32.5" height="5"/><path class="cls-6" d="M851.72,441.07l-10-9.94a39,39,0,0,0-3.12-2.87,8.66,8.66,0,0,0-2.22-1.35,6,6,0,0,0-2.08-.37h0a4.39,4.39,0,0,0-2.38.64,4.47,4.47,0,0,0-1.62,1.72,5.32,5.32,0,0,0-.59,2.54,6.14,6.14,0,0,0,.68,2.92,5.35,5.35,0,0,0,1.83,2,4.58,4.58,0,0,0,2.57.75l.14,0v4.14h-.14a8,8,0,0,1-4.49-1.29,8.77,8.77,0,0,1-3.09-3.53,11,11,0,0,1-1.11-5,10.72,10.72,0,0,1,1-4.82,8,8,0,0,1,2.84-3.27,7.32,7.32,0,0,1,4.1-1.19h0a8,8,0,0,1,3,.59,12.91,12.91,0,0,1,3.19,2c1.16.95,2.57,2.27,4.25,4l7.74,7.89-2.81-1.49h2.81L851,436.66V421.77h3.69v19.3Z"/><path class="cls-6" d="M854.16,413.22A9,9,0,0,1,851.3,417a6.85,6.85,0,0,1-4.21,1.37h0a6.88,6.88,0,0,1-3.25-.79,7.5,7.5,0,0,1-2.5-2.2,8.47,8.47,0,0,1-1.41-3.24h-.1a7.65,7.65,0,0,1-2.34,3.78,5.79,5.79,0,0,1-3.89,1.41h0a6.32,6.32,0,0,1-3.83-1.23,8.27,8.27,0,0,1-2.65-3.41,13.4,13.4,0,0,1,0-10,8.34,8.34,0,0,1,2.65-3.41,6.32,6.32,0,0,1,3.83-1.23h0a5.79,5.79,0,0,1,3.89,1.41,7.55,7.55,0,0,1,2.34,3.79h.1A8.31,8.31,0,0,1,841.3,400a7.58,7.58,0,0,1,2.5-2.19,6.76,6.76,0,0,1,3.25-.79h0a6.84,6.84,0,0,1,4.21,1.36,8.91,8.91,0,0,1,2.86,3.77,15.17,15.17,0,0,1,0,11ZM837.75,405a4.52,4.52,0,0,0-1.55-1.86,3.85,3.85,0,0,0-2.25-.67h0a3.91,3.91,0,0,0-2.27.67,4.58,4.58,0,0,0-1.53,1.87,6.4,6.4,0,0,0-.56,2.73,6.48,6.48,0,0,0,.56,2.76,4.55,4.55,0,0,0,1.53,1.86,3.92,3.92,0,0,0,2.27.68h0a3.86,3.86,0,0,0,2.25-.68,4.49,4.49,0,0,0,1.55-1.85,6.46,6.46,0,0,0,.55-2.77A6.38,6.38,0,0,0,837.75,405Zm13.31-.43a5.29,5.29,0,0,0-1.73-2.17,4.23,4.23,0,0,0-2.53-.79h0a4.32,4.32,0,0,0-2.54.78,5.35,5.35,0,0,0-1.75,2.17,7.65,7.65,0,0,0-.63,3.18,7.73,7.73,0,0,0,.63,3.21,5.32,5.32,0,0,0,1.75,2.16,4.26,4.26,0,0,0,2.54.79h0a4.23,4.23,0,0,0,2.53-.8,5.23,5.23,0,0,0,1.73-2.17,7.66,7.66,0,0,0,.62-3.19A7.57,7.57,0,0,0,851.06,404.52Z"/><path class="cls-6" d="M853.42,388.68a11.1,11.1,0,0,1-5,3.7,21,21,0,0,1-7.73,1.29h0a21.05,21.05,0,0,1-7.74-1.29,11,11,0,0,1-5-3.7,10.29,10.29,0,0,1,0-11.54,11.05,11.05,0,0,1,5-3.71,20.84,20.84,0,0,1,7.74-1.3h0a20.75,20.75,0,0,1,7.73,1.3,11.11,11.11,0,0,1,5,3.71,10.24,10.24,0,0,1,0,11.54Zm-3.2-9.2a8.31,8.31,0,0,0-3.75-2.17,20,20,0,0,0-5.82-.75h0a19.85,19.85,0,0,0-5.81.75,8.33,8.33,0,0,0-3.74,2.17,5.15,5.15,0,0,0,0,6.86,8.22,8.22,0,0,0,3.74,2.15,19.85,19.85,0,0,0,5.81.75h0a20,20,0,0,0,5.82-.75,8.21,8.21,0,0,0,3.75-2.15,5.15,5.15,0,0,0,0-6.86Z"/><path class="cls-6" d="M834.18,368.34v-4.26h3.19V364a5.49,5.49,0,0,1-2.6-2.17,6.3,6.3,0,0,1-1-3.51,6.7,6.7,0,0,1,.47-2.55,5.22,5.22,0,0,1,1.38-2,5.61,5.61,0,0,1,2.2-1.21v-.1a6.17,6.17,0,0,1-2.16-1.48,6.56,6.56,0,0,1-1.4-2.2,7.61,7.61,0,0,1-.49-2.73,7.12,7.12,0,0,1,.85-3.53,6,6,0,0,1,2.38-2.35,7.25,7.25,0,0,1,3.57-.84h14.14v4.26H841.62a4.38,4.38,0,0,0-3.09,1,3.72,3.72,0,0,0-1.1,2.91,4.15,4.15,0,0,0,.56,2.19,4,4,0,0,0,1.58,1.49,4.86,4.86,0,0,0,2.31.53h12.85v4.17H841.31a3.59,3.59,0,0,0-3.88,3.88A4.1,4.1,0,0,0,838,362a4.16,4.16,0,0,0,1.63,1.51,5,5,0,0,0,2.39.55h12.69v4.26Z"/><path class="cls-6" d="M834.18,335.33v-4.26h3.19V331a5.53,5.53,0,0,1-2.6-2.16,6.36,6.36,0,0,1-1-3.52,6.7,6.7,0,0,1,.47-2.55,5.3,5.3,0,0,1,1.38-2,5.61,5.61,0,0,1,2.2-1.21v-.1a6.28,6.28,0,0,1-2.16-1.47,6.7,6.7,0,0,1-1.4-2.21,7.61,7.61,0,0,1-.49-2.73,7.12,7.12,0,0,1,.85-3.53A6.11,6.11,0,0,1,837,307.2a7.36,7.36,0,0,1,3.57-.84h14.14v4.26H841.62a4.38,4.38,0,0,0-3.09,1,3.75,3.75,0,0,0-1.1,2.91,4.21,4.21,0,0,0,.56,2.2,4,4,0,0,0,1.58,1.48,4.86,4.86,0,0,0,2.31.54h12.85v4.16H841.31a3.59,3.59,0,0,0-3.88,3.88,4.06,4.06,0,0,0,2.22,3.71,5,5,0,0,0,2.39.55h12.69v4.26Z"/></svg>