<svg id="Ebene_1" data-name="Ebene 1" xmlns="http://www.w3.org/2000/svg" viewBox="0 0 1602.67 1556.35"><defs><style>.cls-1,.cls-10{fill:#68442a;}.cls-1,.cls-5,.cls-8{opacity:0.5;}.cls-2{fill:gray;}.cls-3{fill:#595959;}.cls-4{fill:#f6f6f6;}.cls-5{fill:#e8e8e8;}.cls-12,.cls-15,.cls-6,.cls-7{fill:none;stroke-miterlimit:10;}.cls-15,.cls-6{stroke:gray;}.cls-6{stroke-width:20px;}.cls-7{stroke:#f6f6f6;stroke-width:9.71px;}.cls-8,.cls-9{fill:#87603d;}.cls-11{fill:#ccc;}.cls-12{stroke:#454545;}.cls-12,.cls-15{stroke-width:5px;}.cls-13{fill:#454545;}.cls-14{fill:#a5a5a5;}.cls-15{stroke-dasharray:19.18;}</style></defs><rect class="cls-1" x="146.15" y="87.66" width="1020.37" height="98.92"/><rect class="cls-2" x="159.14" y="684.22" width="279.98" height="29.58" rx="3.55" transform="translate(598.25 1398.03) rotate(180)"/><rect class="cls-1" x="146.15" y="702.86" width="1027.73" height="684.56"/><rect class="cls-3" x="866.69" y="935.48" width="260" height="430" rx="50.9" transform="translate(1993.37 2300.96) rotate(180)"/><path class="cls-4" d="M940.72,1089.92h5.46v35.22h-5.46Zm5.12,16.84h.52l14.18-16.84H967l-13.59,15.91h-.69l-6.91,8Zm3.35,1.64,3.9-3.76,15.12,20.5h-6.79Z"/><path class="cls-4" d="M974.86,1124.5a7.62,7.62,0,0,1-3-3.31,11.49,11.49,0,0,1-1.05-5.1v-16.63h5.32v15.63a6.53,6.53,0,0,0,1.36,4.45,5.11,5.11,0,0,0,4.09,1.55,6.09,6.09,0,0,0,3.23-.83,5.44,5.44,0,0,0,2.12-2.33,7.69,7.69,0,0,0,.75-3.48v-15h5.3v25.68h-5.3v-3.85h-.12a8,8,0,0,1-3,3.16,9.23,9.23,0,0,1-4.89,1.21A9.4,9.4,0,0,1,974.86,1124.5Zm.16-29.79a2.8,2.8,0,0,1,0-4,2.92,2.92,0,0,1,4,0,2.84,2.84,0,0,1-4,4Zm9.64,0a2.8,2.8,0,0,1,0-4,2.92,2.92,0,0,1,4,0,2.82,2.82,0,0,1,0,4,2.9,2.9,0,0,1-4,0Z"/><path class="cls-4" d="M998.36,1089.92h5.3v13.77h.12a7.49,7.49,0,0,1,3-3.48,9.27,9.27,0,0,1,4.92-1.24,8.86,8.86,0,0,1,4.79,1.28,8.71,8.71,0,0,1,3.18,3.6,12.32,12.32,0,0,1,1.13,5.42v15.87h-5.3v-14.86a7.38,7.38,0,0,0-1.53-5,5.41,5.41,0,0,0-4.32-1.79,5.66,5.66,0,0,0-5.28,3.23,7.89,7.89,0,0,0-.75,3.54v14.86h-5.3Z"/><path class="cls-4" d="M1026.14,1089.92h5.3v35.22h-5.3Z"/><path class="cls-4" d="M1037.22,1108.44h15.7v4.82h-15.7Z"/><path class="cls-4" d="M917.36,1174.67a8.7,8.7,0,0,1-3.62-2.76,8.34,8.34,0,0,1-1.59-4.11l0-.22h5.22l0,.24a4.52,4.52,0,0,0,1.73,2.75,6.25,6.25,0,0,0,3.76,1,8.11,8.11,0,0,0,2.74-.41,3.78,3.78,0,0,0,1.73-1.16,2.74,2.74,0,0,0,.61-1.8v0a2.64,2.64,0,0,0-.8-2,6.7,6.7,0,0,0-2.89-1.27l-4.19-1a11.07,11.07,0,0,1-5.48-2.63,6.11,6.11,0,0,1-1.82-4.57v0a6.81,6.81,0,0,1,1.24-4.06,8,8,0,0,1,3.49-2.71,13,13,0,0,1,5.2-1,12.2,12.2,0,0,1,5.23,1,8.44,8.44,0,0,1,3.43,2.79,7.52,7.52,0,0,1,1.35,4v.29h-5l0-.17a4.12,4.12,0,0,0-1.51-2.75,5.39,5.39,0,0,0-3.52-1.06,6.82,6.82,0,0,0-2.46.41,3.57,3.57,0,0,0-1.61,1.19,2.92,2.92,0,0,0-.57,1.79v0a2.67,2.67,0,0,0,.88,2,6.42,6.42,0,0,0,2.93,1.29l4.2,1a11.52,11.52,0,0,1,5.58,2.55,6,6,0,0,1,1.65,4.43v0a6.67,6.67,0,0,1-1.34,4.12,8.89,8.89,0,0,1-3.7,2.79,13.81,13.81,0,0,1-5.39,1A14,14,0,0,1,917.36,1174.67Z"/><path class="cls-4" d="M942,1174a10.8,10.8,0,0,1-4.22-4.64,15.85,15.85,0,0,1-1.48-7.1v0a15.5,15.5,0,0,1,1.5-7,11,11,0,0,1,4.24-4.6,13.45,13.45,0,0,1,12.1-.37,10,10,0,0,1,3.77,3.33,9.72,9.72,0,0,1,1.59,4.49l0,.2h-5l-.05-.22a6.28,6.28,0,0,0-1.89-3.26,5.73,5.73,0,0,0-4.07-1.38,5.93,5.93,0,0,0-3.55,1.09,6.94,6.94,0,0,0-2.37,3.09,12.15,12.15,0,0,0-.84,4.73v0a12.07,12.07,0,0,0,.85,4.79,6.82,6.82,0,0,0,2.38,3,6.16,6.16,0,0,0,3.58,1,5.82,5.82,0,0,0,3.94-1.28,6.07,6.07,0,0,0,2-3.35l0-.2h5.07v.17a9.8,9.8,0,0,1-1.74,4.63,10.44,10.44,0,0,1-3.83,3.27,12.06,12.06,0,0,1-5.49,1.21A12.43,12.43,0,0,1,942,1174Z"/><path class="cls-4" d="M963.47,1139.92h5.3v13.77h.12a7.54,7.54,0,0,1,3-3.48,9.27,9.27,0,0,1,4.92-1.24,8.87,8.87,0,0,1,4.8,1.28,8.76,8.76,0,0,1,3.17,3.6,12.18,12.18,0,0,1,1.13,5.42v15.87h-5.29v-14.86a7.38,7.38,0,0,0-1.54-5,5.41,5.41,0,0,0-4.32-1.79,5.69,5.69,0,0,0-5.28,3.23,7.89,7.89,0,0,0-.75,3.54v14.86h-5.3Z"/><path class="cls-4" d="M991,1149.46h5.33v4.39h.09a6.79,6.79,0,0,1,2.18-3.57,5.67,5.67,0,0,1,3.76-1.31,8.55,8.55,0,0,1,1.06.06,6.45,6.45,0,0,1,.77.14v4.91a4.25,4.25,0,0,0-1-.21,10,10,0,0,0-1.41-.09,5.76,5.76,0,0,0-2.93.72,4.71,4.71,0,0,0-1.91,2.08,7.38,7.38,0,0,0-.65,3.26v15.3H991Z"/><path class="cls-4" d="M1010,1174.63a7.34,7.34,0,0,1-3-2.73,7.59,7.59,0,0,1-1.07-4.05v0a6.42,6.42,0,0,1,2.5-5.34,12.39,12.39,0,0,1,7-2.23l9.72-.59v3.71l-9,.56a6.55,6.55,0,0,0-3.65,1.14,3.15,3.15,0,0,0-1.28,2.62v0a3.16,3.16,0,0,0,1.28,2.66,5.48,5.48,0,0,0,3.41,1,7.16,7.16,0,0,0,3.33-.76,6,6,0,0,0,2.33-2.08,5.44,5.44,0,0,0,.85-3v-7.64a4.33,4.33,0,0,0-1.31-3.33,5.46,5.46,0,0,0-3.79-1.21,6.21,6.21,0,0,0-3.65,1,4.11,4.11,0,0,0-1.72,2.51l-.05.22h-5l0-.27a7.8,7.8,0,0,1,1.48-4,8.76,8.76,0,0,1,3.59-2.79,13.19,13.19,0,0,1,5.45-1,13,13,0,0,1,5.44,1,8.37,8.37,0,0,1,3.57,3,7.91,7.91,0,0,1,1.27,4.46v17.7h-5.33v-4.05h-.09a8.48,8.48,0,0,1-2,2.41,8.83,8.83,0,0,1-2.7,1.56,9.17,9.17,0,0,1-3.21.55A9.86,9.86,0,0,1,1010,1174.63Z"/><path class="cls-4" d="M1032.85,1149.46h5.33v3.88h.09a8.14,8.14,0,0,1,3-3.16,9.24,9.24,0,0,1,4.88-1.21,8.37,8.37,0,0,1,6.54,2.55,10,10,0,0,1,2.32,7v16.62h-5.3v-15.6a6.62,6.62,0,0,0-1.35-4.46,5.1,5.1,0,0,0-4.09-1.57,6.2,6.2,0,0,0-3.24.83,5.6,5.6,0,0,0-2.12,2.32,7.77,7.77,0,0,0-.74,3.52v15h-5.33Z"/><path class="cls-4" d="M1060.42,1139.92h5.3v35.22h-5.3Zm4.37,20.48h1l10.28-10.94h6.22l-12,12.65h-.81l-4.71,4.71Zm2.73,2.83,3.44-3.78,11.77,15.69h-6.13Z"/><rect class="cls-5" x="163.2" y="1117.36" width="400" height="130" rx="20.55" transform="translate(1545.56 819.15) rotate(90)"/><rect class="cls-5" x="24.95" y="1117.36" width="400" height="130" rx="20.55" transform="translate(1407.31 957.41) rotate(90)"/><rect class="cls-2" x="488.59" y="748.71" width="300" height="150" rx="32.29" transform="translate(1277.18 1647.41) rotate(180)"/><path class="cls-4" d="M577.52,797.88H583v35.23h-5.47Zm5.13,16.84h.51l14.19-16.84h6.49l-13.6,15.91h-.68l-6.91,8Zm3.34,1.64,3.91-3.76L605,833.11h-6.78Z"/><path class="cls-4" d="M610.93,832a11,11,0,0,1-4.26-4.62,15.55,15.55,0,0,1-1.51-7.12v0a15.28,15.28,0,0,1,1.53-7.08,10.9,10.9,0,0,1,4.27-4.59,12.33,12.33,0,0,1,6.38-1.62,12.57,12.57,0,0,1,6.41,1.6,10.94,10.94,0,0,1,4.27,4.58,15.41,15.41,0,0,1,1.53,7.11v0a15.41,15.41,0,0,1-1.53,7.13,11.05,11.05,0,0,1-4.26,4.61,12.29,12.29,0,0,1-6.39,1.62A12.45,12.45,0,0,1,610.93,832Zm10-3.87a6.82,6.82,0,0,0,2.35-3,12.63,12.63,0,0,0,.83-4.83v0a12.47,12.47,0,0,0-.83-4.8,6.58,6.58,0,0,0-2.37-3,6.26,6.26,0,0,0-3.59-1,6.11,6.11,0,0,0-3.55,1,6.84,6.84,0,0,0-2.38,3,12,12,0,0,0-.86,4.79v0a12.42,12.42,0,0,0,.85,4.83,6.74,6.74,0,0,0,2.38,3,6.24,6.24,0,0,0,3.61,1A6.06,6.06,0,0,0,621,828.13Z"/><path class="cls-4" d="M638.18,832a10.74,10.74,0,0,1-4.22-4.64,15.85,15.85,0,0,1-1.48-7.1v0a15.54,15.54,0,0,1,1.5-7.06,10.86,10.86,0,0,1,4.24-4.6,12.29,12.29,0,0,1,6.39-1.63,12.11,12.11,0,0,1,5.7,1.26,9.87,9.87,0,0,1,3.77,3.33,9.5,9.5,0,0,1,1.59,4.5l0,.19h-5.06l0-.22a6.15,6.15,0,0,0-1.89-3.26,5.71,5.71,0,0,0-4.06-1.38,6,6,0,0,0-3.56,1.09,7,7,0,0,0-2.36,3.09,12.15,12.15,0,0,0-.85,4.73v0a12.15,12.15,0,0,0,.86,4.8,6.87,6.87,0,0,0,2.38,3,6.16,6.16,0,0,0,3.58,1,5.84,5.84,0,0,0,3.94-1.29,6.13,6.13,0,0,0,2-3.35l0-.2h5.08v.17a9.9,9.9,0,0,1-1.74,4.63,10.39,10.39,0,0,1-3.84,3.27,11.86,11.86,0,0,1-5.48,1.21A12.43,12.43,0,0,1,638.18,832Z"/><path class="cls-4" d="M659.68,797.88H665v13.77h.13a7.49,7.49,0,0,1,3-3.48,9.3,9.3,0,0,1,4.91-1.24,8.79,8.79,0,0,1,4.8,1.29,8.59,8.59,0,0,1,3.18,3.6,12.26,12.26,0,0,1,1.13,5.42v15.87h-5.3V818.24a7.37,7.37,0,0,0-1.54-5,5.38,5.38,0,0,0-4.32-1.78,5.63,5.63,0,0,0-5.27,3.22,7.89,7.89,0,0,0-.76,3.54v14.87h-5.29Z"/><path class="cls-4" d="M691.74,832a10.7,10.7,0,0,1-4.17-4.62,15.92,15.92,0,0,1-1.45-7v0a15.84,15.84,0,0,1,1.46-7,11.09,11.09,0,0,1,4.13-4.68,11.43,11.43,0,0,1,6.25-1.68,11.66,11.66,0,0,1,6.21,1.6,10.66,10.66,0,0,1,4,4.52,15.4,15.4,0,0,1,1.41,6.77v1.79H688.73v-3.74H707l-2.61,3.49v-2.05a10.93,10.93,0,0,0-.82-4.5,5.88,5.88,0,0,0-2.27-2.68,6.42,6.42,0,0,0-3.36-.87,6,6,0,0,0-5.71,3.65,10.15,10.15,0,0,0-.86,4.4v2.05a9.86,9.86,0,0,0,.85,4.26,6.11,6.11,0,0,0,2.4,2.71,7,7,0,0,0,3.69.94,7.6,7.6,0,0,0,2.76-.47,5.91,5.91,0,0,0,2-1.27,4.63,4.63,0,0,0,1.11-1.77l.07-.2h5l0,.27a8.72,8.72,0,0,1-1.2,2.91,9.92,9.92,0,0,1-2.28,2.5,10.63,10.63,0,0,1-3.31,1.74,13.15,13.15,0,0,1-4.24.64A12.48,12.48,0,0,1,691.74,832Z"/><path class="cls-4" d="M713.63,807.42H719v4.4h.1a6.82,6.82,0,0,1,2.17-3.58,5.7,5.7,0,0,1,3.76-1.31,7,7,0,0,1,1.07.07,6.51,6.51,0,0,1,.76.13V812a4.76,4.76,0,0,0-.95-.21,10,10,0,0,0-1.41-.09,5.73,5.73,0,0,0-2.93.72,4.76,4.76,0,0,0-1.91,2.08,7.37,7.37,0,0,0-.66,3.26v15.31h-5.32Z"/><rect class="cls-2" x="390.51" y="591.28" width="21.36" height="102.5" transform="translate(802.37 1285.06) rotate(180)"/><rect class="cls-2" x="372.3" y="581.48" width="16.51" height="57.77" transform="translate(990.92 229.81) rotate(90)"/><rect class="cls-2" x="261.96" y="776.83" width="62.01" height="37.29" rx="8.7"/><path class="cls-2" d="M200.59,960.63h48.73a6.64,6.64,0,0,1,6.64,6.64v15.08a0,0,0,0,1,0,0h-62a0,0,0,0,1,0,0V967.27A6.64,6.64,0,0,1,200.59,960.63Z"/><path class="cls-4" d="M338.84,960.63h48.73a6.64,6.64,0,0,1,6.64,6.64v15.08a0,0,0,0,1,0,0h-62a0,0,0,0,1,0,0V967.27A6.64,6.64,0,0,1,338.84,960.63Z"/><path class="cls-6" d="M293,795.47s5.24,47.67-15.84,80.46c-8.39,13.87-51.52,45.33-52,84.7"/><path class="cls-7" d="M421.08,725.14s2,65.93-28.62,132.21c-37.62,76.39-29.26,121.3-29.26,121.3"/><rect class="cls-8" x="479.87" y="1027.68" width="699.64" height="20" transform="translate(1867.36 207.99) rotate(90)"/><rect class="cls-8" x="828.89" y="1042.68" width="670" height="20" transform="translate(2216.56 -111.21) rotate(90)"/><rect class="cls-8" x="98.83" y="1027.68" width="699.64" height="20" transform="translate(1486.33 589.03) rotate(90)"/><rect class="cls-9" x="146.38" y="687.86" width="1050.31" height="30"/><rect class="cls-8" x="854.69" y="1365.48" width="284.2" height="20" transform="translate(1993.57 2750.96) rotate(180)"/><rect class="cls-2" x="839.69" y="1367.85" width="15" height="15.25" transform="translate(1694.37 2750.96) rotate(180)"/><rect class="cls-9" x="854.69" y="753.47" width="284.2" height="30"/><rect class="cls-2" x="839.69" y="760.84" width="15" height="15.25" transform="translate(1694.37 1536.94) rotate(180)"/><rect class="cls-2" x="1138.89" y="760.84" width="15" height="15.25" transform="translate(2292.77 1536.94) rotate(180)"/><rect class="cls-2" x="1138.89" y="1367.85" width="15" height="15.25" transform="translate(2292.77 2750.96) rotate(180)"/><rect class="cls-8" x="711.48" y="1210.28" width="298.4" height="12" transform="translate(-355.59 2076.96) rotate(-90)"/><rect class="cls-8" x="983.48" y="1210.28" width="298.4" height="12" transform="translate(-83.59 2348.96) rotate(-90)"/><rect class="cls-8" x="854.69" y="898.38" width="284.2" height="12" transform="translate(1993.57 1808.76) rotate(180)"/><rect class="cls-2" x="839.69" y="830.75" width="15" height="15.25" transform="translate(1694.37 1676.76) rotate(180)"/><rect class="cls-2" x="1138.89" y="830.75" width="15" height="15.25" transform="translate(2292.77 1676.76) rotate(180)"/><rect class="cls-8" x="810.73" y="842.43" width="99.91" height="12" transform="translate(12.26 1709.11) rotate(-90)"/><rect class="cls-8" x="1082.93" y="842.43" width="99.91" height="12" transform="translate(284.46 1981.31) rotate(-90)"/><rect class="cls-8" x="472.49" y="898.38" width="332.19" height="12" transform="translate(1277.18 1808.76) rotate(180)"/><rect class="cls-2" x="457.49" y="830.75" width="15" height="15.25" transform="translate(929.99 1676.76) rotate(180)"/><rect class="cls-2" x="804.69" y="830.75" width="15" height="15.25" transform="translate(1624.37 1676.76) rotate(180)"/><rect class="cls-8" x="418.49" y="832.38" width="120" height="12" transform="translate(-359.89 1316.87) rotate(-90)"/><rect class="cls-8" x="738.69" y="832.38" width="120" height="12" transform="translate(-39.7 1637.07) rotate(-90)"/><rect class="cls-8" x="472.49" y="1054.65" width="332.19" height="12" transform="translate(1277.18 2121.31) rotate(180)"/><rect class="cls-2" x="457.49" y="987.03" width="15" height="15.25" transform="translate(929.99 1989.31) rotate(180)"/><rect class="cls-2" x="804.69" y="987.03" width="15" height="15.25" transform="translate(1624.37 1989.31) rotate(180)"/><rect class="cls-8" x="418.49" y="988.65" width="120" height="12" transform="translate(-516.16 1473.15) rotate(-90)"/><rect class="cls-8" x="738.69" y="988.65" width="120" height="12" transform="translate(-195.97 1793.34) rotate(-90)"/><rect class="cls-8" x="472.49" y="1362.81" width="332.19" height="12" transform="translate(1277.18 2737.62) rotate(180)"/><rect class="cls-2" x="457.49" y="1295.18" width="15" height="15.25" transform="translate(929.99 2605.62) rotate(180)"/><rect class="cls-2" x="804.69" y="1295.18" width="15" height="15.25" transform="translate(1624.37 2605.62) rotate(180)"/><rect class="cls-8" x="418.49" y="1296.81" width="120" height="12" transform="translate(-824.32 1781.31) rotate(-90)"/><rect class="cls-8" x="738.69" y="1296.81" width="120" height="12" transform="translate(-504.13 2101.5) rotate(-90)"/><rect class="cls-8" x="472.49" y="1209.44" width="332.19" height="12" transform="translate(1277.18 2430.88) rotate(180)"/><rect class="cls-2" x="457.49" y="1141.81" width="15" height="15.25" transform="translate(929.99 2298.88) rotate(180)"/><rect class="cls-2" x="804.69" y="1141.81" width="15" height="15.25" transform="translate(1624.37 2298.88) rotate(180)"/><rect class="cls-8" x="418.49" y="1143.44" width="120" height="12" transform="translate(-670.95 1627.93) rotate(-90)"/><rect class="cls-8" x="738.69" y="1143.44" width="120" height="12" transform="translate(-350.75 1948.12) rotate(-90)"/><rect class="cls-10" x="451.69" y="723.28" width="374.7" height="195.5"/><rect class="cls-11" x="634.05" y="771.03" width="10" height="100" transform="translate(-181.99 1460.08) rotate(-90)"/><rect class="cls-10" x="451.69" y="922.05" width="374.7" height="154.61"/><rect class="cls-11" x="634.05" y="949.35" width="10" height="100" transform="translate(-360.3 1638.4) rotate(-90)"/><rect class="cls-10" x="451.69" y="1236.99" width="374.7" height="149.17"/><rect class="cls-11" x="634.05" y="1261.58" width="10" height="100" transform="translate(-672.53 1950.63) rotate(-90)"/><rect class="cls-10" x="451.69" y="1080.85" width="374.7" height="149.17"/><rect class="cls-11" x="634.05" y="1105.44" width="10" height="100" transform="translate(-516.39 1794.49) rotate(-90)"/><rect class="cls-10" x="833" y="922.05" width="340.89" height="461.35"/><rect class="cls-11" x="998.44" y="949.35" width="10" height="100" transform="translate(2002.79 -4.09) rotate(90)"/><rect class="cls-10" x="833.81" y="723.28" width="340.9" height="25"/><rect class="cls-10" x="833.81" y="752.83" width="340.9" height="30.91"/><rect class="cls-10" x="833.81" y="788.78" width="340.9" height="130"/><rect class="cls-11" x="1000.2" y="790.28" width="8.12" height="100" transform="translate(163.98 1844.53) rotate(-90)"/><line class="cls-12" x1="1172.12" y1="1409.05" x2="142.66" y2="1409.05"/><rect class="cls-13" x="1169.62" y="1392.8" width="5" height="32.5"/><rect class="cls-13" x="140.16" y="1392.8" width="5" height="32.5"/><path class="cls-13" d="M590.84,1428.33h-.1l-7.37,5.08v-4.16l7.43-5.27h4.33v28.18h-4.29Z"/><path class="cls-13" d="M609.12,1428.33H609l-7.36,5.08v-4.16l7.42-5.27h4.33v28.18h-4.29Z"/><path class="cls-13" d="M624.85,1451.62a8.79,8.79,0,0,1-3.57-2.79,7.94,7.94,0,0,1-1.5-4.09l0-.24H624l0,.22a4.19,4.19,0,0,0,1.85,3.06,7.07,7.07,0,0,0,4.26,1.2,7.14,7.14,0,0,0,3-.6,4.82,4.82,0,0,0,2-1.65,4.14,4.14,0,0,0,.72-2.4v0a4.38,4.38,0,0,0-1.62-3.66,6.91,6.91,0,0,0-4.43-1.28h-3.44v-3.44h3.3a6.5,6.5,0,0,0,2.83-.58,4.49,4.49,0,0,0,1.89-1.59,4.07,4.07,0,0,0,.67-2.32v0a4.43,4.43,0,0,0-.57-2.32,3.65,3.65,0,0,0-1.7-1.46,6.76,6.76,0,0,0-2.73-.5,7.09,7.09,0,0,0-2.77.51,4.61,4.61,0,0,0-1.93,1.46,4.4,4.4,0,0,0-.86,2.27l0,.2h-4.14l0-.22a8.11,8.11,0,0,1,4.85-6.84,11.41,11.41,0,0,1,4.85-1,12,12,0,0,1,4.91.93,7.6,7.6,0,0,1,3.24,2.56,6.47,6.47,0,0,1,1.15,3.81v0a6.14,6.14,0,0,1-.77,3.1,6.67,6.67,0,0,1-2.11,2.22,8.33,8.33,0,0,1-3.06,1.24v.1a7.94,7.94,0,0,1,5,2,6.25,6.25,0,0,1,1.9,4.77v0a7.29,7.29,0,0,1-1.31,4.27,8.67,8.67,0,0,1-3.6,2.93,12.52,12.52,0,0,1-5.31,1.06A12.82,12.82,0,0,1,624.85,1451.62Z"/><path class="cls-13" d="M649,1450.85a11.1,11.1,0,0,1-3.7-5,21,21,0,0,1-1.29-7.73v0a21,21,0,0,1,1.29-7.73,11,11,0,0,1,3.7-5,10.29,10.29,0,0,1,11.54,0,11,11,0,0,1,3.71,5,20.75,20.75,0,0,1,1.3,7.73v0a20.75,20.75,0,0,1-1.3,7.73,11.11,11.11,0,0,1-3.71,5,10.24,10.24,0,0,1-11.54,0Zm9.2-3.2a8.31,8.31,0,0,0,2.17-3.75,20,20,0,0,0,.75-5.82v0a19.85,19.85,0,0,0-.75-5.81,8.33,8.33,0,0,0-2.17-3.74,5.15,5.15,0,0,0-6.86,0,8.22,8.22,0,0,0-2.15,3.74,19.85,19.85,0,0,0-.75,5.81v0a20,20,0,0,0,.75,5.82,8.21,8.21,0,0,0,2.15,3.75,5.15,5.15,0,0,0,6.86,0Z"/><path class="cls-13" d="M669.31,1431.61h4.26v3.19h.08a5.49,5.49,0,0,1,2.17-2.6,6.3,6.3,0,0,1,3.51-1,6.7,6.7,0,0,1,2.55.47,5.22,5.22,0,0,1,2,1.38,5.61,5.61,0,0,1,1.21,2.2h.1a6.17,6.17,0,0,1,1.48-2.16,6.56,6.56,0,0,1,2.2-1.4,7.61,7.61,0,0,1,2.73-.49,7.12,7.12,0,0,1,3.53.85,6,6,0,0,1,2.35,2.38,7.25,7.25,0,0,1,.84,3.57v14.14H694v-13.1a4.39,4.39,0,0,0-1-3.1,3.72,3.72,0,0,0-2.91-1.1,4.15,4.15,0,0,0-2.19.56,4,4,0,0,0-1.49,1.58,4.86,4.86,0,0,0-.54,2.31v12.85h-4.16v-13.42a3.86,3.86,0,0,0-1-2.84,3.82,3.82,0,0,0-2.84-1,4.1,4.1,0,0,0-2.2.59,4.16,4.16,0,0,0-1.51,1.63,5,5,0,0,0-.55,2.39v12.69h-4.26Z"/><path class="cls-13" d="M702.32,1431.61h4.26v3.19h.08a5.53,5.53,0,0,1,2.16-2.6,6.36,6.36,0,0,1,3.52-1,6.7,6.7,0,0,1,2.55.47,5.3,5.3,0,0,1,2,1.38,5.61,5.61,0,0,1,1.21,2.2h.1a6.28,6.28,0,0,1,1.47-2.16,6.7,6.7,0,0,1,2.21-1.4,7.61,7.61,0,0,1,2.73-.49,7.12,7.12,0,0,1,3.53.85,6.11,6.11,0,0,1,2.35,2.38,7.36,7.36,0,0,1,.83,3.57v14.14H727v-13.1a4.39,4.39,0,0,0-1-3.1,3.75,3.75,0,0,0-2.91-1.1,4.19,4.19,0,0,0-2.2.56,4,4,0,0,0-1.48,1.58,4.86,4.86,0,0,0-.54,2.31v12.85h-4.16v-13.42a3.59,3.59,0,0,0-3.88-3.88,4.07,4.07,0,0,0-2.2.59,4.19,4.19,0,0,0-1.52,1.63,5.1,5.1,0,0,0-.54,2.39v12.69h-4.26Z"/><line class="cls-12" x1="448" y1="1473.13" x2="142.66" y2="1473.13"/><rect class="cls-13" x="445.5" y="1456.88" width="5" height="32.5"/><rect class="cls-13" x="140.16" y="1456.88" width="5" height="32.5"/><path class="cls-13" d="M233.54,1516.05a8.69,8.69,0,0,1-3.56-2.79,8,8,0,0,1-1.51-4.09l0-.24h4.22l0,.22a4.21,4.21,0,0,0,1.85,3,7,7,0,0,0,4.27,1.21,7.09,7.09,0,0,0,3-.6,4.91,4.91,0,0,0,2-1.65,4.14,4.14,0,0,0,.72-2.4v0a4.38,4.38,0,0,0-1.62-3.66,6.94,6.94,0,0,0-4.44-1.28h-3.43v-3.44h3.3a6.49,6.49,0,0,0,2.82-.58,4.49,4.49,0,0,0,1.89-1.59,4.1,4.1,0,0,0,.68-2.32v0a4.5,4.5,0,0,0-.58-2.33,3.64,3.64,0,0,0-1.7-1.45,6.74,6.74,0,0,0-2.72-.5,7.14,7.14,0,0,0-2.78.51,4.68,4.68,0,0,0-1.93,1.46,4.48,4.48,0,0,0-.86,2.27l0,.19H229l0-.21a8.14,8.14,0,0,1,4.85-6.85,11.58,11.58,0,0,1,4.86-1,12.14,12.14,0,0,1,4.9.92,7.7,7.7,0,0,1,3.24,2.57,6.47,6.47,0,0,1,1.15,3.81v0a6.07,6.07,0,0,1-.77,3.1,6.58,6.58,0,0,1-2.11,2.22,8.35,8.35,0,0,1-3.05,1.24v.1a8,8,0,0,1,5,2,6.28,6.28,0,0,1,1.89,4.77v0a7.29,7.29,0,0,1-1.31,4.27,8.67,8.67,0,0,1-3.6,2.93,12.48,12.48,0,0,1-5.3,1.06A12.87,12.87,0,0,1,233.54,1516.05Z"/><path class="cls-13" d="M267.26,1492.19v-.09H252.38v-3.69H271.6v3.8l-12.27,24.38h-4.59Z"/><path class="cls-13" d="M279.6,1515.28a11.1,11.1,0,0,1-3.7-5,21,21,0,0,1-1.29-7.73v0a21.05,21.05,0,0,1,1.29-7.74,11.12,11.12,0,0,1,3.7-5,10.34,10.34,0,0,1,11.54,0,11.14,11.14,0,0,1,3.71,5,20.84,20.84,0,0,1,1.3,7.74v0a20.75,20.75,0,0,1-1.3,7.73,11.11,11.11,0,0,1-3.71,5,10.24,10.24,0,0,1-11.54,0Zm9.2-3.2a8.3,8.3,0,0,0,2.16-3.75,19.61,19.61,0,0,0,.76-5.82v0a19.49,19.49,0,0,0-.76-5.81,8.32,8.32,0,0,0-2.16-3.74,5.15,5.15,0,0,0-6.86,0,8.32,8.32,0,0,0-2.16,3.74,20.22,20.22,0,0,0-.74,5.81v0a20.34,20.34,0,0,0,.74,5.82,8.3,8.3,0,0,0,2.16,3.75,5.15,5.15,0,0,0,6.86,0Z"/><path class="cls-13" d="M299.94,1496h4.26v3.19h.08a5.53,5.53,0,0,1,2.16-2.6,6.36,6.36,0,0,1,3.52-1,6.7,6.7,0,0,1,2.55.47,5.3,5.3,0,0,1,2,1.38,5.64,5.64,0,0,1,1.21,2.19h.1a6.33,6.33,0,0,1,1.47-2.15,6.6,6.6,0,0,1,2.21-1.4,7.4,7.4,0,0,1,2.73-.49,7.12,7.12,0,0,1,3.53.85,6.06,6.06,0,0,1,2.34,2.37,7.31,7.31,0,0,1,.84,3.58v14.14h-4.25v-13.11a4.38,4.38,0,0,0-1-3.09,3.75,3.75,0,0,0-2.91-1.11,4.19,4.19,0,0,0-2.2.57,4,4,0,0,0-1.48,1.58,4.86,4.86,0,0,0-.54,2.31v12.85h-4.16v-13.42a3.61,3.61,0,0,0-3.89-3.89,4,4,0,0,0-2.19.6,4.19,4.19,0,0,0-1.52,1.63,5.09,5.09,0,0,0-.54,2.38v12.7h-4.26Z"/><path class="cls-13" d="M333,1496h4.25v3.19h.08a5.61,5.61,0,0,1,2.17-2.6,6.31,6.31,0,0,1,3.52-1,6.77,6.77,0,0,1,2.55.47,5.3,5.3,0,0,1,2,1.38,5.64,5.64,0,0,1,1.21,2.19h.1a6.33,6.33,0,0,1,1.47-2.15,6.6,6.6,0,0,1,2.21-1.4,7.38,7.38,0,0,1,2.72-.49,7.13,7.13,0,0,1,3.54.85,6.06,6.06,0,0,1,2.34,2.37,7.31,7.31,0,0,1,.84,3.58v14.14h-4.26v-13.11a4.38,4.38,0,0,0-1-3.09,3.75,3.75,0,0,0-2.91-1.11,4.17,4.17,0,0,0-2.2.57,4,4,0,0,0-1.48,1.58,4.86,4.86,0,0,0-.54,2.31v12.85h-4.16v-13.42a3.62,3.62,0,0,0-3.89-3.89,4,4,0,0,0-2.19.6,4.19,4.19,0,0,0-1.52,1.63,5.09,5.09,0,0,0-.55,2.38v12.7H333Z"/><line class="cls-12" x1="827.89" y1="1473.13" x2="448.53" y2="1473.13"/><rect class="cls-13" x="825.39" y="1456.88" width="5" height="32.5"/><rect class="cls-13" x="446.03" y="1456.88" width="5" height="32.5"/><path class="cls-13" d="M583.42,1511h-14.1v-3.82q1.18-1.87,2.39-3.75l2.4-3.75c.81-1.25,1.6-2.5,2.4-3.75s1.59-2.5,2.39-3.75,1.6-2.5,2.39-3.75h6.33v18.88h3.91V1511h-3.91v5.61h-4.2Zm0-3.61v-15.49h-.12c-.66,1-1.32,2.06-2,3.08l-2,3.06-2,3.08-2,3.08c-.65,1-1.31,2-2,3.07v.12Z"/><path class="cls-13" d="M599.31,1515.28a11.1,11.1,0,0,1-3.7-5,21,21,0,0,1-1.29-7.73v0a21.05,21.05,0,0,1,1.29-7.74,11.12,11.12,0,0,1,3.7-5,10.34,10.34,0,0,1,11.54,0,11.14,11.14,0,0,1,3.71,5,20.84,20.84,0,0,1,1.3,7.74v0a20.75,20.75,0,0,1-1.3,7.73,11.11,11.11,0,0,1-3.71,5,10.24,10.24,0,0,1-11.54,0Zm9.2-3.2a8.31,8.31,0,0,0,2.17-3.75,20,20,0,0,0,.75-5.82v0a19.85,19.85,0,0,0-.75-5.81,8.33,8.33,0,0,0-2.17-3.74,5.15,5.15,0,0,0-6.86,0,8.22,8.22,0,0,0-2.15,3.74,19.85,19.85,0,0,0-.75,5.81v0a20,20,0,0,0,.75,5.82,8.21,8.21,0,0,0,2.15,3.75,5.15,5.15,0,0,0,6.86,0Z"/><path class="cls-13" d="M624.29,1515.28a11.1,11.1,0,0,1-3.7-5,21,21,0,0,1-1.29-7.73v0a21.05,21.05,0,0,1,1.29-7.74,11.12,11.12,0,0,1,3.7-5,10.34,10.34,0,0,1,11.54,0,11.14,11.14,0,0,1,3.71,5,20.84,20.84,0,0,1,1.3,7.74v0a20.75,20.75,0,0,1-1.3,7.73,11.11,11.11,0,0,1-3.71,5,10.24,10.24,0,0,1-11.54,0Zm9.2-3.2a8.31,8.31,0,0,0,2.17-3.75,20,20,0,0,0,.75-5.82v0a19.85,19.85,0,0,0-.75-5.81,8.33,8.33,0,0,0-2.17-3.74,5.15,5.15,0,0,0-6.86,0,8.22,8.22,0,0,0-2.15,3.74,19.85,19.85,0,0,0-.75,5.81v0a20,20,0,0,0,.75,5.82,8.21,8.21,0,0,0,2.15,3.75,5.15,5.15,0,0,0,6.86,0Z"/><path class="cls-13" d="M644.63,1496h4.26v3.19H649a5.49,5.49,0,0,1,2.17-2.6,6.3,6.3,0,0,1,3.51-1,6.7,6.7,0,0,1,2.55.47,5.22,5.22,0,0,1,2,1.38,5.64,5.64,0,0,1,1.21,2.19h.1a6.36,6.36,0,0,1,1.48-2.15,6.56,6.56,0,0,1,2.2-1.4,7.4,7.4,0,0,1,2.73-.49,7.12,7.12,0,0,1,3.53.85,6,6,0,0,1,2.35,2.37,7.31,7.31,0,0,1,.84,3.58v14.14h-4.26v-13.11a4.38,4.38,0,0,0-1-3.09,3.72,3.72,0,0,0-2.91-1.11,4.16,4.16,0,0,0-2.19.57,4,4,0,0,0-1.49,1.58,4.86,4.86,0,0,0-.53,2.31v12.85H657v-13.42a3.61,3.61,0,0,0-3.88-3.89,4.1,4.1,0,0,0-2.2.6,4.16,4.16,0,0,0-1.51,1.63,5,5,0,0,0-.55,2.38v12.7h-4.26Z"/><path class="cls-13" d="M677.64,1496h4.26v3.19H682a5.53,5.53,0,0,1,2.16-2.6,6.36,6.36,0,0,1,3.52-1,6.7,6.7,0,0,1,2.55.47,5.3,5.3,0,0,1,2,1.38,5.64,5.64,0,0,1,1.21,2.19h.1a6.33,6.33,0,0,1,1.47-2.15,6.7,6.7,0,0,1,2.21-1.4,7.4,7.4,0,0,1,2.73-.49,7.12,7.12,0,0,1,3.53.85,6.15,6.15,0,0,1,2.35,2.37,7.43,7.43,0,0,1,.84,3.58v14.14h-4.26v-13.11a4.38,4.38,0,0,0-1-3.09,3.75,3.75,0,0,0-2.91-1.11,4.22,4.22,0,0,0-2.2.57,4,4,0,0,0-1.48,1.58,4.86,4.86,0,0,0-.54,2.31v12.85H690v-13.42a3.61,3.61,0,0,0-3.88-3.89,4.09,4.09,0,0,0-3.71,2.23,5,5,0,0,0-.55,2.38v12.7h-4.26Z"/><line class="cls-12" x1="1172.63" y1="1473.13" x2="827.61" y2="1473.13"/><rect class="cls-13" x="1170.13" y="1456.88" width="5" height="32.5"/><rect class="cls-13" x="825.11" y="1456.88" width="5" height="32.5"/><path class="cls-13" d="M936.7,1516.05a8.79,8.79,0,0,1-3.57-2.79,7.94,7.94,0,0,1-1.5-4.09l0-.24h4.22l0,.22a4.21,4.21,0,0,0,1.85,3,7,7,0,0,0,4.26,1.21,7.14,7.14,0,0,0,3-.6,4.82,4.82,0,0,0,2-1.65,4.14,4.14,0,0,0,.72-2.4v0a4.38,4.38,0,0,0-1.62-3.66,6.93,6.93,0,0,0-4.43-1.28h-3.44v-3.44h3.3a6.5,6.5,0,0,0,2.83-.58,4.49,4.49,0,0,0,1.89-1.59,4.1,4.1,0,0,0,.67-2.32v0a4.5,4.5,0,0,0-.57-2.33,3.69,3.69,0,0,0-1.7-1.45,6.76,6.76,0,0,0-2.73-.5,7.09,7.09,0,0,0-2.77.51,4.61,4.61,0,0,0-1.93,1.46,4.48,4.48,0,0,0-.86,2.27l0,.19H932.2l0-.21a8.26,8.26,0,0,1,1.49-4.12,8.4,8.4,0,0,1,3.36-2.73,11.57,11.57,0,0,1,4.85-1,12.19,12.19,0,0,1,4.91.92,7.7,7.7,0,0,1,3.24,2.57,6.47,6.47,0,0,1,1.15,3.81v0a6.17,6.17,0,0,1-.77,3.1,6.58,6.58,0,0,1-2.11,2.22,8.33,8.33,0,0,1-3.06,1.24v.1a7.94,7.94,0,0,1,5,2,6.25,6.25,0,0,1,1.9,4.77v0a7.29,7.29,0,0,1-1.31,4.27,8.67,8.67,0,0,1-3.6,2.93,12.49,12.49,0,0,1-5.31,1.06A12.82,12.82,0,0,1,936.7,1516.05Z"/><path class="cls-13" d="M962.75,1516.27a9.91,9.91,0,0,1-3.55-2.48,11.87,11.87,0,0,1-2.47-4.38,20.54,20.54,0,0,1-.9-6.49v0a21.79,21.79,0,0,1,1.34-8.06,11.07,11.07,0,0,1,3.86-5.12,10.37,10.37,0,0,1,6.05-1.76,11,11,0,0,1,4.54.89,9.08,9.08,0,0,1,3.37,2.49,8.29,8.29,0,0,1,1.8,3.69l0,.23h-4.4l-.08-.19a4.74,4.74,0,0,0-1.11-1.83,5,5,0,0,0-1.8-1.19,6.42,6.42,0,0,0-2.4-.42,5.53,5.53,0,0,0-3.92,1.41,8.43,8.43,0,0,0-2.24,3.72,18.49,18.49,0,0,0-.81,5.12c0,.15,0,.29,0,.44v.46l.84,4.65a5.89,5.89,0,0,0,2.94,5.17,6.05,6.05,0,0,0,8.21-2.1,5.7,5.7,0,0,0,.8-3v0a5.86,5.86,0,0,0-.76-3,5.5,5.5,0,0,0-2.11-2.06,6.16,6.16,0,0,0-3.05-.75,6.42,6.42,0,0,0-3.07.74,5.68,5.68,0,0,0-2.17,2,5.56,5.56,0,0,0-.79,3v0h-1.17v-4.79h.41a6.78,6.78,0,0,1,1.68-2.29,8.33,8.33,0,0,1,2.65-1.63,10.17,10.17,0,0,1,8.26.59,8.88,8.88,0,0,1,3.3,3.31,9.39,9.39,0,0,1,1.2,4.75v0a9.34,9.34,0,0,1-1.34,5,9.45,9.45,0,0,1-3.66,3.43,11.06,11.06,0,0,1-5.3,1.25A11.36,11.36,0,0,1,962.75,1516.27Z"/><path class="cls-13" d="M986,1515.28a11.11,11.11,0,0,1-3.71-5,21,21,0,0,1-1.28-7.73v0a21.06,21.06,0,0,1,1.28-7.74,11.14,11.14,0,0,1,3.71-5,10.34,10.34,0,0,1,11.54,0,11.21,11.21,0,0,1,3.71,5,20.84,20.84,0,0,1,1.3,7.74v0a20.75,20.75,0,0,1-1.3,7.73,11.18,11.18,0,0,1-3.71,5,10.24,10.24,0,0,1-11.54,0Zm9.19-3.2a8.23,8.23,0,0,0,2.17-3.75,20,20,0,0,0,.75-5.82v0a19.85,19.85,0,0,0-.75-5.81,8.24,8.24,0,0,0-2.17-3.74,5.13,5.13,0,0,0-6.85,0,8.32,8.32,0,0,0-2.16,3.74,20.22,20.22,0,0,0-.74,5.81v0a20.34,20.34,0,0,0,.74,5.82,8.3,8.3,0,0,0,2.16,3.75,5.13,5.13,0,0,0,6.85,0Z"/><path class="cls-13" d="M1006.36,1496h4.25v3.19h.08a5.61,5.61,0,0,1,2.17-2.6,6.33,6.33,0,0,1,3.52-1,6.77,6.77,0,0,1,2.55.47,5.3,5.3,0,0,1,2,1.38,5.64,5.64,0,0,1,1.21,2.19h.1a6.33,6.33,0,0,1,1.47-2.15,6.6,6.6,0,0,1,2.21-1.4,7.38,7.38,0,0,1,2.72-.49,7.13,7.13,0,0,1,3.54.85,6.06,6.06,0,0,1,2.34,2.37,7.31,7.31,0,0,1,.84,3.58v14.14h-4.26v-13.11a4.38,4.38,0,0,0-1-3.09,3.75,3.75,0,0,0-2.91-1.11,4.19,4.19,0,0,0-2.2.57,4,4,0,0,0-1.48,1.58,4.86,4.86,0,0,0-.54,2.31v12.85h-4.16v-13.42a3.62,3.62,0,0,0-3.89-3.89,4,4,0,0,0-2.19.6,4.19,4.19,0,0,0-1.52,1.63,5.09,5.09,0,0,0-.55,2.38v12.7h-4.25Z"/><path class="cls-13" d="M1039.36,1496h4.26v3.19h.08a5.55,5.55,0,0,1,2.17-2.6,6.3,6.3,0,0,1,3.51-1,6.7,6.7,0,0,1,2.55.47,5.25,5.25,0,0,1,2,1.38,5.77,5.77,0,0,1,1.21,2.19h.09a6.5,6.5,0,0,1,1.48-2.15,6.6,6.6,0,0,1,2.21-1.4,7.35,7.35,0,0,1,2.72-.49,7.16,7.16,0,0,1,3.54.85,6.06,6.06,0,0,1,2.34,2.37,7.31,7.31,0,0,1,.84,3.58v14.14h-4.26v-13.11a4.42,4.42,0,0,0-1-3.09,3.75,3.75,0,0,0-2.91-1.11,4.17,4.17,0,0,0-2.2.57,4.05,4.05,0,0,0-1.49,1.58,5,5,0,0,0-.53,2.31v12.85h-4.16v-13.42a3.62,3.62,0,0,0-3.89-3.89,4.1,4.1,0,0,0-2.2.6,4.16,4.16,0,0,0-1.51,1.63,5.09,5.09,0,0,0-.55,2.38v12.7h-4.26Z"/><line class="cls-12" x1="1049.98" y1="477.26" x2="682.77" y2="477.26"/><rect class="cls-13" x="1047.48" y="461.01" width="5" height="32.5"/><rect class="cls-13" x="680.27" y="461.01" width="5" height="32.5"/><path class="cls-13" d="M803.2,516.57a8.69,8.69,0,0,1-3.56-2.79,8,8,0,0,1-1.51-4.09l0-.24h4.22l0,.22a4.24,4.24,0,0,0,1.85,3.06,8.05,8.05,0,0,0,7.28.6,4.82,4.82,0,0,0,2-1.65,4.08,4.08,0,0,0,.73-2.4v0a4.38,4.38,0,0,0-1.62-3.66,6.94,6.94,0,0,0-4.44-1.28h-3.43v-3.44H808a6.49,6.49,0,0,0,2.82-.58,4.49,4.49,0,0,0,1.89-1.59,4.08,4.08,0,0,0,.68-2.32v0a4.5,4.5,0,0,0-.58-2.33,3.64,3.64,0,0,0-1.7-1.45,6.74,6.74,0,0,0-2.72-.5,7.11,7.11,0,0,0-2.78.51,4.68,4.68,0,0,0-1.93,1.46,4.48,4.48,0,0,0-.86,2.27l0,.19H798.7l0-.21a8.14,8.14,0,0,1,4.85-6.85,11.58,11.58,0,0,1,4.86-1,12,12,0,0,1,4.9.93,7.6,7.6,0,0,1,3.24,2.56,6.47,6.47,0,0,1,1.15,3.81v0a6,6,0,0,1-.77,3.1,6.58,6.58,0,0,1-2.11,2.22,8.35,8.35,0,0,1-3.05,1.24v.1a8,8,0,0,1,5,2.05,6.28,6.28,0,0,1,1.89,4.77v0a7.29,7.29,0,0,1-1.31,4.27,8.67,8.67,0,0,1-3.6,2.93,12.48,12.48,0,0,1-5.3,1.06A12.87,12.87,0,0,1,803.2,516.57Z"/><path class="cls-13" d="M827.49,516.54a9,9,0,0,1-3.77-2.86,6.85,6.85,0,0,1-1.37-4.21v0a6.88,6.88,0,0,1,.79-3.25,7.5,7.5,0,0,1,2.2-2.5,8.47,8.47,0,0,1,3.24-1.41v-.1a7.65,7.65,0,0,1-3.78-2.34,5.79,5.79,0,0,1-1.41-3.89v0a6.32,6.32,0,0,1,1.23-3.83,8.27,8.27,0,0,1,3.41-2.65,13.4,13.4,0,0,1,10,0,8.4,8.4,0,0,1,3.41,2.65,6.32,6.32,0,0,1,1.23,3.83v0a5.79,5.79,0,0,1-1.41,3.89,7.55,7.55,0,0,1-3.79,2.34v.1a8.31,8.31,0,0,1,3.25,1.41,7.58,7.58,0,0,1,2.19,2.5,6.76,6.76,0,0,1,.79,3.25v0a6.84,6.84,0,0,1-1.36,4.21,8.91,8.91,0,0,1-3.77,2.86,15.17,15.17,0,0,1-11,0Zm8.7-3.1a5.29,5.29,0,0,0,2.17-1.73,4.23,4.23,0,0,0,.79-2.53v0a4.32,4.32,0,0,0-.78-2.54,5.35,5.35,0,0,0-2.17-1.75,7.62,7.62,0,0,0-3.18-.63,7.73,7.73,0,0,0-3.21.63,5.32,5.32,0,0,0-2.16,1.75,4.26,4.26,0,0,0-.79,2.54v0a4.23,4.23,0,0,0,.8,2.53,5.23,5.23,0,0,0,2.17,1.73,7.83,7.83,0,0,0,3.19.62A7.73,7.73,0,0,0,836.19,513.44Zm-.43-13.31a4.52,4.52,0,0,0,1.86-1.55,3.85,3.85,0,0,0,.67-2.25v0a3.91,3.91,0,0,0-.67-2.27,4.58,4.58,0,0,0-1.87-1.53,6.4,6.4,0,0,0-2.73-.56,6.48,6.48,0,0,0-2.76.56A4.55,4.55,0,0,0,828.4,494a3.92,3.92,0,0,0-.68,2.27v0a3.86,3.86,0,0,0,.68,2.25,4.49,4.49,0,0,0,1.85,1.55,6.46,6.46,0,0,0,2.77.55A6.38,6.38,0,0,0,835.76,500.13Z"/><path class="cls-13" d="M852,515.8a11.1,11.1,0,0,1-3.7-5A21,21,0,0,1,847,503v0a21.05,21.05,0,0,1,1.29-7.74,11,11,0,0,1,3.7-5,10.29,10.29,0,0,1,11.54,0,11.05,11.05,0,0,1,3.71,5,20.84,20.84,0,0,1,1.3,7.74v0a20.75,20.75,0,0,1-1.3,7.73,11.11,11.11,0,0,1-3.71,5,10.24,10.24,0,0,1-11.54,0Zm9.2-3.2a8.31,8.31,0,0,0,2.17-3.75,20,20,0,0,0,.75-5.82v0a19.85,19.85,0,0,0-.75-5.81,8.33,8.33,0,0,0-2.17-3.74,5.15,5.15,0,0,0-6.86,0,8.22,8.22,0,0,0-2.15,3.74,19.85,19.85,0,0,0-.75,5.81v0a20,20,0,0,0,.75,5.82,8.21,8.21,0,0,0,2.15,3.75,5.15,5.15,0,0,0,6.86,0Z"/><path class="cls-13" d="M872.37,496.56h4.26v3.19h.08a5.49,5.49,0,0,1,2.17-2.6,6.3,6.3,0,0,1,3.51-1,6.7,6.7,0,0,1,2.55.47,5.22,5.22,0,0,1,2,1.38,5.61,5.61,0,0,1,1.21,2.2h.1a6.17,6.17,0,0,1,1.48-2.16,6.56,6.56,0,0,1,2.2-1.4,7.61,7.61,0,0,1,2.73-.49,7.12,7.12,0,0,1,3.53.85,6,6,0,0,1,2.35,2.37,7.31,7.31,0,0,1,.84,3.58v14.14h-4.26V504a4.38,4.38,0,0,0-1-3.09,3.72,3.72,0,0,0-2.91-1.1,4.15,4.15,0,0,0-2.19.56,4,4,0,0,0-1.49,1.58,4.86,4.86,0,0,0-.54,2.31v12.85h-4.16V503.69a3.59,3.59,0,0,0-3.88-3.88,4.07,4.07,0,0,0-2.2.59,4.16,4.16,0,0,0-1.51,1.63,5,5,0,0,0-.55,2.38v12.7h-4.26Z"/><path class="cls-13" d="M905.38,496.56h4.26v3.19h.08a5.53,5.53,0,0,1,2.16-2.6,6.36,6.36,0,0,1,3.52-1,6.7,6.7,0,0,1,2.55.47,5.3,5.3,0,0,1,2,1.38,5.61,5.61,0,0,1,1.21,2.2h.1a6.28,6.28,0,0,1,1.47-2.16,6.7,6.7,0,0,1,2.21-1.4,7.61,7.61,0,0,1,2.73-.49,7.12,7.12,0,0,1,3.53.85,6,6,0,0,1,2.34,2.37,7.31,7.31,0,0,1,.84,3.58v14.14h-4.25V504a4.38,4.38,0,0,0-1-3.09,3.75,3.75,0,0,0-2.91-1.1,4.21,4.21,0,0,0-2.2.56,4,4,0,0,0-1.48,1.58,4.86,4.86,0,0,0-.54,2.31v12.85h-4.16V503.69a3.59,3.59,0,0,0-3.88-3.88,4,4,0,0,0-2.2.59,4.19,4.19,0,0,0-1.52,1.63,5.09,5.09,0,0,0-.54,2.38v12.7h-4.26Z"/><rect class="cls-8" x="-512.97" y="728.29" width="1300.26" height="18" transform="translate(874.44 600.13) rotate(90)"/><rect class="cls-8" x="-512.97" y="728.29" width="1300.26" height="18" transform="translate(874.44 600.13) rotate(90)"/><rect class="cls-8" x="146.37" y="167.16" width="1039.9" height="20"/><rect class="cls-10" x="146.27" y="147.16" width="1040" height="40" transform="translate(1332.53 334.32) rotate(180)"/><rect class="cls-10" x="1116.27" y="117.16" width="100" height="40" transform="translate(1029.11 1303.43) rotate(-90)"/><rect class="cls-10" x="106.49" y="117.16" width="100" height="40" transform="translate(19.33 293.65) rotate(-90)"/><line class="cls-12" x1="1182.99" y1="60.15" x2="133.87" y2="60.15"/><rect class="cls-13" x="1180.49" y="43.9" width="5" height="32.5"/><rect class="cls-13" x="131.37" y="43.9" width="5" height="32.5"/><path class="cls-13" d="M588.28,22.71h-.09l-7.37,5.08V23.63l7.43-5.28h4.33V46.54h-4.3Z"/><path class="cls-13" d="M604,45.23a11.2,11.2,0,0,1-3.7-5A21,21,0,0,1,599,32.46v0a21.05,21.05,0,0,1,1.29-7.74,11.12,11.12,0,0,1,3.7-5,10.34,10.34,0,0,1,11.54,0,11.14,11.14,0,0,1,3.71,5,20.84,20.84,0,0,1,1.3,7.74v0a20.75,20.75,0,0,1-1.3,7.73,11.22,11.22,0,0,1-3.71,5,10.24,10.24,0,0,1-11.54,0Zm9.2-3.2a8.52,8.52,0,0,0,2.17-3.75,20,20,0,0,0,.75-5.82v0a19.8,19.8,0,0,0-.75-5.81,8.37,8.37,0,0,0-2.17-3.74,5.15,5.15,0,0,0-6.86,0,8.27,8.27,0,0,0-2.16,3.74,20.17,20.17,0,0,0-.74,5.81v0a20.34,20.34,0,0,0,.74,5.82A8.41,8.41,0,0,0,606.3,42a5.17,5.17,0,0,0,6.86,0Z"/><path class="cls-13" d="M629.07,46a9,9,0,0,1-3.77-2.86,6.79,6.79,0,0,1-1.37-4.21v0a6.74,6.74,0,0,1,.79-3.25,7.4,7.4,0,0,1,2.2-2.5,8.48,8.48,0,0,1,3.24-1.42V31.6a7.63,7.63,0,0,1-3.78-2.34A5.81,5.81,0,0,1,625,25.37v0a6.25,6.25,0,0,1,1.24-3.83,8.3,8.3,0,0,1,3.4-2.65,13.4,13.4,0,0,1,10,0A8.27,8.27,0,0,1,643,21.5a6.3,6.3,0,0,1,1.23,3.83v0a5.85,5.85,0,0,1-1.4,3.89A7.62,7.62,0,0,1,639,31.6v.09a8.39,8.39,0,0,1,3.25,1.42,7.48,7.48,0,0,1,2.19,2.5,6.85,6.85,0,0,1,.79,3.25v0a6.91,6.91,0,0,1-1.36,4.21A8.91,8.91,0,0,1,640.11,46a15.17,15.17,0,0,1-11,0Zm8.7-3.1a5.37,5.37,0,0,0,2.17-1.73,4.29,4.29,0,0,0,.79-2.53v0A4.32,4.32,0,0,0,640,36a5.42,5.42,0,0,0-2.17-1.75,8.42,8.42,0,0,0-6.39,0A5.35,5.35,0,0,0,629.22,36a4.32,4.32,0,0,0-.78,2.54v0a4.23,4.23,0,0,0,.79,2.53,5.41,5.41,0,0,0,2.18,1.73,8.47,8.47,0,0,0,6.36,0Zm-.43-13.31A4.63,4.63,0,0,0,639.19,28a3.9,3.9,0,0,0,.68-2.25v0a3.9,3.9,0,0,0-.68-2.27,4.55,4.55,0,0,0-1.86-1.53,7,7,0,0,0-5.49,0A4.52,4.52,0,0,0,630,23.45a4,4,0,0,0-.67,2.27v0A4,4,0,0,0,630,28a4.59,4.59,0,0,0,1.86,1.55,7.18,7.18,0,0,0,5.51,0Z"/><path class="cls-13" d="M653.61,45.23a11.2,11.2,0,0,1-3.7-5,21,21,0,0,1-1.29-7.73v0a21.05,21.05,0,0,1,1.29-7.74,11.12,11.12,0,0,1,3.7-5,10.34,10.34,0,0,1,11.54,0,11.21,11.21,0,0,1,3.71,5,20.84,20.84,0,0,1,1.3,7.74v0a20.75,20.75,0,0,1-1.3,7.73,11.29,11.29,0,0,1-3.71,5,10.24,10.24,0,0,1-11.54,0Zm9.2-3.2A8.41,8.41,0,0,0,665,38.28a19.61,19.61,0,0,0,.76-5.82v0a19.45,19.45,0,0,0-.76-5.81,8.27,8.27,0,0,0-2.16-3.74,5.15,5.15,0,0,0-6.86,0,8.27,8.27,0,0,0-2.16,3.74,20.17,20.17,0,0,0-.74,5.81v0a20.34,20.34,0,0,0,.74,5.82A8.41,8.41,0,0,0,656,42a5.17,5.17,0,0,0,6.86,0Z"/><path class="cls-13" d="M674,26h4.26v3.18h.07a5.58,5.58,0,0,1,2.17-2.59,6.33,6.33,0,0,1,3.52-1,6.7,6.7,0,0,1,2.55.47,5.3,5.3,0,0,1,2,1.38,5.57,5.57,0,0,1,1.21,2.19h.1a6.47,6.47,0,0,1,1.47-2.16,6.58,6.58,0,0,1,2.21-1.39,7.4,7.4,0,0,1,2.73-.49,7,7,0,0,1,3.53.85,6.06,6.06,0,0,1,2.34,2.37,7.31,7.31,0,0,1,.84,3.58V46.54h-4.25V33.43a4.36,4.36,0,0,0-1-3.09,3.75,3.75,0,0,0-2.91-1.11,4.19,4.19,0,0,0-2.2.57,4,4,0,0,0-1.48,1.58,4.86,4.86,0,0,0-.54,2.31V46.54h-4.16V33.12a3.61,3.61,0,0,0-3.89-3.89,4,4,0,0,0-2.19.6,4.19,4.19,0,0,0-1.52,1.63,5.06,5.06,0,0,0-.54,2.38v12.7H674Z"/><path class="cls-13" d="M707,26h4.25v3.18h.08a5.58,5.58,0,0,1,2.17-2.59,6.31,6.31,0,0,1,3.52-1,6.77,6.77,0,0,1,2.55.47,5.3,5.3,0,0,1,2,1.38,5.69,5.69,0,0,1,1.21,2.19h.1a6.47,6.47,0,0,1,1.47-2.16,6.58,6.58,0,0,1,2.21-1.39,7.38,7.38,0,0,1,2.72-.49,7,7,0,0,1,3.54.85,6.06,6.06,0,0,1,2.34,2.37,7.31,7.31,0,0,1,.84,3.58V46.54h-4.26V33.43a4.41,4.41,0,0,0-1-3.09,3.75,3.75,0,0,0-2.91-1.11,4.17,4.17,0,0,0-2.2.57,3.89,3.89,0,0,0-1.48,1.58,4.86,4.86,0,0,0-.54,2.31V46.54h-4.16V33.12a3.62,3.62,0,0,0-3.89-3.89,4,4,0,0,0-2.19.6,4.19,4.19,0,0,0-1.52,1.63,5.06,5.06,0,0,0-.55,2.38v12.7H707Z"/><line class="cls-12" x1="1214.23" y1="89.81" x2="1214.23" y2="185.1"/><rect class="cls-13" x="1197.98" y="87.31" width="32.5" height="5"/><rect class="cls-13" x="1197.98" y="182.6" width="32.5" height="5"/><path class="cls-13" d="M1255.85,195.27v.1l5.08,7.36h-4.16l-5.28-7.42V191h28.19v4.3Z"/><path class="cls-13" d="M1278.37,179.6a11.17,11.17,0,0,1-5,3.7,21,21,0,0,1-7.73,1.29h0a21.05,21.05,0,0,1-7.74-1.29,11.19,11.19,0,0,1-5-3.7,10.35,10.35,0,0,1,0-11.55,11.21,11.21,0,0,1,5-3.71,21,21,0,0,1,7.74-1.3h0a21,21,0,0,1,7.73,1.3,11.18,11.18,0,0,1,5,3.71,10.26,10.26,0,0,1,0,11.55Zm-3.2-9.2a8.33,8.33,0,0,0-3.75-2.17,20,20,0,0,0-5.82-.75h0a19.8,19.8,0,0,0-5.81.75,8.24,8.24,0,0,0-3.74,2.17,5.13,5.13,0,0,0,0,6.85,8.14,8.14,0,0,0,3.74,2.16,19.83,19.83,0,0,0,5.81.74h0a20,20,0,0,0,5.82-.74,8.23,8.23,0,0,0,3.75-2.16,5.13,5.13,0,0,0,0-6.85Z"/><path class="cls-13" d="M1278.37,154.62a11.17,11.17,0,0,1-5,3.7,21,21,0,0,1-7.73,1.29h0a21.05,21.05,0,0,1-7.74-1.29,11.19,11.19,0,0,1-5-3.7,10.35,10.35,0,0,1,0-11.55,11.21,11.21,0,0,1,5-3.71,21,21,0,0,1,7.74-1.3h0a21,21,0,0,1,7.73,1.3,11.18,11.18,0,0,1,5,3.71,10.26,10.26,0,0,1,0,11.55Zm-3.2-9.2a8.33,8.33,0,0,0-3.75-2.17,20,20,0,0,0-5.82-.75h0a19.8,19.8,0,0,0-5.81.75,8.24,8.24,0,0,0-3.74,2.17,5.13,5.13,0,0,0,0,6.85,8.14,8.14,0,0,0,3.74,2.16,20.17,20.17,0,0,0,5.81.74h0a20.34,20.34,0,0,0,5.82-.74,8.23,8.23,0,0,0,3.75-2.16,5.13,5.13,0,0,0,0-6.85Z"/><path class="cls-13" d="M1259.13,134.27V130h3.19v-.08a5.5,5.5,0,0,1-2.6-2.17,6.31,6.31,0,0,1-1-3.52,6.68,6.68,0,0,1,.47-2.54,5.25,5.25,0,0,1,1.38-2,5.69,5.69,0,0,1,2.19-1.21v-.1a6.33,6.33,0,0,1-2.15-1.47,6.45,6.45,0,0,1-1.4-2.21,7.38,7.38,0,0,1-.49-2.72,7.05,7.05,0,0,1,.85-3.54,6.06,6.06,0,0,1,2.37-2.34,7.31,7.31,0,0,1,3.58-.84h14.14v4.26h-13.11a4.41,4.41,0,0,0-3.09,1,3.75,3.75,0,0,0-1.11,2.91,4.17,4.17,0,0,0,.57,2.2,4,4,0,0,0,1.58,1.48,4.86,4.86,0,0,0,2.31.54h12.85v4.16h-13.42a3.62,3.62,0,0,0-3.89,3.89,4.1,4.1,0,0,0,.6,2.2,4.24,4.24,0,0,0,1.63,1.51,5.06,5.06,0,0,0,2.38.55h12.7v4.25Z"/><path class="cls-13" d="M1259.13,101.27V97h3.19v-.08a5.5,5.5,0,0,1-2.6-2.17,6.3,6.3,0,0,1-1-3.51,6.7,6.7,0,0,1,.47-2.55,5.33,5.33,0,0,1,1.38-2,5.69,5.69,0,0,1,2.19-1.21v-.09a6.52,6.52,0,0,1-3.55-3.69,7.35,7.35,0,0,1-.49-2.72,7.08,7.08,0,0,1,.85-3.54,6.06,6.06,0,0,1,2.37-2.34,7.31,7.31,0,0,1,3.58-.84h14.14v4.26h-13.11a4.41,4.41,0,0,0-3.09,1,3.75,3.75,0,0,0-1.11,2.91,4.17,4.17,0,0,0,.57,2.2,4.05,4.05,0,0,0,1.58,1.49,5,5,0,0,0,2.31.53h12.85v4.16h-13.42a3.62,3.62,0,0,0-3.89,3.89,4.1,4.1,0,0,0,.6,2.2,4.16,4.16,0,0,0,1.63,1.51A5,5,0,0,0,1267,97h12.7v4.26Z"/><line class="cls-12" x1="1214.23" y1="716.21" x2="1214.23" y2="1386.07"/><rect class="cls-13" x="1197.98" y="713.71" width="32.5" height="5"/><rect class="cls-13" x="1197.98" y="1383.57" width="32.5" height="5"/><path class="cls-13" d="M1270.36,1111.54a9.7,9.7,0,0,1-2.48,3.56,11.88,11.88,0,0,1-4.37,2.47,20.6,20.6,0,0,1-6.49.89h0a21.77,21.77,0,0,1-8.06-1.33,11,11,0,0,1-5.12-3.87,10.29,10.29,0,0,1-1.77-6,11.21,11.21,0,0,1,.89-4.54,9.38,9.38,0,0,1,2.49-3.37,8.47,8.47,0,0,1,3.7-1.79l.23,0v4.39l-.2.08a4.93,4.93,0,0,0-3,2.91,6.42,6.42,0,0,0-.42,2.4,5.57,5.57,0,0,0,1.4,3.92,8.47,8.47,0,0,0,3.72,2.25,19,19,0,0,0,5.13.81l.44,0h.46l4.65-.84a5.9,5.9,0,0,0,3-.8,5.78,5.78,0,0,0,2.14-2.14,6.24,6.24,0,0,0,0-6.06,6,6,0,0,0-2.11-2.16,5.64,5.64,0,0,0-3-.8h0a5.93,5.93,0,0,0-3,.76,5.57,5.57,0,0,0-2.06,2.11,6.18,6.18,0,0,0-.75,3,6.35,6.35,0,0,0,.74,3.08,5.56,5.56,0,0,0,5,3h0v1.17h-4.79v-.41a7.05,7.05,0,0,1-2.29-1.68,8.21,8.21,0,0,1-1.63-2.66,9.27,9.27,0,0,1-.61-3.46,9.48,9.48,0,0,1,1.2-4.8,8.76,8.76,0,0,1,3.3-3.29,9.43,9.43,0,0,1,4.76-1.2h0a9.28,9.28,0,0,1,5,1.34,9.52,9.52,0,0,1,3.43,3.66,11.57,11.57,0,0,1,.45,9.46Z"/><path class="cls-13" d="M1246.29,1078.72h-.09v14.88h-3.7v-19.22h3.81l24.38,12.27v4.59Z"/><path class="cls-13" d="M1269.38,1066.38a11.22,11.22,0,0,1-5,3.71,21.21,21.21,0,0,1-7.73,1.28h0a21.23,21.23,0,0,1-7.74-1.28,11.14,11.14,0,0,1-5-3.71,10.29,10.29,0,0,1,0-11.54,11.21,11.21,0,0,1,5-3.71,21,21,0,0,1,7.74-1.3h0a21,21,0,0,1,7.73,1.3,11.29,11.29,0,0,1,5,3.71,10.24,10.24,0,0,1,0,11.54Zm-3.2-9.19a8.33,8.33,0,0,0-3.75-2.17,20,20,0,0,0-5.82-.75h0a19.8,19.8,0,0,0-5.81.75,8.19,8.19,0,0,0-3.74,2.17,5.13,5.13,0,0,0,0,6.85,8.18,8.18,0,0,0,3.74,2.16,20.17,20.17,0,0,0,5.81.74h0a20.34,20.34,0,0,0,5.82-.74,8.32,8.32,0,0,0,3.75-2.16,5.16,5.16,0,0,0,0-6.85Z"/><path class="cls-13" d="M1250.14,1046v-4.26h3.18v-.07a5.53,5.53,0,0,1-2.59-2.17,6.25,6.25,0,0,1-1-3.52,6.77,6.77,0,0,1,.47-2.55,5.3,5.3,0,0,1,1.38-2,5.57,5.57,0,0,1,2.19-1.21v-.1a6.47,6.47,0,0,1-2.16-1.47,6.58,6.58,0,0,1-1.39-2.21,7.38,7.38,0,0,1-.49-2.72,7.05,7.05,0,0,1,.85-3.54,6.06,6.06,0,0,1,2.37-2.34,7.31,7.31,0,0,1,3.58-.84h14.14v4.26h-13.11a4.41,4.41,0,0,0-3.09,1,3.75,3.75,0,0,0-1.11,2.91,4.17,4.17,0,0,0,.57,2.2,3.89,3.89,0,0,0,1.58,1.48,4.86,4.86,0,0,0,2.31.54h12.85v4.16h-13.42a3.62,3.62,0,0,0-3.89,3.89,4,4,0,0,0,.6,2.19,4.12,4.12,0,0,0,1.63,1.52,5.06,5.06,0,0,0,2.38.54h12.7V1046Z"/><path class="cls-13" d="M1250.14,1013v-4.25h3.18v-.08a5.53,5.53,0,0,1-2.59-2.17,6.22,6.22,0,0,1-1-3.51,6.7,6.7,0,0,1,.47-2.55,5.25,5.25,0,0,1,1.38-2,5.69,5.69,0,0,1,2.19-1.21v-.1a6.47,6.47,0,0,1-2.16-1.47,6.58,6.58,0,0,1-1.39-2.21,7.35,7.35,0,0,1-.49-2.72,7.08,7.08,0,0,1,.85-3.54,6.06,6.06,0,0,1,2.37-2.34,7.31,7.31,0,0,1,3.58-.84h14.14v4.26h-13.11a4.41,4.41,0,0,0-3.09,1,3.75,3.75,0,0,0-1.11,2.91,4.17,4.17,0,0,0,.57,2.2,4,4,0,0,0,1.58,1.49,5,5,0,0,0,2.31.53h12.85v4.16h-13.42a3.62,3.62,0,0,0-3.89,3.89,4.09,4.09,0,0,0,2.23,3.71,5,5,0,0,0,2.38.55h12.7V1013Z"/><line class="cls-12" x1="1317.9" y1="924.99" x2="1317.9" y2="1386.07"/><rect class="cls-13" x="1301.65" y="922.49" width="32.5" height="5"/><rect class="cls-13" x="1301.65" y="1383.57" width="32.5" height="5"/><path class="cls-13" d="M1368.74,1208.59v14.1h-3.82l-3.75-2.39-3.75-2.4-3.75-2.39c-1.25-.8-2.5-1.59-3.75-2.4l-3.75-2.39v-6.33h18.88v-3.9h3.69v3.9h5.61v4.2Zm-3.61,0h-15.49v.12l3.08,2,3.07,2c1,.65,2,1.32,3.07,2l3.08,2,3.07,2h.12Z"/><path class="cls-13" d="M1350,1183.5h-.1v14.88h-3.69v-19.22H1350l24.37,12.27V1196Z"/><path class="cls-13" d="M1373,1171.16a11.1,11.1,0,0,1-5,3.7,21,21,0,0,1-7.73,1.29h0a21.05,21.05,0,0,1-7.74-1.29,11,11,0,0,1-5-3.7,10.29,10.29,0,0,1,0-11.54,11.05,11.05,0,0,1,5-3.71,20.84,20.84,0,0,1,7.74-1.3h0a20.75,20.75,0,0,1,7.73,1.3,11.11,11.11,0,0,1,5,3.71,10.24,10.24,0,0,1,0,11.54Zm-3.2-9.2a8.41,8.41,0,0,0-3.75-2.17,20,20,0,0,0-5.82-.75h0a19.85,19.85,0,0,0-5.81.75,8.42,8.42,0,0,0-3.74,2.17,5.15,5.15,0,0,0,0,6.86,8.32,8.32,0,0,0,3.74,2.16,20.22,20.22,0,0,0,5.81.74h0a20.34,20.34,0,0,0,5.82-.74,8.3,8.3,0,0,0,3.75-2.16,5.15,5.15,0,0,0,0-6.86Z"/><path class="cls-13" d="M1353.8,1150.82v-4.26H1357v-.08a5.53,5.53,0,0,1-2.6-2.16,6.36,6.36,0,0,1-1-3.52,6.7,6.7,0,0,1,.47-2.55,5.3,5.3,0,0,1,1.38-2,5.61,5.61,0,0,1,2.2-1.21v-.1a6.28,6.28,0,0,1-2.16-1.47,6.7,6.7,0,0,1-1.4-2.21,7.61,7.61,0,0,1-.49-2.73,7.12,7.12,0,0,1,.85-3.53,6.11,6.11,0,0,1,2.38-2.35,7.36,7.36,0,0,1,3.57-.84h14.14v4.26h-13.11a4.4,4.4,0,0,0-3.09,1,3.75,3.75,0,0,0-1.1,2.91,4.31,4.31,0,0,0,.56,2.2,4,4,0,0,0,1.58,1.48,4.86,4.86,0,0,0,2.31.54h12.85v4.16h-13.42a3.88,3.88,0,0,0-2.84,1,3.84,3.84,0,0,0-1,2.84,4.07,4.07,0,0,0,.59,2.2,4.19,4.19,0,0,0,1.63,1.52,5.1,5.1,0,0,0,2.39.54h12.69v4.26Z"/><path class="cls-13" d="M1353.8,1117.81v-4.26H1357v-.07a5.61,5.61,0,0,1-2.6-2.17,6.33,6.33,0,0,1-1-3.52,6.73,6.73,0,0,1,.47-2.55,5.3,5.3,0,0,1,1.38-2,5.61,5.61,0,0,1,2.2-1.21v-.1a6.28,6.28,0,0,1-2.16-1.47,6.6,6.6,0,0,1-1.4-2.21,7.59,7.59,0,0,1-.49-2.72,7.13,7.13,0,0,1,.85-3.54,6,6,0,0,1,2.38-2.34,7.25,7.25,0,0,1,3.57-.84h14.14v4.25h-13.11a4.4,4.4,0,0,0-3.09,1,3.75,3.75,0,0,0-1.1,2.91,4.28,4.28,0,0,0,.56,2.2,4,4,0,0,0,1.58,1.48,4.86,4.86,0,0,0,2.31.54h12.85v4.16h-13.42a3.59,3.59,0,0,0-3.88,3.89,4,4,0,0,0,.59,2.19,4.19,4.19,0,0,0,1.63,1.52,5.1,5.1,0,0,0,2.39.54h12.69v4.26Z"/><line class="cls-12" x1="1317.9" y1="792.04" x2="1317.9" y2="915.7"/><rect class="cls-13" x="1301.65" y="789.54" width="32.5" height="5"/><rect class="cls-13" x="1301.65" y="913.2" width="32.5" height="5"/><path class="cls-13" d="M1350.52,911.28v.1l5.08,7.36h-4.16l-5.27-7.42V907h28.18v4.29Z"/><path class="cls-13" d="M1373.81,895.55a8.69,8.69,0,0,1-2.79,3.56,7.84,7.84,0,0,1-4.09,1.51l-.24,0v-4.22l.22,0a4.21,4.21,0,0,0,3.06-1.85,7.07,7.07,0,0,0,1.2-4.26,7.14,7.14,0,0,0-.6-3,4.82,4.82,0,0,0-1.65-2,4.15,4.15,0,0,0-2.4-.73h0a4.39,4.39,0,0,0-3.66,1.63,6.91,6.91,0,0,0-1.28,4.43V894h-3.44v-3.3a6.5,6.5,0,0,0-.58-2.83,4.49,4.49,0,0,0-1.59-1.89,4.07,4.07,0,0,0-2.32-.67h0a4.5,4.5,0,0,0-2.33.57,3.69,3.69,0,0,0-1.45,1.7,6.76,6.76,0,0,0-.5,2.73,7.09,7.09,0,0,0,.51,2.77,4.61,4.61,0,0,0,1.46,1.93,4.4,4.4,0,0,0,2.27.86l.2,0v4.14l-.22,0a8.29,8.29,0,0,1-4.12-1.49,8.4,8.4,0,0,1-2.73-3.36,11.57,11.57,0,0,1-1-4.85,12,12,0,0,1,.93-4.91,7.6,7.6,0,0,1,2.56-3.24A6.47,6.47,0,0,1,1353,881h0a6.14,6.14,0,0,1,3.1.77,6.67,6.67,0,0,1,2.22,2.11,8.33,8.33,0,0,1,1.24,3.06h.1a8,8,0,0,1,2-5,6.25,6.25,0,0,1,4.77-1.9h0a7.29,7.29,0,0,1,4.27,1.31,8.67,8.67,0,0,1,2.93,3.6,12.52,12.52,0,0,1,1.06,5.31A12.82,12.82,0,0,1,1373.81,895.55Z"/><path class="cls-13" d="M1373,871.43a11.1,11.1,0,0,1-5,3.7,21,21,0,0,1-7.73,1.29h0a21.05,21.05,0,0,1-7.74-1.29,11,11,0,0,1-5-3.7,10.29,10.29,0,0,1,0-11.54,11.05,11.05,0,0,1,5-3.71,20.84,20.84,0,0,1,7.74-1.3h0a20.75,20.75,0,0,1,7.73,1.3,11.11,11.11,0,0,1,5,3.71,10.24,10.24,0,0,1,0,11.54Zm-3.2-9.2a8.31,8.31,0,0,0-3.75-2.17,20,20,0,0,0-5.82-.75h0a19.85,19.85,0,0,0-5.81.75,8.33,8.33,0,0,0-3.74,2.17,5.15,5.15,0,0,0,0,6.86,8.22,8.22,0,0,0,3.74,2.15,19.85,19.85,0,0,0,5.81.75h0a20,20,0,0,0,5.82-.75,8.21,8.21,0,0,0,3.75-2.15,5.15,5.15,0,0,0,0-6.86Z"/><path class="cls-13" d="M1353.8,851.09v-4.26H1357v-.08a5.49,5.49,0,0,1-2.6-2.17,6.3,6.3,0,0,1-1-3.51,6.7,6.7,0,0,1,.47-2.55,5.22,5.22,0,0,1,1.38-2,5.61,5.61,0,0,1,2.2-1.21v-.1a6.17,6.17,0,0,1-2.16-1.48,6.56,6.56,0,0,1-1.4-2.2,7.61,7.61,0,0,1-.49-2.73,7.12,7.12,0,0,1,.85-3.53,6,6,0,0,1,2.38-2.35,7.25,7.25,0,0,1,3.57-.84h14.14v4.26h-13.11a4.4,4.4,0,0,0-3.09,1,3.72,3.72,0,0,0-1.1,2.91,4.25,4.25,0,0,0,.56,2.19,4,4,0,0,0,1.58,1.49,4.86,4.86,0,0,0,2.31.53h12.85v4.17h-13.42a3.59,3.59,0,0,0-3.88,3.88,4.1,4.1,0,0,0,.59,2.2,4.16,4.16,0,0,0,1.63,1.51,5,5,0,0,0,2.39.55h12.69v4.26Z"/><path class="cls-13" d="M1353.8,818.08v-4.26H1357v-.08a5.53,5.53,0,0,1-2.6-2.16,6.36,6.36,0,0,1-1-3.52,6.7,6.7,0,0,1,.47-2.55,5.3,5.3,0,0,1,1.38-2,5.61,5.61,0,0,1,2.2-1.21v-.1a6.28,6.28,0,0,1-2.16-1.47,6.7,6.7,0,0,1-1.4-2.21,7.61,7.61,0,0,1-.49-2.73,7.12,7.12,0,0,1,.85-3.53,6.11,6.11,0,0,1,2.38-2.35,7.36,7.36,0,0,1,3.57-.84h14.14v4.26h-13.11a4.4,4.4,0,0,0-3.09,1,3.75,3.75,0,0,0-1.1,2.91,4.31,4.31,0,0,0,.56,2.2,4,4,0,0,0,1.58,1.48,4.86,4.86,0,0,0,2.31.54h12.85v4.16h-13.42a3.88,3.88,0,0,0-2.84,1,3.84,3.84,0,0,0-1,2.84,4.06,4.06,0,0,0,2.22,3.71,5,5,0,0,0,2.39.55h12.69v4.26Z"/><line class="cls-12" x1="98.51" y1="1240.07" x2="98.51" y2="1386.07"/><rect class="cls-13" x="82.26" y="1237.57" width="32.5" height="5"/><rect class="cls-13" x="82.26" y="1383.57" width="32.5" height="5"/><path class="cls-13" d="M44.56,1370.49v.1l5.08,7.36H45.48l-5.28-7.42v-4.34H68.39v4.3Z"/><path class="cls-13" d="M68.06,1352.88a9.7,9.7,0,0,1-2.48,3.56,11.74,11.74,0,0,1-4.37,2.47,20.6,20.6,0,0,1-6.5.9h0a21.74,21.74,0,0,1-8.05-1.34,11,11,0,0,1-5.12-3.87,10.25,10.25,0,0,1-1.77-6,11.18,11.18,0,0,1,.89-4.54,9,9,0,0,1,2.49-3.37,8.4,8.4,0,0,1,3.69-1.8l.24,0v4.39l-.2.08A4.93,4.93,0,0,0,45,1344.4a5.08,5.08,0,0,0-1.2,1.79,6.52,6.52,0,0,0-.41,2.41,5.5,5.5,0,0,0,1.4,3.91,8.47,8.47,0,0,0,3.72,2.25,18.5,18.5,0,0,0,5.13.81l.44,0h.46l4.65-.84a6,6,0,0,0,3.06-11.15,5.56,5.56,0,0,0-3-.81h0a5.82,5.82,0,0,0-3,.77,5.36,5.36,0,0,0-2.06,2.11,6.12,6.12,0,0,0-.76,3,6.33,6.33,0,0,0,.75,3.08,5.54,5.54,0,0,0,2,2.17,5.62,5.62,0,0,0,3,.79h0v1.17H54.42v-.41a7,7,0,0,1-2.29-1.68,8.4,8.4,0,0,1-1.64-2.66,10.23,10.23,0,0,1,.6-8.26,8.76,8.76,0,0,1,3.3-3.29,9.43,9.43,0,0,1,4.76-1.2h0a9.25,9.25,0,0,1,8.41,5,10.91,10.91,0,0,1,1.25,5.29A11.08,11.08,0,0,1,68.06,1352.88Z"/><path class="cls-13" d="M67.8,1329.05a8.83,8.83,0,0,1-2.88,3.48,8.08,8.08,0,0,1-4.13,1.49l-.24,0v-4.18h.14a4.93,4.93,0,0,0,2.3-1,5.65,5.65,0,0,0,1.62-2,6.53,6.53,0,0,0,.59-2.8,6.32,6.32,0,0,0-.76-3.14,5.47,5.47,0,0,0-2.11-2.13,6.15,6.15,0,0,0-3.09-.76h0a6,6,0,0,0-3.05.77,5.6,5.6,0,0,0-2.09,2.12,6.15,6.15,0,0,0-.76,3.09,7.27,7.27,0,0,0,.38,2.42,5.63,5.63,0,0,0,1.14,2,6.24,6.24,0,0,0,.74.71,6.65,6.65,0,0,0,.88.62v3.85l-16.25-1.39v-16.82h3.69v13.27l8.93.85v-.09a6.32,6.32,0,0,1-2.2-2.63,8.93,8.93,0,0,1-.77-3.76,9.4,9.4,0,0,1,1.2-4.78,8.76,8.76,0,0,1,3.29-3.3,9.46,9.46,0,0,1,4.79-1.2h0a9.58,9.58,0,0,1,5,1.33,9.33,9.33,0,0,1,3.41,3.66,12.38,12.38,0,0,1,.18,10.37Z"/><path class="cls-13" d="M47.84,1310.27V1306H51v-.08a5.6,5.6,0,0,1-2.6-2.17,6.29,6.29,0,0,1-1-3.51,6.51,6.51,0,0,1,.47-2.55,5.35,5.35,0,0,1,1.37-2,5.81,5.81,0,0,1,2.2-1.21v-.09a6.65,6.65,0,0,1-2.16-1.48,6.58,6.58,0,0,1-1.39-2.21,7.35,7.35,0,0,1-.49-2.72,7.08,7.08,0,0,1,.85-3.54,6,6,0,0,1,2.37-2.34,7.3,7.3,0,0,1,3.57-.84H68.39v4.26H55.28a4.45,4.45,0,0,0-3.1,1,3.78,3.78,0,0,0-1.1,2.91,4.17,4.17,0,0,0,.57,2.2,4,4,0,0,0,1.58,1.49,4.93,4.93,0,0,0,2.3.53H68.39v4.16H55a3.62,3.62,0,0,0-3.89,3.89,4.09,4.09,0,0,0,2.23,3.71,5,5,0,0,0,2.38.55h12.7v4.25Z"/><path class="cls-13" d="M47.84,1277.27V1273H51v-.08a5.54,5.54,0,0,1-2.6-2.17,6.29,6.29,0,0,1-1-3.51,6.51,6.51,0,0,1,.47-2.55,5.31,5.31,0,0,1,1.37-2,5.83,5.83,0,0,1,2.2-1.22v-.09a6.35,6.35,0,0,1-2.16-1.48,6.54,6.54,0,0,1-1.39-2.2,7.4,7.4,0,0,1-.49-2.73,7,7,0,0,1,.85-3.53,6,6,0,0,1,2.37-2.35,7.3,7.3,0,0,1,3.57-.84H68.39v4.26H55.28a4.41,4.41,0,0,0-3.1,1,3.75,3.75,0,0,0-1.1,2.91,4.16,4.16,0,0,0,.57,2.19,3.92,3.92,0,0,0,1.58,1.49,4.82,4.82,0,0,0,2.3.53H68.39v4.16H55a3.62,3.62,0,0,0-3.89,3.89,4.09,4.09,0,0,0,2.23,3.71,5,5,0,0,0,2.38.55h12.7v4.26Z"/><line class="cls-12" x1="98.51" y1="1083.54" x2="98.51" y2="1227.47"/><rect class="cls-13" x="82.26" y="1081.04" width="32.5" height="5"/><rect class="cls-13" x="82.26" y="1224.97" width="32.5" height="5"/><path class="cls-13" d="M44.56,1212.73v.1l5.08,7.36H45.48l-5.28-7.42v-4.34H68.39v4.3Z"/><path class="cls-13" d="M62.78,1188.18v14.1H59l-3.75-2.39-3.75-2.4-3.75-2.4L44,1192.7l-3.75-2.39V1184H59.09v-3.91h3.69V1184h5.61v4.2Zm-3.61,0H43.68v.12l3.07,2,3.07,2,3.08,2,3.07,2c1,.65,2.05,1.31,3.08,2h.12Z"/><path class="cls-13" d="M67.8,1171.69a8.87,8.87,0,0,1-2.88,3.47,8.18,8.18,0,0,1-4.13,1.5l-.24,0v-4.18l.14,0a4.93,4.93,0,0,0,2.3-1,5.65,5.65,0,0,0,1.62-2,6.48,6.48,0,0,0,.59-2.79,6.33,6.33,0,0,0-.76-3.15,5.47,5.47,0,0,0-2.11-2.13,6.15,6.15,0,0,0-3.09-.76h0a6,6,0,0,0-3.05.77,5.6,5.6,0,0,0-2.09,2.12,6.15,6.15,0,0,0-.76,3.09,7.27,7.27,0,0,0,.38,2.42,5.63,5.63,0,0,0,1.14,2,6.24,6.24,0,0,0,.74.71,6.65,6.65,0,0,0,.88.62v3.85l-16.25-1.39V1158h3.69v13.27l8.93.86v-.1a6.32,6.32,0,0,1-2.2-2.63,8.9,8.9,0,0,1-.77-3.76,9.4,9.4,0,0,1,1.2-4.78,8.83,8.83,0,0,1,3.29-3.3,9.46,9.46,0,0,1,4.79-1.2h0a9.58,9.58,0,0,1,5,1.33,9.33,9.33,0,0,1,3.41,3.66,12.4,12.4,0,0,1,.18,10.38Z"/><path class="cls-13" d="M47.84,1152.91v-4.26H51v-.08a5.54,5.54,0,0,1-2.6-2.17,6.29,6.29,0,0,1-1-3.51,6.51,6.51,0,0,1,.47-2.55,5.43,5.43,0,0,1,1.37-2,6,6,0,0,1,2.2-1.21v-.09a6.65,6.65,0,0,1-2.16-1.48,6.58,6.58,0,0,1-1.39-2.21,7.35,7.35,0,0,1-.49-2.72,7.08,7.08,0,0,1,.85-3.54,6,6,0,0,1,2.37-2.34,7.3,7.3,0,0,1,3.57-.84H68.39v4.26H55.28a4.45,4.45,0,0,0-3.1,1,3.78,3.78,0,0,0-1.1,2.91,4.17,4.17,0,0,0,.57,2.2,4,4,0,0,0,1.58,1.49,4.82,4.82,0,0,0,2.3.53H68.39v4.16H55a3.62,3.62,0,0,0-3.89,3.89,4.09,4.09,0,0,0,2.23,3.71,5,5,0,0,0,2.38.55h12.7v4.26Z"/><path class="cls-13" d="M47.84,1119.9v-4.26H51v-.08a5.54,5.54,0,0,1-2.6-2.17,6.29,6.29,0,0,1-1-3.51,6.51,6.51,0,0,1,.47-2.55,5.31,5.31,0,0,1,1.37-2,5.68,5.68,0,0,1,2.2-1.21v-.1a6.35,6.35,0,0,1-2.16-1.48,6.54,6.54,0,0,1-1.39-2.2,7.4,7.4,0,0,1-.49-2.73,7,7,0,0,1,.85-3.53,6,6,0,0,1,2.37-2.35,7.3,7.3,0,0,1,3.57-.84H68.39v4.26H55.28a4.41,4.41,0,0,0-3.1,1,3.75,3.75,0,0,0-1.1,2.91,4.16,4.16,0,0,0,.57,2.19,3.92,3.92,0,0,0,1.58,1.49,4.82,4.82,0,0,0,2.3.54H68.39v4.16H55a3.61,3.61,0,0,0-3.89,3.88,4.09,4.09,0,0,0,2.23,3.71,5,5,0,0,0,2.38.55h12.7v4.26Z"/><line class="cls-12" x1="98.51" y1="924.77" x2="98.51" y2="1074.5"/><rect class="cls-13" x="82.26" y="922.27" width="32.5" height="5"/><rect class="cls-13" x="82.26" y="1072" width="32.5" height="5"/><path class="cls-13" d="M44.56,1057v.1l5.08,7.36H45.48L40.2,1057v-4.33H68.39V1057Z"/><path class="cls-13" d="M67.8,1040.71a8.9,8.9,0,0,1-2.88,3.48,8.17,8.17,0,0,1-4.13,1.49l-.24,0v-4.18l.14,0a5,5,0,0,0,2.3-1,5.65,5.65,0,0,0,1.62-2,6.56,6.56,0,0,0,.59-2.8,6.32,6.32,0,0,0-.76-3.14,5.47,5.47,0,0,0-2.11-2.13,6.15,6.15,0,0,0-3.09-.76h0a6,6,0,0,0-3.05.77,5.6,5.6,0,0,0-2.09,2.12,6.14,6.14,0,0,0-.76,3.08,7.33,7.33,0,0,0,.38,2.43,5.63,5.63,0,0,0,1.14,2,6.24,6.24,0,0,0,.74.71,6.65,6.65,0,0,0,.88.62v3.84l-16.25-1.38V1027h3.69v13.26l8.93.86V1041a6.32,6.32,0,0,1-2.2-2.63,9,9,0,0,1-.77-3.76,9.46,9.46,0,0,1,1.2-4.79,8.8,8.8,0,0,1,3.29-3.29,9.46,9.46,0,0,1,4.79-1.2h0a9.49,9.49,0,0,1,5,1.33,9.33,9.33,0,0,1,3.41,3.66,12.38,12.38,0,0,1,.18,10.37Z"/><path class="cls-13" d="M67.08,1017.29a11.22,11.22,0,0,1-5,3.71,21.27,21.27,0,0,1-7.74,1.28h0a21.18,21.18,0,0,1-7.73-1.28,11.14,11.14,0,0,1-5-3.71,10.29,10.29,0,0,1,0-11.54,11.21,11.21,0,0,1,5-3.71,21,21,0,0,1,7.73-1.3h0A21,21,0,0,1,62,1002a11.29,11.29,0,0,1,5,3.71,10.29,10.29,0,0,1,0,11.54Zm-3.21-9.19a8.23,8.23,0,0,0-3.75-2.17,19.87,19.87,0,0,0-5.82-.75h0a19.85,19.85,0,0,0-5.81.75,8.3,8.3,0,0,0-3.74,2.17,5.16,5.16,0,0,0,0,6.85,8.28,8.28,0,0,0,3.74,2.16,20.22,20.22,0,0,0,5.81.74h0a20.24,20.24,0,0,0,5.82-.74,8.22,8.22,0,0,0,3.75-2.16,5.13,5.13,0,0,0,0-6.85Z"/><path class="cls-13" d="M47.84,997v-4.26H51v-.07a5.6,5.6,0,0,1-2.6-2.17,6.33,6.33,0,0,1-1-3.52,6.58,6.58,0,0,1,.47-2.55,5.39,5.39,0,0,1,1.37-2,5.68,5.68,0,0,1,2.2-1.21v-.1a6.47,6.47,0,0,1-2.16-1.47,6.58,6.58,0,0,1-1.39-2.21,7.38,7.38,0,0,1-.49-2.72,7.05,7.05,0,0,1,.85-3.54,6,6,0,0,1,2.37-2.34,7.3,7.3,0,0,1,3.57-.84H68.39v4.26H55.28a4.45,4.45,0,0,0-3.1,1,3.78,3.78,0,0,0-1.1,2.91,4.17,4.17,0,0,0,.57,2.2,3.89,3.89,0,0,0,1.58,1.48,4.82,4.82,0,0,0,2.3.54H68.39v4.16H55a3.62,3.62,0,0,0-3.89,3.89,4,4,0,0,0,.6,2.19,4.12,4.12,0,0,0,1.63,1.52,5.06,5.06,0,0,0,2.38.54h12.7V997Z"/><path class="cls-13" d="M47.84,963.94v-4.25H51v-.08a5.6,5.6,0,0,1-2.6-2.17,6.29,6.29,0,0,1-1-3.51,6.51,6.51,0,0,1,.47-2.55,5.35,5.35,0,0,1,1.37-2,5.81,5.81,0,0,1,2.2-1.21v-.1a6.47,6.47,0,0,1-2.16-1.47,6.58,6.58,0,0,1-1.39-2.21,7.35,7.35,0,0,1-.49-2.72,7.08,7.08,0,0,1,.85-3.54,6,6,0,0,1,2.37-2.34,7.3,7.3,0,0,1,3.57-.84H68.39v4.26H55.28a4.45,4.45,0,0,0-3.1,1,3.78,3.78,0,0,0-1.1,2.91,4.17,4.17,0,0,0,.57,2.2,4,4,0,0,0,1.58,1.49,4.93,4.93,0,0,0,2.3.53H68.39v4.16H55a3.62,3.62,0,0,0-3.89,3.89,4.09,4.09,0,0,0,2.23,3.71,5,5,0,0,0,2.38.55h12.7v4.25Z"/><line class="cls-12" x1="98.51" y1="725.92" x2="98.51" y2="915.76"/><rect class="cls-13" x="82.26" y="723.42" width="32.5" height="5"/><rect class="cls-13" x="82.26" y="913.26" width="32.5" height="5"/><path class="cls-13" d="M44.56,878v.09l5.08,7.37H45.48l-5.28-7.42v-4.34H68.39V878Z"/><path class="cls-13" d="M67.82,862.22A9,9,0,0,1,65,866a6.84,6.84,0,0,1-4.21,1.36h0a6.74,6.74,0,0,1-3.25-.79,7.31,7.31,0,0,1-2.5-2.2,8.2,8.2,0,0,1-1.42-3.24h-.1a7.55,7.55,0,0,1-2.33,3.78,5.77,5.77,0,0,1-3.9,1.42h0a6.3,6.3,0,0,1-3.82-1.23,8.25,8.25,0,0,1-2.65-3.41,13.27,13.27,0,0,1,0-10,8.25,8.25,0,0,1,2.65-3.41,6.3,6.3,0,0,1,3.82-1.23h0a5.81,5.81,0,0,1,3.9,1.41,7.51,7.51,0,0,1,2.33,3.78h.1A8.25,8.25,0,0,1,55,849a7.25,7.25,0,0,1,2.5-2.18,6.74,6.74,0,0,1,3.25-.8h0A6.91,6.91,0,0,1,65,847.4a9,9,0,0,1,2.86,3.77,15.33,15.33,0,0,1,0,11.05ZM51.4,853.94a4.53,4.53,0,0,0-1.54-1.85,3.91,3.91,0,0,0-2.26-.67h0a3.89,3.89,0,0,0-2.27.67A4.55,4.55,0,0,0,43.77,854a7,7,0,0,0,0,5.49,4.52,4.52,0,0,0,1.53,1.87,3.89,3.89,0,0,0,2.27.67h0a3.91,3.91,0,0,0,2.26-.67,4.5,4.5,0,0,0,1.54-1.86,7.06,7.06,0,0,0,0-5.51Zm13.31-.42A5.21,5.21,0,0,0,63,851.35a4.23,4.23,0,0,0-2.53-.79h0a4.32,4.32,0,0,0-2.54.78,5.2,5.2,0,0,0-1.75,2.17,8.27,8.27,0,0,0,0,6.38,5.2,5.2,0,0,0,1.75,2.17,4.32,4.32,0,0,0,2.54.78h0a4.23,4.23,0,0,0,2.53-.79,5.24,5.24,0,0,0,1.72-2.18,7.58,7.58,0,0,0,.63-3.18A7.5,7.5,0,0,0,64.71,853.52Z"/><path class="cls-13" d="M67.8,837.07a9,9,0,0,1-2.88,3.48A8.26,8.26,0,0,1,60.79,842l-.24,0v-4.18l.14,0a4.93,4.93,0,0,0,2.3-1,5.48,5.48,0,0,0,1.62-2A6.48,6.48,0,0,0,65.2,832a6.32,6.32,0,0,0-.76-3.14,5.4,5.4,0,0,0-2.11-2.13,6.15,6.15,0,0,0-3.09-.76h0a5.89,5.89,0,0,0-3.05.77,5.53,5.53,0,0,0-2.09,2.12,6.09,6.09,0,0,0-.76,3.08,7.27,7.27,0,0,0,.38,2.42,5.67,5.67,0,0,0,1.14,2,8.38,8.38,0,0,0,.74.71,6.58,6.58,0,0,0,.88.61v3.85L40.2,840.17V823.35h3.69v13.26l8.93.86v-.1a6.23,6.23,0,0,1-2.2-2.62,9,9,0,0,1-.77-3.76,9.46,9.46,0,0,1,1.2-4.79,8.8,8.8,0,0,1,3.29-3.29,9.46,9.46,0,0,1,4.79-1.2h0a9.49,9.49,0,0,1,5,1.33,9.2,9.2,0,0,1,3.41,3.66,12.38,12.38,0,0,1,.18,10.37Z"/><path class="cls-13" d="M47.84,818.29V814H51V814a5.58,5.58,0,0,1-2.6-2.16,6.35,6.35,0,0,1-1-3.52,6.51,6.51,0,0,1,.47-2.55,5.39,5.39,0,0,1,1.37-2,5.68,5.68,0,0,1,2.2-1.21v-.1A6.47,6.47,0,0,1,49.33,801a6.58,6.58,0,0,1-1.39-2.21,7.4,7.4,0,0,1-.49-2.73,7,7,0,0,1,.85-3.53,6,6,0,0,1,2.37-2.34,7.3,7.3,0,0,1,3.57-.84H68.39v4.25H55.28a4.41,4.41,0,0,0-3.1,1,3.78,3.78,0,0,0-1.1,2.91,4.19,4.19,0,0,0,.57,2.2,4,4,0,0,0,1.58,1.48,4.82,4.82,0,0,0,2.3.54H68.39v4.16H55a3.61,3.61,0,0,0-3.89,3.88,4.06,4.06,0,0,0,.6,2.2,4.12,4.12,0,0,0,1.63,1.52,5.06,5.06,0,0,0,2.38.54h12.7v4.26Z"/><path class="cls-13" d="M47.84,785.28V781H51V781a5.66,5.66,0,0,1-2.6-2.17,6.33,6.33,0,0,1-1-3.52,6.58,6.58,0,0,1,.47-2.55,5.39,5.39,0,0,1,1.37-2,5.81,5.81,0,0,1,2.2-1.21v-.1A6.47,6.47,0,0,1,49.33,768a6.58,6.58,0,0,1-1.39-2.21,7.38,7.38,0,0,1-.49-2.72,7,7,0,0,1,.85-3.54,6,6,0,0,1,2.37-2.34,7.3,7.3,0,0,1,3.57-.84H68.39v4.26H55.28a4.45,4.45,0,0,0-3.1,1,3.78,3.78,0,0,0-1.1,2.91,4.17,4.17,0,0,0,.57,2.2,3.89,3.89,0,0,0,1.58,1.48,4.82,4.82,0,0,0,2.3.54H68.39v4.16H55a3.62,3.62,0,0,0-3.89,3.89,4,4,0,0,0,.6,2.19,4.12,4.12,0,0,0,1.63,1.52,5.06,5.06,0,0,0,2.38.55h12.7v4.25Z"/><rect class="cls-10" x="136.49" y="723.28" width="309.54" height="662.88"/><rect class="cls-11" x="394.24" y="774.04" width="10.11" height="100.65"/><path class="cls-14" d="M773.44,420.84H760.77v-9.91c0-1-2.39-1.77-5.3-1.77H723.2c-2.92,0-5.3.8-5.3,1.77v9.91H705.23c-3.22,0-5.85.87-5.85,1.94V468.5c0,1.07,2.63,1.95,5.85,1.95h68.21c3.21,0,5.84-.88,5.84-1.95V422.78C779.28,421.71,776.65,420.84,773.44,420.84Z"/><path class="cls-14" d="M858,420.84H845.32v-9.91c0-1-2.39-1.77-5.31-1.77H807.75c-2.92,0-5.31.8-5.31,1.77v9.91H789.78c-3.22,0-5.85.87-5.85,1.94V468.5c0,1.07,2.63,1.95,5.85,1.95H858c3.22,0,5.85-.88,5.85-1.95V422.78C863.83,421.71,861.2,420.84,858,420.84Z"/><path class="cls-14" d="M942.53,420.84H929.86v-9.91c0-1-2.38-1.77-5.3-1.77H892.29c-2.92,0-5.3.8-5.3,1.77v9.91H874.32c-3.21,0-5.85.87-5.85,1.94V468.5c0,1.07,2.64,1.95,5.85,1.95h68.21c3.21,0,5.85-.88,5.85-1.95V422.78C948.38,421.71,945.74,420.84,942.53,420.84Z"/><path class="cls-14" d="M1027.07,420.84h-12.66v-9.91c0-1-2.39-1.77-5.31-1.77H976.84c-2.92,0-5.31.8-5.31,1.77v9.91H958.87c-3.22,0-5.85.87-5.85,1.94V468.5c0,1.07,2.63,1.95,5.85,1.95h68.2c3.22,0,5.85-.88,5.85-1.95V422.78C1032.92,421.71,1030.29,420.84,1027.07,420.84Z"/><path class="cls-14" d="M1029.42,313.83h-10.25v-19c0-1.86-1.93-3.39-4.29-3.39H988.75c-2.36,0-4.29,1.53-4.29,3.39v19H974.21c-2.6,0-4.73,1.69-4.73,3.74v87.86c0,2.05,2.13,3.73,4.73,3.73h55.21c2.6,0,4.73-1.68,4.73-3.73V317.57C1034.15,315.52,1032,313.83,1029.42,313.83Z"/><path class="cls-14" d="M962.05,313.83H951.79v-19c0-1.86-1.93-3.39-4.29-3.39H921.38c-2.36,0-4.29,1.53-4.29,3.39v19H906.83c-2.6,0-4.73,1.69-4.73,3.74v87.86c0,2.05,2.13,3.73,4.73,3.73h55.22c2.6,0,4.73-1.68,4.73-3.73V317.57C966.78,315.52,964.65,313.83,962.05,313.83Z"/><path class="cls-14" d="M894.67,313.83H884.42v-19c0-1.86-1.94-3.39-4.3-3.39H854c-2.36,0-4.29,1.53-4.29,3.39v19H839.46c-2.61,0-4.74,1.69-4.74,3.74v87.86c0,2.05,2.13,3.73,4.74,3.73h55.21c2.6,0,4.73-1.68,4.73-3.73V317.57C899.4,315.52,897.27,313.83,894.67,313.83Z"/><path class="cls-14" d="M827.29,313.83H817v-19c0-1.86-1.93-3.39-4.29-3.39H786.63c-2.36,0-4.3,1.53-4.3,3.39v19H772.08c-2.6,0-4.73,1.69-4.73,3.74v87.86c0,2.05,2.13,3.73,4.73,3.73h55.21c2.61,0,4.74-1.68,4.74-3.73V317.57C832,315.52,829.9,313.83,827.29,313.83Z"/><path class="cls-14" d="M759.92,313.83H749.66v-19c0-1.86-1.93-3.39-4.29-3.39H719.25c-2.36,0-4.29,1.53-4.29,3.39v19H704.71c-2.61,0-4.74,1.69-4.74,3.74v87.86c0,2.05,2.13,3.73,4.74,3.73h55.21c2.6,0,4.73-1.68,4.73-3.73V317.57C764.65,315.52,762.52,313.83,759.92,313.83Z"/><rect class="cls-10" x="679.63" y="331.25" width="10" height="77.76"/><rect class="cls-10" x="1042.67" y="330.56" width="10" height="77.89"/><rect class="cls-10" x="859.55" y="170.66" width="15.14" height="364.98" transform="translate(1220.27 -513.97) rotate(90)"/><rect class="cls-10" x="861.23" y="218.17" width="10" height="372.94" transform="translate(1270.87 -461.6) rotate(90)"/><path class="cls-2" d="M350.72,402.85l-3.91-3.91a18.66,18.66,0,0,0,4.31-3.76c8.5-8.51,7-23.77-3.3-34.09s-25.58-11.8-34.08-3.3l0,0a18.93,18.93,0,0,0-3.76,4.31l8.68,8.68a8.33,8.33,0,0,0-.22-3.3c-.5-1.59-.74-3.76.25-4.75l-.05,0c6.25-6.26,17.48-5.18,25.07,2.42s8.68,18.82,2.43,25.08c-1,1-3.16.74-4.75.24a8.28,8.28,0,0,0-3.29-.22L318.7,370.83,299,351.15l-56.63,56.64,51.7,51.7s11.16,14.86,41-14h0l.86-.86c.28-.29.57-.56.86-.85l0,0C365.59,414,350.72,402.85,350.72,402.85Z"/><path class="cls-2" d="M516.23,402.85l-3.92-3.91a18.66,18.66,0,0,0,4.31-3.76c8.51-8.51,7-23.77-3.29-34.09s-25.59-11.8-34.09-3.3l.05,0a18.66,18.66,0,0,0-3.76,4.31l8.67,8.68a8.12,8.12,0,0,0-.22-3.3c-.49-1.59-.74-3.76.25-4.75l-.05,0c6.26-6.26,17.48-5.18,25.08,2.42s8.68,18.82,2.42,25.08c-1,1-3.15.74-4.75.24a8.28,8.28,0,0,0-3.29-.22L484.2,370.83l-19.67-19.68-56.64,56.64,51.7,51.7s11.16,14.86,41-14h0l.85-.86.86-.85v0C531.09,414,516.23,402.85,516.23,402.85Z"/><line class="cls-15" x1="1183.17" y1="745.75" x2="1501.1" y2="745.75"/><line class="cls-15" x1="1183.17" y1="725.77" x2="1501.58" y2="725.77"/><line class="cls-15" x1="1183.17" y1="781.28" x2="1386.64" y2="781.28"/><line class="cls-15" x1="1183.17" y1="755.54" x2="1387.22" y2="755.54"/><line class="cls-12" x1="1409.61" y1="755.8" x2="1409.61" y2="781.3"/><rect class="cls-13" x="1393.36" y="753.3" width="32.5" height="5"/><rect class="cls-13" x="1393.36" y="778.8" width="32.5" height="5"/><path class="cls-13" d="M1465.53,819.37a8.71,8.71,0,0,1-2.8,3.56,7.84,7.84,0,0,1-4.09,1.51l-.23,0v-4.22l.21,0a4.23,4.23,0,0,0,3.06-1.85,8.05,8.05,0,0,0,.6-7.28,4.67,4.67,0,0,0-1.65-2,4.15,4.15,0,0,0-2.4-.73h0a4.38,4.38,0,0,0-3.66,1.62,7,7,0,0,0-1.28,4.44v3.44h-3.44v-3.31a6.64,6.64,0,0,0-.57-2.82,4.58,4.58,0,0,0-1.6-1.89,4.08,4.08,0,0,0-2.32-.68h0a4.46,4.46,0,0,0-2.32.58,3.6,3.6,0,0,0-1.46,1.7,6.74,6.74,0,0,0-.5,2.72,7.11,7.11,0,0,0,.51,2.78,4.55,4.55,0,0,0,1.47,1.93,4.41,4.41,0,0,0,2.26.86l.2,0v4.14l-.22,0a8.39,8.39,0,0,1-4.12-1.49,8.29,8.29,0,0,1-2.72-3.36,11.43,11.43,0,0,1-1-4.86,12,12,0,0,1,.93-4.9,7.62,7.62,0,0,1,2.57-3.24,6.42,6.42,0,0,1,3.8-1.15h0a6,6,0,0,1,3.1.77,6.7,6.7,0,0,1,2.23,2.11,8.71,8.71,0,0,1,1.24,3h.09a8,8,0,0,1,2-5,6.28,6.28,0,0,1,4.77-1.89h0a7.32,7.32,0,0,1,4.28,1.31,8.75,8.75,0,0,1,2.93,3.6,12.63,12.63,0,0,1,1,5.3A12.87,12.87,0,0,1,1465.53,819.37Z"/><path class="cls-13" d="M1464.75,795.25a11.1,11.1,0,0,1-5,3.7,21,21,0,0,1-7.73,1.29h0a21,21,0,0,1-7.73-1.29,11.07,11.07,0,0,1-5-3.7,10.29,10.29,0,0,1,0-11.54,11.17,11.17,0,0,1,5-3.72,21,21,0,0,1,7.73-1.29h0a21,21,0,0,1,7.73,1.29,11.2,11.2,0,0,1,5,3.72,10.24,10.24,0,0,1,0,11.54Zm-3.2-9.2a8.23,8.23,0,0,0-3.75-2.17,20,20,0,0,0-5.82-.75h0a19.85,19.85,0,0,0-5.81.75,8.24,8.24,0,0,0-3.74,2.17,5.13,5.13,0,0,0,0,6.85,8.14,8.14,0,0,0,3.74,2.16,19.87,19.87,0,0,0,5.81.74h0a20,20,0,0,0,5.82-.74,8.13,8.13,0,0,0,3.75-2.16,5.13,5.13,0,0,0,0-6.85Z"/><path class="cls-13" d="M1445.52,774.91v-4.26h3.18v-.08a5.49,5.49,0,0,1-2.6-2.17,6.3,6.3,0,0,1-1-3.51,6.7,6.7,0,0,1,.47-2.55,5.45,5.45,0,0,1,1.38-2,5.81,5.81,0,0,1,2.2-1.21v-.09a6.44,6.44,0,0,1-2.16-1.48,6.6,6.6,0,0,1-1.4-2.21,7.55,7.55,0,0,1-.49-2.72,7.19,7.19,0,0,1,.85-3.54,6,6,0,0,1,2.38-2.34,7.25,7.25,0,0,1,3.57-.84h14.14v4.26H1453a4.45,4.45,0,0,0-3.1,1,3.78,3.78,0,0,0-1.1,2.91,4.26,4.26,0,0,0,.56,2.2,4,4,0,0,0,1.59,1.49,4.79,4.79,0,0,0,2.3.53h12.85v4.16h-13.42a3.61,3.61,0,0,0-3.88,3.89,4.06,4.06,0,0,0,2.22,3.71,5,5,0,0,0,2.39.55h12.69v4.26Z"/><path class="cls-13" d="M1445.52,741.9v-4.26h3.18v-.08a5.49,5.49,0,0,1-2.6-2.17,6.3,6.3,0,0,1-1-3.51,6.7,6.7,0,0,1,.47-2.55,5.33,5.33,0,0,1,1.38-2,5.68,5.68,0,0,1,2.2-1.21v-.1a6.17,6.17,0,0,1-2.16-1.48,6.56,6.56,0,0,1-1.4-2.2,7.61,7.61,0,0,1-.49-2.73,7.12,7.12,0,0,1,.85-3.53,6,6,0,0,1,2.38-2.35,7.25,7.25,0,0,1,3.57-.84h14.14v4.26H1453a4.41,4.41,0,0,0-3.1,1,3.75,3.75,0,0,0-1.1,2.91,4.25,4.25,0,0,0,.56,2.19,3.94,3.94,0,0,0,1.59,1.49,4.79,4.79,0,0,0,2.3.54h12.85v4.16h-13.42a3.84,3.84,0,0,0-2.84,1,3.88,3.88,0,0,0-1,2.84,4.06,4.06,0,0,0,2.22,3.71,5,5,0,0,0,2.39.55h12.69v4.26Z"/><line class="cls-12" x1="1521.95" y1="726.08" x2="1521.95" y2="745.61"/><rect class="cls-13" x="1505.7" y="723.58" width="32.5" height="5"/><rect class="cls-13" x="1505.7" y="743.11" width="32.5" height="5"/><path class="cls-13" d="M1575.39,787.28l-10-9.94a39,39,0,0,0-3.12-2.87,8.66,8.66,0,0,0-2.22-1.35,6,6,0,0,0-2.08-.37h0a4.48,4.48,0,0,0-2.38.64,4.43,4.43,0,0,0-1.62,1.73,5.29,5.29,0,0,0-.59,2.54,6.2,6.2,0,0,0,.68,2.92,5.5,5.5,0,0,0,1.83,2,4.65,4.65,0,0,0,2.57.74l.14,0v4.14h-.14a8,8,0,0,1-4.49-1.29,8.75,8.75,0,0,1-3.09-3.52,11.07,11.07,0,0,1-1.11-5,10.72,10.72,0,0,1,1-4.82,8.17,8.17,0,0,1,2.84-3.27,7.31,7.31,0,0,1,4.1-1.18h0a8,8,0,0,1,3,.58,12.69,12.69,0,0,1,3.19,2,56.72,56.72,0,0,1,4.25,4l7.74,7.89-2.81-1.48H1576l-1.27,1.48V768h3.69v19.29Z"/><path class="cls-13" d="M1577.81,759a8.9,8.9,0,0,1-2.88,3.48,8.1,8.1,0,0,1-4.13,1.49l-.23,0V759.8h.13a4.89,4.89,0,0,0,2.3-1,5.65,5.65,0,0,0,1.62-2,6.42,6.42,0,0,0,.6-2.8,6.32,6.32,0,0,0-.77-3.14,5.44,5.44,0,0,0-2.1-2.13,6.15,6.15,0,0,0-3.09-.76h0a6,6,0,0,0-3,.77,5.67,5.67,0,0,0-2.09,2.12,6.26,6.26,0,0,0-.76,3.09,7.53,7.53,0,0,0,.38,2.42,5.81,5.81,0,0,0,1.15,2,7,7,0,0,0,1.62,1.33v3.85l-16.25-1.39V745.27h3.69v13.27l8.92.85v-.09a6.23,6.23,0,0,1-2.19-2.63,8.78,8.78,0,0,1-.78-3.76,9.47,9.47,0,0,1,1.21-4.79,8.73,8.73,0,0,1,3.29-3.29,9.43,9.43,0,0,1,4.78-1.2h0a9.58,9.58,0,0,1,5,1.33,9.28,9.28,0,0,1,3.42,3.66,12.33,12.33,0,0,1,.17,10.37Z"/><path class="cls-13" d="M1557.85,740.21V736H1561v-.08a5.55,5.55,0,0,1-2.6-2.17,6.3,6.3,0,0,1-1-3.51,6.7,6.7,0,0,1,.47-2.55,5.25,5.25,0,0,1,1.38-2,5.73,5.73,0,0,1,2.2-1.21v-.1a6.28,6.28,0,0,1-2.16-1.47,6.6,6.6,0,0,1-1.4-2.21,7.55,7.55,0,0,1-.49-2.72,7.16,7.16,0,0,1,.85-3.54,6,6,0,0,1,2.38-2.34,7.25,7.25,0,0,1,3.57-.84h14.14v4.26h-13.11a4.44,4.44,0,0,0-3.09,1,3.75,3.75,0,0,0-1.1,2.91,4.16,4.16,0,0,0,.56,2.2,4.05,4.05,0,0,0,1.58,1.49,5,5,0,0,0,2.31.53h12.85v4.16H1565a3.61,3.61,0,0,0-3.88,3.89,4.1,4.1,0,0,0,.59,2.2,4.16,4.16,0,0,0,1.63,1.51,5.09,5.09,0,0,0,2.38.55h12.7v4.25Z"/><path class="cls-13" d="M1557.85,707.21V703H1561v-.08a5.49,5.49,0,0,1-2.6-2.17,6.3,6.3,0,0,1-1-3.51,6.7,6.7,0,0,1,.47-2.55,5.22,5.22,0,0,1,1.38-2,5.75,5.75,0,0,1,2.2-1.22v-.09a6.3,6.3,0,0,1-2.16-1.48,6.56,6.56,0,0,1-1.4-2.2,7.61,7.61,0,0,1-.49-2.73,7.12,7.12,0,0,1,.85-3.53,6,6,0,0,1,2.38-2.35,7.25,7.25,0,0,1,3.57-.84h14.14v4.26h-13.11a4.4,4.4,0,0,0-3.09,1,3.72,3.72,0,0,0-1.1,2.91,4.15,4.15,0,0,0,.56,2.19,4.05,4.05,0,0,0,1.58,1.49,4.86,4.86,0,0,0,2.31.53h12.85v4.16H1565a3.61,3.61,0,0,0-3.88,3.89,4.1,4.1,0,0,0,.59,2.2,4.16,4.16,0,0,0,1.63,1.51,5,5,0,0,0,2.38.55h12.7v4.26Z"/><line class="cls-12" x1="1214.23" y1="689.24" x2="1214.23" y2="715.92"/><rect class="cls-13" x="1197.98" y="686.74" width="32.5" height="5"/><rect class="cls-13" x="1197.98" y="713.42" width="32.5" height="5"/><path class="cls-13" d="M1270.15,753.4a8.69,8.69,0,0,1-2.79,3.56,7.87,7.87,0,0,1-4.09,1.51l-.24,0v-4.22l.22,0a4.22,4.22,0,0,0,3-1.85,7.08,7.08,0,0,0,1.2-4.27,7.25,7.25,0,0,0-.59-3,4.82,4.82,0,0,0-1.65-2,4.12,4.12,0,0,0-2.4-.73h0a4.42,4.42,0,0,0-3.67,1.62,7,7,0,0,0-1.28,4.44v3.44h-3.43v-3.31a6.64,6.64,0,0,0-.58-2.82,4.49,4.49,0,0,0-1.59-1.89,4.1,4.1,0,0,0-2.32-.68h0a4.47,4.47,0,0,0-2.33.58,3.58,3.58,0,0,0-1.45,1.7,6.58,6.58,0,0,0-.5,2.72,7.11,7.11,0,0,0,.51,2.78,4.51,4.51,0,0,0,1.46,1.93,4.45,4.45,0,0,0,2.27.86l.19,0v4.14l-.21,0A8.14,8.14,0,0,1,1243,753a11.58,11.58,0,0,1-1-4.86,12,12,0,0,1,.93-4.9,7.7,7.7,0,0,1,2.57-3.24,6.43,6.43,0,0,1,3.81-1.15h0a6,6,0,0,1,3.09.77,6.51,6.51,0,0,1,2.23,2.11,8.53,8.53,0,0,1,1.24,3h.1a8,8,0,0,1,2-5,6.28,6.28,0,0,1,4.77-1.89h0a7.3,7.3,0,0,1,4.28,1.31,8.67,8.67,0,0,1,2.93,3.6,12.63,12.63,0,0,1,1.06,5.3A12.87,12.87,0,0,1,1270.15,753.4Z"/><path class="cls-13" d="M1269.38,729.28a11.2,11.2,0,0,1-5,3.7,21,21,0,0,1-7.73,1.29h0a21,21,0,0,1-7.74-1.29,11.12,11.12,0,0,1-5-3.7,10.31,10.31,0,0,1,0-11.55,11.28,11.28,0,0,1,5-3.71,21,21,0,0,1,7.74-1.3h0a21,21,0,0,1,7.73,1.3,11.37,11.37,0,0,1,5,3.71,10.26,10.26,0,0,1,0,11.55Zm-3.2-9.2a8.33,8.33,0,0,0-3.75-2.17,20,20,0,0,0-5.82-.75h0a19.8,19.8,0,0,0-5.81.75,8.19,8.19,0,0,0-3.74,2.17,5.13,5.13,0,0,0,0,6.85,8.09,8.09,0,0,0,3.74,2.16,19.83,19.83,0,0,0,5.81.74h0a20,20,0,0,0,5.82-.74,8.23,8.23,0,0,0,3.75-2.16,5.16,5.16,0,0,0,0-6.85Z"/><path class="cls-13" d="M1250.14,708.94v-4.26h3.18v-.08a5.53,5.53,0,0,1-2.59-2.17,6.22,6.22,0,0,1-1-3.51,6.7,6.7,0,0,1,.47-2.55,5.33,5.33,0,0,1,1.38-2,5.69,5.69,0,0,1,2.19-1.21v-.09a6.65,6.65,0,0,1-2.16-1.48,6.58,6.58,0,0,1-1.39-2.21,7.35,7.35,0,0,1-.49-2.72,7.08,7.08,0,0,1,.85-3.54,6.06,6.06,0,0,1,2.37-2.34,7.31,7.31,0,0,1,3.58-.84h14.14v4.26h-13.11a4.41,4.41,0,0,0-3.09,1,3.75,3.75,0,0,0-1.11,2.91,4.17,4.17,0,0,0,.57,2.2,4,4,0,0,0,1.58,1.49,5,5,0,0,0,2.31.53h12.85v4.16h-13.42a3.62,3.62,0,0,0-3.89,3.89,4.09,4.09,0,0,0,2.23,3.71,5,5,0,0,0,2.38.55h12.7v4.26Z"/><path class="cls-13" d="M1250.14,675.93v-4.26h3.18v-.08a5.47,5.47,0,0,1-2.59-2.17,6.22,6.22,0,0,1-1-3.51,6.7,6.7,0,0,1,.47-2.55,5.22,5.22,0,0,1,1.38-2,5.57,5.57,0,0,1,2.19-1.21v-.1a6.35,6.35,0,0,1-2.16-1.48,6.54,6.54,0,0,1-1.39-2.2,7.4,7.4,0,0,1-.49-2.73,7,7,0,0,1,.85-3.53,6,6,0,0,1,2.37-2.35,7.31,7.31,0,0,1,3.58-.84h14.14v4.26h-13.11a4.36,4.36,0,0,0-3.09,1,3.72,3.72,0,0,0-1.11,2.91,4.16,4.16,0,0,0,.57,2.19,3.92,3.92,0,0,0,1.58,1.49,4.86,4.86,0,0,0,2.31.54h12.85v4.16h-13.42a3.61,3.61,0,0,0-3.89,3.88,4.09,4.09,0,0,0,2.23,3.71,5,5,0,0,0,2.38.55h12.7v4.26Z"/><line class="cls-12" x1="1073.68" y1="334.11" x2="1073.68" y2="407.74"/><rect class="cls-13" x="1057.43" y="331.61" width="32.5" height="5"/><rect class="cls-13" x="1057.43" y="405.24" width="32.5" height="5"/><path class="cls-13" d="M1129.82,419.88a9.85,9.85,0,0,1-2.49,3.56,11.74,11.74,0,0,1-4.37,2.47,20.58,20.58,0,0,1-6.49.9h0a21.76,21.76,0,0,1-8.06-1.34,11,11,0,0,1-5.12-3.87,10.25,10.25,0,0,1-1.76-6,11.18,11.18,0,0,1,.88-4.54,9.21,9.21,0,0,1,2.49-3.37,8.38,8.38,0,0,1,3.7-1.8l.23,0v4.4l-.2.07a5,5,0,0,0-3,2.91,6.51,6.51,0,0,0-.42,2.41,5.54,5.54,0,0,0,1.4,3.91,8.47,8.47,0,0,0,3.72,2.25,18.62,18.62,0,0,0,5.13.81l.44,0h.46l4.65-.84a6,6,0,0,0,3-.79,6,6,0,0,0,0-10.36,5.55,5.55,0,0,0-3-.81h0a5.83,5.83,0,0,0-3,.77,5.43,5.43,0,0,0-2.06,2.11,6.12,6.12,0,0,0-.75,3,6.32,6.32,0,0,0,.74,3.08,5.54,5.54,0,0,0,2,2.17,5.65,5.65,0,0,0,3,.79h0v1.17h-4.79v-.41a7.05,7.05,0,0,1-2.29-1.68,8.21,8.21,0,0,1-1.63-2.66,9.22,9.22,0,0,1-.61-3.45,9.51,9.51,0,0,1,1.2-4.81,8.76,8.76,0,0,1,3.3-3.29,9.43,9.43,0,0,1,4.76-1.2h0a9.36,9.36,0,0,1,5,1.34,9.52,9.52,0,0,1,3.43,3.66,11,11,0,0,1,1.25,5.29A11.28,11.28,0,0,1,1129.82,419.88Z"/><path class="cls-13" d="M1129.55,396.05a8.83,8.83,0,0,1-2.88,3.48,8.15,8.15,0,0,1-4.13,1.5h-.23v-4.17l.13,0a4.93,4.93,0,0,0,2.3-1,5.65,5.65,0,0,0,1.62-2,6.9,6.9,0,0,0-.17-5.94,5.47,5.47,0,0,0-2.11-2.13A6.12,6.12,0,0,0,1121,385h0a6,6,0,0,0-3,.77,5.67,5.67,0,0,0-2.09,2.12,6.15,6.15,0,0,0-.76,3.09,7.53,7.53,0,0,0,.38,2.42,5.63,5.63,0,0,0,1.14,2,6.24,6.24,0,0,0,.74.71,6.65,6.65,0,0,0,.88.62v3.85L1102,399.15V382.33h3.7V395.6l8.92.86v-.1a6.32,6.32,0,0,1-2.2-2.63,8.93,8.93,0,0,1-.77-3.76,9.4,9.4,0,0,1,1.2-4.78,8.83,8.83,0,0,1,3.29-3.3,9.46,9.46,0,0,1,4.79-1.2h0a9.58,9.58,0,0,1,5,1.33,9.28,9.28,0,0,1,3.42,3.66,12.33,12.33,0,0,1,.17,10.37Z"/><path class="cls-13" d="M1109.59,377.28V373h3.18v-.08a5.53,5.53,0,0,1-2.59-2.17,6.3,6.3,0,0,1-1-3.51,6.7,6.7,0,0,1,.47-2.55,5.33,5.33,0,0,1,1.38-2,5.69,5.69,0,0,1,2.19-1.21v-.09a6.65,6.65,0,0,1-2.16-1.48,6.58,6.58,0,0,1-1.39-2.21,7.35,7.35,0,0,1-.49-2.72,7.08,7.08,0,0,1,.85-3.54,6.06,6.06,0,0,1,2.37-2.34,7.31,7.31,0,0,1,3.58-.84h14.14v4.26H1117a4.41,4.41,0,0,0-3.09,1,3.75,3.75,0,0,0-1.11,2.91,4.17,4.17,0,0,0,.57,2.2,4,4,0,0,0,1.58,1.49,5,5,0,0,0,2.31.53h12.85v4.16h-13.42a3.62,3.62,0,0,0-3.89,3.89,4.1,4.1,0,0,0,.6,2.2,4.16,4.16,0,0,0,1.63,1.51,5,5,0,0,0,2.38.55h12.7v4.26Z"/><path class="cls-13" d="M1109.59,344.27V340h3.18v-.08a5.47,5.47,0,0,1-2.59-2.17,6.3,6.3,0,0,1-1-3.51,6.7,6.7,0,0,1,.47-2.55,5.22,5.22,0,0,1,1.38-2,5.57,5.57,0,0,1,2.19-1.21v-.1a6.46,6.46,0,0,1-3.55-3.68,7.4,7.4,0,0,1-.49-2.73,7,7,0,0,1,.85-3.53,6,6,0,0,1,2.37-2.35,7.31,7.31,0,0,1,3.58-.84h14.14v4.26H1117a4.36,4.36,0,0,0-3.09,1,3.72,3.72,0,0,0-1.11,2.91,4.16,4.16,0,0,0,.57,2.19,3.92,3.92,0,0,0,1.58,1.49,4.86,4.86,0,0,0,2.31.54h12.85v4.16h-13.42a3.61,3.61,0,0,0-3.89,3.88,4.1,4.1,0,0,0,.6,2.2,4.16,4.16,0,0,0,1.63,1.51,5,5,0,0,0,2.38.55h12.7v4.26Z"/><circle class="cls-13" cx="494.76" cy="365.62" r="7.01"/><circle class="cls-13" cx="328.36" cy="365.62" r="7.01"/></svg>