<svg id="Ebene_1" data-name="Ebene 1" xmlns="http://www.w3.org/2000/svg" viewBox="0 0 1490 1260.04"><defs><style>.cls-1,.cls-11,.cls-9{fill:none;stroke-miterlimit:10;}.cls-1{stroke:gray;stroke-dasharray:19.18;}.cls-1,.cls-11{stroke-width:5px;}.cls-10,.cls-2{fill:#68442a;}.cls-2,.cls-3,.cls-7{opacity:0.5;}.cls-4{fill:#87603d;}.cls-5{fill:gray;}.cls-6{fill:#f6f6f6;}.cls-7{fill:#e8e8e8;}.cls-8{fill:#595959;}.cls-9{stroke:#87603d;stroke-linecap:round;stroke-width:10px;}.cls-11{stroke:#454545;}.cls-12{fill:#454545;}.cls-13{fill:#a67c52;}</style></defs><line class="cls-1" x1="242.24" y1="116.06" x2="102.46" y2="116.06"/><line class="cls-1" x1="242.24" y1="129.06" x2="102.46" y2="129.06"/><line class="cls-1" x1="242.24" y1="415.36" x2="102.46" y2="415.36"/><line class="cls-1" x1="242.24" y1="428.36" x2="102.46" y2="428.36"/><line class="cls-1" x1="242.24" y1="777.54" x2="102.46" y2="777.54"/><line class="cls-1" x1="242.24" y1="790.54" x2="102.46" y2="790.54"/><line class="cls-1" x1="242.24" y1="1154.22" x2="102.46" y2="1154.22"/><line class="cls-1" x1="242.24" y1="1167.21" x2="102.46" y2="1167.21"/><rect class="cls-2" x="249.54" y="113.57" width="440" height="1039.79"/><rect class="cls-2" x="690" y="113.57" width="159.54" height="318.1"/><g class="cls-3"><path class="cls-4" d="M1124.63,431.22H1104.7v10h10v13h10V431.22Zm-39.85,0h-19.93v10h19.93v-10Zm-39.85,0H1025v10h19.93v-10Zm-39.86,0H985.15v10h19.92v-10Zm-39.85,0H945.3v10h19.92v-10Zm-39.85,0H905.45v10h19.92v-10Zm-39.85,0H865.6v10h19.92v-10Zm-39.85,0H825.74v10h19.93v-10Zm-39.85,0H785.89v10h19.93v-10Zm-39.85,0H746v10H766v-10Zm-39.85,0H706.19v10h19.93v-10Zm-36.87,0h-10v10h0v3h10V431.22Zm0,32.88h-10V484h10V464.1Zm0,39.85h-10v19.92h10V504Zm0,39.85h-10v19.92h10V543.8Zm0,39.85h-10v19.93h10V583.65Zm0,39.85h-10v19.93h10V623.5Zm0,39.85h-10v19.93h10V663.35Zm0,39.85h-10v19.93h10V703.2Zm0,39.85h-10V763h10V743.05Zm18.42,21.44H687.74v10h19.93v-10Zm39.85,0H727.59v10h19.93v-10Zm39.85,0H767.44v10h19.93v-10Zm39.85,0H807.29v10h19.93v-10Zm39.85,0H847.14v10h19.93v-10Zm39.85,0H887v10h19.93v-10Zm39.85,0H926.85v10h19.92v-10Zm39.85,0H966.7v10h19.92v-10Zm39.85,0h-19.92v10h19.92v-10Zm39.85,0H1046.4v10h19.92v-10Zm39.85,0h-19.92v10h19.92v-10Zm18.46-11.43h-10V773h10V753.06Zm0-39.85h-10v19.92h10V713.21Zm0-39.85h-10v19.92h10V673.36Zm0-39.86h-10v19.93h10V633.5Zm0-39.85h-10v19.93h10V593.65Zm0-39.85h-10v19.93h10V553.8Zm0-39.85h-10v19.93h10V514Zm0-39.85h-10V494h10V474.1Z"/></g><rect class="cls-5" x="354.49" y="472.75" width="260" height="340" rx="25.26" transform="translate(1127.24 158.26) rotate(90)"/><rect class="cls-5" x="292.38" y="523.29" width="169.78" height="125.58" rx="12.4" transform="translate(963.35 208.8) rotate(90)"/><path class="cls-6" d="M367.12,611.26h8.75v56.37h-8.75Zm8.21,27h.82l22.69-27h10.39l-21.75,25.47h-1.1l-11.05,12.73Zm5.35,2.62,6.25-6,24.18,32.82H400.25Z"/><path class="cls-6" d="M420.58,665.85a17.6,17.6,0,0,1-6.82-7.38,25,25,0,0,1-2.42-11.39V647a24.69,24.69,0,0,1,2.44-11.33,17.66,17.66,0,0,1,6.84-7.34,21.67,21.67,0,0,1,20.47,0,17.4,17.4,0,0,1,6.83,7.32A24.65,24.65,0,0,1,450.37,647v.08a24.66,24.66,0,0,1-2.45,11.4,17.74,17.74,0,0,1-6.81,7.37,21.56,21.56,0,0,1-20.53,0Zm16-6.19a10.81,10.81,0,0,0,3.75-4.87,20.1,20.1,0,0,0,1.32-7.71V647a20.08,20.08,0,0,0-1.32-7.68,10.59,10.59,0,0,0-3.79-4.84,10,10,0,0,0-5.75-1.66,9.78,9.78,0,0,0-5.68,1.68,10.94,10.94,0,0,0-3.81,4.84A19.33,19.33,0,0,0,420,647v.08a19.71,19.71,0,0,0,1.34,7.71,10.78,10.78,0,0,0,3.81,4.87,10,10,0,0,0,5.78,1.68A9.78,9.78,0,0,0,436.62,659.66Z"/><path class="cls-6" d="M464.17,665.83a17.29,17.29,0,0,1-6.75-7.42A25.48,25.48,0,0,1,455.05,647v0a24.7,24.7,0,0,1,2.41-11.29,17.49,17.49,0,0,1,6.77-7.36,19.71,19.71,0,0,1,10.24-2.6,19.48,19.48,0,0,1,9.12,2,15.89,15.89,0,0,1,6,5.33,15.39,15.39,0,0,1,2.54,7.19l0,.31h-8.08l-.08-.35a10,10,0,0,0-3-5.21,9.16,9.16,0,0,0-6.5-2.21,9.55,9.55,0,0,0-5.69,1.74A11.32,11.32,0,0,0,465,639.5a19.63,19.63,0,0,0-1.34,7.58v0a19.41,19.41,0,0,0,1.36,7.67,10.92,10.92,0,0,0,3.81,4.87,9.86,9.86,0,0,0,5.72,1.68,9.41,9.41,0,0,0,6.31-2.05,9.82,9.82,0,0,0,3.19-5.38l0-.31h8.12v.28a15.73,15.73,0,0,1-2.79,7.4,16.54,16.54,0,0,1-6.13,5.23,19.13,19.13,0,0,1-8.77,1.94A20,20,0,0,1,464.17,665.83Z"/><path class="cls-6" d="M498.57,611.26h8.48v22h.19a12.12,12.12,0,0,1,4.86-5.57,15,15,0,0,1,7.88-2,14.07,14.07,0,0,1,7.67,2,13.85,13.85,0,0,1,5.08,5.76,19.55,19.55,0,0,1,1.82,8.67v25.4h-8.48V643.84c0-3.42-.82-6.07-2.46-8a8.65,8.65,0,0,0-6.92-2.85,9,9,0,0,0-8.43,5.15,12.5,12.5,0,0,0-1.21,5.67v23.79h-8.48Z"/><path class="cls-6" d="M549.88,665.85a17,17,0,0,1-6.68-7.38,25.54,25.54,0,0,1-2.33-11.27v0a25.43,25.43,0,0,1,2.35-11.23,17.75,17.75,0,0,1,6.6-7.5,18.35,18.35,0,0,1,10-2.68,18.57,18.57,0,0,1,9.94,2.56,16.9,16.9,0,0,1,6.43,7.23,24.53,24.53,0,0,1,2.26,10.84v2.85h-33.4v-6h29.3l-4.18,5.59v-3.29a17.39,17.39,0,0,0-1.31-7.2,9.31,9.31,0,0,0-3.63-4.28,10.15,10.15,0,0,0-5.37-1.41,9.75,9.75,0,0,0-9.14,5.84,16.38,16.38,0,0,0-1.37,7v3.29a15.72,15.72,0,0,0,1.35,6.81,9.83,9.83,0,0,0,3.85,4.34,11.21,11.21,0,0,0,5.89,1.5,11.87,11.87,0,0,0,4.42-.76,9.25,9.25,0,0,0,3.18-2,7.09,7.09,0,0,0,1.78-2.83l.12-.32h8l-.07.43a14,14,0,0,1-1.92,4.65,16,16,0,0,1-3.65,4,17.41,17.41,0,0,1-5.29,2.79,21.38,21.38,0,0,1-6.8,1A19.88,19.88,0,0,1,549.88,665.85Z"/><path class="cls-6" d="M584.9,626.53h8.51v7h.16a10.87,10.87,0,0,1,3.48-5.72,9.07,9.07,0,0,1,6-2.09,12.55,12.55,0,0,1,1.7.1,9.6,9.6,0,0,1,1.23.21v7.85a7.24,7.24,0,0,0-1.52-.33,17.49,17.49,0,0,0-2.27-.13,9.21,9.21,0,0,0-4.69,1.15,7.54,7.54,0,0,0-3,3.32,11.69,11.69,0,0,0-1.06,5.21v24.5H584.9Z"/><rect class="cls-5" x="690.42" y="546.66" width="14.82" height="119.12"/><path class="cls-7" d="M264,906.22V881.65a40.86,40.86,0,0,1,40.87-40.86H553.18A40.86,40.86,0,0,1,594,881.65v48.27a40.86,40.86,0,0,1-40.86,40.87H304.91A40.87,40.87,0,0,1,264,929.92v-23.7"/><rect class="cls-7" x="264.04" y="979.04" width="330" height="130" rx="40.86"/><circle class="cls-8" cx="296.4" cy="888.6" r="22.11"/><line class="cls-9" x1="893.1" y1="272.16" x2="979.94" y2="272.16"/><polygon class="cls-4" points="972.64 297.1 1015.82 272.17 972.64 247.23 972.64 297.1"/><line class="cls-9" x1="730.41" y1="606.22" x2="817.25" y2="606.22"/><polygon class="cls-4" points="809.95 631.15 853.13 606.22 809.95 581.29 809.95 631.15"/><g class="cls-3"><path class="cls-4" d="M679,787.87v19.48h10V798c1.86,0,3.71.12,5.55.2l.46-10c-5.3-.24-10.65-.36-16-.36Zm10,39H679v19.48h10V826.83Zm0,38.95H679v19.48h10V865.78Zm0,39H679v19.48h10V904.74Zm0,39H679v19.48h10V943.7Zm0,39H679v19.48h10V982.66Zm0,39H679v19.48h10v-19.48Zm0,39H679v19.48h10v-19.48Zm0,39H679V1119h10v-19.48Zm0,39H679v3.57h0v10h0l10,0V1138.5Zm34.85,3.4-19.48.07,0,10,7.47,0h.31l11.7,0,0-10Zm39-.14-19.48.07,0,10,19.48-.08,0-10Zm39-.14-19.48.07,0,10,8.87,0h.43l10.18,0,0-10Zm38.95-.14-19.48.07,0,10,19-.06h.46l0-10Zm39-.14-19.48.07,0,10,12.85,0h.16l6.47,0,0-10Zm39-.14-19.48.07,0,10,6,0h.22l13.22,0,0-10Zm39-.14-19.48.07,0,10h.94l18.54-.07,0-10Zm39-.14L977,1141l0,10,10.72,0h.83l7.92,0,0-10Zm39-.14-19.48.07,0,10,19.48-.07,0-10Zm9.26-18.49-10,.88c.56,6.26.93,12.6,1.1,18.85l10-.28c-.1-3.52-.25-7-.47-10.53h0v-.13h0v-.26h0v-1.44h0c-.15-2.35-.34-4.7-.54-7Zm-5.71-38.51-9.78,2c1.28,6.17,2.39,12.43,3.31,18.61l9.89-1.47c-.19-1.28-.39-2.54-.59-3.82h0c0-.32-.09-.62-.15-.93v0l0-.11v0l0-.11v0l0-.11v-.16c0-.15,0-.33-.08-.49v0l0-.1v-.18l0-.09v-.34l0-.08v-.2l0-.16v-.2l0-.08v-.28l0-.07v-.21l0-.08v-.21l0-.13v-.21l0-.08v-.21l0-.08v-.2l0-.09v-.2l0-.14v0l0-.11v0l0-.1V1093l0-.09v-.06l0-.09v-.19l0-.11v0l0-.29v0l0-.12v0l0-.1v0l0-.1v0l0-.1v0l0-.1v0l0-.11v0c0-.15,0-.3-.08-.44v0l0-.13v0l0-.11v0l0-.12v0l0-.12v0l0-.13v0c0-.19-.07-.39-.11-.59h0l0-.13v0l0-.13v0l0-.13v0l0-.13h0c0-.25-.09-.5-.14-.75h0l0-.14h0l0-.14h0q-.39-2-.81-4Zm-10.08-37.62-9.49,3.12c2,6,3.79,12.09,5.41,18.14l9.65-2.59h0v-.07l0-.15,0,0,0-.08,0-.06,0-.08v0l0-.09v0l0-.09,0,0,0-.09v0l0-.1v0c0-.2-.11-.41-.17-.62v0l0-.11v0l0-.11v0l0-.11v0l0-.11h0l-.21-.78h0l0-.12h0l0-.12h0l0-.12v0c-.08-.26-.15-.51-.22-.77h0l0-.13h0l0-.12v0l0-.11v0l0-.12h0c-.08-.27-.14-.51-.22-.77v0l0-.11v0l0-.1v0l0-.11v0l0-.11v0l-.14-.5h0l0-.11v0l0-.1v0l0-.09v0l0-.1v0l0-.09v0l0-.1v0l0-.11h0l-.07-.24v0l0-.09,0,0,0-.08,0-.06,0-.07,0-.06,0-.08,0-.06,0-.08,0-.06,0-.08,0-.06,0-.07,0-.08V1056l0-.14,0-.05,0-.08v-.06l0-.08,0-.07,0-.07,0-.06,0-.08,0-.06,0-.08,0-.06,0-.09v0l0-.1v0l-.09-.28v0l0-.11v0l0-.1v0l0-.1,0,0,0-.1v0l0-.11v0l0-.12v0c0-.14-.09-.29-.13-.43v0l0-.12v0l0-.11v0l0-.11v0l0-.12v0l0-.12v0l-.18-.57h0l0-.13v0l0-.12v0l0-.12v0l0-.12v0l0-.14h0c0-.15-.09-.29-.14-.43h0l0-.13v0l0-.11v0l0-.12v0l0-.11v0l0-.12v0c0-.14-.09-.28-.14-.43h0l0-.14v0l0-.12,0,0,0-.1v0l0-.1,0,0,0-.11v0l0-.12v0l-.09-.29h0l0-.13v0l0-.1,0,0,0-.09,0-.06,0-.08,0-.06,0-.07,0-.07,0-.07,0-.07,0-.06,0-.07,0-.06-.06-.18v0l0-.09,0,0,0-.1v0l0-.09,0,0,0-.1v0l0-.1v0l0-.11h0l-.08-.26Zm-14.15-36.27-9.1,4.12c2.61,5.74,5.08,11.62,7.36,17.46l9.31-3.64-.21-.51v0l0-.1,0,0,0-.09,0,0,0-.09,0,0,0-.08,0-.06,0-.07,0-.07,0-.06,0-.09,0,0,0-.13v0l0-.11v0l0-.1,0,0,0-.1v0l0-.1,0,0,0-.11v0l-.05-.12h0c-.1-.24-.19-.47-.28-.71h0l-.06-.14h0l-.06-.14h0q-2.94-7.34-6.22-14.55Zm-17.9-34.59-8.63,5.05c3.19,5.45,6.27,11,9.16,16.61l8.87-4.6h0l-.06-.13h0l-.14-.26,0,0,0-.09,0-.05,0-.07,0-.07,0-.06,0-.07,0,0,0-.08,0,0,0-.08,0,0,0-.1h0l-.38-.72h0q-2.58-4.9-5.3-9.75h0l-.06-.11v0l-.06-.1v0l-.06-.1v0l-.06-.1h0l-.18-.33v0l0-.07,0-.06,0-.06,0-.06,0-.06,0-.07,0-.06,0-.07,0,0,0-.09,0,0L999,979v0l-.07-.12h0c-.68-1.19-1.37-2.37-2.06-3.56Zm-21.37-32.56-8.06,5.9c3.72,5.09,7.36,10.34,10.81,15.59l8.35-5.48c-2.6-4-5.27-7.87-8-11.75h0l-.08-.11h0l-.08-.1h0c-.19-.26-.37-.51-.55-.78h0l-.07-.1v0l-.07-.1h0l-.07-.1,0,0-.07-.09v0l-.07-.1h0l-.39-.55h0l-.07-.09,0,0-.06-.09,0,0-.06-.08,0,0-.06-.09,0,0-.06-.08,0,0-.06-.09h0l-.23-.31v0l-.06-.08,0,0-.06-.08,0,0,0-.07,0,0-.05-.06,0-.06,0-.06,0-.05,0-.07,0-.05-.05-.06,0-.07,0,0-.06-.07,0-.07-.07-.09ZM951,912.5l-7.43,6.67c4.21,4.69,8.35,9.55,12.32,14.44l7.76-6.3Q957.5,919.75,951,912.5Zm-27.43-27.64-6.73,7.38c4.65,4.24,9.26,8.66,13.7,13.13l7.09-7L936,896.72h0l-.1-.1h0l-.09-.1h0l-.1-.1h0c-.21-.22-.43-.43-.64-.64h0l-.1-.1h0l-.09-.09,0,0-.09-.09h0l-.09-.09v0l-.1-.09h0l-.1-.1h0l-.43-.42h0l-.09-.09,0,0-.08-.08,0,0-.08-.08,0,0-.07-.08,0,0-.08-.08,0,0-.08-.08,0,0-.1-.1h0l-.32-.31,0,0-.09-.08,0,0-.08-.07,0,0-.08-.07,0,0-.07-.07,0,0-.07-.06,0,0-.08-.07,0,0-.08-.08,0,0-.1-.1h0l-.11-.11h0l-.1-.1,0,0-.08-.07,0,0-.06-.06,0,0-.07-.06,0,0-.06-.06-.05,0-.06,0,0-.05-.06,0,0-.05-.06-.06,0,0-.06-.06-.05,0-.06-.06-.09-.09-.06-.05,0,0-.06-.05-.05,0-.06,0-.05-.05,0,0,0-.05-.06,0,0-.06-.05,0-.06-.06,0,0-.06-.06,0,0-.06-.06,0,0-.06-.06,0,0-.13-.12,0,0-.06-.06,0,0-.06-.06,0,0-.06-.06,0,0-.06-.06-.05,0-.06-.06,0,0-.06-.06,0,0-.06-.06,0,0-.06-.06,0,0-.07-.07,0,0-.25-.25,0,0-.07-.07,0,0-.07-.06,0,0-.06-.06,0,0L928,889l0,0-.06-.07,0,0-.07-.07,0,0-.06-.06,0,0-.07-.07,0,0-.37-.35,0,0-.08-.07,0,0L927,888l0,0-.07-.06,0,0-.07-.07,0,0-.07-.07,0,0-.07-.07,0,0-.08-.07h0l-.38-.35,0,0-.07-.07,0,0-.08-.06,0,0-.07-.07,0,0-.07-.07,0,0-.07-.07,0,0-.08-.06,0,0-.09-.07h0l-.39-.37h0l-.08-.08,0,0-.08-.07,0,0-.08-.07,0,0-.08-.07,0,0-.08-.07,0,0-.08-.08,0,0-.08-.08h0l-.5-.45h0l-.09-.08h0l0,0ZM893.49,860.1l-6,8c5.05,3.75,10.08,7.68,15,11.69l6.35-7.72q-1.82-1.5-3.66-3h0l-.11-.09h0l-.11-.09s0,0,0,0l-.11-.1h0l-.6-.47h0l-.1-.08,0,0-.1-.07,0,0-.09-.07,0,0-.09-.07,0,0-.08-.07,0,0-.08-.07,0,0-.1-.07,0,0-.23-.18,0,0-.09-.08,0,0-.09-.07,0,0-.07-.06-.05,0-.07-.06,0,0-.07-.06-.05,0-.07-.06-.05,0-.07,0,0,0-.07-.05,0,0-.08-.07,0,0-.11-.09h0l-.11-.09,0,0-.07-.06,0,0-.07-.05,0,0-.06,0-.06,0-.06,0,0,0-.06-.05-.06,0-.06,0,0,0-.07,0,0,0-.07,0,0,0-.08-.06,0,0-.11-.09,0,0-.09-.07,0,0-.07-.06,0,0-.08-.06,0,0-.08-.06,0,0-.07-.06-.05,0L900,865l0,0-.08-.06,0,0-.08-.07,0,0-.1-.08h0l-.36-.28h0l-.11-.09h0l-.1-.08h0l-.1-.08,0,0-.1-.07,0,0-.11-.08h0l-.12-.08h0c-1.65-1.26-3.31-2.52-5-3.76Zm-32.42-21.57-5.1,8.59c5.41,3.21,10.81,6.61,16.06,10.1l5.53-8.32c-1.5-1-3-2-4.51-3h0q-5.91-3.81-12-7.41Zm-34.48-18.1-4.17,9.08c5.71,2.62,11.43,5.44,17,8.37l4.64-8.85q-8.61-4.51-17.48-8.6Zm-36.2-14.34-3.17,9.48c5.94,2,11.93,4.18,17.78,6.5l3.68-9.29c-2-.79-4-1.55-5.95-2.3h0l-.14-.05h0l-.13,0h0l-.13,0h0l-.13-.05h0l-.13,0h0l-.13-.05h0l-.56-.21h0l-.11,0,0,0-.1,0,0,0-.09,0-.06,0-.08,0-.06,0-.08,0-.06,0-.07,0-.07,0-.07,0-.07,0-.06,0-.08,0-.06,0-.08,0,0,0-.08,0h0l-.35-.13h0l-.1,0h0l-.1,0h0l-.09,0-.05,0-.09,0,0,0-.09,0-.05,0-.09,0,0,0-.1,0,0,0-.1,0h0l-.1,0h0l-.11,0h0l-.64-.23h0l-.1,0h0l-.1,0h0l-.09,0,0,0-.1,0,0,0-.09,0-.05,0-.09,0-.05,0-.09,0,0,0-.09,0h0l-.09,0h0l-.35-.12h0l-.08,0,0,0-.08,0-.06,0-.07,0-.07,0-.07,0-.07,0-.07,0-.07,0-.07,0-.07,0-.07,0-.08,0,0,0-.09,0,0,0-.1,0h0l-.11,0h0l-4-1.38Zm-37.55-10.32-2.11,9.77c6.13,1.33,12.31,2.85,18.38,4.51l2.65-9.63q-2.46-.67-4.93-1.32h0l-.14,0h0l-.13,0h0l-.13,0h0l-.13,0h0l-.13,0h0l-1.24-.31h0l-.13,0h0l-.12,0h0l-.12,0h0l-.12,0h0l-.12,0h0l-.12,0h0l-.12,0h0l-.13,0h0l-1.38-.35h0l-.13,0h0l-.13,0h0l-.13,0h0l-.13,0h0l-.13,0h0q-4.41-1.06-8.87-2Zm-38.46-6.1-1,9.94c6.24.63,12.56,1.46,18.76,2.44l1.57-9.86c-3.18-.51-6.36-1-9.57-1.39h0l-.13,0h0l-.12,0h-.62l-.1,0h0l-.1,0h-1.51l-.11,0h0l-.11,0h-.48l-.13,0h0l-.13,0h0l-.13,0h-.16s0,0,0,0H720q-2.81-.33-5.62-.62Z"/></g><path class="cls-9" d="M730.41,937.26h0a118.53,118.53,0,0,1,113.15,53.29"/><polygon class="cls-4" points="817.37 995.64 859.13 1022.88 861.85 973.1 817.37 995.64"/><rect class="cls-10" x="249.54" y="775.04" width="439.94" height="18"/><rect class="cls-10" x="249.54" y="1151.71" width="440.78" height="18"/><line class="cls-11" x1="225.39" y1="116.03" x2="225.39" y2="1149.42"/><rect class="cls-12" x="209.14" y="113.53" width="32.5" height="5"/><rect class="cls-12" x="209.14" y="1146.92" width="32.5" height="5"/><path class="cls-12" d="M192.69,698.76v.1l5.08,7.36h-4.16l-5.28-7.42v-4.34h28.19v4.3Z"/><path class="cls-12" d="M192.69,680.48v.09l5.08,7.37h-4.16l-5.28-7.42v-4.34h28.19v4.3Z"/><path class="cls-12" d="M213.51,669.34l-10-9.94a38.85,38.85,0,0,0-3.13-2.87,8.8,8.8,0,0,0-2.21-1.35,6,6,0,0,0-2.08-.37h0a4.41,4.41,0,0,0-4,2.37,5.25,5.25,0,0,0-.58,2.53,6.14,6.14,0,0,0,.68,2.92,5.45,5.45,0,0,0,1.83,2,4.65,4.65,0,0,0,2.57.74l.13,0v4.14h-.13a8.06,8.06,0,0,1-4.5-1.29,8.76,8.76,0,0,1-3.08-3.53,11,11,0,0,1-1.12-5,10.72,10.72,0,0,1,1-4.82,8.17,8.17,0,0,1,2.84-3.27,7.31,7.31,0,0,1,4.09-1.18h0a8,8,0,0,1,3,.58,13.06,13.06,0,0,1,3.18,2q1.74,1.42,4.26,4l7.73,7.89-2.81-1.48h2.81l-1.27,1.48V650.05h3.7v19.29Z"/><path class="cls-12" d="M210.91,633.54v14.1h-3.83l-3.75-2.39-3.75-2.4-3.75-2.39-3.75-2.4-3.75-2.39v-6.33h18.89v-3.9h3.69v3.9h5.61v4.2Zm-3.61,0H191.81v.12l3.08,2,3.06,2,3.08,2,3.07,2,3.08,2h.12Z"/><path class="cls-12" d="M196,622.25V618h3.18v-.08a5.53,5.53,0,0,1-2.59-2.17,6.23,6.23,0,0,1-1-3.52,6.68,6.68,0,0,1,.47-2.54,5.35,5.35,0,0,1,1.37-2,5.81,5.81,0,0,1,2.2-1.21v-.1a6.47,6.47,0,0,1-2.16-1.47,6.58,6.58,0,0,1-1.39-2.21,7.38,7.38,0,0,1-.49-2.72,7.05,7.05,0,0,1,.85-3.54,6,6,0,0,1,2.37-2.34,7.31,7.31,0,0,1,3.58-.84h14.14v4.26H203.41a4.41,4.41,0,0,0-3.09,1,3.75,3.75,0,0,0-1.11,2.91,4.17,4.17,0,0,0,.57,2.2,3.89,3.89,0,0,0,1.58,1.48,4.85,4.85,0,0,0,2.3.54h12.86v4.16H203.1a3.62,3.62,0,0,0-3.89,3.89,4.1,4.1,0,0,0,.6,2.2,4.17,4.17,0,0,0,1.63,1.51,5.06,5.06,0,0,0,2.38.55h12.7v4.25Z"/><path class="cls-12" d="M196,589.25V585h3.18v-.08a5.53,5.53,0,0,1-2.59-2.17,6.22,6.22,0,0,1-1-3.51,6.7,6.7,0,0,1,.47-2.55,5.43,5.43,0,0,1,1.37-2,5.81,5.81,0,0,1,2.2-1.21v-.09a6.65,6.65,0,0,1-2.16-1.48,6.58,6.58,0,0,1-1.39-2.21,7.35,7.35,0,0,1-.49-2.72,7.08,7.08,0,0,1,.85-3.54,6,6,0,0,1,2.37-2.34,7.31,7.31,0,0,1,3.58-.84h14.14v4.26H203.41a4.41,4.41,0,0,0-3.09,1,3.75,3.75,0,0,0-1.11,2.91,4.17,4.17,0,0,0,.57,2.2,4,4,0,0,0,1.58,1.49,5,5,0,0,0,2.3.53h12.86v4.16H203.1a3.62,3.62,0,0,0-3.89,3.89,4.09,4.09,0,0,0,2.23,3.71,5,5,0,0,0,2.38.55h12.7v4.26Z"/><line class="cls-11" x1="168.36" y1="133.98" x2="168.36" y2="410.85"/><rect class="cls-12" x="152.11" y="131.48" width="32.5" height="5"/><rect class="cls-12" x="152.11" y="408.35" width="32.5" height="5"/><path class="cls-12" d="M30.76,167.75v.1l5.08,7.36H31.68l-5.28-7.42v-4.34H54.59v4.3Z"/><path class="cls-12" d="M54,152a9,9,0,0,1-2.86,3.77A6.85,6.85,0,0,1,47,157.09h0a6.82,6.82,0,0,1-3.25-.79,7.31,7.31,0,0,1-2.5-2.2,8.33,8.33,0,0,1-1.42-3.24h-.1a7.64,7.64,0,0,1-2.33,3.78,5.81,5.81,0,0,1-3.9,1.41h0a6.3,6.3,0,0,1-3.82-1.23,8.19,8.19,0,0,1-2.65-3.41,13.27,13.27,0,0,1,0-10A8.25,8.25,0,0,1,29.55,138a6.3,6.3,0,0,1,3.82-1.23h0a5.81,5.81,0,0,1,3.9,1.41A7.54,7.54,0,0,1,39.64,142h.1a8.18,8.18,0,0,1,1.42-3.25,7.38,7.38,0,0,1,2.5-2.19,6.71,6.71,0,0,1,3.25-.79h0a6.84,6.84,0,0,1,4.21,1.36A8.91,8.91,0,0,1,54,140.91a15.31,15.31,0,0,1,0,11ZM37.6,143.68a4.5,4.5,0,0,0-1.54-1.86,3.91,3.91,0,0,0-2.26-.67h0a3.88,3.88,0,0,0-2.26.67A4.58,4.58,0,0,0,30,143.69a6.26,6.26,0,0,0-.56,2.73,6.33,6.33,0,0,0,.56,2.76A4.55,4.55,0,0,0,31.5,151a3.89,3.89,0,0,0,2.26.68h0a3.91,3.91,0,0,0,2.26-.68,4.47,4.47,0,0,0,1.54-1.85,6.46,6.46,0,0,0,.56-2.77A6.38,6.38,0,0,0,37.6,143.68Zm13.31-.43a5.21,5.21,0,0,0-1.73-2.17,4.17,4.17,0,0,0-2.52-.79h0a4.32,4.32,0,0,0-2.54.78,5.27,5.27,0,0,0-1.75,2.17,7.62,7.62,0,0,0-.64,3.18,7.73,7.73,0,0,0,.64,3.21,5.24,5.24,0,0,0,1.75,2.16,4.26,4.26,0,0,0,2.54.79h0a4.18,4.18,0,0,0,2.52-.8,5.15,5.15,0,0,0,1.73-2.17,7.66,7.66,0,0,0,.63-3.19A7.57,7.57,0,0,0,50.91,143.25Z"/><path class="cls-12" d="M34,132v-4.26h3.18v-.08a5.58,5.58,0,0,1-2.6-2.16,6.35,6.35,0,0,1-1-3.52,6.51,6.51,0,0,1,.47-2.55,5.39,5.39,0,0,1,1.37-2,5.68,5.68,0,0,1,2.2-1.21v-.1a6.47,6.47,0,0,1-2.16-1.47,6.68,6.68,0,0,1-1.39-2.21,7.4,7.4,0,0,1-.49-2.73,7,7,0,0,1,.85-3.53,6,6,0,0,1,2.37-2.35,7.3,7.3,0,0,1,3.57-.84H54.59v4.26H41.48a4.41,4.41,0,0,0-3.1,1,3.78,3.78,0,0,0-1.1,2.91,4.22,4.22,0,0,0,.57,2.2,3.9,3.9,0,0,0,1.58,1.48,4.82,4.82,0,0,0,2.3.54H54.59v4.16H41.17a3.61,3.61,0,0,0-3.89,3.88,4.08,4.08,0,0,0,.6,2.2,4,4,0,0,0,1.63,1.51,5,5,0,0,0,2.38.55h12.7V132Z"/><path class="cls-12" d="M34,99V94.74h3.18v-.07a5.66,5.66,0,0,1-2.6-2.17,6.33,6.33,0,0,1-1-3.52,6.54,6.54,0,0,1,.47-2.55,5.39,5.39,0,0,1,1.37-2,5.68,5.68,0,0,1,2.2-1.21v-.1a6.47,6.47,0,0,1-2.16-1.47,6.58,6.58,0,0,1-1.39-2.21,7.38,7.38,0,0,1-.49-2.72,7,7,0,0,1,.85-3.54,5.93,5.93,0,0,1,2.37-2.34A7.3,7.3,0,0,1,40.44,70H54.59v4.25H41.48a4.41,4.41,0,0,0-3.1,1,3.78,3.78,0,0,0-1.1,2.91,4.19,4.19,0,0,0,.57,2.2,3.9,3.9,0,0,0,1.58,1.48,4.82,4.82,0,0,0,2.3.54H54.59V86.6H41.17a3.61,3.61,0,0,0-3.89,3.89,4,4,0,0,0,.6,2.19,4.12,4.12,0,0,0,1.63,1.52,5.06,5.06,0,0,0,2.38.54h12.7V99Z"/><line class="cls-11" x1="85.49" y1="116.06" x2="85.49" y2="129.06"/><rect class="cls-12" x="69.24" y="113.56" width="32.5" height="5"/><rect class="cls-12" x="69.24" y="126.56" width="32.5" height="5"/><path class="cls-12" d="M30.76,467v.1l5.08,7.36H31.68l-5.28-7.42v-4.33H54.59V467Z"/><path class="cls-12" d="M54,451.24A9,9,0,0,1,51.16,455,6.85,6.85,0,0,1,47,456.38h0a6.82,6.82,0,0,1-3.25-.79,7.31,7.31,0,0,1-2.5-2.2,8.33,8.33,0,0,1-1.42-3.24h-.1a7.64,7.64,0,0,1-2.33,3.78,5.81,5.81,0,0,1-3.9,1.41h0a6.3,6.3,0,0,1-3.82-1.23,8.19,8.19,0,0,1-2.65-3.41,13.27,13.27,0,0,1,0-10,8.22,8.22,0,0,1,2.65-3.4,6.3,6.3,0,0,1,3.82-1.23h0a5.8,5.8,0,0,1,3.9,1.4,7.54,7.54,0,0,1,2.33,3.79h.1a8.18,8.18,0,0,1,1.42-3.25,7.38,7.38,0,0,1,2.5-2.19,6.71,6.71,0,0,1,3.25-.79h0a6.84,6.84,0,0,1,4.21,1.36A8.91,8.91,0,0,1,54,440.2a15.31,15.31,0,0,1,0,11ZM37.6,443a4.5,4.5,0,0,0-1.54-1.86,4,4,0,0,0-2.26-.67h0a4,4,0,0,0-2.26.67A4.58,4.58,0,0,0,30,443a6.26,6.26,0,0,0-.56,2.73,6.33,6.33,0,0,0,.56,2.76,4.55,4.55,0,0,0,1.53,1.86,3.89,3.89,0,0,0,2.26.68h0a3.91,3.91,0,0,0,2.26-.68,4.47,4.47,0,0,0,1.54-1.85,6.46,6.46,0,0,0,.56-2.77A6.38,6.38,0,0,0,37.6,443Zm13.31-.43a5.21,5.21,0,0,0-1.73-2.17,4.24,4.24,0,0,0-2.52-.79h0a4.32,4.32,0,0,0-2.54.78,5.27,5.27,0,0,0-1.75,2.17,8.29,8.29,0,0,0,0,6.39,5.27,5.27,0,0,0,1.75,2.17,4.32,4.32,0,0,0,2.54.78h0a4.24,4.24,0,0,0,2.52-.79,5.24,5.24,0,0,0,1.73-2.18,7.66,7.66,0,0,0,.63-3.19A7.57,7.57,0,0,0,50.91,442.54Z"/><path class="cls-12" d="M34,431.3V427h3.18V427a5.58,5.58,0,0,1-2.6-2.16,6.35,6.35,0,0,1-1-3.52,6.51,6.51,0,0,1,.47-2.55,5.39,5.39,0,0,1,1.37-2,5.68,5.68,0,0,1,2.2-1.21v-.1A6.47,6.47,0,0,1,35.53,414a6.68,6.68,0,0,1-1.39-2.21,7.4,7.4,0,0,1-.49-2.73,7,7,0,0,1,.85-3.53,5.93,5.93,0,0,1,2.37-2.34,7.3,7.3,0,0,1,3.57-.84H54.59v4.25H41.48a4.41,4.41,0,0,0-3.1,1,3.78,3.78,0,0,0-1.1,2.91,4.19,4.19,0,0,0,.57,2.2,3.9,3.9,0,0,0,1.58,1.48,4.82,4.82,0,0,0,2.3.54H54.59v4.16H41.17a3.61,3.61,0,0,0-3.89,3.88,4.06,4.06,0,0,0,.6,2.2,4.12,4.12,0,0,0,1.63,1.52,5.06,5.06,0,0,0,2.38.54h12.7v4.26Z"/><path class="cls-12" d="M34,398.29V394h3.18V394a5.66,5.66,0,0,1-2.6-2.17,6.33,6.33,0,0,1-1-3.52,6.58,6.58,0,0,1,.47-2.55,5.39,5.39,0,0,1,1.37-2,5.68,5.68,0,0,1,2.2-1.21v-.1A6.47,6.47,0,0,1,35.53,381a6.58,6.58,0,0,1-1.39-2.21,7.38,7.38,0,0,1-.49-2.72,7,7,0,0,1,.85-3.54,5.93,5.93,0,0,1,2.37-2.34,7.3,7.3,0,0,1,3.57-.84H54.59v4.26H41.48a4.4,4.4,0,0,0-3.1,1,3.78,3.78,0,0,0-1.1,2.91,4.19,4.19,0,0,0,.57,2.2,3.83,3.83,0,0,0,1.58,1.48,4.82,4.82,0,0,0,2.3.54H54.59v4.16H41.17a3.62,3.62,0,0,0-3.89,3.89,4,4,0,0,0,.6,2.19,4.12,4.12,0,0,0,1.63,1.52,5.06,5.06,0,0,0,2.38.54h12.7v4.26Z"/><line class="cls-11" x1="85.49" y1="415.36" x2="85.49" y2="428.36"/><rect class="cls-12" x="69.24" y="412.86" width="32.5" height="5"/><rect class="cls-12" x="69.24" y="425.86" width="32.5" height="5"/><path class="cls-12" d="M30.76,829.23v.09l5.08,7.37H31.68l-5.28-7.43v-4.33H54.59v4.3Z"/><path class="cls-12" d="M54,813.42a9,9,0,0,1-2.86,3.77A6.79,6.79,0,0,1,47,818.56h0a6.71,6.71,0,0,1-3.25-.79,7.31,7.31,0,0,1-2.5-2.2,8.2,8.2,0,0,1-1.42-3.24h-.1a7.55,7.55,0,0,1-2.33,3.78,5.77,5.77,0,0,1-3.9,1.42h0a6.3,6.3,0,0,1-3.82-1.23,8.25,8.25,0,0,1-2.65-3.41,13.27,13.27,0,0,1,0-10,8.25,8.25,0,0,1,2.65-3.41,6.3,6.3,0,0,1,3.82-1.23h0a5.85,5.85,0,0,1,3.9,1.4,7.58,7.58,0,0,1,2.33,3.79h.1a8.25,8.25,0,0,1,1.42-3.25,7.38,7.38,0,0,1,2.5-2.19,6.82,6.82,0,0,1,3.25-.79h0a6.91,6.91,0,0,1,4.21,1.36A9,9,0,0,1,54,802.38a15.31,15.31,0,0,1,0,11ZM37.6,805.15a4.53,4.53,0,0,0-1.54-1.85,3.91,3.91,0,0,0-2.26-.68h0a3.89,3.89,0,0,0-2.26.68A4.55,4.55,0,0,0,30,805.16a7,7,0,0,0,0,5.49,4.52,4.52,0,0,0,1.53,1.87,3.88,3.88,0,0,0,2.26.67h0a3.91,3.91,0,0,0,2.26-.67,4.5,4.5,0,0,0,1.54-1.86,7.06,7.06,0,0,0,0-5.51Zm13.31-.43a5.18,5.18,0,0,0-1.73-2.16,4.18,4.18,0,0,0-2.52-.8h0a4.32,4.32,0,0,0-2.54.79,5.24,5.24,0,0,0-1.75,2.16,8.3,8.3,0,0,0,0,6.39,5.2,5.2,0,0,0,1.75,2.17,4.32,4.32,0,0,0,2.54.78h0a4.17,4.17,0,0,0,2.52-.79,5.18,5.18,0,0,0,1.73-2.18,8.34,8.34,0,0,0,0-6.36Z"/><path class="cls-12" d="M34,793.48v-4.25h3.18v-.08a5.6,5.6,0,0,1-2.6-2.17,6.3,6.3,0,0,1-1-3.52,6.49,6.49,0,0,1,.47-2.54,5.35,5.35,0,0,1,1.37-2,5.81,5.81,0,0,1,2.2-1.21v-.1a6.47,6.47,0,0,1-2.16-1.47A6.58,6.58,0,0,1,34.14,774a7.38,7.38,0,0,1-.49-2.72,7.05,7.05,0,0,1,.85-3.54,5.93,5.93,0,0,1,2.37-2.34,7.3,7.3,0,0,1,3.57-.84H54.59v4.26H41.48a4.45,4.45,0,0,0-3.1,1,3.78,3.78,0,0,0-1.1,2.91,4.17,4.17,0,0,0,.57,2.2,3.83,3.83,0,0,0,1.58,1.48,4.82,4.82,0,0,0,2.3.54H54.59v4.16H41.17A3.62,3.62,0,0,0,37.28,785a4.09,4.09,0,0,0,2.23,3.71,5.06,5.06,0,0,0,2.38.55h12.7v4.25Z"/><path class="cls-12" d="M34,760.48v-4.26h3.18v-.08a5.54,5.54,0,0,1-2.6-2.17,6.29,6.29,0,0,1-1-3.51,6.51,6.51,0,0,1,.47-2.55,5.43,5.43,0,0,1,1.37-2,6,6,0,0,1,2.2-1.21v-.09a6.65,6.65,0,0,1-2.16-1.48A6.58,6.58,0,0,1,34.14,741a7.35,7.35,0,0,1-.49-2.72,7,7,0,0,1,.85-3.53,5.89,5.89,0,0,1,2.37-2.35,7.3,7.3,0,0,1,3.57-.84H54.59v4.26H41.48a4.45,4.45,0,0,0-3.1,1,3.78,3.78,0,0,0-1.1,2.91,4.17,4.17,0,0,0,.57,2.2,3.92,3.92,0,0,0,1.58,1.49,4.82,4.82,0,0,0,2.3.53H54.59v4.16H41.17A3.62,3.62,0,0,0,37.28,752a4.09,4.09,0,0,0,2.23,3.71,5,5,0,0,0,2.38.55h12.7v4.26Z"/><line class="cls-11" x1="85.49" y1="777.54" x2="85.49" y2="790.54"/><rect class="cls-12" x="69.24" y="775.04" width="32.5" height="5"/><rect class="cls-12" x="69.24" y="788.04" width="32.5" height="5"/><path class="cls-12" d="M30.76,1205.9v.1l5.08,7.36H31.68l-5.28-7.42v-4.34H54.59v4.3Z"/><path class="cls-12" d="M54,1190.1a9,9,0,0,1-2.86,3.77,6.85,6.85,0,0,1-4.21,1.37h0a6.72,6.72,0,0,1-3.25-.8,7.28,7.28,0,0,1-2.5-2.19,8.33,8.33,0,0,1-1.42-3.24h-.1a7.56,7.56,0,0,1-2.33,3.77,5.77,5.77,0,0,1-3.9,1.42h0a6.3,6.3,0,0,1-3.82-1.23,8.25,8.25,0,0,1-2.65-3.41,13.27,13.27,0,0,1,0-10,8.25,8.25,0,0,1,2.65-3.41,6.3,6.3,0,0,1,3.82-1.23h0a5.81,5.81,0,0,1,3.9,1.41,7.54,7.54,0,0,1,2.33,3.79h.1a8.18,8.18,0,0,1,1.42-3.25,7.38,7.38,0,0,1,2.5-2.19,6.71,6.71,0,0,1,3.25-.79h0a6.9,6.9,0,0,1,4.21,1.35,9,9,0,0,1,2.86,3.77,15.33,15.33,0,0,1,0,11Zm-16.42-8.27a4.5,4.5,0,0,0-1.54-1.86,3.91,3.91,0,0,0-2.26-.67h0a3.88,3.88,0,0,0-2.26.67,4.52,4.52,0,0,0-1.53,1.87,6.22,6.22,0,0,0-.56,2.73,6.36,6.36,0,0,0,.56,2.76,4.55,4.55,0,0,0,1.53,1.86,3.88,3.88,0,0,0,2.26.67h0a3.91,3.91,0,0,0,2.26-.67,4.53,4.53,0,0,0,1.54-1.85,6.46,6.46,0,0,0,.56-2.77A6.38,6.38,0,0,0,37.6,1181.83Zm13.31-.43a5.21,5.21,0,0,0-1.73-2.17,4.17,4.17,0,0,0-2.52-.79h0a4.32,4.32,0,0,0-2.54.78,5.2,5.2,0,0,0-1.75,2.17,8.27,8.27,0,0,0,0,6.38,5.2,5.2,0,0,0,1.75,2.17,4.32,4.32,0,0,0,2.54.78h0a4.17,4.17,0,0,0,2.52-.79,5.15,5.15,0,0,0,1.73-2.17,7.66,7.66,0,0,0,.63-3.19A7.54,7.54,0,0,0,50.91,1181.4Z"/><path class="cls-12" d="M34,1170.16v-4.26h3.18v-.08a5.54,5.54,0,0,1-2.6-2.17,6.29,6.29,0,0,1-1-3.51,6.51,6.51,0,0,1,.47-2.55,5.31,5.31,0,0,1,1.37-2,5.68,5.68,0,0,1,2.2-1.21v-.1a6.35,6.35,0,0,1-2.16-1.48,6.54,6.54,0,0,1-1.39-2.2,7.4,7.4,0,0,1-.49-2.73,7,7,0,0,1,.85-3.53,5.89,5.89,0,0,1,2.37-2.35,7.3,7.3,0,0,1,3.57-.84H54.59v4.26H41.48a4.41,4.41,0,0,0-3.1,1,3.75,3.75,0,0,0-1.1,2.91,4.16,4.16,0,0,0,.57,2.19,3.85,3.85,0,0,0,1.58,1.49,4.82,4.82,0,0,0,2.3.53H54.59v4.17H41.17a3.61,3.61,0,0,0-3.89,3.88,4.09,4.09,0,0,0,2.23,3.71,5,5,0,0,0,2.38.55h12.7v4.26Z"/><path class="cls-12" d="M34,1137.15v-4.26h3.18v-.08a5.58,5.58,0,0,1-2.6-2.16,6.35,6.35,0,0,1-1-3.52,6.51,6.51,0,0,1,.47-2.55,5.39,5.39,0,0,1,1.37-2,5.68,5.68,0,0,1,2.2-1.21v-.1a6.47,6.47,0,0,1-2.16-1.47,6.68,6.68,0,0,1-1.39-2.21,7.4,7.4,0,0,1-.49-2.73,7,7,0,0,1,.85-3.53,6,6,0,0,1,2.37-2.35,7.41,7.41,0,0,1,3.57-.84H54.59v4.26H41.48a4.41,4.41,0,0,0-3.1,1,3.78,3.78,0,0,0-1.1,2.91,4.22,4.22,0,0,0,.57,2.2,3.9,3.9,0,0,0,1.58,1.48,4.82,4.82,0,0,0,2.3.54H54.59v4.16H41.17a3.61,3.61,0,0,0-3.89,3.88,4.08,4.08,0,0,0,.6,2.2,4,4,0,0,0,1.63,1.51,5,5,0,0,0,2.38.55h12.7v4.26Z"/><line class="cls-11" x1="85.49" y1="1154.21" x2="85.49" y2="1167.21"/><rect class="cls-12" x="69.24" y="1151.71" width="32.5" height="5"/><rect class="cls-12" x="69.24" y="1164.71" width="32.5" height="5"/><path class="cls-12" d="M142.12,334.35a8.69,8.69,0,0,1-2.79,3.56,8,8,0,0,1-4.09,1.51l-.24,0v-4.22l.22,0a4.22,4.22,0,0,0,3.05-1.85,8.11,8.11,0,0,0,.61-7.28,4.91,4.91,0,0,0-1.65-2,4.19,4.19,0,0,0-2.4-.72h0a4.42,4.42,0,0,0-3.67,1.62,7,7,0,0,0-1.28,4.44v3.43h-3.43v-3.3a6.49,6.49,0,0,0-.58-2.82,4.49,4.49,0,0,0-1.59-1.89,4.1,4.1,0,0,0-2.32-.68h0a4.5,4.5,0,0,0-2.33.58,3.58,3.58,0,0,0-1.45,1.7,6.58,6.58,0,0,0-.5,2.72,7.14,7.14,0,0,0,.51,2.78,4.59,4.59,0,0,0,1.46,1.93,4.48,4.48,0,0,0,2.27.86l.19,0v4.14l-.21,0A8.14,8.14,0,0,1,115,334a11.58,11.58,0,0,1-1-4.86,12,12,0,0,1,.92-4.9A7.7,7.7,0,0,1,117.5,321a6.43,6.43,0,0,1,3.81-1.15h0a6,6,0,0,1,3.09.77,6.51,6.51,0,0,1,2.23,2.11,8.53,8.53,0,0,1,1.24,3.05h.1a8,8,0,0,1,2.05-5,6.28,6.28,0,0,1,4.77-1.89h0a7.3,7.3,0,0,1,4.28,1.31,8.67,8.67,0,0,1,2.93,3.6,12.63,12.63,0,0,1,1.06,5.3A12.87,12.87,0,0,1,142.12,334.35Z"/><path class="cls-12" d="M139.65,314.73l-10-9.94a37,37,0,0,0-3.13-2.87,8.35,8.35,0,0,0-2.21-1.35,5.81,5.81,0,0,0-2.08-.37h0a4.41,4.41,0,0,0-4,2.36,5.32,5.32,0,0,0-.58,2.54,6.17,6.17,0,0,0,.68,2.92,5.42,5.42,0,0,0,1.83,2,4.57,4.57,0,0,0,2.57.74l.13,0v4.14h-.13a8.06,8.06,0,0,1-4.5-1.29,8.8,8.8,0,0,1-3.08-3.52,11,11,0,0,1-1.11-5,10.79,10.79,0,0,1,1-4.83,8.17,8.17,0,0,1,2.84-3.27,7.31,7.31,0,0,1,4.09-1.18h0a8,8,0,0,1,3,.59,12.76,12.76,0,0,1,3.18,2,56.56,56.56,0,0,1,4.26,3.95l7.74,7.89-2.82-1.48h2.82L139,310.31V295.43h3.69v19.3Z"/><path class="cls-12" d="M142.07,286.44a8.87,8.87,0,0,1-2.88,3.47,8.15,8.15,0,0,1-4.13,1.5l-.23,0v-4.18l.13,0a4.93,4.93,0,0,0,2.3-1,5.65,5.65,0,0,0,1.62-2,6.9,6.9,0,0,0-.17-5.94,5.47,5.47,0,0,0-2.11-2.13,6.22,6.22,0,0,0-3.08-.76h0a6,6,0,0,0-3,.77,5.67,5.67,0,0,0-2.09,2.12,6.15,6.15,0,0,0-.76,3.09,7.53,7.53,0,0,0,.38,2.42,5.63,5.63,0,0,0,1.14,2,7.23,7.23,0,0,0,.74.72,7.66,7.66,0,0,0,.88.61v3.85l-16.25-1.39V272.72h3.7V286l8.92.86v-.1a6.26,6.26,0,0,1-2.2-2.63,8.9,8.9,0,0,1-.77-3.76,9.43,9.43,0,0,1,1.2-4.78,8.73,8.73,0,0,1,3.29-3.29,9.46,9.46,0,0,1,4.79-1.2h0a9.57,9.57,0,0,1,5,1.32,9.24,9.24,0,0,1,3.42,3.67,12.33,12.33,0,0,1,.17,10.37Z"/><path class="cls-12" d="M122.11,267.66V263.4h3.18v-.08a5.47,5.47,0,0,1-2.59-2.17,6.3,6.3,0,0,1-1-3.51,6.7,6.7,0,0,1,.47-2.55,5.22,5.22,0,0,1,1.38-2,5.57,5.57,0,0,1,2.19-1.21v-.1a6.35,6.35,0,0,1-2.16-1.48,6.54,6.54,0,0,1-1.39-2.2,7.4,7.4,0,0,1-.49-2.73,7,7,0,0,1,.85-3.53,6,6,0,0,1,2.37-2.35,7.31,7.31,0,0,1,3.58-.84h14.14V243H129.55a4.36,4.36,0,0,0-3.09,1,3.72,3.72,0,0,0-1.11,2.91,4.16,4.16,0,0,0,.57,2.19,3.92,3.92,0,0,0,1.58,1.49,4.86,4.86,0,0,0,2.31.54h12.85v4.16H129.24a3.61,3.61,0,0,0-3.89,3.88,4.08,4.08,0,0,0,.6,2.2,4.16,4.16,0,0,0,1.63,1.51,5,5,0,0,0,2.38.55h12.7v4.26Z"/><path class="cls-12" d="M122.11,234.65v-4.26h3.18v-.08a5.51,5.51,0,0,1-2.59-2.16,6.36,6.36,0,0,1-1-3.52,6.7,6.7,0,0,1,.47-2.55,5.3,5.3,0,0,1,1.38-2,5.57,5.57,0,0,1,2.19-1.21v-.1a6.47,6.47,0,0,1-2.16-1.47,6.68,6.68,0,0,1-1.39-2.21,7.4,7.4,0,0,1-.49-2.73,7,7,0,0,1,.85-3.53,6.06,6.06,0,0,1,2.37-2.34,7.31,7.31,0,0,1,3.58-.84h14.14v4.25H129.55a4.36,4.36,0,0,0-3.09,1,3.75,3.75,0,0,0-1.11,2.91,4.22,4.22,0,0,0,.57,2.2,4,4,0,0,0,1.58,1.48,4.86,4.86,0,0,0,2.31.54h12.85v4.16H129.24a3.61,3.61,0,0,0-3.89,3.88,4.08,4.08,0,0,0,.6,2.2,4.19,4.19,0,0,0,1.63,1.52,5.06,5.06,0,0,0,2.38.54h12.7v4.26Z"/><line class="cls-11" x1="168.36" y1="431.67" x2="168.36" y2="772.24"/><rect class="cls-12" x="152.11" y="429.17" width="32.5" height="5"/><rect class="cls-12" x="152.11" y="769.74" width="32.5" height="5"/><path class="cls-12" d="M137.05,656.74v14.11h-3.83l-3.75-2.4-3.75-2.4L122,663.66l-3.75-2.39-3.75-2.4v-6.33h18.89v-3.9h3.69v3.9h5.61v4.2Zm-3.61,0H118v.12l3.08,2,3.06,2c1,.65,2,1.32,3.08,2l3.08,2,3.07,2h.12Z"/><path class="cls-12" d="M141.35,640.86a11.28,11.28,0,0,1-5,3.7,21,21,0,0,1-7.73,1.29h0a21,21,0,0,1-7.74-1.29,11.19,11.19,0,0,1-5-3.7,10.35,10.35,0,0,1,0-11.55,11.21,11.21,0,0,1,5-3.71,21,21,0,0,1,7.74-1.3h0a21,21,0,0,1,7.73,1.3,11.29,11.29,0,0,1,5,3.71,10.26,10.26,0,0,1,0,11.55Zm-3.2-9.2a8.33,8.33,0,0,0-3.75-2.17,20,20,0,0,0-5.82-.75h0a19.8,19.8,0,0,0-5.81.75,8.19,8.19,0,0,0-3.74,2.17,5.13,5.13,0,0,0,0,6.85,8.18,8.18,0,0,0,3.74,2.16,20.17,20.17,0,0,0,5.81.74h0a20.34,20.34,0,0,0,5.82-.74,8.32,8.32,0,0,0,3.75-2.16,5.16,5.16,0,0,0,0-6.85Z"/><path class="cls-12" d="M141.35,615.87a11.22,11.22,0,0,1-5,3.71,21,21,0,0,1-7.73,1.28h0a21,21,0,0,1-7.74-1.28,11.14,11.14,0,0,1-5-3.71,10.34,10.34,0,0,1,0-11.54,11.21,11.21,0,0,1,5-3.71,21,21,0,0,1,7.74-1.3h0a21,21,0,0,1,7.73,1.3,11.29,11.29,0,0,1,5,3.71,10.24,10.24,0,0,1,0,11.54Zm-3.2-9.19a8.33,8.33,0,0,0-3.75-2.17,20,20,0,0,0-5.82-.75h0a19.8,19.8,0,0,0-5.81.75,8.19,8.19,0,0,0-3.74,2.17,5.13,5.13,0,0,0,0,6.85,8.18,8.18,0,0,0,3.74,2.16,20.17,20.17,0,0,0,5.81.74h0a20.34,20.34,0,0,0,5.82-.74,8.32,8.32,0,0,0,3.75-2.16,5.16,5.16,0,0,0,0-6.85Z"/><path class="cls-12" d="M122.11,595.53v-4.25h3.18v-.08A5.58,5.58,0,0,1,122.7,589a6.33,6.33,0,0,1-1-3.52,6.77,6.77,0,0,1,.47-2.55,5.3,5.3,0,0,1,1.38-2,5.57,5.57,0,0,1,2.19-1.21v-.1a6.47,6.47,0,0,1-2.16-1.47,6.58,6.58,0,0,1-1.39-2.21,7.38,7.38,0,0,1-.49-2.72,7,7,0,0,1,.85-3.54,6.06,6.06,0,0,1,2.37-2.34,7.31,7.31,0,0,1,3.58-.84h14.14v4.26H129.55a4.36,4.36,0,0,0-3.09,1,3.75,3.75,0,0,0-1.11,2.91,4.17,4.17,0,0,0,.57,2.2,3.89,3.89,0,0,0,1.58,1.48,4.86,4.86,0,0,0,2.31.54h12.85v4.16H129.24a3.62,3.62,0,0,0-3.89,3.89,4,4,0,0,0,.6,2.19,4.19,4.19,0,0,0,1.63,1.52,5.06,5.06,0,0,0,2.38.55h12.7v4.25Z"/><path class="cls-12" d="M122.11,562.53v-4.26h3.18v-.08A5.53,5.53,0,0,1,122.7,556a6.3,6.3,0,0,1-1-3.51,6.7,6.7,0,0,1,.47-2.55,5.33,5.33,0,0,1,1.38-2,5.69,5.69,0,0,1,2.19-1.21v-.09a6.65,6.65,0,0,1-2.16-1.48,6.58,6.58,0,0,1-1.39-2.21,7.35,7.35,0,0,1-.49-2.72,7.05,7.05,0,0,1,.85-3.54,6.06,6.06,0,0,1,2.37-2.34,7.31,7.31,0,0,1,3.58-.84h14.14v4.26H129.55a4.41,4.41,0,0,0-3.09,1,3.75,3.75,0,0,0-1.11,2.91,4.17,4.17,0,0,0,.57,2.2,4,4,0,0,0,1.58,1.49,5,5,0,0,0,2.31.53h12.85v4.16H129.24a3.62,3.62,0,0,0-3.89,3.89,4.1,4.1,0,0,0,.6,2.2,4.16,4.16,0,0,0,1.63,1.51,5,5,0,0,0,2.38.55h12.7v4.26Z"/><line class="cls-11" x1="168.36" y1="795.87" x2="168.36" y2="1149.16"/><rect class="cls-12" x="152.11" y="793.37" width="32.5" height="5"/><rect class="cls-12" x="152.11" y="1146.66" width="32.5" height="5"/><path class="cls-12" d="M142.12,1034.72a8.69,8.69,0,0,1-2.79,3.56,7.86,7.86,0,0,1-4.09,1.5l-.24,0v-4.21l.22,0a4.22,4.22,0,0,0,3.05-1.85,7.08,7.08,0,0,0,1.2-4.27,7.17,7.17,0,0,0-.59-3,5,5,0,0,0-1.65-2,4.19,4.19,0,0,0-2.4-.72h0a4.42,4.42,0,0,0-3.67,1.62,7,7,0,0,0-1.28,4.44v3.43h-3.43v-3.3a6.46,6.46,0,0,0-.58-2.82,4.43,4.43,0,0,0-1.59-1.89,4.1,4.1,0,0,0-2.32-.68h0a4.4,4.4,0,0,0-2.33.58,3.58,3.58,0,0,0-1.45,1.7,6.54,6.54,0,0,0-.5,2.72,7.05,7.05,0,0,0,.51,2.77,4.56,4.56,0,0,0,1.46,1.94,4.48,4.48,0,0,0,2.27.86l.19,0v4.14l-.21,0a8.36,8.36,0,0,1-4.12-1.5,8.25,8.25,0,0,1-2.73-3.36,11.5,11.5,0,0,1-1-4.85,12,12,0,0,1,.92-4.9,7.7,7.7,0,0,1,2.57-3.24,6.44,6.44,0,0,1,3.81-1.16h0a6,6,0,0,1,3.09.78,6.42,6.42,0,0,1,2.23,2.11,8.53,8.53,0,0,1,1.24,3.05h.1a8,8,0,0,1,2.05-5,6.28,6.28,0,0,1,4.77-1.89h0a7.23,7.23,0,0,1,4.28,1.31,8.67,8.67,0,0,1,2.93,3.6,12.63,12.63,0,0,1,1.06,5.3A12.87,12.87,0,0,1,142.12,1034.72Z"/><path class="cls-12" d="M137.05,1001.68v14.1h-3.83l-3.75-2.39-3.75-2.4c-1.25-.81-2.5-1.6-3.75-2.4l-3.75-2.39-3.75-2.39v-6.33h18.89v-3.91h3.69v3.91h5.61v4.2Zm-3.61,0H118v.12l3.08,2,3.06,2,3.08,2c1,.68,2,1.34,3.08,2l3.07,2h.12Z"/><path class="cls-12" d="M142.07,985.18a8.83,8.83,0,0,1-2.88,3.48,8.15,8.15,0,0,1-4.13,1.5h-.23V986l.13,0a4.93,4.93,0,0,0,2.3-1,5.65,5.65,0,0,0,1.62-2,6.9,6.9,0,0,0-.17-5.94,5.47,5.47,0,0,0-2.11-2.13,6.12,6.12,0,0,0-3.08-.76h0a6,6,0,0,0-3,.77,5.67,5.67,0,0,0-2.09,2.12,6.15,6.15,0,0,0-.76,3.09,7.53,7.53,0,0,0,.38,2.42,5.63,5.63,0,0,0,1.14,2,6.24,6.24,0,0,0,.74.71,6.65,6.65,0,0,0,.88.62v3.85l-16.25-1.39V971.46h3.7v13.27l8.92.86v-.1a6.32,6.32,0,0,1-2.2-2.63,8.9,8.9,0,0,1-.77-3.76,9.4,9.4,0,0,1,1.2-4.78,8.83,8.83,0,0,1,3.29-3.3,9.46,9.46,0,0,1,4.79-1.2h0a9.58,9.58,0,0,1,5,1.33,9.28,9.28,0,0,1,3.42,3.66,12.33,12.33,0,0,1,.17,10.37Z"/><path class="cls-12" d="M122.11,966.41v-4.26h3.18v-.08a5.47,5.47,0,0,1-2.59-2.17,6.3,6.3,0,0,1-1-3.51,6.7,6.7,0,0,1,.47-2.55,5.33,5.33,0,0,1,1.38-2,5.69,5.69,0,0,1,2.19-1.21v-.09a6.65,6.65,0,0,1-2.16-1.48,6.58,6.58,0,0,1-1.39-2.21,7.35,7.35,0,0,1-.49-2.72,7.08,7.08,0,0,1,.85-3.54,6.06,6.06,0,0,1,2.37-2.34,7.31,7.31,0,0,1,3.58-.84h14.14v4.26H129.55a4.41,4.41,0,0,0-3.09,1,3.75,3.75,0,0,0-1.11,2.91,4.17,4.17,0,0,0,.57,2.2,4,4,0,0,0,1.58,1.49,4.86,4.86,0,0,0,2.31.53h12.85V954H129.24a3.62,3.62,0,0,0-3.89,3.89,4.1,4.1,0,0,0,.6,2.2,4.16,4.16,0,0,0,1.63,1.51,5,5,0,0,0,2.38.55h12.7v4.26Z"/><path class="cls-12" d="M122.11,933.4v-4.26h3.18v-.08a5.47,5.47,0,0,1-2.59-2.17,6.3,6.3,0,0,1-1-3.51,6.7,6.7,0,0,1,.47-2.55,5.22,5.22,0,0,1,1.38-2,5.57,5.57,0,0,1,2.19-1.21v-.1a6.35,6.35,0,0,1-2.16-1.48,6.54,6.54,0,0,1-1.39-2.2,7.4,7.4,0,0,1-.49-2.73,7,7,0,0,1,.85-3.53,6,6,0,0,1,2.37-2.35,7.31,7.31,0,0,1,3.58-.84h14.14v4.26H129.55a4.36,4.36,0,0,0-3.09,1,3.72,3.72,0,0,0-1.11,2.91,4.16,4.16,0,0,0,.57,2.19,3.92,3.92,0,0,0,1.58,1.49,4.86,4.86,0,0,0,2.31.54h12.85V921H129.24a3.61,3.61,0,0,0-3.89,3.88,4.1,4.1,0,0,0,.6,2.2,4.16,4.16,0,0,0,1.63,1.51,5,5,0,0,0,2.38.55h12.7v4.26Z"/><line class="cls-11" x1="846.8" y1="77.4" x2="252.04" y2="77.4"/><rect class="cls-12" x="844.3" y="61.15" width="5" height="32.5"/><rect class="cls-12" x="249.54" y="61.15" width="5" height="32.5"/><path class="cls-12" d="M487.47,68.2a9.67,9.67,0,0,1-3.55-2.48,11.74,11.74,0,0,1-2.47-4.37,20.6,20.6,0,0,1-.9-6.5v0a21.55,21.55,0,0,1,1.34-8.06,11.07,11.07,0,0,1,3.86-5.12,10.29,10.29,0,0,1,6.05-1.77,11.21,11.21,0,0,1,4.54.89,9.3,9.3,0,0,1,3.37,2.49,8.4,8.4,0,0,1,1.8,3.69l0,.24h-4.39l-.08-.2a4.93,4.93,0,0,0-2.91-3,6.42,6.42,0,0,0-2.4-.42,5.52,5.52,0,0,0-3.92,1.4,8.45,8.45,0,0,0-2.24,3.72,18.56,18.56,0,0,0-.81,5.13,3.17,3.17,0,0,0,0,.44v.46l.84,4.65a5.83,5.83,0,0,0,.79,3,5.76,5.76,0,0,0,2.15,2.15,5.86,5.86,0,0,0,3,.79,6,6,0,0,0,5.18-2.89,5.65,5.65,0,0,0,.8-3v0a5.82,5.82,0,0,0-.76-3,5.5,5.5,0,0,0-2.11-2.06,6.19,6.19,0,0,0-3.05-.76,6.29,6.29,0,0,0-3.07.75,5.51,5.51,0,0,0-3,5v0h-1.18V54.56h.41a7.05,7.05,0,0,1,1.68-2.29,8.31,8.31,0,0,1,2.66-1.63,9.27,9.27,0,0,1,3.46-.61,9.45,9.45,0,0,1,4.8,1.2,8.69,8.69,0,0,1,3.29,3.3,9.43,9.43,0,0,1,1.2,4.76v0a9.36,9.36,0,0,1-1.33,5,9.45,9.45,0,0,1-3.67,3.42A10.88,10.88,0,0,1,491.64,69,11.08,11.08,0,0,1,487.47,68.2Z"/><path class="cls-12" d="M510.73,67.22a11.28,11.28,0,0,1-3.7-5,21,21,0,0,1-1.29-7.74v0A21,21,0,0,1,507,46.67a11.19,11.19,0,0,1,3.7-5,10.31,10.31,0,0,1,11.55,0,11.21,11.21,0,0,1,3.71,5,21,21,0,0,1,1.3,7.73v0a21,21,0,0,1-1.3,7.74,11.29,11.29,0,0,1-3.71,5,10.31,10.31,0,0,1-11.55,0Zm9.2-3.21a8.23,8.23,0,0,0,2.17-3.75,19.87,19.87,0,0,0,.75-5.82v0a19.9,19.9,0,0,0-.75-5.81,8.3,8.3,0,0,0-2.17-3.74,5.16,5.16,0,0,0-6.85,0,8.2,8.2,0,0,0-2.16,3.74,19.92,19.92,0,0,0-.74,5.81v0a19.9,19.9,0,0,0,.74,5.82A8.13,8.13,0,0,0,513.08,64a5.13,5.13,0,0,0,6.85,0Z"/><path class="cls-12" d="M535.71,67.22a11.28,11.28,0,0,1-3.7-5,21,21,0,0,1-1.29-7.74v0A21,21,0,0,1,532,46.67a11.19,11.19,0,0,1,3.7-5,10.31,10.31,0,0,1,11.55,0,11.21,11.21,0,0,1,3.71,5,21,21,0,0,1,1.3,7.73v0a21,21,0,0,1-1.3,7.74,11.29,11.29,0,0,1-3.71,5,10.31,10.31,0,0,1-11.55,0Zm9.2-3.21a8.23,8.23,0,0,0,2.17-3.75,19.87,19.87,0,0,0,.75-5.82v0a19.9,19.9,0,0,0-.75-5.81,8.3,8.3,0,0,0-2.17-3.74,5.16,5.16,0,0,0-6.85,0,8.2,8.2,0,0,0-2.16,3.74,19.92,19.92,0,0,0-.74,5.81v0a19.9,19.9,0,0,0,.74,5.82A8.13,8.13,0,0,0,538.06,64a5.13,5.13,0,0,0,6.85,0Z"/><path class="cls-12" d="M556.06,48h4.25v3.18h.08a5.53,5.53,0,0,1,2.17-2.59,6.23,6.23,0,0,1,3.52-1,6.49,6.49,0,0,1,2.54.47,5.35,5.35,0,0,1,2,1.37,5.81,5.81,0,0,1,1.21,2.2h.1a6.47,6.47,0,0,1,1.47-2.16,6.58,6.58,0,0,1,2.21-1.39,7.38,7.38,0,0,1,2.72-.49,7.05,7.05,0,0,1,3.54.85,6,6,0,0,1,2.34,2.37,7.31,7.31,0,0,1,.84,3.58V68.53h-4.26V55.42a4.45,4.45,0,0,0-1-3.1,3.78,3.78,0,0,0-2.91-1.1,4.17,4.17,0,0,0-2.2.57,3.89,3.89,0,0,0-1.48,1.58,4.85,4.85,0,0,0-.54,2.3V68.53h-4.16V55.11a3.62,3.62,0,0,0-3.89-3.89,4.09,4.09,0,0,0-3.71,2.23,5.06,5.06,0,0,0-.55,2.38v12.7h-4.25Z"/><path class="cls-12" d="M589.06,48h4.26v3.18h.08a5.47,5.47,0,0,1,2.17-2.59,6.22,6.22,0,0,1,3.51-1,6.51,6.51,0,0,1,2.55.47,5.31,5.31,0,0,1,2,1.37,5.69,5.69,0,0,1,1.22,2.2h.09a6.65,6.65,0,0,1,1.48-2.16,6.58,6.58,0,0,1,2.21-1.39,7.35,7.35,0,0,1,2.72-.49,7,7,0,0,1,3.53.85,6,6,0,0,1,2.35,2.37,7.31,7.31,0,0,1,.84,3.58V68.53h-4.26V55.42a4.45,4.45,0,0,0-1-3.1,3.79,3.79,0,0,0-2.92-1.1,4.16,4.16,0,0,0-2.19.57,4,4,0,0,0-1.49,1.58,4.84,4.84,0,0,0-.53,2.3V68.53h-4.16V55.11a3.62,3.62,0,0,0-3.89-3.89,4.09,4.09,0,0,0-3.71,2.23,5,5,0,0,0-.55,2.38v12.7h-4.26Z"/><g class="cls-3"><path class="cls-4" d="M1444.52,114.4h-20.06v10h20.06v-10Zm-40.13,0h-20.06v10h20.06v-10Zm-40.13,0H1344.2v10h20.06v-10Zm-40.13,0h-20.06v10h20.06v-10Zm-40.12,0h-20.07v10H1284v-10Zm-40.13,0h-20.07v10h20.07v-10Zm-40.13,0h-20.07v10h20.07v-10Zm-40.13,0h-20.07v10h20.07v-10Zm-40.13,0h-20.06v10h20.06v-10Zm-40.13,0H1063.3v10h20.06v-10Zm-40.13,0h-20.06v10h20.06v-10Zm-40.13,0H983v10h20.06v-10Zm-40.13,0H942.91v10H963v-10Zm-40.13,0H902.78v10h20.06v-10Zm-40.12,0H862.65v10h20.07v-10Zm-33.63,0h-10v10h0v6.51h10V114.4Zm0,36.6h-10v20.07h10V151Zm0,40.13h-10V211.2h10V191.13Zm0,40.13h-10v20.07h10V231.26Zm0,40.13h-10v20.06h10V271.39Zm0,40.13h-10v20.06h10V311.52Zm0,40.13h-10v20.06h10V351.65Zm0,40.13h-10v20.06h10V391.78Zm11.18,29H840.21v10h20.06v-10Zm40.13,0H880.34v10H900.4v-10Zm40.13,0H920.46v10h20.07v-10Zm40.13,0H960.59v10h20.07v-10Zm40.13,0h-20.07v10h20.07v-10Zm40.13,0h-20.07v10h20.07v-10Zm40.12,0H1081v10H1101v-10Zm40.13,0h-20.06v10h20.06v-10Zm40.13,0h-20.06v10h20.06v-10Zm40.13,0h-20.06v10h20.06v-10Zm40.13,0H1241.5v10h20.06v-10Zm40.13,0h-20.06v10h20.06v-10Zm40.13,0h-20.07v10h20.07v-10Zm40.13,0h-20.07v10H1382v-10Zm40.13,0H1402v10h20.07v-10Zm22.44-7.65h-10v17.68h10V413.08Zm0-40.13h-10V393h10V373Zm0-40.13h-10v20.06h10V332.82Zm0-40.13h-10v20.06h10V292.69Zm0-40.13h-10v20.06h10V252.56Zm0-40.13h-10V232.5h10V212.43Zm0-40.13h-10v20.07h10V172.3Zm0-40.13h-10v20.07h10V132.17Z"/></g><rect class="cls-8" x="420.46" y="2.16" width="260" height="540" rx="57.04" transform="translate(822.63 -278.3) rotate(90)"/><path class="cls-6" d="M340.56,240.67h8.75V297h-8.75Zm8.2,27h.82l22.7-27h10.39l-21.76,25.47h-1.09l-11.06,12.74Zm5.36,2.62,6.25-6L384.55,297H373.69Z"/><path class="cls-6" d="M395.19,296a12.13,12.13,0,0,1-4.86-5.3,18.39,18.39,0,0,1-1.68-8.16V256h8.51v25c0,3.1.73,5.47,2.17,7.13s3.63,2.48,6.54,2.48a9.81,9.81,0,0,0,5.18-1.33,8.9,8.9,0,0,0,3.4-3.73,12.44,12.44,0,0,0,1.19-5.57V256h8.48V297h-8.48v-6.17h-.2a12.64,12.64,0,0,1-4.74,5.06,14.71,14.71,0,0,1-7.83,1.93A15.06,15.06,0,0,1,395.19,296Zm.25-47.66a4.5,4.5,0,0,1,0-6.37,4.47,4.47,0,0,1,3.25-1.31,4.47,4.47,0,0,1,4.53,4.5,4.33,4.33,0,0,1-1.31,3.18,4.39,4.39,0,0,1-3.22,1.31A4.47,4.47,0,0,1,395.44,248.35Zm15.43,0a4.5,4.5,0,0,1,0-6.37,4.65,4.65,0,0,1,6.47,0,4.53,4.53,0,0,1,0,6.37,4.65,4.65,0,0,1-6.47,0Z"/><path class="cls-6" d="M432.79,240.67h8.47v22h.2a12.12,12.12,0,0,1,4.86-5.57,15,15,0,0,1,7.87-2,14.1,14.1,0,0,1,7.68,2.05A13.85,13.85,0,0,1,467,263a19.49,19.49,0,0,1,1.81,8.67V297h-8.47V273.25c0-3.41-.82-6.06-2.46-8a8.65,8.65,0,0,0-6.92-2.85,9.05,9.05,0,0,0-8.44,5.16,12.58,12.58,0,0,0-1.21,5.66V297h-8.47Z"/><path class="cls-6" d="M477.24,240.67h8.48V297h-8.48Z"/><path class="cls-6" d="M501,296.28a13.8,13.8,0,0,1-5.8-4.41,13.38,13.38,0,0,1-2.54-6.59l0-.35H501l.08.39a7.22,7.22,0,0,0,2.77,4.4,10,10,0,0,0,6,1.58,13,13,0,0,0,4.37-.64A6.1,6.1,0,0,0,517,288.8a4.47,4.47,0,0,0,1-2.89v0a4.17,4.17,0,0,0-1.29-3.2,10.44,10.44,0,0,0-4.6-2l-6.72-1.53q-5.86-1.32-8.77-4.2a9.83,9.83,0,0,1-2.91-7.32v0a10.89,10.89,0,0,1,2-6.5,12.91,12.91,0,0,1,5.58-4.34,21,21,0,0,1,8.33-1.54,19.5,19.5,0,0,1,8.35,1.64,13.31,13.31,0,0,1,5.49,4.47,12,12,0,0,1,2.17,6.31v.47h-7.93l0-.28a6.57,6.57,0,0,0-2.42-4.39,8.62,8.62,0,0,0-5.62-1.7,10.75,10.75,0,0,0-3.95.66,5.75,5.75,0,0,0-2.58,1.9,4.74,4.74,0,0,0-.9,2.87v0a4.23,4.23,0,0,0,1.41,3.2,10,10,0,0,0,4.69,2.07l6.72,1.57q6.28,1.44,8.92,4.08a9.58,9.58,0,0,1,2.64,7.09v0a10.68,10.68,0,0,1-2.15,6.6,14.16,14.16,0,0,1-5.92,4.45,21.78,21.78,0,0,1-8.61,1.6A22.3,22.3,0,0,1,501,296.28Z"/><path class="cls-6" d="M540.35,295.25a17.28,17.28,0,0,1-6.76-7.43,25.4,25.4,0,0,1-2.37-11.36v0a24.83,24.83,0,0,1,2.41-11.29,17.58,17.58,0,0,1,6.77-7.37,19.7,19.7,0,0,1,10.24-2.59,19.48,19.48,0,0,1,9.12,2,15.92,15.92,0,0,1,6,5.33,15.44,15.44,0,0,1,2.53,7.19l0,.31h-8.08l-.08-.35a9.93,9.93,0,0,0-3-5.22,9.14,9.14,0,0,0-6.5-2.2A9.57,9.57,0,0,0,545,264a11.12,11.12,0,0,0-3.78,4.94,19.41,19.41,0,0,0-1.35,7.58v0a19.43,19.43,0,0,0,1.36,7.68,11.08,11.08,0,0,0,3.81,4.86,9.87,9.87,0,0,0,5.73,1.68,9.35,9.35,0,0,0,6.3-2.05,9.7,9.7,0,0,0,3.19-5.37l0-.31h8.12v.27a15.69,15.69,0,0,1-2.79,7.4,16.39,16.39,0,0,1-6.13,5.24,19.13,19.13,0,0,1-8.77,1.93A19.92,19.92,0,0,1,540.35,295.25Z"/><path class="cls-6" d="M574.74,240.67h8.48v22h.19a12.09,12.09,0,0,1,4.87-5.57,15,15,0,0,1,7.87-2,14.07,14.07,0,0,1,7.67,2.05A13.78,13.78,0,0,1,608.9,263a19.49,19.49,0,0,1,1.82,8.67V297h-8.48V273.25c0-3.41-.82-6.06-2.46-8a8.65,8.65,0,0,0-6.91-2.85,9.28,9.28,0,0,0-5.06,1.37,9.15,9.15,0,0,0-3.38,3.79,12.45,12.45,0,0,0-1.21,5.66V297h-8.48Z"/><path class="cls-6" d="M618.84,256h8.52v7h.15a10.87,10.87,0,0,1,3.48-5.72,9,9,0,0,1,6-2.09,14.68,14.68,0,0,1,1.7.09,12.4,12.4,0,0,1,1.23.22v7.85a7.22,7.22,0,0,0-1.53-.33,17.22,17.22,0,0,0-2.26-.14,9.29,9.29,0,0,0-4.69,1.15,7.59,7.59,0,0,0-3.05,3.33,11.84,11.84,0,0,0-1,5.21V297h-8.52Z"/><path class="cls-6" d="M649.19,296.22a11.68,11.68,0,0,1-4.8-4.37,12.17,12.17,0,0,1-1.72-6.49v-.08a10.27,10.27,0,0,1,4-8.53q4-3.15,11.27-3.58l15.55-.93v5.93l-14.41.9a10.53,10.53,0,0,0-5.84,1.82,5,5,0,0,0-2,4.2v.08a5,5,0,0,0,2,4.25,8.69,8.69,0,0,0,5.45,1.57,11.65,11.65,0,0,0,5.33-1.21,9.51,9.51,0,0,0,3.73-3.34,8.7,8.7,0,0,0,1.37-4.79V269.42a6.9,6.9,0,0,0-2.11-5.33,8.66,8.66,0,0,0-6.06-1.93,9.92,9.92,0,0,0-5.84,1.56,6.53,6.53,0,0,0-2.75,4l-.08.35h-8l0-.43a12.5,12.5,0,0,1,2.38-6.39,14,14,0,0,1,5.74-4.47,21.17,21.17,0,0,1,8.72-1.64,20.79,20.79,0,0,1,8.71,1.68,13.33,13.33,0,0,1,5.7,4.72,12.63,12.63,0,0,1,2,7.15V297h-8.51v-6.48H669a13.42,13.42,0,0,1-3.13,3.85,14.15,14.15,0,0,1-4.31,2.5,15,15,0,0,1-5.14.87A15.76,15.76,0,0,1,649.19,296.22Z"/><path class="cls-6" d="M685.76,256h8.51v6.21h.16a12.87,12.87,0,0,1,4.8-5.06,14.75,14.75,0,0,1,7.82-1.93q6.75,0,10.46,4.08t3.71,11.19V297h-8.47v-25q0-4.65-2.17-7.15c-1.44-1.66-3.63-2.5-6.54-2.5a9.91,9.91,0,0,0-5.18,1.33,8.91,8.91,0,0,0-3.4,3.71,12.53,12.53,0,0,0-1.19,5.63V297h-8.51Z"/><path class="cls-6" d="M729.86,240.67h8.47V297h-8.47Zm7,32.78h1.68L755,256h10l-19.26,20.23h-1.29l-7.54,7.54Zm4.37,4.53,5.51-6.06L765.56,297h-9.8Z"/><rect class="cls-5" x="850.46" y="219.01" width="14.82" height="119.12"/><rect class="cls-10" x="249.54" y="412.86" width="600" height="18"/><rect class="cls-10" x="249.54" y="113.56" width="600" height="18"/><rect class="cls-13" x="-259.98" y="624.13" width="1037.02" height="18" transform="translate(891.67 374.6) rotate(90)"/><rect class="cls-13" x="682.24" y="263.62" width="316" height="18" transform="translate(1112.86 -567.62) rotate(90)"/><rect class="cls-13" x="321.17" y="782.32" width="720.8" height="18" transform="translate(1472.89 109.75) rotate(90)"/><line class="cls-11" x1="687.49" y1="1195.51" x2="252.04" y2="1195.51"/><rect class="cls-12" x="684.99" y="1179.26" width="5" height="32.5"/><rect class="cls-12" x="249.54" y="1179.26" width="5" height="32.5"/><path class="cls-12" d="M415.06,1232.73H401v-3.83c.8-1.25,1.59-2.5,2.4-3.75l2.4-3.75q1.2-1.87,2.39-3.75t2.39-3.75l2.4-3.75h6.32V1229h3.91v3.69h-3.91v5.6h-4.2Zm0-3.62v-15.48H415l-2,3.07-2,3.07c-.66,1-1.32,2-2,3.07s-1.34,2.06-2,3.08l-2,3.08v.11Z"/><path class="cls-12" d="M439.87,1232.73h-14.1v-3.83q1.19-1.87,2.39-3.75l2.4-3.75,2.4-3.75q1.19-1.87,2.39-3.75t2.39-3.75h6.33V1229H448v3.69h-3.9v5.6h-4.2Zm0-3.62v-15.48h-.12l-2,3.07c-.66,1-1.33,2-2,3.07l-2,3.07-2,3.08-2,3.08v.11Z"/><path class="cls-12" d="M455.76,1237a11.12,11.12,0,0,1-3.7-5,21.05,21.05,0,0,1-1.29-7.74v0a21,21,0,0,1,1.29-7.73,11.07,11.07,0,0,1,3.7-5,10.29,10.29,0,0,1,11.54,0,11.08,11.08,0,0,1,3.71,5,20.75,20.75,0,0,1,1.3,7.73v0A20.84,20.84,0,0,1,471,1232a11.14,11.14,0,0,1-3.71,5,10.24,10.24,0,0,1-11.54,0Zm9.2-3.2a8.41,8.41,0,0,0,2.17-3.75,20,20,0,0,0,.75-5.82v0a19.85,19.85,0,0,0-.75-5.81,8.42,8.42,0,0,0-2.17-3.74,5.15,5.15,0,0,0-6.86,0,8.32,8.32,0,0,0-2.16,3.74,20.22,20.22,0,0,0-.74,5.81v0a20.34,20.34,0,0,0,.74,5.82,8.3,8.3,0,0,0,2.16,3.75,5.15,5.15,0,0,0,6.86,0Z"/><path class="cls-12" d="M476.1,1217.79h4.26V1221h.08a5.53,5.53,0,0,1,2.16-2.6,6.35,6.35,0,0,1,3.52-1,6.7,6.7,0,0,1,2.55.46,5.54,5.54,0,0,1,2,1.38,5.68,5.68,0,0,1,1.21,2.2h.1a6.37,6.37,0,0,1,1.47-2.16,6.7,6.7,0,0,1,2.21-1.4,7.61,7.61,0,0,1,2.73-.48,7,7,0,0,1,3.53.85,5.93,5.93,0,0,1,2.34,2.37,7.27,7.27,0,0,1,.84,3.57v14.14h-4.25v-13.1a4.41,4.41,0,0,0-1-3.1,3.78,3.78,0,0,0-2.91-1.1,4.31,4.31,0,0,0-2.2.56,4,4,0,0,0-1.48,1.59,4.79,4.79,0,0,0-.54,2.3v12.85H488.5v-13.41a3.59,3.59,0,0,0-3.88-3.89,4.07,4.07,0,0,0-3.72,2.23,5,5,0,0,0-.54,2.38v12.69H476.1Z"/><path class="cls-12" d="M509.11,1217.79h4.26V1221h.07a5.61,5.61,0,0,1,2.17-2.6,6.33,6.33,0,0,1,3.52-1,6.77,6.77,0,0,1,2.55.46,5.54,5.54,0,0,1,2,1.38,5.68,5.68,0,0,1,1.21,2.2h.1a6.37,6.37,0,0,1,1.47-2.16,6.6,6.6,0,0,1,2.21-1.4,7.59,7.59,0,0,1,2.72-.48,7,7,0,0,1,3.54.85,5.93,5.93,0,0,1,2.34,2.37,7.27,7.27,0,0,1,.84,3.57v14.14h-4.26v-13.1a4.4,4.4,0,0,0-1-3.1,3.78,3.78,0,0,0-2.91-1.1,4.28,4.28,0,0,0-2.2.56,4,4,0,0,0-1.48,1.59,4.79,4.79,0,0,0-.54,2.3v12.85h-4.16v-13.41a3.6,3.6,0,0,0-3.89-3.89,4.07,4.07,0,0,0-3.71,2.23,5,5,0,0,0-.54,2.38v12.69h-4.26Z"/><path class="cls-6" d="M373.64,946.23h8.75v56.36h-8.75ZM378,995.45H394.5q5.87,0,8.95-2.35a8,8,0,0,0,3.08-6.83v-.08a8,8,0,0,0-5.66-8.15,20.42,20.42,0,0,0-7-1H378v-6.76h14.1c3.85,0,6.8-.75,8.83-2.26A7.61,7.61,0,0,0,404,961.5v-.08a7.19,7.19,0,0,0-2.6-6q-2.59-2.07-7.37-2.07H378v-7.15h18.12a20.54,20.54,0,0,1,8.77,1.74,13,13,0,0,1,7.84,12.36v.08a12.12,12.12,0,0,1-1.37,5.62,13.09,13.09,0,0,1-3.73,4.46,11.43,11.43,0,0,1-5.37,2.22v.16a16.11,16.11,0,0,1,7,2.24,13,13,0,0,1,4.61,4.81,13.7,13.7,0,0,1,1.62,6.7v.08a15.29,15.29,0,0,1-2.32,8.51,14.89,14.89,0,0,1-6.63,5.47,25.14,25.14,0,0,1-10.31,1.91H378Z"/><path class="cls-6" d="M429.17,1000.82a17,17,0,0,1-6.68-7.39,25.46,25.46,0,0,1-2.32-11.26v0a25.43,25.43,0,0,1,2.34-11.23,17.75,17.75,0,0,1,6.6-7.5,18.35,18.35,0,0,1,10-2.68,18.54,18.54,0,0,1,9.94,2.56,16.84,16.84,0,0,1,6.43,7.23,24.52,24.52,0,0,1,2.27,10.83v2.86h-33.4v-6h29.29l-4.18,5.59v-3.29a17.4,17.4,0,0,0-1.3-7.2,9.39,9.39,0,0,0-3.64-4.28,10.15,10.15,0,0,0-5.37-1.41,9.75,9.75,0,0,0-9.14,5.84,16.38,16.38,0,0,0-1.37,7v3.29a15.72,15.72,0,0,0,1.35,6.81,9.83,9.83,0,0,0,3.85,4.34,11.25,11.25,0,0,0,5.9,1.5,11.81,11.81,0,0,0,4.41-.76,9.29,9.29,0,0,0,3.19-2,7.17,7.17,0,0,0,1.77-2.83l.12-.32h8l-.08.43a14,14,0,0,1-1.92,4.65,15.83,15.83,0,0,1-3.65,4,17.41,17.41,0,0,1-5.29,2.79,21.34,21.34,0,0,1-6.8,1A19.88,19.88,0,0,1,429.17,1000.82Z"/><path class="cls-6" d="M471.52,1000.8a17.32,17.32,0,0,1-6.76-7.42A25.48,25.48,0,0,1,462.39,982v0a24.83,24.83,0,0,1,2.41-11.29,17.49,17.49,0,0,1,6.77-7.36,19.71,19.71,0,0,1,10.24-2.6,19.48,19.48,0,0,1,9.12,2,15.82,15.82,0,0,1,6,5.33,15.39,15.39,0,0,1,2.54,7.19l0,.31h-8.08l-.08-.35a9.9,9.9,0,0,0-3-5.21,9.14,9.14,0,0,0-6.5-2.21,9.57,9.57,0,0,0-5.69,1.74,11.32,11.32,0,0,0-3.79,4.94,19.63,19.63,0,0,0-1.34,7.58v0a19.41,19.41,0,0,0,1.36,7.67,11,11,0,0,0,3.81,4.87,9.87,9.87,0,0,0,5.73,1.68,9.4,9.4,0,0,0,6.3-2,9.76,9.76,0,0,0,3.19-5.38l0-.31h8.12v.27a15.72,15.72,0,0,1-2.79,7.41,16.46,16.46,0,0,1-6.13,5.23,19.13,19.13,0,0,1-8.77,1.94A19.92,19.92,0,0,1,471.52,1000.8Z"/><path class="cls-6" d="M506.07,946.23h8.47v56.36h-8.47Zm7,32.77h1.68l16.44-17.5h10l-19.25,20.24H520.6l-7.54,7.53Zm4.37,4.53,5.51-6,18.83,25.11H532Z"/><path class="cls-6" d="M551.16,1000.82a17,17,0,0,1-6.68-7.39,25.46,25.46,0,0,1-2.32-11.26v0a25.43,25.43,0,0,1,2.34-11.23,17.84,17.84,0,0,1,6.61-7.5,18.32,18.32,0,0,1,10-2.68,18.59,18.59,0,0,1,9.94,2.56,16.88,16.88,0,0,1,6.42,7.23,24.52,24.52,0,0,1,2.27,10.83v2.86h-33.4v-6h29.3l-4.18,5.59v-3.29a17.39,17.39,0,0,0-1.31-7.2,9.37,9.37,0,0,0-3.63-4.28,10.16,10.16,0,0,0-5.38-1.41,9.75,9.75,0,0,0-9.14,5.84,16.39,16.39,0,0,0-1.36,7v3.29a15.87,15.87,0,0,0,1.34,6.81,9.83,9.83,0,0,0,3.85,4.34,11.25,11.25,0,0,0,5.9,1.5,11.78,11.78,0,0,0,4.41-.76,9.29,9.29,0,0,0,3.19-2,7.2,7.2,0,0,0,1.78-2.83l.11-.32h8l-.08.43a14.17,14.17,0,0,1-1.91,4.65,16.06,16.06,0,0,1-3.66,4,17.29,17.29,0,0,1-5.29,2.79,21.34,21.34,0,0,1-6.8,1A19.91,19.91,0,0,1,551.16,1000.82Z"/><rect class="cls-5" x="336.02" y="798.44" width="320" height="350" rx="13.07" transform="translate(1469.46 477.42) rotate(90)"/><rect class="cls-8" x="291.28" y="907.83" width="70.96" height="21.62" transform="translate(745.28 38.01) rotate(45)"/><path class="cls-6" d="M373.88,942h8.75v56.37h-8.75Zm4.38,49.22h16.48q5.86,0,8.95-2.35a8.06,8.06,0,0,0,3.08-6.83v-.08a8.65,8.65,0,0,0-1.42-5.08,8.75,8.75,0,0,0-4.24-3.07,20.71,20.71,0,0,0-7-1H378.26V966h14.1c3.85,0,6.8-.75,8.83-2.26a7.61,7.61,0,0,0,3-6.49v-.08a7.18,7.18,0,0,0-2.59-6c-1.74-1.38-4.19-2.07-7.37-2.07h-16V942h18.12a20.58,20.58,0,0,1,8.77,1.74A13,13,0,0,1,413,956.05v.08a12.11,12.11,0,0,1-1.36,5.62,13.2,13.2,0,0,1-3.73,4.46,11.32,11.32,0,0,1-5.38,2.22v.16a16,16,0,0,1,7,2.25,12.93,12.93,0,0,1,4.61,4.8,13.7,13.7,0,0,1,1.62,6.7v.08a15.19,15.19,0,0,1-2.33,8.51,14.86,14.86,0,0,1-6.62,5.47,25.13,25.13,0,0,1-10.31,1.92H378.26Z"/><path class="cls-6" d="M429.41,996.54a17,17,0,0,1-6.68-7.38,25.54,25.54,0,0,1-2.32-11.27v0a25.43,25.43,0,0,1,2.34-11.23,17.75,17.75,0,0,1,6.6-7.5,18.35,18.35,0,0,1,10-2.68,18.57,18.57,0,0,1,9.94,2.56,16.9,16.9,0,0,1,6.43,7.23A24.53,24.53,0,0,1,458,977.07v2.85H424.59v-6h29.29l-4.18,5.59v-3.28a17.24,17.24,0,0,0-1.31-7.21,9.31,9.31,0,0,0-3.63-4.28,10.15,10.15,0,0,0-5.37-1.41,9.75,9.75,0,0,0-9.14,5.84,16.4,16.4,0,0,0-1.37,7.06v3.28a15.69,15.69,0,0,0,1.35,6.81,9.83,9.83,0,0,0,3.85,4.34,11.23,11.23,0,0,0,5.9,1.5,11.85,11.85,0,0,0,4.41-.76,9.15,9.15,0,0,0,3.18-2,7.09,7.09,0,0,0,1.78-2.83l.12-.31h8l-.07.42a14,14,0,0,1-1.92,4.65,15.83,15.83,0,0,1-3.65,4,17.41,17.41,0,0,1-5.29,2.79,21.34,21.34,0,0,1-6.8,1A19.88,19.88,0,0,1,429.41,996.54Z"/><path class="cls-6" d="M471.75,996.52A17.29,17.29,0,0,1,465,989.1a25.48,25.48,0,0,1-2.37-11.37v0A24.83,24.83,0,0,1,465,966.4a17.57,17.57,0,0,1,6.78-7.36,19.71,19.71,0,0,1,10.24-2.6,19.48,19.48,0,0,1,9.12,2,15.89,15.89,0,0,1,6,5.33,15.39,15.39,0,0,1,2.54,7.19l0,.31h-8.09l-.07-.35a10,10,0,0,0-3-5.21,9.18,9.18,0,0,0-6.5-2.21,9.55,9.55,0,0,0-5.69,1.74,11.25,11.25,0,0,0-3.79,4.94,19.44,19.44,0,0,0-1.35,7.58v0a19.41,19.41,0,0,0,1.37,7.67,10.92,10.92,0,0,0,3.81,4.87,9.86,9.86,0,0,0,5.72,1.68,9.41,9.41,0,0,0,6.31-2,9.88,9.88,0,0,0,3.19-5.38l0-.31h8.13v.28A15.73,15.73,0,0,1,497,992a16.49,16.49,0,0,1-6.14,5.23,19.1,19.1,0,0,1-8.77,1.94A20,20,0,0,1,471.75,996.52Z"/><path class="cls-6" d="M506.3,942h8.48v56.37H506.3Zm7,32.77H515l16.44-17.5h10l-19.26,20.24h-1.28L513.3,985Zm4.37,4.53,5.51-6L542,998.32H532.2Z"/><path class="cls-6" d="M551.4,996.54a17,17,0,0,1-6.68-7.38,25.54,25.54,0,0,1-2.32-11.27v0a25.43,25.43,0,0,1,2.34-11.23,17.75,17.75,0,0,1,6.6-7.5,18.35,18.35,0,0,1,10-2.68,18.54,18.54,0,0,1,9.94,2.56,16.9,16.9,0,0,1,6.43,7.23A24.53,24.53,0,0,1,580,977.07v2.85h-33.4v-6h29.29l-4.18,5.59v-3.28a17.41,17.41,0,0,0-1.3-7.21,9.39,9.39,0,0,0-3.64-4.28,10.15,10.15,0,0,0-5.37-1.41,9.75,9.75,0,0,0-9.14,5.84,16.4,16.4,0,0,0-1.37,7.06v3.28a15.69,15.69,0,0,0,1.35,6.81,9.83,9.83,0,0,0,3.85,4.34,11.25,11.25,0,0,0,5.9,1.5,11.81,11.81,0,0,0,4.41-.76,9.29,9.29,0,0,0,3.19-2,7.17,7.17,0,0,0,1.77-2.83l.12-.31h8l-.08.42a14,14,0,0,1-1.92,4.65,15.83,15.83,0,0,1-3.65,4,17.41,17.41,0,0,1-5.29,2.79,21.34,21.34,0,0,1-6.8,1A19.88,19.88,0,0,1,551.4,996.54Z"/><path class="cls-6" d="M586.42,957.22h8.52v6.21h.15a13,13,0,0,1,4.81-5.06,14.8,14.8,0,0,1,7.81-1.93c4.51,0,8,1.36,10.47,4.08s3.71,6.46,3.71,11.19v26.61h-8.48v-25c0-3.09-.72-5.48-2.16-7.14s-3.63-2.5-6.55-2.5a9.87,9.87,0,0,0-5.17,1.32,8.81,8.81,0,0,0-3.4,3.72,12.35,12.35,0,0,0-1.19,5.62v24h-8.52Z"/><rect class="cls-10" x="471.29" y="502.34" width="201.3" height="9" transform="translate(1143.87 1013.67) rotate(180)"/></svg>